<svg xmlns="http://www.w3.org/2000/svg" xmlns:xlink="http://www.w3.org/1999/xlink" xmlns:s="https://github.com/nturley/netlistsvg" width="1125" height="852.5">
  <style>  svg {
      stroke: #011e41;
      fill: none;
    }
    text {
      fill:#ffffff;
      stroke:none;
      font-size:10px;
      font-weight: bold;
      font-family: "Courier New", monospace;
    }
    .fill-1 { fill: #003262; }
    .fill-2 { fill: #011e41; stroke: #003262; }
    .fill-3 { fill: #ffffff; }
    .fill-4 { fill: #003262; }
    .fill-5 { fill: #011e41; stroke: #fdda64; }
    .text-1 { fill: #fdb515; }
    .text-2 { fill: #003262; }
    .text-3 { stroke: #fdda64; }
    .nodelabel { text-anchor: middle; }
    .inputPortLabel { text-anchor: end; }
    .splitjoinBody { fill: #3c3c43; }</style>
  <g s:type="not" transform="translate(309,264)" s:width="30" s:height="20" id="cell_\101">
    <s:alias val="$_NOT_"/>
    <s:alias val="$not"/>
    <s:alias val="$logic_not"/>
    <path d="M0,0 L0,20 L20,10 Z" class="cell_\101 fill-1"/>
    <circle cx="24" cy="10" r="3" class="cell_\101 fill-3"/>
    <g s:x="-1" s:y="10" s:pid="A"/>
    <g s:x="27" s:y="10" s:pid="Y"/>
  </g>
  <g s:type="and" transform="translate(374.6666666666667,339)" s:width="30" s:height="25" id="cell_\102">
    <s:alias val="$and"/>
    <s:alias val="$logic_and"/>
    <s:alias val="$_AND_"/>
    <s:alias val="$reduce_and"/>
    <path d="M0,0 L0,25 L15,25 A15 12.5 0 0 0 15,0 Z" class="cell_\102 fill-1"/>
    <g s:x="0" s:y="5" s:pid="A"/>
    <g s:x="0" s:y="20" s:pid="B"/>
    <g s:x="30" s:y="12.5" s:pid="Y"/>
  </g>
  <g s:type="not" transform="translate(375,284)" s:width="30" s:height="20" id="cell_\109">
    <s:alias val="$_NOT_"/>
    <s:alias val="$not"/>
    <s:alias val="$logic_not"/>
    <path d="M0,0 L0,20 L20,10 Z" class="cell_\109 fill-1"/>
    <circle cx="24" cy="10" r="3" class="cell_\109 fill-3"/>
    <g s:x="-1" s:y="10" s:pid="A"/>
    <g s:x="27" s:y="10" s:pid="Y"/>
  </g>
  <g s:type="and" transform="translate(440.6666666666667,274)" s:width="30" s:height="25" id="cell_\110">
    <s:alias val="$and"/>
    <s:alias val="$logic_and"/>
    <s:alias val="$_AND_"/>
    <s:alias val="$reduce_and"/>
    <path d="M0,0 L0,25 L15,25 A15 12.5 0 0 0 15,0 Z" class="cell_\110 fill-1"/>
    <g s:x="0" s:y="5" s:pid="A"/>
    <g s:x="0" s:y="20" s:pid="B"/>
    <g s:x="30" s:y="12.5" s:pid="Y"/>
  </g>
  <g s:type="not" transform="translate(441,364)" s:width="30" s:height="20" id="cell_\117">
    <s:alias val="$_NOT_"/>
    <s:alias val="$not"/>
    <s:alias val="$logic_not"/>
    <path d="M0,0 L0,20 L20,10 Z" class="cell_\117 fill-1"/>
    <circle cx="24" cy="10" r="3" class="cell_\117 fill-3"/>
    <g s:x="-1" s:y="10" s:pid="A"/>
    <g s:x="27" s:y="10" s:pid="Y"/>
  </g>
  <g s:type="and" transform="translate(506.6666666666667,281.5)" s:width="30" s:height="25" id="cell_\118">
    <s:alias val="$and"/>
    <s:alias val="$logic_and"/>
    <s:alias val="$_AND_"/>
    <s:alias val="$reduce_and"/>
    <path d="M0,0 L0,25 L15,25 A15 12.5 0 0 0 15,0 Z" class="cell_\118 fill-1"/>
    <g s:x="0" s:y="5" s:pid="A"/>
    <g s:x="0" s:y="20" s:pid="B"/>
    <g s:x="30" s:y="12.5" s:pid="Y"/>
  </g>
  <g s:type="not" transform="translate(507,384)" s:width="30" s:height="20" id="cell_\125">
    <s:alias val="$_NOT_"/>
    <s:alias val="$not"/>
    <s:alias val="$logic_not"/>
    <path d="M0,0 L0,20 L20,10 Z" class="cell_\125 fill-1"/>
    <circle cx="24" cy="10" r="3" class="cell_\125 fill-3"/>
    <g s:x="-1" s:y="10" s:pid="A"/>
    <g s:x="27" s:y="10" s:pid="Y"/>
  </g>
  <g s:type="and" transform="translate(618,289)" s:width="30" s:height="25" id="cell_\126">
    <s:alias val="$and"/>
    <s:alias val="$logic_and"/>
    <s:alias val="$_AND_"/>
    <s:alias val="$reduce_and"/>
    <path d="M0,0 L0,25 L15,25 A15 12.5 0 0 0 15,0 Z" class="cell_\126 fill-1"/>
    <g s:x="0" s:y="5" s:pid="A"/>
    <g s:x="0" s:y="20" s:pid="B"/>
    <g s:x="30" s:y="12.5" s:pid="Y"/>
  </g>
  <g s:type="and" transform="translate(374.6666666666667,24.5)" s:width="30" s:height="25" id="cell_\14">
    <s:alias val="$and"/>
    <s:alias val="$logic_and"/>
    <s:alias val="$_AND_"/>
    <s:alias val="$reduce_and"/>
    <path d="M0,0 L0,25 L15,25 A15 12.5 0 0 0 15,0 Z" class="cell_\14 fill-1"/>
    <g s:x="0" s:y="5" s:pid="A"/>
    <g s:x="0" s:y="20" s:pid="B"/>
    <g s:x="30" s:y="12.5" s:pid="Y"/>
  </g>
  <g s:type="not" transform="translate(309,580)" s:width="30" s:height="20" id="cell_\141">
    <s:alias val="$_NOT_"/>
    <s:alias val="$not"/>
    <s:alias val="$logic_not"/>
    <path d="M0,0 L0,20 L20,10 Z" class="cell_\141 fill-1"/>
    <circle cx="24" cy="10" r="3" class="cell_\141 fill-3"/>
    <g s:x="-1" s:y="10" s:pid="A"/>
    <g s:x="27" s:y="10" s:pid="Y"/>
  </g>
  <g s:type="not" transform="translate(309,635)" s:width="30" s:height="20" id="cell_\151">
    <s:alias val="$_NOT_"/>
    <s:alias val="$not"/>
    <s:alias val="$logic_not"/>
    <path d="M0,0 L0,20 L20,10 Z" class="cell_\151 fill-1"/>
    <circle cx="24" cy="10" r="3" class="cell_\151 fill-3"/>
    <g s:x="-1" s:y="10" s:pid="A"/>
    <g s:x="27" s:y="10" s:pid="Y"/>
  </g>
  <g s:type="and" transform="translate(374.6666666666667,585)" s:width="30" s:height="25" id="cell_\152">
    <s:alias val="$and"/>
    <s:alias val="$logic_and"/>
    <s:alias val="$_AND_"/>
    <s:alias val="$reduce_and"/>
    <path d="M0,0 L0,25 L15,25 A15 12.5 0 0 0 15,0 Z" class="cell_\152 fill-1"/>
    <g s:x="0" s:y="5" s:pid="A"/>
    <g s:x="0" s:y="20" s:pid="B"/>
    <g s:x="30" s:y="12.5" s:pid="Y"/>
  </g>
  <g s:type="not" transform="translate(375,655)" s:width="30" s:height="20" id="cell_\159">
    <s:alias val="$_NOT_"/>
    <s:alias val="$not"/>
    <s:alias val="$logic_not"/>
    <path d="M0,0 L0,20 L20,10 Z" class="cell_\159 fill-1"/>
    <circle cx="24" cy="10" r="3" class="cell_\159 fill-3"/>
    <g s:x="-1" s:y="10" s:pid="A"/>
    <g s:x="27" s:y="10" s:pid="Y"/>
  </g>
  <g s:type="and" transform="translate(440.6666666666667,32)" s:width="30" s:height="25" id="cell_\16">
    <s:alias val="$and"/>
    <s:alias val="$logic_and"/>
    <s:alias val="$_AND_"/>
    <s:alias val="$reduce_and"/>
    <path d="M0,0 L0,25 L15,25 A15 12.5 0 0 0 15,0 Z" class="cell_\16 fill-1"/>
    <g s:x="0" s:y="5" s:pid="A"/>
    <g s:x="0" s:y="20" s:pid="B"/>
    <g s:x="30" s:y="12.5" s:pid="Y"/>
  </g>
  <g s:type="and" transform="translate(440.6666666666667,592.5)" s:width="30" s:height="25" id="cell_\160">
    <s:alias val="$and"/>
    <s:alias val="$logic_and"/>
    <s:alias val="$_AND_"/>
    <s:alias val="$reduce_and"/>
    <path d="M0,0 L0,25 L15,25 A15 12.5 0 0 0 15,0 Z" class="cell_\160 fill-1"/>
    <g s:x="0" s:y="5" s:pid="A"/>
    <g s:x="0" s:y="20" s:pid="B"/>
    <g s:x="30" s:y="12.5" s:pid="Y"/>
  </g>
  <g s:type="not" transform="translate(441,675)" s:width="30" s:height="20" id="cell_\167">
    <s:alias val="$_NOT_"/>
    <s:alias val="$not"/>
    <s:alias val="$logic_not"/>
    <path d="M0,0 L0,20 L20,10 Z" class="cell_\167 fill-1"/>
    <circle cx="24" cy="10" r="3" class="cell_\167 fill-3"/>
    <g s:x="-1" s:y="10" s:pid="A"/>
    <g s:x="27" s:y="10" s:pid="Y"/>
  </g>
  <g s:type="and" transform="translate(506.6666666666667,600)" s:width="30" s:height="25" id="cell_\168">
    <s:alias val="$and"/>
    <s:alias val="$logic_and"/>
    <s:alias val="$_AND_"/>
    <s:alias val="$reduce_and"/>
    <path d="M0,0 L0,25 L15,25 A15 12.5 0 0 0 15,0 Z" class="cell_\168 fill-1"/>
    <g s:x="0" s:y="5" s:pid="A"/>
    <g s:x="0" s:y="20" s:pid="B"/>
    <g s:x="30" s:y="12.5" s:pid="Y"/>
  </g>
  <g s:type="not" transform="translate(507,695)" s:width="30" s:height="20" id="cell_\175">
    <s:alias val="$_NOT_"/>
    <s:alias val="$not"/>
    <s:alias val="$logic_not"/>
    <path d="M0,0 L0,20 L20,10 Z" class="cell_\175 fill-1"/>
    <circle cx="24" cy="10" r="3" class="cell_\175 fill-3"/>
    <g s:x="-1" s:y="10" s:pid="A"/>
    <g s:x="27" s:y="10" s:pid="Y"/>
  </g>
  <g s:type="and" transform="translate(618,607.5)" s:width="30" s:height="25" id="cell_\176">
    <s:alias val="$and"/>
    <s:alias val="$logic_and"/>
    <s:alias val="$_AND_"/>
    <s:alias val="$reduce_and"/>
    <path d="M0,0 L0,25 L15,25 A15 12.5 0 0 0 15,0 Z" class="cell_\176 fill-1"/>
    <g s:x="0" s:y="5" s:pid="A"/>
    <g s:x="0" s:y="20" s:pid="B"/>
    <g s:x="30" s:y="12.5" s:pid="Y"/>
  </g>
  <g s:type="and" transform="translate(790.6666666666666,39.5)" s:width="30" s:height="25" id="cell_\178">
    <s:alias val="$and"/>
    <s:alias val="$logic_and"/>
    <s:alias val="$_AND_"/>
    <s:alias val="$reduce_and"/>
    <path d="M0,0 L0,25 L15,25 A15 12.5 0 0 0 15,0 Z" class="cell_\178 fill-1"/>
    <g s:x="0" s:y="5" s:pid="A"/>
    <g s:x="0" s:y="20" s:pid="B"/>
    <g s:x="30" s:y="12.5" s:pid="Y"/>
  </g>
  <g s:type="not" transform="translate(791,291.5)" s:width="30" s:height="20" id="cell_\179">
    <s:alias val="$_NOT_"/>
    <s:alias val="$not"/>
    <s:alias val="$logic_not"/>
    <path d="M0,0 L0,20 L20,10 Z" class="cell_\179 fill-1"/>
    <circle cx="24" cy="10" r="3" class="cell_\179 fill-3"/>
    <g s:x="-1" s:y="10" s:pid="A"/>
    <g s:x="27" s:y="10" s:pid="Y"/>
  </g>
  <g s:type="and" transform="translate(506.6666666666667,39.5)" s:width="30" s:height="25" id="cell_\18">
    <s:alias val="$and"/>
    <s:alias val="$logic_and"/>
    <s:alias val="$_AND_"/>
    <s:alias val="$reduce_and"/>
    <path d="M0,0 L0,25 L15,25 A15 12.5 0 0 0 15,0 Z" class="cell_\18 fill-1"/>
    <g s:x="0" s:y="5" s:pid="A"/>
    <g s:x="0" s:y="20" s:pid="B"/>
    <g s:x="30" s:y="12.5" s:pid="Y"/>
  </g>
  <g s:type="and" transform="translate(856,47)" s:width="30" s:height="25" id="cell_\180">
    <s:alias val="$and"/>
    <s:alias val="$logic_and"/>
    <s:alias val="$_AND_"/>
    <s:alias val="$reduce_and"/>
    <path d="M0,0 L0,25 L15,25 A15 12.5 0 0 0 15,0 Z" class="cell_\180 fill-1"/>
    <g s:x="0" s:y="5" s:pid="A"/>
    <g s:x="0" s:y="20" s:pid="B"/>
    <g s:x="30" s:y="12.5" s:pid="Y"/>
  </g>
  <g s:type="and" transform="translate(790.6666666666666,540.5)" s:width="30" s:height="25" id="cell_\181">
    <s:alias val="$and"/>
    <s:alias val="$logic_and"/>
    <s:alias val="$_AND_"/>
    <s:alias val="$reduce_and"/>
    <path d="M0,0 L0,25 L15,25 A15 12.5 0 0 0 15,0 Z" class="cell_\181 fill-1"/>
    <g s:x="0" s:y="5" s:pid="A"/>
    <g s:x="0" s:y="20" s:pid="B"/>
    <g s:x="30" s:y="12.5" s:pid="Y"/>
  </g>
  <g s:type="not" transform="translate(791,810)" s:width="30" s:height="20" id="cell_\182">
    <s:alias val="$_NOT_"/>
    <s:alias val="$not"/>
    <s:alias val="$logic_not"/>
    <path d="M0,0 L0,20 L20,10 Z" class="cell_\182 fill-1"/>
    <circle cx="24" cy="10" r="3" class="cell_\182 fill-3"/>
    <g s:x="-1" s:y="10" s:pid="A"/>
    <g s:x="27" s:y="10" s:pid="Y"/>
  </g>
  <g s:type="and" transform="translate(856,548)" s:width="30" s:height="25" id="cell_\183">
    <s:alias val="$and"/>
    <s:alias val="$logic_and"/>
    <s:alias val="$_AND_"/>
    <s:alias val="$reduce_and"/>
    <path d="M0,0 L0,25 L15,25 A15 12.5 0 0 0 15,0 Z" class="cell_\183 fill-1"/>
    <g s:x="0" s:y="5" s:pid="A"/>
    <g s:x="0" s:y="20" s:pid="B"/>
    <g s:x="30" s:y="12.5" s:pid="Y"/>
  </g>
  <g s:type="and" transform="translate(790.6666666666666,480.5)" s:width="30" s:height="25" id="cell_\184">
    <s:alias val="$and"/>
    <s:alias val="$logic_and"/>
    <s:alias val="$_AND_"/>
    <s:alias val="$reduce_and"/>
    <path d="M0,0 L0,25 L15,25 A15 12.5 0 0 0 15,0 Z" class="cell_\184 fill-1"/>
    <g s:x="0" s:y="5" s:pid="A"/>
    <g s:x="0" s:y="20" s:pid="B"/>
    <g s:x="30" s:y="12.5" s:pid="Y"/>
  </g>
  <g s:type="and" transform="translate(856,281.5)" s:width="30" s:height="25" id="cell_\186">
    <s:alias val="$and"/>
    <s:alias val="$logic_and"/>
    <s:alias val="$_AND_"/>
    <s:alias val="$reduce_and"/>
    <path d="M0,0 L0,25 L15,25 A15 12.5 0 0 0 15,0 Z" class="cell_\186 fill-1"/>
    <g s:x="0" s:y="5" s:pid="A"/>
    <g s:x="0" s:y="20" s:pid="B"/>
    <g s:x="30" s:y="12.5" s:pid="Y"/>
  </g>
  <g s:type="and" transform="translate(790.6666666666666,750)" s:width="30" s:height="25" id="cell_\187">
    <s:alias val="$and"/>
    <s:alias val="$logic_and"/>
    <s:alias val="$_AND_"/>
    <s:alias val="$reduce_and"/>
    <path d="M0,0 L0,25 L15,25 A15 12.5 0 0 0 15,0 Z" class="cell_\187 fill-1"/>
    <g s:x="0" s:y="5" s:pid="A"/>
    <g s:x="0" s:y="20" s:pid="B"/>
    <g s:x="30" s:y="12.5" s:pid="Y"/>
  </g>
  <g s:type="and" transform="translate(856,757.5)" s:width="30" s:height="25" id="cell_\189">
    <s:alias val="$and"/>
    <s:alias val="$logic_and"/>
    <s:alias val="$_AND_"/>
    <s:alias val="$reduce_and"/>
    <path d="M0,0 L0,25 L15,25 A15 12.5 0 0 0 15,0 Z" class="cell_\189 fill-1"/>
    <g s:x="0" s:y="5" s:pid="A"/>
    <g s:x="0" s:y="20" s:pid="B"/>
    <g s:x="30" s:y="12.5" s:pid="Y"/>
  </g>
  <g s:type="and" transform="translate(618,47)" s:width="30" s:height="25" id="cell_\20">
    <s:alias val="$and"/>
    <s:alias val="$logic_and"/>
    <s:alias val="$_AND_"/>
    <s:alias val="$reduce_and"/>
    <path d="M0,0 L0,25 L15,25 A15 12.5 0 0 0 15,0 Z" class="cell_\20 fill-1"/>
    <g s:x="0" s:y="5" s:pid="A"/>
    <g s:x="0" s:y="20" s:pid="B"/>
    <g s:x="30" s:y="12.5" s:pid="Y"/>
  </g>
  <g s:type="reduce_nxor" transform="translate(230,468)" s:width="33" s:height="25" id="cell_\22">
    <s:alias val="$xnor"/>
    <s:alias val="$reduce_xnor"/>
    <s:alias val="$_XNOR_"/>
    <path d="M3,0 A30 25 0 0 1 3,25 A30 25 0 0 0 33,12.5 A30 25 0 0 0 3,0" class="cell_\22 fill-1"/>
    <path d="M0,0 A30 25 0 0 1 0,25" class="cell_\22"/>
    <circle cx="36" cy="12.5" r="3" class="cell_\22 fill-3"/>
    <g s:x="2" s:y="5" s:pid="A"/>
    <g s:x="2" s:y="20" s:pid="B"/>
    <g s:x="38" s:y="12.5" s:pid="Y"/>
  </g>
  <g s:type="reduce_nxor" transform="translate(230,27)" s:width="33" s:height="25" id="cell_\3">
    <s:alias val="$xnor"/>
    <s:alias val="$reduce_xnor"/>
    <s:alias val="$_XNOR_"/>
    <path d="M3,0 A30 25 0 0 1 3,25 A30 25 0 0 0 33,12.5 A30 25 0 0 0 3,0" class="cell_\3 fill-1"/>
    <path d="M0,0 A30 25 0 0 1 0,25" class="cell_\3"/>
    <circle cx="36" cy="12.5" r="3" class="cell_\3 fill-3"/>
    <g s:x="2" s:y="5" s:pid="A"/>
    <g s:x="2" s:y="20" s:pid="B"/>
    <g s:x="38" s:y="12.5" s:pid="Y"/>
  </g>
  <g s:type="and" transform="translate(374.6666666666667,465.5)" s:width="30" s:height="25" id="cell_\33">
    <s:alias val="$and"/>
    <s:alias val="$logic_and"/>
    <s:alias val="$_AND_"/>
    <s:alias val="$reduce_and"/>
    <path d="M0,0 L0,25 L15,25 A15 12.5 0 0 0 15,0 Z" class="cell_\33 fill-1"/>
    <g s:x="0" s:y="5" s:pid="A"/>
    <g s:x="0" s:y="20" s:pid="B"/>
    <g s:x="30" s:y="12.5" s:pid="Y"/>
  </g>
  <g s:type="and" transform="translate(440.6666666666667,473)" s:width="30" s:height="25" id="cell_\35">
    <s:alias val="$and"/>
    <s:alias val="$logic_and"/>
    <s:alias val="$_AND_"/>
    <s:alias val="$reduce_and"/>
    <path d="M0,0 L0,25 L15,25 A15 12.5 0 0 0 15,0 Z" class="cell_\35 fill-1"/>
    <g s:x="0" s:y="5" s:pid="A"/>
    <g s:x="0" s:y="20" s:pid="B"/>
    <g s:x="30" s:y="12.5" s:pid="Y"/>
  </g>
  <g s:type="and" transform="translate(506.6666666666667,480.5)" s:width="30" s:height="25" id="cell_\37">
    <s:alias val="$and"/>
    <s:alias val="$logic_and"/>
    <s:alias val="$_AND_"/>
    <s:alias val="$reduce_and"/>
    <path d="M0,0 L0,25 L15,25 A15 12.5 0 0 0 15,0 Z" class="cell_\37 fill-1"/>
    <g s:x="0" s:y="5" s:pid="A"/>
    <g s:x="0" s:y="20" s:pid="B"/>
    <g s:x="30" s:y="12.5" s:pid="Y"/>
  </g>
  <g s:type="and" transform="translate(618,488)" s:width="30" s:height="25" id="cell_\39">
    <s:alias val="$and"/>
    <s:alias val="$logic_and"/>
    <s:alias val="$_AND_"/>
    <s:alias val="$reduce_and"/>
    <path d="M0,0 L0,25 L15,25 A15 12.5 0 0 0 15,0 Z" class="cell_\39 fill-1"/>
    <g s:x="0" s:y="5" s:pid="A"/>
    <g s:x="0" s:y="20" s:pid="B"/>
    <g s:x="30" s:y="12.5" s:pid="Y"/>
  </g>
  <g s:type="reduce_nxor" transform="translate(230,152)" s:width="33" s:height="25" id="cell_\41">
    <s:alias val="$xnor"/>
    <s:alias val="$reduce_xnor"/>
    <s:alias val="$_XNOR_"/>
    <path d="M3,0 A30 25 0 0 1 3,25 A30 25 0 0 0 33,12.5 A30 25 0 0 0 3,0" class="cell_\41 fill-1"/>
    <path d="M0,0 A30 25 0 0 1 0,25" class="cell_\41"/>
    <circle cx="36" cy="12.5" r="3" class="cell_\41 fill-3"/>
    <g s:x="2" s:y="5" s:pid="A"/>
    <g s:x="2" s:y="20" s:pid="B"/>
    <g s:x="38" s:y="12.5" s:pid="Y"/>
  </g>
  <g s:type="and" transform="translate(374.6666666666667,149.5)" s:width="30" s:height="25" id="cell_\52">
    <s:alias val="$and"/>
    <s:alias val="$logic_and"/>
    <s:alias val="$_AND_"/>
    <s:alias val="$reduce_and"/>
    <path d="M0,0 L0,25 L15,25 A15 12.5 0 0 0 15,0 Z" class="cell_\52 fill-1"/>
    <g s:x="0" s:y="5" s:pid="A"/>
    <g s:x="0" s:y="20" s:pid="B"/>
    <g s:x="30" s:y="12.5" s:pid="Y"/>
  </g>
  <g s:type="and" transform="translate(440.6666666666667,157)" s:width="30" s:height="25" id="cell_\54">
    <s:alias val="$and"/>
    <s:alias val="$logic_and"/>
    <s:alias val="$_AND_"/>
    <s:alias val="$reduce_and"/>
    <path d="M0,0 L0,25 L15,25 A15 12.5 0 0 0 15,0 Z" class="cell_\54 fill-1"/>
    <g s:x="0" s:y="5" s:pid="A"/>
    <g s:x="0" s:y="20" s:pid="B"/>
    <g s:x="30" s:y="12.5" s:pid="Y"/>
  </g>
  <g s:type="and" transform="translate(506.6666666666667,164.5)" s:width="30" s:height="25" id="cell_\56">
    <s:alias val="$and"/>
    <s:alias val="$logic_and"/>
    <s:alias val="$_AND_"/>
    <s:alias val="$reduce_and"/>
    <path d="M0,0 L0,25 L15,25 A15 12.5 0 0 0 15,0 Z" class="cell_\56 fill-1"/>
    <g s:x="0" s:y="5" s:pid="A"/>
    <g s:x="0" s:y="20" s:pid="B"/>
    <g s:x="30" s:y="12.5" s:pid="Y"/>
  </g>
  <g s:type="and" transform="translate(618,172)" s:width="30" s:height="25" id="cell_\58">
    <s:alias val="$and"/>
    <s:alias val="$logic_and"/>
    <s:alias val="$_AND_"/>
    <s:alias val="$reduce_and"/>
    <path d="M0,0 L0,25 L15,25 A15 12.5 0 0 0 15,0 Z" class="cell_\58 fill-1"/>
    <g s:x="0" s:y="5" s:pid="A"/>
    <g s:x="0" s:y="20" s:pid="B"/>
    <g s:x="30" s:y="12.5" s:pid="Y"/>
  </g>
  <g s:type="reduce_nxor" transform="translate(230,737.5)" s:width="33" s:height="25" id="cell_\60">
    <s:alias val="$xnor"/>
    <s:alias val="$reduce_xnor"/>
    <s:alias val="$_XNOR_"/>
    <path d="M3,0 A30 25 0 0 1 3,25 A30 25 0 0 0 33,12.5 A30 25 0 0 0 3,0" class="cell_\60 fill-1"/>
    <path d="M0,0 A30 25 0 0 1 0,25" class="cell_\60"/>
    <circle cx="36" cy="12.5" r="3" class="cell_\60 fill-3"/>
    <g s:x="2" s:y="5" s:pid="A"/>
    <g s:x="2" s:y="20" s:pid="B"/>
    <g s:x="38" s:y="12.5" s:pid="Y"/>
  </g>
  <g s:type="and" transform="translate(374.6666666666667,735)" s:width="30" s:height="25" id="cell_\71">
    <s:alias val="$and"/>
    <s:alias val="$logic_and"/>
    <s:alias val="$_AND_"/>
    <s:alias val="$reduce_and"/>
    <path d="M0,0 L0,25 L15,25 A15 12.5 0 0 0 15,0 Z" class="cell_\71 fill-1"/>
    <g s:x="0" s:y="5" s:pid="A"/>
    <g s:x="0" s:y="20" s:pid="B"/>
    <g s:x="30" s:y="12.5" s:pid="Y"/>
  </g>
  <g s:type="and" transform="translate(440.6666666666667,742.5)" s:width="30" s:height="25" id="cell_\73">
    <s:alias val="$and"/>
    <s:alias val="$logic_and"/>
    <s:alias val="$_AND_"/>
    <s:alias val="$reduce_and"/>
    <path d="M0,0 L0,25 L15,25 A15 12.5 0 0 0 15,0 Z" class="cell_\73 fill-1"/>
    <g s:x="0" s:y="5" s:pid="A"/>
    <g s:x="0" s:y="20" s:pid="B"/>
    <g s:x="30" s:y="12.5" s:pid="Y"/>
  </g>
  <g s:type="and" transform="translate(506.6666666666667,750)" s:width="30" s:height="25" id="cell_\75">
    <s:alias val="$and"/>
    <s:alias val="$logic_and"/>
    <s:alias val="$_AND_"/>
    <s:alias val="$reduce_and"/>
    <path d="M0,0 L0,25 L15,25 A15 12.5 0 0 0 15,0 Z" class="cell_\75 fill-1"/>
    <g s:x="0" s:y="5" s:pid="A"/>
    <g s:x="0" s:y="20" s:pid="B"/>
    <g s:x="30" s:y="12.5" s:pid="Y"/>
  </g>
  <g s:type="and" transform="translate(618,757.5)" s:width="30" s:height="25" id="cell_\77">
    <s:alias val="$and"/>
    <s:alias val="$logic_and"/>
    <s:alias val="$_AND_"/>
    <s:alias val="$reduce_and"/>
    <path d="M0,0 L0,25 L15,25 A15 12.5 0 0 0 15,0 Z" class="cell_\77 fill-1"/>
    <g s:x="0" s:y="5" s:pid="A"/>
    <g s:x="0" s:y="20" s:pid="B"/>
    <g s:x="30" s:y="12.5" s:pid="Y"/>
  </g>
  <g s:type="not" transform="translate(309,405)" s:width="30" s:height="20" id="cell_\91">
    <s:alias val="$_NOT_"/>
    <s:alias val="$not"/>
    <s:alias val="$logic_not"/>
    <path d="M0,0 L0,20 L20,10 Z" class="cell_\91 fill-1"/>
    <circle cx="24" cy="10" r="3" class="cell_\91 fill-3"/>
    <g s:x="-1" s:y="10" s:pid="A"/>
    <g s:x="27" s:y="10" s:pid="Y"/>
  </g>
  <g s:type="inputExt" transform="translate(12,22)" s:width="30" s:height="20" id="cell_stage_ex_select_source_1">
    <text x="15" y="-4" class="nodelabel text-1 cell_stage_ex_select_source_1" s:attribute="ref">stage_ex_select_source_1</text>
    <s:alias val="$_inputExt_"/>
    <path d="M0,0 L0,20 L15,20 L30,10 L15,0 Z" class="cell_stage_ex_select_source_1 fill-4"/>
    <g s:x="30" s:y="10" s:pid="Y"/>
  </g>
  <g s:type="inputExt" transform="translate(12,463)" s:width="30" s:height="20" id="cell_stage_ex_select_source_2">
    <text x="15" y="-4" class="nodelabel text-1 cell_stage_ex_select_source_2" s:attribute="ref">stage_ex_select_source_2</text>
    <s:alias val="$_inputExt_"/>
    <path d="M0,0 L0,20 L15,20 L30,10 L15,0 Z" class="cell_stage_ex_select_source_2 fill-4"/>
    <g s:x="30" s:y="10" s:pid="Y"/>
  </g>
  <g s:type="inputExt" transform="translate(572,117)" s:width="30" s:height="20" id="cell_stage_mem_enable_destination">
    <text x="15" y="-4" class="nodelabel text-1 cell_stage_mem_enable_destination" s:attribute="ref">stage_mem_enable_destination</text>
    <s:alias val="$_inputExt_"/>
    <path d="M0,0 L0,20 L15,20 L30,10 L15,0 Z" class="cell_stage_mem_enable_destination fill-4"/>
    <g s:x="30" s:y="10" s:pid="Y"/>
  </g>
  <g s:type="inputExt" transform="translate(12,87)" s:width="30" s:height="20" id="cell_stage_mem_select_destination">
    <text x="15" y="-4" class="nodelabel text-1 cell_stage_mem_select_destination" s:attribute="ref">stage_mem_select_destination</text>
    <s:alias val="$_inputExt_"/>
    <path d="M0,0 L0,20 L15,20 L30,10 L15,0 Z" class="cell_stage_mem_select_destination fill-4"/>
    <g s:x="30" s:y="10" s:pid="Y"/>
  </g>
  <g s:type="inputExt" transform="translate(572,433)" s:width="30" s:height="20" id="cell_stage_wb_enable_destination">
    <text x="15" y="-4" class="nodelabel text-1 cell_stage_wb_enable_destination" s:attribute="ref">stage_wb_enable_destination</text>
    <s:alias val="$_inputExt_"/>
    <path d="M0,0 L0,20 L15,20 L30,10 L15,0 Z" class="cell_stage_wb_enable_destination fill-4"/>
    <g s:x="30" s:y="10" s:pid="Y"/>
  </g>
  <g s:type="inputExt" transform="translate(12,162)" s:width="30" s:height="20" id="cell_stage_wb_select_destination">
    <text x="15" y="-4" class="nodelabel text-1 cell_stage_wb_select_destination" s:attribute="ref">stage_wb_select_destination</text>
    <s:alias val="$_inputExt_"/>
    <path d="M0,0 L0,20 L15,20 L30,10 L15,0 Z" class="cell_stage_wb_select_destination fill-4"/>
    <g s:x="30" s:y="10" s:pid="Y"/>
  </g>
  <g s:type="outputExt" transform="translate(969,59.5)" s:width="30" s:height="20" id="cell_stage_id_select_source_1">
    <text x="15" y="-4" class="nodelabel text-1 cell_stage_id_select_source_1" s:attribute="ref">stage_id_select_source_1</text>
    <s:alias val="$_outputExt_"/>
    <path d="M30,0 L30,20 L15,20 L0,10 L15,0 Z" class="cell_stage_id_select_source_1 fill-4"/>
    <g s:x="0" s:y="10" s:pid="A"/>
  </g>
  <g s:type="outputExt" transform="translate(969,294)" s:width="30" s:height="20" id="cell_stage_id_select_source_2">
    <text x="15" y="-4" class="nodelabel text-1 cell_stage_id_select_source_2" s:attribute="ref">stage_id_select_source_2</text>
    <s:alias val="$_outputExt_"/>
    <path d="M30,0 L30,20 L15,20 L0,10 L15,0 Z" class="cell_stage_id_select_source_2 fill-4"/>
    <g s:x="0" s:y="10" s:pid="A"/>
  </g>
  <g s:type="join" transform="translate(928,49)" s:width="4" s:height="40" id="cell_$join$,24,25,">
    <rect width="5" height="40" class="splitjoinBody" s:generic="body"/>
    <s:alias val="$_join_"/>
    <g s:x="5" s:y="20" s:pid="out"/>
    <g transform="translate(0,10)" s:x="0" s:y="10" s:pid="in0">
      <text x="-3" y="-4" class="inputPortLabel text-2">0</text>
    </g>
    <g transform="translate(0,30)" s:x="0" s:y="10" s:pid="in0">
      <text x="-3" y="-4" class="inputPortLabel text-2">1</text>
    </g>
  </g>
  <g s:type="join" transform="translate(928,283.5)" s:width="4" s:height="40" id="cell_$join$,26,27,">
    <rect width="5" height="40" class="splitjoinBody" s:generic="body"/>
    <s:alias val="$_join_"/>
    <g s:x="5" s:y="20" s:pid="out"/>
    <g transform="translate(0,10)" s:x="0" s:y="10" s:pid="in0">
      <text x="-3" y="-4" class="inputPortLabel text-2">0</text>
    </g>
    <g transform="translate(0,30)" s:x="0" s:y="10" s:pid="in0">
      <text x="-3" y="-4" class="inputPortLabel text-2">1</text>
    </g>
  </g>
  <g s:type="split" transform="translate(252.2,263.5)" s:width="5" s:height="40" id="cell_$split$,13,14,15,16,17,">
    <rect width="5" height="100" class="splitjoinBody" s:generic="body"/>
    <s:alias val="$_split_"/>
    <g s:x="0" s:y="20" s:pid="in"/>
    <g transform="translate(4,10)" s:x="4" s:y="10" s:pid="out0">
      <text x="5" y="-4" class="text-2">1</text>
    </g>
    <g transform="translate(4,30)" s:x="4" s:y="10" s:pid="out0">
      <text x="5" y="-4" class="text-2">2</text>
    </g>
    <g transform="translate(4,50)" s:x="4" s:y="10" s:pid="out0">
      <text x="5" y="-4" class="text-2">3</text>
    </g>
    <g transform="translate(4,70)" s:x="4" s:y="10" s:pid="out0">
      <text x="5" y="-4" class="text-2">4</text>
    </g>
    <g transform="translate(4,90)" s:x="4" s:y="10" s:pid="out0">
      <text x="5" y="-4" class="text-2">0</text>
    </g>
  </g>
  <g s:type="split" transform="translate(324.6,19)" s:width="5" s:height="40" id="cell_$split$,37,38,44,54,63,">
    <rect width="5" height="100" class="splitjoinBody" s:generic="body"/>
    <s:alias val="$_split_"/>
    <g s:x="0" s:y="20" s:pid="in"/>
    <g transform="translate(4,10)" s:x="4" s:y="10" s:pid="out0">
      <text x="5" y="-4" class="text-2">0</text>
    </g>
    <g transform="translate(4,30)" s:x="4" s:y="10" s:pid="out0">
      <text x="5" y="-4" class="text-2">1</text>
    </g>
    <g transform="translate(4,50)" s:x="4" s:y="10" s:pid="out0">
      <text x="5" y="-4" class="text-2">2</text>
    </g>
    <g transform="translate(4,70)" s:x="4" s:y="10" s:pid="out0">
      <text x="5" y="-4" class="text-2">3</text>
    </g>
    <g transform="translate(4,90)" s:x="4" s:y="10" s:pid="out0">
      <text x="5" y="-4" class="text-2">4</text>
    </g>
  </g>
  <g s:type="split" transform="translate(252.2,579.5)" s:width="5" s:height="40" id="cell_$split$,19,20,21,22,23,">
    <rect width="5" height="100" class="splitjoinBody" s:generic="body"/>
    <s:alias val="$_split_"/>
    <g s:x="0" s:y="20" s:pid="in"/>
    <g transform="translate(4,10)" s:x="4" s:y="10" s:pid="out0">
      <text x="5" y="-4" class="text-2">0</text>
    </g>
    <g transform="translate(4,30)" s:x="4" s:y="10" s:pid="out0">
      <text x="5" y="-4" class="text-2">1</text>
    </g>
    <g transform="translate(4,50)" s:x="4" s:y="10" s:pid="out0">
      <text x="5" y="-4" class="text-2">2</text>
    </g>
    <g transform="translate(4,70)" s:x="4" s:y="10" s:pid="out0">
      <text x="5" y="-4" class="text-2">3</text>
    </g>
    <g transform="translate(4,90)" s:x="4" s:y="10" s:pid="out0">
      <text x="5" y="-4" class="text-2">4</text>
    </g>
  </g>
  <g s:type="split" transform="translate(324.6,460)" s:width="5" s:height="40" id="cell_$split$,64,65,66,67,68,">
    <rect width="5" height="100" class="splitjoinBody" s:generic="body"/>
    <s:alias val="$_split_"/>
    <g s:x="0" s:y="20" s:pid="in"/>
    <g transform="translate(4,10)" s:x="4" s:y="10" s:pid="out0">
      <text x="5" y="-4" class="text-2">0</text>
    </g>
    <g transform="translate(4,30)" s:x="4" s:y="10" s:pid="out0">
      <text x="5" y="-4" class="text-2">1</text>
    </g>
    <g transform="translate(4,50)" s:x="4" s:y="10" s:pid="out0">
      <text x="5" y="-4" class="text-2">2</text>
    </g>
    <g transform="translate(4,70)" s:x="4" s:y="10" s:pid="out0">
      <text x="5" y="-4" class="text-2">3</text>
    </g>
    <g transform="translate(4,90)" s:x="4" s:y="10" s:pid="out0">
      <text x="5" y="-4" class="text-2">4</text>
    </g>
  </g>
  <g s:type="split" transform="translate(324.6,144)" s:width="5" s:height="40" id="cell_$split$,72,73,74,75,76,">
    <rect width="5" height="100" class="splitjoinBody" s:generic="body"/>
    <s:alias val="$_split_"/>
    <g s:x="0" s:y="20" s:pid="in"/>
    <g transform="translate(4,10)" s:x="4" s:y="10" s:pid="out0">
      <text x="5" y="-4" class="text-2">0</text>
    </g>
    <g transform="translate(4,30)" s:x="4" s:y="10" s:pid="out0">
      <text x="5" y="-4" class="text-2">1</text>
    </g>
    <g transform="translate(4,50)" s:x="4" s:y="10" s:pid="out0">
      <text x="5" y="-4" class="text-2">2</text>
    </g>
    <g transform="translate(4,70)" s:x="4" s:y="10" s:pid="out0">
      <text x="5" y="-4" class="text-2">3</text>
    </g>
    <g transform="translate(4,90)" s:x="4" s:y="10" s:pid="out0">
      <text x="5" y="-4" class="text-2">4</text>
    </g>
  </g>
  <g s:type="split" transform="translate(324.6,729.5)" s:width="5" s:height="40" id="cell_$split$,80,81,82,83,84,">
    <rect width="5" height="100" class="splitjoinBody" s:generic="body"/>
    <s:alias val="$_split_"/>
    <g s:x="0" s:y="20" s:pid="in"/>
    <g transform="translate(4,10)" s:x="4" s:y="10" s:pid="out0">
      <text x="5" y="-4" class="text-2">0</text>
    </g>
    <g transform="translate(4,30)" s:x="4" s:y="10" s:pid="out0">
      <text x="5" y="-4" class="text-2">1</text>
    </g>
    <g transform="translate(4,50)" s:x="4" s:y="10" s:pid="out0">
      <text x="5" y="-4" class="text-2">2</text>
    </g>
    <g transform="translate(4,70)" s:x="4" s:y="10" s:pid="out0">
      <text x="5" y="-4" class="text-2">3</text>
    </g>
    <g transform="translate(4,90)" s:x="4" s:y="10" s:pid="out0">
      <text x="5" y="-4" class="text-2">4</text>
    </g>
  </g>
  <line x1="257.2" x2="308" y1="274" y2="274" class="net_14"/>
  <line x1="336" x2="349" y1="415" y2="415" class="net_29"/>
  <line x1="349" x2="349" y1="415" y2="344" class="net_29"/>
  <line x1="349" x2="374.6666666666667" y1="344" y2="344" class="net_29"/>
  <line x1="336" x2="359" y1="274" y2="274" class="net_28"/>
  <line x1="359" x2="359" y1="274" y2="359" class="net_28"/>
  <line x1="359" x2="374.6666666666667" y1="359" y2="359" class="net_28"/>
  <line x1="257.2" x2="374" y1="294" y2="294" class="net_15"/>
  <line x1="404.6666666666667" x2="415" y1="351.5" y2="351.5" class="net_30"/>
  <line x1="415" x2="415" y1="351.5" y2="279" class="net_30"/>
  <line x1="415" x2="440.6666666666667" y1="279" y2="279" class="net_30"/>
  <line x1="402" x2="440.6666666666667" y1="294" y2="294" class="net_31"/>
  <line x1="257.2" x2="288" y1="314" y2="314" class="net_16"/>
  <line x1="288" x2="288" y1="314" y2="374" class="net_16"/>
  <line x1="288" x2="440" y1="374" y2="374" class="net_16"/>
  <line x1="470.6666666666667" x2="506.6666666666667" y1="286.5" y2="286.5" class="net_32"/>
  <line x1="468" x2="481" y1="374" y2="374" class="net_33"/>
  <line x1="481" x2="481" y1="374" y2="301.5" class="net_33"/>
  <line x1="481" x2="506.6666666666667" y1="301.5" y2="301.5" class="net_33"/>
  <line x1="257.2" x2="278" y1="334" y2="334" class="net_17"/>
  <line x1="278" x2="278" y1="334" y2="394" class="net_17"/>
  <line x1="278" x2="506" y1="394" y2="394" class="net_17"/>
  <line x1="536.6666666666667" x2="618" y1="294" y2="294" class="net_34"/>
  <line x1="534" x2="547" y1="394" y2="394" class="net_35"/>
  <line x1="547" x2="547" y1="394" y2="309" class="net_35"/>
  <line x1="547" x2="618" y1="309" y2="309" class="net_35"/>
  <line x1="329.6" x2="374.6666666666667" y1="29.5" y2="29.5" class="net_37"/>
  <line x1="329.6" x2="349" y1="49.5" y2="49.5" class="net_38"/>
  <line x1="349" x2="349" y1="49.5" y2="44.5" class="net_38"/>
  <line x1="349" x2="374.6666666666667" y1="44.5" y2="44.5" class="net_38"/>
  <line x1="257.2" x2="308" y1="590" y2="590" class="net_19"/>
  <line x1="257.2" x2="298" y1="610" y2="610" class="net_20"/>
  <line x1="298" x2="298" y1="610" y2="645" class="net_20"/>
  <line x1="298" x2="308" y1="645" y2="645" class="net_20"/>
  <line x1="336" x2="374.6666666666667" y1="590" y2="590" class="net_40"/>
  <line x1="336" x2="349" y1="645" y2="645" class="net_41"/>
  <line x1="349" x2="349" y1="645" y2="605" class="net_41"/>
  <line x1="349" x2="374.6666666666667" y1="605" y2="605" class="net_41"/>
  <line x1="257.2" x2="288" y1="630" y2="630" class="net_21"/>
  <line x1="288" x2="288" y1="630" y2="665" class="net_21"/>
  <line x1="288" x2="374" y1="665" y2="665" class="net_21"/>
  <line x1="404.6666666666667" x2="440.6666666666667" y1="37" y2="37" class="net_39"/>
  <line x1="329.6" x2="415" y1="69.5" y2="69.5" class="net_44"/>
  <line x1="415" x2="415" y1="69.5" y2="52" class="net_44"/>
  <line x1="415" x2="440.6666666666667" y1="52" y2="52" class="net_44"/>
  <line x1="404.6666666666667" x2="440.6666666666667" y1="597.5" y2="597.5" class="net_42"/>
  <line x1="402" x2="415" y1="665" y2="665" class="net_43"/>
  <line x1="415" x2="415" y1="665" y2="612.5" class="net_43"/>
  <line x1="415" x2="440.6666666666667" y1="612.5" y2="612.5" class="net_43"/>
  <line x1="257.2" x2="278" y1="650" y2="650" class="net_22"/>
  <line x1="278" x2="278" y1="650" y2="685" class="net_22"/>
  <line x1="278" x2="440" y1="685" y2="685" class="net_22"/>
  <line x1="470.6666666666667" x2="506.6666666666667" y1="605" y2="605" class="net_46"/>
  <line x1="468" x2="481" y1="685" y2="685" class="net_47"/>
  <line x1="481" x2="481" y1="685" y2="620" class="net_47"/>
  <line x1="481" x2="506.6666666666667" y1="620" y2="620" class="net_47"/>
  <line x1="256.7" x2="256.7" y1="670.5" y2="705" class="net_23"/>
  <line x1="256.7" x2="506" y1="705" y2="705" class="net_23"/>
  <line x1="536.6666666666667" x2="618" y1="612.5" y2="612.5" class="net_48"/>
  <line x1="534" x2="547" y1="705" y2="705" class="net_49"/>
  <line x1="547" x2="547" y1="705" y2="627.5" class="net_49"/>
  <line x1="547" x2="618" y1="627.5" y2="627.5" class="net_49"/>
  <line x1="602" x2="780" y1="127" y2="127" class="net_12"/>
  <line x1="780" x2="780" y1="127" y2="44.5" class="net_12"/>
  <circle cx="780" cy="127" r="2" style="fill:#000" class="net_12"/>
  <line x1="780" x2="790.6666666666666" y1="44.5" y2="44.5" class="net_12"/>
  <line x1="602" x2="780" y1="127" y2="127" class="net_12"/>
  <line x1="780" x2="780" y1="127" y2="485.5" class="net_12"/>
  <line x1="780" x2="790.6666666666666" y1="485.5" y2="485.5" class="net_12"/>
  <line x1="648" x2="790.6666666666666" y1="59.5" y2="59.5" class="net_51"/>
  <line x1="648" x2="790" y1="301.5" y2="301.5" class="net_36"/>
  <line x1="470.6666666666667" x2="506.6666666666667" y1="44.5" y2="44.5" class="net_45"/>
  <line x1="329.6" x2="481" y1="89.5" y2="89.5" class="net_54"/>
  <line x1="481" x2="481" y1="89.5" y2="59.5" class="net_54"/>
  <line x1="481" x2="506.6666666666667" y1="59.5" y2="59.5" class="net_54"/>
  <line x1="820.6666666666666" x2="856" y1="52" y2="52" class="net_52"/>
  <line x1="818" x2="831" y1="301.5" y2="301.5" class="net_53"/>
  <line x1="831" x2="831" y1="301.5" y2="67" class="net_53"/>
  <circle cx="831" cy="301.5" r="2" style="fill:#000" class="net_53"/>
  <line x1="831" x2="856" y1="67" y2="67" class="net_53"/>
  <line x1="818" x2="856" y1="301.5" y2="301.5" class="net_53"/>
  <line x1="602" x2="760" y1="443" y2="443" class="net_18"/>
  <line x1="760" x2="760" y1="443" y2="545.5" class="net_18"/>
  <circle cx="760" cy="545.5" r="2" style="fill:#000" class="net_18"/>
  <line x1="760" x2="790.6666666666666" y1="545.5" y2="545.5" class="net_18"/>
  <line x1="602" x2="760" y1="443" y2="443" class="net_18"/>
  <line x1="760" x2="760" y1="443" y2="755" class="net_18"/>
  <line x1="760" x2="790.6666666666666" y1="755" y2="755" class="net_18"/>
  <line x1="648" x2="770" y1="184.5" y2="184.5" class="net_56"/>
  <line x1="770" x2="770" y1="184.5" y2="560.5" class="net_56"/>
  <line x1="770" x2="790.6666666666666" y1="560.5" y2="560.5" class="net_56"/>
  <line x1="648" x2="750" y1="620" y2="620" class="net_50"/>
  <line x1="750" x2="750" y1="620" y2="820" class="net_50"/>
  <line x1="750" x2="790" y1="820" y2="820" class="net_50"/>
  <line x1="820.6666666666666" x2="856" y1="553" y2="553" class="net_57"/>
  <line x1="818" x2="831" y1="820" y2="820" class="net_58"/>
  <line x1="831" x2="831" y1="820" y2="568" class="net_58"/>
  <line x1="831" x2="856" y1="568" y2="568" class="net_58"/>
  <line x1="818" x2="831" y1="820" y2="820" class="net_58"/>
  <line x1="831" x2="831" y1="820" y2="777.5" class="net_58"/>
  <circle cx="831" cy="777.5" r="2" style="fill:#000" class="net_58"/>
  <line x1="831" x2="856" y1="777.5" y2="777.5" class="net_58"/>
  <line x1="648" x2="790.6666666666666" y1="500.5" y2="500.5" class="net_59"/>
  <line x1="820.6666666666666" x2="841" y1="493" y2="493" class="net_60"/>
  <line x1="841" x2="841" y1="493" y2="286.5" class="net_60"/>
  <line x1="841" x2="856" y1="286.5" y2="286.5" class="net_60"/>
  <line x1="648" x2="790.6666666666666" y1="770" y2="770" class="net_61"/>
  <line x1="820.6666666666666" x2="856" y1="762.5" y2="762.5" class="net_62"/>
  <line x1="536.6666666666667" x2="618" y1="52" y2="52" class="net_55"/>
  <line x1="329.1" x2="329.1" y1="110" y2="129" class="net_63"/>
  <line x1="329.1" x2="547" y1="129" y2="129" class="net_63"/>
  <line x1="547" x2="547" y1="129" y2="67" class="net_63"/>
  <line x1="547" x2="618" y1="67" y2="67" class="net_63"/>
  <line x1="42" x2="232" y1="473" y2="473" class="net_7,8,9,10,11"/>
  <line x1="42" x2="200" y1="473" y2="473" class="net_7,8,9,10,11"/>
  <line x1="200" x2="200" y1="473" y2="742.5" class="net_7,8,9,10,11"/>
  <circle cx="200" cy="473" r="2" style="fill:#000" class="net_7,8,9,10,11"/>
  <line x1="200" x2="232" y1="742.5" y2="742.5" class="net_7,8,9,10,11"/>
  <line x1="42" x2="210" y1="97" y2="97" class="net_13,14,15,16,17"/>
  <line x1="210" x2="210" y1="97" y2="488" class="net_13,14,15,16,17"/>
  <circle cx="210" cy="97" r="2" style="fill:#000" class="net_13,14,15,16,17"/>
  <line x1="210" x2="232" y1="488" y2="488" class="net_13,14,15,16,17"/>
  <line x1="42" x2="210" y1="97" y2="97" class="net_13,14,15,16,17"/>
  <line x1="210" x2="210" y1="97" y2="47" class="net_13,14,15,16,17"/>
  <line x1="210" x2="232" y1="47" y2="47" class="net_13,14,15,16,17"/>
  <line x1="42" x2="210" y1="97" y2="97" class="net_13,14,15,16,17"/>
  <line x1="210" x2="210" y1="97" y2="284" class="net_13,14,15,16,17"/>
  <circle cx="210" cy="284" r="2" style="fill:#000" class="net_13,14,15,16,17"/>
  <line x1="210" x2="252.2" y1="284" y2="284" class="net_13,14,15,16,17"/>
  <line x1="42" x2="232" y1="32" y2="32" class="net_2,3,4,5,6"/>
  <line x1="42" x2="220" y1="32" y2="32" class="net_2,3,4,5,6"/>
  <line x1="220" x2="220" y1="32" y2="157" class="net_2,3,4,5,6"/>
  <circle cx="220" cy="32" r="2" style="fill:#000" class="net_2,3,4,5,6"/>
  <line x1="220" x2="232" y1="157" y2="157" class="net_2,3,4,5,6"/>
  <line x1="329.6" x2="374.6666666666667" y1="470.5" y2="470.5" class="net_64"/>
  <line x1="329.6" x2="349" y1="490.5" y2="490.5" class="net_65"/>
  <line x1="349" x2="349" y1="490.5" y2="485.5" class="net_65"/>
  <line x1="349" x2="374.6666666666667" y1="485.5" y2="485.5" class="net_65"/>
  <line x1="404.6666666666667" x2="440.6666666666667" y1="478" y2="478" class="net_69"/>
  <line x1="329.6" x2="415" y1="510.5" y2="510.5" class="net_66"/>
  <line x1="415" x2="415" y1="510.5" y2="493" class="net_66"/>
  <line x1="415" x2="440.6666666666667" y1="493" y2="493" class="net_66"/>
  <line x1="470.6666666666667" x2="506.6666666666667" y1="485.5" y2="485.5" class="net_70"/>
  <line x1="329.6" x2="481" y1="530.5" y2="530.5" class="net_67"/>
  <line x1="481" x2="481" y1="530.5" y2="500.5" class="net_67"/>
  <line x1="481" x2="506.6666666666667" y1="500.5" y2="500.5" class="net_67"/>
  <line x1="536.6666666666667" x2="618" y1="493" y2="493" class="net_71"/>
  <line x1="329.1" x2="329.1" y1="551" y2="570" class="net_68"/>
  <line x1="329.1" x2="547" y1="570" y2="570" class="net_68"/>
  <line x1="547" x2="547" y1="570" y2="508" class="net_68"/>
  <line x1="547" x2="618" y1="508" y2="508" class="net_68"/>
  <line x1="42" x2="232" y1="172" y2="172" class="net_19,20,21,22,23"/>
  <line x1="42" x2="190" y1="172" y2="172" class="net_19,20,21,22,23"/>
  <line x1="190" x2="190" y1="172" y2="757.5" class="net_19,20,21,22,23"/>
  <circle cx="190" cy="172" r="2" style="fill:#000" class="net_19,20,21,22,23"/>
  <line x1="190" x2="232" y1="757.5" y2="757.5" class="net_19,20,21,22,23"/>
  <line x1="42" x2="190" y1="172" y2="172" class="net_19,20,21,22,23"/>
  <line x1="190" x2="190" y1="172" y2="600" class="net_19,20,21,22,23"/>
  <circle cx="190" cy="600" r="2" style="fill:#000" class="net_19,20,21,22,23"/>
  <line x1="190" x2="252.2" y1="600" y2="600" class="net_19,20,21,22,23"/>
  <line x1="329.6" x2="374.6666666666667" y1="154.5" y2="154.5" class="net_72"/>
  <line x1="329.6" x2="349" y1="174.5" y2="174.5" class="net_73"/>
  <line x1="349" x2="349" y1="174.5" y2="169.5" class="net_73"/>
  <line x1="349" x2="374.6666666666667" y1="169.5" y2="169.5" class="net_73"/>
  <line x1="404.6666666666667" x2="440.6666666666667" y1="162" y2="162" class="net_77"/>
  <line x1="329.6" x2="415" y1="194.5" y2="194.5" class="net_74"/>
  <line x1="415" x2="415" y1="194.5" y2="177" class="net_74"/>
  <line x1="415" x2="440.6666666666667" y1="177" y2="177" class="net_74"/>
  <line x1="470.6666666666667" x2="506.6666666666667" y1="169.5" y2="169.5" class="net_78"/>
  <line x1="329.6" x2="481" y1="214.5" y2="214.5" class="net_75"/>
  <line x1="481" x2="481" y1="214.5" y2="184.5" class="net_75"/>
  <line x1="481" x2="506.6666666666667" y1="184.5" y2="184.5" class="net_75"/>
  <line x1="536.6666666666667" x2="618" y1="177" y2="177" class="net_79"/>
  <line x1="329.1" x2="329.1" y1="235" y2="254" class="net_76"/>
  <line x1="329.1" x2="547" y1="254" y2="254" class="net_76"/>
  <line x1="547" x2="547" y1="254" y2="192" class="net_76"/>
  <line x1="547" x2="618" y1="192" y2="192" class="net_76"/>
  <line x1="329.6" x2="374.6666666666667" y1="740" y2="740" class="net_80"/>
  <line x1="329.6" x2="349" y1="760" y2="760" class="net_81"/>
  <line x1="349" x2="349" y1="760" y2="755" class="net_81"/>
  <line x1="349" x2="374.6666666666667" y1="755" y2="755" class="net_81"/>
  <line x1="404.6666666666667" x2="440.6666666666667" y1="747.5" y2="747.5" class="net_85"/>
  <line x1="329.6" x2="415" y1="780" y2="780" class="net_82"/>
  <line x1="415" x2="415" y1="780" y2="762.5" class="net_82"/>
  <line x1="415" x2="440.6666666666667" y1="762.5" y2="762.5" class="net_82"/>
  <line x1="470.6666666666667" x2="506.6666666666667" y1="755" y2="755" class="net_86"/>
  <line x1="329.6" x2="481" y1="800" y2="800" class="net_83"/>
  <line x1="481" x2="481" y1="800" y2="770" class="net_83"/>
  <line x1="481" x2="506.6666666666667" y1="770" y2="770" class="net_83"/>
  <line x1="536.6666666666667" x2="618" y1="762.5" y2="762.5" class="net_87"/>
  <line x1="329.1" x2="329.1" y1="820.5" y2="839.5" class="net_84"/>
  <line x1="329.1" x2="547" y1="839.5" y2="839.5" class="net_84"/>
  <line x1="547" x2="547" y1="839.5" y2="777.5" class="net_84"/>
  <line x1="547" x2="618" y1="777.5" y2="777.5" class="net_84"/>
  <line x1="256.7" x2="256.7" y1="354.5" y2="415" class="net_13"/>
  <line x1="256.7" x2="308" y1="415" y2="415" class="net_13"/>
  <line x1="934" x2="969" y1="69.5" y2="69.5" class="net_24,25"/>
  <line x1="934" x2="969" y1="304" y2="304" class="net_26,27"/>
  <line x1="886" x2="928" y1="59.5" y2="59.5" class="net_24"/>
  <line x1="886" x2="896" y1="560.5" y2="560.5" class="net_25"/>
  <line x1="896" x2="896" y1="560.5" y2="79.5" class="net_25"/>
  <line x1="896" x2="928" y1="79.5" y2="79.5" class="net_25"/>
  <line x1="886" x2="928" y1="294" y2="294" class="net_26"/>
  <line x1="886" x2="906" y1="770" y2="770" class="net_27"/>
  <line x1="906" x2="906" y1="770" y2="314" class="net_27"/>
  <line x1="906" x2="928" y1="314" y2="314" class="net_27"/>
  <line x1="268" x2="324.6" y1="39.5" y2="39.5" class="net_37,38,44,54,63"/>
  <line x1="268" x2="324.6" y1="480.5" y2="480.5" class="net_64,65,66,67,68"/>
  <line x1="268" x2="324.6" y1="164.5" y2="164.5" class="net_72,73,74,75,76"/>
  <line x1="268" x2="324.6" y1="750" y2="750" class="net_80,81,82,83,84"/>
</svg>
