<svg xmlns="http://www.w3.org/2000/svg" xmlns:xlink="http://www.w3.org/1999/xlink" xmlns:s="https://github.com/nturley/netlistsvg" width="917" height="409">
  <style>  svg {
      stroke: #011e41;
      fill: none;
    }
    text {
      fill:#ffffff;
      stroke:none;
      font-size:10px;
      font-weight: bold;
      font-family: "Courier New", monospace;
    }
    .fill-1 { fill: #003262; }
    .fill-2 { fill: #011e41; stroke: #003262; }
    .fill-3 { fill: #ffffff; }
    .fill-4 { fill: #003262; }
    .fill-5 { fill: #011e41; stroke: #fdda64; }
    .text-1 { fill: #fdb515; }
    .text-2 { fill: #003262; }
    .text-3 { stroke: #fdda64; }
    .nodelabel { text-anchor: middle; }
    .inputPortLabel { text-anchor: end; }
    .splitjoinBody { fill: #3c3c43; }</style>
  <g s:type="mux" transform="translate(778,117)" s:width="20" s:height="40" id="cell_\10">
    <s:alias val="$pmux"/>
    <s:alias val="$mux"/>
    <s:alias val="$_MUX_"/>
    <path d="M0,0 L20,10 L20,30 L0,40 Z" class="cell_\10 fill-1"/>
    <text x="5" y="32" class="nodelabel cell_\10" s:attribute="">1</text>
    <text x="5" y="13" class="nodelabel cell_\10" s:attribute="">0</text>
    <g s:x="0" s:y="10" s:pid="A"/>
    <g s:x="0" s:y="30" s:pid="B"/>
    <g s:x="10" s:y="35" s:pid="S"/>
    <g s:x="20" s:y="20" s:pid="Y"/>
  </g>
  <g s:type="eq" transform="translate(220,129.5)" s:width="25" s:height="25" id="cell_\13">
    <s:alias val="$eq"/>
    <s:alias val="$eqx"/>
    <circle r="12.5" cx="12.5" cy="12.5" class="cell_\13 fill-1"/>
    <line x1="7.5" x2="17.5" y1="10" y2="10" class="cell_\13 text-3"/>
    <line x1="7.5" x2="17.5" y1="15" y2="15" class="cell_\13 text-3"/>
    <g s:x="2" s:y="5" s:pid="A"/>
    <g s:x="2" s:y="20" s:pid="B"/>
    <g s:x="25" s:y="12.5" s:pid="Y"/>
  </g>
  <g s:type="eq" transform="translate(220,194.5)" s:width="25" s:height="25" id="cell_\14">
    <s:alias val="$eq"/>
    <s:alias val="$eqx"/>
    <circle r="12.5" cx="12.5" cy="12.5" class="cell_\14 fill-1"/>
    <line x1="7.5" x2="17.5" y1="10" y2="10" class="cell_\14 text-3"/>
    <line x1="7.5" x2="17.5" y1="15" y2="15" class="cell_\14 text-3"/>
    <g s:x="2" s:y="5" s:pid="A"/>
    <g s:x="2" s:y="20" s:pid="B"/>
    <g s:x="25" s:y="12.5" s:pid="Y"/>
  </g>
  <g s:type="or" transform="translate(324,187)" s:width="30" s:height="25" id="cell_\15">
    <s:alias val="$or"/>
    <s:alias val="$logic_or"/>
    <s:alias val="$_OR_"/>
    <s:alias val="$reduce_or"/>
    <s:alias val="$reduce_bool"/>
    <path d="M0,0 A30 25 0 0 1 0,25 A30 25 0 0 0 30,12.5 A30 25 0 0 0 0,0" class="cell_\15 fill-1"/>
    <g s:x="2" s:y="5" s:pid="A"/>
    <g s:x="2" s:y="20" s:pid="B"/>
    <g s:x="30" s:y="12.5" s:pid="Y"/>
  </g>
  <g s:type="and" transform="translate(507,137)" s:width="30" s:height="25" id="cell_\16">
    <s:alias val="$and"/>
    <s:alias val="$logic_and"/>
    <s:alias val="$_AND_"/>
    <s:alias val="$reduce_and"/>
    <path d="M0,0 L0,25 L15,25 A15 12.5 0 0 0 15,0 Z" class="cell_\16 fill-1"/>
    <g s:x="0" s:y="5" s:pid="A"/>
    <g s:x="0" s:y="20" s:pid="B"/>
    <g s:x="30" s:y="12.5" s:pid="Y"/>
  </g>
  <g s:type="or" transform="translate(522,77)" s:width="30" s:height="25" id="cell_\18">
    <s:alias val="$or"/>
    <s:alias val="$logic_or"/>
    <s:alias val="$_OR_"/>
    <s:alias val="$reduce_or"/>
    <s:alias val="$reduce_bool"/>
    <path d="M0,0 A30 25 0 0 1 0,25 A30 25 0 0 0 30,12.5 A30 25 0 0 0 0,0" class="cell_\18 fill-1"/>
    <g s:x="2" s:y="5" s:pid="A"/>
    <g s:x="2" s:y="20" s:pid="B"/>
    <g s:x="30" s:y="12.5" s:pid="Y"/>
  </g>
  <g s:type="and" transform="translate(647,312)" s:width="30" s:height="25" id="cell_\19">
    <s:alias val="$and"/>
    <s:alias val="$logic_and"/>
    <s:alias val="$_AND_"/>
    <s:alias val="$reduce_and"/>
    <path d="M0,0 L0,25 L15,25 A15 12.5 0 0 0 15,0 Z" class="cell_\19 fill-1"/>
    <g s:x="0" s:y="5" s:pid="A"/>
    <g s:x="0" s:y="20" s:pid="B"/>
    <g s:x="30" s:y="12.5" s:pid="Y"/>
  </g>
  <g s:type="eq" transform="translate(220,259.5)" s:width="25" s:height="25" id="cell_\20">
    <s:alias val="$eq"/>
    <s:alias val="$eqx"/>
    <circle r="12.5" cx="12.5" cy="12.5" class="cell_\20 fill-1"/>
    <line x1="7.5" x2="17.5" y1="10" y2="10" class="cell_\20 text-3"/>
    <line x1="7.5" x2="17.5" y1="15" y2="15" class="cell_\20 text-3"/>
    <g s:x="2" s:y="5" s:pid="A"/>
    <g s:x="2" s:y="20" s:pid="B"/>
    <g s:x="25" s:y="12.5" s:pid="Y"/>
  </g>
  <g s:type="eq" transform="translate(220,319.5)" s:width="25" s:height="25" id="cell_\21">
    <s:alias val="$eq"/>
    <s:alias val="$eqx"/>
    <circle r="12.5" cx="12.5" cy="12.5" class="cell_\21 fill-1"/>
    <line x1="7.5" x2="17.5" y1="10" y2="10" class="cell_\21 text-3"/>
    <line x1="7.5" x2="17.5" y1="15" y2="15" class="cell_\21 text-3"/>
    <g s:x="2" s:y="5" s:pid="A"/>
    <g s:x="2" s:y="20" s:pid="B"/>
    <g s:x="25" s:y="12.5" s:pid="Y"/>
  </g>
  <g s:type="or" transform="translate(324,312)" s:width="30" s:height="25" id="cell_\22">
    <s:alias val="$or"/>
    <s:alias val="$logic_or"/>
    <s:alias val="$_OR_"/>
    <s:alias val="$reduce_or"/>
    <s:alias val="$reduce_bool"/>
    <path d="M0,0 A30 25 0 0 1 0,25 A30 25 0 0 0 30,12.5 A30 25 0 0 0 0,0" class="cell_\22 fill-1"/>
    <g s:x="2" s:y="5" s:pid="A"/>
    <g s:x="2" s:y="20" s:pid="B"/>
    <g s:x="30" s:y="12.5" s:pid="Y"/>
  </g>
  <g s:type="and" transform="translate(507,304.5)" s:width="30" s:height="25" id="cell_\23">
    <s:alias val="$and"/>
    <s:alias val="$logic_and"/>
    <s:alias val="$_AND_"/>
    <s:alias val="$reduce_and"/>
    <path d="M0,0 L0,25 L15,25 A15 12.5 0 0 0 15,0 Z" class="cell_\23 fill-1"/>
    <g s:x="0" s:y="5" s:pid="A"/>
    <g s:x="0" s:y="20" s:pid="B"/>
    <g s:x="30" s:y="12.5" s:pid="Y"/>
  </g>
  <g s:type="or" transform="translate(522,364.5)" s:width="30" s:height="25" id="cell_\25">
    <s:alias val="$or"/>
    <s:alias val="$logic_or"/>
    <s:alias val="$_OR_"/>
    <s:alias val="$reduce_or"/>
    <s:alias val="$reduce_bool"/>
    <path d="M0,0 A30 25 0 0 1 0,25 A30 25 0 0 0 30,12.5 A30 25 0 0 0 0,0" class="cell_\25 fill-1"/>
    <g s:x="2" s:y="5" s:pid="A"/>
    <g s:x="2" s:y="20" s:pid="B"/>
    <g s:x="30" s:y="12.5" s:pid="Y"/>
  </g>
  <g s:type="and" transform="translate(647,372)" s:width="30" s:height="25" id="cell_\26">
    <s:alias val="$and"/>
    <s:alias val="$logic_and"/>
    <s:alias val="$_AND_"/>
    <s:alias val="$reduce_and"/>
    <path d="M0,0 L0,25 L15,25 A15 12.5 0 0 0 15,0 Z" class="cell_\26 fill-1"/>
    <g s:x="0" s:y="5" s:pid="A"/>
    <g s:x="0" s:y="20" s:pid="B"/>
    <g s:x="30" s:y="12.5" s:pid="Y"/>
  </g>
  <g s:type="or" transform="translate(712.3333333333334,364.5)" s:width="30" s:height="25" id="cell_\27">
    <s:alias val="$or"/>
    <s:alias val="$logic_or"/>
    <s:alias val="$_OR_"/>
    <s:alias val="$reduce_or"/>
    <s:alias val="$reduce_bool"/>
    <path d="M0,0 A30 25 0 0 1 0,25 A30 25 0 0 0 30,12.5 A30 25 0 0 0 0,0" class="cell_\27 fill-1"/>
    <g s:x="2" s:y="5" s:pid="A"/>
    <g s:x="2" s:y="20" s:pid="B"/>
    <g s:x="30" s:y="12.5" s:pid="Y"/>
  </g>
  <g s:type="mux" transform="translate(778,289.5)" s:width="20" s:height="40" id="cell_\28">
    <s:alias val="$pmux"/>
    <s:alias val="$mux"/>
    <s:alias val="$_MUX_"/>
    <path d="M0,0 L20,10 L20,30 L0,40 Z" class="cell_\28 fill-1"/>
    <text x="5" y="32" class="nodelabel cell_\28" s:attribute="">1</text>
    <text x="5" y="13" class="nodelabel cell_\28" s:attribute="">0</text>
    <g s:x="0" s:y="10" s:pid="A"/>
    <g s:x="0" s:y="30" s:pid="B"/>
    <g s:x="10" s:y="35" s:pid="S"/>
    <g s:x="20" s:y="20" s:pid="Y"/>
  </g>
  <g s:type="and" transform="translate(647,179.5)" s:width="30" s:height="25" id="cell_\6">
    <s:alias val="$and"/>
    <s:alias val="$logic_and"/>
    <s:alias val="$_AND_"/>
    <s:alias val="$reduce_and"/>
    <path d="M0,0 L0,25 L15,25 A15 12.5 0 0 0 15,0 Z" class="cell_\6 fill-1"/>
    <g s:x="0" s:y="5" s:pid="A"/>
    <g s:x="0" s:y="20" s:pid="B"/>
    <g s:x="30" s:y="12.5" s:pid="Y"/>
  </g>
  <g s:type="and" transform="translate(712.3333333333334,172)" s:width="30" s:height="25" id="cell_\9">
    <s:alias val="$and"/>
    <s:alias val="$logic_and"/>
    <s:alias val="$_AND_"/>
    <s:alias val="$reduce_and"/>
    <path d="M0,0 L0,25 L15,25 A15 12.5 0 0 0 15,0 Z" class="cell_\9 fill-1"/>
    <g s:x="0" s:y="5" s:pid="A"/>
    <g s:x="0" s:y="20" s:pid="B"/>
    <g s:x="30" s:y="12.5" s:pid="Y"/>
  </g>
  <g s:type="inputExt" transform="translate(12,124.5)" s:width="30" s:height="20" id="cell_stage_id_select_source_1">
    <text x="15" y="-4" class="nodelabel text-1 cell_stage_id_select_source_1" s:attribute="ref">stage_id_select_source_1</text>
    <s:alias val="$_inputExt_"/>
    <path d="M0,0 L0,20 L15,20 L30,10 L15,0 Z" class="cell_stage_id_select_source_1 fill-4"/>
    <g s:x="30" s:y="10" s:pid="Y"/>
  </g>
  <g s:type="inputExt" transform="translate(12,189.5)" s:width="30" s:height="20" id="cell_stage_id_select_source_2">
    <text x="15" y="-4" class="nodelabel text-1 cell_stage_id_select_source_2" s:attribute="ref">stage_id_select_source_2</text>
    <s:alias val="$_inputExt_"/>
    <path d="M0,0 L0,20 L15,20 L30,10 L15,0 Z" class="cell_stage_id_select_source_2 fill-4"/>
    <g s:x="30" s:y="10" s:pid="Y"/>
  </g>
  <g s:type="inputExt" transform="translate(477,22)" s:width="30" s:height="20" id="cell_stage_ex_enable_read">
    <text x="15" y="-4" class="nodelabel text-1 cell_stage_ex_enable_read" s:attribute="ref">stage_ex_enable_read</text>
    <s:alias val="$_inputExt_"/>
    <path d="M0,0 L0,20 L15,20 L30,10 L15,0 Z" class="cell_stage_ex_enable_read fill-4"/>
    <g s:x="30" s:y="10" s:pid="Y"/>
  </g>
  <g s:type="inputExt" transform="translate(280,132)" s:width="30" s:height="20" id="cell_stage_ex_enable_destination">
    <text x="15" y="-4" class="nodelabel text-1 cell_stage_ex_enable_destination" s:attribute="ref">stage_ex_enable_destination</text>
    <s:alias val="$_inputExt_"/>
    <path d="M0,0 L0,20 L15,20 L30,10 L15,0 Z" class="cell_stage_ex_enable_destination fill-4"/>
    <g s:x="30" s:y="10" s:pid="Y"/>
  </g>
  <g s:type="inputExt" transform="translate(12,59.5)" s:width="30" s:height="20" id="cell_stage_ex_select_destination">
    <text x="15" y="-4" class="nodelabel text-1 cell_stage_ex_select_destination" s:attribute="ref">stage_ex_select_destination</text>
    <s:alias val="$_inputExt_"/>
    <path d="M0,0 L0,20 L15,20 L30,10 L15,0 Z" class="cell_stage_ex_select_destination fill-4"/>
    <g s:x="30" s:y="10" s:pid="Y"/>
  </g>
  <g s:type="inputExt" transform="translate(280,257)" s:width="30" s:height="20" id="cell_stage_mem_enable_read">
    <text x="15" y="-4" class="nodelabel text-1 cell_stage_mem_enable_read" s:attribute="ref">stage_mem_enable_read</text>
    <s:alias val="$_inputExt_"/>
    <path d="M0,0 L0,20 L15,20 L30,10 L15,0 Z" class="cell_stage_mem_enable_read fill-4"/>
    <g s:x="30" s:y="10" s:pid="Y"/>
  </g>
  <g s:type="inputExt" transform="translate(12,329.5)" s:width="30" s:height="20" id="cell_stage_mem_select_destination">
    <text x="15" y="-4" class="nodelabel text-1 cell_stage_mem_select_destination" s:attribute="ref">stage_mem_select_destination</text>
    <s:alias val="$_inputExt_"/>
    <path d="M0,0 L0,20 L15,20 L30,10 L15,0 Z" class="cell_stage_mem_select_destination fill-4"/>
    <g s:x="30" s:y="10" s:pid="Y"/>
  </g>
  <g s:type="outputExt" transform="translate(833,299.5)" s:width="30" s:height="20" id="cell_stall_branch">
    <text x="15" y="-4" class="nodelabel text-1 cell_stall_branch" s:attribute="ref">stall_branch</text>
    <s:alias val="$_outputExt_"/>
    <path d="M30,0 L30,20 L15,20 L0,10 L15,0 Z" class="cell_stall_branch fill-4"/>
    <g s:x="0" s:y="10" s:pid="A"/>
  </g>
  <g s:type="outputExt" transform="translate(833,127)" s:width="30" s:height="20" id="cell_destination">
    <text x="15" y="-4" class="nodelabel text-1 cell_destination" s:attribute="ref">destination</text>
    <s:alias val="$_outputExt_"/>
    <path d="M30,0 L30,20 L15,20 L0,10 L15,0 Z" class="cell_destination fill-4"/>
    <g s:x="0" s:y="10" s:pid="A"/>
  </g>
  <g s:type="constant" transform="translate(712,117)" s:width="30" s:height="20" id="cell_0">
    <text x="15" y="-4" class="nodelabel text-1 cell_0" s:attribute="ref">0</text>
    <s:alias val="$_constant_"/>
    <rect width="30" height="20" class="cell_0 fill-4"/>
    <g s:x="31" s:y="10" s:pid="Y"/>
  </g>
  <g s:type="constant" transform="translate(712,309.5)" s:width="30" s:height="20" id="cell_1">
    <text x="15" y="-4" class="nodelabel text-1 cell_1" s:attribute="ref">1</text>
    <s:alias val="$_constant_"/>
    <rect width="30" height="20" class="cell_1 fill-4"/>
    <g s:x="31" s:y="10" s:pid="Y"/>
  </g>
  <line x1="743" x2="778" y1="127" y2="127" class="net_42"/>
  <line x1="743" x2="763" y1="127" y2="127" class="net_42"/>
  <line x1="763" x2="763" y1="127" y2="299.5" class="net_42"/>
  <circle cx="763" cy="127" r="2" style="fill:#000" class="net_42"/>
  <line x1="763" x2="778" y1="299.5" y2="299.5" class="net_42"/>
  <line x1="743" x2="753" y1="319.5" y2="319.5" class="net_43"/>
  <line x1="753" x2="753" y1="319.5" y2="147" class="net_43"/>
  <circle cx="753" cy="319.5" r="2" style="fill:#000" class="net_43"/>
  <line x1="753" x2="778" y1="147" y2="147" class="net_43"/>
  <line x1="743" x2="778" y1="319.5" y2="319.5" class="net_43"/>
  <line x1="742.3333333333334" x2="788" y1="184.5" y2="184.5" class="net_27"/>
  <line x1="788" x2="788" y1="184.5" y2="152" class="net_27"/>
  <line x1="42" x2="222" y1="134.5" y2="134.5" class="net_2,3,4,5,6"/>
  <line x1="42" x2="200" y1="134.5" y2="134.5" class="net_2,3,4,5,6"/>
  <line x1="200" x2="200" y1="134.5" y2="264.5" class="net_2,3,4,5,6"/>
  <circle cx="200" cy="134.5" r="2" style="fill:#000" class="net_2,3,4,5,6"/>
  <line x1="200" x2="222" y1="264.5" y2="264.5" class="net_2,3,4,5,6"/>
  <line x1="42" x2="210" y1="69.5" y2="69.5" class="net_14,15,16,17,18"/>
  <line x1="210" x2="210" y1="69.5" y2="149.5" class="net_14,15,16,17,18"/>
  <circle cx="210" cy="149.5" r="2" style="fill:#000" class="net_14,15,16,17,18"/>
  <line x1="210" x2="222" y1="149.5" y2="149.5" class="net_14,15,16,17,18"/>
  <line x1="42" x2="210" y1="69.5" y2="69.5" class="net_14,15,16,17,18"/>
  <line x1="210" x2="210" y1="69.5" y2="214.5" class="net_14,15,16,17,18"/>
  <line x1="210" x2="222" y1="214.5" y2="214.5" class="net_14,15,16,17,18"/>
  <line x1="42" x2="210" y1="69.5" y2="69.5" class="net_14,15,16,17,18"/>
  <line x1="210" x2="210" y1="69.5" y2="82" class="net_14,15,16,17,18"/>
  <circle cx="210" cy="82" r="2" style="fill:#000" class="net_14,15,16,17,18"/>
  <line x1="210" x2="524" y1="82" y2="82" class="net_14,15,16,17,18"/>
  <line x1="42" x2="222" y1="199.5" y2="199.5" class="net_7,8,9,10,11"/>
  <line x1="42" x2="190" y1="199.5" y2="199.5" class="net_7,8,9,10,11"/>
  <line x1="190" x2="190" y1="199.5" y2="324.5" class="net_7,8,9,10,11"/>
  <circle cx="190" cy="199.5" r="2" style="fill:#000" class="net_7,8,9,10,11"/>
  <line x1="190" x2="222" y1="324.5" y2="324.5" class="net_7,8,9,10,11"/>
  <line x1="245" x2="255" y1="142" y2="142" class="net_28"/>
  <line x1="255" x2="255" y1="142" y2="192" class="net_28"/>
  <line x1="255" x2="326" y1="192" y2="192" class="net_28"/>
  <line x1="245" x2="326" y1="207" y2="207" class="net_29"/>
  <line x1="310" x2="507" y1="142" y2="142" class="net_13"/>
  <line x1="354" x2="452" y1="199.5" y2="199.5" class="net_30"/>
  <line x1="452" x2="452" y1="199.5" y2="157" class="net_30"/>
  <circle cx="452" cy="199.5" r="2" style="fill:#000" class="net_30"/>
  <line x1="452" x2="507" y1="157" y2="157" class="net_30"/>
  <line x1="354" x2="647" y1="199.5" y2="199.5" class="net_30"/>
  <line x1="552" x2="627" y1="89.5" y2="89.5" class="net_32"/>
  <line x1="627" x2="627" y1="89.5" y2="317" class="net_32"/>
  <circle cx="627" cy="89.5" r="2" style="fill:#000" class="net_32"/>
  <line x1="627" x2="647" y1="317" y2="317" class="net_32"/>
  <line x1="552" x2="687" y1="89.5" y2="89.5" class="net_32"/>
  <line x1="687" x2="687" y1="89.5" y2="177" class="net_32"/>
  <line x1="687" x2="712.3333333333334" y1="177" y2="177" class="net_32"/>
  <line x1="537" x2="617" y1="149.5" y2="149.5" class="net_31"/>
  <line x1="617" x2="617" y1="149.5" y2="332" class="net_31"/>
  <line x1="617" x2="647" y1="332" y2="332" class="net_31"/>
  <line x1="42" x2="200" y1="339.5" y2="339.5" class="net_20,21,22,23,24"/>
  <line x1="200" x2="200" y1="339.5" y2="279.5" class="net_20,21,22,23,24"/>
  <circle cx="200" cy="339.5" r="2" style="fill:#000" class="net_20,21,22,23,24"/>
  <line x1="200" x2="222" y1="279.5" y2="279.5" class="net_20,21,22,23,24"/>
  <line x1="42" x2="222" y1="339.5" y2="339.5" class="net_20,21,22,23,24"/>
  <line x1="42" x2="200" y1="339.5" y2="339.5" class="net_20,21,22,23,24"/>
  <line x1="200" x2="200" y1="339.5" y2="369.5" class="net_20,21,22,23,24"/>
  <line x1="200" x2="524" y1="369.5" y2="369.5" class="net_20,21,22,23,24"/>
  <line x1="245" x2="255" y1="272" y2="272" class="net_34"/>
  <line x1="255" x2="255" y1="272" y2="317" class="net_34"/>
  <line x1="255" x2="326" y1="317" y2="317" class="net_34"/>
  <line x1="245" x2="326" y1="332" y2="332" class="net_35"/>
  <line x1="310" x2="452" y1="267" y2="267" class="net_19"/>
  <line x1="452" x2="452" y1="267" y2="309.5" class="net_19"/>
  <line x1="452" x2="507" y1="309.5" y2="309.5" class="net_19"/>
  <line x1="354" x2="507" y1="324.5" y2="324.5" class="net_36"/>
  <line x1="552" x2="647" y1="377" y2="377" class="net_38"/>
  <line x1="537" x2="607" y1="317" y2="317" class="net_37"/>
  <line x1="607" x2="607" y1="317" y2="392" class="net_37"/>
  <line x1="607" x2="647" y1="392" y2="392" class="net_37"/>
  <line x1="677" x2="687" y1="324.5" y2="324.5" class="net_33"/>
  <line x1="687" x2="687" y1="324.5" y2="369.5" class="net_33"/>
  <line x1="687" x2="714.3333333333334" y1="369.5" y2="369.5" class="net_33"/>
  <line x1="677" x2="714.3333333333334" y1="384.5" y2="384.5" class="net_39"/>
  <line x1="742.3333333333334" x2="788" y1="377" y2="377" class="net_40"/>
  <line x1="788" x2="788" y1="377" y2="324.5" class="net_40"/>
  <line x1="507" x2="637" y1="32" y2="32" class="net_12"/>
  <line x1="637" x2="637" y1="32" y2="184.5" class="net_12"/>
  <line x1="637" x2="647" y1="184.5" y2="184.5" class="net_12"/>
  <line x1="677" x2="712.3333333333334" y1="192" y2="192" class="net_41"/>
  <line x1="798" x2="833" y1="309.5" y2="309.5" class="net_25"/>
  <line x1="798" x2="833" y1="137" y2="137" class="net_26"/>
</svg>
