<svg xmlns="http://www.w3.org/2000/svg" xmlns:xlink="http://www.w3.org/1999/xlink" xmlns:s="https://github.com/nturley/netlistsvg" width="1060" height="554">
  <style>  svg {
      stroke: #011e41;
      fill: none;
    }
    text {
      fill:#ffffff;
      stroke:none;
      font-size:10px;
      font-weight: bold;
      font-family: "Courier New", monospace;
    }
    .fill-1 { fill: #003262; }
    .fill-2 { fill: #011e41; stroke: #003262; }
    .fill-3 { fill: #ffffff; }
    .fill-4 { fill: #003262; }
    .fill-5 { fill: #011e41; stroke: #fdda64; }
    .text-1 { fill: #fdb515; }
    .text-2 { fill: #003262; }
    .text-3 { stroke: #fdda64; }
    .nodelabel { text-anchor: middle; }
    .inputPortLabel { text-anchor: end; }
    .splitjoinBody { fill: #3c3c43; }</style>
  <g s:type="mux" transform="translate(268.3333333333333,142)" s:width="20" s:height="40" id="cell_\15">
    <s:alias val="$pmux"/>
    <s:alias val="$mux"/>
    <s:alias val="$_MUX_"/>
    <path d="M0,0 L20,10 L20,30 L0,40 Z" class="cell_\15 fill-1"/>
    <text x="5" y="32" class="nodelabel cell_\15" s:attribute="">1</text>
    <text x="5" y="13" class="nodelabel cell_\15" s:attribute="">0</text>
    <g s:x="0" s:y="10" s:pid="A"/>
    <g s:x="0" s:y="30" s:pid="B"/>
    <g s:x="10" s:y="35" s:pid="S"/>
    <g s:x="20" s:y="20" s:pid="Y"/>
  </g>
  <g s:type="mux" transform="translate(340.6666666666667,132)" s:width="20" s:height="40" id="cell_\31">
    <s:alias val="$pmux"/>
    <s:alias val="$mux"/>
    <s:alias val="$_MUX_"/>
    <path d="M0,0 L20,10 L20,30 L0,40 Z" class="cell_\31 fill-1"/>
    <text x="5" y="32" class="nodelabel cell_\31" s:attribute="">1</text>
    <text x="5" y="13" class="nodelabel cell_\31" s:attribute="">0</text>
    <g s:x="0" s:y="10" s:pid="A"/>
    <g s:x="0" s:y="30" s:pid="B"/>
    <g s:x="10" s:y="35" s:pid="S"/>
    <g s:x="20" s:y="20" s:pid="Y"/>
  </g>
  <g s:type="dff" transform="translate(400,142)" s:width="30" s:height="40" id="cell_\32">
    <s:alias val="$dff"/>
    <s:alias val="$_DFF_"/>
    <s:alias val="$_DFF_P_"/>
    <s:alias val="$adff"/>
    <s:alias val="$_DFF_"/>
    <s:alias val="$_DFF_P_"/>
    <s:alias val="$sdff"/>
    <s:alias val="$_DFF_"/>
    <s:alias val="$_DFF_P_"/>
    <rect width="30" height="40" x="0" y="0" class="cell_\32 fill-1"/>
    <path d="M0,35 L5,30 L0,25" class="cell_\32 fill-5"/>
    <g s:x="31" s:y="10" s:pid="Q"/>
    <g s:x="-1" s:y="30" s:pid="CLK"/>
    <g s:x="-1" s:y="30" s:pid="C"/>
    <g s:x="-1" s:y="10" s:pid="D"/>
    <g s:x="15" s:y="40" s:pid="ARST"/>
    <g s:x="15" s:y="40" s:pid="SRST"/>
  </g>
  <g s:type="generic" transform="translate(681,41.5)" s:width="30" s:height="40" id="cell_mem_interface">
    <text x="15" y="-4" class="nodelabel text-1 cell_mem_interface" s:attribute="ref">module_memory_interface_3_32</text>
    <rect width="30" height="60" s:generic="body" class="cell_mem_interface fill-1"/>
    <g transform="translate(0,10)" s:x="0" s:y="10" s:pid="in0" id="port_mem_interface~select_function">
      <text x="-3" y="-4" class="inputPortLabel text-2 cell_mem_interface">select_function</text>
    </g>
    <g transform="translate(0,30)" s:x="0" s:y="10" s:pid="in0" id="port_mem_interface~source_data_in">
      <text x="-3" y="-4" class="inputPortLabel text-2 cell_mem_interface">source_data_in</text>
    </g>
    <g transform="translate(0,50)" s:x="0" s:y="10" s:pid="in0" id="port_mem_interface~source_data_out">
      <text x="-3" y="-4" class="inputPortLabel text-2 cell_mem_interface">source_data_out</text>
    </g>
    <g transform="translate(30,10)" s:x="30" s:y="10" s:pid="out0" id="port_mem_interface~destination_data_in">
      <text x="5" y="-4" class="cell_mem_interface text-2">destination_data_in</text>
    </g>
    <g transform="translate(30,30)" s:x="30" s:y="10" s:pid="out0" id="port_mem_interface~destination_data_out">
      <text x="5" y="-4" class="cell_mem_interface text-2">destination_data_out</text>
    </g>
  </g>
  <g s:type="inputExt" transform="translate(334,522)" s:width="30" s:height="20" id="cell_clock">
    <text x="15" y="-4" class="nodelabel text-1 cell_clock" s:attribute="ref">clock</text>
    <s:alias val="$_inputExt_"/>
    <path d="M0,0 L0,20 L15,20 L30,10 L15,0 Z" class="cell_clock fill-4"/>
    <g s:x="30" s:y="10" s:pid="Y"/>
  </g>
  <g s:type="inputExt" transform="translate(197,462)" s:width="30" s:height="20" id="cell_clear">
    <text x="15" y="-4" class="nodelabel text-1 cell_clear" s:attribute="ref">clear</text>
    <s:alias val="$_inputExt_"/>
    <path d="M0,0 L0,20 L15,20 L30,10 L15,0 Z" class="cell_clear fill-4"/>
    <g s:x="30" s:y="10" s:pid="Y"/>
  </g>
  <g s:type="inputExt" transform="translate(263,492)" s:width="30" s:height="20" id="cell_enable">
    <text x="15" y="-4" class="nodelabel text-1 cell_enable" s:attribute="ref">enable</text>
    <s:alias val="$_inputExt_"/>
    <path d="M0,0 L0,20 L15,20 L30,10 L15,0 Z" class="cell_enable fill-4"/>
    <g s:x="30" s:y="10" s:pid="Y"/>
  </g>
  <g s:type="inputExt" transform="translate(12,42)" s:width="30" s:height="20" id="cell_source control_mem">
    <text x="15" y="-4" class="nodelabel text-1 cell_source control_mem" s:attribute="ref">source control_mem</text>
    <s:alias val="$_inputExt_"/>
    <path d="M0,0 L0,20 L15,20 L30,10 L15,0 Z" class="cell_source control_mem fill-4"/>
    <g s:x="30" s:y="10" s:pid="Y"/>
  </g>
  <g s:type="inputExt" transform="translate(12,107)" s:width="30" s:height="20" id="cell_source control_wb">
    <text x="15" y="-4" class="nodelabel text-1 cell_source control_wb" s:attribute="ref">source control_wb</text>
    <s:alias val="$_inputExt_"/>
    <path d="M0,0 L0,20 L15,20 L30,10 L15,0 Z" class="cell_source control_wb fill-4"/>
    <g s:x="30" s:y="10" s:pid="Y"/>
  </g>
  <g s:type="inputExt" transform="translate(12,172)" s:width="30" s:height="20" id="cell_source data_destination">
    <text x="15" y="-4" class="nodelabel text-1 cell_source data_destination" s:attribute="ref">source data_destination</text>
    <s:alias val="$_inputExt_"/>
    <path d="M0,0 L0,20 L15,20 L30,10 L15,0 Z" class="cell_source data_destination fill-4"/>
    <g s:x="30" s:y="10" s:pid="Y"/>
  </g>
  <g s:type="inputExt" transform="translate(12,237)" s:width="30" s:height="20" id="cell_source data_source_2">
    <text x="15" y="-4" class="nodelabel text-1 cell_source data_source_2" s:attribute="ref">source data_source_2</text>
    <s:alias val="$_inputExt_"/>
    <path d="M0,0 L0,20 L15,20 L30,10 L15,0 Z" class="cell_source data_source_2 fill-4"/>
    <g s:x="30" s:y="10" s:pid="Y"/>
  </g>
  <g s:type="inputExt" transform="translate(12,302)" s:width="30" s:height="20" id="cell_source select_destination">
    <text x="15" y="-4" class="nodelabel text-1 cell_source select_destination" s:attribute="ref">source select_destination</text>
    <s:alias val="$_inputExt_"/>
    <path d="M0,0 L0,20 L15,20 L30,10 L15,0 Z" class="cell_source select_destination fill-4"/>
    <g s:x="30" s:y="10" s:pid="Y"/>
  </g>
  <g s:type="inputExt" transform="translate(12,367)" s:width="30" s:height="20" id="cell_source funct_3">
    <text x="15" y="-4" class="nodelabel text-1 cell_source funct_3" s:attribute="ref">source funct_3</text>
    <s:alias val="$_inputExt_"/>
    <path d="M0,0 L0,20 L15,20 L30,10 L15,0 Z" class="cell_source funct_3 fill-4"/>
    <g s:x="30" s:y="10" s:pid="Y"/>
  </g>
  <g s:type="inputExt" transform="translate(466,22)" s:width="30" s:height="20" id="cell_data_memory_in">
    <text x="15" y="-4" class="nodelabel text-1 cell_data_memory_in" s:attribute="ref">data_memory_in</text>
    <s:alias val="$_inputExt_"/>
    <path d="M0,0 L0,20 L15,20 L30,10 L15,0 Z" class="cell_data_memory_in fill-4"/>
    <g s:x="30" s:y="10" s:pid="Y"/>
  </g>
  <g s:type="outputExt" transform="translate(868,172)" s:width="30" s:height="20" id="cell_control_memory enable_read">
    <text x="15" y="-4" class="nodelabel text-1 cell_control_memory enable_read" s:attribute="ref">control_memory enable_read</text>
    <s:alias val="$_outputExt_"/>
    <path d="M30,0 L30,20 L15,20 L0,10 L15,0 Z" class="cell_control_memory enable_read fill-4"/>
    <g s:x="0" s:y="10" s:pid="A"/>
  </g>
  <g s:type="outputExt" transform="translate(868,237)" s:width="30" s:height="20" id="cell_control_memory enable_write">
    <text x="15" y="-4" class="nodelabel text-1 cell_control_memory enable_write" s:attribute="ref">control_memory enable_write</text>
    <s:alias val="$_outputExt_"/>
    <path d="M30,0 L30,20 L15,20 L0,10 L15,0 Z" class="cell_control_memory enable_write fill-4"/>
    <g s:x="0" s:y="10" s:pid="A"/>
  </g>
  <g s:type="outputExt" transform="translate(868,367)" s:width="30" s:height="20" id="cell_address_memory">
    <text x="15" y="-4" class="nodelabel text-1 cell_address_memory" s:attribute="ref">address_memory</text>
    <s:alias val="$_outputExt_"/>
    <path d="M30,0 L30,20 L15,20 L0,10 L15,0 Z" class="cell_address_memory fill-4"/>
    <g s:x="0" s:y="10" s:pid="A"/>
  </g>
  <g s:type="outputExt" transform="translate(868,107)" s:width="30" s:height="20" id="cell_data_memory_out">
    <text x="15" y="-4" class="nodelabel text-1 cell_data_memory_out" s:attribute="ref">data_memory_out</text>
    <s:alias val="$_outputExt_"/>
    <path d="M30,0 L30,20 L15,20 L0,10 L15,0 Z" class="cell_data_memory_out fill-4"/>
    <g s:x="0" s:y="10" s:pid="A"/>
  </g>
  <g s:type="outputExt" transform="translate(868,432)" s:width="30" s:height="20" id="cell_destination control_wb">
    <text x="15" y="-4" class="nodelabel text-1 cell_destination control_wb" s:attribute="ref">destination control_wb</text>
    <s:alias val="$_outputExt_"/>
    <path d="M30,0 L30,20 L15,20 L0,10 L15,0 Z" class="cell_destination control_wb fill-4"/>
    <g s:x="0" s:y="10" s:pid="A"/>
  </g>
  <g s:type="outputExt" transform="translate(868,42)" s:width="30" s:height="20" id="cell_destination data_memory">
    <text x="15" y="-4" class="nodelabel text-1 cell_destination data_memory" s:attribute="ref">destination data_memory</text>
    <s:alias val="$_outputExt_"/>
    <path d="M30,0 L30,20 L15,20 L0,10 L15,0 Z" class="cell_destination data_memory fill-4"/>
    <g s:x="0" s:y="10" s:pid="A"/>
  </g>
  <g s:type="outputExt" transform="translate(868,302)" s:width="30" s:height="20" id="cell_destination data_destination">
    <text x="15" y="-4" class="nodelabel text-1 cell_destination data_destination" s:attribute="ref">destination data_destination</text>
    <s:alias val="$_outputExt_"/>
    <path d="M30,0 L30,20 L15,20 L0,10 L15,0 Z" class="cell_destination data_destination fill-4"/>
    <g s:x="0" s:y="10" s:pid="A"/>
  </g>
  <g s:type="outputExt" transform="translate(868,497)" s:width="30" s:height="20" id="cell_destination select_destination">
    <text x="15" y="-4" class="nodelabel text-1 cell_destination select_destination" s:attribute="ref">destination select_destination</text>
    <s:alias val="$_outputExt_"/>
    <path d="M30,0 L30,20 L15,20 L0,10 L15,0 Z" class="cell_destination select_destination fill-4"/>
    <g s:x="0" s:y="10" s:pid="A"/>
  </g>
  <g s:type="constant" transform="translate(197,397)" s:width="30" s:height="20" id="cell_0000000000000000000000000000000000000000000000000000000000000000000000000000">
    <text x="15" y="-4" class="nodelabel text-1 cell_0000000000000000000000000000000000000000000000000000000000000000000000000000" s:attribute="ref">0x0</text>
    <s:alias val="$_constant_"/>
    <rect width="30" height="20" class="cell_0000000000000000000000000000000000000000000000000000000000000000000000000000 fill-4"/>
    <g s:x="31" s:y="10" s:pid="Y"/>
  </g>
  <g s:type="join" transform="translate(202.4,131.5)" s:width="4" s:height="40" id="cell_$join$,5,6,7,8,9,10,11,12,13,14,15,16,17,18,19,20,21,22,23,24,25,26,27,28,29,30,31,32,33,34,35,36,37,38,39,40,41,42,43,44,45,46,47,48,49,50,51,52,53,54,55,56,57,58,59,60,61,62,63,64,65,66,67,68,69,70,71,72,73,74,75,76,77,78,79,80,">
    <rect width="5" height="120" class="splitjoinBody" s:generic="body"/>
    <s:alias val="$_join_"/>
    <g s:x="5" s:y="20" s:pid="out"/>
    <g transform="translate(0,10)" s:x="0" s:y="10" s:pid="in0">
      <text x="-3" y="-4" class="inputPortLabel text-2">0:1</text>
    </g>
    <g transform="translate(0,30)" s:x="0" s:y="10" s:pid="in0">
      <text x="-3" y="-4" class="inputPortLabel text-2">2:3</text>
    </g>
    <g transform="translate(0,50)" s:x="0" s:y="10" s:pid="in0">
      <text x="-3" y="-4" class="inputPortLabel text-2">4:35</text>
    </g>
    <g transform="translate(0,70)" s:x="0" s:y="10" s:pid="in0">
      <text x="-3" y="-4" class="inputPortLabel text-2">36:67</text>
    </g>
    <g transform="translate(0,90)" s:x="0" s:y="10" s:pid="in0">
      <text x="-3" y="-4" class="inputPortLabel text-2">68:72</text>
    </g>
    <g transform="translate(0,110)" s:x="0" s:y="10" s:pid="in0">
      <text x="-3" y="-4" class="inputPortLabel text-2">73:75</text>
    </g>
  </g>
  <g s:type="split" transform="translate(495.8333333333333,131.5)" s:width="5" s:height="40" id="cell_$split$,113,114,179,180,115,116,117,118,119,120,121,122,123,124,125,126,127,128,129,130,131,132,133,134,135,136,137,138,139,140,141,142,143,144,145,146,294,295,296,297,298,299,300,301,302,303,304,305,306,307,308,309,310,311,312,313,314,315,316,317,318,319,320,321,322,323,324,325,213,214,215,216,217,326,327,328,">
    <rect width="5" height="140" class="splitjoinBody" s:generic="body"/>
    <s:alias val="$_split_"/>
    <g s:x="0" s:y="20" s:pid="in"/>
    <g transform="translate(4,10)" s:x="4" s:y="10" s:pid="out0">
      <text x="5" y="-4" class="text-2">73:75</text>
    </g>
    <g transform="translate(4,30)" s:x="4" s:y="10" s:pid="out0">
      <text x="5" y="-4" class="text-2">36:67</text>
    </g>
    <g transform="translate(4,50)" s:x="4" s:y="10" s:pid="out0">
      <text x="5" y="-4" class="text-2">0</text>
    </g>
    <g transform="translate(4,70)" s:x="4" s:y="10" s:pid="out0">
      <text x="5" y="-4" class="text-2">1</text>
    </g>
    <g transform="translate(4,90)" s:x="4" s:y="10" s:pid="out0">
      <text x="5" y="-4" class="text-2">4:35</text>
    </g>
    <g transform="translate(4,110)" s:x="4" s:y="10" s:pid="out0">
      <text x="5" y="-4" class="text-2">2:3</text>
    </g>
    <g transform="translate(4,130)" s:x="4" s:y="10" s:pid="out0">
      <text x="5" y="-4" class="text-2">68:72</text>
    </g>
  </g>
  <line x1="208.4" x2="268.3333333333333" y1="152" y2="152" class="net_5,6,7,8,9,10,11,12,13,14,15,16,17,18,19,20,21,22,23,24,25,26,27,28,29,30,31,32,33,34,35,36,37,38,39,40,41,42,43,44,45,46,47,48,49,50,51,52,53,54,55,56,57,58,59,60,61,62,63,64,65,66,67,68,69,70,71,72,73,74,75,76,77,78,79,80"/>
  <line x1="228" x2="238" y1="407" y2="407" class="net_405,406,407,408,409,410,411,412,413,414,415,416,417,418,419,420,421,422,423,424,425,426,427,428,429,430,431,432,433,434,435,436,437,438,439,440,441,442,443,444,445,446,447,448,449,450,451,452,453,454,455,456,457,458,459,460,461,462,463,464,465,466,467,468,469,470,471,472,473,474,475,476,477,478,479,480"/>
  <line x1="238" x2="238" y1="407" y2="172" class="net_405,406,407,408,409,410,411,412,413,414,415,416,417,418,419,420,421,422,423,424,425,426,427,428,429,430,431,432,433,434,435,436,437,438,439,440,441,442,443,444,445,446,447,448,449,450,451,452,453,454,455,456,457,458,459,460,461,462,463,464,465,466,467,468,469,470,471,472,473,474,475,476,477,478,479,480"/>
  <line x1="238" x2="268.3333333333333" y1="172" y2="172" class="net_405,406,407,408,409,410,411,412,413,414,415,416,417,418,419,420,421,422,423,424,425,426,427,428,429,430,431,432,433,434,435,436,437,438,439,440,441,442,443,444,445,446,447,448,449,450,451,452,453,454,455,456,457,458,459,460,461,462,463,464,465,466,467,468,469,470,471,472,473,474,475,476,477,478,479,480"/>
  <line x1="227" x2="278.3333333333333" y1="472" y2="472" class="net_3"/>
  <line x1="278.3333333333333" x2="278.3333333333333" y1="472" y2="177" class="net_3"/>
  <line x1="431" x2="441" y1="152" y2="152" class="net_113,114,179,180,115,116,117,118,119,120,121,122,123,124,125,126,127,128,129,130,131,132,133,134,135,136,137,138,139,140,141,142,143,144,145,146,294,295,296,297,298,299,300,301,302,303,304,305,306,307,308,309,310,311,312,313,314,315,316,317,318,319,320,321,322,323,324,325,213,214,215,216,217,326,327,328"/>
  <line x1="441" x2="441" y1="152" y2="122" class="net_113,114,179,180,115,116,117,118,119,120,121,122,123,124,125,126,127,128,129,130,131,132,133,134,135,136,137,138,139,140,141,142,143,144,145,146,294,295,296,297,298,299,300,301,302,303,304,305,306,307,308,309,310,311,312,313,314,315,316,317,318,319,320,321,322,323,324,325,213,214,215,216,217,326,327,328"/>
  <line x1="441" x2="309" y1="122" y2="122" class="net_113,114,179,180,115,116,117,118,119,120,121,122,123,124,125,126,127,128,129,130,131,132,133,134,135,136,137,138,139,140,141,142,143,144,145,146,294,295,296,297,298,299,300,301,302,303,304,305,306,307,308,309,310,311,312,313,314,315,316,317,318,319,320,321,322,323,324,325,213,214,215,216,217,326,327,328"/>
  <line x1="309" x2="309" y1="122" y2="142" class="net_113,114,179,180,115,116,117,118,119,120,121,122,123,124,125,126,127,128,129,130,131,132,133,134,135,136,137,138,139,140,141,142,143,144,145,146,294,295,296,297,298,299,300,301,302,303,304,305,306,307,308,309,310,311,312,313,314,315,316,317,318,319,320,321,322,323,324,325,213,214,215,216,217,326,327,328"/>
  <circle cx="441" cy="152" r="2" style="fill:#000" class="net_113,114,179,180,115,116,117,118,119,120,121,122,123,124,125,126,127,128,129,130,131,132,133,134,135,136,137,138,139,140,141,142,143,144,145,146,294,295,296,297,298,299,300,301,302,303,304,305,306,307,308,309,310,311,312,313,314,315,316,317,318,319,320,321,322,323,324,325,213,214,215,216,217,326,327,328"/>
  <line x1="309" x2="340.6666666666667" y1="142" y2="142" class="net_113,114,179,180,115,116,117,118,119,120,121,122,123,124,125,126,127,128,129,130,131,132,133,134,135,136,137,138,139,140,141,142,143,144,145,146,294,295,296,297,298,299,300,301,302,303,304,305,306,307,308,309,310,311,312,313,314,315,316,317,318,319,320,321,322,323,324,325,213,214,215,216,217,326,327,328"/>
  <line x1="431" x2="495.8333333333333" y1="152" y2="152" class="net_113,114,179,180,115,116,117,118,119,120,121,122,123,124,125,126,127,128,129,130,131,132,133,134,135,136,137,138,139,140,141,142,143,144,145,146,294,295,296,297,298,299,300,301,302,303,304,305,306,307,308,309,310,311,312,313,314,315,316,317,318,319,320,321,322,323,324,325,213,214,215,216,217,326,327,328"/>
  <line x1="288.3333333333333" x2="340.6666666666667" y1="162" y2="162" class="net_218,219,220,221,222,223,224,225,226,227,228,229,230,231,232,233,234,235,236,237,238,239,240,241,242,243,244,245,246,247,248,249,250,251,252,253,254,255,256,257,258,259,260,261,262,263,264,265,266,267,268,269,270,271,272,273,274,275,276,277,278,279,280,281,282,283,284,285,286,287,288,289,290,291,292,293"/>
  <line x1="293" x2="350.6666666666667" y1="502" y2="502" class="net_4"/>
  <line x1="350.6666666666667" x2="350.6666666666667" y1="502" y2="167" class="net_4"/>
  <line x1="364" x2="374" y1="532" y2="532" class="net_2"/>
  <line x1="374" x2="374" y1="532" y2="172" class="net_2"/>
  <line x1="374" x2="399" y1="172" y2="172" class="net_2"/>
  <line x1="360.6666666666667" x2="399" y1="152" y2="152" class="net_329,330,331,332,333,334,335,336,337,338,339,340,341,342,343,344,345,346,347,348,349,350,351,352,353,354,355,356,357,358,359,360,361,362,363,364,365,366,367,368,369,370,371,372,373,374,375,376,377,378,379,380,381,382,383,384,385,386,387,388,389,390,391,392,393,394,395,396,397,398,399,400,401,402,403,404"/>
  <line x1="500.3333333333333" x2="500.3333333333333" y1="141.5" y2="52" class="net_326,327,328"/>
  <line x1="500.3333333333333" x2="681" y1="52" y2="52" class="net_326,327,328"/>
  <line x1="496" x2="560" y1="32" y2="32" class="net_81,82,83,84,85,86,87,88,89,90,91,92,93,94,95,96,97,98,99,100,101,102,103,104,105,106,107,108,109,110,111,112"/>
  <line x1="560" x2="560" y1="32" y2="72" class="net_81,82,83,84,85,86,87,88,89,90,91,92,93,94,95,96,97,98,99,100,101,102,103,104,105,106,107,108,109,110,111,112"/>
  <line x1="560" x2="681" y1="72" y2="72" class="net_81,82,83,84,85,86,87,88,89,90,91,92,93,94,95,96,97,98,99,100,101,102,103,104,105,106,107,108,109,110,111,112"/>
  <line x1="500.8333333333333" x2="560" y1="162" y2="162" class="net_294,295,296,297,298,299,300,301,302,303,304,305,306,307,308,309,310,311,312,313,314,315,316,317,318,319,320,321,322,323,324,325"/>
  <line x1="560" x2="560" y1="162" y2="92" class="net_294,295,296,297,298,299,300,301,302,303,304,305,306,307,308,309,310,311,312,313,314,315,316,317,318,319,320,321,322,323,324,325"/>
  <line x1="560" x2="681" y1="92" y2="92" class="net_294,295,296,297,298,299,300,301,302,303,304,305,306,307,308,309,310,311,312,313,314,315,316,317,318,319,320,321,322,323,324,325"/>
  <line x1="500.8333333333333" x2="868" y1="182" y2="182" class="net_113"/>
  <line x1="500.8333333333333" x2="580" y1="202" y2="202" class="net_114"/>
  <line x1="580" x2="580" y1="202" y2="247" class="net_114"/>
  <line x1="580" x2="868" y1="247" y2="247" class="net_114"/>
  <line x1="500.8333333333333" x2="570" y1="222" y2="222" class="net_115,116,117,118,119,120,121,122,123,124,125,126,127,128,129,130,131,132,133,134,135,136,137,138,139,140,141,142,143,144,145,146"/>
  <line x1="570" x2="570" y1="222" y2="312" class="net_115,116,117,118,119,120,121,122,123,124,125,126,127,128,129,130,131,132,133,134,135,136,137,138,139,140,141,142,143,144,145,146"/>
  <line x1="570" x2="843" y1="312" y2="312" class="net_115,116,117,118,119,120,121,122,123,124,125,126,127,128,129,130,131,132,133,134,135,136,137,138,139,140,141,142,143,144,145,146"/>
  <line x1="843" x2="843" y1="312" y2="377" class="net_115,116,117,118,119,120,121,122,123,124,125,126,127,128,129,130,131,132,133,134,135,136,137,138,139,140,141,142,143,144,145,146"/>
  <circle cx="843" cy="312" r="2" style="fill:#000" class="net_115,116,117,118,119,120,121,122,123,124,125,126,127,128,129,130,131,132,133,134,135,136,137,138,139,140,141,142,143,144,145,146"/>
  <line x1="843" x2="868" y1="377" y2="377" class="net_115,116,117,118,119,120,121,122,123,124,125,126,127,128,129,130,131,132,133,134,135,136,137,138,139,140,141,142,143,144,145,146"/>
  <line x1="500.8333333333333" x2="570" y1="222" y2="222" class="net_115,116,117,118,119,120,121,122,123,124,125,126,127,128,129,130,131,132,133,134,135,136,137,138,139,140,141,142,143,144,145,146"/>
  <line x1="570" x2="570" y1="222" y2="312" class="net_115,116,117,118,119,120,121,122,123,124,125,126,127,128,129,130,131,132,133,134,135,136,137,138,139,140,141,142,143,144,145,146"/>
  <line x1="570" x2="868" y1="312" y2="312" class="net_115,116,117,118,119,120,121,122,123,124,125,126,127,128,129,130,131,132,133,134,135,136,137,138,139,140,141,142,143,144,145,146"/>
  <line x1="712" x2="843" y1="72" y2="72" class="net_147,148,149,150,151,152,153,154,155,156,157,158,159,160,161,162,163,164,165,166,167,168,169,170,171,172,173,174,175,176,177,178"/>
  <line x1="843" x2="843" y1="72" y2="117" class="net_147,148,149,150,151,152,153,154,155,156,157,158,159,160,161,162,163,164,165,166,167,168,169,170,171,172,173,174,175,176,177,178"/>
  <line x1="843" x2="868" y1="117" y2="117" class="net_147,148,149,150,151,152,153,154,155,156,157,158,159,160,161,162,163,164,165,166,167,168,169,170,171,172,173,174,175,176,177,178"/>
  <line x1="500.8333333333333" x2="560" y1="242" y2="242" class="net_179,180"/>
  <line x1="560" x2="560" y1="242" y2="442" class="net_179,180"/>
  <line x1="560" x2="868" y1="442" y2="442" class="net_179,180"/>
  <line x1="712" x2="868" y1="52" y2="52" class="net_181,182,183,184,185,186,187,188,189,190,191,192,193,194,195,196,197,198,199,200,201,202,203,204,205,206,207,208,209,210,211,212"/>
  <line x1="500.3333333333333" x2="500.3333333333333" y1="262.5" y2="507" class="net_213,214,215,216,217"/>
  <line x1="500.3333333333333" x2="868" y1="507" y2="507" class="net_213,214,215,216,217"/>
  <line x1="42" x2="202.9" y1="52" y2="52" class="net_5,6"/>
  <line x1="202.9" x2="202.9" y1="52" y2="141.5" class="net_5,6"/>
  <line x1="42" x2="172" y1="117" y2="117" class="net_7,8"/>
  <line x1="172" x2="172" y1="117" y2="162" class="net_7,8"/>
  <line x1="172" x2="202.4" y1="162" y2="162" class="net_7,8"/>
  <line x1="42" x2="202.4" y1="182" y2="182" class="net_9,10,11,12,13,14,15,16,17,18,19,20,21,22,23,24,25,26,27,28,29,30,31,32,33,34,35,36,37,38,39,40"/>
  <line x1="42" x2="172" y1="247" y2="247" class="net_41,42,43,44,45,46,47,48,49,50,51,52,53,54,55,56,57,58,59,60,61,62,63,64,65,66,67,68,69,70,71,72"/>
  <line x1="172" x2="172" y1="247" y2="202" class="net_41,42,43,44,45,46,47,48,49,50,51,52,53,54,55,56,57,58,59,60,61,62,63,64,65,66,67,68,69,70,71,72"/>
  <line x1="172" x2="202.4" y1="202" y2="202" class="net_41,42,43,44,45,46,47,48,49,50,51,52,53,54,55,56,57,58,59,60,61,62,63,64,65,66,67,68,69,70,71,72"/>
  <line x1="42" x2="182" y1="312" y2="312" class="net_73,74,75,76,77"/>
  <line x1="182" x2="182" y1="312" y2="222" class="net_73,74,75,76,77"/>
  <line x1="182" x2="202.4" y1="222" y2="222" class="net_73,74,75,76,77"/>
  <line x1="42" x2="202.9" y1="377" y2="377" class="net_78,79,80"/>
  <line x1="202.9" x2="202.9" y1="377" y2="242.5" class="net_78,79,80"/>
</svg>
