<svg xmlns="http://www.w3.org/2000/svg" xmlns:xlink="http://www.w3.org/1999/xlink" xmlns:s="https://github.com/nturley/netlistsvg" width="1391" height="901.5">
  <style>  svg {
      stroke: #011e41;
      fill: none;
    }
    text {
      fill:#ffffff;
      stroke:none;
      font-size:10px;
      font-weight: bold;
      font-family: "Courier New", monospace;
    }
    .fill-1 { fill: #003262; }
    .fill-2 { fill: #011e41; stroke: #003262; }
    .fill-3 { fill: #ffffff; }
    .fill-4 { fill: #003262; }
    .fill-5 { fill: #011e41; stroke: #fdda64; }
    .text-1 { fill: #fdb515; }
    .text-2 { fill: #003262; }
    .text-3 { stroke: #fdda64; }
    .nodelabel { text-anchor: middle; }
    .inputPortLabel { text-anchor: end; }
    .splitjoinBody { fill: #3c3c43; }</style>
  <g s:type="and" transform="translate(661,623)" s:width="30" s:height="25" id="cell_\107">
    <s:alias val="$and"/>
    <s:alias val="$logic_and"/>
    <s:alias val="$_AND_"/>
    <s:alias val="$reduce_and"/>
    <path d="M0,0 L0,25 L15,25 A15 12.5 0 0 0 15,0 Z" class="cell_\107 fill-1"/>
    <g s:x="0" s:y="5" s:pid="A"/>
    <g s:x="0" s:y="20" s:pid="B"/>
    <g s:x="30" s:y="12.5" s:pid="Y"/>
  </g>
  <g s:type="and" transform="translate(550,690.5)" s:width="30" s:height="25" id="cell_\128">
    <s:alias val="$and"/>
    <s:alias val="$logic_and"/>
    <s:alias val="$_AND_"/>
    <s:alias val="$reduce_and"/>
    <path d="M0,0 L0,25 L15,25 A15 12.5 0 0 0 15,0 Z" class="cell_\128 fill-1"/>
    <g s:x="0" s:y="5" s:pid="A"/>
    <g s:x="0" s:y="20" s:pid="B"/>
    <g s:x="30" s:y="12.5" s:pid="Y"/>
  </g>
  <g s:type="and" transform="translate(661,683)" s:width="30" s:height="25" id="cell_\129">
    <s:alias val="$and"/>
    <s:alias val="$logic_and"/>
    <s:alias val="$_AND_"/>
    <s:alias val="$reduce_and"/>
    <path d="M0,0 L0,25 L15,25 A15 12.5 0 0 0 15,0 Z" class="cell_\129 fill-1"/>
    <g s:x="0" s:y="5" s:pid="A"/>
    <g s:x="0" s:y="20" s:pid="B"/>
    <g s:x="30" s:y="12.5" s:pid="Y"/>
  </g>
  <g s:type="and" transform="translate(887,798.5)" s:width="30" s:height="25" id="cell_\130">
    <s:alias val="$and"/>
    <s:alias val="$logic_and"/>
    <s:alias val="$_AND_"/>
    <s:alias val="$reduce_and"/>
    <path d="M0,0 L0,25 L15,25 A15 12.5 0 0 0 15,0 Z" class="cell_\130 fill-1"/>
    <g s:x="0" s:y="5" s:pid="A"/>
    <g s:x="0" s:y="20" s:pid="B"/>
    <g s:x="30" s:y="12.5" s:pid="Y"/>
  </g>
  <g s:type="reduce_nxor" transform="translate(412,27)" s:width="33" s:height="25" id="cell_\137">
    <s:alias val="$xnor"/>
    <s:alias val="$reduce_xnor"/>
    <s:alias val="$_XNOR_"/>
    <path d="M3,0 A30 25 0 0 1 3,25 A30 25 0 0 0 33,12.5 A30 25 0 0 0 3,0" class="cell_\137 fill-1"/>
    <path d="M0,0 A30 25 0 0 1 0,25" class="cell_\137"/>
    <circle cx="36" cy="12.5" r="3" class="cell_\137 fill-3"/>
    <g s:x="2" s:y="5" s:pid="A"/>
    <g s:x="2" s:y="20" s:pid="B"/>
    <g s:x="38" s:y="12.5" s:pid="Y"/>
  </g>
  <g s:type="and" transform="translate(661,24.5)" s:width="30" s:height="25" id="cell_\150">
    <s:alias val="$and"/>
    <s:alias val="$logic_and"/>
    <s:alias val="$_AND_"/>
    <s:alias val="$reduce_and"/>
    <path d="M0,0 L0,25 L15,25 A15 12.5 0 0 0 15,0 Z" class="cell_\150 fill-1"/>
    <g s:x="0" s:y="5" s:pid="A"/>
    <g s:x="0" s:y="20" s:pid="B"/>
    <g s:x="30" s:y="12.5" s:pid="Y"/>
  </g>
  <g s:type="and" transform="translate(550,92)" s:width="30" s:height="25" id="cell_\171">
    <s:alias val="$and"/>
    <s:alias val="$logic_and"/>
    <s:alias val="$_AND_"/>
    <s:alias val="$reduce_and"/>
    <path d="M0,0 L0,25 L15,25 A15 12.5 0 0 0 15,0 Z" class="cell_\171 fill-1"/>
    <g s:x="0" s:y="5" s:pid="A"/>
    <g s:x="0" s:y="20" s:pid="B"/>
    <g s:x="30" s:y="12.5" s:pid="Y"/>
  </g>
  <g s:type="and" transform="translate(661,84.5)" s:width="30" s:height="25" id="cell_\172">
    <s:alias val="$and"/>
    <s:alias val="$logic_and"/>
    <s:alias val="$_AND_"/>
    <s:alias val="$reduce_and"/>
    <path d="M0,0 L0,25 L15,25 A15 12.5 0 0 0 15,0 Z" class="cell_\172 fill-1"/>
    <g s:x="0" s:y="5" s:pid="A"/>
    <g s:x="0" s:y="20" s:pid="B"/>
    <g s:x="30" s:y="12.5" s:pid="Y"/>
  </g>
  <g s:type="and" transform="translate(887,32)" s:width="30" s:height="25" id="cell_\173">
    <s:alias val="$and"/>
    <s:alias val="$logic_and"/>
    <s:alias val="$_AND_"/>
    <s:alias val="$reduce_and"/>
    <path d="M0,0 L0,25 L15,25 A15 12.5 0 0 0 15,0 Z" class="cell_\173 fill-1"/>
    <g s:x="0" s:y="5" s:pid="A"/>
    <g s:x="0" s:y="20" s:pid="B"/>
    <g s:x="30" s:y="12.5" s:pid="Y"/>
  </g>
  <g s:type="or" transform="translate(661,503)" s:width="30" s:height="25" id="cell_\187">
    <s:alias val="$or"/>
    <s:alias val="$logic_or"/>
    <s:alias val="$_OR_"/>
    <s:alias val="$reduce_or"/>
    <s:alias val="$reduce_bool"/>
    <path d="M0,0 A30 25 0 0 1 0,25 A30 25 0 0 0 30,12.5 A30 25 0 0 0 0,0" class="cell_\187 fill-1"/>
    <g s:x="2" s:y="5" s:pid="A"/>
    <g s:x="2" s:y="20" s:pid="B"/>
    <g s:x="30" s:y="12.5" s:pid="Y"/>
  </g>
  <g s:type="or" transform="translate(550,570.5)" s:width="30" s:height="25" id="cell_\208">
    <s:alias val="$or"/>
    <s:alias val="$logic_or"/>
    <s:alias val="$_OR_"/>
    <s:alias val="$reduce_or"/>
    <s:alias val="$reduce_bool"/>
    <path d="M0,0 A30 25 0 0 1 0,25 A30 25 0 0 0 30,12.5 A30 25 0 0 0 0,0" class="cell_\208 fill-1"/>
    <g s:x="2" s:y="5" s:pid="A"/>
    <g s:x="2" s:y="20" s:pid="B"/>
    <g s:x="30" s:y="12.5" s:pid="Y"/>
  </g>
  <g s:type="or" transform="translate(661,563)" s:width="30" s:height="25" id="cell_\209">
    <s:alias val="$or"/>
    <s:alias val="$logic_or"/>
    <s:alias val="$_OR_"/>
    <s:alias val="$reduce_or"/>
    <s:alias val="$reduce_bool"/>
    <path d="M0,0 A30 25 0 0 1 0,25 A30 25 0 0 0 30,12.5 A30 25 0 0 0 0,0" class="cell_\209 fill-1"/>
    <g s:x="2" s:y="5" s:pid="A"/>
    <g s:x="2" s:y="20" s:pid="B"/>
    <g s:x="30" s:y="12.5" s:pid="Y"/>
  </g>
  <g s:type="and" transform="translate(550,738.5)" s:width="30" s:height="25" id="cell_\21">
    <s:alias val="$and"/>
    <s:alias val="$logic_and"/>
    <s:alias val="$_AND_"/>
    <s:alias val="$reduce_and"/>
    <path d="M0,0 L0,25 L15,25 A15 12.5 0 0 0 15,0 Z" class="cell_\21 fill-1"/>
    <g s:x="0" s:y="5" s:pid="A"/>
    <g s:x="0" s:y="20" s:pid="B"/>
    <g s:x="30" s:y="12.5" s:pid="Y"/>
  </g>
  <g s:type="or" transform="translate(887,510.5)" s:width="30" s:height="25" id="cell_\210">
    <s:alias val="$or"/>
    <s:alias val="$logic_or"/>
    <s:alias val="$_OR_"/>
    <s:alias val="$reduce_or"/>
    <s:alias val="$reduce_bool"/>
    <path d="M0,0 A30 25 0 0 1 0,25 A30 25 0 0 0 30,12.5 A30 25 0 0 0 0,0" class="cell_\210 fill-1"/>
    <g s:x="2" s:y="5" s:pid="A"/>
    <g s:x="2" s:y="20" s:pid="B"/>
    <g s:x="30" s:y="12.5" s:pid="Y"/>
  </g>
  <g s:type="or" transform="translate(887,265.5)" s:width="30" s:height="25" id="cell_\224">
    <s:alias val="$or"/>
    <s:alias val="$logic_or"/>
    <s:alias val="$_OR_"/>
    <s:alias val="$reduce_or"/>
    <s:alias val="$reduce_bool"/>
    <path d="M0,0 A30 25 0 0 1 0,25 A30 25 0 0 0 30,12.5 A30 25 0 0 0 0,0" class="cell_\224 fill-1"/>
    <g s:x="2" s:y="5" s:pid="A"/>
    <g s:x="2" s:y="20" s:pid="B"/>
    <g s:x="30" s:y="12.5" s:pid="Y"/>
  </g>
  <g s:type="or" transform="translate(661,310.5)" s:width="30" s:height="25" id="cell_\245">
    <s:alias val="$or"/>
    <s:alias val="$logic_or"/>
    <s:alias val="$_OR_"/>
    <s:alias val="$reduce_or"/>
    <s:alias val="$reduce_bool"/>
    <path d="M0,0 A30 25 0 0 1 0,25 A30 25 0 0 0 30,12.5 A30 25 0 0 0 0,0" class="cell_\245 fill-1"/>
    <g s:x="2" s:y="5" s:pid="A"/>
    <g s:x="2" s:y="20" s:pid="B"/>
    <g s:x="30" s:y="12.5" s:pid="Y"/>
  </g>
  <g s:type="or" transform="translate(887,450.5)" s:width="30" s:height="25" id="cell_\246">
    <s:alias val="$or"/>
    <s:alias val="$logic_or"/>
    <s:alias val="$_OR_"/>
    <s:alias val="$reduce_or"/>
    <s:alias val="$reduce_bool"/>
    <path d="M0,0 A30 25 0 0 1 0,25 A30 25 0 0 0 30,12.5 A30 25 0 0 0 0,0" class="cell_\246 fill-1"/>
    <g s:x="2" s:y="5" s:pid="A"/>
    <g s:x="2" s:y="20" s:pid="B"/>
    <g s:x="30" s:y="12.5" s:pid="Y"/>
  </g>
  <g s:type="or" transform="translate(1045,273)" s:width="30" s:height="25" id="cell_\247">
    <s:alias val="$or"/>
    <s:alias val="$logic_or"/>
    <s:alias val="$_OR_"/>
    <s:alias val="$reduce_or"/>
    <s:alias val="$reduce_bool"/>
    <path d="M0,0 A30 25 0 0 1 0,25 A30 25 0 0 0 30,12.5 A30 25 0 0 0 0,0" class="cell_\247 fill-1"/>
    <g s:x="2" s:y="5" s:pid="A"/>
    <g s:x="2" s:y="20" s:pid="B"/>
    <g s:x="30" s:y="12.5" s:pid="Y"/>
  </g>
  <g s:type="and" transform="translate(887,738.5)" s:width="30" s:height="25" id="cell_\248">
    <s:alias val="$and"/>
    <s:alias val="$logic_and"/>
    <s:alias val="$_AND_"/>
    <s:alias val="$reduce_and"/>
    <path d="M0,0 L0,25 L15,25 A15 12.5 0 0 0 15,0 Z" class="cell_\248 fill-1"/>
    <g s:x="0" s:y="5" s:pid="A"/>
    <g s:x="0" s:y="20" s:pid="B"/>
    <g s:x="30" s:y="12.5" s:pid="Y"/>
  </g>
  <g s:type="and" transform="translate(1045,856)" s:width="30" s:height="25" id="cell_\249">
    <s:alias val="$and"/>
    <s:alias val="$logic_and"/>
    <s:alias val="$_AND_"/>
    <s:alias val="$reduce_and"/>
    <path d="M0,0 L0,25 L15,25 A15 12.5 0 0 0 15,0 Z" class="cell_\249 fill-1"/>
    <g s:x="0" s:y="5" s:pid="A"/>
    <g s:x="0" s:y="20" s:pid="B"/>
    <g s:x="30" s:y="12.5" s:pid="Y"/>
  </g>
  <g s:type="and" transform="translate(1045,791)" s:width="30" s:height="25" id="cell_\250">
    <s:alias val="$and"/>
    <s:alias val="$logic_and"/>
    <s:alias val="$_AND_"/>
    <s:alias val="$reduce_and"/>
    <path d="M0,0 L0,25 L15,25 A15 12.5 0 0 0 15,0 Z" class="cell_\250 fill-1"/>
    <g s:x="0" s:y="5" s:pid="A"/>
    <g s:x="0" s:y="20" s:pid="B"/>
    <g s:x="30" s:y="12.5" s:pid="Y"/>
  </g>
  <g s:type="and" transform="translate(1110.6666666666667,798.5)" s:width="30" s:height="25" id="cell_\251">
    <s:alias val="$and"/>
    <s:alias val="$logic_and"/>
    <s:alias val="$_AND_"/>
    <s:alias val="$reduce_and"/>
    <path d="M0,0 L0,25 L15,25 A15 12.5 0 0 0 15,0 Z" class="cell_\251 fill-1"/>
    <g s:x="0" s:y="5" s:pid="A"/>
    <g s:x="0" s:y="20" s:pid="B"/>
    <g s:x="30" s:y="12.5" s:pid="Y"/>
  </g>
  <g s:type="not" transform="translate(1111,858.5)" s:width="30" s:height="20" id="cell_\253">
    <s:alias val="$_NOT_"/>
    <s:alias val="$not"/>
    <s:alias val="$logic_not"/>
    <path d="M0,0 L0,20 L20,10 Z" class="cell_\253 fill-1"/>
    <circle cx="24" cy="10" r="3" class="cell_\253 fill-3"/>
    <g s:x="-1" s:y="10" s:pid="A"/>
    <g s:x="27" s:y="10" s:pid="Y"/>
  </g>
  <g s:type="and" transform="translate(1176,806)" s:width="30" s:height="25" id="cell_\254">
    <s:alias val="$and"/>
    <s:alias val="$logic_and"/>
    <s:alias val="$_AND_"/>
    <s:alias val="$reduce_and"/>
    <path d="M0,0 L0,25 L15,25 A15 12.5 0 0 0 15,0 Z" class="cell_\254 fill-1"/>
    <g s:x="0" s:y="5" s:pid="A"/>
    <g s:x="0" s:y="20" s:pid="B"/>
    <g s:x="30" s:y="12.5" s:pid="Y"/>
  </g>
  <g s:type="and" transform="translate(887,390.5)" s:width="30" s:height="25" id="cell_\255">
    <s:alias val="$and"/>
    <s:alias val="$logic_and"/>
    <s:alias val="$_AND_"/>
    <s:alias val="$reduce_and"/>
    <path d="M0,0 L0,25 L15,25 A15 12.5 0 0 0 15,0 Z" class="cell_\255 fill-1"/>
    <g s:x="0" s:y="5" s:pid="A"/>
    <g s:x="0" s:y="20" s:pid="B"/>
    <g s:x="30" s:y="12.5" s:pid="Y"/>
  </g>
  <g s:type="and" transform="translate(1045,398)" s:width="30" s:height="25" id="cell_\256">
    <s:alias val="$and"/>
    <s:alias val="$logic_and"/>
    <s:alias val="$_AND_"/>
    <s:alias val="$reduce_and"/>
    <path d="M0,0 L0,25 L15,25 A15 12.5 0 0 0 15,0 Z" class="cell_\256 fill-1"/>
    <g s:x="0" s:y="5" s:pid="A"/>
    <g s:x="0" s:y="20" s:pid="B"/>
    <g s:x="30" s:y="12.5" s:pid="Y"/>
  </g>
  <g s:type="and" transform="translate(1045,24.5)" s:width="30" s:height="25" id="cell_\257">
    <s:alias val="$and"/>
    <s:alias val="$logic_and"/>
    <s:alias val="$_AND_"/>
    <s:alias val="$reduce_and"/>
    <path d="M0,0 L0,25 L15,25 A15 12.5 0 0 0 15,0 Z" class="cell_\257 fill-1"/>
    <g s:x="0" s:y="5" s:pid="A"/>
    <g s:x="0" s:y="20" s:pid="B"/>
    <g s:x="30" s:y="12.5" s:pid="Y"/>
  </g>
  <g s:type="and" transform="translate(1110.6666666666667,32)" s:width="30" s:height="25" id="cell_\258">
    <s:alias val="$and"/>
    <s:alias val="$logic_and"/>
    <s:alias val="$_AND_"/>
    <s:alias val="$reduce_and"/>
    <path d="M0,0 L0,25 L15,25 A15 12.5 0 0 0 15,0 Z" class="cell_\258 fill-1"/>
    <g s:x="0" s:y="5" s:pid="A"/>
    <g s:x="0" s:y="20" s:pid="B"/>
    <g s:x="30" s:y="12.5" s:pid="Y"/>
  </g>
  <g s:type="not" transform="translate(1111,400.5)" s:width="30" s:height="20" id="cell_\260">
    <s:alias val="$_NOT_"/>
    <s:alias val="$not"/>
    <s:alias val="$logic_not"/>
    <path d="M0,0 L0,20 L20,10 Z" class="cell_\260 fill-1"/>
    <circle cx="24" cy="10" r="3" class="cell_\260 fill-3"/>
    <g s:x="-1" s:y="10" s:pid="A"/>
    <g s:x="27" s:y="10" s:pid="Y"/>
  </g>
  <g s:type="and" transform="translate(1176,39.5)" s:width="30" s:height="25" id="cell_\261">
    <s:alias val="$and"/>
    <s:alias val="$logic_and"/>
    <s:alias val="$_AND_"/>
    <s:alias val="$reduce_and"/>
    <path d="M0,0 L0,25 L15,25 A15 12.5 0 0 0 15,0 Z" class="cell_\261 fill-1"/>
    <g s:x="0" s:y="5" s:pid="A"/>
    <g s:x="0" s:y="20" s:pid="B"/>
    <g s:x="30" s:y="12.5" s:pid="Y"/>
  </g>
  <g s:type="and" transform="translate(485,806)" s:width="30" s:height="25" id="cell_\42">
    <s:alias val="$and"/>
    <s:alias val="$logic_and"/>
    <s:alias val="$_AND_"/>
    <s:alias val="$reduce_and"/>
    <path d="M0,0 L0,25 L15,25 A15 12.5 0 0 0 15,0 Z" class="cell_\42 fill-1"/>
    <g s:x="0" s:y="5" s:pid="A"/>
    <g s:x="0" s:y="20" s:pid="B"/>
    <g s:x="30" s:y="12.5" s:pid="Y"/>
  </g>
  <g s:type="and" transform="translate(550,798.5)" s:width="30" s:height="25" id="cell_\43">
    <s:alias val="$and"/>
    <s:alias val="$logic_and"/>
    <s:alias val="$_AND_"/>
    <s:alias val="$reduce_and"/>
    <path d="M0,0 L0,25 L15,25 A15 12.5 0 0 0 15,0 Z" class="cell_\43 fill-1"/>
    <g s:x="0" s:y="5" s:pid="A"/>
    <g s:x="0" s:y="20" s:pid="B"/>
    <g s:x="30" s:y="12.5" s:pid="Y"/>
  </g>
  <g s:type="and" transform="translate(661,746)" s:width="30" s:height="25" id="cell_\44">
    <s:alias val="$and"/>
    <s:alias val="$logic_and"/>
    <s:alias val="$_AND_"/>
    <s:alias val="$reduce_and"/>
    <path d="M0,0 L0,25 L15,25 A15 12.5 0 0 0 15,0 Z" class="cell_\44 fill-1"/>
    <g s:x="0" s:y="5" s:pid="A"/>
    <g s:x="0" s:y="20" s:pid="B"/>
    <g s:x="30" s:y="12.5" s:pid="Y"/>
  </g>
  <g s:type="reduce_nxor" transform="translate(258,142.5)" s:width="33" s:height="25" id="cell_\51">
    <s:alias val="$xnor"/>
    <s:alias val="$reduce_xnor"/>
    <s:alias val="$_XNOR_"/>
    <path d="M3,0 A30 25 0 0 1 3,25 A30 25 0 0 0 33,12.5 A30 25 0 0 0 3,0" class="cell_\51 fill-1"/>
    <path d="M0,0 A30 25 0 0 1 0,25" class="cell_\51"/>
    <circle cx="36" cy="12.5" r="3" class="cell_\51 fill-3"/>
    <g s:x="2" s:y="5" s:pid="A"/>
    <g s:x="2" s:y="20" s:pid="B"/>
    <g s:x="38" s:y="12.5" s:pid="Y"/>
  </g>
  <g s:type="and" transform="translate(550,140)" s:width="30" s:height="25" id="cell_\64">
    <s:alias val="$and"/>
    <s:alias val="$logic_and"/>
    <s:alias val="$_AND_"/>
    <s:alias val="$reduce_and"/>
    <path d="M0,0 L0,25 L15,25 A15 12.5 0 0 0 15,0 Z" class="cell_\64 fill-1"/>
    <g s:x="0" s:y="5" s:pid="A"/>
    <g s:x="0" s:y="20" s:pid="B"/>
    <g s:x="30" s:y="12.5" s:pid="Y"/>
  </g>
  <g s:type="reduce_nxor" transform="translate(258,529)" s:width="33" s:height="25" id="cell_\8">
    <s:alias val="$xnor"/>
    <s:alias val="$reduce_xnor"/>
    <s:alias val="$_XNOR_"/>
    <path d="M3,0 A30 25 0 0 1 3,25 A30 25 0 0 0 33,12.5 A30 25 0 0 0 3,0" class="cell_\8 fill-1"/>
    <path d="M0,0 A30 25 0 0 1 0,25" class="cell_\8"/>
    <circle cx="36" cy="12.5" r="3" class="cell_\8 fill-3"/>
    <g s:x="2" s:y="5" s:pid="A"/>
    <g s:x="2" s:y="20" s:pid="B"/>
    <g s:x="38" s:y="12.5" s:pid="Y"/>
  </g>
  <g s:type="and" transform="translate(485,207.5)" s:width="30" s:height="25" id="cell_\85">
    <s:alias val="$and"/>
    <s:alias val="$logic_and"/>
    <s:alias val="$_AND_"/>
    <s:alias val="$reduce_and"/>
    <path d="M0,0 L0,25 L15,25 A15 12.5 0 0 0 15,0 Z" class="cell_\85 fill-1"/>
    <g s:x="0" s:y="5" s:pid="A"/>
    <g s:x="0" s:y="20" s:pid="B"/>
    <g s:x="30" s:y="12.5" s:pid="Y"/>
  </g>
  <g s:type="and" transform="translate(550,200)" s:width="30" s:height="25" id="cell_\86">
    <s:alias val="$and"/>
    <s:alias val="$logic_and"/>
    <s:alias val="$_AND_"/>
    <s:alias val="$reduce_and"/>
    <path d="M0,0 L0,25 L15,25 A15 12.5 0 0 0 15,0 Z" class="cell_\86 fill-1"/>
    <g s:x="0" s:y="5" s:pid="A"/>
    <g s:x="0" s:y="20" s:pid="B"/>
    <g s:x="30" s:y="12.5" s:pid="Y"/>
  </g>
  <g s:type="and" transform="translate(661,147.5)" s:width="30" s:height="25" id="cell_\87">
    <s:alias val="$and"/>
    <s:alias val="$logic_and"/>
    <s:alias val="$_AND_"/>
    <s:alias val="$reduce_and"/>
    <path d="M0,0 L0,25 L15,25 A15 12.5 0 0 0 15,0 Z" class="cell_\87 fill-1"/>
    <g s:x="0" s:y="5" s:pid="A"/>
    <g s:x="0" s:y="20" s:pid="B"/>
    <g s:x="30" s:y="12.5" s:pid="Y"/>
  </g>
  <g s:type="reduce_nxor" transform="translate(412,625.5)" s:width="33" s:height="25" id="cell_\94">
    <s:alias val="$xnor"/>
    <s:alias val="$reduce_xnor"/>
    <s:alias val="$_XNOR_"/>
    <path d="M3,0 A30 25 0 0 1 3,25 A30 25 0 0 0 33,12.5 A30 25 0 0 0 3,0" class="cell_\94 fill-1"/>
    <path d="M0,0 A30 25 0 0 1 0,25" class="cell_\94"/>
    <circle cx="36" cy="12.5" r="3" class="cell_\94 fill-3"/>
    <g s:x="2" s:y="5" s:pid="A"/>
    <g s:x="2" s:y="20" s:pid="B"/>
    <g s:x="38" s:y="12.5" s:pid="Y"/>
  </g>
  <g s:type="inputExt" transform="translate(12,524)" s:width="30" s:height="20" id="cell_stage_ex_select_source_1">
    <text x="15" y="-4" class="nodelabel text-1 cell_stage_ex_select_source_1" s:attribute="ref">stage_ex_select_source_1</text>
    <s:alias val="$_inputExt_"/>
    <path d="M0,0 L0,20 L15,20 L30,10 L15,0 Z" class="cell_stage_ex_select_source_1 fill-4"/>
    <g s:x="30" s:y="10" s:pid="Y"/>
  </g>
  <g s:type="inputExt" transform="translate(12,22)" s:width="30" s:height="20" id="cell_stage_ex_select_source_2">
    <text x="15" y="-4" class="nodelabel text-1 cell_stage_ex_select_source_2" s:attribute="ref">stage_ex_select_source_2</text>
    <s:alias val="$_inputExt_"/>
    <path d="M0,0 L0,20 L15,20 L30,10 L15,0 Z" class="cell_stage_ex_select_source_2 fill-4"/>
    <g s:x="30" s:y="10" s:pid="Y"/>
  </g>
  <g s:type="inputExt" transform="translate(615,385.5)" s:width="30" s:height="20" id="cell_stage_mem_enable_destination">
    <text x="15" y="-4" class="nodelabel text-1 cell_stage_mem_enable_destination" s:attribute="ref">stage_mem_enable_destination</text>
    <s:alias val="$_inputExt_"/>
    <path d="M0,0 L0,20 L15,20 L30,10 L15,0 Z" class="cell_stage_mem_enable_destination fill-4"/>
    <g s:x="30" s:y="10" s:pid="Y"/>
  </g>
  <g s:type="inputExt" transform="translate(12,152.5)" s:width="30" s:height="20" id="cell_stage_mem_select_destination">
    <text x="15" y="-4" class="nodelabel text-1 cell_stage_mem_select_destination" s:attribute="ref">stage_mem_select_destination</text>
    <s:alias val="$_inputExt_"/>
    <path d="M0,0 L0,20 L15,20 L30,10 L15,0 Z" class="cell_stage_mem_select_destination fill-4"/>
    <g s:x="30" s:y="10" s:pid="Y"/>
  </g>
  <g s:type="inputExt" transform="translate(843,335.5)" s:width="30" s:height="20" id="cell_stage_wb_enable_destination">
    <text x="15" y="-4" class="nodelabel text-1 cell_stage_wb_enable_destination" s:attribute="ref">stage_wb_enable_destination</text>
    <s:alias val="$_inputExt_"/>
    <path d="M0,0 L0,20 L15,20 L30,10 L15,0 Z" class="cell_stage_wb_enable_destination fill-4"/>
    <g s:x="30" s:y="10" s:pid="Y"/>
  </g>
  <g s:type="inputExt" transform="translate(215,270.5)" s:width="30" s:height="20" id="cell_stage_wb_select_destination">
    <text x="15" y="-4" class="nodelabel text-1 cell_stage_wb_select_destination" s:attribute="ref">stage_wb_select_destination</text>
    <s:alias val="$_inputExt_"/>
    <path d="M0,0 L0,20 L15,20 L30,10 L15,0 Z" class="cell_stage_wb_select_destination fill-4"/>
    <g s:x="30" s:y="10" s:pid="Y"/>
  </g>
  <g s:type="outputExt" transform="translate(1289,818.5)" s:width="30" s:height="20" id="cell_select_source_1">
    <text x="15" y="-4" class="nodelabel text-1 cell_select_source_1" s:attribute="ref">select_source_1</text>
    <s:alias val="$_outputExt_"/>
    <path d="M30,0 L30,20 L15,20 L0,10 L15,0 Z" class="cell_select_source_1 fill-4"/>
    <g s:x="0" s:y="10" s:pid="A"/>
  </g>
  <g s:type="outputExt" transform="translate(1289,52)" s:width="30" s:height="20" id="cell_select_source_2">
    <text x="15" y="-4" class="nodelabel text-1 cell_select_source_2" s:attribute="ref">select_source_2</text>
    <s:alias val="$_outputExt_"/>
    <path d="M30,0 L30,20 L15,20 L0,10 L15,0 Z" class="cell_select_source_2 fill-4"/>
    <g s:x="0" s:y="10" s:pid="A"/>
  </g>
  <g s:type="join" transform="translate(1248,808)" s:width="4" s:height="40" id="cell_$join$,24,25,">
    <rect width="5" height="40" class="splitjoinBody" s:generic="body"/>
    <s:alias val="$_join_"/>
    <g s:x="5" s:y="20" s:pid="out"/>
    <g transform="translate(0,10)" s:x="0" s:y="10" s:pid="in0">
      <text x="-3" y="-4" class="inputPortLabel text-2">0</text>
    </g>
    <g transform="translate(0,30)" s:x="0" s:y="10" s:pid="in0">
      <text x="-3" y="-4" class="inputPortLabel text-2">1</text>
    </g>
  </g>
  <g s:type="join" transform="translate(1248,41.5)" s:width="4" s:height="40" id="cell_$join$,26,27,">
    <rect width="5" height="40" class="splitjoinBody" s:generic="body"/>
    <s:alias val="$_join_"/>
    <g s:x="5" s:y="20" s:pid="out"/>
    <g transform="translate(0,10)" s:x="0" s:y="10" s:pid="in0">
      <text x="-3" y="-4" class="inputPortLabel text-2">0</text>
    </g>
    <g transform="translate(0,30)" s:x="0" s:y="10" s:pid="in0">
      <text x="-3" y="-4" class="inputPortLabel text-2">1</text>
    </g>
  </g>
  <g s:type="split" transform="translate(500.8,617.5)" s:width="5" s:height="40" id="cell_$split$,31,32,34,28,29,">
    <rect width="5" height="100" class="splitjoinBody" s:generic="body"/>
    <s:alias val="$_split_"/>
    <g s:x="0" s:y="20" s:pid="in"/>
    <g transform="translate(4,10)" s:x="4" s:y="10" s:pid="out0">
      <text x="5" y="-4" class="text-2">3</text>
    </g>
    <g transform="translate(4,30)" s:x="4" s:y="10" s:pid="out0">
      <text x="5" y="-4" class="text-2">4</text>
    </g>
    <g transform="translate(4,50)" s:x="4" s:y="10" s:pid="out0">
      <text x="5" y="-4" class="text-2">0</text>
    </g>
    <g transform="translate(4,70)" s:x="4" s:y="10" s:pid="out0">
      <text x="5" y="-4" class="text-2">1</text>
    </g>
    <g transform="translate(4,90)" s:x="4" s:y="10" s:pid="out0">
      <text x="5" y="-4" class="text-2">2</text>
    </g>
  </g>
  <g s:type="split" transform="translate(500.8,19)" s:width="5" s:height="40" id="cell_$split$,37,38,39,40,41,">
    <rect width="5" height="100" class="splitjoinBody" s:generic="body"/>
    <s:alias val="$_split_"/>
    <g s:x="0" s:y="20" s:pid="in"/>
    <g transform="translate(4,10)" s:x="4" s:y="10" s:pid="out0">
      <text x="5" y="-4" class="text-2">3</text>
    </g>
    <g transform="translate(4,30)" s:x="4" s:y="10" s:pid="out0">
      <text x="5" y="-4" class="text-2">4</text>
    </g>
    <g transform="translate(4,50)" s:x="4" s:y="10" s:pid="out0">
      <text x="5" y="-4" class="text-2">0</text>
    </g>
    <g transform="translate(4,70)" s:x="4" s:y="10" s:pid="out0">
      <text x="5" y="-4" class="text-2">1</text>
    </g>
    <g transform="translate(4,90)" s:x="4" s:y="10" s:pid="out0">
      <text x="5" y="-4" class="text-2">2</text>
    </g>
  </g>
  <g s:type="split" transform="translate(500.8,497.5)" s:width="5" s:height="40" id="cell_$split$,13,14,15,16,17,">
    <rect width="5" height="100" class="splitjoinBody" s:generic="body"/>
    <s:alias val="$_split_"/>
    <g s:x="0" s:y="20" s:pid="in"/>
    <g transform="translate(4,10)" s:x="4" s:y="10" s:pid="out0">
      <text x="5" y="-4" class="text-2">3</text>
    </g>
    <g transform="translate(4,30)" s:x="4" s:y="10" s:pid="out0">
      <text x="5" y="-4" class="text-2">4</text>
    </g>
    <g transform="translate(4,50)" s:x="4" s:y="10" s:pid="out0">
      <text x="5" y="-4" class="text-2">0</text>
    </g>
    <g transform="translate(4,70)" s:x="4" s:y="10" s:pid="out0">
      <text x="5" y="-4" class="text-2">1</text>
    </g>
    <g transform="translate(4,90)" s:x="4" s:y="10" s:pid="out0">
      <text x="5" y="-4" class="text-2">2</text>
    </g>
  </g>
  <g s:type="split" transform="translate(434.2,733)" s:width="5" s:height="40" id="cell_$split$,67,68,70,49,50,">
    <rect width="5" height="100" class="splitjoinBody" s:generic="body"/>
    <s:alias val="$_split_"/>
    <g s:x="0" s:y="20" s:pid="in"/>
    <g transform="translate(4,10)" s:x="4" s:y="10" s:pid="out0">
      <text x="5" y="-4" class="text-2">3</text>
    </g>
    <g transform="translate(4,30)" s:x="4" s:y="10" s:pid="out0">
      <text x="5" y="-4" class="text-2">4</text>
    </g>
    <g transform="translate(4,50)" s:x="4" s:y="10" s:pid="out0">
      <text x="5" y="-4" class="text-2">0</text>
    </g>
    <g transform="translate(4,70)" s:x="4" s:y="10" s:pid="out0">
      <text x="5" y="-4" class="text-2">1</text>
    </g>
    <g transform="translate(4,90)" s:x="4" s:y="10" s:pid="out0">
      <text x="5" y="-4" class="text-2">2</text>
    </g>
  </g>
  <g s:type="split" transform="translate(565.8,260)" s:width="5" s:height="40" id="cell_$split$,19,20,21,22,23,">
    <rect width="5" height="100" class="splitjoinBody" s:generic="body"/>
    <s:alias val="$_split_"/>
    <g s:x="0" s:y="20" s:pid="in"/>
    <g transform="translate(4,10)" s:x="4" s:y="10" s:pid="out0">
      <text x="5" y="-4" class="text-2">3</text>
    </g>
    <g transform="translate(4,30)" s:x="4" s:y="10" s:pid="out0">
      <text x="5" y="-4" class="text-2">4</text>
    </g>
    <g transform="translate(4,50)" s:x="4" s:y="10" s:pid="out0">
      <text x="5" y="-4" class="text-2">0</text>
    </g>
    <g transform="translate(4,70)" s:x="4" s:y="10" s:pid="out0">
      <text x="5" y="-4" class="text-2">1</text>
    </g>
    <g transform="translate(4,90)" s:x="4" s:y="10" s:pid="out0">
      <text x="5" y="-4" class="text-2">2</text>
    </g>
  </g>
  <g s:type="split" transform="translate(434.2,134.5)" s:width="5" s:height="40" id="cell_$split$,72,73,74,75,76,">
    <rect width="5" height="100" class="splitjoinBody" s:generic="body"/>
    <s:alias val="$_split_"/>
    <g s:x="0" s:y="20" s:pid="in"/>
    <g transform="translate(4,10)" s:x="4" s:y="10" s:pid="out0">
      <text x="5" y="-4" class="text-2">3</text>
    </g>
    <g transform="translate(4,30)" s:x="4" s:y="10" s:pid="out0">
      <text x="5" y="-4" class="text-2">4</text>
    </g>
    <g transform="translate(4,50)" s:x="4" s:y="10" s:pid="out0">
      <text x="5" y="-4" class="text-2">0</text>
    </g>
    <g transform="translate(4,70)" s:x="4" s:y="10" s:pid="out0">
      <text x="5" y="-4" class="text-2">1</text>
    </g>
    <g transform="translate(4,90)" s:x="4" s:y="10" s:pid="out0">
      <text x="5" y="-4" class="text-2">2</text>
    </g>
  </g>
  <line x1="505.8" x2="661" y1="628" y2="628" class="net_28"/>
  <line x1="505.8" x2="590" y1="648" y2="648" class="net_29"/>
  <line x1="590" x2="590" y1="648" y2="643" class="net_29"/>
  <line x1="590" x2="661" y1="643" y2="643" class="net_29"/>
  <line x1="505.8" x2="535" y1="668" y2="668" class="net_31"/>
  <line x1="535" x2="535" y1="668" y2="695.5" class="net_31"/>
  <line x1="535" x2="550" y1="695.5" y2="695.5" class="net_31"/>
  <line x1="505.8" x2="525" y1="688" y2="688" class="net_32"/>
  <line x1="525" x2="525" y1="688" y2="710.5" class="net_32"/>
  <line x1="525" x2="550" y1="710.5" y2="710.5" class="net_32"/>
  <line x1="505.3" x2="505.3" y1="708.5" y2="727.5" class="net_34"/>
  <line x1="505.3" x2="590" y1="727.5" y2="727.5" class="net_34"/>
  <line x1="590" x2="590" y1="727.5" y2="688" class="net_34"/>
  <line x1="590" x2="661" y1="688" y2="688" class="net_34"/>
  <line x1="580" x2="661" y1="703" y2="703" class="net_33"/>
  <line x1="691" x2="803" y1="635.5" y2="635.5" class="net_30"/>
  <line x1="803" x2="803" y1="635.5" y2="803.5" class="net_30"/>
  <line x1="803" x2="887" y1="803.5" y2="803.5" class="net_30"/>
  <line x1="691" x2="793" y1="695.5" y2="695.5" class="net_35"/>
  <line x1="793" x2="793" y1="695.5" y2="818.5" class="net_35"/>
  <line x1="793" x2="887" y1="818.5" y2="818.5" class="net_35"/>
  <line x1="42" x2="414" y1="32" y2="32" class="net_7,8,9,10,11"/>
  <line x1="42" x2="190" y1="32" y2="32" class="net_7,8,9,10,11"/>
  <line x1="190" x2="190" y1="32" y2="147.5" class="net_7,8,9,10,11"/>
  <circle cx="190" cy="32" r="2" style="fill:#000" class="net_7,8,9,10,11"/>
  <line x1="190" x2="260" y1="147.5" y2="147.5" class="net_7,8,9,10,11"/>
  <line x1="245" x2="397" y1="280.5" y2="280.5" class="net_19,20,21,22,23"/>
  <line x1="397" x2="397" y1="280.5" y2="47" class="net_19,20,21,22,23"/>
  <circle cx="397" cy="280.5" r="2" style="fill:#000" class="net_19,20,21,22,23"/>
  <line x1="397" x2="414" y1="47" y2="47" class="net_19,20,21,22,23"/>
  <line x1="245" x2="397" y1="280.5" y2="280.5" class="net_19,20,21,22,23"/>
  <line x1="397" x2="397" y1="280.5" y2="645.5" class="net_19,20,21,22,23"/>
  <line x1="397" x2="414" y1="645.5" y2="645.5" class="net_19,20,21,22,23"/>
  <line x1="245" x2="565.8" y1="280.5" y2="280.5" class="net_19,20,21,22,23"/>
  <line x1="505.8" x2="661" y1="29.5" y2="29.5" class="net_40"/>
  <line x1="505.8" x2="590" y1="49.5" y2="49.5" class="net_41"/>
  <line x1="590" x2="590" y1="49.5" y2="44.5" class="net_41"/>
  <line x1="590" x2="661" y1="44.5" y2="44.5" class="net_41"/>
  <line x1="505.8" x2="535" y1="69.5" y2="69.5" class="net_37"/>
  <line x1="535" x2="535" y1="69.5" y2="97" class="net_37"/>
  <line x1="535" x2="550" y1="97" y2="97" class="net_37"/>
  <line x1="505.8" x2="525" y1="89.5" y2="89.5" class="net_38"/>
  <line x1="525" x2="525" y1="89.5" y2="112" class="net_38"/>
  <line x1="525" x2="550" y1="112" y2="112" class="net_38"/>
  <line x1="505.3" x2="505.3" y1="110" y2="129" class="net_39"/>
  <line x1="505.3" x2="590" y1="129" y2="129" class="net_39"/>
  <line x1="590" x2="590" y1="129" y2="89.5" class="net_39"/>
  <line x1="590" x2="661" y1="89.5" y2="89.5" class="net_39"/>
  <line x1="580" x2="661" y1="104.5" y2="104.5" class="net_43"/>
  <line x1="691" x2="887" y1="37" y2="37" class="net_42"/>
  <line x1="691" x2="793" y1="97" y2="97" class="net_44"/>
  <line x1="793" x2="793" y1="97" y2="52" class="net_44"/>
  <line x1="793" x2="887" y1="52" y2="52" class="net_44"/>
  <line x1="505.8" x2="663" y1="508" y2="508" class="net_16"/>
  <line x1="505.8" x2="590" y1="528" y2="528" class="net_17"/>
  <line x1="590" x2="590" y1="528" y2="523" class="net_17"/>
  <line x1="590" x2="663" y1="523" y2="523" class="net_17"/>
  <line x1="505.8" x2="535" y1="548" y2="548" class="net_13"/>
  <line x1="535" x2="535" y1="548" y2="575.5" class="net_13"/>
  <line x1="535" x2="552" y1="575.5" y2="575.5" class="net_13"/>
  <line x1="505.8" x2="525" y1="568" y2="568" class="net_14"/>
  <line x1="525" x2="525" y1="568" y2="590.5" class="net_14"/>
  <line x1="525" x2="552" y1="590.5" y2="590.5" class="net_14"/>
  <line x1="505.3" x2="505.3" y1="588.5" y2="607.5" class="net_15"/>
  <line x1="505.3" x2="590" y1="607.5" y2="607.5" class="net_15"/>
  <line x1="590" x2="590" y1="607.5" y2="568" class="net_15"/>
  <line x1="590" x2="663" y1="568" y2="568" class="net_15"/>
  <line x1="580" x2="663" y1="583" y2="583" class="net_47"/>
  <line x1="439.2" x2="550" y1="743.5" y2="743.5" class="net_49"/>
  <line x1="439.2" x2="525" y1="763.5" y2="763.5" class="net_50"/>
  <line x1="525" x2="525" y1="763.5" y2="758.5" class="net_50"/>
  <line x1="525" x2="550" y1="758.5" y2="758.5" class="net_50"/>
  <line x1="691" x2="889" y1="515.5" y2="515.5" class="net_46"/>
  <line x1="691" x2="823" y1="575.5" y2="575.5" class="net_48"/>
  <line x1="823" x2="823" y1="575.5" y2="530.5" class="net_48"/>
  <line x1="823" x2="889" y1="530.5" y2="530.5" class="net_48"/>
  <line x1="570.8" x2="889" y1="270.5" y2="270.5" class="net_22"/>
  <line x1="570.8" x2="793" y1="290.5" y2="290.5" class="net_23"/>
  <line x1="793" x2="793" y1="290.5" y2="285.5" class="net_23"/>
  <line x1="793" x2="889" y1="285.5" y2="285.5" class="net_23"/>
  <line x1="570.8" x2="590" y1="310.5" y2="310.5" class="net_19"/>
  <line x1="590" x2="590" y1="310.5" y2="315.5" class="net_19"/>
  <line x1="590" x2="663" y1="315.5" y2="315.5" class="net_19"/>
  <line x1="570.8" x2="663" y1="330.5" y2="330.5" class="net_20"/>
  <line x1="570.3" x2="570.3" y1="351" y2="455.5" class="net_21"/>
  <line x1="570.3" x2="889" y1="455.5" y2="455.5" class="net_21"/>
  <line x1="691" x2="823" y1="323" y2="323" class="net_54"/>
  <line x1="823" x2="823" y1="323" y2="470.5" class="net_54"/>
  <line x1="823" x2="889" y1="470.5" y2="470.5" class="net_54"/>
  <line x1="917" x2="1047" y1="278" y2="278" class="net_53"/>
  <line x1="917" x2="1015" y1="463" y2="463" class="net_55"/>
  <line x1="1015" x2="1015" y1="463" y2="293" class="net_55"/>
  <line x1="1015" x2="1047" y1="293" y2="293" class="net_55"/>
  <line x1="645" x2="813" y1="395.5" y2="395.5" class="net_12"/>
  <line x1="813" x2="813" y1="395.5" y2="743.5" class="net_12"/>
  <circle cx="813" cy="395.5" r="2" style="fill:#000" class="net_12"/>
  <line x1="813" x2="887" y1="743.5" y2="743.5" class="net_12"/>
  <line x1="645" x2="887" y1="395.5" y2="395.5" class="net_12"/>
  <line x1="691" x2="887" y1="758.5" y2="758.5" class="net_57"/>
  <line x1="917" x2="1015" y1="751" y2="751" class="net_58"/>
  <line x1="1015" x2="1015" y1="751" y2="861" class="net_58"/>
  <line x1="1015" x2="1045" y1="861" y2="861" class="net_58"/>
  <line x1="917" x2="1025" y1="523" y2="523" class="net_52"/>
  <line x1="1025" x2="1025" y1="523" y2="876" class="net_52"/>
  <circle cx="1025" cy="523" r="2" style="fill:#000" class="net_52"/>
  <line x1="1025" x2="1045" y1="876" y2="876" class="net_52"/>
  <line x1="917" x2="1025" y1="523" y2="523" class="net_52"/>
  <line x1="1025" x2="1025" y1="523" y2="418" class="net_52"/>
  <line x1="1025" x2="1045" y1="418" y2="418" class="net_52"/>
  <line x1="873" x2="1035" y1="345.5" y2="345.5" class="net_18"/>
  <line x1="1035" x2="1035" y1="345.5" y2="796" class="net_18"/>
  <circle cx="1035" cy="345.5" r="2" style="fill:#000" class="net_18"/>
  <line x1="1035" x2="1045" y1="796" y2="796" class="net_18"/>
  <line x1="873" x2="1035" y1="345.5" y2="345.5" class="net_18"/>
  <line x1="1035" x2="1035" y1="345.5" y2="29.5" class="net_18"/>
  <line x1="1035" x2="1045" y1="29.5" y2="29.5" class="net_18"/>
  <line x1="917" x2="1045" y1="811" y2="811" class="net_36"/>
  <line x1="1075" x2="1110.6666666666667" y1="803.5" y2="803.5" class="net_59"/>
  <line x1="1075" x2="1085" y1="285.5" y2="285.5" class="net_56"/>
  <line x1="1085" x2="1085" y1="285.5" y2="818.5" class="net_56"/>
  <circle cx="1085" cy="285.5" r="2" style="fill:#000" class="net_56"/>
  <line x1="1085" x2="1110.6666666666667" y1="818.5" y2="818.5" class="net_56"/>
  <line x1="1075" x2="1085" y1="285.5" y2="285.5" class="net_56"/>
  <line x1="1085" x2="1085" y1="285.5" y2="52" class="net_56"/>
  <line x1="1085" x2="1110.6666666666667" y1="52" y2="52" class="net_56"/>
  <line x1="1075" x2="1110" y1="868.5" y2="868.5" class="net_25"/>
  <line x1="1075" x2="1085" y1="868.5" y2="868.5" class="net_25"/>
  <line x1="1085" x2="1085" y1="868.5" y2="888.5" class="net_25"/>
  <line x1="1085" x2="1216" y1="888.5" y2="888.5" class="net_25"/>
  <line x1="1216" x2="1216" y1="888.5" y2="838.5" class="net_25"/>
  <circle cx="1085" cy="868.5" r="2" style="fill:#000" class="net_25"/>
  <line x1="1216" x2="1248" y1="838.5" y2="838.5" class="net_25"/>
  <line x1="1140.6666666666667" x2="1176" y1="811" y2="811" class="net_60"/>
  <line x1="1138" x2="1151" y1="868.5" y2="868.5" class="net_61"/>
  <line x1="1151" x2="1151" y1="868.5" y2="826" class="net_61"/>
  <line x1="1151" x2="1176" y1="826" y2="826" class="net_61"/>
  <line x1="691" x2="833" y1="160" y2="160" class="net_62"/>
  <line x1="833" x2="833" y1="160" y2="410.5" class="net_62"/>
  <line x1="833" x2="887" y1="410.5" y2="410.5" class="net_62"/>
  <line x1="917" x2="1045" y1="403" y2="403" class="net_63"/>
  <line x1="917" x2="1045" y1="44.5" y2="44.5" class="net_45"/>
  <line x1="1075" x2="1110.6666666666667" y1="37" y2="37" class="net_64"/>
  <line x1="1075" x2="1110" y1="410.5" y2="410.5" class="net_27"/>
  <line x1="1075" x2="1095" y1="410.5" y2="410.5" class="net_27"/>
  <line x1="1095" x2="1095" y1="410.5" y2="430.5" class="net_27"/>
  <line x1="1095" x2="1216" y1="430.5" y2="430.5" class="net_27"/>
  <line x1="1216" x2="1216" y1="430.5" y2="72" class="net_27"/>
  <circle cx="1095" cy="410.5" r="2" style="fill:#000" class="net_27"/>
  <line x1="1216" x2="1248" y1="72" y2="72" class="net_27"/>
  <line x1="1140.6666666666667" x2="1176" y1="44.5" y2="44.5" class="net_65"/>
  <line x1="1138" x2="1151" y1="410.5" y2="410.5" class="net_66"/>
  <line x1="1151" x2="1151" y1="410.5" y2="59.5" class="net_66"/>
  <line x1="1151" x2="1176" y1="59.5" y2="59.5" class="net_66"/>
  <line x1="439.2" x2="470" y1="783.5" y2="783.5" class="net_67"/>
  <line x1="470" x2="470" y1="783.5" y2="811" class="net_67"/>
  <line x1="470" x2="485" y1="811" y2="811" class="net_67"/>
  <line x1="439.2" x2="460" y1="803.5" y2="803.5" class="net_68"/>
  <line x1="460" x2="460" y1="803.5" y2="826" class="net_68"/>
  <line x1="460" x2="485" y1="826" y2="826" class="net_68"/>
  <line x1="438.7" x2="438.7" y1="824" y2="843" class="net_70"/>
  <line x1="438.7" x2="525" y1="843" y2="843" class="net_70"/>
  <line x1="525" x2="525" y1="843" y2="803.5" class="net_70"/>
  <line x1="525" x2="550" y1="803.5" y2="803.5" class="net_70"/>
  <line x1="515" x2="550" y1="818.5" y2="818.5" class="net_69"/>
  <line x1="580" x2="661" y1="751" y2="751" class="net_51"/>
  <line x1="580" x2="590" y1="811" y2="811" class="net_71"/>
  <line x1="590" x2="590" y1="811" y2="766" class="net_71"/>
  <line x1="590" x2="661" y1="766" y2="766" class="net_71"/>
  <line x1="42" x2="260" y1="162.5" y2="162.5" class="net_13,14,15,16,17"/>
  <line x1="42" x2="200" y1="162.5" y2="162.5" class="net_13,14,15,16,17"/>
  <line x1="200" x2="200" y1="162.5" y2="549" class="net_13,14,15,16,17"/>
  <circle cx="200" cy="162.5" r="2" style="fill:#000" class="net_13,14,15,16,17"/>
  <line x1="200" x2="260" y1="549" y2="549" class="net_13,14,15,16,17"/>
  <line x1="42" x2="200" y1="162.5" y2="162.5" class="net_13,14,15,16,17"/>
  <line x1="200" x2="200" y1="162.5" y2="518" class="net_13,14,15,16,17"/>
  <circle cx="200" cy="518" r="2" style="fill:#000" class="net_13,14,15,16,17"/>
  <line x1="200" x2="500.8" y1="518" y2="518" class="net_13,14,15,16,17"/>
  <line x1="439.2" x2="550" y1="145" y2="145" class="net_75"/>
  <line x1="439.2" x2="525" y1="165" y2="165" class="net_76"/>
  <line x1="525" x2="525" y1="165" y2="160" class="net_76"/>
  <line x1="525" x2="550" y1="160" y2="160" class="net_76"/>
  <line x1="42" x2="260" y1="534" y2="534" class="net_2,3,4,5,6"/>
  <line x1="42" x2="190" y1="534" y2="534" class="net_2,3,4,5,6"/>
  <line x1="190" x2="190" y1="534" y2="630.5" class="net_2,3,4,5,6"/>
  <circle cx="190" cy="534" r="2" style="fill:#000" class="net_2,3,4,5,6"/>
  <line x1="190" x2="414" y1="630.5" y2="630.5" class="net_2,3,4,5,6"/>
  <line x1="439.2" x2="470" y1="185" y2="185" class="net_72"/>
  <line x1="470" x2="470" y1="185" y2="212.5" class="net_72"/>
  <line x1="470" x2="485" y1="212.5" y2="212.5" class="net_72"/>
  <line x1="439.2" x2="460" y1="205" y2="205" class="net_73"/>
  <line x1="460" x2="460" y1="205" y2="227.5" class="net_73"/>
  <line x1="460" x2="485" y1="227.5" y2="227.5" class="net_73"/>
  <line x1="438.7" x2="438.7" y1="225.5" y2="244.5" class="net_74"/>
  <line x1="438.7" x2="525" y1="244.5" y2="244.5" class="net_74"/>
  <line x1="525" x2="525" y1="244.5" y2="205" class="net_74"/>
  <line x1="525" x2="550" y1="205" y2="205" class="net_74"/>
  <line x1="515" x2="550" y1="220" y2="220" class="net_78"/>
  <line x1="580" x2="661" y1="152.5" y2="152.5" class="net_77"/>
  <line x1="580" x2="590" y1="212.5" y2="212.5" class="net_79"/>
  <line x1="590" x2="590" y1="212.5" y2="167.5" class="net_79"/>
  <line x1="590" x2="661" y1="167.5" y2="167.5" class="net_79"/>
  <line x1="1254" x2="1289" y1="828.5" y2="828.5" class="net_24,25"/>
  <line x1="1254" x2="1289" y1="62" y2="62" class="net_26,27"/>
  <line x1="1206" x2="1248" y1="818.5" y2="818.5" class="net_24"/>
  <line x1="1206" x2="1248" y1="52" y2="52" class="net_26"/>
  <line x1="450" x2="500.8" y1="638" y2="638" class="net_31,32,34,28,29"/>
  <line x1="450" x2="500.8" y1="39.5" y2="39.5" class="net_37,38,39,40,41"/>
  <line x1="296" x2="387" y1="541.5" y2="541.5" class="net_67,68,70,49,50"/>
  <line x1="387" x2="387" y1="541.5" y2="753.5" class="net_67,68,70,49,50"/>
  <line x1="387" x2="434.2" y1="753.5" y2="753.5" class="net_67,68,70,49,50"/>
  <line x1="296" x2="434.2" y1="155" y2="155" class="net_72,73,74,75,76"/>
</svg>
