<svg xmlns="http://www.w3.org/2000/svg" xmlns:xlink="http://www.w3.org/1999/xlink" xmlns:s="https://github.com/nturley/netlistsvg" width="901" height="425">
  <style>  svg {
      stroke: #011e41;
      fill: none;
    }
    text {
      fill:#ffffff;
      stroke:none;
      font-size:10px;
      font-weight: bold;
      font-family: "Courier New", monospace;
    }
    .fill-1 { fill: #003262; }
    .fill-2 { fill: #011e41; stroke: #003262; }
    .fill-3 { fill: #ffffff; }
    .fill-4 { fill: #003262; }
    .fill-5 { fill: #011e41; stroke: #fdda64; }
    .text-1 { fill: #fdb515; }
    .text-2 { fill: #003262; }
    .text-3 { stroke: #fdda64; }
    .nodelabel { text-anchor: middle; }
    .inputPortLabel { text-anchor: end; }
    .splitjoinBody { fill: #3c3c43; }</style>
  <g s:type="not" transform="translate(219,312.5)" s:width="30" s:height="20" id="cell_$auto$opt_expr cc:712:replace_const_cells$22">
    <s:alias val="$_NOT_"/>
    <s:alias val="$not"/>
    <s:alias val="$logic_not"/>
    <path d="M0,0 L0,20 L20,10 Z" class="cell_$auto$opt_expr cc:712:replace_const_cells$22 fill-1"/>
    <circle cx="24" cy="10" r="3" class="cell_$auto$opt_expr cc:712:replace_const_cells$22 fill-3"/>
    <g s:x="-1" s:y="10" s:pid="A"/>
    <g s:x="27" s:y="10" s:pid="Y"/>
  </g>
  <g s:type="and" transform="translate(400,309.5)" s:width="30" s:height="25" id="cell_\108">
    <s:alias val="$and"/>
    <s:alias val="$logic_and"/>
    <s:alias val="$_AND_"/>
    <s:alias val="$reduce_and"/>
    <path d="M0,0 L0,25 L15,25 A15 12.5 0 0 0 15,0 Z" class="cell_\108 fill-1"/>
    <g s:x="0" s:y="5" s:pid="A"/>
    <g s:x="0" s:y="20" s:pid="B"/>
    <g s:x="30" s:y="12.5" s:pid="Y"/>
  </g>
  <g s:type="and" transform="translate(335,377)" s:width="30" s:height="25" id="cell_\129">
    <s:alias val="$and"/>
    <s:alias val="$logic_and"/>
    <s:alias val="$_AND_"/>
    <s:alias val="$reduce_and"/>
    <path d="M0,0 L0,25 L15,25 A15 12.5 0 0 0 15,0 Z" class="cell_\129 fill-1"/>
    <g s:x="0" s:y="5" s:pid="A"/>
    <g s:x="0" s:y="20" s:pid="B"/>
    <g s:x="30" s:y="12.5" s:pid="Y"/>
  </g>
  <g s:type="and" transform="translate(400,369.5)" s:width="30" s:height="25" id="cell_\130">
    <s:alias val="$and"/>
    <s:alias val="$logic_and"/>
    <s:alias val="$_AND_"/>
    <s:alias val="$reduce_and"/>
    <path d="M0,0 L0,25 L15,25 A15 12.5 0 0 0 15,0 Z" class="cell_\130 fill-1"/>
    <g s:x="0" s:y="5" s:pid="A"/>
    <g s:x="0" s:y="20" s:pid="B"/>
    <g s:x="30" s:y="12.5" s:pid="Y"/>
  </g>
  <g s:type="and" transform="translate(511,317)" s:width="30" s:height="25" id="cell_\131">
    <s:alias val="$and"/>
    <s:alias val="$logic_and"/>
    <s:alias val="$_AND_"/>
    <s:alias val="$reduce_and"/>
    <path d="M0,0 L0,25 L15,25 A15 12.5 0 0 0 15,0 Z" class="cell_\131 fill-1"/>
    <g s:x="0" s:y="5" s:pid="A"/>
    <g s:x="0" s:y="20" s:pid="B"/>
    <g s:x="30" s:y="12.5" s:pid="Y"/>
  </g>
  <g s:type="and" transform="translate(668.6666666666666,27)" s:width="30" s:height="25" id="cell_\132">
    <s:alias val="$and"/>
    <s:alias val="$logic_and"/>
    <s:alias val="$_AND_"/>
    <s:alias val="$reduce_and"/>
    <path d="M0,0 L0,25 L15,25 A15 12.5 0 0 0 15,0 Z" class="cell_\132 fill-1"/>
    <g s:x="0" s:y="5" s:pid="A"/>
    <g s:x="0" s:y="20" s:pid="B"/>
    <g s:x="30" s:y="12.5" s:pid="Y"/>
  </g>
  <g s:type="not" transform="translate(669,319.5)" s:width="30" s:height="20" id="cell_\133">
    <s:alias val="$_NOT_"/>
    <s:alias val="$not"/>
    <s:alias val="$logic_not"/>
    <path d="M0,0 L0,20 L20,10 Z" class="cell_\133 fill-1"/>
    <circle cx="24" cy="10" r="3" class="cell_\133 fill-3"/>
    <g s:x="-1" s:y="10" s:pid="A"/>
    <g s:x="27" s:y="10" s:pid="Y"/>
  </g>
  <g s:type="and" transform="translate(734,34.5)" s:width="30" s:height="25" id="cell_\134">
    <s:alias val="$and"/>
    <s:alias val="$logic_and"/>
    <s:alias val="$_AND_"/>
    <s:alias val="$reduce_and"/>
    <path d="M0,0 L0,25 L15,25 A15 12.5 0 0 0 15,0 Z" class="cell_\134 fill-1"/>
    <g s:x="0" s:y="5" s:pid="A"/>
    <g s:x="0" s:y="20" s:pid="B"/>
    <g s:x="30" s:y="12.5" s:pid="Y"/>
  </g>
  <g s:type="and" transform="translate(668.6666666666666,189.5)" s:width="30" s:height="25" id="cell_\135">
    <s:alias val="$and"/>
    <s:alias val="$logic_and"/>
    <s:alias val="$_AND_"/>
    <s:alias val="$reduce_and"/>
    <path d="M0,0 L0,25 L15,25 A15 12.5 0 0 0 15,0 Z" class="cell_\135 fill-1"/>
    <g s:x="0" s:y="5" s:pid="A"/>
    <g s:x="0" s:y="20" s:pid="B"/>
    <g s:x="30" s:y="12.5" s:pid="Y"/>
  </g>
  <g s:type="and" transform="translate(734,197)" s:width="30" s:height="25" id="cell_\137">
    <s:alias val="$and"/>
    <s:alias val="$logic_and"/>
    <s:alias val="$_AND_"/>
    <s:alias val="$reduce_and"/>
    <path d="M0,0 L0,25 L15,25 A15 12.5 0 0 0 15,0 Z" class="cell_\137 fill-1"/>
    <g s:x="0" s:y="5" s:pid="A"/>
    <g s:x="0" s:y="20" s:pid="B"/>
    <g s:x="30" s:y="12.5" s:pid="Y"/>
  </g>
  <g s:type="and" transform="translate(400,69.5)" s:width="30" s:height="25" id="cell_\21">
    <s:alias val="$and"/>
    <s:alias val="$logic_and"/>
    <s:alias val="$_AND_"/>
    <s:alias val="$reduce_and"/>
    <path d="M0,0 L0,25 L15,25 A15 12.5 0 0 0 15,0 Z" class="cell_\21 fill-1"/>
    <g s:x="0" s:y="5" s:pid="A"/>
    <g s:x="0" s:y="20" s:pid="B"/>
    <g s:x="30" s:y="12.5" s:pid="Y"/>
  </g>
  <g s:type="and" transform="translate(335,137)" s:width="30" s:height="25" id="cell_\42">
    <s:alias val="$and"/>
    <s:alias val="$logic_and"/>
    <s:alias val="$_AND_"/>
    <s:alias val="$reduce_and"/>
    <path d="M0,0 L0,25 L15,25 A15 12.5 0 0 0 15,0 Z" class="cell_\42 fill-1"/>
    <g s:x="0" s:y="5" s:pid="A"/>
    <g s:x="0" s:y="20" s:pid="B"/>
    <g s:x="30" s:y="12.5" s:pid="Y"/>
  </g>
  <g s:type="and" transform="translate(400,129.5)" s:width="30" s:height="25" id="cell_\43">
    <s:alias val="$and"/>
    <s:alias val="$logic_and"/>
    <s:alias val="$_AND_"/>
    <s:alias val="$reduce_and"/>
    <path d="M0,0 L0,25 L15,25 A15 12.5 0 0 0 15,0 Z" class="cell_\43 fill-1"/>
    <g s:x="0" s:y="5" s:pid="A"/>
    <g s:x="0" s:y="20" s:pid="B"/>
    <g s:x="30" s:y="12.5" s:pid="Y"/>
  </g>
  <g s:type="and" transform="translate(511,77)" s:width="30" s:height="25" id="cell_\44">
    <s:alias val="$and"/>
    <s:alias val="$logic_and"/>
    <s:alias val="$_AND_"/>
    <s:alias val="$reduce_and"/>
    <path d="M0,0 L0,25 L15,25 A15 12.5 0 0 0 15,0 Z" class="cell_\44 fill-1"/>
    <g s:x="0" s:y="5" s:pid="A"/>
    <g s:x="0" s:y="20" s:pid="B"/>
    <g s:x="30" s:y="12.5" s:pid="Y"/>
  </g>
  <g s:type="reduce_nxor" transform="translate(215,190)" s:width="33" s:height="25" id="cell_\51">
    <s:alias val="$xnor"/>
    <s:alias val="$reduce_xnor"/>
    <s:alias val="$_XNOR_"/>
    <path d="M3,0 A30 25 0 0 1 3,25 A30 25 0 0 0 33,12.5 A30 25 0 0 0 3,0" class="cell_\51 fill-1"/>
    <path d="M0,0 A30 25 0 0 1 0,25" class="cell_\51"/>
    <circle cx="36" cy="12.5" r="3" class="cell_\51 fill-3"/>
    <g s:x="2" s:y="5" s:pid="A"/>
    <g s:x="2" s:y="20" s:pid="B"/>
    <g s:x="38" s:y="12.5" s:pid="Y"/>
  </g>
  <g s:type="and" transform="translate(400,189.5)" s:width="30" s:height="25" id="cell_\64">
    <s:alias val="$and"/>
    <s:alias val="$logic_and"/>
    <s:alias val="$_AND_"/>
    <s:alias val="$reduce_and"/>
    <path d="M0,0 L0,25 L15,25 A15 12.5 0 0 0 15,0 Z" class="cell_\64 fill-1"/>
    <g s:x="0" s:y="5" s:pid="A"/>
    <g s:x="0" s:y="20" s:pid="B"/>
    <g s:x="30" s:y="12.5" s:pid="Y"/>
  </g>
  <g s:type="reduce_nxor" transform="translate(215,67)" s:width="33" s:height="25" id="cell_\8">
    <s:alias val="$xnor"/>
    <s:alias val="$reduce_xnor"/>
    <s:alias val="$_XNOR_"/>
    <path d="M3,0 A30 25 0 0 1 3,25 A30 25 0 0 0 33,12.5 A30 25 0 0 0 3,0" class="cell_\8 fill-1"/>
    <path d="M0,0 A30 25 0 0 1 0,25" class="cell_\8"/>
    <circle cx="36" cy="12.5" r="3" class="cell_\8 fill-3"/>
    <g s:x="2" s:y="5" s:pid="A"/>
    <g s:x="2" s:y="20" s:pid="B"/>
    <g s:x="38" s:y="12.5" s:pid="Y"/>
  </g>
  <g s:type="and" transform="translate(335,257)" s:width="30" s:height="25" id="cell_\85">
    <s:alias val="$and"/>
    <s:alias val="$logic_and"/>
    <s:alias val="$_AND_"/>
    <s:alias val="$reduce_and"/>
    <path d="M0,0 L0,25 L15,25 A15 12.5 0 0 0 15,0 Z" class="cell_\85 fill-1"/>
    <g s:x="0" s:y="5" s:pid="A"/>
    <g s:x="0" s:y="20" s:pid="B"/>
    <g s:x="30" s:y="12.5" s:pid="Y"/>
  </g>
  <g s:type="and" transform="translate(400,249.5)" s:width="30" s:height="25" id="cell_\86">
    <s:alias val="$and"/>
    <s:alias val="$logic_and"/>
    <s:alias val="$_AND_"/>
    <s:alias val="$reduce_and"/>
    <path d="M0,0 L0,25 L15,25 A15 12.5 0 0 0 15,0 Z" class="cell_\86 fill-1"/>
    <g s:x="0" s:y="5" s:pid="A"/>
    <g s:x="0" s:y="20" s:pid="B"/>
    <g s:x="30" s:y="12.5" s:pid="Y"/>
  </g>
  <g s:type="and" transform="translate(511,197)" s:width="30" s:height="25" id="cell_\87">
    <s:alias val="$and"/>
    <s:alias val="$logic_and"/>
    <s:alias val="$_AND_"/>
    <s:alias val="$reduce_and"/>
    <path d="M0,0 L0,25 L15,25 A15 12.5 0 0 0 15,0 Z" class="cell_\87 fill-1"/>
    <g s:x="0" s:y="5" s:pid="A"/>
    <g s:x="0" s:y="20" s:pid="B"/>
    <g s:x="30" s:y="12.5" s:pid="Y"/>
  </g>
  <g s:type="inputExt" transform="translate(12,62)" s:width="30" s:height="20" id="cell_stage_id_select_source_1">
    <text x="15" y="-4" class="nodelabel text-1 cell_stage_id_select_source_1" s:attribute="ref">stage_id_select_source_1</text>
    <s:alias val="$_inputExt_"/>
    <path d="M0,0 L0,20 L15,20 L30,10 L15,0 Z" class="cell_stage_id_select_source_1 fill-4"/>
    <g s:x="30" s:y="10" s:pid="Y"/>
  </g>
  <g s:type="inputExt" transform="translate(12,185)" s:width="30" s:height="20" id="cell_stage_id_select_source_2">
    <text x="15" y="-4" class="nodelabel text-1 cell_stage_id_select_source_2" s:attribute="ref">stage_id_select_source_2</text>
    <s:alias val="$_inputExt_"/>
    <path d="M0,0 L0,20 L15,20 L30,10 L15,0 Z" class="cell_stage_id_select_source_2 fill-4"/>
    <g s:x="30" s:y="10" s:pid="Y"/>
  </g>
  <g s:type="inputExt" transform="translate(465,22)" s:width="30" s:height="20" id="cell_stage_mem_enable_destination">
    <text x="15" y="-4" class="nodelabel text-1 cell_stage_mem_enable_destination" s:attribute="ref">stage_mem_enable_destination</text>
    <s:alias val="$_inputExt_"/>
    <path d="M0,0 L0,20 L15,20 L30,10 L15,0 Z" class="cell_stage_mem_enable_destination fill-4"/>
    <g s:x="30" s:y="10" s:pid="Y"/>
  </g>
  <g s:type="inputExt" transform="translate(12,312.5)" s:width="30" s:height="20" id="cell_stage_mem_select_destination">
    <text x="15" y="-4" class="nodelabel text-1 cell_stage_mem_select_destination" s:attribute="ref">stage_mem_select_destination</text>
    <s:alias val="$_inputExt_"/>
    <path d="M0,0 L0,20 L15,20 L30,10 L15,0 Z" class="cell_stage_mem_select_destination fill-4"/>
    <g s:x="30" s:y="10" s:pid="Y"/>
  </g>
  <g s:type="outputExt" transform="translate(799,37)" s:width="30" s:height="20" id="cell_select_source_1">
    <text x="15" y="-4" class="nodelabel text-1 cell_select_source_1" s:attribute="ref">select_source_1</text>
    <s:alias val="$_outputExt_"/>
    <path d="M30,0 L30,20 L15,20 L0,10 L15,0 Z" class="cell_select_source_1 fill-4"/>
    <g s:x="0" s:y="10" s:pid="A"/>
  </g>
  <g s:type="outputExt" transform="translate(799,199.5)" s:width="30" s:height="20" id="cell_select_source_2">
    <text x="15" y="-4" class="nodelabel text-1 cell_select_source_2" s:attribute="ref">select_source_2</text>
    <s:alias val="$_outputExt_"/>
    <path d="M30,0 L30,20 L15,20 L0,10 L15,0 Z" class="cell_select_source_2 fill-4"/>
    <g s:x="0" s:y="10" s:pid="A"/>
  </g>
  <g s:type="split" transform="translate(288,302)" s:width="5" s:height="40" id="cell_$split$,20,21,22,23,24,">
    <rect width="5" height="100" class="splitjoinBody" s:generic="body"/>
    <s:alias val="$_split_"/>
    <g s:x="0" s:y="20" s:pid="in"/>
    <g transform="translate(4,10)" s:x="4" s:y="10" s:pid="out0">
      <text x="5" y="-4" class="text-2">3</text>
    </g>
    <g transform="translate(4,30)" s:x="4" s:y="10" s:pid="out0">
      <text x="5" y="-4" class="text-2">4</text>
    </g>
    <g transform="translate(4,50)" s:x="4" s:y="10" s:pid="out0">
      <text x="5" y="-4" class="text-2">0</text>
    </g>
    <g transform="translate(4,70)" s:x="4" s:y="10" s:pid="out0">
      <text x="5" y="-4" class="text-2">1</text>
    </g>
    <g transform="translate(4,90)" s:x="4" s:y="10" s:pid="out0">
      <text x="5" y="-4" class="text-2">2</text>
    </g>
  </g>
  <g s:type="split" transform="translate(288,59)" s:width="5" s:height="40" id="cell_$split$,37,38,40,34,35,">
    <rect width="5" height="100" class="splitjoinBody" s:generic="body"/>
    <s:alias val="$_split_"/>
    <g s:x="0" s:y="20" s:pid="in"/>
    <g transform="translate(4,10)" s:x="4" s:y="10" s:pid="out0">
      <text x="5" y="-4" class="text-2">3</text>
    </g>
    <g transform="translate(4,30)" s:x="4" s:y="10" s:pid="out0">
      <text x="5" y="-4" class="text-2">4</text>
    </g>
    <g transform="translate(4,50)" s:x="4" s:y="10" s:pid="out0">
      <text x="5" y="-4" class="text-2">0</text>
    </g>
    <g transform="translate(4,70)" s:x="4" s:y="10" s:pid="out0">
      <text x="5" y="-4" class="text-2">1</text>
    </g>
    <g transform="translate(4,90)" s:x="4" s:y="10" s:pid="out0">
      <text x="5" y="-4" class="text-2">2</text>
    </g>
  </g>
  <g s:type="split" transform="translate(288,182)" s:width="5" s:height="40" id="cell_$split$,42,43,44,45,46,">
    <rect width="5" height="100" class="splitjoinBody" s:generic="body"/>
    <s:alias val="$_split_"/>
    <g s:x="0" s:y="20" s:pid="in"/>
    <g transform="translate(4,10)" s:x="4" s:y="10" s:pid="out0">
      <text x="5" y="-4" class="text-2">3</text>
    </g>
    <g transform="translate(4,30)" s:x="4" s:y="10" s:pid="out0">
      <text x="5" y="-4" class="text-2">4</text>
    </g>
    <g transform="translate(4,50)" s:x="4" s:y="10" s:pid="out0">
      <text x="5" y="-4" class="text-2">0</text>
    </g>
    <g transform="translate(4,70)" s:x="4" s:y="10" s:pid="out0">
      <text x="5" y="-4" class="text-2">1</text>
    </g>
    <g transform="translate(4,90)" s:x="4" s:y="10" s:pid="out0">
      <text x="5" y="-4" class="text-2">2</text>
    </g>
  </g>
  <line x1="42" x2="218" y1="322.5" y2="322.5" class="net_13,14,15,16,17"/>
  <line x1="42" x2="190" y1="322.5" y2="322.5" class="net_13,14,15,16,17"/>
  <line x1="190" x2="190" y1="322.5" y2="210" class="net_13,14,15,16,17"/>
  <circle cx="190" cy="322.5" r="2" style="fill:#000" class="net_13,14,15,16,17"/>
  <circle cx="190" cy="210" r="2" style="fill:#000" class="net_13,14,15,16,17"/>
  <line x1="190" x2="217" y1="210" y2="210" class="net_13,14,15,16,17"/>
  <line x1="42" x2="190" y1="322.5" y2="322.5" class="net_13,14,15,16,17"/>
  <line x1="190" x2="190" y1="322.5" y2="87" class="net_13,14,15,16,17"/>
  <line x1="190" x2="217" y1="87" y2="87" class="net_13,14,15,16,17"/>
  <line x1="293" x2="310" y1="312.5" y2="312.5" class="net_23"/>
  <line x1="310" x2="310" y1="312.5" y2="314.5" class="net_23"/>
  <line x1="310" x2="400" y1="314.5" y2="314.5" class="net_23"/>
  <line x1="293" x2="375" y1="332.5" y2="332.5" class="net_24"/>
  <line x1="375" x2="375" y1="332.5" y2="329.5" class="net_24"/>
  <line x1="375" x2="400" y1="329.5" y2="329.5" class="net_24"/>
  <line x1="293" x2="320" y1="352.5" y2="352.5" class="net_20"/>
  <line x1="320" x2="320" y1="352.5" y2="382" class="net_20"/>
  <line x1="320" x2="335" y1="382" y2="382" class="net_20"/>
  <line x1="293" x2="310" y1="372.5" y2="372.5" class="net_21"/>
  <line x1="310" x2="310" y1="372.5" y2="397" class="net_21"/>
  <line x1="310" x2="335" y1="397" y2="397" class="net_21"/>
  <line x1="292.5" x2="292.5" y1="393" y2="412" class="net_22"/>
  <line x1="292.5" x2="375" y1="412" y2="412" class="net_22"/>
  <line x1="375" x2="375" y1="412" y2="374.5" class="net_22"/>
  <line x1="375" x2="400" y1="374.5" y2="374.5" class="net_22"/>
  <line x1="365" x2="400" y1="389.5" y2="389.5" class="net_26"/>
  <line x1="430" x2="511" y1="322" y2="322" class="net_25"/>
  <line x1="430" x2="440" y1="382" y2="382" class="net_27"/>
  <line x1="440" x2="440" y1="382" y2="337" class="net_27"/>
  <line x1="440" x2="511" y1="337" y2="337" class="net_27"/>
  <line x1="495" x2="668.6666666666666" y1="32" y2="32" class="net_12"/>
  <line x1="495" x2="653" y1="32" y2="32" class="net_12"/>
  <line x1="653" x2="653" y1="32" y2="194.5" class="net_12"/>
  <circle cx="653" cy="32" r="2" style="fill:#000" class="net_12"/>
  <line x1="653" x2="668.6666666666666" y1="194.5" y2="194.5" class="net_12"/>
  <line x1="541" x2="643" y1="89.5" y2="89.5" class="net_29"/>
  <line x1="643" x2="643" y1="89.5" y2="47" class="net_29"/>
  <line x1="643" x2="668.6666666666666" y1="47" y2="47" class="net_29"/>
  <line x1="541" x2="668" y1="329.5" y2="329.5" class="net_28"/>
  <line x1="698.6666666666666" x2="734" y1="39.5" y2="39.5" class="net_30"/>
  <line x1="696" x2="709" y1="329.5" y2="329.5" class="net_31"/>
  <line x1="709" x2="709" y1="329.5" y2="54.5" class="net_31"/>
  <line x1="709" x2="734" y1="54.5" y2="54.5" class="net_31"/>
  <line x1="696" x2="709" y1="329.5" y2="329.5" class="net_31"/>
  <line x1="709" x2="709" y1="329.5" y2="217" class="net_31"/>
  <circle cx="709" cy="217" r="2" style="fill:#000" class="net_31"/>
  <line x1="709" x2="734" y1="217" y2="217" class="net_31"/>
  <line x1="541" x2="668.6666666666666" y1="209.5" y2="209.5" class="net_32"/>
  <line x1="698.6666666666666" x2="734" y1="202" y2="202" class="net_33"/>
  <line x1="293" x2="310" y1="69.5" y2="69.5" class="net_34"/>
  <line x1="310" x2="310" y1="69.5" y2="74.5" class="net_34"/>
  <line x1="310" x2="400" y1="74.5" y2="74.5" class="net_34"/>
  <line x1="293" x2="400" y1="89.5" y2="89.5" class="net_35"/>
  <line x1="293" x2="320" y1="109.5" y2="109.5" class="net_37"/>
  <line x1="320" x2="320" y1="109.5" y2="142" class="net_37"/>
  <line x1="320" x2="335" y1="142" y2="142" class="net_37"/>
  <line x1="293" x2="310" y1="129.5" y2="129.5" class="net_38"/>
  <line x1="310" x2="310" y1="129.5" y2="157" class="net_38"/>
  <line x1="310" x2="335" y1="157" y2="157" class="net_38"/>
  <line x1="292.5" x2="292.5" y1="150" y2="172" class="net_40"/>
  <line x1="292.5" x2="375" y1="172" y2="172" class="net_40"/>
  <line x1="375" x2="375" y1="172" y2="134.5" class="net_40"/>
  <line x1="375" x2="400" y1="134.5" y2="134.5" class="net_40"/>
  <line x1="365" x2="400" y1="149.5" y2="149.5" class="net_39"/>
  <line x1="430" x2="511" y1="82" y2="82" class="net_36"/>
  <line x1="430" x2="440" y1="142" y2="142" class="net_41"/>
  <line x1="440" x2="440" y1="142" y2="97" class="net_41"/>
  <line x1="440" x2="511" y1="97" y2="97" class="net_41"/>
  <line x1="42" x2="217" y1="195" y2="195" class="net_7,8,9,10,11"/>
  <line x1="293" x2="310" y1="192.5" y2="192.5" class="net_45"/>
  <line x1="310" x2="310" y1="192.5" y2="194.5" class="net_45"/>
  <line x1="310" x2="400" y1="194.5" y2="194.5" class="net_45"/>
  <line x1="293" x2="375" y1="212.5" y2="212.5" class="net_46"/>
  <line x1="375" x2="375" y1="212.5" y2="209.5" class="net_46"/>
  <line x1="375" x2="400" y1="209.5" y2="209.5" class="net_46"/>
  <line x1="42" x2="217" y1="72" y2="72" class="net_2,3,4,5,6"/>
  <line x1="293" x2="320" y1="232.5" y2="232.5" class="net_42"/>
  <line x1="320" x2="320" y1="232.5" y2="262" class="net_42"/>
  <line x1="320" x2="335" y1="262" y2="262" class="net_42"/>
  <line x1="293" x2="310" y1="252.5" y2="252.5" class="net_43"/>
  <line x1="310" x2="310" y1="252.5" y2="277" class="net_43"/>
  <line x1="310" x2="335" y1="277" y2="277" class="net_43"/>
  <line x1="292.5" x2="292.5" y1="273" y2="292" class="net_44"/>
  <line x1="292.5" x2="375" y1="292" y2="292" class="net_44"/>
  <line x1="375" x2="375" y1="292" y2="254.5" class="net_44"/>
  <line x1="375" x2="400" y1="254.5" y2="254.5" class="net_44"/>
  <line x1="365" x2="400" y1="269.5" y2="269.5" class="net_48"/>
  <line x1="430" x2="511" y1="202" y2="202" class="net_47"/>
  <line x1="430" x2="440" y1="262" y2="262" class="net_49"/>
  <line x1="440" x2="440" y1="262" y2="217" class="net_49"/>
  <line x1="440" x2="511" y1="217" y2="217" class="net_49"/>
  <line x1="764" x2="799" y1="47" y2="47" class="net_18"/>
  <line x1="764" x2="799" y1="209.5" y2="209.5" class="net_19"/>
  <line x1="246" x2="288" y1="322.5" y2="322.5" class="net_20,21,22,23,24"/>
  <line x1="253" x2="288" y1="79.5" y2="79.5" class="net_37,38,40,34,35"/>
  <line x1="253" x2="288" y1="202.5" y2="202.5" class="net_42,43,44,45,46"/>
</svg>
