<svg xmlns="http://www.w3.org/2000/svg" xmlns:xlink="http://www.w3.org/1999/xlink" xmlns:s="https://github.com/nturley/netlistsvg" width="741" height="406">
  <style>  svg {
      stroke: #011e41;
      fill: none;
    }
    text {
      fill:#ffffff;
      stroke:none;
      font-size:10px;
      font-weight: bold;
      font-family: "Courier New", monospace;
    }
    .fill-1 { fill: #003262; }
    .fill-2 { fill: #011e41; stroke: #003262; }
    .fill-3 { fill: #ffffff; }
    .fill-4 { fill: #003262; }
    .fill-5 { fill: #011e41; stroke: #fdda64; }
    .text-1 { fill: #fdb515; }
    .text-2 { fill: #003262; }
    .text-3 { stroke: #fdda64; }
    .nodelabel { text-anchor: middle; }
    .inputPortLabel { text-anchor: end; }
    .splitjoinBody { fill: #3c3c43; }</style>
  <g s:type="not" transform="translate(206,234)" s:width="30" s:height="20" id="cell_\10">
    <s:alias val="$_NOT_"/>
    <s:alias val="$not"/>
    <s:alias val="$logic_not"/>
    <path d="M0,0 L0,20 L20,10 Z" class="cell_\10 fill-1"/>
    <circle cx="24" cy="10" r="3" class="cell_\10 fill-3"/>
    <g s:x="-1" s:y="10" s:pid="A"/>
    <g s:x="27" s:y="10" s:pid="Y"/>
  </g>
  <g s:type="and" transform="translate(330,184)" s:width="30" s:height="25" id="cell_\11">
    <s:alias val="$and"/>
    <s:alias val="$logic_and"/>
    <s:alias val="$_AND_"/>
    <s:alias val="$reduce_and"/>
    <path d="M0,0 L0,25 L15,25 A15 12.5 0 0 0 15,0 Z" class="cell_\11 fill-1"/>
    <g s:x="0" s:y="5" s:pid="A"/>
    <g s:x="0" s:y="20" s:pid="B"/>
    <g s:x="30" s:y="12.5" s:pid="Y"/>
  </g>
  <g s:type="reduce_xor" transform="translate(329,304)" s:width="33" s:height="25" id="cell_\5">
    <s:alias val="$xor"/>
    <s:alias val="$reduce_xor"/>
    <s:alias val="$_XOR_"/>
    <path d="M3,0 A30 25 0 0 1 3,25 A30 25 0 0 0 33,12.5 A30 25 0 0 0 3,0" class="cell_\5 fill-1"/>
    <path d="M0,0 A30 25 0 0 1 0,25" class="cell_\5"/>
    <g s:x="2" s:y="5" s:pid="A"/>
    <g s:x="2" s:y="20" s:pid="B"/>
    <g s:x="33" s:y="12.5" s:pid="Y"/>
  </g>
  <g s:type="generic" transform="translate(472,146)" s:width="30" s:height="40" id="cell_module_program_counter">
    <text x="15" y="-4" class="nodelabel text-1 cell_module_program_counter" s:attribute="ref">module_program_counter_32</text>
    <rect width="30" height="100" s:generic="body" class="cell_module_program_counter fill-1"/>
    <g transform="translate(0,10)" s:x="0" s:y="10" s:pid="in0" id="port_module_program_counter~clear">
      <text x="-3" y="-4" class="inputPortLabel text-2 cell_module_program_counter">clear</text>
    </g>
    <g transform="translate(0,30)" s:x="0" s:y="10" s:pid="in0" id="port_module_program_counter~clock">
      <text x="-3" y="-4" class="inputPortLabel text-2 cell_module_program_counter">clock</text>
    </g>
    <g transform="translate(0,50)" s:x="0" s:y="10" s:pid="in0" id="port_module_program_counter~enable">
      <text x="-3" y="-4" class="inputPortLabel text-2 cell_module_program_counter">enable</text>
    </g>
    <g transform="translate(0,70)" s:x="0" s:y="10" s:pid="in0" id="port_module_program_counter~selector">
      <text x="-3" y="-4" class="inputPortLabel text-2 cell_module_program_counter">selector</text>
    </g>
    <g transform="translate(0,90)" s:x="0" s:y="10" s:pid="in0" id="port_module_program_counter~source">
      <text x="-3" y="-4" class="inputPortLabel text-2 cell_module_program_counter">source</text>
    </g>
    <g transform="translate(30,10)" s:x="30" s:y="10" s:pid="out0" id="port_module_program_counter~destination">
      <text x="5" y="-4" class="cell_module_program_counter text-2">destination</text>
    </g>
  </g>
  <g s:type="inputExt" transform="translate(316,129)" s:width="30" s:height="20" id="cell_clock">
    <text x="15" y="-4" class="nodelabel text-1 cell_clock" s:attribute="ref">clock</text>
    <s:alias val="$_inputExt_"/>
    <path d="M0,0 L0,20 L15,20 L30,10 L15,0 Z" class="cell_clock fill-4"/>
    <g s:x="30" s:y="10" s:pid="Y"/>
  </g>
  <g s:type="inputExt" transform="translate(316,64)" s:width="30" s:height="20" id="cell_clear">
    <text x="15" y="-4" class="nodelabel text-1 cell_clear" s:attribute="ref">clear</text>
    <s:alias val="$_inputExt_"/>
    <path d="M0,0 L0,20 L15,20 L30,10 L15,0 Z" class="cell_clear fill-4"/>
    <g s:x="30" s:y="10" s:pid="Y"/>
  </g>
  <g s:type="inputExt" transform="translate(161,179)" s:width="30" s:height="20" id="cell_enable">
    <text x="15" y="-4" class="nodelabel text-1 cell_enable" s:attribute="ref">enable</text>
    <s:alias val="$_inputExt_"/>
    <path d="M0,0 L0,20 L15,20 L30,10 L15,0 Z" class="cell_enable fill-4"/>
    <g s:x="30" s:y="10" s:pid="Y"/>
  </g>
  <g s:type="inputExt" transform="translate(161,364)" s:width="30" s:height="20" id="cell_branch">
    <text x="15" y="-4" class="nodelabel text-1 cell_branch" s:attribute="ref">branch</text>
    <s:alias val="$_inputExt_"/>
    <path d="M0,0 L0,20 L15,20 L30,10 L15,0 Z" class="cell_branch fill-4"/>
    <g s:x="30" s:y="10" s:pid="Y"/>
  </g>
  <g s:type="inputExt" transform="translate(12,234)" s:width="30" s:height="20" id="cell_source enable_stall">
    <text x="15" y="-4" class="nodelabel text-1 cell_source enable_stall" s:attribute="ref">source enable_stall</text>
    <s:alias val="$_inputExt_"/>
    <path d="M0,0 L0,20 L15,20 L30,10 L15,0 Z" class="cell_source enable_stall fill-4"/>
    <g s:x="30" s:y="10" s:pid="Y"/>
  </g>
  <g s:type="inputExt" transform="translate(132,22)" s:width="30" s:height="20" id="cell_source enable_flush">
    <text x="15" y="-4" class="nodelabel text-1 cell_source enable_flush" s:attribute="ref">source enable_flush</text>
    <s:alias val="$_inputExt_"/>
    <path d="M0,0 L0,20 L15,20 L30,10 L15,0 Z" class="cell_source enable_flush fill-4"/>
    <g s:x="30" s:y="10" s:pid="Y"/>
  </g>
  <g s:type="inputExt" transform="translate(12,22)" s:width="30" s:height="20" id="cell_source enable_jump">
    <text x="15" y="-4" class="nodelabel text-1 cell_source enable_jump" s:attribute="ref">source enable_jump</text>
    <s:alias val="$_inputExt_"/>
    <path d="M0,0 L0,20 L15,20 L30,10 L15,0 Z" class="cell_source enable_jump fill-4"/>
    <g s:x="30" s:y="10" s:pid="Y"/>
  </g>
  <g s:type="inputExt" transform="translate(161,299)" s:width="30" s:height="20" id="cell_source select_source">
    <text x="15" y="-4" class="nodelabel text-1 cell_source select_source" s:attribute="ref">source select_source</text>
    <s:alias val="$_inputExt_"/>
    <path d="M0,0 L0,20 L15,20 L30,10 L15,0 Z" class="cell_source select_source fill-4"/>
    <g s:x="30" s:y="10" s:pid="Y"/>
  </g>
  <g s:type="inputExt" transform="translate(316,374)" s:width="30" s:height="20" id="cell_address_jump">
    <text x="15" y="-4" class="nodelabel text-1 cell_address_jump" s:attribute="ref">address_jump</text>
    <s:alias val="$_inputExt_"/>
    <path d="M0,0 L0,20 L15,20 L30,10 L15,0 Z" class="cell_address_jump fill-4"/>
    <g s:x="30" s:y="10" s:pid="Y"/>
  </g>
  <g s:type="outputExt" transform="translate(639,146.5)" s:width="30" s:height="20" id="cell_address_program">
    <text x="15" y="-4" class="nodelabel text-1 cell_address_program" s:attribute="ref">address_program</text>
    <s:alias val="$_outputExt_"/>
    <path d="M30,0 L30,20 L15,20 L0,10 L15,0 Z" class="cell_address_program fill-4"/>
    <g s:x="0" s:y="10" s:pid="A"/>
  </g>
  <line x1="42" x2="205" y1="244" y2="244" class="net_6"/>
  <line x1="191" x2="330" y1="189" y2="189" class="net_4"/>
  <line x1="233" x2="291" y1="244" y2="244" class="net_74"/>
  <line x1="291" x2="291" y1="244" y2="204" class="net_74"/>
  <line x1="291" x2="330" y1="204" y2="204" class="net_74"/>
  <line x1="191" x2="331" y1="309" y2="309" class="net_9"/>
  <line x1="191" x2="291" y1="374" y2="374" class="net_5"/>
  <line x1="291" x2="291" y1="374" y2="324" class="net_5"/>
  <line x1="291" x2="331" y1="324" y2="324" class="net_5"/>
  <line x1="346" x2="408" y1="74" y2="74" class="net_3"/>
  <line x1="408" x2="408" y1="74" y2="156.5" class="net_3"/>
  <line x1="408" x2="472" y1="156.5" y2="156.5" class="net_3"/>
  <line x1="346" x2="398" y1="139" y2="139" class="net_2"/>
  <line x1="398" x2="398" y1="139" y2="176.5" class="net_2"/>
  <line x1="398" x2="472" y1="176.5" y2="176.5" class="net_2"/>
  <line x1="360" x2="472" y1="196.5" y2="196.5" class="net_75"/>
  <line x1="362" x2="398" y1="316.5" y2="316.5" class="net_76"/>
  <line x1="398" x2="398" y1="316.5" y2="216.5" class="net_76"/>
  <line x1="398" x2="472" y1="216.5" y2="216.5" class="net_76"/>
  <line x1="346" x2="408" y1="384" y2="384" class="net_10,11,12,13,14,15,16,17,18,19,20,21,22,23,24,25,26,27,28,29,30,31,32,33,34,35,36,37,38,39,40,41"/>
  <line x1="408" x2="408" y1="384" y2="236.5" class="net_10,11,12,13,14,15,16,17,18,19,20,21,22,23,24,25,26,27,28,29,30,31,32,33,34,35,36,37,38,39,40,41"/>
  <line x1="408" x2="472" y1="236.5" y2="236.5" class="net_10,11,12,13,14,15,16,17,18,19,20,21,22,23,24,25,26,27,28,29,30,31,32,33,34,35,36,37,38,39,40,41"/>
  <line x1="503" x2="639" y1="156.5" y2="156.5" class="net_42,43,44,45,46,47,48,49,50,51,52,53,54,55,56,57,58,59,60,61,62,63,64,65,66,67,68,69,70,71,72,73"/>
</svg>
