<svg xmlns="http://www.w3.org/2000/svg" xmlns:xlink="http://www.w3.org/1999/xlink" xmlns:s="https://github.com/nturley/netlistsvg" width="1690" height="1397.5">
  <style>  svg {
      stroke: #011e41;
      fill: none;
    }
    text {
      fill:#ffffff;
      stroke:none;
      font-size:10px;
      font-weight: bold;
      font-family: "Courier New", monospace;
    }
    .fill-1 { fill: #003262; }
    .fill-2 { fill: #011e41; stroke: #003262; }
    .fill-3 { fill: #ffffff; }
    .fill-4 { fill: #003262; }
    .fill-5 { fill: #011e41; stroke: #fdda64; }
    .text-1 { fill: #fdb515; }
    .text-2 { fill: #003262; }
    .text-3 { stroke: #fdda64; }
    .nodelabel { text-anchor: middle; }
    .inputPortLabel { text-anchor: end; }
    .splitjoinBody { fill: #3c3c43; }</style>
  <g s:type="mux" transform="translate(193.66666666666666,151)" s:width="20" s:height="40" id="cell_\26">
    <s:alias val="$pmux"/>
    <s:alias val="$mux"/>
    <s:alias val="$_MUX_"/>
    <path d="M0,0 L20,10 L20,30 L0,40 Z" class="cell_\26 fill-1"/>
    <text x="5" y="32" class="nodelabel cell_\26" s:attribute="">1</text>
    <text x="5" y="13" class="nodelabel cell_\26" s:attribute="">0</text>
    <g s:x="0" s:y="10" s:pid="A"/>
    <g s:x="0" s:y="30" s:pid="B"/>
    <g s:x="10" s:y="35" s:pid="S"/>
    <g s:x="20" s:y="20" s:pid="Y"/>
  </g>
  <g s:type="mux" transform="translate(259.33333333333337,1150.5)" s:width="20" s:height="40" id="cell_\27">
    <s:alias val="$pmux"/>
    <s:alias val="$mux"/>
    <s:alias val="$_MUX_"/>
    <path d="M0,0 L20,10 L20,30 L0,40 Z" class="cell_\27 fill-1"/>
    <text x="5" y="32" class="nodelabel cell_\27" s:attribute="">1</text>
    <text x="5" y="13" class="nodelabel cell_\27" s:attribute="">0</text>
    <g s:x="0" s:y="10" s:pid="A"/>
    <g s:x="0" s:y="30" s:pid="B"/>
    <g s:x="10" s:y="35" s:pid="S"/>
    <g s:x="20" s:y="20" s:pid="Y"/>
  </g>
  <g s:type="or" transform="translate(1361.3333333333333,360.5)" s:width="30" s:height="25" id="cell_\281">
    <s:alias val="$or"/>
    <s:alias val="$logic_or"/>
    <s:alias val="$_OR_"/>
    <s:alias val="$reduce_or"/>
    <s:alias val="$reduce_bool"/>
    <path d="M0,0 A30 25 0 0 1 0,25 A30 25 0 0 0 30,12.5 A30 25 0 0 0 0,0" class="cell_\281 fill-1"/>
    <g s:x="2" s:y="5" s:pid="A"/>
    <g s:x="2" s:y="20" s:pid="B"/>
    <g s:x="30" s:y="12.5" s:pid="Y"/>
  </g>
  <g s:type="dff" transform="translate(322,1160.5)" s:width="30" s:height="40" id="cell_\782">
    <s:alias val="$dff"/>
    <s:alias val="$_DFF_"/>
    <s:alias val="$_DFF_P_"/>
    <s:alias val="$adff"/>
    <s:alias val="$_DFF_"/>
    <s:alias val="$_DFF_P_"/>
    <s:alias val="$sdff"/>
    <s:alias val="$_DFF_"/>
    <s:alias val="$_DFF_P_"/>
    <rect width="30" height="40" x="0" y="0" class="cell_\782 fill-1"/>
    <path d="M0,35 L5,30 L0,25" class="cell_\782 fill-5"/>
    <g s:x="31" s:y="10" s:pid="Q"/>
    <g s:x="-1" s:y="30" s:pid="CLK"/>
    <g s:x="-1" s:y="30" s:pid="C"/>
    <g s:x="-1" s:y="10" s:pid="D"/>
    <g s:x="15" s:y="40" s:pid="ARST"/>
    <g s:x="15" s:y="40" s:pid="SRST"/>
  </g>
  <g s:type="generic" transform="translate(1100,215)" s:width="30" s:height="40" id="cell_branch_compare_unit">
    <text x="15" y="-4" class="nodelabel text-1 cell_branch_compare_unit" s:attribute="ref">module_branch_compare_unit_4_32</text>
    <rect width="30" height="80" s:generic="body" class="cell_branch_compare_unit fill-1"/>
    <g transform="translate(0,10)" s:x="0" s:y="10" s:pid="in0" id="port_branch_compare_unit~enable">
      <text x="-3" y="-4" class="inputPortLabel text-2 cell_branch_compare_unit">enable</text>
    </g>
    <g transform="translate(0,30)" s:x="0" s:y="10" s:pid="in0" id="port_branch_compare_unit~select_function">
      <text x="-3" y="-4" class="inputPortLabel text-2 cell_branch_compare_unit">select_function</text>
    </g>
    <g transform="translate(0,50)" s:x="0" s:y="10" s:pid="in0" id="port_branch_compare_unit~source_1">
      <text x="-3" y="-4" class="inputPortLabel text-2 cell_branch_compare_unit">source_1</text>
    </g>
    <g transform="translate(0,70)" s:x="0" s:y="10" s:pid="in0" id="port_branch_compare_unit~source_2">
      <text x="-3" y="-4" class="inputPortLabel text-2 cell_branch_compare_unit">source_2</text>
    </g>
    <g transform="translate(30,10)" s:x="30" s:y="10" s:pid="out0" id="port_branch_compare_unit~destination">
      <text x="5" y="-4" class="cell_branch_compare_unit text-2">destination</text>
    </g>
  </g>
  <g s:type="generic" transform="translate(1371,525.5)" s:width="30" s:height="40" id="cell_branch_unit">
    <text x="15" y="-4" class="nodelabel text-1 cell_branch_unit" s:attribute="ref">module_branch_unit_32</text>
    <rect width="30" height="80" s:generic="body" class="cell_branch_unit fill-1"/>
    <g transform="translate(0,10)" s:x="0" s:y="10" s:pid="in0" id="port_branch_unit~selector">
      <text x="-3" y="-4" class="inputPortLabel text-2 cell_branch_unit">selector</text>
    </g>
    <g transform="translate(0,30)" s:x="0" s:y="10" s:pid="in0" id="port_branch_unit~source_immediate">
      <text x="-3" y="-4" class="inputPortLabel text-2 cell_branch_unit">source_immediate</text>
    </g>
    <g transform="translate(0,50)" s:x="0" s:y="10" s:pid="in0" id="port_branch_unit~source_program">
      <text x="-3" y="-4" class="inputPortLabel text-2 cell_branch_unit">source_program</text>
    </g>
    <g transform="translate(0,70)" s:x="0" s:y="10" s:pid="in0" id="port_branch_unit~source_register">
      <text x="-3" y="-4" class="inputPortLabel text-2 cell_branch_unit">source_register</text>
    </g>
    <g transform="translate(30,10)" s:x="30" s:y="10" s:pid="out0" id="port_branch_unit~destination">
      <text x="5" y="-4" class="cell_branch_unit text-2">destination</text>
    </g>
  </g>
  <g s:type="generic" transform="translate(653,690)" s:width="30" s:height="40" id="cell_module_control_unit">
    <text x="15" y="-4" class="nodelabel text-1 cell_module_control_unit" s:attribute="ref">module_control_unit_32_32</text>
    <rect width="30" height="340" s:generic="body" class="cell_module_control_unit fill-1"/>
    <g transform="translate(0,10)" s:x="0" s:y="10" s:pid="in0" id="port_module_control_unit~instruction">
      <text x="-3" y="-4" class="inputPortLabel text-2 cell_module_control_unit">instruction</text>
    </g>
    <g transform="translate(30,10)" s:x="30" s:y="10" s:pid="out0" id="port_module_control_unit~control_ex select_operation">
      <text x="5" y="-4" class="cell_module_control_unit text-2">control_ex select_operation</text>
    </g>
    <g transform="translate(30,30)" s:x="30" s:y="10" s:pid="out0" id="port_module_control_unit~control_ex select_source_1">
      <text x="5" y="-4" class="cell_module_control_unit text-2">control_ex select_source_1</text>
    </g>
    <g transform="translate(30,50)" s:x="30" s:y="10" s:pid="out0" id="port_module_control_unit~control_ex select_source_2">
      <text x="5" y="-4" class="cell_module_control_unit text-2">control_ex select_source_2</text>
    </g>
    <g transform="translate(30,70)" s:x="30" s:y="10" s:pid="out0" id="port_module_control_unit~control_id enable_branch">
      <text x="5" y="-4" class="cell_module_control_unit text-2">control_id enable_branch</text>
    </g>
    <g transform="translate(30,90)" s:x="30" s:y="10" s:pid="out0" id="port_module_control_unit~control_id enable_flush_id">
      <text x="5" y="-4" class="cell_module_control_unit text-2">control_id enable_flush_id</text>
    </g>
    <g transform="translate(30,110)" s:x="30" s:y="10" s:pid="out0" id="port_module_control_unit~control_id enable_flux_ex">
      <text x="5" y="-4" class="cell_module_control_unit text-2">control_id enable_flux_ex</text>
    </g>
    <g transform="translate(30,130)" s:x="30" s:y="10" s:pid="out0" id="port_module_control_unit~control_id enable_jump">
      <text x="5" y="-4" class="cell_module_control_unit text-2">control_id enable_jump</text>
    </g>
    <g transform="translate(30,150)" s:x="30" s:y="10" s:pid="out0" id="port_module_control_unit~control_id select_jump">
      <text x="5" y="-4" class="cell_module_control_unit text-2">control_id select_jump</text>
    </g>
    <g transform="translate(30,170)" s:x="30" s:y="10" s:pid="out0" id="port_module_control_unit~control_if enable_flush">
      <text x="5" y="-4" class="cell_module_control_unit text-2">control_if enable_flush</text>
    </g>
    <g transform="translate(30,190)" s:x="30" s:y="10" s:pid="out0" id="port_module_control_unit~control_if enable_jump">
      <text x="5" y="-4" class="cell_module_control_unit text-2">control_if enable_jump</text>
    </g>
    <g transform="translate(30,210)" s:x="30" s:y="10" s:pid="out0" id="port_module_control_unit~control_if enable_stall">
      <text x="5" y="-4" class="cell_module_control_unit text-2">control_if enable_stall</text>
    </g>
    <g transform="translate(30,230)" s:x="30" s:y="10" s:pid="out0" id="port_module_control_unit~control_if select_source">
      <text x="5" y="-4" class="cell_module_control_unit text-2">control_if select_source</text>
    </g>
    <g transform="translate(30,250)" s:x="30" s:y="10" s:pid="out0" id="port_module_control_unit~control_mem enable_read">
      <text x="5" y="-4" class="cell_module_control_unit text-2">control_mem enable_read</text>
    </g>
    <g transform="translate(30,270)" s:x="30" s:y="10" s:pid="out0" id="port_module_control_unit~control_mem enable_write">
      <text x="5" y="-4" class="cell_module_control_unit text-2">control_mem enable_write</text>
    </g>
    <g transform="translate(30,290)" s:x="30" s:y="10" s:pid="out0" id="port_module_control_unit~control_wb enable_destination">
      <text x="5" y="-4" class="cell_module_control_unit text-2">control_wb enable_destination</text>
    </g>
    <g transform="translate(30,310)" s:x="30" s:y="10" s:pid="out0" id="port_module_control_unit~control_wb select_destination">
      <text x="5" y="-4" class="cell_module_control_unit text-2">control_wb select_destination</text>
    </g>
    <g transform="translate(30,330)" s:x="30" s:y="10" s:pid="out0" id="port_module_control_unit~immediate">
      <text x="5" y="-4" class="cell_module_control_unit text-2">immediate</text>
    </g>
  </g>
  <g s:type="generic" transform="translate(701.25,277.5)" s:width="30" s:height="40" id="cell_module_register_file">
    <text x="15" y="-4" class="nodelabel text-1 cell_module_register_file" s:attribute="ref">module_register_file_32_5</text>
    <rect width="30" height="120" s:generic="body" class="cell_module_register_file fill-1"/>
    <g transform="translate(0,10)" s:x="0" s:y="10" s:pid="in0" id="port_module_register_file~clock">
      <text x="-3" y="-4" class="inputPortLabel text-2 cell_module_register_file">clock</text>
    </g>
    <g transform="translate(0,30)" s:x="0" s:y="10" s:pid="in0" id="port_module_register_file~data_destination">
      <text x="-3" y="-4" class="inputPortLabel text-2 cell_module_register_file">data_destination</text>
    </g>
    <g transform="translate(0,50)" s:x="0" s:y="10" s:pid="in0" id="port_module_register_file~enable">
      <text x="-3" y="-4" class="inputPortLabel text-2 cell_module_register_file">enable</text>
    </g>
    <g transform="translate(0,70)" s:x="0" s:y="10" s:pid="in0" id="port_module_register_file~select_destination">
      <text x="-3" y="-4" class="inputPortLabel text-2 cell_module_register_file">select_destination</text>
    </g>
    <g transform="translate(0,90)" s:x="0" s:y="10" s:pid="in0" id="port_module_register_file~select_source_1">
      <text x="-3" y="-4" class="inputPortLabel text-2 cell_module_register_file">select_source_1</text>
    </g>
    <g transform="translate(0,110)" s:x="0" s:y="10" s:pid="in0" id="port_module_register_file~select_source_2">
      <text x="-3" y="-4" class="inputPortLabel text-2 cell_module_register_file">select_source_2</text>
    </g>
    <g transform="translate(30,10)" s:x="30" s:y="10" s:pid="out0" id="port_module_register_file~data_source_1">
      <text x="5" y="-4" class="cell_module_register_file text-2">data_source_1</text>
    </g>
    <g transform="translate(30,30)" s:x="30" s:y="10" s:pid="out0" id="port_module_register_file~data_source_2">
      <text x="5" y="-4" class="cell_module_register_file text-2">data_source_2</text>
    </g>
  </g>
  <g s:type="inputExt" transform="translate(256,222)" s:width="30" s:height="20" id="cell_clock">
    <text x="15" y="-4" class="nodelabel text-1 cell_clock" s:attribute="ref">clock</text>
    <s:alias val="$_inputExt_"/>
    <path d="M0,0 L0,20 L15,20 L30,10 L15,0 Z" class="cell_clock fill-4"/>
    <g s:x="30" s:y="10" s:pid="Y"/>
  </g>
  <g s:type="inputExt" transform="translate(12,1050.5)" s:width="30" s:height="20" id="cell_clear">
    <text x="15" y="-4" class="nodelabel text-1 cell_clear" s:attribute="ref">clear</text>
    <s:alias val="$_inputExt_"/>
    <path d="M0,0 L0,20 L15,20 L30,10 L15,0 Z" class="cell_clear fill-4"/>
    <g s:x="30" s:y="10" s:pid="Y"/>
  </g>
  <g s:type="inputExt" transform="translate(185,1245)" s:width="30" s:height="20" id="cell_enable">
    <text x="15" y="-4" class="nodelabel text-1 cell_enable" s:attribute="ref">enable</text>
    <s:alias val="$_inputExt_"/>
    <path d="M0,0 L0,20 L15,20 L30,10 L15,0 Z" class="cell_enable fill-4"/>
    <g s:x="30" s:y="10" s:pid="Y"/>
  </g>
  <g s:type="inputExt" transform="translate(388,318)" s:width="30" s:height="20" id="cell_enable_destination">
    <text x="15" y="-4" class="nodelabel text-1 cell_enable_destination" s:attribute="ref">enable_destination</text>
    <s:alias val="$_inputExt_"/>
    <path d="M0,0 L0,20 L15,20 L30,10 L15,0 Z" class="cell_enable_destination fill-4"/>
    <g s:x="30" s:y="10" s:pid="Y"/>
  </g>
  <g s:type="inputExt" transform="translate(12,1115.5)" s:width="30" s:height="20" id="cell_source address_program">
    <text x="15" y="-4" class="nodelabel text-1 cell_source address_program" s:attribute="ref">source address_program</text>
    <s:alias val="$_inputExt_"/>
    <path d="M0,0 L0,20 L15,20 L30,10 L15,0 Z" class="cell_source address_program fill-4"/>
    <g s:x="30" s:y="10" s:pid="Y"/>
  </g>
  <g s:type="inputExt" transform="translate(12,1180.5)" s:width="30" s:height="20" id="cell_source data_instruction">
    <text x="15" y="-4" class="nodelabel text-1 cell_source data_instruction" s:attribute="ref">source data_instruction</text>
    <s:alias val="$_inputExt_"/>
    <path d="M0,0 L0,20 L15,20 L30,10 L15,0 Z" class="cell_source data_instruction fill-4"/>
    <g s:x="30" s:y="10" s:pid="Y"/>
  </g>
  <g s:type="inputExt" transform="translate(388,1365.5)" s:width="30" s:height="20" id="cell_select_destination">
    <text x="15" y="-4" class="nodelabel text-1 cell_select_destination" s:attribute="ref">select_destination</text>
    <s:alias val="$_inputExt_"/>
    <path d="M0,0 L0,20 L15,20 L30,10 L15,0 Z" class="cell_select_destination fill-4"/>
    <g s:x="30" s:y="10" s:pid="Y"/>
  </g>
  <g s:type="inputExt" transform="translate(388,253)" s:width="30" s:height="20" id="cell_data_destination">
    <text x="15" y="-4" class="nodelabel text-1 cell_data_destination" s:attribute="ref">data_destination</text>
    <s:alias val="$_inputExt_"/>
    <path d="M0,0 L0,20 L15,20 L30,10 L15,0 Z" class="cell_data_destination fill-4"/>
    <g s:x="30" s:y="10" s:pid="Y"/>
  </g>
  <g s:type="outputExt" transform="translate(1504,363)" s:width="30" s:height="20" id="cell_branch">
    <text x="15" y="-4" class="nodelabel text-1 cell_branch" s:attribute="ref">branch</text>
    <s:alias val="$_outputExt_"/>
    <path d="M30,0 L30,20 L15,20 L0,10 L15,0 Z" class="cell_branch fill-4"/>
    <g s:x="0" s:y="10" s:pid="A"/>
  </g>
  <g s:type="outputExt" transform="translate(1504,526)" s:width="30" s:height="20" id="cell_address_jump">
    <text x="15" y="-4" class="nodelabel text-1 cell_address_jump" s:attribute="ref">address_jump</text>
    <s:alias val="$_outputExt_"/>
    <path d="M30,0 L30,20 L15,20 L0,10 L15,0 Z" class="cell_address_jump fill-4"/>
    <g s:x="0" s:y="10" s:pid="A"/>
  </g>
  <g s:type="outputExt" transform="translate(1504,738.5)" s:width="30" s:height="20" id="cell_control_if enable_stall">
    <text x="15" y="-4" class="nodelabel text-1 cell_control_if enable_stall" s:attribute="ref">control_if enable_stall</text>
    <s:alias val="$_outputExt_"/>
    <path d="M30,0 L30,20 L15,20 L0,10 L15,0 Z" class="cell_control_if enable_stall fill-4"/>
    <g s:x="0" s:y="10" s:pid="A"/>
  </g>
  <g s:type="outputExt" transform="translate(1504,608.5)" s:width="30" s:height="20" id="cell_control_if enable_flush">
    <text x="15" y="-4" class="nodelabel text-1 cell_control_if enable_flush" s:attribute="ref">control_if enable_flush</text>
    <s:alias val="$_outputExt_"/>
    <path d="M30,0 L30,20 L15,20 L0,10 L15,0 Z" class="cell_control_if enable_flush fill-4"/>
    <g s:x="0" s:y="10" s:pid="A"/>
  </g>
  <g s:type="outputExt" transform="translate(1504,673.5)" s:width="30" s:height="20" id="cell_control_if enable_jump">
    <text x="15" y="-4" class="nodelabel text-1 cell_control_if enable_jump" s:attribute="ref">control_if enable_jump</text>
    <s:alias val="$_outputExt_"/>
    <path d="M30,0 L30,20 L15,20 L0,10 L15,0 Z" class="cell_control_if enable_jump fill-4"/>
    <g s:x="0" s:y="10" s:pid="A"/>
  </g>
  <g s:type="outputExt" transform="translate(1504,803.5)" s:width="30" s:height="20" id="cell_control_if select_source">
    <text x="15" y="-4" class="nodelabel text-1 cell_control_if select_source" s:attribute="ref">control_if select_source</text>
    <s:alias val="$_outputExt_"/>
    <path d="M30,0 L30,20 L15,20 L0,10 L15,0 Z" class="cell_control_if select_source fill-4"/>
    <g s:x="0" s:y="10" s:pid="A"/>
  </g>
  <g s:type="outputExt" transform="translate(1504,431)" s:width="30" s:height="20" id="cell_signals_ex control_ex">
    <text x="15" y="-4" class="nodelabel text-1 cell_signals_ex control_ex" s:attribute="ref">signals_ex control_ex</text>
    <s:alias val="$_outputExt_"/>
    <path d="M30,0 L30,20 L15,20 L0,10 L15,0 Z" class="cell_signals_ex control_ex fill-4"/>
    <g s:x="0" s:y="10" s:pid="A"/>
  </g>
  <g s:type="outputExt" transform="translate(1504,868.5)" s:width="30" s:height="20" id="cell_signals_ex control_mem">
    <text x="15" y="-4" class="nodelabel text-1 cell_signals_ex control_mem" s:attribute="ref">signals_ex control_mem</text>
    <s:alias val="$_outputExt_"/>
    <path d="M30,0 L30,20 L15,20 L0,10 L15,0 Z" class="cell_signals_ex control_mem fill-4"/>
    <g s:x="0" s:y="10" s:pid="A"/>
  </g>
  <g s:type="outputExt" transform="translate(1504,945.5)" s:width="30" s:height="20" id="cell_signals_ex control_wb">
    <text x="15" y="-4" class="nodelabel text-1 cell_signals_ex control_wb" s:attribute="ref">signals_ex control_wb</text>
    <s:alias val="$_outputExt_"/>
    <path d="M30,0 L30,20 L15,20 L0,10 L15,0 Z" class="cell_signals_ex control_wb fill-4"/>
    <g s:x="0" s:y="10" s:pid="A"/>
  </g>
  <g s:type="outputExt" transform="translate(1504,119)" s:width="30" s:height="20" id="cell_signals_ex address_program">
    <text x="15" y="-4" class="nodelabel text-1 cell_signals_ex address_program" s:attribute="ref">signals_ex address_program</text>
    <s:alias val="$_outputExt_"/>
    <path d="M30,0 L30,20 L15,20 L0,10 L15,0 Z" class="cell_signals_ex address_program fill-4"/>
    <g s:x="0" s:y="10" s:pid="A"/>
  </g>
  <g s:type="outputExt" transform="translate(1504,184)" s:width="30" s:height="20" id="cell_signals_ex data_source_1">
    <text x="15" y="-4" class="nodelabel text-1 cell_signals_ex data_source_1" s:attribute="ref">signals_ex data_source_1</text>
    <s:alias val="$_outputExt_"/>
    <path d="M30,0 L30,20 L15,20 L0,10 L15,0 Z" class="cell_signals_ex data_source_1 fill-4"/>
    <g s:x="0" s:y="10" s:pid="A"/>
  </g>
  <g s:type="outputExt" transform="translate(1504,298)" s:width="30" s:height="20" id="cell_signals_ex data_source_2">
    <text x="15" y="-4" class="nodelabel text-1 cell_signals_ex data_source_2" s:attribute="ref">signals_ex data_source_2</text>
    <s:alias val="$_outputExt_"/>
    <path d="M30,0 L30,20 L15,20 L0,10 L15,0 Z" class="cell_signals_ex data_source_2 fill-4"/>
    <g s:x="0" s:y="10" s:pid="A"/>
  </g>
  <g s:type="outputExt" transform="translate(1504,1010.5)" s:width="30" s:height="20" id="cell_signals_ex data_immediate">
    <text x="15" y="-4" class="nodelabel text-1 cell_signals_ex data_immediate" s:attribute="ref">signals_ex data_immediate</text>
    <s:alias val="$_outputExt_"/>
    <path d="M30,0 L30,20 L15,20 L0,10 L15,0 Z" class="cell_signals_ex data_immediate fill-4"/>
    <g s:x="0" s:y="10" s:pid="A"/>
  </g>
  <g s:type="outputExt" transform="translate(1504,1205.5)" s:width="30" s:height="20" id="cell_signals_ex funct_7">
    <text x="15" y="-4" class="nodelabel text-1 cell_signals_ex funct_7" s:attribute="ref">signals_ex funct_7</text>
    <s:alias val="$_outputExt_"/>
    <path d="M30,0 L30,20 L15,20 L0,10 L15,0 Z" class="cell_signals_ex funct_7 fill-4"/>
    <g s:x="0" s:y="10" s:pid="A"/>
  </g>
  <g s:type="outputExt" transform="translate(1504,54)" s:width="30" s:height="20" id="cell_signals_ex funct_3">
    <text x="15" y="-4" class="nodelabel text-1 cell_signals_ex funct_3" s:attribute="ref">signals_ex funct_3</text>
    <s:alias val="$_outputExt_"/>
    <path d="M30,0 L30,20 L15,20 L0,10 L15,0 Z" class="cell_signals_ex funct_3 fill-4"/>
    <g s:x="0" s:y="10" s:pid="A"/>
  </g>
  <g s:type="outputExt" transform="translate(1504,1270.5)" s:width="30" s:height="20" id="cell_signals_ex opcode">
    <text x="15" y="-4" class="nodelabel text-1 cell_signals_ex opcode" s:attribute="ref">signals_ex opcode</text>
    <s:alias val="$_outputExt_"/>
    <path d="M30,0 L30,20 L15,20 L0,10 L15,0 Z" class="cell_signals_ex opcode fill-4"/>
    <g s:x="0" s:y="10" s:pid="A"/>
  </g>
  <g s:type="outputExt" transform="translate(1504,1335.5)" s:width="30" s:height="20" id="cell_signals_ex select_destination">
    <text x="15" y="-4" class="nodelabel text-1 cell_signals_ex select_destination" s:attribute="ref">signals_ex select_destination</text>
    <s:alias val="$_outputExt_"/>
    <path d="M30,0 L30,20 L15,20 L0,10 L15,0 Z" class="cell_signals_ex select_destination fill-4"/>
    <g s:x="0" s:y="10" s:pid="A"/>
  </g>
  <g s:type="outputExt" transform="translate(1504,1075.5)" s:width="30" s:height="20" id="cell_signals_ex select_source_1">
    <text x="15" y="-4" class="nodelabel text-1 cell_signals_ex select_source_1" s:attribute="ref">signals_ex select_source_1</text>
    <s:alias val="$_outputExt_"/>
    <path d="M30,0 L30,20 L15,20 L0,10 L15,0 Z" class="cell_signals_ex select_source_1 fill-4"/>
    <g s:x="0" s:y="10" s:pid="A"/>
  </g>
  <g s:type="outputExt" transform="translate(1504,1140.5)" s:width="30" s:height="20" id="cell_signals_ex select_source_2">
    <text x="15" y="-4" class="nodelabel text-1 cell_signals_ex select_source_2" s:attribute="ref">signals_ex select_source_2</text>
    <s:alias val="$_outputExt_"/>
    <path d="M30,0 L30,20 L15,20 L0,10 L15,0 Z" class="cell_signals_ex select_source_2 fill-4"/>
    <g s:x="0" s:y="10" s:pid="A"/>
  </g>
  <g s:type="constant" transform="translate(12,171)" s:width="30" s:height="20" id="cell_0000000000000000000000000000000000000000000000000000000000000000">
    <text x="15" y="-4" class="nodelabel text-1 cell_0000000000000000000000000000000000000000000000000000000000000000" s:attribute="ref">0x0</text>
    <s:alias val="$_constant_"/>
    <rect width="30" height="20" class="cell_0000000000000000000000000000000000000000000000000000000000000000 fill-4"/>
    <g s:x="31" s:y="10" s:pid="Y"/>
  </g>
  <g s:type="constant" transform="translate(388,34.5)" s:width="30" s:height="20" id="cell_0">
    <text x="15" y="-4" class="nodelabel text-1 cell_0" s:attribute="ref">0</text>
    <s:alias val="$_constant_"/>
    <rect width="30" height="20" class="cell_0 fill-4"/>
    <g s:x="31" s:y="10" s:pid="Y"/>
  </g>
  <g s:type="join" transform="translate(210,1160)" s:width="4" s:height="40" id="cell_$join$,6,7,8,9,10,11,12,13,14,15,16,17,18,19,20,21,22,23,24,25,26,27,28,29,30,31,32,33,34,35,36,37,38,39,40,41,42,43,44,45,46,47,48,49,50,51,52,53,54,55,56,57,58,59,60,61,62,63,64,65,66,67,68,69,">
    <rect width="5" height="40" class="splitjoinBody" s:generic="body"/>
    <s:alias val="$_join_"/>
    <g s:x="5" s:y="20" s:pid="out"/>
    <g transform="translate(0,10)" s:x="0" s:y="10" s:pid="in0">
      <text x="-3" y="-4" class="inputPortLabel text-2">0:31</text>
    </g>
    <g transform="translate(0,30)" s:x="0" s:y="10" s:pid="in0">
      <text x="-3" y="-4" class="inputPortLabel text-2">32:63</text>
    </g>
  </g>
  <g s:type="join" transform="translate(712,14)" s:width="4" s:height="40" id="cell_$join$,289,290,291,512,">
    <rect width="5" height="40" class="splitjoinBody" s:generic="body"/>
    <s:alias val="$_join_"/>
    <g s:x="5" s:y="20" s:pid="out"/>
    <g transform="translate(0,10)" s:x="0" s:y="10" s:pid="in0">
      <text x="-3" y="-4" class="inputPortLabel text-2">0:2</text>
    </g>
    <g transform="translate(0,30)" s:x="0" s:y="10" s:pid="in0">
      <text x="-3" y="-4" class="inputPortLabel text-2">3</text>
    </g>
  </g>
  <g s:type="join" transform="translate(1370.25,420.5)" s:width="4" s:height="40" id="cell_$join$,144,145,146,147,148,149,">
    <rect width="5" height="60" class="splitjoinBody" s:generic="body"/>
    <s:alias val="$_join_"/>
    <g s:x="5" s:y="20" s:pid="out"/>
    <g transform="translate(0,10)" s:x="0" s:y="10" s:pid="in0">
      <text x="-3" y="-4" class="inputPortLabel text-2">0:1</text>
    </g>
    <g transform="translate(0,30)" s:x="0" s:y="10" s:pid="in0">
      <text x="-3" y="-4" class="inputPortLabel text-2">2:3</text>
    </g>
    <g transform="translate(0,50)" s:x="0" s:y="10" s:pid="in0">
      <text x="-3" y="-4" class="inputPortLabel text-2">4:5</text>
    </g>
  </g>
  <g s:type="join" transform="translate(1370,858)" s:width="4" s:height="40" id="cell_$join$,150,151,">
    <rect width="5" height="40" class="splitjoinBody" s:generic="body"/>
    <s:alias val="$_join_"/>
    <g s:x="5" s:y="20" s:pid="out"/>
    <g transform="translate(0,10)" s:x="0" s:y="10" s:pid="in0">
      <text x="-3" y="-4" class="inputPortLabel text-2">0</text>
    </g>
    <g transform="translate(0,30)" s:x="0" s:y="10" s:pid="in0">
      <text x="-3" y="-4" class="inputPortLabel text-2">1</text>
    </g>
  </g>
  <g s:type="join" transform="translate(1370,935)" s:width="4" s:height="40" id="cell_$join$,152,153,">
    <rect width="5" height="40" class="splitjoinBody" s:generic="body"/>
    <s:alias val="$_join_"/>
    <g s:x="5" s:y="20" s:pid="out"/>
    <g transform="translate(0,10)" s:x="0" s:y="10" s:pid="in0">
      <text x="-3" y="-4" class="inputPortLabel text-2">0</text>
    </g>
    <g transform="translate(0,30)" s:x="0" s:y="10" s:pid="in0">
      <text x="-3" y="-4" class="inputPortLabel text-2">1</text>
    </g>
  </g>
  <g s:type="split" transform="translate(420.57142857142856,1150)" s:width="5" s:height="40" id="cell_$split$,154,155,156,157,158,159,160,161,162,163,164,165,166,167,168,169,170,171,172,173,174,175,176,177,178,179,180,181,182,183,184,185,312,313,292,293,294,295,296,297,298,299,300,301,289,290,291,302,303,304,305,306,307,308,309,310,311,282,283,284,285,286,287,288,">
    <rect width="5" height="160" class="splitjoinBody" s:generic="body"/>
    <s:alias val="$_split_"/>
    <g s:x="0" s:y="20" s:pid="in"/>
    <g transform="translate(4,10)" s:x="4" s:y="10" s:pid="out0">
      <text x="5" y="-4" class="text-2">44:46</text>
    </g>
    <g transform="translate(4,30)" s:x="4" s:y="10" s:pid="out0">
      <text x="5" y="-4" class="text-2">0:31</text>
    </g>
    <g transform="translate(4,50)" s:x="4" s:y="10" s:pid="out0">
      <text x="5" y="-4" class="text-2">32:63</text>
    </g>
    <g transform="translate(4,70)" s:x="4" s:y="10" s:pid="out0">
      <text x="5" y="-4" class="text-2">47:51</text>
    </g>
    <g transform="translate(4,90)" s:x="4" s:y="10" s:pid="out0">
      <text x="5" y="-4" class="text-2">52:56</text>
    </g>
    <g transform="translate(4,110)" s:x="4" s:y="10" s:pid="out0">
      <text x="5" y="-4" class="text-2">57:63</text>
    </g>
    <g transform="translate(4,130)" s:x="4" s:y="10" s:pid="out0">
      <text x="5" y="-4" class="text-2">34:38</text>
    </g>
    <g transform="translate(4,150)" s:x="4" s:y="10" s:pid="out0">
      <text x="5" y="-4" class="text-2">39:43</text>
    </g>
  </g>
  <line x1="353" x2="363" y1="1170.5" y2="1170.5" class="net_154,155,156,157,158,159,160,161,162,163,164,165,166,167,168,169,170,171,172,173,174,175,176,177,178,179,180,181,182,183,184,185,312,313,292,293,294,295,296,297,298,299,300,301,289,290,291,302,303,304,305,306,307,308,309,310,311,282,283,284,285,286,287,288"/>
  <line x1="363" x2="363" y1="1170.5" y2="201" class="net_154,155,156,157,158,159,160,161,162,163,164,165,166,167,168,169,170,171,172,173,174,175,176,177,178,179,180,181,182,183,184,185,312,313,292,293,294,295,296,297,298,299,300,301,289,290,291,302,303,304,305,306,307,308,309,310,311,282,283,284,285,286,287,288"/>
  <line x1="363" x2="160" y1="201" y2="201" class="net_154,155,156,157,158,159,160,161,162,163,164,165,166,167,168,169,170,171,172,173,174,175,176,177,178,179,180,181,182,183,184,185,312,313,292,293,294,295,296,297,298,299,300,301,289,290,291,302,303,304,305,306,307,308,309,310,311,282,283,284,285,286,287,288"/>
  <line x1="160" x2="160" y1="201" y2="161" class="net_154,155,156,157,158,159,160,161,162,163,164,165,166,167,168,169,170,171,172,173,174,175,176,177,178,179,180,181,182,183,184,185,312,313,292,293,294,295,296,297,298,299,300,301,289,290,291,302,303,304,305,306,307,308,309,310,311,282,283,284,285,286,287,288"/>
  <circle cx="363" cy="1170.5" r="2" style="fill:#000" class="net_154,155,156,157,158,159,160,161,162,163,164,165,166,167,168,169,170,171,172,173,174,175,176,177,178,179,180,181,182,183,184,185,312,313,292,293,294,295,296,297,298,299,300,301,289,290,291,302,303,304,305,306,307,308,309,310,311,282,283,284,285,286,287,288"/>
  <line x1="160" x2="193.66666666666666" y1="161" y2="161" class="net_154,155,156,157,158,159,160,161,162,163,164,165,166,167,168,169,170,171,172,173,174,175,176,177,178,179,180,181,182,183,184,185,312,313,292,293,294,295,296,297,298,299,300,301,289,290,291,302,303,304,305,306,307,308,309,310,311,282,283,284,285,286,287,288"/>
  <line x1="353" x2="420.57142857142856" y1="1170.5" y2="1170.5" class="net_154,155,156,157,158,159,160,161,162,163,164,165,166,167,168,169,170,171,172,173,174,175,176,177,178,179,180,181,182,183,184,185,312,313,292,293,294,295,296,297,298,299,300,301,289,290,291,302,303,304,305,306,307,308,309,310,311,282,283,284,285,286,287,288"/>
  <line x1="43" x2="193.66666666666666" y1="181" y2="181" class="net_448,449,450,451,452,453,454,455,456,457,458,459,460,461,462,463,464,465,466,467,468,469,470,471,472,473,474,475,476,477,478,479,480,481,482,483,484,485,486,487,488,489,490,491,492,493,494,495,496,497,498,499,500,501,502,503,504,505,506,507,508,509,510,511"/>
  <line x1="42" x2="203.66666666666666" y1="1060.5" y2="1060.5" class="net_3"/>
  <line x1="203.66666666666666" x2="203.66666666666666" y1="1060.5" y2="186" class="net_3"/>
  <line x1="213.66666666666666" x2="231" y1="171" y2="171" class="net_314,315,316,317,318,319,320,321,322,323,324,325,326,327,328,329,330,331,332,333,334,335,336,337,338,339,340,341,342,343,344,345,346,347,348,349,350,351,352,353,354,355,356,357,358,359,360,361,362,363,364,365,366,367,368,369,370,371,372,373,374,375,376,377"/>
  <line x1="231" x2="231" y1="171" y2="1160.5" class="net_314,315,316,317,318,319,320,321,322,323,324,325,326,327,328,329,330,331,332,333,334,335,336,337,338,339,340,341,342,343,344,345,346,347,348,349,350,351,352,353,354,355,356,357,358,359,360,361,362,363,364,365,366,367,368,369,370,371,372,373,374,375,376,377"/>
  <line x1="231" x2="259.33333333333337" y1="1160.5" y2="1160.5" class="net_314,315,316,317,318,319,320,321,322,323,324,325,326,327,328,329,330,331,332,333,334,335,336,337,338,339,340,341,342,343,344,345,346,347,348,349,350,351,352,353,354,355,356,357,358,359,360,361,362,363,364,365,366,367,368,369,370,371,372,373,374,375,376,377"/>
  <line x1="216" x2="259.33333333333337" y1="1180.5" y2="1180.5" class="net_6,7,8,9,10,11,12,13,14,15,16,17,18,19,20,21,22,23,24,25,26,27,28,29,30,31,32,33,34,35,36,37,38,39,40,41,42,43,44,45,46,47,48,49,50,51,52,53,54,55,56,57,58,59,60,61,62,63,64,65,66,67,68,69"/>
  <line x1="215" x2="269.33333333333337" y1="1255" y2="1255" class="net_4"/>
  <line x1="269.33333333333337" x2="269.33333333333337" y1="1255" y2="1185.5" class="net_4"/>
  <line x1="684" x2="909" y1="820.5" y2="820.5" class="net_442"/>
  <line x1="909" x2="909" y1="820.5" y2="525" class="net_442"/>
  <line x1="909" x2="1234" y1="525" y2="525" class="net_442"/>
  <line x1="1234" x2="1234" y1="525" y2="365.5" class="net_442"/>
  <line x1="1234" x2="1363.3333333333333" y1="365.5" y2="365.5" class="net_442"/>
  <line x1="1131" x2="1244" y1="225.5" y2="225.5" class="net_443"/>
  <line x1="1244" x2="1244" y1="225.5" y2="380.5" class="net_443"/>
  <line x1="1244" x2="1363.3333333333333" y1="380.5" y2="380.5" class="net_443"/>
  <line x1="286" x2="296" y1="232" y2="232" class="net_2"/>
  <line x1="296" x2="296" y1="232" y2="1190.5" class="net_2"/>
  <circle cx="296" cy="232" r="2" style="fill:#000" class="net_2"/>
  <line x1="296" x2="321" y1="1190.5" y2="1190.5" class="net_2"/>
  <line x1="286" x2="536" y1="232" y2="232" class="net_2"/>
  <line x1="536" x2="536" y1="232" y2="288" class="net_2"/>
  <line x1="536" x2="701.25" y1="288" y2="288" class="net_2"/>
  <line x1="279.33333333333337" x2="321" y1="1170.5" y2="1170.5" class="net_378,379,380,381,382,383,384,385,386,387,388,389,390,391,392,393,394,395,396,397,398,399,400,401,402,403,404,405,406,407,408,409,410,411,412,413,414,415,416,417,418,419,420,421,422,423,424,425,426,427,428,429,430,431,432,433,434,435,436,437,438,439,440,441"/>
  <line x1="684" x2="889" y1="760.5" y2="760.5" class="net_444"/>
  <line x1="889" x2="889" y1="760.5" y2="225.5" class="net_444"/>
  <line x1="889" x2="1100" y1="225.5" y2="225.5" class="net_444"/>
  <line x1="718" x2="899" y1="34.5" y2="34.5" class="net_289,290,291,512"/>
  <line x1="899" x2="899" y1="34.5" y2="245.5" class="net_289,290,291,512"/>
  <line x1="899" x2="1100" y1="245.5" y2="245.5" class="net_289,290,291,512"/>
  <line x1="732.25" x2="869" y1="288" y2="288" class="net_186,187,188,189,190,191,192,193,194,195,196,197,198,199,200,201,202,203,204,205,206,207,208,209,210,211,212,213,214,215,216,217"/>
  <line x1="869" x2="869" y1="288" y2="265.5" class="net_186,187,188,189,190,191,192,193,194,195,196,197,198,199,200,201,202,203,204,205,206,207,208,209,210,211,212,213,214,215,216,217"/>
  <circle cx="869" cy="265.5" r="2" style="fill:#000" class="net_186,187,188,189,190,191,192,193,194,195,196,197,198,199,200,201,202,203,204,205,206,207,208,209,210,211,212,213,214,215,216,217"/>
  <line x1="869" x2="1100" y1="265.5" y2="265.5" class="net_186,187,188,189,190,191,192,193,194,195,196,197,198,199,200,201,202,203,204,205,206,207,208,209,210,211,212,213,214,215,216,217"/>
  <line x1="732.25" x2="869" y1="288" y2="288" class="net_186,187,188,189,190,191,192,193,194,195,196,197,198,199,200,201,202,203,204,205,206,207,208,209,210,211,212,213,214,215,216,217"/>
  <line x1="869" x2="869" y1="288" y2="194" class="net_186,187,188,189,190,191,192,193,194,195,196,197,198,199,200,201,202,203,204,205,206,207,208,209,210,211,212,213,214,215,216,217"/>
  <line x1="869" x2="1224" y1="194" y2="194" class="net_186,187,188,189,190,191,192,193,194,195,196,197,198,199,200,201,202,203,204,205,206,207,208,209,210,211,212,213,214,215,216,217"/>
  <line x1="1224" x2="1224" y1="194" y2="596" class="net_186,187,188,189,190,191,192,193,194,195,196,197,198,199,200,201,202,203,204,205,206,207,208,209,210,211,212,213,214,215,216,217"/>
  <circle cx="1224" cy="194" r="2" style="fill:#000" class="net_186,187,188,189,190,191,192,193,194,195,196,197,198,199,200,201,202,203,204,205,206,207,208,209,210,211,212,213,214,215,216,217"/>
  <line x1="1224" x2="1371" y1="596" y2="596" class="net_186,187,188,189,190,191,192,193,194,195,196,197,198,199,200,201,202,203,204,205,206,207,208,209,210,211,212,213,214,215,216,217"/>
  <line x1="732.25" x2="869" y1="288" y2="288" class="net_186,187,188,189,190,191,192,193,194,195,196,197,198,199,200,201,202,203,204,205,206,207,208,209,210,211,212,213,214,215,216,217"/>
  <line x1="869" x2="869" y1="288" y2="194" class="net_186,187,188,189,190,191,192,193,194,195,196,197,198,199,200,201,202,203,204,205,206,207,208,209,210,211,212,213,214,215,216,217"/>
  <line x1="869" x2="1504" y1="194" y2="194" class="net_186,187,188,189,190,191,192,193,194,195,196,197,198,199,200,201,202,203,204,205,206,207,208,209,210,211,212,213,214,215,216,217"/>
  <line x1="732.25" x2="899" y1="308" y2="308" class="net_218,219,220,221,222,223,224,225,226,227,228,229,230,231,232,233,234,235,236,237,238,239,240,241,242,243,244,245,246,247,248,249"/>
  <line x1="899" x2="899" y1="308" y2="285.5" class="net_218,219,220,221,222,223,224,225,226,227,228,229,230,231,232,233,234,235,236,237,238,239,240,241,242,243,244,245,246,247,248,249"/>
  <circle cx="899" cy="308" r="2" style="fill:#000" class="net_218,219,220,221,222,223,224,225,226,227,228,229,230,231,232,233,234,235,236,237,238,239,240,241,242,243,244,245,246,247,248,249"/>
  <line x1="899" x2="1100" y1="285.5" y2="285.5" class="net_218,219,220,221,222,223,224,225,226,227,228,229,230,231,232,233,234,235,236,237,238,239,240,241,242,243,244,245,246,247,248,249"/>
  <line x1="732.25" x2="1504" y1="308" y2="308" class="net_218,219,220,221,222,223,224,225,226,227,228,229,230,231,232,233,234,235,236,237,238,239,240,241,242,243,244,245,246,247,248,249"/>
  <line x1="684" x2="919" y1="840.5" y2="840.5" class="net_445"/>
  <line x1="919" x2="919" y1="840.5" y2="536" class="net_445"/>
  <line x1="919" x2="1371" y1="536" y2="536" class="net_445"/>
  <line x1="684" x2="1234" y1="1020.5" y2="1020.5" class="net_250,251,252,253,254,255,256,257,258,259,260,261,262,263,264,265,266,267,268,269,270,271,272,273,274,275,276,277,278,279,280,281"/>
  <line x1="1234" x2="1234" y1="1020.5" y2="556" class="net_250,251,252,253,254,255,256,257,258,259,260,261,262,263,264,265,266,267,268,269,270,271,272,273,274,275,276,277,278,279,280,281"/>
  <circle cx="1234" cy="1020.5" r="2" style="fill:#000" class="net_250,251,252,253,254,255,256,257,258,259,260,261,262,263,264,265,266,267,268,269,270,271,272,273,274,275,276,277,278,279,280,281"/>
  <line x1="1234" x2="1371" y1="556" y2="556" class="net_250,251,252,253,254,255,256,257,258,259,260,261,262,263,264,265,266,267,268,269,270,271,272,273,274,275,276,277,278,279,280,281"/>
  <line x1="684" x2="1504" y1="1020.5" y2="1020.5" class="net_250,251,252,253,254,255,256,257,258,259,260,261,262,263,264,265,266,267,268,269,270,271,272,273,274,275,276,277,278,279,280,281"/>
  <line x1="425.57142857142856" x2="526" y1="1180.5" y2="1180.5" class="net_154,155,156,157,158,159,160,161,162,163,164,165,166,167,168,169,170,171,172,173,174,175,176,177,178,179,180,181,182,183,184,185"/>
  <line x1="526" x2="526" y1="1180.5" y2="129" class="net_154,155,156,157,158,159,160,161,162,163,164,165,166,167,168,169,170,171,172,173,174,175,176,177,178,179,180,181,182,183,184,185"/>
  <line x1="526" x2="1264" y1="129" y2="129" class="net_154,155,156,157,158,159,160,161,162,163,164,165,166,167,168,169,170,171,172,173,174,175,176,177,178,179,180,181,182,183,184,185"/>
  <line x1="1264" x2="1264" y1="129" y2="576" class="net_154,155,156,157,158,159,160,161,162,163,164,165,166,167,168,169,170,171,172,173,174,175,176,177,178,179,180,181,182,183,184,185"/>
  <circle cx="1264" cy="129" r="2" style="fill:#000" class="net_154,155,156,157,158,159,160,161,162,163,164,165,166,167,168,169,170,171,172,173,174,175,176,177,178,179,180,181,182,183,184,185"/>
  <line x1="1264" x2="1371" y1="576" y2="576" class="net_154,155,156,157,158,159,160,161,162,163,164,165,166,167,168,169,170,171,172,173,174,175,176,177,178,179,180,181,182,183,184,185"/>
  <line x1="425.57142857142856" x2="526" y1="1180.5" y2="1180.5" class="net_154,155,156,157,158,159,160,161,162,163,164,165,166,167,168,169,170,171,172,173,174,175,176,177,178,179,180,181,182,183,184,185"/>
  <line x1="526" x2="526" y1="1180.5" y2="129" class="net_154,155,156,157,158,159,160,161,162,163,164,165,166,167,168,169,170,171,172,173,174,175,176,177,178,179,180,181,182,183,184,185"/>
  <line x1="526" x2="1504" y1="129" y2="129" class="net_154,155,156,157,158,159,160,161,162,163,164,165,166,167,168,169,170,171,172,173,174,175,176,177,178,179,180,181,182,183,184,185"/>
  <line x1="425.57142857142856" x2="546" y1="1200.5" y2="1200.5" class="net_312,313,292,293,294,295,296,297,298,299,300,301,289,290,291,302,303,304,305,306,307,308,309,310,311,282,283,284,285,286,287,288"/>
  <line x1="546" x2="546" y1="1200.5" y2="700.5" class="net_312,313,292,293,294,295,296,297,298,299,300,301,289,290,291,302,303,304,305,306,307,308,309,310,311,282,283,284,285,286,287,288"/>
  <line x1="546" x2="653" y1="700.5" y2="700.5" class="net_312,313,292,293,294,295,296,297,298,299,300,301,289,290,291,302,303,304,305,306,307,308,309,310,311,282,283,284,285,286,287,288"/>
  <line x1="418" x2="506" y1="263" y2="263" class="net_75,76,77,78,79,80,81,82,83,84,85,86,87,88,89,90,91,92,93,94,95,96,97,98,99,100,101,102,103,104,105,106"/>
  <line x1="506" x2="506" y1="263" y2="308" class="net_75,76,77,78,79,80,81,82,83,84,85,86,87,88,89,90,91,92,93,94,95,96,97,98,99,100,101,102,103,104,105,106"/>
  <line x1="506" x2="701.25" y1="308" y2="308" class="net_75,76,77,78,79,80,81,82,83,84,85,86,87,88,89,90,91,92,93,94,95,96,97,98,99,100,101,102,103,104,105,106"/>
  <line x1="418" x2="701.25" y1="328" y2="328" class="net_5"/>
  <line x1="418" x2="536" y1="1375.5" y2="1375.5" class="net_70,71,72,73,74"/>
  <line x1="536" x2="536" y1="1375.5" y2="348" class="net_70,71,72,73,74"/>
  <line x1="536" x2="701.25" y1="348" y2="348" class="net_70,71,72,73,74"/>
  <line x1="425.57142857142856" x2="556" y1="1220.5" y2="1220.5" class="net_302,303,304,305,306"/>
  <line x1="556" x2="556" y1="1220.5" y2="368" class="net_302,303,304,305,306"/>
  <line x1="556" x2="701.25" y1="368" y2="368" class="net_302,303,304,305,306"/>
  <line x1="425.57142857142856" x2="556" y1="1220.5" y2="1220.5" class="net_302,303,304,305,306"/>
  <line x1="556" x2="556" y1="1220.5" y2="1085.5" class="net_302,303,304,305,306"/>
  <circle cx="556" cy="1085.5" r="2" style="fill:#000" class="net_302,303,304,305,306"/>
  <line x1="556" x2="1504" y1="1085.5" y2="1085.5" class="net_302,303,304,305,306"/>
  <line x1="425.57142857142856" x2="566" y1="1240.5" y2="1240.5" class="net_307,308,309,310,311"/>
  <line x1="566" x2="566" y1="1240.5" y2="388" class="net_307,308,309,310,311"/>
  <line x1="566" x2="701.25" y1="388" y2="388" class="net_307,308,309,310,311"/>
  <line x1="425.57142857142856" x2="566" y1="1240.5" y2="1240.5" class="net_307,308,309,310,311"/>
  <line x1="566" x2="566" y1="1240.5" y2="1150.5" class="net_307,308,309,310,311"/>
  <circle cx="566" cy="1150.5" r="2" style="fill:#000" class="net_307,308,309,310,311"/>
  <line x1="566" x2="1504" y1="1150.5" y2="1150.5" class="net_307,308,309,310,311"/>
  <line x1="1391.3333333333333" x2="1504" y1="373" y2="373" class="net_107"/>
  <line x1="1402" x2="1504" y1="536" y2="536" class="net_108,109,110,111,112,113,114,115,116,117,118,119,120,121,122,123,124,125,126,127,128,129,130,131,132,133,134,135,136,137,138,139"/>
  <line x1="684" x2="949" y1="900.5" y2="900.5" class="net_140"/>
  <line x1="949" x2="949" y1="900.5" y2="748.5" class="net_140"/>
  <line x1="949" x2="1504" y1="748.5" y2="748.5" class="net_140"/>
  <line x1="684" x2="929" y1="860.5" y2="860.5" class="net_141"/>
  <line x1="929" x2="929" y1="860.5" y2="618.5" class="net_141"/>
  <line x1="929" x2="1504" y1="618.5" y2="618.5" class="net_141"/>
  <line x1="684" x2="939" y1="880.5" y2="880.5" class="net_142"/>
  <line x1="939" x2="939" y1="880.5" y2="683.5" class="net_142"/>
  <line x1="939" x2="1504" y1="683.5" y2="683.5" class="net_142"/>
  <line x1="684" x2="959" y1="920.5" y2="920.5" class="net_143"/>
  <line x1="959" x2="959" y1="920.5" y2="813.5" class="net_143"/>
  <line x1="959" x2="1504" y1="813.5" y2="813.5" class="net_143"/>
  <line x1="1376.25" x2="1504" y1="441" y2="441" class="net_144,145,146,147,148,149"/>
  <line x1="1376" x2="1504" y1="878.5" y2="878.5" class="net_150,151"/>
  <line x1="1376" x2="1504" y1="955.5" y2="955.5" class="net_152,153"/>
  <line x1="425.57142857142856" x2="576" y1="1260.5" y2="1260.5" class="net_282,283,284,285,286,287,288"/>
  <line x1="576" x2="576" y1="1260.5" y2="1215.5" class="net_282,283,284,285,286,287,288"/>
  <line x1="576" x2="1504" y1="1215.5" y2="1215.5" class="net_282,283,284,285,286,287,288"/>
  <line x1="425.07142857142856" x2="425.07142857142856" y1="1160" y2="1138" class="net_289,290,291"/>
  <line x1="425.07142857142856" x2="516" y1="1138" y2="1138" class="net_289,290,291"/>
  <line x1="516" x2="516" y1="1138" y2="64" class="net_289,290,291"/>
  <circle cx="516" cy="64" r="2" style="fill:#000" class="net_289,290,291"/>
  <line x1="516" x2="1504" y1="64" y2="64" class="net_289,290,291"/>
  <line x1="425.07142857142856" x2="425.07142857142856" y1="1160" y2="1138" class="net_289,290,291"/>
  <line x1="425.07142857142856" x2="516" y1="1138" y2="1138" class="net_289,290,291"/>
  <line x1="516" x2="516" y1="1138" y2="24.5" class="net_289,290,291"/>
  <line x1="516" x2="712" y1="24.5" y2="24.5" class="net_289,290,291"/>
  <line x1="425.57142857142856" x2="1504" y1="1280.5" y2="1280.5" class="net_292,293,294,295,296"/>
  <line x1="425.07142857142856" x2="425.07142857142856" y1="1301" y2="1345.5" class="net_297,298,299,300,301"/>
  <line x1="425.07142857142856" x2="1504" y1="1345.5" y2="1345.5" class="net_297,298,299,300,301"/>
  <line x1="42" x2="160" y1="1125.5" y2="1125.5" class="net_6,7,8,9,10,11,12,13,14,15,16,17,18,19,20,21,22,23,24,25,26,27,28,29,30,31,32,33,34,35,36,37"/>
  <line x1="160" x2="160" y1="1125.5" y2="1170.5" class="net_6,7,8,9,10,11,12,13,14,15,16,17,18,19,20,21,22,23,24,25,26,27,28,29,30,31,32,33,34,35,36,37"/>
  <line x1="160" x2="210" y1="1170.5" y2="1170.5" class="net_6,7,8,9,10,11,12,13,14,15,16,17,18,19,20,21,22,23,24,25,26,27,28,29,30,31,32,33,34,35,36,37"/>
  <line x1="42" x2="210" y1="1190.5" y2="1190.5" class="net_38,39,40,41,42,43,44,45,46,47,48,49,50,51,52,53,54,55,56,57,58,59,60,61,62,63,64,65,66,67,68,69"/>
  <line x1="419" x2="712" y1="44.5" y2="44.5" class="net_512"/>
  <line x1="684" x2="879" y1="720.5" y2="720.5" class="net_144,145"/>
  <line x1="879" x2="879" y1="720.5" y2="431" class="net_144,145"/>
  <line x1="879" x2="1370.25" y1="431" y2="431" class="net_144,145"/>
  <line x1="684" x2="899" y1="740.5" y2="740.5" class="net_146,147"/>
  <line x1="899" x2="899" y1="740.5" y2="514" class="net_146,147"/>
  <line x1="899" x2="1244" y1="514" y2="514" class="net_146,147"/>
  <line x1="1244" x2="1244" y1="514" y2="451" class="net_146,147"/>
  <line x1="1244" x2="1370.25" y1="451" y2="451" class="net_146,147"/>
  <line x1="684" x2="869" y1="700.5" y2="700.5" class="net_148,149"/>
  <line x1="869" x2="869" y1="700.5" y2="420" class="net_148,149"/>
  <line x1="869" x2="1254" y1="420" y2="420" class="net_148,149"/>
  <line x1="1254" x2="1254" y1="420" y2="471" class="net_148,149"/>
  <line x1="1254" x2="1370.25" y1="471" y2="471" class="net_148,149"/>
  <line x1="684" x2="969" y1="940.5" y2="940.5" class="net_150"/>
  <line x1="969" x2="969" y1="940.5" y2="877.5" class="net_150"/>
  <line x1="969" x2="1244" y1="877.5" y2="877.5" class="net_150"/>
  <line x1="1244" x2="1244" y1="877.5" y2="868.5" class="net_150"/>
  <line x1="1244" x2="1370" y1="868.5" y2="868.5" class="net_150"/>
  <line x1="684" x2="979" y1="960.5" y2="960.5" class="net_151"/>
  <line x1="979" x2="979" y1="960.5" y2="888.5" class="net_151"/>
  <line x1="979" x2="1370" y1="888.5" y2="888.5" class="net_151"/>
  <line x1="684" x2="989" y1="980.5" y2="980.5" class="net_152"/>
  <line x1="989" x2="989" y1="980.5" y2="954.5" class="net_152"/>
  <line x1="989" x2="1244" y1="954.5" y2="954.5" class="net_152"/>
  <line x1="1244" x2="1244" y1="954.5" y2="945.5" class="net_152"/>
  <line x1="1244" x2="1370" y1="945.5" y2="945.5" class="net_152"/>
  <line x1="684" x2="999" y1="1000.5" y2="1000.5" class="net_153"/>
  <line x1="999" x2="999" y1="1000.5" y2="965.5" class="net_153"/>
  <line x1="999" x2="1370" y1="965.5" y2="965.5" class="net_153"/>
</svg>
