<svg xmlns="http://www.w3.org/2000/svg" xmlns:xlink="http://www.w3.org/1999/xlink" xmlns:s="https://github.com/nturley/netlistsvg" width="1159" height="586">
  <style>  svg {
      stroke: #011e41;
      fill: none;
    }
    text {
      fill:#ffffff;
      stroke:none;
      font-size:10px;
      font-weight: bold;
      font-family: "Courier New", monospace;
    }
    .fill-1 { fill: #003262; }
    .fill-2 { fill: #011e41; stroke: #003262; }
    .fill-3 { fill: #ffffff; }
    .fill-4 { fill: #003262; }
    .fill-5 { fill: #011e41; stroke: #fdda64; }
    .text-1 { fill: #fdb515; }
    .text-2 { fill: #003262; }
    .text-3 { stroke: #fdda64; }
    .nodelabel { text-anchor: middle; }
    .inputPortLabel { text-anchor: end; }
    .splitjoinBody { fill: #3c3c43; }</style>
  <g s:type="eq" transform="translate(254.66666666666666,77)" s:width="25" s:height="25" id="cell_\10">
    <s:alias val="$eq"/>
    <s:alias val="$eqx"/>
    <circle r="12.5" cx="12.5" cy="12.5" class="cell_\10 fill-1"/>
    <line x1="7.5" x2="17.5" y1="10" y2="10" class="cell_\10 text-3"/>
    <line x1="7.5" x2="17.5" y1="15" y2="15" class="cell_\10 text-3"/>
    <g s:x="2" s:y="5" s:pid="A"/>
    <g s:x="2" s:y="20" s:pid="B"/>
    <g s:x="25" s:y="12.5" s:pid="Y"/>
  </g>
  <g s:type="and" transform="translate(452,84.5)" s:width="30" s:height="25" id="cell_\11">
    <s:alias val="$and"/>
    <s:alias val="$logic_and"/>
    <s:alias val="$_AND_"/>
    <s:alias val="$reduce_and"/>
    <path d="M0,0 L0,25 L15,25 A15 12.5 0 0 0 15,0 Z" class="cell_\11 fill-1"/>
    <g s:x="0" s:y="5" s:pid="A"/>
    <g s:x="0" s:y="20" s:pid="B"/>
    <g s:x="30" s:y="12.5" s:pid="Y"/>
  </g>
  <g s:type="or" transform="translate(475,274)" s:width="30" s:height="25" id="cell_\13">
    <s:alias val="$or"/>
    <s:alias val="$logic_or"/>
    <s:alias val="$_OR_"/>
    <s:alias val="$reduce_or"/>
    <s:alias val="$reduce_bool"/>
    <path d="M0,0 A30 25 0 0 1 0,25 A30 25 0 0 0 30,12.5 A30 25 0 0 0 0,0" class="cell_\13 fill-1"/>
    <g s:x="2" s:y="5" s:pid="A"/>
    <g s:x="2" s:y="20" s:pid="B"/>
    <g s:x="30" s:y="12.5" s:pid="Y"/>
  </g>
  <g s:type="and" transform="translate(655,77)" s:width="30" s:height="25" id="cell_\14">
    <s:alias val="$and"/>
    <s:alias val="$logic_and"/>
    <s:alias val="$_AND_"/>
    <s:alias val="$reduce_and"/>
    <path d="M0,0 L0,25 L15,25 A15 12.5 0 0 0 15,0 Z" class="cell_\14 fill-1"/>
    <g s:x="0" s:y="5" s:pid="A"/>
    <g s:x="0" s:y="20" s:pid="B"/>
    <g s:x="30" s:y="12.5" s:pid="Y"/>
  </g>
  <g s:type="mux" transform="translate(820.3333333333334,127)" s:width="20" s:height="40" id="cell_\15">
    <s:alias val="$pmux"/>
    <s:alias val="$mux"/>
    <s:alias val="$_MUX_"/>
    <path d="M0,0 L20,10 L20,30 L0,40 Z" class="cell_\15 fill-1"/>
    <text x="5" y="32" class="nodelabel cell_\15" s:attribute="">1</text>
    <text x="5" y="13" class="nodelabel cell_\15" s:attribute="">0</text>
    <g s:x="0" s:y="10" s:pid="A"/>
    <g s:x="0" s:y="30" s:pid="B"/>
    <g s:x="10" s:y="35" s:pid="S"/>
    <g s:x="20" s:y="20" s:pid="Y"/>
  </g>
  <g s:type="eq" transform="translate(656.6666666666666,541.5)" s:width="25" s:height="25" id="cell_\18">
    <s:alias val="$eq"/>
    <s:alias val="$eqx"/>
    <circle r="12.5" cx="12.5" cy="12.5" class="cell_\18 fill-1"/>
    <line x1="7.5" x2="17.5" y1="10" y2="10" class="cell_\18 text-3"/>
    <line x1="7.5" x2="17.5" y1="15" y2="15" class="cell_\18 text-3"/>
    <g s:x="2" s:y="5" s:pid="A"/>
    <g s:x="2" s:y="20" s:pid="B"/>
    <g s:x="25" s:y="12.5" s:pid="Y"/>
  </g>
  <g s:type="and" transform="translate(817,549)" s:width="30" s:height="25" id="cell_\19">
    <s:alias val="$and"/>
    <s:alias val="$logic_and"/>
    <s:alias val="$_AND_"/>
    <s:alias val="$reduce_and"/>
    <path d="M0,0 L0,25 L15,25 A15 12.5 0 0 0 15,0 Z" class="cell_\19 fill-1"/>
    <g s:x="0" s:y="5" s:pid="A"/>
    <g s:x="0" s:y="20" s:pid="B"/>
    <g s:x="30" s:y="12.5" s:pid="Y"/>
  </g>
  <g s:type="or" transform="translate(817,489)" s:width="30" s:height="25" id="cell_\21">
    <s:alias val="$or"/>
    <s:alias val="$logic_or"/>
    <s:alias val="$_OR_"/>
    <s:alias val="$reduce_or"/>
    <s:alias val="$reduce_bool"/>
    <path d="M0,0 A30 25 0 0 1 0,25 A30 25 0 0 0 30,12.5 A30 25 0 0 0 0,0" class="cell_\21 fill-1"/>
    <g s:x="2" s:y="5" s:pid="A"/>
    <g s:x="2" s:y="20" s:pid="B"/>
    <g s:x="30" s:y="12.5" s:pid="Y"/>
  </g>
  <g s:type="and" transform="translate(883,496.5)" s:width="30" s:height="25" id="cell_\22">
    <s:alias val="$and"/>
    <s:alias val="$logic_and"/>
    <s:alias val="$_AND_"/>
    <s:alias val="$reduce_and"/>
    <path d="M0,0 L0,25 L15,25 A15 12.5 0 0 0 15,0 Z" class="cell_\22 fill-1"/>
    <g s:x="0" s:y="5" s:pid="A"/>
    <g s:x="0" s:y="20" s:pid="B"/>
    <g s:x="30" s:y="12.5" s:pid="Y"/>
  </g>
  <g s:type="mux" transform="translate(948,416.5)" s:width="20" s:height="40" id="cell_\23">
    <s:alias val="$pmux"/>
    <s:alias val="$mux"/>
    <s:alias val="$_MUX_"/>
    <path d="M0,0 L20,10 L20,30 L0,40 Z" class="cell_\23 fill-1"/>
    <text x="5" y="32" class="nodelabel cell_\23" s:attribute="">1</text>
    <text x="5" y="13" class="nodelabel cell_\23" s:attribute="">0</text>
    <g s:x="0" s:y="10" s:pid="A"/>
    <g s:x="0" s:y="30" s:pid="B"/>
    <g s:x="10" s:y="35" s:pid="S"/>
    <g s:x="20" s:y="20" s:pid="Y"/>
  </g>
  <g s:type="eq" transform="translate(254.66666666666666,326.5)" s:width="25" s:height="25" id="cell_\25">
    <s:alias val="$eq"/>
    <s:alias val="$eqx"/>
    <circle r="12.5" cx="12.5" cy="12.5" class="cell_\25 fill-1"/>
    <line x1="7.5" x2="17.5" y1="10" y2="10" class="cell_\25 text-3"/>
    <line x1="7.5" x2="17.5" y1="15" y2="15" class="cell_\25 text-3"/>
    <g s:x="2" s:y="5" s:pid="A"/>
    <g s:x="2" s:y="20" s:pid="B"/>
    <g s:x="25" s:y="12.5" s:pid="Y"/>
  </g>
  <g s:type="and" transform="translate(452,334)" s:width="30" s:height="25" id="cell_\26">
    <s:alias val="$and"/>
    <s:alias val="$logic_and"/>
    <s:alias val="$_AND_"/>
    <s:alias val="$reduce_and"/>
    <path d="M0,0 L0,25 L15,25 A15 12.5 0 0 0 15,0 Z" class="cell_\26 fill-1"/>
    <g s:x="0" s:y="5" s:pid="A"/>
    <g s:x="0" s:y="20" s:pid="B"/>
    <g s:x="30" s:y="12.5" s:pid="Y"/>
  </g>
  <g s:type="and" transform="translate(655,281.5)" s:width="30" s:height="25" id="cell_\29">
    <s:alias val="$and"/>
    <s:alias val="$logic_and"/>
    <s:alias val="$_AND_"/>
    <s:alias val="$reduce_and"/>
    <path d="M0,0 L0,25 L15,25 A15 12.5 0 0 0 15,0 Z" class="cell_\29 fill-1"/>
    <g s:x="0" s:y="5" s:pid="A"/>
    <g s:x="0" s:y="20" s:pid="B"/>
    <g s:x="30" s:y="12.5" s:pid="Y"/>
  </g>
  <g s:type="eq" transform="translate(656.6666666666666,394)" s:width="25" s:height="25" id="cell_\3">
    <s:alias val="$eq"/>
    <s:alias val="$eqx"/>
    <circle r="12.5" cx="12.5" cy="12.5" class="cell_\3 fill-1"/>
    <line x1="7.5" x2="17.5" y1="10" y2="10" class="cell_\3 text-3"/>
    <line x1="7.5" x2="17.5" y1="15" y2="15" class="cell_\3 text-3"/>
    <g s:x="2" s:y="5" s:pid="A"/>
    <g s:x="2" s:y="20" s:pid="B"/>
    <g s:x="25" s:y="12.5" s:pid="Y"/>
  </g>
  <g s:type="mux" transform="translate(820.3333333333334,233)" s:width="20" s:height="40" id="cell_\30">
    <s:alias val="$pmux"/>
    <s:alias val="$mux"/>
    <s:alias val="$_MUX_"/>
    <path d="M0,0 L20,10 L20,30 L0,40 Z" class="cell_\30 fill-1"/>
    <text x="5" y="32" class="nodelabel cell_\30" s:attribute="">1</text>
    <text x="5" y="13" class="nodelabel cell_\30" s:attribute="">0</text>
    <g s:x="0" s:y="10" s:pid="A"/>
    <g s:x="0" s:y="30" s:pid="B"/>
    <g s:x="10" s:y="35" s:pid="S"/>
    <g s:x="20" s:y="20" s:pid="Y"/>
  </g>
  <g s:type="and" transform="translate(817,401.5)" s:width="30" s:height="25" id="cell_\4">
    <s:alias val="$and"/>
    <s:alias val="$logic_and"/>
    <s:alias val="$_AND_"/>
    <s:alias val="$reduce_and"/>
    <path d="M0,0 L0,25 L15,25 A15 12.5 0 0 0 15,0 Z" class="cell_\4 fill-1"/>
    <g s:x="0" s:y="5" s:pid="A"/>
    <g s:x="0" s:y="20" s:pid="B"/>
    <g s:x="30" s:y="12.5" s:pid="Y"/>
  </g>
  <g s:type="and" transform="translate(883,394)" s:width="30" s:height="25" id="cell_\7">
    <s:alias val="$and"/>
    <s:alias val="$logic_and"/>
    <s:alias val="$_AND_"/>
    <s:alias val="$reduce_and"/>
    <path d="M0,0 L0,25 L15,25 A15 12.5 0 0 0 15,0 Z" class="cell_\7 fill-1"/>
    <g s:x="0" s:y="5" s:pid="A"/>
    <g s:x="0" s:y="20" s:pid="B"/>
    <g s:x="30" s:y="12.5" s:pid="Y"/>
  </g>
  <g s:type="mux" transform="translate(948,147)" s:width="20" s:height="40" id="cell_\8">
    <s:alias val="$pmux"/>
    <s:alias val="$mux"/>
    <s:alias val="$_MUX_"/>
    <path d="M0,0 L20,10 L20,30 L0,40 Z" class="cell_\8 fill-1"/>
    <text x="5" y="32" class="nodelabel cell_\8" s:attribute="">1</text>
    <text x="5" y="13" class="nodelabel cell_\8" s:attribute="">0</text>
    <g s:x="0" s:y="10" s:pid="A"/>
    <g s:x="0" s:y="30" s:pid="B"/>
    <g s:x="10" s:y="35" s:pid="S"/>
    <g s:x="20" s:y="20" s:pid="Y"/>
  </g>
  <g s:type="inputExt" transform="translate(12,22)" s:width="30" s:height="20" id="cell_stage_ex_select_source_1">
    <text x="15" y="-4" class="nodelabel text-1 cell_stage_ex_select_source_1" s:attribute="ref">stage_ex_select_source_1</text>
    <s:alias val="$_inputExt_"/>
    <path d="M0,0 L0,20 L15,20 L30,10 L15,0 Z" class="cell_stage_ex_select_source_1 fill-4"/>
    <g s:x="30" s:y="10" s:pid="Y"/>
  </g>
  <g s:type="inputExt" transform="translate(12,321.5)" s:width="30" s:height="20" id="cell_stage_ex_select_source_2">
    <text x="15" y="-4" class="nodelabel text-1 cell_stage_ex_select_source_2" s:attribute="ref">stage_ex_select_source_2</text>
    <s:alias val="$_inputExt_"/>
    <path d="M0,0 L0,20 L15,20 L30,10 L15,0 Z" class="cell_stage_ex_select_source_2 fill-4"/>
    <g s:x="30" s:y="10" s:pid="Y"/>
  </g>
  <g s:type="inputExt" transform="translate(609,464)" s:width="30" s:height="20" id="cell_stage_mem_enable_destination">
    <text x="15" y="-4" class="nodelabel text-1 cell_stage_mem_enable_destination" s:attribute="ref">stage_mem_enable_destination</text>
    <s:alias val="$_inputExt_"/>
    <path d="M0,0 L0,20 L15,20 L30,10 L15,0 Z" class="cell_stage_mem_enable_destination fill-4"/>
    <g s:x="30" s:y="10" s:pid="Y"/>
  </g>
  <g s:type="inputExt" transform="translate(406,404)" s:width="30" s:height="20" id="cell_stage_mem_select_destination">
    <text x="15" y="-4" class="nodelabel text-1 cell_stage_mem_select_destination" s:attribute="ref">stage_mem_select_destination</text>
    <s:alias val="$_inputExt_"/>
    <path d="M0,0 L0,20 L15,20 L30,10 L15,0 Z" class="cell_stage_mem_select_destination fill-4"/>
    <g s:x="30" s:y="10" s:pid="Y"/>
  </g>
  <g s:type="inputExt" transform="translate(209,147)" s:width="30" s:height="20" id="cell_stage_wb_enable_destination">
    <text x="15" y="-4" class="nodelabel text-1 cell_stage_wb_enable_destination" s:attribute="ref">stage_wb_enable_destination</text>
    <s:alias val="$_inputExt_"/>
    <path d="M0,0 L0,20 L15,20 L30,10 L15,0 Z" class="cell_stage_wb_enable_destination fill-4"/>
    <g s:x="30" s:y="10" s:pid="Y"/>
  </g>
  <g s:type="inputExt" transform="translate(12,87)" s:width="30" s:height="20" id="cell_stage_wb_select_destination">
    <text x="15" y="-4" class="nodelabel text-1 cell_stage_wb_select_destination" s:attribute="ref">stage_wb_select_destination</text>
    <s:alias val="$_inputExt_"/>
    <path d="M0,0 L0,20 L15,20 L30,10 L15,0 Z" class="cell_stage_wb_select_destination fill-4"/>
    <g s:x="30" s:y="10" s:pid="Y"/>
  </g>
  <g s:type="outputExt" transform="translate(1003,157)" s:width="30" s:height="20" id="cell_stage_id_select_source_1">
    <text x="15" y="-4" class="nodelabel text-1 cell_stage_id_select_source_1" s:attribute="ref">stage_id_select_source_1</text>
    <s:alias val="$_outputExt_"/>
    <path d="M30,0 L30,20 L15,20 L0,10 L15,0 Z" class="cell_stage_id_select_source_1 fill-4"/>
    <g s:x="0" s:y="10" s:pid="A"/>
  </g>
  <g s:type="outputExt" transform="translate(1003,426.5)" s:width="30" s:height="20" id="cell_stage_id_select_source_2">
    <text x="15" y="-4" class="nodelabel text-1 cell_stage_id_select_source_2" s:attribute="ref">stage_id_select_source_2</text>
    <s:alias val="$_outputExt_"/>
    <path d="M30,0 L30,20 L15,20 L0,10 L15,0 Z" class="cell_stage_id_select_source_2 fill-4"/>
    <g s:x="0" s:y="10" s:pid="A"/>
  </g>
  <g s:type="constant" transform="translate(609,212)" s:width="30" s:height="20" id="cell_0">
    <text x="15" y="-4" class="nodelabel text-1 cell_0" s:attribute="ref">0</text>
    <s:alias val="$_constant_"/>
    <rect width="30" height="20" class="cell_0 fill-4"/>
    <g s:x="31" s:y="10" s:pid="Y"/>
  </g>
  <g s:type="constant" transform="translate(609,147)" s:width="30" s:height="20" id="cell_1">
    <text x="15" y="-4" class="nodelabel text-1 cell_1" s:attribute="ref">1</text>
    <s:alias val="$_constant_"/>
    <rect width="30" height="20" class="cell_1 fill-4"/>
    <g s:x="31" s:y="10" s:pid="Y"/>
  </g>
  <g s:type="constant" transform="translate(882,327.5)" s:width="30" s:height="20" id="cell_10">
    <text x="15" y="-4" class="nodelabel text-1 cell_10" s:attribute="ref">10</text>
    <s:alias val="$_constant_"/>
    <rect width="30" height="20" class="cell_10 fill-4"/>
    <g s:x="31" s:y="10" s:pid="Y"/>
  </g>
  <g s:type="join" transform="translate(893.3333333333334,242.5)" s:width="4" s:height="40" id="cell_$join$,37,44,">
    <rect width="5" height="40" class="splitjoinBody" s:generic="body"/>
    <s:alias val="$_join_"/>
    <g s:x="5" s:y="20" s:pid="out"/>
    <g transform="translate(0,10)" s:x="0" s:y="10" s:pid="in0">
      <text x="-3" y="-4" class="inputPortLabel text-2">0</text>
    </g>
    <g transform="translate(0,30)" s:x="0" s:y="10" s:pid="in0">
      <text x="-3" y="-4" class="inputPortLabel text-2">1</text>
    </g>
  </g>
  <g s:type="join" transform="translate(893.3333333333334,136.5)" s:width="4" s:height="40" id="cell_$join$,32,44,">
    <rect width="5" height="40" class="splitjoinBody" s:generic="body"/>
    <s:alias val="$_join_"/>
    <g s:x="5" s:y="20" s:pid="out"/>
    <g transform="translate(0,10)" s:x="0" s:y="10" s:pid="in0">
      <text x="-3" y="-4" class="inputPortLabel text-2">0</text>
    </g>
    <g transform="translate(0,30)" s:x="0" s:y="10" s:pid="in0">
      <text x="-3" y="-4" class="inputPortLabel text-2">1</text>
    </g>
  </g>
  <line x1="42" x2="184" y1="32" y2="32" class="net_2,3,4,5,6"/>
  <line x1="184" x2="184" y1="32" y2="82" class="net_2,3,4,5,6"/>
  <circle cx="184" cy="32" r="2" style="fill:#000" class="net_2,3,4,5,6"/>
  <line x1="184" x2="256.66666666666663" y1="82" y2="82" class="net_2,3,4,5,6"/>
  <line x1="42" x2="584" y1="32" y2="32" class="net_2,3,4,5,6"/>
  <line x1="584" x2="584" y1="32" y2="399" class="net_2,3,4,5,6"/>
  <line x1="584" x2="658.6666666666666" y1="399" y2="399" class="net_2,3,4,5,6"/>
  <line x1="42" x2="256.66666666666663" y1="97" y2="97" class="net_19,20,21,22,23"/>
  <line x1="42" x2="194" y1="97" y2="97" class="net_19,20,21,22,23"/>
  <line x1="194" x2="194" y1="97" y2="279" class="net_19,20,21,22,23"/>
  <circle cx="194" cy="97" r="2" style="fill:#000" class="net_19,20,21,22,23"/>
  <circle cx="194" cy="279" r="2" style="fill:#000" class="net_19,20,21,22,23"/>
  <line x1="194" x2="477" y1="279" y2="279" class="net_19,20,21,22,23"/>
  <line x1="42" x2="194" y1="97" y2="97" class="net_19,20,21,22,23"/>
  <line x1="194" x2="194" y1="97" y2="346.5" class="net_19,20,21,22,23"/>
  <line x1="194" x2="256.66666666666663" y1="346.5" y2="346.5" class="net_19,20,21,22,23"/>
  <line x1="279.66666666666663" x2="452" y1="89.5" y2="89.5" class="net_28"/>
  <line x1="239" x2="381" y1="157" y2="157" class="net_18"/>
  <line x1="381" x2="381" y1="157" y2="104.5" class="net_18"/>
  <circle cx="381" cy="157" r="2" style="fill:#000" class="net_18"/>
  <line x1="381" x2="452" y1="104.5" y2="104.5" class="net_18"/>
  <line x1="239" x2="381" y1="157" y2="157" class="net_18"/>
  <line x1="381" x2="381" y1="157" y2="354" class="net_18"/>
  <line x1="381" x2="452" y1="354" y2="354" class="net_18"/>
  <line x1="505" x2="594" y1="286.5" y2="286.5" class="net_30"/>
  <line x1="594" x2="594" y1="286.5" y2="82" class="net_30"/>
  <circle cx="594" cy="286.5" r="2" style="fill:#000" class="net_30"/>
  <line x1="594" x2="655" y1="82" y2="82" class="net_30"/>
  <line x1="505" x2="655" y1="286.5" y2="286.5" class="net_30"/>
  <line x1="482" x2="655" y1="97" y2="97" class="net_29"/>
  <line x1="640" x2="797" y1="222" y2="222" class="net_44"/>
  <line x1="797" x2="797" y1="222" y2="137" class="net_44"/>
  <circle cx="797" cy="222" r="2" style="fill:#000" class="net_44"/>
  <line x1="797" x2="820.3333333333334" y1="137" y2="137" class="net_44"/>
  <line x1="640" x2="797" y1="222" y2="222" class="net_44"/>
  <line x1="797" x2="797" y1="222" y2="243" class="net_44"/>
  <circle cx="797" cy="243" r="2" style="fill:#000" class="net_44"/>
  <line x1="797" x2="820.3333333333334" y1="243" y2="243" class="net_44"/>
  <line x1="640" x2="797" y1="222" y2="222" class="net_44"/>
  <line x1="797" x2="797" y1="222" y2="283" class="net_44"/>
  <line x1="797" x2="857" y1="283" y2="283" class="net_44"/>
  <line x1="857" x2="857" y1="283" y2="273" class="net_44"/>
  <line x1="857" x2="893.3333333333334" y1="273" y2="273" class="net_44"/>
  <line x1="640" x2="857" y1="222" y2="222" class="net_44"/>
  <line x1="857" x2="857" y1="222" y2="167" class="net_44"/>
  <line x1="857" x2="893.3333333333334" y1="167" y2="167" class="net_44"/>
  <line x1="640" x2="820.3333333333334" y1="157" y2="157" class="net_45"/>
  <line x1="640" x2="787" y1="157" y2="157" class="net_45"/>
  <line x1="787" x2="787" y1="157" y2="263" class="net_45"/>
  <circle cx="787" cy="157" r="2" style="fill:#000" class="net_45"/>
  <line x1="787" x2="820.3333333333334" y1="263" y2="263" class="net_45"/>
  <line x1="685" x2="807" y1="89.5" y2="89.5" class="net_31"/>
  <line x1="807" x2="807" y1="89.5" y2="177" class="net_31"/>
  <line x1="807" x2="830.3333333333334" y1="177" y2="177" class="net_31"/>
  <line x1="830.3333333333334" x2="830.3333333333334" y1="177" y2="162" class="net_31"/>
  <line x1="42" x2="184" y1="331.5" y2="331.5" class="net_7,8,9,10,11"/>
  <line x1="184" x2="184" y1="331.5" y2="546.5" class="net_7,8,9,10,11"/>
  <circle cx="184" cy="331.5" r="2" style="fill:#000" class="net_7,8,9,10,11"/>
  <line x1="184" x2="658.6666666666666" y1="546.5" y2="546.5" class="net_7,8,9,10,11"/>
  <line x1="42" x2="256.66666666666663" y1="331.5" y2="331.5" class="net_7,8,9,10,11"/>
  <line x1="436" x2="584" y1="414" y2="414" class="net_13,14,15,16,17"/>
  <line x1="584" x2="584" y1="414" y2="561.5" class="net_13,14,15,16,17"/>
  <circle cx="584" cy="414" r="2" style="fill:#000" class="net_13,14,15,16,17"/>
  <line x1="584" x2="658.6666666666666" y1="561.5" y2="561.5" class="net_13,14,15,16,17"/>
  <line x1="436" x2="584" y1="414" y2="414" class="net_13,14,15,16,17"/>
  <line x1="584" x2="584" y1="414" y2="494" class="net_13,14,15,16,17"/>
  <circle cx="584" cy="494" r="2" style="fill:#000" class="net_13,14,15,16,17"/>
  <line x1="584" x2="819" y1="494" y2="494" class="net_13,14,15,16,17"/>
  <line x1="436" x2="658.6666666666666" y1="414" y2="414" class="net_13,14,15,16,17"/>
  <line x1="681.6666666666666" x2="817" y1="554" y2="554" class="net_33"/>
  <line x1="639" x2="787" y1="474" y2="474" class="net_12"/>
  <line x1="787" x2="787" y1="474" y2="569" class="net_12"/>
  <circle cx="787" cy="474" r="2" style="fill:#000" class="net_12"/>
  <line x1="787" x2="817" y1="569" y2="569" class="net_12"/>
  <line x1="639" x2="787" y1="474" y2="474" class="net_12"/>
  <line x1="787" x2="787" y1="474" y2="421.5" class="net_12"/>
  <line x1="787" x2="817" y1="421.5" y2="421.5" class="net_12"/>
  <line x1="847" x2="883" y1="501.5" y2="501.5" class="net_35"/>
  <line x1="847" x2="857" y1="501.5" y2="501.5" class="net_35"/>
  <line x1="857" x2="857" y1="501.5" y2="399" class="net_35"/>
  <circle cx="857" cy="501.5" r="2" style="fill:#000" class="net_35"/>
  <line x1="857" x2="883" y1="399" y2="399" class="net_35"/>
  <line x1="847" x2="857" y1="561.5" y2="561.5" class="net_34"/>
  <line x1="857" x2="857" y1="561.5" y2="516.5" class="net_34"/>
  <line x1="857" x2="883" y1="516.5" y2="516.5" class="net_34"/>
  <line x1="899.3333333333334" x2="933" y1="263" y2="263" class="net_37,44"/>
  <line x1="933" x2="933" y1="263" y2="426.5" class="net_37,44"/>
  <line x1="933" x2="948" y1="426.5" y2="426.5" class="net_37,44"/>
  <line x1="913" x2="923" y1="337.5" y2="337.5" class="net_47,48"/>
  <line x1="923" x2="923" y1="337.5" y2="446.5" class="net_47,48"/>
  <circle cx="923" cy="337.5" r="2" style="fill:#000" class="net_47,48"/>
  <line x1="923" x2="948" y1="446.5" y2="446.5" class="net_47,48"/>
  <line x1="913" x2="923" y1="337.5" y2="337.5" class="net_47,48"/>
  <line x1="923" x2="923" y1="337.5" y2="177" class="net_47,48"/>
  <line x1="923" x2="948" y1="177" y2="177" class="net_47,48"/>
  <line x1="913" x2="958" y1="509" y2="509" class="net_36"/>
  <line x1="958" x2="958" y1="509" y2="451.5" class="net_36"/>
  <line x1="279.66666666666663" x2="452" y1="339" y2="339" class="net_38"/>
  <line x1="482" x2="594" y1="346.5" y2="346.5" class="net_39"/>
  <line x1="594" x2="594" y1="346.5" y2="301.5" class="net_39"/>
  <line x1="594" x2="655" y1="301.5" y2="301.5" class="net_39"/>
  <line x1="685" x2="830.3333333333334" y1="294" y2="294" class="net_40"/>
  <line x1="830.3333333333334" x2="830.3333333333334" y1="294" y2="268" class="net_40"/>
  <line x1="681.6666666666666" x2="817" y1="406.5" y2="406.5" class="net_41"/>
  <line x1="847" x2="883" y1="414" y2="414" class="net_42"/>
  <line x1="899.3333333333334" x2="948" y1="157" y2="157" class="net_32,44"/>
  <line x1="913" x2="958" y1="406.5" y2="406.5" class="net_43"/>
  <line x1="958" x2="958" y1="406.5" y2="182" class="net_43"/>
  <line x1="968" x2="1003" y1="167" y2="167" class="net_24,25"/>
  <line x1="968" x2="1003" y1="436.5" y2="436.5" class="net_26,27"/>
  <line x1="840.3333333333334" x2="893.3333333333334" y1="253" y2="253" class="net_37"/>
  <line x1="840.3333333333334" x2="893.3333333333334" y1="147" y2="147" class="net_32"/>
</svg>
