<svg xmlns="http://www.w3.org/2000/svg" xmlns:xlink="http://www.w3.org/1999/xlink" xmlns:s="https://github.com/nturley/netlistsvg" width="1112" height="742">
  <style>  svg {
      stroke: #011e41;
      fill: none;
    }
    text {
      fill:#ffffff;
      stroke:none;
      font-size:10px;
      font-weight: bold;
      font-family: "Courier New", monospace;
    }
    .fill-1 { fill: #003262; }
    .fill-2 { fill: #011e41; stroke: #003262; }
    .fill-3 { fill: #ffffff; }
    .fill-4 { fill: #003262; }
    .fill-5 { fill: #011e41; stroke: #fdda64; }
    .text-1 { fill: #fdb515; }
    .text-2 { fill: #003262; }
    .text-3 { stroke: #fdda64; }
    .nodelabel { text-anchor: middle; }
    .inputPortLabel { text-anchor: end; }
    .splitjoinBody { fill: #3c3c43; }</style>
  <g s:type="not" transform="translate(234,149.5)" s:width="30" s:height="20" id="cell_$auto$opt_expr cc:712:replace_const_cells$59">
    <s:alias val="$_NOT_"/>
    <s:alias val="$not"/>
    <s:alias val="$logic_not"/>
    <path d="M0,0 L0,20 L20,10 Z" class="cell_$auto$opt_expr cc:712:replace_const_cells$59 fill-1"/>
    <circle cx="24" cy="10" r="3" class="cell_$auto$opt_expr cc:712:replace_const_cells$59 fill-3"/>
    <g s:x="-1" s:y="10" s:pid="A"/>
    <g s:x="27" s:y="10" s:pid="Y"/>
  </g>
  <g s:type="not" transform="translate(234,629.5)" s:width="30" s:height="20" id="cell_$auto$opt_expr cc:712:replace_const_cells$61">
    <s:alias val="$_NOT_"/>
    <s:alias val="$not"/>
    <s:alias val="$logic_not"/>
    <path d="M0,0 L0,20 L20,10 Z" class="cell_$auto$opt_expr cc:712:replace_const_cells$61 fill-1"/>
    <circle cx="24" cy="10" r="3" class="cell_$auto$opt_expr cc:712:replace_const_cells$61 fill-3"/>
    <g s:x="-1" s:y="10" s:pid="A"/>
    <g s:x="27" s:y="10" s:pid="Y"/>
  </g>
  <g s:type="and" transform="translate(415,144.5)" s:width="30" s:height="25" id="cell_\109">
    <s:alias val="$and"/>
    <s:alias val="$logic_and"/>
    <s:alias val="$_AND_"/>
    <s:alias val="$reduce_and"/>
    <path d="M0,0 L0,25 L15,25 A15 12.5 0 0 0 15,0 Z" class="cell_\109 fill-1"/>
    <g s:x="0" s:y="5" s:pid="A"/>
    <g s:x="0" s:y="20" s:pid="B"/>
    <g s:x="30" s:y="12.5" s:pid="Y"/>
  </g>
  <g s:type="and" transform="translate(350,212)" s:width="30" s:height="25" id="cell_\130">
    <s:alias val="$and"/>
    <s:alias val="$logic_and"/>
    <s:alias val="$_AND_"/>
    <s:alias val="$reduce_and"/>
    <path d="M0,0 L0,25 L15,25 A15 12.5 0 0 0 15,0 Z" class="cell_\130 fill-1"/>
    <g s:x="0" s:y="5" s:pid="A"/>
    <g s:x="0" s:y="20" s:pid="B"/>
    <g s:x="30" s:y="12.5" s:pid="Y"/>
  </g>
  <g s:type="and" transform="translate(415,204.5)" s:width="30" s:height="25" id="cell_\131">
    <s:alias val="$and"/>
    <s:alias val="$logic_and"/>
    <s:alias val="$_AND_"/>
    <s:alias val="$reduce_and"/>
    <path d="M0,0 L0,25 L15,25 A15 12.5 0 0 0 15,0 Z" class="cell_\131 fill-1"/>
    <g s:x="0" s:y="5" s:pid="A"/>
    <g s:x="0" s:y="20" s:pid="B"/>
    <g s:x="30" s:y="12.5" s:pid="Y"/>
  </g>
  <g s:type="and" transform="translate(480,152)" s:width="30" s:height="25" id="cell_\132">
    <s:alias val="$and"/>
    <s:alias val="$logic_and"/>
    <s:alias val="$_AND_"/>
    <s:alias val="$reduce_and"/>
    <path d="M0,0 L0,25 L15,25 A15 12.5 0 0 0 15,0 Z" class="cell_\132 fill-1"/>
    <g s:x="0" s:y="5" s:pid="A"/>
    <g s:x="0" s:y="20" s:pid="B"/>
    <g s:x="30" s:y="12.5" s:pid="Y"/>
  </g>
  <g s:type="not" transform="translate(546,154.5)" s:width="30" s:height="20" id="cell_\133">
    <s:alias val="$_NOT_"/>
    <s:alias val="$not"/>
    <s:alias val="$logic_not"/>
    <path d="M0,0 L0,20 L20,10 Z" class="cell_\133 fill-1"/>
    <circle cx="24" cy="10" r="3" class="cell_\133 fill-3"/>
    <g s:x="-1" s:y="10" s:pid="A"/>
    <g s:x="27" s:y="10" s:pid="Y"/>
  </g>
  <g s:type="and" transform="translate(838,135.5)" s:width="30" s:height="25" id="cell_\135">
    <s:alias val="$and"/>
    <s:alias val="$logic_and"/>
    <s:alias val="$_AND_"/>
    <s:alias val="$reduce_and"/>
    <path d="M0,0 L0,25 L15,25 A15 12.5 0 0 0 15,0 Z" class="cell_\135 fill-1"/>
    <g s:x="0" s:y="5" s:pid="A"/>
    <g s:x="0" s:y="20" s:pid="B"/>
    <g s:x="30" s:y="12.5" s:pid="Y"/>
  </g>
  <g s:type="reduce_nxor" transform="translate(230,387)" s:width="33" s:height="25" id="cell_\142">
    <s:alias val="$xnor"/>
    <s:alias val="$reduce_xnor"/>
    <s:alias val="$_XNOR_"/>
    <path d="M3,0 A30 25 0 0 1 3,25 A30 25 0 0 0 33,12.5 A30 25 0 0 0 3,0" class="cell_\142 fill-1"/>
    <path d="M0,0 A30 25 0 0 1 0,25" class="cell_\142"/>
    <circle cx="36" cy="12.5" r="3" class="cell_\142 fill-3"/>
    <g s:x="2" s:y="5" s:pid="A"/>
    <g s:x="2" s:y="20" s:pid="B"/>
    <g s:x="38" s:y="12.5" s:pid="Y"/>
  </g>
  <g s:type="and" transform="translate(415,384.5)" s:width="30" s:height="25" id="cell_\155">
    <s:alias val="$and"/>
    <s:alias val="$logic_and"/>
    <s:alias val="$_AND_"/>
    <s:alias val="$reduce_and"/>
    <path d="M0,0 L0,25 L15,25 A15 12.5 0 0 0 15,0 Z" class="cell_\155 fill-1"/>
    <g s:x="0" s:y="5" s:pid="A"/>
    <g s:x="0" s:y="20" s:pid="B"/>
    <g s:x="30" s:y="12.5" s:pid="Y"/>
  </g>
  <g s:type="and" transform="translate(350,452)" s:width="30" s:height="25" id="cell_\176">
    <s:alias val="$and"/>
    <s:alias val="$logic_and"/>
    <s:alias val="$_AND_"/>
    <s:alias val="$reduce_and"/>
    <path d="M0,0 L0,25 L15,25 A15 12.5 0 0 0 15,0 Z" class="cell_\176 fill-1"/>
    <g s:x="0" s:y="5" s:pid="A"/>
    <g s:x="0" s:y="20" s:pid="B"/>
    <g s:x="30" s:y="12.5" s:pid="Y"/>
  </g>
  <g s:type="and" transform="translate(415,444.5)" s:width="30" s:height="25" id="cell_\177">
    <s:alias val="$and"/>
    <s:alias val="$logic_and"/>
    <s:alias val="$_AND_"/>
    <s:alias val="$reduce_and"/>
    <path d="M0,0 L0,25 L15,25 A15 12.5 0 0 0 15,0 Z" class="cell_\177 fill-1"/>
    <g s:x="0" s:y="5" s:pid="A"/>
    <g s:x="0" s:y="20" s:pid="B"/>
    <g s:x="30" s:y="12.5" s:pid="Y"/>
  </g>
  <g s:type="and" transform="translate(480,392)" s:width="30" s:height="25" id="cell_\178">
    <s:alias val="$and"/>
    <s:alias val="$logic_and"/>
    <s:alias val="$_AND_"/>
    <s:alias val="$reduce_and"/>
    <path d="M0,0 L0,25 L15,25 A15 12.5 0 0 0 15,0 Z" class="cell_\178 fill-1"/>
    <g s:x="0" s:y="5" s:pid="A"/>
    <g s:x="0" s:y="20" s:pid="B"/>
    <g s:x="30" s:y="12.5" s:pid="Y"/>
  </g>
  <g s:type="reduce_nxor" transform="translate(230,507)" s:width="33" s:height="25" id="cell_\185">
    <s:alias val="$xnor"/>
    <s:alias val="$reduce_xnor"/>
    <s:alias val="$_XNOR_"/>
    <path d="M3,0 A30 25 0 0 1 3,25 A30 25 0 0 0 33,12.5 A30 25 0 0 0 3,0" class="cell_\185 fill-1"/>
    <path d="M0,0 A30 25 0 0 1 0,25" class="cell_\185"/>
    <circle cx="36" cy="12.5" r="3" class="cell_\185 fill-3"/>
    <g s:x="2" s:y="5" s:pid="A"/>
    <g s:x="2" s:y="20" s:pid="B"/>
    <g s:x="38" s:y="12.5" s:pid="Y"/>
  </g>
  <g s:type="and" transform="translate(415,504.5)" s:width="30" s:height="25" id="cell_\198">
    <s:alias val="$and"/>
    <s:alias val="$logic_and"/>
    <s:alias val="$_AND_"/>
    <s:alias val="$reduce_and"/>
    <path d="M0,0 L0,25 L15,25 A15 12.5 0 0 0 15,0 Z" class="cell_\198 fill-1"/>
    <g s:x="0" s:y="5" s:pid="A"/>
    <g s:x="0" s:y="20" s:pid="B"/>
    <g s:x="30" s:y="12.5" s:pid="Y"/>
  </g>
  <g s:type="and" transform="translate(415,24.5)" s:width="30" s:height="25" id="cell_\21">
    <s:alias val="$and"/>
    <s:alias val="$logic_and"/>
    <s:alias val="$_AND_"/>
    <s:alias val="$reduce_and"/>
    <path d="M0,0 L0,25 L15,25 A15 12.5 0 0 0 15,0 Z" class="cell_\21 fill-1"/>
    <g s:x="0" s:y="5" s:pid="A"/>
    <g s:x="0" s:y="20" s:pid="B"/>
    <g s:x="30" s:y="12.5" s:pid="Y"/>
  </g>
  <g s:type="and" transform="translate(350,572)" s:width="30" s:height="25" id="cell_\219">
    <s:alias val="$and"/>
    <s:alias val="$logic_and"/>
    <s:alias val="$_AND_"/>
    <s:alias val="$reduce_and"/>
    <path d="M0,0 L0,25 L15,25 A15 12.5 0 0 0 15,0 Z" class="cell_\219 fill-1"/>
    <g s:x="0" s:y="5" s:pid="A"/>
    <g s:x="0" s:y="20" s:pid="B"/>
    <g s:x="30" s:y="12.5" s:pid="Y"/>
  </g>
  <g s:type="and" transform="translate(415,564.5)" s:width="30" s:height="25" id="cell_\220">
    <s:alias val="$and"/>
    <s:alias val="$logic_and"/>
    <s:alias val="$_AND_"/>
    <s:alias val="$reduce_and"/>
    <path d="M0,0 L0,25 L15,25 A15 12.5 0 0 0 15,0 Z" class="cell_\220 fill-1"/>
    <g s:x="0" s:y="5" s:pid="A"/>
    <g s:x="0" s:y="20" s:pid="B"/>
    <g s:x="30" s:y="12.5" s:pid="Y"/>
  </g>
  <g s:type="and" transform="translate(480,512)" s:width="30" s:height="25" id="cell_\221">
    <s:alias val="$and"/>
    <s:alias val="$logic_and"/>
    <s:alias val="$_AND_"/>
    <s:alias val="$reduce_and"/>
    <path d="M0,0 L0,25 L15,25 A15 12.5 0 0 0 15,0 Z" class="cell_\221 fill-1"/>
    <g s:x="0" s:y="5" s:pid="A"/>
    <g s:x="0" s:y="20" s:pid="B"/>
    <g s:x="30" s:y="12.5" s:pid="Y"/>
  </g>
  <g s:type="or" transform="translate(545.6666666666666,399.5)" s:width="30" s:height="25" id="cell_\222">
    <s:alias val="$or"/>
    <s:alias val="$logic_or"/>
    <s:alias val="$_OR_"/>
    <s:alias val="$reduce_or"/>
    <s:alias val="$reduce_bool"/>
    <path d="M0,0 A30 25 0 0 1 0,25 A30 25 0 0 0 30,12.5 A30 25 0 0 0 0,0" class="cell_\222 fill-1"/>
    <g s:x="2" s:y="5" s:pid="A"/>
    <g s:x="2" s:y="20" s:pid="B"/>
    <g s:x="30" s:y="12.5" s:pid="Y"/>
  </g>
  <g s:type="and" transform="translate(415,624.5)" s:width="30" s:height="25" id="cell_\243">
    <s:alias val="$and"/>
    <s:alias val="$logic_and"/>
    <s:alias val="$_AND_"/>
    <s:alias val="$reduce_and"/>
    <path d="M0,0 L0,25 L15,25 A15 12.5 0 0 0 15,0 Z" class="cell_\243 fill-1"/>
    <g s:x="0" s:y="5" s:pid="A"/>
    <g s:x="0" s:y="20" s:pid="B"/>
    <g s:x="30" s:y="12.5" s:pid="Y"/>
  </g>
  <g s:type="and" transform="translate(350,692)" s:width="30" s:height="25" id="cell_\264">
    <s:alias val="$and"/>
    <s:alias val="$logic_and"/>
    <s:alias val="$_AND_"/>
    <s:alias val="$reduce_and"/>
    <path d="M0,0 L0,25 L15,25 A15 12.5 0 0 0 15,0 Z" class="cell_\264 fill-1"/>
    <g s:x="0" s:y="5" s:pid="A"/>
    <g s:x="0" s:y="20" s:pid="B"/>
    <g s:x="30" s:y="12.5" s:pid="Y"/>
  </g>
  <g s:type="and" transform="translate(415,684.5)" s:width="30" s:height="25" id="cell_\265">
    <s:alias val="$and"/>
    <s:alias val="$logic_and"/>
    <s:alias val="$_AND_"/>
    <s:alias val="$reduce_and"/>
    <path d="M0,0 L0,25 L15,25 A15 12.5 0 0 0 15,0 Z" class="cell_\265 fill-1"/>
    <g s:x="0" s:y="5" s:pid="A"/>
    <g s:x="0" s:y="20" s:pid="B"/>
    <g s:x="30" s:y="12.5" s:pid="Y"/>
  </g>
  <g s:type="and" transform="translate(480,632)" s:width="30" s:height="25" id="cell_\266">
    <s:alias val="$and"/>
    <s:alias val="$logic_and"/>
    <s:alias val="$_AND_"/>
    <s:alias val="$reduce_and"/>
    <path d="M0,0 L0,25 L15,25 A15 12.5 0 0 0 15,0 Z" class="cell_\266 fill-1"/>
    <g s:x="0" s:y="5" s:pid="A"/>
    <g s:x="0" s:y="20" s:pid="B"/>
    <g s:x="30" s:y="12.5" s:pid="Y"/>
  </g>
  <g s:type="not" transform="translate(546,634.5)" s:width="30" s:height="20" id="cell_\267">
    <s:alias val="$_NOT_"/>
    <s:alias val="$not"/>
    <s:alias val="$logic_not"/>
    <path d="M0,0 L0,20 L20,10 Z" class="cell_\267 fill-1"/>
    <circle cx="24" cy="10" r="3" class="cell_\267 fill-3"/>
    <g s:x="-1" s:y="10" s:pid="A"/>
    <g s:x="27" s:y="10" s:pid="Y"/>
  </g>
  <g s:type="and" transform="translate(655,407)" s:width="30" s:height="25" id="cell_\268">
    <s:alias val="$and"/>
    <s:alias val="$logic_and"/>
    <s:alias val="$_AND_"/>
    <s:alias val="$reduce_and"/>
    <path d="M0,0 L0,25 L15,25 A15 12.5 0 0 0 15,0 Z" class="cell_\268 fill-1"/>
    <g s:x="0" s:y="5" s:pid="A"/>
    <g s:x="0" s:y="20" s:pid="B"/>
    <g s:x="30" s:y="12.5" s:pid="Y"/>
  </g>
  <g s:type="and" transform="translate(838,414.5)" s:width="30" s:height="25" id="cell_\269">
    <s:alias val="$and"/>
    <s:alias val="$logic_and"/>
    <s:alias val="$_AND_"/>
    <s:alias val="$reduce_and"/>
    <path d="M0,0 L0,25 L15,25 A15 12.5 0 0 0 15,0 Z" class="cell_\269 fill-1"/>
    <g s:x="0" s:y="5" s:pid="A"/>
    <g s:x="0" s:y="20" s:pid="B"/>
    <g s:x="30" s:y="12.5" s:pid="Y"/>
  </g>
  <g s:type="or" transform="translate(963,143)" s:width="30" s:height="25" id="cell_\270">
    <s:alias val="$or"/>
    <s:alias val="$logic_or"/>
    <s:alias val="$_OR_"/>
    <s:alias val="$reduce_or"/>
    <s:alias val="$reduce_bool"/>
    <path d="M0,0 A30 25 0 0 1 0,25 A30 25 0 0 0 30,12.5 A30 25 0 0 0 0,0" class="cell_\270 fill-1"/>
    <g s:x="2" s:y="5" s:pid="A"/>
    <g s:x="2" s:y="20" s:pid="B"/>
    <g s:x="30" s:y="12.5" s:pid="Y"/>
  </g>
  <g s:type="reduce_nxor" transform="translate(230,27)" s:width="33" s:height="25" id="cell_\277">
    <s:alias val="$xnor"/>
    <s:alias val="$reduce_xnor"/>
    <s:alias val="$_XNOR_"/>
    <path d="M3,0 A30 25 0 0 1 3,25 A30 25 0 0 0 33,12.5 A30 25 0 0 0 3,0" class="cell_\277 fill-1"/>
    <path d="M0,0 A30 25 0 0 1 0,25" class="cell_\277"/>
    <circle cx="36" cy="12.5" r="3" class="cell_\277 fill-3"/>
    <g s:x="2" s:y="5" s:pid="A"/>
    <g s:x="2" s:y="20" s:pid="B"/>
    <g s:x="38" s:y="12.5" s:pid="Y"/>
  </g>
  <g s:type="and" transform="translate(350,92)" s:width="30" s:height="25" id="cell_\311">
    <s:alias val="$and"/>
    <s:alias val="$logic_and"/>
    <s:alias val="$_AND_"/>
    <s:alias val="$reduce_and"/>
    <path d="M0,0 L0,25 L15,25 A15 12.5 0 0 0 15,0 Z" class="cell_\311 fill-1"/>
    <g s:x="0" s:y="5" s:pid="A"/>
    <g s:x="0" s:y="20" s:pid="B"/>
    <g s:x="30" s:y="12.5" s:pid="Y"/>
  </g>
  <g s:type="and" transform="translate(415,84.5)" s:width="30" s:height="25" id="cell_\312">
    <s:alias val="$and"/>
    <s:alias val="$logic_and"/>
    <s:alias val="$_AND_"/>
    <s:alias val="$reduce_and"/>
    <path d="M0,0 L0,25 L15,25 A15 12.5 0 0 0 15,0 Z" class="cell_\312 fill-1"/>
    <g s:x="0" s:y="5" s:pid="A"/>
    <g s:x="0" s:y="20" s:pid="B"/>
    <g s:x="30" s:y="12.5" s:pid="Y"/>
  </g>
  <g s:type="and" transform="translate(480,32)" s:width="30" s:height="25" id="cell_\313">
    <s:alias val="$and"/>
    <s:alias val="$logic_and"/>
    <s:alias val="$_AND_"/>
    <s:alias val="$reduce_and"/>
    <path d="M0,0 L0,25 L15,25 A15 12.5 0 0 0 15,0 Z" class="cell_\313 fill-1"/>
    <g s:x="0" s:y="5" s:pid="A"/>
    <g s:x="0" s:y="20" s:pid="B"/>
    <g s:x="30" s:y="12.5" s:pid="Y"/>
  </g>
  <g s:type="reduce_nxor" transform="translate(230,267)" s:width="33" s:height="25" id="cell_\320">
    <s:alias val="$xnor"/>
    <s:alias val="$reduce_xnor"/>
    <s:alias val="$_XNOR_"/>
    <path d="M3,0 A30 25 0 0 1 3,25 A30 25 0 0 0 33,12.5 A30 25 0 0 0 3,0" class="cell_\320 fill-1"/>
    <path d="M0,0 A30 25 0 0 1 0,25" class="cell_\320"/>
    <circle cx="36" cy="12.5" r="3" class="cell_\320 fill-3"/>
    <g s:x="2" s:y="5" s:pid="A"/>
    <g s:x="2" s:y="20" s:pid="B"/>
    <g s:x="38" s:y="12.5" s:pid="Y"/>
  </g>
  <g s:type="and" transform="translate(415,264.5)" s:width="30" s:height="25" id="cell_\333">
    <s:alias val="$and"/>
    <s:alias val="$logic_and"/>
    <s:alias val="$_AND_"/>
    <s:alias val="$reduce_and"/>
    <path d="M0,0 L0,25 L15,25 A15 12.5 0 0 0 15,0 Z" class="cell_\333 fill-1"/>
    <g s:x="0" s:y="5" s:pid="A"/>
    <g s:x="0" s:y="20" s:pid="B"/>
    <g s:x="30" s:y="12.5" s:pid="Y"/>
  </g>
  <g s:type="and" transform="translate(350,332)" s:width="30" s:height="25" id="cell_\354">
    <s:alias val="$and"/>
    <s:alias val="$logic_and"/>
    <s:alias val="$_AND_"/>
    <s:alias val="$reduce_and"/>
    <path d="M0,0 L0,25 L15,25 A15 12.5 0 0 0 15,0 Z" class="cell_\354 fill-1"/>
    <g s:x="0" s:y="5" s:pid="A"/>
    <g s:x="0" s:y="20" s:pid="B"/>
    <g s:x="30" s:y="12.5" s:pid="Y"/>
  </g>
  <g s:type="and" transform="translate(415,324.5)" s:width="30" s:height="25" id="cell_\355">
    <s:alias val="$and"/>
    <s:alias val="$logic_and"/>
    <s:alias val="$_AND_"/>
    <s:alias val="$reduce_and"/>
    <path d="M0,0 L0,25 L15,25 A15 12.5 0 0 0 15,0 Z" class="cell_\355 fill-1"/>
    <g s:x="0" s:y="5" s:pid="A"/>
    <g s:x="0" s:y="20" s:pid="B"/>
    <g s:x="30" s:y="12.5" s:pid="Y"/>
  </g>
  <g s:type="and" transform="translate(480,272)" s:width="30" s:height="25" id="cell_\356">
    <s:alias val="$and"/>
    <s:alias val="$logic_and"/>
    <s:alias val="$_AND_"/>
    <s:alias val="$reduce_and"/>
    <path d="M0,0 L0,25 L15,25 A15 12.5 0 0 0 15,0 Z" class="cell_\356 fill-1"/>
    <g s:x="0" s:y="5" s:pid="A"/>
    <g s:x="0" s:y="20" s:pid="B"/>
    <g s:x="30" s:y="12.5" s:pid="Y"/>
  </g>
  <g s:type="or" transform="translate(545.6666666666666,39.5)" s:width="30" s:height="25" id="cell_\357">
    <s:alias val="$or"/>
    <s:alias val="$logic_or"/>
    <s:alias val="$_OR_"/>
    <s:alias val="$reduce_or"/>
    <s:alias val="$reduce_bool"/>
    <path d="M0,0 A30 25 0 0 1 0,25 A30 25 0 0 0 30,12.5 A30 25 0 0 0 0,0" class="cell_\357 fill-1"/>
    <g s:x="2" s:y="5" s:pid="A"/>
    <g s:x="2" s:y="20" s:pid="B"/>
    <g s:x="30" s:y="12.5" s:pid="Y"/>
  </g>
  <g s:type="and" transform="translate(655,47)" s:width="30" s:height="25" id="cell_\403">
    <s:alias val="$and"/>
    <s:alias val="$logic_and"/>
    <s:alias val="$_AND_"/>
    <s:alias val="$reduce_and"/>
    <path d="M0,0 L0,25 L15,25 A15 12.5 0 0 0 15,0 Z" class="cell_\403 fill-1"/>
    <g s:x="0" s:y="5" s:pid="A"/>
    <g s:x="0" s:y="20" s:pid="B"/>
    <g s:x="30" s:y="12.5" s:pid="Y"/>
  </g>
  <g s:type="and" transform="translate(963,54.5)" s:width="30" s:height="25" id="cell_\404">
    <s:alias val="$and"/>
    <s:alias val="$logic_and"/>
    <s:alias val="$_AND_"/>
    <s:alias val="$reduce_and"/>
    <path d="M0,0 L0,25 L15,25 A15 12.5 0 0 0 15,0 Z" class="cell_\404 fill-1"/>
    <g s:x="0" s:y="5" s:pid="A"/>
    <g s:x="0" s:y="20" s:pid="B"/>
    <g s:x="30" s:y="12.5" s:pid="Y"/>
  </g>
  <g s:type="inputExt" transform="translate(12,22)" s:width="30" s:height="20" id="cell_stage_id_select_source_1">
    <text x="15" y="-4" class="nodelabel text-1 cell_stage_id_select_source_1" s:attribute="ref">stage_id_select_source_1</text>
    <s:alias val="$_inputExt_"/>
    <path d="M0,0 L0,20 L15,20 L30,10 L15,0 Z" class="cell_stage_id_select_source_1 fill-4"/>
    <g s:x="30" s:y="10" s:pid="Y"/>
  </g>
  <g s:type="inputExt" transform="translate(12,262)" s:width="30" s:height="20" id="cell_stage_id_select_source_2">
    <text x="15" y="-4" class="nodelabel text-1 cell_stage_id_select_source_2" s:attribute="ref">stage_id_select_source_2</text>
    <s:alias val="$_inputExt_"/>
    <path d="M0,0 L0,20 L15,20 L30,10 L15,0 Z" class="cell_stage_id_select_source_2 fill-4"/>
    <g s:x="30" s:y="10" s:pid="Y"/>
  </g>
  <g s:type="inputExt" transform="translate(808,80.5)" s:width="30" s:height="20" id="cell_stage_ex_enable_read">
    <text x="15" y="-4" class="nodelabel text-1 cell_stage_ex_enable_read" s:attribute="ref">stage_ex_enable_read</text>
    <s:alias val="$_inputExt_"/>
    <path d="M0,0 L0,20 L15,20 L30,10 L15,0 Z" class="cell_stage_ex_enable_read fill-4"/>
    <g s:x="30" s:y="10" s:pid="Y"/>
  </g>
  <g s:type="inputExt" transform="translate(611,145.5)" s:width="30" s:height="20" id="cell_stage_ex_enable_destination">
    <text x="15" y="-4" class="nodelabel text-1 cell_stage_ex_enable_destination" s:attribute="ref">stage_ex_enable_destination</text>
    <s:alias val="$_inputExt_"/>
    <path d="M0,0 L0,20 L15,20 L30,10 L15,0 Z" class="cell_stage_ex_enable_destination fill-4"/>
    <g s:x="30" s:y="10" s:pid="Y"/>
  </g>
  <g s:type="inputExt" transform="translate(12,149.5)" s:width="30" s:height="20" id="cell_stage_ex_select_destination">
    <text x="15" y="-4" class="nodelabel text-1 cell_stage_ex_select_destination" s:attribute="ref">stage_ex_select_destination</text>
    <s:alias val="$_inputExt_"/>
    <path d="M0,0 L0,20 L15,20 L30,10 L15,0 Z" class="cell_stage_ex_select_destination fill-4"/>
    <g s:x="30" s:y="10" s:pid="Y"/>
  </g>
  <g s:type="inputExt" transform="translate(611,477)" s:width="30" s:height="20" id="cell_stage_mem_enable_read">
    <text x="15" y="-4" class="nodelabel text-1 cell_stage_mem_enable_read" s:attribute="ref">stage_mem_enable_read</text>
    <s:alias val="$_inputExt_"/>
    <path d="M0,0 L0,20 L15,20 L30,10 L15,0 Z" class="cell_stage_mem_enable_read fill-4"/>
    <g s:x="30" s:y="10" s:pid="Y"/>
  </g>
  <g s:type="inputExt" transform="translate(12,397)" s:width="30" s:height="20" id="cell_stage_mem_select_destination">
    <text x="15" y="-4" class="nodelabel text-1 cell_stage_mem_select_destination" s:attribute="ref">stage_mem_select_destination</text>
    <s:alias val="$_inputExt_"/>
    <path d="M0,0 L0,20 L15,20 L30,10 L15,0 Z" class="cell_stage_mem_select_destination fill-4"/>
    <g s:x="30" s:y="10" s:pid="Y"/>
  </g>
  <g s:type="outputExt" transform="translate(1028,145.5)" s:width="30" s:height="20" id="cell_stall_branch">
    <text x="15" y="-4" class="nodelabel text-1 cell_stall_branch" s:attribute="ref">stall_branch</text>
    <s:alias val="$_outputExt_"/>
    <path d="M30,0 L30,20 L15,20 L0,10 L15,0 Z" class="cell_stall_branch fill-4"/>
    <g s:x="0" s:y="10" s:pid="A"/>
  </g>
  <g s:type="outputExt" transform="translate(1028,57)" s:width="30" s:height="20" id="cell_destination">
    <text x="15" y="-4" class="nodelabel text-1 cell_destination" s:attribute="ref">destination</text>
    <s:alias val="$_outputExt_"/>
    <path d="M30,0 L30,20 L15,20 L0,10 L15,0 Z" class="cell_destination fill-4"/>
    <g s:x="0" s:y="10" s:pid="A"/>
  </g>
  <g s:type="split" transform="translate(303,139)" s:width="5" s:height="40" id="cell_$split$,27,28,29,30,31,">
    <rect width="5" height="100" class="splitjoinBody" s:generic="body"/>
    <s:alias val="$_split_"/>
    <g s:x="0" s:y="20" s:pid="in"/>
    <g transform="translate(4,10)" s:x="4" s:y="10" s:pid="out0">
      <text x="5" y="-4" class="text-2">3</text>
    </g>
    <g transform="translate(4,30)" s:x="4" s:y="10" s:pid="out0">
      <text x="5" y="-4" class="text-2">4</text>
    </g>
    <g transform="translate(4,50)" s:x="4" s:y="10" s:pid="out0">
      <text x="5" y="-4" class="text-2">0</text>
    </g>
    <g transform="translate(4,70)" s:x="4" s:y="10" s:pid="out0">
      <text x="5" y="-4" class="text-2">1</text>
    </g>
    <g transform="translate(4,90)" s:x="4" s:y="10" s:pid="out0">
      <text x="5" y="-4" class="text-2">2</text>
    </g>
  </g>
  <g s:type="split" transform="translate(303,379)" s:width="5" s:height="40" id="cell_$split$,44,45,46,47,48,">
    <rect width="5" height="100" class="splitjoinBody" s:generic="body"/>
    <s:alias val="$_split_"/>
    <g s:x="0" s:y="20" s:pid="in"/>
    <g transform="translate(4,10)" s:x="4" s:y="10" s:pid="out0">
      <text x="5" y="-4" class="text-2">3</text>
    </g>
    <g transform="translate(4,30)" s:x="4" s:y="10" s:pid="out0">
      <text x="5" y="-4" class="text-2">4</text>
    </g>
    <g transform="translate(4,50)" s:x="4" s:y="10" s:pid="out0">
      <text x="5" y="-4" class="text-2">0</text>
    </g>
    <g transform="translate(4,70)" s:x="4" s:y="10" s:pid="out0">
      <text x="5" y="-4" class="text-2">1</text>
    </g>
    <g transform="translate(4,90)" s:x="4" s:y="10" s:pid="out0">
      <text x="5" y="-4" class="text-2">2</text>
    </g>
  </g>
  <g s:type="split" transform="translate(303,499)" s:width="5" s:height="40" id="cell_$split$,53,54,55,56,57,">
    <rect width="5" height="100" class="splitjoinBody" s:generic="body"/>
    <s:alias val="$_split_"/>
    <g s:x="0" s:y="20" s:pid="in"/>
    <g transform="translate(4,10)" s:x="4" s:y="10" s:pid="out0">
      <text x="5" y="-4" class="text-2">3</text>
    </g>
    <g transform="translate(4,30)" s:x="4" s:y="10" s:pid="out0">
      <text x="5" y="-4" class="text-2">4</text>
    </g>
    <g transform="translate(4,50)" s:x="4" s:y="10" s:pid="out0">
      <text x="5" y="-4" class="text-2">0</text>
    </g>
    <g transform="translate(4,70)" s:x="4" s:y="10" s:pid="out0">
      <text x="5" y="-4" class="text-2">1</text>
    </g>
    <g transform="translate(4,90)" s:x="4" s:y="10" s:pid="out0">
      <text x="5" y="-4" class="text-2">2</text>
    </g>
  </g>
  <g s:type="split" transform="translate(303,19)" s:width="5" s:height="40" id="cell_$split$,73,74,75,59,60,">
    <rect width="5" height="100" class="splitjoinBody" s:generic="body"/>
    <s:alias val="$_split_"/>
    <g s:x="0" s:y="20" s:pid="in"/>
    <g transform="translate(4,10)" s:x="4" s:y="10" s:pid="out0">
      <text x="5" y="-4" class="text-2">3</text>
    </g>
    <g transform="translate(4,30)" s:x="4" s:y="10" s:pid="out0">
      <text x="5" y="-4" class="text-2">4</text>
    </g>
    <g transform="translate(4,50)" s:x="4" s:y="10" s:pid="out0">
      <text x="5" y="-4" class="text-2">0</text>
    </g>
    <g transform="translate(4,70)" s:x="4" s:y="10" s:pid="out0">
      <text x="5" y="-4" class="text-2">1</text>
    </g>
    <g transform="translate(4,90)" s:x="4" s:y="10" s:pid="out0">
      <text x="5" y="-4" class="text-2">2</text>
    </g>
  </g>
  <g s:type="split" transform="translate(303,619)" s:width="5" s:height="40" id="cell_$split$,32,33,34,35,36,">
    <rect width="5" height="100" class="splitjoinBody" s:generic="body"/>
    <s:alias val="$_split_"/>
    <g s:x="0" s:y="20" s:pid="in"/>
    <g transform="translate(4,10)" s:x="4" s:y="10" s:pid="out0">
      <text x="5" y="-4" class="text-2">3</text>
    </g>
    <g transform="translate(4,30)" s:x="4" s:y="10" s:pid="out0">
      <text x="5" y="-4" class="text-2">4</text>
    </g>
    <g transform="translate(4,50)" s:x="4" s:y="10" s:pid="out0">
      <text x="5" y="-4" class="text-2">0</text>
    </g>
    <g transform="translate(4,70)" s:x="4" s:y="10" s:pid="out0">
      <text x="5" y="-4" class="text-2">1</text>
    </g>
    <g transform="translate(4,90)" s:x="4" s:y="10" s:pid="out0">
      <text x="5" y="-4" class="text-2">2</text>
    </g>
  </g>
  <g s:type="split" transform="translate(303,259)" s:width="5" s:height="40" id="cell_$split$,79,80,81,82,83,">
    <rect width="5" height="100" class="splitjoinBody" s:generic="body"/>
    <s:alias val="$_split_"/>
    <g s:x="0" s:y="20" s:pid="in"/>
    <g transform="translate(4,10)" s:x="4" s:y="10" s:pid="out0">
      <text x="5" y="-4" class="text-2">3</text>
    </g>
    <g transform="translate(4,30)" s:x="4" s:y="10" s:pid="out0">
      <text x="5" y="-4" class="text-2">4</text>
    </g>
    <g transform="translate(4,50)" s:x="4" s:y="10" s:pid="out0">
      <text x="5" y="-4" class="text-2">0</text>
    </g>
    <g transform="translate(4,70)" s:x="4" s:y="10" s:pid="out0">
      <text x="5" y="-4" class="text-2">1</text>
    </g>
    <g transform="translate(4,90)" s:x="4" s:y="10" s:pid="out0">
      <text x="5" y="-4" class="text-2">2</text>
    </g>
  </g>
  <line x1="42" x2="233" y1="159.5" y2="159.5" class="net_14,15,16,17,18"/>
  <line x1="42" x2="220" y1="159.5" y2="159.5" class="net_14,15,16,17,18"/>
  <line x1="220" x2="220" y1="159.5" y2="47" class="net_14,15,16,17,18"/>
  <circle cx="220" cy="159.5" r="2" style="fill:#000" class="net_14,15,16,17,18"/>
  <line x1="220" x2="232" y1="47" y2="47" class="net_14,15,16,17,18"/>
  <line x1="42" x2="220" y1="159.5" y2="159.5" class="net_14,15,16,17,18"/>
  <line x1="220" x2="220" y1="159.5" y2="287" class="net_14,15,16,17,18"/>
  <line x1="220" x2="232" y1="287" y2="287" class="net_14,15,16,17,18"/>
  <line x1="42" x2="190" y1="407" y2="407" class="net_20,21,22,23,24"/>
  <line x1="190" x2="190" y1="407" y2="639.5" class="net_20,21,22,23,24"/>
  <circle cx="190" cy="407" r="2" style="fill:#000" class="net_20,21,22,23,24"/>
  <line x1="190" x2="233" y1="639.5" y2="639.5" class="net_20,21,22,23,24"/>
  <line x1="42" x2="232" y1="407" y2="407" class="net_20,21,22,23,24"/>
  <line x1="42" x2="190" y1="407" y2="407" class="net_20,21,22,23,24"/>
  <line x1="190" x2="190" y1="407" y2="527" class="net_20,21,22,23,24"/>
  <circle cx="190" cy="527" r="2" style="fill:#000" class="net_20,21,22,23,24"/>
  <line x1="190" x2="232" y1="527" y2="527" class="net_20,21,22,23,24"/>
  <line x1="308" x2="415" y1="149.5" y2="149.5" class="net_30"/>
  <line x1="308" x2="390" y1="169.5" y2="169.5" class="net_31"/>
  <line x1="390" x2="390" y1="169.5" y2="164.5" class="net_31"/>
  <line x1="390" x2="415" y1="164.5" y2="164.5" class="net_31"/>
  <line x1="308" x2="335" y1="189.5" y2="189.5" class="net_27"/>
  <line x1="335" x2="335" y1="189.5" y2="217" class="net_27"/>
  <line x1="335" x2="350" y1="217" y2="217" class="net_27"/>
  <line x1="308" x2="325" y1="209.5" y2="209.5" class="net_28"/>
  <line x1="325" x2="325" y1="209.5" y2="232" class="net_28"/>
  <line x1="325" x2="350" y1="232" y2="232" class="net_28"/>
  <line x1="307.5" x2="307.5" y1="230" y2="249" class="net_29"/>
  <line x1="307.5" x2="390" y1="249" y2="249" class="net_29"/>
  <line x1="390" x2="390" y1="249" y2="209.5" class="net_29"/>
  <line x1="390" x2="415" y1="209.5" y2="209.5" class="net_29"/>
  <line x1="380" x2="415" y1="224.5" y2="224.5" class="net_38"/>
  <line x1="445" x2="480" y1="157" y2="157" class="net_37"/>
  <line x1="445" x2="455" y1="217" y2="217" class="net_39"/>
  <line x1="455" x2="455" y1="217" y2="172" class="net_39"/>
  <line x1="455" x2="480" y1="172" y2="172" class="net_39"/>
  <line x1="510" x2="545" y1="164.5" y2="164.5" class="net_40"/>
  <line x1="685" x2="783" y1="59.5" y2="59.5" class="net_42"/>
  <line x1="783" x2="783" y1="59.5" y2="140.5" class="net_42"/>
  <circle cx="783" cy="59.5" r="2" style="fill:#000" class="net_42"/>
  <line x1="783" x2="838" y1="140.5" y2="140.5" class="net_42"/>
  <line x1="685" x2="963" y1="59.5" y2="59.5" class="net_42"/>
  <line x1="641" x2="838" y1="155.5" y2="155.5" class="net_13"/>
  <line x1="42" x2="210" y1="32" y2="32" class="net_2,3,4,5,6"/>
  <line x1="210" x2="210" y1="32" y2="392" class="net_2,3,4,5,6"/>
  <circle cx="210" cy="32" r="2" style="fill:#000" class="net_2,3,4,5,6"/>
  <line x1="210" x2="232" y1="392" y2="392" class="net_2,3,4,5,6"/>
  <line x1="42" x2="232" y1="32" y2="32" class="net_2,3,4,5,6"/>
  <line x1="308" x2="415" y1="389.5" y2="389.5" class="net_47"/>
  <line x1="308" x2="390" y1="409.5" y2="409.5" class="net_48"/>
  <line x1="390" x2="390" y1="409.5" y2="404.5" class="net_48"/>
  <line x1="390" x2="415" y1="404.5" y2="404.5" class="net_48"/>
  <line x1="308" x2="335" y1="429.5" y2="429.5" class="net_44"/>
  <line x1="335" x2="335" y1="429.5" y2="457" class="net_44"/>
  <line x1="335" x2="350" y1="457" y2="457" class="net_44"/>
  <line x1="308" x2="325" y1="449.5" y2="449.5" class="net_45"/>
  <line x1="325" x2="325" y1="449.5" y2="472" class="net_45"/>
  <line x1="325" x2="350" y1="472" y2="472" class="net_45"/>
  <line x1="307.5" x2="307.5" y1="470" y2="489" class="net_46"/>
  <line x1="307.5" x2="390" y1="489" y2="489" class="net_46"/>
  <line x1="390" x2="390" y1="489" y2="449.5" class="net_46"/>
  <line x1="390" x2="415" y1="449.5" y2="449.5" class="net_46"/>
  <line x1="380" x2="415" y1="464.5" y2="464.5" class="net_50"/>
  <line x1="445" x2="480" y1="397" y2="397" class="net_49"/>
  <line x1="445" x2="455" y1="457" y2="457" class="net_51"/>
  <line x1="455" x2="455" y1="457" y2="412" class="net_51"/>
  <line x1="455" x2="480" y1="412" y2="412" class="net_51"/>
  <line x1="42" x2="200" y1="272" y2="272" class="net_7,8,9,10,11"/>
  <line x1="200" x2="200" y1="272" y2="512" class="net_7,8,9,10,11"/>
  <circle cx="200" cy="272" r="2" style="fill:#000" class="net_7,8,9,10,11"/>
  <line x1="200" x2="232" y1="512" y2="512" class="net_7,8,9,10,11"/>
  <line x1="42" x2="232" y1="272" y2="272" class="net_7,8,9,10,11"/>
  <line x1="308" x2="415" y1="509.5" y2="509.5" class="net_56"/>
  <line x1="308" x2="390" y1="529.5" y2="529.5" class="net_57"/>
  <line x1="390" x2="390" y1="529.5" y2="524.5" class="net_57"/>
  <line x1="390" x2="415" y1="524.5" y2="524.5" class="net_57"/>
  <line x1="308" x2="415" y1="29.5" y2="29.5" class="net_59"/>
  <line x1="308" x2="390" y1="49.5" y2="49.5" class="net_60"/>
  <line x1="390" x2="390" y1="49.5" y2="44.5" class="net_60"/>
  <line x1="390" x2="415" y1="44.5" y2="44.5" class="net_60"/>
  <line x1="308" x2="335" y1="549.5" y2="549.5" class="net_53"/>
  <line x1="335" x2="335" y1="549.5" y2="577" class="net_53"/>
  <line x1="335" x2="350" y1="577" y2="577" class="net_53"/>
  <line x1="308" x2="325" y1="569.5" y2="569.5" class="net_54"/>
  <line x1="325" x2="325" y1="569.5" y2="592" class="net_54"/>
  <line x1="325" x2="350" y1="592" y2="592" class="net_54"/>
  <line x1="307.5" x2="307.5" y1="590" y2="609" class="net_55"/>
  <line x1="307.5" x2="390" y1="609" y2="609" class="net_55"/>
  <line x1="390" x2="390" y1="609" y2="569.5" class="net_55"/>
  <line x1="390" x2="415" y1="569.5" y2="569.5" class="net_55"/>
  <line x1="380" x2="415" y1="584.5" y2="584.5" class="net_62"/>
  <line x1="445" x2="480" y1="517" y2="517" class="net_58"/>
  <line x1="445" x2="455" y1="577" y2="577" class="net_63"/>
  <line x1="455" x2="455" y1="577" y2="532" class="net_63"/>
  <line x1="455" x2="480" y1="532" y2="532" class="net_63"/>
  <line x1="510" x2="547.6666666666666" y1="404.5" y2="404.5" class="net_52"/>
  <line x1="510" x2="520" y1="524.5" y2="524.5" class="net_64"/>
  <line x1="520" x2="520" y1="524.5" y2="419.5" class="net_64"/>
  <line x1="520" x2="547.6666666666666" y1="419.5" y2="419.5" class="net_64"/>
  <line x1="308" x2="415" y1="629.5" y2="629.5" class="net_35"/>
  <line x1="308" x2="390" y1="649.5" y2="649.5" class="net_36"/>
  <line x1="390" x2="390" y1="649.5" y2="644.5" class="net_36"/>
  <line x1="390" x2="415" y1="644.5" y2="644.5" class="net_36"/>
  <line x1="308" x2="335" y1="669.5" y2="669.5" class="net_32"/>
  <line x1="335" x2="335" y1="669.5" y2="697" class="net_32"/>
  <line x1="335" x2="350" y1="697" y2="697" class="net_32"/>
  <line x1="308" x2="325" y1="689.5" y2="689.5" class="net_33"/>
  <line x1="325" x2="325" y1="689.5" y2="712" class="net_33"/>
  <line x1="325" x2="350" y1="712" y2="712" class="net_33"/>
  <line x1="307.5" x2="307.5" y1="710" y2="729" class="net_34"/>
  <line x1="307.5" x2="390" y1="729" y2="729" class="net_34"/>
  <line x1="390" x2="390" y1="729" y2="689.5" class="net_34"/>
  <line x1="390" x2="415" y1="689.5" y2="689.5" class="net_34"/>
  <line x1="380" x2="415" y1="704.5" y2="704.5" class="net_67"/>
  <line x1="445" x2="480" y1="637" y2="637" class="net_66"/>
  <line x1="445" x2="455" y1="697" y2="697" class="net_68"/>
  <line x1="455" x2="455" y1="697" y2="652" class="net_68"/>
  <line x1="455" x2="480" y1="652" y2="652" class="net_68"/>
  <line x1="510" x2="545" y1="644.5" y2="644.5" class="net_69"/>
  <line x1="575.6666666666666" x2="655" y1="412" y2="412" class="net_65"/>
  <line x1="573" x2="586" y1="644.5" y2="644.5" class="net_70"/>
  <line x1="586" x2="586" y1="644.5" y2="427" class="net_70"/>
  <line x1="586" x2="655" y1="427" y2="427" class="net_70"/>
  <line x1="685" x2="838" y1="419.5" y2="419.5" class="net_71"/>
  <line x1="641" x2="783" y1="487" y2="487" class="net_19"/>
  <line x1="783" x2="783" y1="487" y2="434.5" class="net_19"/>
  <line x1="783" x2="838" y1="434.5" y2="434.5" class="net_19"/>
  <line x1="868" x2="965" y1="148" y2="148" class="net_43"/>
  <line x1="868" x2="938" y1="427" y2="427" class="net_72"/>
  <line x1="938" x2="938" y1="427" y2="163" class="net_72"/>
  <line x1="938" x2="965" y1="163" y2="163" class="net_72"/>
  <line x1="308" x2="335" y1="69.5" y2="69.5" class="net_73"/>
  <line x1="335" x2="335" y1="69.5" y2="97" class="net_73"/>
  <line x1="335" x2="350" y1="97" y2="97" class="net_73"/>
  <line x1="308" x2="325" y1="89.5" y2="89.5" class="net_74"/>
  <line x1="325" x2="325" y1="89.5" y2="112" class="net_74"/>
  <line x1="325" x2="350" y1="112" y2="112" class="net_74"/>
  <line x1="307.5" x2="307.5" y1="110" y2="129" class="net_75"/>
  <line x1="307.5" x2="390" y1="129" y2="129" class="net_75"/>
  <line x1="390" x2="390" y1="129" y2="89.5" class="net_75"/>
  <line x1="390" x2="415" y1="89.5" y2="89.5" class="net_75"/>
  <line x1="380" x2="415" y1="104.5" y2="104.5" class="net_76"/>
  <line x1="445" x2="480" y1="37" y2="37" class="net_61"/>
  <line x1="445" x2="455" y1="97" y2="97" class="net_77"/>
  <line x1="455" x2="455" y1="97" y2="52" class="net_77"/>
  <line x1="455" x2="480" y1="52" y2="52" class="net_77"/>
  <line x1="308" x2="415" y1="269.5" y2="269.5" class="net_82"/>
  <line x1="308" x2="390" y1="289.5" y2="289.5" class="net_83"/>
  <line x1="390" x2="390" y1="289.5" y2="284.5" class="net_83"/>
  <line x1="390" x2="415" y1="284.5" y2="284.5" class="net_83"/>
  <line x1="308" x2="335" y1="309.5" y2="309.5" class="net_79"/>
  <line x1="335" x2="335" y1="309.5" y2="337" class="net_79"/>
  <line x1="335" x2="350" y1="337" y2="337" class="net_79"/>
  <line x1="308" x2="325" y1="329.5" y2="329.5" class="net_80"/>
  <line x1="325" x2="325" y1="329.5" y2="352" class="net_80"/>
  <line x1="325" x2="350" y1="352" y2="352" class="net_80"/>
  <line x1="307.5" x2="307.5" y1="350" y2="369" class="net_81"/>
  <line x1="307.5" x2="390" y1="369" y2="369" class="net_81"/>
  <line x1="390" x2="390" y1="369" y2="329.5" class="net_81"/>
  <line x1="390" x2="415" y1="329.5" y2="329.5" class="net_81"/>
  <line x1="380" x2="415" y1="344.5" y2="344.5" class="net_85"/>
  <line x1="445" x2="480" y1="277" y2="277" class="net_84"/>
  <line x1="445" x2="455" y1="337" y2="337" class="net_86"/>
  <line x1="455" x2="455" y1="337" y2="292" class="net_86"/>
  <line x1="455" x2="480" y1="292" y2="292" class="net_86"/>
  <line x1="510" x2="547.6666666666666" y1="44.5" y2="44.5" class="net_78"/>
  <line x1="510" x2="520" y1="284.5" y2="284.5" class="net_87"/>
  <line x1="520" x2="520" y1="284.5" y2="59.5" class="net_87"/>
  <line x1="520" x2="547.6666666666666" y1="59.5" y2="59.5" class="net_87"/>
  <line x1="575.6666666666666" x2="655" y1="52" y2="52" class="net_88"/>
  <line x1="573" x2="586" y1="164.5" y2="164.5" class="net_41"/>
  <line x1="586" x2="586" y1="164.5" y2="67" class="net_41"/>
  <line x1="586" x2="655" y1="67" y2="67" class="net_41"/>
  <line x1="838" x2="938" y1="90.5" y2="90.5" class="net_12"/>
  <line x1="938" x2="938" y1="90.5" y2="74.5" class="net_12"/>
  <line x1="938" x2="963" y1="74.5" y2="74.5" class="net_12"/>
  <line x1="993" x2="1028" y1="155.5" y2="155.5" class="net_25"/>
  <line x1="993" x2="1028" y1="67" y2="67" class="net_26"/>
  <line x1="261" x2="303" y1="159.5" y2="159.5" class="net_27,28,29,30,31"/>
  <line x1="268" x2="303" y1="399.5" y2="399.5" class="net_44,45,46,47,48"/>
  <line x1="268" x2="303" y1="519.5" y2="519.5" class="net_53,54,55,56,57"/>
  <line x1="268" x2="303" y1="39.5" y2="39.5" class="net_73,74,75,59,60"/>
  <line x1="261" x2="303" y1="639.5" y2="639.5" class="net_32,33,34,35,36"/>
  <line x1="268" x2="303" y1="279.5" y2="279.5" class="net_79,80,81,82,83"/>
</svg>
