<svg xmlns="http://www.w3.org/2000/svg" xmlns:xlink="http://www.w3.org/1999/xlink" xmlns:s="https://github.com/nturley/netlistsvg" width="577" height="314">
  <style>  svg {
      stroke: #011e41;
      fill: none;
    }
    text {
      fill:#ffffff;
      stroke:none;
      font-size:10px;
      font-weight: bold;
      font-family: "Courier New", monospace;
    }
    .fill-1 { fill: #003262; }
    .fill-2 { fill: #011e41; stroke: #003262; }
    .fill-3 { fill: #ffffff; }
    .fill-4 { fill: #003262; }
    .fill-5 { fill: #011e41; stroke: #fdda64; }
    .text-1 { fill: #fdb515; }
    .text-2 { fill: #003262; }
    .text-3 { stroke: #fdda64; }
    .nodelabel { text-anchor: middle; }
    .inputPortLabel { text-anchor: end; }
    .splitjoinBody { fill: #3c3c43; }</style>
  <g s:type="generic" transform="translate(342,111.5)" s:width="30" s:height="40" id="cell_program_counter">
    <text x="15" y="-4" class="nodelabel text-1 cell_program_counter" s:attribute="ref">module_program_counter_32</text>
    <rect width="30" height="100" s:generic="body" class="cell_program_counter fill-1"/>
    <g transform="translate(0,10)" s:x="0" s:y="10" s:pid="in0" id="port_program_counter~clear">
      <text x="-3" y="-4" class="inputPortLabel text-2 cell_program_counter">clear</text>
    </g>
    <g transform="translate(0,30)" s:x="0" s:y="10" s:pid="in0" id="port_program_counter~clock">
      <text x="-3" y="-4" class="inputPortLabel text-2 cell_program_counter">clock</text>
    </g>
    <g transform="translate(0,50)" s:x="0" s:y="10" s:pid="in0" id="port_program_counter~enable">
      <text x="-3" y="-4" class="inputPortLabel text-2 cell_program_counter">enable</text>
    </g>
    <g transform="translate(0,70)" s:x="0" s:y="10" s:pid="in0" id="port_program_counter~selector">
      <text x="-3" y="-4" class="inputPortLabel text-2 cell_program_counter">selector</text>
    </g>
    <g transform="translate(0,90)" s:x="0" s:y="10" s:pid="in0" id="port_program_counter~source">
      <text x="-3" y="-4" class="inputPortLabel text-2 cell_program_counter">source</text>
    </g>
    <g transform="translate(30,10)" s:x="30" s:y="10" s:pid="out0" id="port_program_counter~destination">
      <text x="5" y="-4" class="cell_program_counter text-2">destination</text>
    </g>
  </g>
  <g s:type="inputExt" transform="translate(138,87)" s:width="30" s:height="20" id="cell_clock">
    <text x="15" y="-4" class="nodelabel text-1 cell_clock" s:attribute="ref">clock</text>
    <s:alias val="$_inputExt_"/>
    <path d="M0,0 L0,20 L15,20 L30,10 L15,0 Z" class="cell_clock fill-4"/>
    <g s:x="30" s:y="10" s:pid="Y"/>
  </g>
  <g s:type="inputExt" transform="translate(138,22)" s:width="30" s:height="20" id="cell_clear">
    <text x="15" y="-4" class="nodelabel text-1 cell_clear" s:attribute="ref">clear</text>
    <s:alias val="$_inputExt_"/>
    <path d="M0,0 L0,20 L15,20 L30,10 L15,0 Z" class="cell_clear fill-4"/>
    <g s:x="30" s:y="10" s:pid="Y"/>
  </g>
  <g s:type="inputExt" transform="translate(138,152)" s:width="30" s:height="20" id="cell_enable">
    <text x="15" y="-4" class="nodelabel text-1 cell_enable" s:attribute="ref">enable</text>
    <s:alias val="$_inputExt_"/>
    <path d="M0,0 L0,20 L15,20 L30,10 L15,0 Z" class="cell_enable fill-4"/>
    <g s:x="30" s:y="10" s:pid="Y"/>
  </g>
  <g s:type="inputExt" transform="translate(12,22)" s:width="30" s:height="20" id="cell_source enable_stall">
    <text x="15" y="-4" class="nodelabel text-1 cell_source enable_stall" s:attribute="ref">source enable_stall</text>
    <s:alias val="$_inputExt_"/>
    <path d="M0,0 L0,20 L15,20 L30,10 L15,0 Z" class="cell_source enable_stall fill-4"/>
    <g s:x="30" s:y="10" s:pid="Y"/>
  </g>
  <g s:type="inputExt" transform="translate(138,217)" s:width="30" s:height="20" id="cell_source select_source">
    <text x="15" y="-4" class="nodelabel text-1 cell_source select_source" s:attribute="ref">source select_source</text>
    <s:alias val="$_inputExt_"/>
    <path d="M0,0 L0,20 L15,20 L30,10 L15,0 Z" class="cell_source select_source fill-4"/>
    <g s:x="30" s:y="10" s:pid="Y"/>
  </g>
  <g s:type="inputExt" transform="translate(138,282)" s:width="30" s:height="20" id="cell_address_jump">
    <text x="15" y="-4" class="nodelabel text-1 cell_address_jump" s:attribute="ref">address_jump</text>
    <s:alias val="$_inputExt_"/>
    <path d="M0,0 L0,20 L15,20 L30,10 L15,0 Z" class="cell_address_jump fill-4"/>
    <g s:x="30" s:y="10" s:pid="Y"/>
  </g>
  <g s:type="outputExt" transform="translate(475,112)" s:width="30" s:height="20" id="cell_address_program">
    <text x="15" y="-4" class="nodelabel text-1 cell_address_program" s:attribute="ref">address_program</text>
    <s:alias val="$_outputExt_"/>
    <path d="M30,0 L30,20 L15,20 L0,10 L15,0 Z" class="cell_address_program fill-4"/>
    <g s:x="0" s:y="10" s:pid="A"/>
  </g>
  <line x1="168" x2="278" y1="32" y2="32" class="net_3"/>
  <line x1="278" x2="278" y1="32" y2="122" class="net_3"/>
  <line x1="278" x2="342" y1="122" y2="122" class="net_3"/>
  <line x1="168" x2="268" y1="97" y2="97" class="net_2"/>
  <line x1="268" x2="268" y1="97" y2="142" class="net_2"/>
  <line x1="268" x2="342" y1="142" y2="142" class="net_2"/>
  <line x1="168" x2="342" y1="162" y2="162" class="net_4"/>
  <line x1="168" x2="268" y1="227" y2="227" class="net_6"/>
  <line x1="268" x2="268" y1="227" y2="182" class="net_6"/>
  <line x1="268" x2="342" y1="182" y2="182" class="net_6"/>
  <line x1="168" x2="278" y1="292" y2="292" class="net_7,8,9,10,11,12,13,14,15,16,17,18,19,20,21,22,23,24,25,26,27,28,29,30,31,32,33,34,35,36,37,38"/>
  <line x1="278" x2="278" y1="292" y2="202" class="net_7,8,9,10,11,12,13,14,15,16,17,18,19,20,21,22,23,24,25,26,27,28,29,30,31,32,33,34,35,36,37,38"/>
  <line x1="278" x2="342" y1="202" y2="202" class="net_7,8,9,10,11,12,13,14,15,16,17,18,19,20,21,22,23,24,25,26,27,28,29,30,31,32,33,34,35,36,37,38"/>
  <line x1="373" x2="475" y1="122" y2="122" class="net_39,40,41,42,43,44,45,46,47,48,49,50,51,52,53,54,55,56,57,58,59,60,61,62,63,64,65,66,67,68,69,70"/>
</svg>
