<svg xmlns="http://www.w3.org/2000/svg" xmlns:xlink="http://www.w3.org/1999/xlink" xmlns:s="https://github.com/nturley/netlistsvg" width="234" height="119">
  <style>  svg {
      stroke: #011e41;
      fill: none;
    }
    text {
      fill:#ffffff;
      stroke:none;
      font-size:10px;
      font-weight: bold;
      font-family: "Courier New", monospace;
    }
    .fill-1 { fill: #003262; }
    .fill-2 { fill: #011e41; stroke: #003262; }
    .fill-3 { fill: #ffffff; }
    .fill-4 { fill: #003262; }
    .fill-5 { fill: #011e41; stroke: #fdda64; }
    .text-1 { fill: #fdb515; }
    .text-2 { fill: #003262; }
    .text-3 { stroke: #fdda64; }
    .nodelabel { text-anchor: middle; }
    .inputPortLabel { text-anchor: end; }
    .splitjoinBody { fill: #3c3c43; }</style>
  <g s:type="add" transform="translate(95,27)" s:width="25" s:height="25" id="cell_\1">
    <s:alias val="$add"/>
    <circle r="12.5" cx="12.5" cy="12.5" class="cell_\1 fill-1"/>
    <line x1="7.5" x2="17.5" y1="12.5" y2="12.5" class="cell_\1 text-3"/>
    <line x1="12.5" x2="12.5" y1="7.5" y2="17.5" class="cell_\1 text-3"/>
    <g s:x="2" s:y="5" s:pid="A"/>
    <g s:x="2" s:y="20" s:pid="B"/>
    <g s:x="26" s:y="12.5" s:pid="Y"/>
  </g>
  <g s:type="inputExt" transform="translate(12,22)" s:width="30" s:height="20" id="cell_source_1">
    <text x="15" y="-4" class="nodelabel text-1 cell_source_1" s:attribute="ref">source_1</text>
    <s:alias val="$_inputExt_"/>
    <path d="M0,0 L0,20 L15,20 L30,10 L15,0 Z" class="cell_source_1 fill-4"/>
    <g s:x="30" s:y="10" s:pid="Y"/>
  </g>
  <g s:type="inputExt" transform="translate(12,87)" s:width="30" s:height="20" id="cell_source_2">
    <text x="15" y="-4" class="nodelabel text-1 cell_source_2" s:attribute="ref">source_2</text>
    <s:alias val="$_inputExt_"/>
    <path d="M0,0 L0,20 L15,20 L30,10 L15,0 Z" class="cell_source_2 fill-4"/>
    <g s:x="30" s:y="10" s:pid="Y"/>
  </g>
  <g s:type="outputExt" transform="translate(156,29.5)" s:width="30" s:height="20" id="cell_destination">
    <text x="15" y="-4" class="nodelabel text-1 cell_destination" s:attribute="ref">destination</text>
    <s:alias val="$_outputExt_"/>
    <path d="M30,0 L30,20 L15,20 L0,10 L15,0 Z" class="cell_destination fill-4"/>
    <g s:x="0" s:y="10" s:pid="A"/>
  </g>
  <line x1="42" x2="97" y1="32" y2="32" class="net_2,3,4,5,6,7,8,9"/>
  <line x1="42" x2="70" y1="97" y2="97" class="net_10,11,12,13,14,15,16,17"/>
  <line x1="70" x2="70" y1="97" y2="47" class="net_10,11,12,13,14,15,16,17"/>
  <line x1="70" x2="97" y1="47" y2="47" class="net_10,11,12,13,14,15,16,17"/>
  <line x1="121" x2="156" y1="39.5" y2="39.5" class="net_18,19,20,21,22,23,24,25"/>
</svg>
