<svg xmlns="http://www.w3.org/2000/svg" xmlns:xlink="http://www.w3.org/1999/xlink" xmlns:s="https://github.com/nturley/netlistsvg" width="1029" height="637">
  <style>  svg {
      stroke: #011e41;
      fill: none;
    }
    text {
      fill:#ffffff;
      stroke:none;
      font-size:10px;
      font-weight: bold;
      font-family: "Courier New", monospace;
    }
    .fill-1 { fill: #003262; }
    .fill-2 { fill: #011e41; stroke: #003262; }
    .fill-3 { fill: #ffffff; }
    .fill-4 { fill: #003262; }
    .fill-5 { fill: #011e41; stroke: #fdda64; }
    .text-1 { fill: #fdb515; }
    .text-2 { fill: #003262; }
    .text-3 { stroke: #fdda64; }
    .nodelabel { text-anchor: middle; }
    .inputPortLabel { text-anchor: end; }
    .splitjoinBody { fill: #3c3c43; }</style>
  <g s:type="or" transform="translate(226,242.5)" s:width="30" s:height="25" id="cell_$auto$ghdl cc:904:import_module$44">
    <s:alias val="$or"/>
    <s:alias val="$logic_or"/>
    <s:alias val="$_OR_"/>
    <s:alias val="$reduce_or"/>
    <s:alias val="$reduce_bool"/>
    <path d="M0,0 A30 25 0 0 1 0,25 A30 25 0 0 0 30,12.5 A30 25 0 0 0 0,0" class="cell_$auto$ghdl cc:904:import_module$44 fill-1"/>
    <g s:x="2" s:y="5" s:pid="A"/>
    <g s:x="2" s:y="20" s:pid="B"/>
    <g s:x="30" s:y="12.5" s:pid="Y"/>
  </g>
  <g s:type="and" transform="translate(419,217.5)" s:width="30" s:height="25" id="cell_\10">
    <s:alias val="$and"/>
    <s:alias val="$logic_and"/>
    <s:alias val="$_AND_"/>
    <s:alias val="$reduce_and"/>
    <path d="M0,0 L0,25 L15,25 A15 12.5 0 0 0 15,0 Z" class="cell_\10 fill-1"/>
    <g s:x="0" s:y="5" s:pid="A"/>
    <g s:x="0" s:y="20" s:pid="B"/>
    <g s:x="30" s:y="12.5" s:pid="Y"/>
  </g>
  <g s:type="or" transform="translate(484,12)" s:width="30" s:height="25" id="cell_\109">
    <s:alias val="$or"/>
    <s:alias val="$logic_or"/>
    <s:alias val="$_OR_"/>
    <s:alias val="$reduce_or"/>
    <s:alias val="$reduce_bool"/>
    <path d="M0,0 A30 25 0 0 1 0,25 A30 25 0 0 0 30,12.5 A30 25 0 0 0 0,0" class="cell_\109 fill-1"/>
    <g s:x="2" s:y="5" s:pid="A"/>
    <g s:x="2" s:y="20" s:pid="B"/>
    <g s:x="30" s:y="12.5" s:pid="Y"/>
  </g>
  <g s:type="or" transform="translate(549,19.5)" s:width="30" s:height="25" id="cell_\111">
    <s:alias val="$or"/>
    <s:alias val="$logic_or"/>
    <s:alias val="$_OR_"/>
    <s:alias val="$reduce_or"/>
    <s:alias val="$reduce_bool"/>
    <path d="M0,0 A30 25 0 0 1 0,25 A30 25 0 0 0 30,12.5 A30 25 0 0 0 0,0" class="cell_\111 fill-1"/>
    <g s:x="2" s:y="5" s:pid="A"/>
    <g s:x="2" s:y="20" s:pid="B"/>
    <g s:x="30" s:y="12.5" s:pid="Y"/>
  </g>
  <g s:type="or" transform="translate(614,27)" s:width="30" s:height="25" id="cell_\113">
    <s:alias val="$or"/>
    <s:alias val="$logic_or"/>
    <s:alias val="$_OR_"/>
    <s:alias val="$reduce_or"/>
    <s:alias val="$reduce_bool"/>
    <path d="M0,0 A30 25 0 0 1 0,25 A30 25 0 0 0 30,12.5 A30 25 0 0 0 0,0" class="cell_\113 fill-1"/>
    <g s:x="2" s:y="5" s:pid="A"/>
    <g s:x="2" s:y="20" s:pid="B"/>
    <g s:x="30" s:y="12.5" s:pid="Y"/>
  </g>
  <g s:type="or" transform="translate(679,34.5)" s:width="30" s:height="25" id="cell_\115">
    <s:alias val="$or"/>
    <s:alias val="$logic_or"/>
    <s:alias val="$_OR_"/>
    <s:alias val="$reduce_or"/>
    <s:alias val="$reduce_bool"/>
    <path d="M0,0 A30 25 0 0 1 0,25 A30 25 0 0 0 30,12.5 A30 25 0 0 0 0,0" class="cell_\115 fill-1"/>
    <g s:x="2" s:y="5" s:pid="A"/>
    <g s:x="2" s:y="20" s:pid="B"/>
    <g s:x="30" s:y="12.5" s:pid="Y"/>
  </g>
  <g s:type="or" transform="translate(744,42)" s:width="30" s:height="25" id="cell_\117">
    <s:alias val="$or"/>
    <s:alias val="$logic_or"/>
    <s:alias val="$_OR_"/>
    <s:alias val="$reduce_or"/>
    <s:alias val="$reduce_bool"/>
    <path d="M0,0 A30 25 0 0 1 0,25 A30 25 0 0 0 30,12.5 A30 25 0 0 0 0,0" class="cell_\117 fill-1"/>
    <g s:x="2" s:y="5" s:pid="A"/>
    <g s:x="2" s:y="20" s:pid="B"/>
    <g s:x="30" s:y="12.5" s:pid="Y"/>
  </g>
  <g s:type="or" transform="translate(809,49.5)" s:width="30" s:height="25" id="cell_\119">
    <s:alias val="$or"/>
    <s:alias val="$logic_or"/>
    <s:alias val="$_OR_"/>
    <s:alias val="$reduce_or"/>
    <s:alias val="$reduce_bool"/>
    <path d="M0,0 A30 25 0 0 1 0,25 A30 25 0 0 0 30,12.5 A30 25 0 0 0 0,0" class="cell_\119 fill-1"/>
    <g s:x="2" s:y="5" s:pid="A"/>
    <g s:x="2" s:y="20" s:pid="B"/>
    <g s:x="30" s:y="12.5" s:pid="Y"/>
  </g>
  <g s:type="or" transform="translate(874,57)" s:width="30" s:height="25" id="cell_\121">
    <s:alias val="$or"/>
    <s:alias val="$logic_or"/>
    <s:alias val="$_OR_"/>
    <s:alias val="$reduce_or"/>
    <s:alias val="$reduce_bool"/>
    <path d="M0,0 A30 25 0 0 1 0,25 A30 25 0 0 0 30,12.5 A30 25 0 0 0 0,0" class="cell_\121 fill-1"/>
    <g s:x="2" s:y="5" s:pid="A"/>
    <g s:x="2" s:y="20" s:pid="B"/>
    <g s:x="30" s:y="12.5" s:pid="Y"/>
  </g>
  <g s:type="and" transform="translate(484,225)" s:width="30" s:height="25" id="cell_\13">
    <s:alias val="$and"/>
    <s:alias val="$logic_and"/>
    <s:alias val="$_AND_"/>
    <s:alias val="$reduce_and"/>
    <path d="M0,0 L0,25 L15,25 A15 12.5 0 0 0 15,0 Z" class="cell_\13 fill-1"/>
    <g s:x="0" s:y="5" s:pid="A"/>
    <g s:x="0" s:y="20" s:pid="B"/>
    <g s:x="30" s:y="12.5" s:pid="Y"/>
  </g>
  <g s:type="and" transform="translate(549,232.5)" s:width="30" s:height="25" id="cell_\16">
    <s:alias val="$and"/>
    <s:alias val="$logic_and"/>
    <s:alias val="$_AND_"/>
    <s:alias val="$reduce_and"/>
    <path d="M0,0 L0,25 L15,25 A15 12.5 0 0 0 15,0 Z" class="cell_\16 fill-1"/>
    <g s:x="0" s:y="5" s:pid="A"/>
    <g s:x="0" s:y="20" s:pid="B"/>
    <g s:x="30" s:y="12.5" s:pid="Y"/>
  </g>
  <g s:type="and" transform="translate(614,240)" s:width="30" s:height="25" id="cell_\19">
    <s:alias val="$and"/>
    <s:alias val="$logic_and"/>
    <s:alias val="$_AND_"/>
    <s:alias val="$reduce_and"/>
    <path d="M0,0 L0,25 L15,25 A15 12.5 0 0 0 15,0 Z" class="cell_\19 fill-1"/>
    <g s:x="0" s:y="5" s:pid="A"/>
    <g s:x="0" s:y="20" s:pid="B"/>
    <g s:x="30" s:y="12.5" s:pid="Y"/>
  </g>
  <g s:type="and" transform="translate(679,247.5)" s:width="30" s:height="25" id="cell_\22">
    <s:alias val="$and"/>
    <s:alias val="$logic_and"/>
    <s:alias val="$_AND_"/>
    <s:alias val="$reduce_and"/>
    <path d="M0,0 L0,25 L15,25 A15 12.5 0 0 0 15,0 Z" class="cell_\22 fill-1"/>
    <g s:x="0" s:y="5" s:pid="A"/>
    <g s:x="0" s:y="20" s:pid="B"/>
    <g s:x="30" s:y="12.5" s:pid="Y"/>
  </g>
  <g s:type="and" transform="translate(744,255)" s:width="30" s:height="25" id="cell_\25">
    <s:alias val="$and"/>
    <s:alias val="$logic_and"/>
    <s:alias val="$_AND_"/>
    <s:alias val="$reduce_and"/>
    <path d="M0,0 L0,25 L15,25 A15 12.5 0 0 0 15,0 Z" class="cell_\25 fill-1"/>
    <g s:x="0" s:y="5" s:pid="A"/>
    <g s:x="0" s:y="20" s:pid="B"/>
    <g s:x="30" s:y="12.5" s:pid="Y"/>
  </g>
  <g s:type="and" transform="translate(874,262.5)" s:width="30" s:height="25" id="cell_\28">
    <s:alias val="$and"/>
    <s:alias val="$logic_and"/>
    <s:alias val="$_AND_"/>
    <s:alias val="$reduce_and"/>
    <path d="M0,0 L0,25 L15,25 A15 12.5 0 0 0 15,0 Z" class="cell_\28 fill-1"/>
    <g s:x="0" s:y="5" s:pid="A"/>
    <g s:x="0" s:y="20" s:pid="B"/>
    <g s:x="30" s:y="12.5" s:pid="Y"/>
  </g>
  <g s:type="not" transform="translate(96,104.5)" s:width="30" s:height="20" id="cell_\3">
    <s:alias val="$_NOT_"/>
    <s:alias val="$not"/>
    <s:alias val="$logic_not"/>
    <path d="M0,0 L0,20 L20,10 Z" class="cell_\3 fill-1"/>
    <circle cx="24" cy="10" r="3" class="cell_\3 fill-3"/>
    <g s:x="-1" s:y="10" s:pid="A"/>
    <g s:x="27" s:y="10" s:pid="Y"/>
  </g>
  <g s:type="and" transform="translate(419,431.5)" s:width="30" s:height="25" id="cell_\32">
    <s:alias val="$and"/>
    <s:alias val="$logic_and"/>
    <s:alias val="$_AND_"/>
    <s:alias val="$reduce_and"/>
    <path d="M0,0 L0,25 L15,25 A15 12.5 0 0 0 15,0 Z" class="cell_\32 fill-1"/>
    <g s:x="0" s:y="5" s:pid="A"/>
    <g s:x="0" s:y="20" s:pid="B"/>
    <g s:x="30" s:y="12.5" s:pid="Y"/>
  </g>
  <g s:type="and" transform="translate(484,475.5)" s:width="30" s:height="25" id="cell_\35">
    <s:alias val="$and"/>
    <s:alias val="$logic_and"/>
    <s:alias val="$_AND_"/>
    <s:alias val="$reduce_and"/>
    <path d="M0,0 L0,25 L15,25 A15 12.5 0 0 0 15,0 Z" class="cell_\35 fill-1"/>
    <g s:x="0" s:y="5" s:pid="A"/>
    <g s:x="0" s:y="20" s:pid="B"/>
    <g s:x="30" s:y="12.5" s:pid="Y"/>
  </g>
  <g s:type="and" transform="translate(549,490.5)" s:width="30" s:height="25" id="cell_\38">
    <s:alias val="$and"/>
    <s:alias val="$logic_and"/>
    <s:alias val="$_AND_"/>
    <s:alias val="$reduce_and"/>
    <path d="M0,0 L0,25 L15,25 A15 12.5 0 0 0 15,0 Z" class="cell_\38 fill-1"/>
    <g s:x="0" s:y="5" s:pid="A"/>
    <g s:x="0" s:y="20" s:pid="B"/>
    <g s:x="30" s:y="12.5" s:pid="Y"/>
  </g>
  <g s:type="and" transform="translate(161,44.5)" s:width="30" s:height="25" id="cell_\4">
    <s:alias val="$and"/>
    <s:alias val="$logic_and"/>
    <s:alias val="$_AND_"/>
    <s:alias val="$reduce_and"/>
    <path d="M0,0 L0,25 L15,25 A15 12.5 0 0 0 15,0 Z" class="cell_\4 fill-1"/>
    <g s:x="0" s:y="5" s:pid="A"/>
    <g s:x="0" s:y="20" s:pid="B"/>
    <g s:x="30" s:y="12.5" s:pid="Y"/>
  </g>
  <g s:type="and" transform="translate(614,505.5)" s:width="30" s:height="25" id="cell_\41">
    <s:alias val="$and"/>
    <s:alias val="$logic_and"/>
    <s:alias val="$_AND_"/>
    <s:alias val="$reduce_and"/>
    <path d="M0,0 L0,25 L15,25 A15 12.5 0 0 0 15,0 Z" class="cell_\41 fill-1"/>
    <g s:x="0" s:y="5" s:pid="A"/>
    <g s:x="0" s:y="20" s:pid="B"/>
    <g s:x="30" s:y="12.5" s:pid="Y"/>
  </g>
  <g s:type="and" transform="translate(679,520.5)" s:width="30" s:height="25" id="cell_\44">
    <s:alias val="$and"/>
    <s:alias val="$logic_and"/>
    <s:alias val="$_AND_"/>
    <s:alias val="$reduce_and"/>
    <path d="M0,0 L0,25 L15,25 A15 12.5 0 0 0 15,0 Z" class="cell_\44 fill-1"/>
    <g s:x="0" s:y="5" s:pid="A"/>
    <g s:x="0" s:y="20" s:pid="B"/>
    <g s:x="30" s:y="12.5" s:pid="Y"/>
  </g>
  <g s:type="and" transform="translate(744,535.5)" s:width="30" s:height="25" id="cell_\47">
    <s:alias val="$and"/>
    <s:alias val="$logic_and"/>
    <s:alias val="$_AND_"/>
    <s:alias val="$reduce_and"/>
    <path d="M0,0 L0,25 L15,25 A15 12.5 0 0 0 15,0 Z" class="cell_\47 fill-1"/>
    <g s:x="0" s:y="5" s:pid="A"/>
    <g s:x="0" s:y="20" s:pid="B"/>
    <g s:x="30" s:y="12.5" s:pid="Y"/>
  </g>
  <g s:type="not" transform="translate(96,245)" s:width="30" s:height="20" id="cell_\5">
    <s:alias val="$_NOT_"/>
    <s:alias val="$not"/>
    <s:alias val="$logic_not"/>
    <path d="M0,0 L0,20 L20,10 Z" class="cell_\5 fill-1"/>
    <circle cx="24" cy="10" r="3" class="cell_\5 fill-3"/>
    <g s:x="-1" s:y="10" s:pid="A"/>
    <g s:x="27" s:y="10" s:pid="Y"/>
  </g>
  <g s:type="and" transform="translate(809,550.5)" s:width="30" s:height="25" id="cell_\50">
    <s:alias val="$and"/>
    <s:alias val="$logic_and"/>
    <s:alias val="$_AND_"/>
    <s:alias val="$reduce_and"/>
    <path d="M0,0 L0,25 L15,25 A15 12.5 0 0 0 15,0 Z" class="cell_\50 fill-1"/>
    <g s:x="0" s:y="5" s:pid="A"/>
    <g s:x="0" s:y="20" s:pid="B"/>
    <g s:x="30" s:y="12.5" s:pid="Y"/>
  </g>
  <g s:type="and" transform="translate(419,28)" s:width="30" s:height="25" id="cell_\54">
    <s:alias val="$and"/>
    <s:alias val="$logic_and"/>
    <s:alias val="$_AND_"/>
    <s:alias val="$reduce_and"/>
    <path d="M0,0 L0,25 L15,25 A15 12.5 0 0 0 15,0 Z" class="cell_\54 fill-1"/>
    <g s:x="0" s:y="5" s:pid="A"/>
    <g s:x="0" s:y="20" s:pid="B"/>
    <g s:x="30" s:y="12.5" s:pid="Y"/>
  </g>
  <g s:type="and" transform="translate(484,72)" s:width="30" s:height="25" id="cell_\57">
    <s:alias val="$and"/>
    <s:alias val="$logic_and"/>
    <s:alias val="$_AND_"/>
    <s:alias val="$reduce_and"/>
    <path d="M0,0 L0,25 L15,25 A15 12.5 0 0 0 15,0 Z" class="cell_\57 fill-1"/>
    <g s:x="0" s:y="5" s:pid="A"/>
    <g s:x="0" s:y="20" s:pid="B"/>
    <g s:x="30" s:y="12.5" s:pid="Y"/>
  </g>
  <g s:type="and" transform="translate(161,250)" s:width="30" s:height="25" id="cell_\6">
    <s:alias val="$and"/>
    <s:alias val="$logic_and"/>
    <s:alias val="$_AND_"/>
    <s:alias val="$reduce_and"/>
    <path d="M0,0 L0,25 L15,25 A15 12.5 0 0 0 15,0 Z" class="cell_\6 fill-1"/>
    <g s:x="0" s:y="5" s:pid="A"/>
    <g s:x="0" s:y="20" s:pid="B"/>
    <g s:x="30" s:y="12.5" s:pid="Y"/>
  </g>
  <g s:type="and" transform="translate(549,87)" s:width="30" s:height="25" id="cell_\60">
    <s:alias val="$and"/>
    <s:alias val="$logic_and"/>
    <s:alias val="$_AND_"/>
    <s:alias val="$reduce_and"/>
    <path d="M0,0 L0,25 L15,25 A15 12.5 0 0 0 15,0 Z" class="cell_\60 fill-1"/>
    <g s:x="0" s:y="5" s:pid="A"/>
    <g s:x="0" s:y="20" s:pid="B"/>
    <g s:x="30" s:y="12.5" s:pid="Y"/>
  </g>
  <g s:type="and" transform="translate(614,102)" s:width="30" s:height="25" id="cell_\63">
    <s:alias val="$and"/>
    <s:alias val="$logic_and"/>
    <s:alias val="$_AND_"/>
    <s:alias val="$reduce_and"/>
    <path d="M0,0 L0,25 L15,25 A15 12.5 0 0 0 15,0 Z" class="cell_\63 fill-1"/>
    <g s:x="0" s:y="5" s:pid="A"/>
    <g s:x="0" s:y="20" s:pid="B"/>
    <g s:x="30" s:y="12.5" s:pid="Y"/>
  </g>
  <g s:type="and" transform="translate(679,117)" s:width="30" s:height="25" id="cell_\66">
    <s:alias val="$and"/>
    <s:alias val="$logic_and"/>
    <s:alias val="$_AND_"/>
    <s:alias val="$reduce_and"/>
    <path d="M0,0 L0,25 L15,25 A15 12.5 0 0 0 15,0 Z" class="cell_\66 fill-1"/>
    <g s:x="0" s:y="5" s:pid="A"/>
    <g s:x="0" s:y="20" s:pid="B"/>
    <g s:x="30" s:y="12.5" s:pid="Y"/>
  </g>
  <g s:type="and" transform="translate(744,132)" s:width="30" s:height="25" id="cell_\69">
    <s:alias val="$and"/>
    <s:alias val="$logic_and"/>
    <s:alias val="$_AND_"/>
    <s:alias val="$reduce_and"/>
    <path d="M0,0 L0,25 L15,25 A15 12.5 0 0 0 15,0 Z" class="cell_\69 fill-1"/>
    <g s:x="0" s:y="5" s:pid="A"/>
    <g s:x="0" s:y="20" s:pid="B"/>
    <g s:x="30" s:y="12.5" s:pid="Y"/>
  </g>
  <g s:type="not" transform="translate(292,245)" s:width="30" s:height="20" id="cell_\7">
    <s:alias val="$_NOT_"/>
    <s:alias val="$not"/>
    <s:alias val="$logic_not"/>
    <path d="M0,0 L0,20 L20,10 Z" class="cell_\7 fill-1"/>
    <circle cx="24" cy="10" r="3" class="cell_\7 fill-3"/>
    <g s:x="-1" s:y="10" s:pid="A"/>
    <g s:x="27" s:y="10" s:pid="Y"/>
  </g>
  <g s:type="and" transform="translate(809,186.5)" s:width="30" s:height="25" id="cell_\72">
    <s:alias val="$and"/>
    <s:alias val="$logic_and"/>
    <s:alias val="$_AND_"/>
    <s:alias val="$reduce_and"/>
    <path d="M0,0 L0,25 L15,25 A15 12.5 0 0 0 15,0 Z" class="cell_\72 fill-1"/>
    <g s:x="0" s:y="5" s:pid="A"/>
    <g s:x="0" s:y="20" s:pid="B"/>
    <g s:x="30" s:y="12.5" s:pid="Y"/>
  </g>
  <g s:type="or" transform="translate(484,415.5)" s:width="30" s:height="25" id="cell_\85">
    <s:alias val="$or"/>
    <s:alias val="$logic_or"/>
    <s:alias val="$_OR_"/>
    <s:alias val="$reduce_or"/>
    <s:alias val="$reduce_bool"/>
    <path d="M0,0 A30 25 0 0 1 0,25 A30 25 0 0 0 30,12.5 A30 25 0 0 0 0,0" class="cell_\85 fill-1"/>
    <g s:x="2" s:y="5" s:pid="A"/>
    <g s:x="2" s:y="20" s:pid="B"/>
    <g s:x="30" s:y="12.5" s:pid="Y"/>
  </g>
  <g s:type="or" transform="translate(549,423)" s:width="30" s:height="25" id="cell_\87">
    <s:alias val="$or"/>
    <s:alias val="$logic_or"/>
    <s:alias val="$_OR_"/>
    <s:alias val="$reduce_or"/>
    <s:alias val="$reduce_bool"/>
    <path d="M0,0 A30 25 0 0 1 0,25 A30 25 0 0 0 30,12.5 A30 25 0 0 0 0,0" class="cell_\87 fill-1"/>
    <g s:x="2" s:y="5" s:pid="A"/>
    <g s:x="2" s:y="20" s:pid="B"/>
    <g s:x="30" s:y="12.5" s:pid="Y"/>
  </g>
  <g s:type="or" transform="translate(614,430.5)" s:width="30" s:height="25" id="cell_\89">
    <s:alias val="$or"/>
    <s:alias val="$logic_or"/>
    <s:alias val="$_OR_"/>
    <s:alias val="$reduce_or"/>
    <s:alias val="$reduce_bool"/>
    <path d="M0,0 A30 25 0 0 1 0,25 A30 25 0 0 0 30,12.5 A30 25 0 0 0 0,0" class="cell_\89 fill-1"/>
    <g s:x="2" s:y="5" s:pid="A"/>
    <g s:x="2" s:y="20" s:pid="B"/>
    <g s:x="30" s:y="12.5" s:pid="Y"/>
  </g>
  <g s:type="or" transform="translate(679,438)" s:width="30" s:height="25" id="cell_\91">
    <s:alias val="$or"/>
    <s:alias val="$logic_or"/>
    <s:alias val="$_OR_"/>
    <s:alias val="$reduce_or"/>
    <s:alias val="$reduce_bool"/>
    <path d="M0,0 A30 25 0 0 1 0,25 A30 25 0 0 0 30,12.5 A30 25 0 0 0 0,0" class="cell_\91 fill-1"/>
    <g s:x="2" s:y="5" s:pid="A"/>
    <g s:x="2" s:y="20" s:pid="B"/>
    <g s:x="30" s:y="12.5" s:pid="Y"/>
  </g>
  <g s:type="or" transform="translate(744,445.5)" s:width="30" s:height="25" id="cell_\93">
    <s:alias val="$or"/>
    <s:alias val="$logic_or"/>
    <s:alias val="$_OR_"/>
    <s:alias val="$reduce_or"/>
    <s:alias val="$reduce_bool"/>
    <path d="M0,0 A30 25 0 0 1 0,25 A30 25 0 0 0 30,12.5 A30 25 0 0 0 0,0" class="cell_\93 fill-1"/>
    <g s:x="2" s:y="5" s:pid="A"/>
    <g s:x="2" s:y="20" s:pid="B"/>
    <g s:x="30" s:y="12.5" s:pid="Y"/>
  </g>
  <g s:type="or" transform="translate(809,453)" s:width="30" s:height="25" id="cell_\95">
    <s:alias val="$or"/>
    <s:alias val="$logic_or"/>
    <s:alias val="$_OR_"/>
    <s:alias val="$reduce_or"/>
    <s:alias val="$reduce_bool"/>
    <path d="M0,0 A30 25 0 0 1 0,25 A30 25 0 0 0 30,12.5 A30 25 0 0 0 0,0" class="cell_\95 fill-1"/>
    <g s:x="2" s:y="5" s:pid="A"/>
    <g s:x="2" s:y="20" s:pid="B"/>
    <g s:x="30" s:y="12.5" s:pid="Y"/>
  </g>
  <g s:type="or" transform="translate(874,460.5)" s:width="30" s:height="25" id="cell_\97">
    <s:alias val="$or"/>
    <s:alias val="$logic_or"/>
    <s:alias val="$_OR_"/>
    <s:alias val="$reduce_or"/>
    <s:alias val="$reduce_bool"/>
    <path d="M0,0 A30 25 0 0 1 0,25 A30 25 0 0 0 30,12.5 A30 25 0 0 0 0,0" class="cell_\97 fill-1"/>
    <g s:x="2" s:y="5" s:pid="A"/>
    <g s:x="2" s:y="20" s:pid="B"/>
    <g s:x="30" s:y="12.5" s:pid="Y"/>
  </g>
  <g s:type="inputExt" transform="translate(12,39.5)" s:width="30" s:height="20" id="cell_source_1">
    <text x="15" y="-4" class="nodelabel text-1 cell_source_1" s:attribute="ref">source_1</text>
    <s:alias val="$_inputExt_"/>
    <path d="M0,0 L0,20 L15,20 L30,10 L15,0 Z" class="cell_source_1 fill-4"/>
    <g s:x="30" s:y="10" s:pid="Y"/>
  </g>
  <g s:type="inputExt" transform="translate(12,104.5)" s:width="30" s:height="20" id="cell_source_2">
    <text x="15" y="-4" class="nodelabel text-1 cell_source_2" s:attribute="ref">source_2</text>
    <s:alias val="$_inputExt_"/>
    <path d="M0,0 L0,20 L15,20 L30,10 L15,0 Z" class="cell_source_2 fill-4"/>
    <g s:x="30" s:y="10" s:pid="Y"/>
  </g>
  <g s:type="outputExt" transform="translate(939,265)" s:width="30" s:height="20" id="cell_flag_equal">
    <text x="15" y="-4" class="nodelabel text-1 cell_flag_equal" s:attribute="ref">flag_equal</text>
    <s:alias val="$_outputExt_"/>
    <path d="M30,0 L30,20 L15,20 L0,10 L15,0 Z" class="cell_flag_equal fill-4"/>
    <g s:x="0" s:y="10" s:pid="A"/>
  </g>
  <g s:type="outputExt" transform="translate(939,463)" s:width="30" s:height="20" id="cell_flag_less">
    <text x="15" y="-4" class="nodelabel text-1 cell_flag_less" s:attribute="ref">flag_less</text>
    <s:alias val="$_outputExt_"/>
    <path d="M30,0 L30,20 L15,20 L0,10 L15,0 Z" class="cell_flag_less fill-4"/>
    <g s:x="0" s:y="10" s:pid="A"/>
  </g>
  <g s:type="outputExt" transform="translate(939,59.5)" s:width="30" s:height="20" id="cell_flag_greather">
    <text x="15" y="-4" class="nodelabel text-1 cell_flag_greather" s:attribute="ref">flag_greather</text>
    <s:alias val="$_outputExt_"/>
    <path d="M30,0 L30,20 L15,20 L0,10 L15,0 Z" class="cell_flag_greather fill-4"/>
    <g s:x="0" s:y="10" s:pid="A"/>
  </g>
  <g s:type="split" transform="translate(357,234.5)" s:width="5" s:height="40" id="cell_$split$,71,69,67,65,63,61,46,45,">
    <rect width="5" height="160" class="splitjoinBody" s:generic="body"/>
    <s:alias val="$_split_"/>
    <g s:x="0" s:y="20" s:pid="in"/>
    <g transform="translate(4,10)" s:x="4" s:y="10" s:pid="out0">
      <text x="5" y="-4" class="text-2">7</text>
    </g>
    <g transform="translate(4,30)" s:x="4" s:y="10" s:pid="out0">
      <text x="5" y="-4" class="text-2">6</text>
    </g>
    <g transform="translate(4,50)" s:x="4" s:y="10" s:pid="out0">
      <text x="5" y="-4" class="text-2">5</text>
    </g>
    <g transform="translate(4,70)" s:x="4" s:y="10" s:pid="out0">
      <text x="5" y="-4" class="text-2">4</text>
    </g>
    <g transform="translate(4,90)" s:x="4" s:y="10" s:pid="out0">
      <text x="5" y="-4" class="text-2">3</text>
    </g>
    <g transform="translate(4,110)" s:x="4" s:y="10" s:pid="out0">
      <text x="5" y="-4" class="text-2">2</text>
    </g>
    <g transform="translate(4,130)" s:x="4" s:y="10" s:pid="out0">
      <text x="5" y="-4" class="text-2">1</text>
    </g>
    <g transform="translate(4,150)" s:x="4" s:y="10" s:pid="out0">
      <text x="5" y="-4" class="text-2">0</text>
    </g>
  </g>
  <g s:type="split" transform="translate(357,36.5)" s:width="5" s:height="40" id="cell_$split$,21,22,23,24,25,26,27,28,">
    <rect width="5" height="160" class="splitjoinBody" s:generic="body"/>
    <s:alias val="$_split_"/>
    <g s:x="0" s:y="20" s:pid="in"/>
    <g transform="translate(4,10)" s:x="4" s:y="10" s:pid="out0">
      <text x="5" y="-4" class="text-2">7</text>
    </g>
    <g transform="translate(4,30)" s:x="4" s:y="10" s:pid="out0">
      <text x="5" y="-4" class="text-2">6</text>
    </g>
    <g transform="translate(4,50)" s:x="4" s:y="10" s:pid="out0">
      <text x="5" y="-4" class="text-2">5</text>
    </g>
    <g transform="translate(4,70)" s:x="4" s:y="10" s:pid="out0">
      <text x="5" y="-4" class="text-2">4</text>
    </g>
    <g transform="translate(4,90)" s:x="4" s:y="10" s:pid="out0">
      <text x="5" y="-4" class="text-2">3</text>
    </g>
    <g transform="translate(4,110)" s:x="4" s:y="10" s:pid="out0">
      <text x="5" y="-4" class="text-2">2</text>
    </g>
    <g transform="translate(4,130)" s:x="4" s:y="10" s:pid="out0">
      <text x="5" y="-4" class="text-2">1</text>
    </g>
    <g transform="translate(4,150)" s:x="4" s:y="10" s:pid="out0">
      <text x="5" y="-4" class="text-2">0</text>
    </g>
  </g>
  <g s:type="split" transform="translate(357,455)" s:width="5" s:height="40" id="cell_$split$,29,30,31,32,33,34,35,36,">
    <rect width="5" height="160" class="splitjoinBody" s:generic="body"/>
    <s:alias val="$_split_"/>
    <g s:x="0" s:y="20" s:pid="in"/>
    <g transform="translate(4,10)" s:x="4" s:y="10" s:pid="out0">
      <text x="5" y="-4" class="text-2">6</text>
    </g>
    <g transform="translate(4,30)" s:x="4" s:y="10" s:pid="out0">
      <text x="5" y="-4" class="text-2">5</text>
    </g>
    <g transform="translate(4,50)" s:x="4" s:y="10" s:pid="out0">
      <text x="5" y="-4" class="text-2">4</text>
    </g>
    <g transform="translate(4,70)" s:x="4" s:y="10" s:pid="out0">
      <text x="5" y="-4" class="text-2">3</text>
    </g>
    <g transform="translate(4,90)" s:x="4" s:y="10" s:pid="out0">
      <text x="5" y="-4" class="text-2">2</text>
    </g>
    <g transform="translate(4,110)" s:x="4" s:y="10" s:pid="out0">
      <text x="5" y="-4" class="text-2">1</text>
    </g>
    <g transform="translate(4,130)" s:x="4" s:y="10" s:pid="out0">
      <text x="5" y="-4" class="text-2">0</text>
    </g>
    <g transform="translate(4,150)" s:x="4" s:y="10" s:pid="out0">
      <text x="5" y="-4" class="text-2">7</text>
    </g>
  </g>
  <line x1="191" x2="201" y1="57" y2="57" class="net_21,22,23,24,25,26,27,28"/>
  <line x1="201" x2="201" y1="57" y2="247.5" class="net_21,22,23,24,25,26,27,28"/>
  <circle cx="201" cy="57" r="2" style="fill:#000" class="net_21,22,23,24,25,26,27,28"/>
  <line x1="201" x2="228" y1="247.5" y2="247.5" class="net_21,22,23,24,25,26,27,28"/>
  <line x1="191" x2="357" y1="57" y2="57" class="net_21,22,23,24,25,26,27,28"/>
  <line x1="191" x2="228" y1="262.5" y2="262.5" class="net_29,30,31,32,33,34,35,36"/>
  <line x1="191" x2="201" y1="262.5" y2="262.5" class="net_29,30,31,32,33,34,35,36"/>
  <line x1="201" x2="201" y1="262.5" y2="475.5" class="net_29,30,31,32,33,34,35,36"/>
  <circle cx="201" cy="262.5" r="2" style="fill:#000" class="net_29,30,31,32,33,34,35,36"/>
  <line x1="201" x2="357" y1="475.5" y2="475.5" class="net_29,30,31,32,33,34,35,36"/>
  <line x1="361.5" x2="361.5" y1="244.5" y2="222.5" class="net_45"/>
  <line x1="361.5" x2="419" y1="222.5" y2="222.5" class="net_45"/>
  <line x1="361.5" x2="361.5" y1="244.5" y2="222.5" class="net_45"/>
  <line x1="361.5" x2="399" y1="222.5" y2="222.5" class="net_45"/>
  <line x1="399" x2="399" y1="222.5" y2="451.5" class="net_45"/>
  <circle cx="399" cy="222.5" r="2" style="fill:#000" class="net_45"/>
  <line x1="399" x2="419" y1="451.5" y2="451.5" class="net_45"/>
  <line x1="361.5" x2="361.5" y1="244.5" y2="222.5" class="net_45"/>
  <line x1="361.5" x2="399" y1="222.5" y2="222.5" class="net_45"/>
  <line x1="399" x2="399" y1="222.5" y2="48" class="net_45"/>
  <line x1="399" x2="419" y1="48" y2="48" class="net_45"/>
  <line x1="362" x2="379" y1="265" y2="265" class="net_46"/>
  <line x1="379" x2="379" y1="265" y2="237.5" class="net_46"/>
  <line x1="379" x2="419" y1="237.5" y2="237.5" class="net_46"/>
  <line x1="361.5" x2="361.5" y1="46.5" y2="17" class="net_28"/>
  <line x1="361.5" x2="486" y1="17" y2="17" class="net_28"/>
  <line x1="449" x2="459" y1="40.5" y2="40.5" class="net_48"/>
  <line x1="459" x2="459" y1="40.5" y2="32" class="net_48"/>
  <line x1="459" x2="486" y1="32" y2="32" class="net_48"/>
  <line x1="514" x2="551" y1="24.5" y2="24.5" class="net_49"/>
  <line x1="514" x2="524" y1="84.5" y2="84.5" class="net_50"/>
  <line x1="524" x2="524" y1="84.5" y2="39.5" class="net_50"/>
  <line x1="524" x2="551" y1="39.5" y2="39.5" class="net_50"/>
  <line x1="579" x2="616" y1="32" y2="32" class="net_51"/>
  <line x1="579" x2="589" y1="99.5" y2="99.5" class="net_52"/>
  <line x1="589" x2="589" y1="99.5" y2="47" class="net_52"/>
  <line x1="589" x2="616" y1="47" y2="47" class="net_52"/>
  <line x1="644" x2="681" y1="39.5" y2="39.5" class="net_53"/>
  <line x1="644" x2="654" y1="114.5" y2="114.5" class="net_54"/>
  <line x1="654" x2="654" y1="114.5" y2="54.5" class="net_54"/>
  <line x1="654" x2="681" y1="54.5" y2="54.5" class="net_54"/>
  <line x1="709" x2="746" y1="47" y2="47" class="net_55"/>
  <line x1="709" x2="719" y1="129.5" y2="129.5" class="net_56"/>
  <line x1="719" x2="719" y1="129.5" y2="62" class="net_56"/>
  <line x1="719" x2="746" y1="62" y2="62" class="net_56"/>
  <line x1="774" x2="811" y1="54.5" y2="54.5" class="net_57"/>
  <line x1="774" x2="784" y1="144.5" y2="144.5" class="net_58"/>
  <line x1="784" x2="784" y1="144.5" y2="69.5" class="net_58"/>
  <line x1="784" x2="811" y1="69.5" y2="69.5" class="net_58"/>
  <line x1="839" x2="876" y1="62" y2="62" class="net_59"/>
  <line x1="839" x2="849" y1="199" y2="199" class="net_60"/>
  <line x1="849" x2="849" y1="199" y2="77" class="net_60"/>
  <line x1="849" x2="876" y1="77" y2="77" class="net_60"/>
  <line x1="449" x2="484" y1="230" y2="230" class="net_47"/>
  <line x1="449" x2="469" y1="230" y2="230" class="net_47"/>
  <line x1="469" x2="469" y1="230" y2="480.5" class="net_47"/>
  <circle cx="469" cy="230" r="2" style="fill:#000" class="net_47"/>
  <line x1="469" x2="484" y1="480.5" y2="480.5" class="net_47"/>
  <line x1="449" x2="469" y1="230" y2="230" class="net_47"/>
  <line x1="469" x2="469" y1="230" y2="77" class="net_47"/>
  <line x1="469" x2="484" y1="77" y2="77" class="net_47"/>
  <line x1="362" x2="389" y1="285" y2="285" class="net_61"/>
  <line x1="389" x2="389" y1="285" y2="252.5" class="net_61"/>
  <line x1="389" x2="459" y1="252.5" y2="252.5" class="net_61"/>
  <line x1="459" x2="459" y1="252.5" y2="245" class="net_61"/>
  <line x1="459" x2="484" y1="245" y2="245" class="net_61"/>
  <line x1="514" x2="549" y1="237.5" y2="237.5" class="net_62"/>
  <line x1="514" x2="534" y1="237.5" y2="237.5" class="net_62"/>
  <line x1="534" x2="534" y1="237.5" y2="495.5" class="net_62"/>
  <circle cx="534" cy="237.5" r="2" style="fill:#000" class="net_62"/>
  <line x1="534" x2="549" y1="495.5" y2="495.5" class="net_62"/>
  <line x1="514" x2="534" y1="237.5" y2="237.5" class="net_62"/>
  <line x1="534" x2="534" y1="237.5" y2="92" class="net_62"/>
  <line x1="534" x2="549" y1="92" y2="92" class="net_62"/>
  <line x1="362" x2="524" y1="305" y2="305" class="net_63"/>
  <line x1="524" x2="524" y1="305" y2="252.5" class="net_63"/>
  <line x1="524" x2="549" y1="252.5" y2="252.5" class="net_63"/>
  <line x1="579" x2="614" y1="245" y2="245" class="net_64"/>
  <line x1="579" x2="599" y1="245" y2="245" class="net_64"/>
  <line x1="599" x2="599" y1="245" y2="510.5" class="net_64"/>
  <circle cx="599" cy="245" r="2" style="fill:#000" class="net_64"/>
  <line x1="599" x2="614" y1="510.5" y2="510.5" class="net_64"/>
  <line x1="579" x2="599" y1="245" y2="245" class="net_64"/>
  <line x1="599" x2="599" y1="245" y2="107" class="net_64"/>
  <line x1="599" x2="614" y1="107" y2="107" class="net_64"/>
  <line x1="362" x2="379" y1="325" y2="325" class="net_65"/>
  <line x1="379" x2="379" y1="325" y2="316" class="net_65"/>
  <line x1="379" x2="589" y1="316" y2="316" class="net_65"/>
  <line x1="589" x2="589" y1="316" y2="260" class="net_65"/>
  <line x1="589" x2="614" y1="260" y2="260" class="net_65"/>
  <line x1="644" x2="679" y1="252.5" y2="252.5" class="net_66"/>
  <line x1="644" x2="664" y1="252.5" y2="252.5" class="net_66"/>
  <line x1="664" x2="664" y1="252.5" y2="525.5" class="net_66"/>
  <circle cx="664" cy="252.5" r="2" style="fill:#000" class="net_66"/>
  <line x1="664" x2="679" y1="525.5" y2="525.5" class="net_66"/>
  <line x1="644" x2="664" y1="252.5" y2="252.5" class="net_66"/>
  <line x1="664" x2="664" y1="252.5" y2="122" class="net_66"/>
  <line x1="664" x2="679" y1="122" y2="122" class="net_66"/>
  <line x1="362" x2="379" y1="345" y2="345" class="net_67"/>
  <line x1="379" x2="379" y1="345" y2="327" class="net_67"/>
  <line x1="379" x2="654" y1="327" y2="327" class="net_67"/>
  <line x1="654" x2="654" y1="327" y2="267.5" class="net_67"/>
  <line x1="654" x2="679" y1="267.5" y2="267.5" class="net_67"/>
  <line x1="709" x2="744" y1="260" y2="260" class="net_68"/>
  <line x1="709" x2="729" y1="260" y2="260" class="net_68"/>
  <line x1="729" x2="729" y1="260" y2="540.5" class="net_68"/>
  <circle cx="729" cy="260" r="2" style="fill:#000" class="net_68"/>
  <line x1="729" x2="744" y1="540.5" y2="540.5" class="net_68"/>
  <line x1="709" x2="729" y1="260" y2="260" class="net_68"/>
  <line x1="729" x2="729" y1="260" y2="137" class="net_68"/>
  <line x1="729" x2="744" y1="137" y2="137" class="net_68"/>
  <line x1="362" x2="389" y1="365" y2="365" class="net_69"/>
  <line x1="389" x2="389" y1="365" y2="338" class="net_69"/>
  <line x1="389" x2="719" y1="338" y2="338" class="net_69"/>
  <line x1="719" x2="719" y1="338" y2="275" class="net_69"/>
  <line x1="719" x2="744" y1="275" y2="275" class="net_69"/>
  <line x1="774" x2="874" y1="267.5" y2="267.5" class="net_70"/>
  <line x1="774" x2="794" y1="267.5" y2="267.5" class="net_70"/>
  <line x1="794" x2="794" y1="267.5" y2="555.5" class="net_70"/>
  <circle cx="794" cy="267.5" r="2" style="fill:#000" class="net_70"/>
  <line x1="794" x2="809" y1="555.5" y2="555.5" class="net_70"/>
  <line x1="774" x2="794" y1="267.5" y2="267.5" class="net_70"/>
  <line x1="794" x2="794" y1="267.5" y2="191.5" class="net_70"/>
  <line x1="794" x2="809" y1="191.5" y2="191.5" class="net_70"/>
  <line x1="361.5" x2="361.5" y1="385.5" y2="404.5" class="net_71"/>
  <line x1="361.5" x2="849" y1="404.5" y2="404.5" class="net_71"/>
  <line x1="849" x2="849" y1="404.5" y2="282.5" class="net_71"/>
  <line x1="849" x2="874" y1="282.5" y2="282.5" class="net_71"/>
  <line x1="42" x2="95" y1="114.5" y2="114.5" class="net_10,11,12,13,14,15,16,17"/>
  <line x1="42" x2="70" y1="114.5" y2="114.5" class="net_10,11,12,13,14,15,16,17"/>
  <line x1="70" x2="70" y1="114.5" y2="275" class="net_10,11,12,13,14,15,16,17"/>
  <line x1="70" x2="136" y1="275" y2="275" class="net_10,11,12,13,14,15,16,17"/>
  <line x1="136" x2="136" y1="275" y2="270" class="net_10,11,12,13,14,15,16,17"/>
  <circle cx="70" cy="114.5" r="2" style="fill:#000" class="net_10,11,12,13,14,15,16,17"/>
  <line x1="136" x2="161" y1="270" y2="270" class="net_10,11,12,13,14,15,16,17"/>
  <line x1="361.5" x2="361.5" y1="465" y2="436.5" class="net_35"/>
  <line x1="361.5" x2="419" y1="436.5" y2="436.5" class="net_35"/>
  <line x1="362" x2="389" y1="485.5" y2="485.5" class="net_34"/>
  <line x1="389" x2="389" y1="485.5" y2="495.5" class="net_34"/>
  <line x1="389" x2="484" y1="495.5" y2="495.5" class="net_34"/>
  <line x1="362" x2="389" y1="505.5" y2="505.5" class="net_33"/>
  <line x1="389" x2="389" y1="505.5" y2="510.5" class="net_33"/>
  <line x1="389" x2="549" y1="510.5" y2="510.5" class="net_33"/>
  <line x1="42" x2="161" y1="49.5" y2="49.5" class="net_2,3,4,5,6,7,8,9"/>
  <line x1="42" x2="80" y1="49.5" y2="49.5" class="net_2,3,4,5,6,7,8,9"/>
  <line x1="80" x2="80" y1="49.5" y2="255" class="net_2,3,4,5,6,7,8,9"/>
  <circle cx="80" cy="49.5" r="2" style="fill:#000" class="net_2,3,4,5,6,7,8,9"/>
  <line x1="80" x2="95" y1="255" y2="255" class="net_2,3,4,5,6,7,8,9"/>
  <line x1="123" x2="136" y1="114.5" y2="114.5" class="net_72,73,74,75,76,77,78,79"/>
  <line x1="136" x2="136" y1="114.5" y2="64.5" class="net_72,73,74,75,76,77,78,79"/>
  <line x1="136" x2="161" y1="64.5" y2="64.5" class="net_72,73,74,75,76,77,78,79"/>
  <line x1="362" x2="614" y1="525.5" y2="525.5" class="net_32"/>
  <line x1="362" x2="389" y1="545.5" y2="545.5" class="net_31"/>
  <line x1="389" x2="389" y1="545.5" y2="540.5" class="net_31"/>
  <line x1="389" x2="679" y1="540.5" y2="540.5" class="net_31"/>
  <line x1="362" x2="389" y1="565.5" y2="565.5" class="net_30"/>
  <line x1="389" x2="389" y1="565.5" y2="555.5" class="net_30"/>
  <line x1="389" x2="744" y1="555.5" y2="555.5" class="net_30"/>
  <line x1="362" x2="389" y1="585.5" y2="585.5" class="net_29"/>
  <line x1="389" x2="389" y1="585.5" y2="570.5" class="net_29"/>
  <line x1="389" x2="809" y1="570.5" y2="570.5" class="net_29"/>
  <line x1="362" x2="379" y1="67" y2="67" class="net_27"/>
  <line x1="379" x2="379" y1="67" y2="33" class="net_27"/>
  <line x1="379" x2="419" y1="33" y2="33" class="net_27"/>
  <line x1="362" x2="409" y1="87" y2="87" class="net_26"/>
  <line x1="409" x2="409" y1="87" y2="92" class="net_26"/>
  <line x1="409" x2="484" y1="92" y2="92" class="net_26"/>
  <line x1="123" x2="161" y1="255" y2="255" class="net_86,87,88,89,90,91,92,93"/>
  <line x1="362" x2="549" y1="107" y2="107" class="net_25"/>
  <line x1="362" x2="409" y1="127" y2="127" class="net_24"/>
  <line x1="409" x2="409" y1="127" y2="122" class="net_24"/>
  <line x1="409" x2="614" y1="122" y2="122" class="net_24"/>
  <line x1="362" x2="409" y1="147" y2="147" class="net_23"/>
  <line x1="409" x2="409" y1="147" y2="137" class="net_23"/>
  <line x1="409" x2="679" y1="137" y2="137" class="net_23"/>
  <line x1="362" x2="409" y1="167" y2="167" class="net_22"/>
  <line x1="409" x2="409" y1="167" y2="152" class="net_22"/>
  <line x1="409" x2="744" y1="152" y2="152" class="net_22"/>
  <line x1="256" x2="291" y1="255" y2="255" class="net_37,38,39,40,41,42,43,44"/>
  <line x1="361.5" x2="361.5" y1="187.5" y2="206.5" class="net_21"/>
  <line x1="361.5" x2="809" y1="206.5" y2="206.5" class="net_21"/>
  <line x1="361.5" x2="361.5" y1="606" y2="625" class="net_36"/>
  <line x1="361.5" x2="379" y1="625" y2="625" class="net_36"/>
  <line x1="379" x2="379" y1="625" y2="420.5" class="net_36"/>
  <line x1="379" x2="486" y1="420.5" y2="420.5" class="net_36"/>
  <line x1="449" x2="459" y1="444" y2="444" class="net_80"/>
  <line x1="459" x2="459" y1="444" y2="435.5" class="net_80"/>
  <line x1="459" x2="486" y1="435.5" y2="435.5" class="net_80"/>
  <line x1="514" x2="551" y1="428" y2="428" class="net_95"/>
  <line x1="514" x2="524" y1="488" y2="488" class="net_81"/>
  <line x1="524" x2="524" y1="488" y2="443" class="net_81"/>
  <line x1="524" x2="551" y1="443" y2="443" class="net_81"/>
  <line x1="579" x2="616" y1="435.5" y2="435.5" class="net_96"/>
  <line x1="579" x2="589" y1="503" y2="503" class="net_82"/>
  <line x1="589" x2="589" y1="503" y2="450.5" class="net_82"/>
  <line x1="589" x2="616" y1="450.5" y2="450.5" class="net_82"/>
  <line x1="644" x2="681" y1="443" y2="443" class="net_97"/>
  <line x1="644" x2="654" y1="518" y2="518" class="net_83"/>
  <line x1="654" x2="654" y1="518" y2="458" class="net_83"/>
  <line x1="654" x2="681" y1="458" y2="458" class="net_83"/>
  <line x1="709" x2="746" y1="450.5" y2="450.5" class="net_98"/>
  <line x1="709" x2="719" y1="533" y2="533" class="net_84"/>
  <line x1="719" x2="719" y1="533" y2="465.5" class="net_84"/>
  <line x1="719" x2="746" y1="465.5" y2="465.5" class="net_84"/>
  <line x1="774" x2="811" y1="458" y2="458" class="net_99"/>
  <line x1="774" x2="784" y1="548" y2="548" class="net_85"/>
  <line x1="784" x2="784" y1="548" y2="473" class="net_85"/>
  <line x1="784" x2="811" y1="473" y2="473" class="net_85"/>
  <line x1="839" x2="876" y1="465.5" y2="465.5" class="net_100"/>
  <line x1="839" x2="849" y1="563" y2="563" class="net_94"/>
  <line x1="849" x2="849" y1="563" y2="480.5" class="net_94"/>
  <line x1="849" x2="876" y1="480.5" y2="480.5" class="net_94"/>
  <line x1="904" x2="939" y1="275" y2="275" class="net_18"/>
  <line x1="904" x2="939" y1="473" y2="473" class="net_19"/>
  <line x1="904" x2="939" y1="69.5" y2="69.5" class="net_20"/>
  <line x1="319" x2="357" y1="255" y2="255" class="net_71,69,67,65,63,61,46,45"/>
</svg>
