<svg xmlns="http://www.w3.org/2000/svg" xmlns:xlink="http://www.w3.org/1999/xlink" xmlns:s="https://github.com/nturley/netlistsvg" width="429" height="248.5">
  <style>  svg {
      stroke: #011e41;
      fill: none;
    }
    text {
      fill:#ffffff;
      stroke:none;
      font-size:10px;
      font-weight: bold;
      font-family: "Courier New", monospace;
    }
    .fill-1 { fill: #003262; }
    .fill-2 { fill: #011e41; stroke: #003262; }
    .fill-3 { fill: #ffffff; }
    .fill-4 { fill: #003262; }
    .fill-5 { fill: #011e41; stroke: #fdda64; }
    .text-1 { fill: #fdb515; }
    .text-2 { fill: #003262; }
    .text-3 { stroke: #fdda64; }
    .nodelabel { text-anchor: middle; }
    .inputPortLabel { text-anchor: end; }
    .splitjoinBody { fill: #3c3c43; }</style>
  <g s:type="not" transform="translate(147,77)" s:width="30" s:height="20" id="cell_\4">
    <s:alias val="$_NOT_"/>
    <s:alias val="$not"/>
    <s:alias val="$logic_not"/>
    <path d="M0,0 L0,20 L20,10 Z" class="cell_\4 fill-1"/>
    <circle cx="24" cy="10" r="3" class="cell_\4 fill-3"/>
    <g s:x="-1" s:y="10" s:pid="A"/>
    <g s:x="27" s:y="10" s:pid="Y"/>
  </g>
  <g s:type="and" transform="translate(221,27)" s:width="30" s:height="25" id="cell_\5">
    <s:alias val="$and"/>
    <s:alias val="$logic_and"/>
    <s:alias val="$_AND_"/>
    <s:alias val="$reduce_and"/>
    <path d="M0,0 L0,25 L15,25 A15 12.5 0 0 0 15,0 Z" class="cell_\5 fill-1"/>
    <g s:x="0" s:y="5" s:pid="A"/>
    <g s:x="0" s:y="20" s:pid="B"/>
    <g s:x="30" s:y="12.5" s:pid="Y"/>
  </g>
  <g s:type="and" transform="translate(221,147)" s:width="30" s:height="25" id="cell_\6">
    <s:alias val="$and"/>
    <s:alias val="$logic_and"/>
    <s:alias val="$_AND_"/>
    <s:alias val="$reduce_and"/>
    <path d="M0,0 L0,25 L15,25 A15 12.5 0 0 0 15,0 Z" class="cell_\6 fill-1"/>
    <g s:x="0" s:y="5" s:pid="A"/>
    <g s:x="0" s:y="20" s:pid="B"/>
    <g s:x="30" s:y="12.5" s:pid="Y"/>
  </g>
  <g s:type="or" transform="translate(286,34.5)" s:width="30" s:height="25" id="cell_\7">
    <s:alias val="$or"/>
    <s:alias val="$logic_or"/>
    <s:alias val="$_OR_"/>
    <s:alias val="$reduce_or"/>
    <s:alias val="$reduce_bool"/>
    <path d="M0,0 A30 25 0 0 1 0,25 A30 25 0 0 0 30,12.5 A30 25 0 0 0 0,0" class="cell_\7 fill-1"/>
    <g s:x="2" s:y="5" s:pid="A"/>
    <g s:x="2" s:y="20" s:pid="B"/>
    <g s:x="30" s:y="12.5" s:pid="Y"/>
  </g>
  <g s:type="inputExt" transform="translate(12,44.5)" s:width="30" s:height="20" id="cell_selector">
    <text x="15" y="-4" class="nodelabel text-1 cell_selector" s:attribute="ref">selector</text>
    <s:alias val="$_inputExt_"/>
    <path d="M0,0 L0,20 L15,20 L30,10 L15,0 Z" class="cell_selector fill-4"/>
    <g s:x="30" s:y="10" s:pid="Y"/>
  </g>
  <g s:type="inputExt" transform="translate(138,22)" s:width="30" s:height="20" id="cell_source_1">
    <text x="15" y="-4" class="nodelabel text-1 cell_source_1" s:attribute="ref">source_1</text>
    <s:alias val="$_inputExt_"/>
    <path d="M0,0 L0,20 L15,20 L30,10 L15,0 Z" class="cell_source_1 fill-4"/>
    <g s:x="30" s:y="10" s:pid="Y"/>
  </g>
  <g s:type="inputExt" transform="translate(138,142)" s:width="30" s:height="20" id="cell_source_2">
    <text x="15" y="-4" class="nodelabel text-1 cell_source_2" s:attribute="ref">source_2</text>
    <s:alias val="$_inputExt_"/>
    <path d="M0,0 L0,20 L15,20 L30,10 L15,0 Z" class="cell_source_2 fill-4"/>
    <g s:x="30" s:y="10" s:pid="Y"/>
  </g>
  <g s:type="outputExt" transform="translate(351,37)" s:width="30" s:height="20" id="cell_destination">
    <text x="15" y="-4" class="nodelabel text-1 cell_destination" s:attribute="ref">destination</text>
    <s:alias val="$_outputExt_"/>
    <path d="M30,0 L30,20 L15,20 L0,10 L15,0 Z" class="cell_destination fill-4"/>
    <g s:x="0" s:y="10" s:pid="A"/>
  </g>
  <g s:type="join" transform="translate(95,66.5)" s:width="4" s:height="40" id="cell_$join$,2,2,2,2,2,2,2,2,">
    <rect width="5" height="160" class="splitjoinBody" s:generic="body"/>
    <s:alias val="$_join_"/>
    <g s:x="5" s:y="20" s:pid="out"/>
    <g transform="translate(0,10)" s:x="0" s:y="10" s:pid="in0">
      <text x="-3" y="-4" class="inputPortLabel text-2">0</text>
    </g>
    <g transform="translate(0,30)" s:x="0" s:y="10" s:pid="in0">
      <text x="-3" y="-4" class="inputPortLabel text-2">1</text>
    </g>
    <g transform="translate(0,50)" s:x="0" s:y="10" s:pid="in0">
      <text x="-3" y="-4" class="inputPortLabel text-2">2</text>
    </g>
    <g transform="translate(0,70)" s:x="0" s:y="10" s:pid="in0">
      <text x="-3" y="-4" class="inputPortLabel text-2">3</text>
    </g>
    <g transform="translate(0,90)" s:x="0" s:y="10" s:pid="in0">
      <text x="-3" y="-4" class="inputPortLabel text-2">4</text>
    </g>
    <g transform="translate(0,110)" s:x="0" s:y="10" s:pid="in0">
      <text x="-3" y="-4" class="inputPortLabel text-2">5</text>
    </g>
    <g transform="translate(0,130)" s:x="0" s:y="10" s:pid="in0">
      <text x="-3" y="-4" class="inputPortLabel text-2">6</text>
    </g>
    <g transform="translate(0,150)" s:x="0" s:y="10" s:pid="in0">
      <text x="-3" y="-4" class="inputPortLabel text-2">7</text>
    </g>
  </g>
  <line x1="101" x2="146" y1="87" y2="87" class="net_2,2,2,2,2,2,2,2"/>
  <line x1="101" x2="113" y1="87" y2="87" class="net_2,2,2,2,2,2,2,2"/>
  <line x1="113" x2="113" y1="87" y2="172" class="net_2,2,2,2,2,2,2,2"/>
  <line x1="113" x2="196" y1="172" y2="172" class="net_2,2,2,2,2,2,2,2"/>
  <line x1="196" x2="196" y1="172" y2="167" class="net_2,2,2,2,2,2,2,2"/>
  <circle cx="113" cy="87" r="2" style="fill:#000" class="net_2,2,2,2,2,2,2,2"/>
  <line x1="196" x2="221" y1="167" y2="167" class="net_2,2,2,2,2,2,2,2"/>
  <line x1="168" x2="221" y1="32" y2="32" class="net_3,4,5,6,7,8,9,10"/>
  <line x1="174" x2="196" y1="87" y2="87" class="net_27,28,29,30,31,32,33,34"/>
  <line x1="196" x2="196" y1="87" y2="47" class="net_27,28,29,30,31,32,33,34"/>
  <line x1="196" x2="221" y1="47" y2="47" class="net_27,28,29,30,31,32,33,34"/>
  <line x1="168" x2="221" y1="152" y2="152" class="net_11,12,13,14,15,16,17,18"/>
  <line x1="251" x2="288" y1="39.5" y2="39.5" class="net_35,36,37,38,39,40,41,42"/>
  <line x1="251" x2="261" y1="159.5" y2="159.5" class="net_43,44,45,46,47,48,49,50"/>
  <line x1="261" x2="261" y1="159.5" y2="54.5" class="net_43,44,45,46,47,48,49,50"/>
  <line x1="261" x2="288" y1="54.5" y2="54.5" class="net_43,44,45,46,47,48,49,50"/>
  <line x1="316" x2="351" y1="47" y2="47" class="net_19,20,21,22,23,24,25,26"/>
  <line x1="42" x2="95.5" y1="54.5" y2="54.5" class="net_2"/>
  <line x1="95.5" x2="95.5" y1="54.5" y2="76.5" class="net_2"/>
  <line x1="42" x2="70" y1="54.5" y2="54.5" class="net_2"/>
  <line x1="70" x2="70" y1="54.5" y2="97" class="net_2"/>
  <circle cx="70" cy="54.5" r="2" style="fill:#000" class="net_2"/>
  <circle cx="70" cy="97" r="2" style="fill:#000" class="net_2"/>
  <line x1="70" x2="95" y1="97" y2="97" class="net_2"/>
  <line x1="42" x2="70" y1="54.5" y2="54.5" class="net_2"/>
  <line x1="70" x2="70" y1="54.5" y2="117" class="net_2"/>
  <circle cx="70" cy="117" r="2" style="fill:#000" class="net_2"/>
  <line x1="70" x2="95" y1="117" y2="117" class="net_2"/>
  <line x1="42" x2="70" y1="54.5" y2="54.5" class="net_2"/>
  <line x1="70" x2="70" y1="54.5" y2="137" class="net_2"/>
  <circle cx="70" cy="137" r="2" style="fill:#000" class="net_2"/>
  <line x1="70" x2="95" y1="137" y2="137" class="net_2"/>
  <line x1="42" x2="70" y1="54.5" y2="54.5" class="net_2"/>
  <line x1="70" x2="70" y1="54.5" y2="157" class="net_2"/>
  <circle cx="70" cy="157" r="2" style="fill:#000" class="net_2"/>
  <line x1="70" x2="95" y1="157" y2="157" class="net_2"/>
  <line x1="42" x2="70" y1="54.5" y2="54.5" class="net_2"/>
  <line x1="70" x2="70" y1="54.5" y2="177" class="net_2"/>
  <circle cx="70" cy="177" r="2" style="fill:#000" class="net_2"/>
  <line x1="70" x2="95" y1="177" y2="177" class="net_2"/>
  <line x1="42" x2="70" y1="54.5" y2="54.5" class="net_2"/>
  <line x1="70" x2="70" y1="54.5" y2="197" class="net_2"/>
  <circle cx="70" cy="197" r="2" style="fill:#000" class="net_2"/>
  <line x1="70" x2="95" y1="197" y2="197" class="net_2"/>
  <line x1="42" x2="70" y1="54.5" y2="54.5" class="net_2"/>
  <line x1="70" x2="70" y1="54.5" y2="236.5" class="net_2"/>
  <line x1="70" x2="95.5" y1="236.5" y2="236.5" class="net_2"/>
  <line x1="95.5" x2="95.5" y1="236.5" y2="217.5" class="net_2"/>
</svg>
