<svg xmlns="http://www.w3.org/2000/svg" xmlns:xlink="http://www.w3.org/1999/xlink" xmlns:s="https://github.com/nturley/netlistsvg" width="493" height="326">
  <style>  svg {
      stroke: #011e41;
      fill: none;
    }
    text {
      fill:#ffffff;
      stroke:none;
      font-size:10px;
      font-weight: bold;
      font-family: "Courier New", monospace;
    }
    .fill-1 { fill: #003262; }
    .fill-2 { fill: #011e41; stroke: #003262; }
    .fill-3 { fill: #ffffff; }
    .fill-4 { fill: #003262; }
    .fill-5 { fill: #011e41; stroke: #fdda64; }
    .text-1 { fill: #fdb515; }
    .text-2 { fill: #003262; }
    .text-3 { stroke: #fdda64; }
    .nodelabel { text-anchor: middle; }
    .inputPortLabel { text-anchor: end; }
    .splitjoinBody { fill: #3c3c43; }</style>
  <g s:type="mux" transform="translate(360,47)" s:width="20" s:height="40" id="cell_\3">
    <s:alias val="$pmux"/>
    <s:alias val="$mux"/>
    <s:alias val="$_MUX_"/>
    <path d="M0,0 L20,10 L20,30 L0,40 Z" class="cell_\3 fill-1"/>
    <text x="5" y="32" class="nodelabel cell_\3" s:attribute="">1</text>
    <text x="5" y="13" class="nodelabel cell_\3" s:attribute="">0</text>
    <g s:x="0" s:y="10" s:pid="A"/>
    <g s:x="0" s:y="30" s:pid="B"/>
    <g s:x="10" s:y="35" s:pid="S"/>
    <g s:x="20" s:y="20" s:pid="Y"/>
  </g>
  <g s:type="generic" transform="translate(227,46.5)" s:width="30" s:height="40" id="cell_mux_1">
    <text x="15" y="-4" class="nodelabel text-1 cell_mux_1" s:attribute="ref">generic_mux_2x1_32</text>
    <rect width="30" height="60" s:generic="body" class="cell_mux_1 fill-1"/>
    <g transform="translate(0,10)" s:x="0" s:y="10" s:pid="in0" id="port_mux_1~selector">
      <text x="-3" y="-4" class="inputPortLabel text-2 cell_mux_1">selector</text>
    </g>
    <g transform="translate(0,30)" s:x="0" s:y="10" s:pid="in0" id="port_mux_1~source_1">
      <text x="-3" y="-4" class="inputPortLabel text-2 cell_mux_1">source_1</text>
    </g>
    <g transform="translate(0,50)" s:x="0" s:y="10" s:pid="in0" id="port_mux_1~source_2">
      <text x="-3" y="-4" class="inputPortLabel text-2 cell_mux_1">source_2</text>
    </g>
    <g transform="translate(30,10)" s:x="30" s:y="10" s:pid="out0" id="port_mux_1~destination">
      <text x="5" y="-4" class="cell_mux_1 text-2">destination</text>
    </g>
  </g>
  <g s:type="generic" transform="translate(227,208.5)" s:width="30" s:height="40" id="cell_mux_2">
    <text x="15" y="-4" class="nodelabel text-1 cell_mux_2" s:attribute="ref">generic_mux_2x1_32</text>
    <rect width="30" height="60" s:generic="body" class="cell_mux_2 fill-1"/>
    <g transform="translate(0,10)" s:x="0" s:y="10" s:pid="in0" id="port_mux_2~selector">
      <text x="-3" y="-4" class="inputPortLabel text-2 cell_mux_2">selector</text>
    </g>
    <g transform="translate(0,30)" s:x="0" s:y="10" s:pid="in0" id="port_mux_2~source_1">
      <text x="-3" y="-4" class="inputPortLabel text-2 cell_mux_2">source_1</text>
    </g>
    <g transform="translate(0,50)" s:x="0" s:y="10" s:pid="in0" id="port_mux_2~source_2">
      <text x="-3" y="-4" class="inputPortLabel text-2 cell_mux_2">source_2</text>
    </g>
    <g transform="translate(30,10)" s:x="30" s:y="10" s:pid="out0" id="port_mux_2~destination">
      <text x="5" y="-4" class="cell_mux_2 text-2">destination</text>
    </g>
  </g>
  <g s:type="inputExt" transform="translate(95,22)" s:width="30" s:height="20" id="cell_source_1">
    <text x="15" y="-4" class="nodelabel text-1 cell_source_1" s:attribute="ref">source_1</text>
    <s:alias val="$_inputExt_"/>
    <path d="M0,0 L0,20 L15,20 L30,10 L15,0 Z" class="cell_source_1 fill-4"/>
    <g s:x="30" s:y="10" s:pid="Y"/>
  </g>
  <g s:type="inputExt" transform="translate(95,87)" s:width="30" s:height="20" id="cell_source_2">
    <text x="15" y="-4" class="nodelabel text-1 cell_source_2" s:attribute="ref">source_2</text>
    <s:alias val="$_inputExt_"/>
    <path d="M0,0 L0,20 L15,20 L30,10 L15,0 Z" class="cell_source_2 fill-4"/>
    <g s:x="30" s:y="10" s:pid="Y"/>
  </g>
  <g s:type="inputExt" transform="translate(95,229)" s:width="30" s:height="20" id="cell_source_3">
    <text x="15" y="-4" class="nodelabel text-1 cell_source_3" s:attribute="ref">source_3</text>
    <s:alias val="$_inputExt_"/>
    <path d="M0,0 L0,20 L15,20 L30,10 L15,0 Z" class="cell_source_3 fill-4"/>
    <g s:x="30" s:y="10" s:pid="Y"/>
  </g>
  <g s:type="inputExt" transform="translate(95,294)" s:width="30" s:height="20" id="cell_source_4">
    <text x="15" y="-4" class="nodelabel text-1 cell_source_4" s:attribute="ref">source_4</text>
    <s:alias val="$_inputExt_"/>
    <path d="M0,0 L0,20 L15,20 L30,10 L15,0 Z" class="cell_source_4 fill-4"/>
    <g s:x="30" s:y="10" s:pid="Y"/>
  </g>
  <g s:type="inputExt" transform="translate(12,154.5)" s:width="30" s:height="20" id="cell_selector">
    <text x="15" y="-4" class="nodelabel text-1 cell_selector" s:attribute="ref">selector</text>
    <s:alias val="$_inputExt_"/>
    <path d="M0,0 L0,20 L15,20 L30,10 L15,0 Z" class="cell_selector fill-4"/>
    <g s:x="30" s:y="10" s:pid="Y"/>
  </g>
  <g s:type="outputExt" transform="translate(415,57)" s:width="30" s:height="20" id="cell_destination">
    <text x="15" y="-4" class="nodelabel text-1 cell_destination" s:attribute="ref">destination</text>
    <s:alias val="$_outputExt_"/>
    <path d="M30,0 L30,20 L15,20 L0,10 L15,0 Z" class="cell_destination fill-4"/>
    <g s:x="0" s:y="10" s:pid="A"/>
  </g>
  <g s:type="split" transform="translate(117.66666666666666,144)" s:width="5" s:height="40" id="cell_$split$,130,131,">
    <rect width="5" height="40" class="splitjoinBody" s:generic="body"/>
    <s:alias val="$_split_"/>
    <g s:x="0" s:y="20" s:pid="in"/>
    <g transform="translate(4,10)" s:x="4" s:y="10" s:pid="out0">
      <text x="5" y="-4" class="text-2">1</text>
    </g>
    <g transform="translate(4,30)" s:x="4" s:y="10" s:pid="out0">
      <text x="5" y="-4" class="text-2">0</text>
    </g>
  </g>
  <line x1="258" x2="360" y1="57" y2="57" class="net_164,165,166,167,168,169,170,171,172,173,174,175,176,177,178,179,180,181,182,183,184,185,186,187,188,189,190,191,192,193,194,195"/>
  <line x1="258" x2="335" y1="219" y2="219" class="net_196,197,198,199,200,201,202,203,204,205,206,207,208,209,210,211,212,213,214,215,216,217,218,219,220,221,222,223,224,225,226,227"/>
  <line x1="335" x2="335" y1="219" y2="77" class="net_196,197,198,199,200,201,202,203,204,205,206,207,208,209,210,211,212,213,214,215,216,217,218,219,220,221,222,223,224,225,226,227"/>
  <line x1="335" x2="360" y1="77" y2="77" class="net_196,197,198,199,200,201,202,203,204,205,206,207,208,209,210,211,212,213,214,215,216,217,218,219,220,221,222,223,224,225,226,227"/>
  <line x1="122.66666666666666" x2="370" y1="154.5" y2="154.5" class="net_131"/>
  <line x1="370" x2="370" y1="154.5" y2="82" class="net_131"/>
  <line x1="122.66666666666666" x2="153" y1="174.5" y2="174.5" class="net_130"/>
  <line x1="153" x2="153" y1="174.5" y2="57" class="net_130"/>
  <circle cx="153" cy="174.5" r="2" style="fill:#000" class="net_130"/>
  <line x1="153" x2="227" y1="57" y2="57" class="net_130"/>
  <line x1="122.66666666666666" x2="153" y1="174.5" y2="174.5" class="net_130"/>
  <line x1="153" x2="153" y1="174.5" y2="219" class="net_130"/>
  <line x1="153" x2="227" y1="219" y2="219" class="net_130"/>
  <line x1="125" x2="163" y1="32" y2="32" class="net_2,3,4,5,6,7,8,9,10,11,12,13,14,15,16,17,18,19,20,21,22,23,24,25,26,27,28,29,30,31,32,33"/>
  <line x1="163" x2="163" y1="32" y2="77" class="net_2,3,4,5,6,7,8,9,10,11,12,13,14,15,16,17,18,19,20,21,22,23,24,25,26,27,28,29,30,31,32,33"/>
  <line x1="163" x2="227" y1="77" y2="77" class="net_2,3,4,5,6,7,8,9,10,11,12,13,14,15,16,17,18,19,20,21,22,23,24,25,26,27,28,29,30,31,32,33"/>
  <line x1="125" x2="227" y1="97" y2="97" class="net_34,35,36,37,38,39,40,41,42,43,44,45,46,47,48,49,50,51,52,53,54,55,56,57,58,59,60,61,62,63,64,65"/>
  <line x1="125" x2="227" y1="239" y2="239" class="net_66,67,68,69,70,71,72,73,74,75,76,77,78,79,80,81,82,83,84,85,86,87,88,89,90,91,92,93,94,95,96,97"/>
  <line x1="125" x2="153" y1="304" y2="304" class="net_98,99,100,101,102,103,104,105,106,107,108,109,110,111,112,113,114,115,116,117,118,119,120,121,122,123,124,125,126,127,128,129"/>
  <line x1="153" x2="153" y1="304" y2="259" class="net_98,99,100,101,102,103,104,105,106,107,108,109,110,111,112,113,114,115,116,117,118,119,120,121,122,123,124,125,126,127,128,129"/>
  <line x1="153" x2="227" y1="259" y2="259" class="net_98,99,100,101,102,103,104,105,106,107,108,109,110,111,112,113,114,115,116,117,118,119,120,121,122,123,124,125,126,127,128,129"/>
  <line x1="380" x2="415" y1="67" y2="67" class="net_132,133,134,135,136,137,138,139,140,141,142,143,144,145,146,147,148,149,150,151,152,153,154,155,156,157,158,159,160,161,162,163"/>
  <line x1="42" x2="117.66666666666666" y1="164.5" y2="164.5" class="net_130,131"/>
</svg>
