<svg xmlns="http://www.w3.org/2000/svg" xmlns:xlink="http://www.w3.org/1999/xlink" xmlns:s="https://github.com/nturley/netlistsvg" width="548" height="342">
  <style>  svg {
      stroke: #011e41;
      fill: none;
    }
    text {
      fill:#ffffff;
      stroke:none;
      font-size:10px;
      font-weight: bold;
      font-family: "Courier New", monospace;
    }
    .fill-1 { fill: #003262; }
    .fill-2 { fill: #011e41; stroke: #003262; }
    .fill-3 { fill: #ffffff; }
    .fill-4 { fill: #003262; }
    .fill-5 { fill: #011e41; stroke: #fdda64; }
    .text-1 { fill: #fdb515; }
    .text-2 { fill: #003262; }
    .text-3 { stroke: #fdda64; }
    .nodelabel { text-anchor: middle; }
    .inputPortLabel { text-anchor: end; }
    .splitjoinBody { fill: #3c3c43; }</style>
  <g s:type="sub" transform="translate(199,12.5)" s:width="25" s:height="25" id="cell_\11">
    <s:alias val="$sub"/>
    <circle r="12.5" cx="12.5" cy="12.5" class="cell_\11 fill-1"/>
    <line x1="7.5" x2="17.5" y1="12.5" y2="12.5" class="cell_\11 text-3"/>
    <g s:x="2" s:y="5" s:pid="A"/>
    <g s:x="2" s:y="20" s:pid="B"/>
    <g s:x="25" s:y="12.5" s:pid="Y"/>
  </g>
  <g s:type="mux" transform="translate(415,22)" s:width="20" s:height="40" id="cell_\15">
    <s:alias val="$pmux"/>
    <s:alias val="$mux"/>
    <s:alias val="$_MUX_"/>
    <path d="M0,0 L20,10 L20,30 L0,40 Z" class="cell_\15 fill-1"/>
    <text x="5" y="32" class="nodelabel cell_\15" s:attribute="">1</text>
    <text x="5" y="13" class="nodelabel cell_\15" s:attribute="">0</text>
    <g s:x="0" s:y="10" s:pid="A"/>
    <g s:x="0" s:y="30" s:pid="B"/>
    <g s:x="10" s:y="35" s:pid="S"/>
    <g s:x="20" s:y="20" s:pid="Y"/>
  </g>
  <g s:type="generic" transform="translate(306,87)" s:width="30" s:height="40" id="cell_\17">
    <text x="15" y="-4" class="nodelabel text-1 cell_\17" s:attribute="ref">$mem_v2</text>
    <rect width="30" height="180" s:generic="body" class="cell_\17 fill-1"/>
    <g transform="translate(0,10)" s:x="0" s:y="10" s:pid="in0" id="port_\17~RD_ADDR">
      <text x="-3" y="-4" class="inputPortLabel text-2 cell_\17">RD_ADDR</text>
    </g>
    <g transform="translate(0,30)" s:x="0" s:y="10" s:pid="in0" id="port_\17~RD_ARST">
      <text x="-3" y="-4" class="inputPortLabel text-2 cell_\17">RD_ARST</text>
    </g>
    <g transform="translate(0,50)" s:x="0" s:y="10" s:pid="in0" id="port_\17~RD_CLK">
      <text x="-3" y="-4" class="inputPortLabel text-2 cell_\17">RD_CLK</text>
    </g>
    <g transform="translate(0,70)" s:x="0" s:y="10" s:pid="in0" id="port_\17~RD_EN">
      <text x="-3" y="-4" class="inputPortLabel text-2 cell_\17">RD_EN</text>
    </g>
    <g transform="translate(0,90)" s:x="0" s:y="10" s:pid="in0" id="port_\17~RD_SRST">
      <text x="-3" y="-4" class="inputPortLabel text-2 cell_\17">RD_SRST</text>
    </g>
    <g transform="translate(0,110)" s:x="0" s:y="10" s:pid="in0" id="port_\17~WR_ADDR">
      <text x="-3" y="-4" class="inputPortLabel text-2 cell_\17">WR_ADDR</text>
    </g>
    <g transform="translate(0,130)" s:x="0" s:y="10" s:pid="in0" id="port_\17~WR_CLK">
      <text x="-3" y="-4" class="inputPortLabel text-2 cell_\17">WR_CLK</text>
    </g>
    <g transform="translate(0,150)" s:x="0" s:y="10" s:pid="in0" id="port_\17~WR_DATA">
      <text x="-3" y="-4" class="inputPortLabel text-2 cell_\17">WR_DATA</text>
    </g>
    <g transform="translate(0,170)" s:x="0" s:y="10" s:pid="in0" id="port_\17~WR_EN">
      <text x="-3" y="-4" class="inputPortLabel text-2 cell_\17">WR_EN</text>
    </g>
    <g transform="translate(30,10)" s:x="30" s:y="10" s:pid="out0" id="port_\17~RD_DATA">
      <text x="5" y="-4" class="cell_\17 text-2">RD_DATA</text>
    </g>
  </g>
  <g s:type="lt" transform="translate(308,305)" s:width="25" s:height="25" id="cell_\8">
    <s:alias val="$lt"/>
    <circle r="12.5" cx="12.5" cy="12.5" class="cell_\8 fill-1"/>
    <line x1="6" x2="17" y1="12" y2="7" class="cell_\8 text-3"/>
    <line x1="6" x2="17" y1="12" y2="17" class="cell_\8 text-3"/>
    <g s:x="2" s:y="5" s:pid="A"/>
    <g s:x="2" s:y="20" s:pid="B"/>
    <g s:x="25" s:y="12.5" s:pid="Y"/>
  </g>
  <g s:type="inputExt" transform="translate(12,22)" s:width="30" s:height="20" id="cell_clock">
    <text x="15" y="-4" class="nodelabel text-1 cell_clock" s:attribute="ref">clock</text>
    <s:alias val="$_inputExt_"/>
    <path d="M0,0 L0,20 L15,20 L30,10 L15,0 Z" class="cell_clock fill-4"/>
    <g s:x="30" s:y="10" s:pid="Y"/>
  </g>
  <g s:type="inputExt" transform="translate(54,45)" s:width="30" s:height="20" id="cell_address">
    <text x="15" y="-4" class="nodelabel text-1 cell_address" s:attribute="ref">address</text>
    <s:alias val="$_inputExt_"/>
    <path d="M0,0 L0,20 L15,20 L30,10 L15,0 Z" class="cell_address fill-4"/>
    <g s:x="30" s:y="10" s:pid="Y"/>
  </g>
  <g s:type="outputExt" transform="translate(470,32)" s:width="30" s:height="20" id="cell_destination">
    <text x="15" y="-4" class="nodelabel text-1 cell_destination" s:attribute="ref">destination</text>
    <s:alias val="$_outputExt_"/>
    <path d="M30,0 L30,20 L15,20 L0,10 L15,0 Z" class="cell_destination fill-4"/>
    <g s:x="0" s:y="10" s:pid="A"/>
  </g>
  <g s:type="constant" transform="translate(131,75)" s:width="30" s:height="20" id="cell_1111111">
    <text x="15" y="-4" class="nodelabel text-1 cell_1111111" s:attribute="ref">0x7f</text>
    <s:alias val="$_constant_"/>
    <rect width="30" height="20" class="cell_1111111 fill-4"/>
    <g s:x="31" s:y="10" s:pid="Y"/>
  </g>
  <g s:type="constant" transform="translate(306,22)" s:width="30" s:height="20" id="cell_00000000">
    <text x="15" y="-4" class="nodelabel text-1 cell_00000000" s:attribute="ref">0x0</text>
    <s:alias val="$_constant_"/>
    <rect width="30" height="20" class="cell_00000000 fill-4"/>
    <g s:x="31" s:y="10" s:pid="Y"/>
  </g>
  <g s:type="constant" transform="translate(197,82.5)" s:width="30" s:height="20" id="cell_0">
    <text x="15" y="-4" class="nodelabel text-1 cell_0" s:attribute="ref">0</text>
    <s:alias val="$_constant_"/>
    <rect width="30" height="20" class="cell_0 fill-4"/>
    <g s:x="31" s:y="10" s:pid="Y"/>
  </g>
  <g s:type="constant" transform="translate(197,147.5)" s:width="30" s:height="20" id="cell_1">
    <text x="15" y="-4" class="nodelabel text-1 cell_1" s:attribute="ref">1</text>
    <s:alias val="$_constant_"/>
    <rect width="30" height="20" class="cell_1 fill-4"/>
    <g s:x="31" s:y="10" s:pid="Y"/>
  </g>
  <g s:type="split" transform="translate(138,22)" s:width="5" s:height="40" id="cell_$split$,3,4,5,6,7,8,9,10,">
    <rect width="5" height="20" class="splitjoinBody" s:generic="body"/>
    <s:alias val="$_split_"/>
    <g s:x="0" s:y="20" s:pid="in"/>
    <g transform="translate(4,10)" s:x="4" s:y="10" s:pid="out0">
      <text x="5" y="-4" class="text-2">0:6</text>
    </g>
  </g>
  <line x1="162" x2="172" y1="85" y2="85" class="net_35,36,37,38,39,40,41"/>
  <line x1="172" x2="172" y1="85" y2="17.5" class="net_35,36,37,38,39,40,41"/>
  <circle cx="172" cy="85" r="2" style="fill:#000" class="net_35,36,37,38,39,40,41"/>
  <line x1="172" x2="201" y1="17.5" y2="17.5" class="net_35,36,37,38,39,40,41"/>
  <line x1="162" x2="172" y1="85" y2="85" class="net_35,36,37,38,39,40,41"/>
  <line x1="172" x2="172" y1="85" y2="321" class="net_35,36,37,38,39,40,41"/>
  <line x1="172" x2="238" y1="321" y2="321" class="net_35,36,37,38,39,40,41"/>
  <line x1="238" x2="238" y1="321" y2="325" class="net_35,36,37,38,39,40,41"/>
  <line x1="238" x2="310" y1="325" y2="325" class="net_35,36,37,38,39,40,41"/>
  <line x1="143" x2="201" y1="32.5" y2="32.5" class="net_3,4,5,6,7,8,9"/>
  <line x1="337" x2="415" y1="32" y2="32" class="net_42,43,44,45,46,47,48,49"/>
  <line x1="337" x2="390" y1="97.5" y2="97.5" class="net_26,27,28,29,30,31,32,33"/>
  <line x1="390" x2="390" y1="97.5" y2="52" class="net_26,27,28,29,30,31,32,33"/>
  <line x1="390" x2="415" y1="52" y2="52" class="net_26,27,28,29,30,31,32,33"/>
  <line x1="333" x2="425" y1="317.5" y2="317.5" class="net_34"/>
  <line x1="425" x2="425" y1="317.5" y2="57" class="net_34"/>
  <line x1="224" x2="248" y1="25" y2="25" class="net_19,20,21,22,23,24,25"/>
  <line x1="248" x2="248" y1="25" y2="97.5" class="net_19,20,21,22,23,24,25"/>
  <line x1="248" x2="306" y1="97.5" y2="97.5" class="net_19,20,21,22,23,24,25"/>
  <line x1="228" x2="238" y1="92.5" y2="92.5" class="net_50"/>
  <line x1="238" x2="238" y1="92.5" y2="117.5" class="net_50"/>
  <circle cx="238" cy="117.5" r="2" style="fill:#000" class="net_50"/>
  <line x1="238" x2="306" y1="117.5" y2="117.5" class="net_50"/>
  <line x1="228" x2="238" y1="92.5" y2="92.5" class="net_50"/>
  <line x1="238" x2="238" y1="92.5" y2="137.5" class="net_50"/>
  <circle cx="238" cy="137.5" r="2" style="fill:#000" class="net_50"/>
  <line x1="238" x2="306" y1="137.5" y2="137.5" class="net_50"/>
  <line x1="228" x2="238" y1="92.5" y2="92.5" class="net_50"/>
  <line x1="238" x2="238" y1="92.5" y2="177.5" class="net_50"/>
  <line x1="238" x2="306" y1="177.5" y2="177.5" class="net_50"/>
  <line x1="228" x2="306" y1="157.5" y2="157.5" class="net_52"/>
  <line x1="238" x2="238" y1="202.5" y2="197.5" class="net_"/>
  <line x1="238" x2="306" y1="197.5" y2="197.5" class="net_"/>
  <line x1="238" x2="238" y1="202.5" y2="217.5" class="net_"/>
  <circle cx="238" cy="217.5" r="2" style="fill:#000" class="net_"/>
  <line x1="238" x2="306" y1="217.5" y2="217.5" class="net_"/>
  <line x1="238" x2="238" y1="202.5" y2="237.5" class="net_"/>
  <circle cx="238" cy="237.5" r="2" style="fill:#000" class="net_"/>
  <line x1="238" x2="306" y1="237.5" y2="237.5" class="net_"/>
  <line x1="238" x2="238" y1="202.5" y2="257.5" class="net_"/>
  <line x1="238" x2="306" y1="257.5" y2="257.5" class="net_"/>
  <line x1="84" x2="106" y1="55" y2="55" class="net_3,4,5,6,7,8,9,10"/>
  <line x1="106" x2="106" y1="55" y2="310" class="net_3,4,5,6,7,8,9,10"/>
  <circle cx="106" cy="55" r="2" style="fill:#000" class="net_3,4,5,6,7,8,9,10"/>
  <line x1="106" x2="310" y1="310" y2="310" class="net_3,4,5,6,7,8,9,10"/>
  <line x1="84" x2="138.5" y1="55" y2="55" class="net_3,4,5,6,7,8,9,10"/>
  <line x1="138.5" x2="138.5" y1="55" y2="43" class="net_3,4,5,6,7,8,9,10"/>
  <line x1="435" x2="470" y1="42" y2="42" class="net_11,12,13,14,15,16,17,18"/>
</svg>
