<svg xmlns="http://www.w3.org/2000/svg" xmlns:xlink="http://www.w3.org/1999/xlink" xmlns:s="https://github.com/nturley/netlistsvg" width="448" height="230">
  <style>  svg {
      stroke: #011e41;
      fill: none;
    }
    text {
      fill:#ffffff;
      stroke:none;
      font-size:10px;
      font-weight: bold;
      font-family: "Courier New", monospace;
    }
    .fill-1 { fill: #003262; }
    .fill-2 { fill: #011e41; stroke: #003262; }
    .fill-3 { fill: #ffffff; }
    .fill-4 { fill: #003262; }
    .fill-5 { fill: #011e41; stroke: #fdda64; }
    .text-1 { fill: #fdb515; }
    .text-2 { fill: #003262; }
    .text-3 { stroke: #fdda64; }
    .nodelabel { text-anchor: middle; }
    .inputPortLabel { text-anchor: end; }
    .splitjoinBody { fill: #3c3c43; }</style>
  <g s:type="mux" transform="translate(255,113)" s:width="20" s:height="40" id="cell_\2">
    <s:alias val="$pmux"/>
    <s:alias val="$mux"/>
    <s:alias val="$_MUX_"/>
    <path d="M0,0 L20,10 L20,30 L0,40 Z" class="cell_\2 fill-1"/>
    <text x="5" y="32" class="nodelabel cell_\2" s:attribute="">1</text>
    <text x="5" y="13" class="nodelabel cell_\2" s:attribute="">0</text>
    <g s:x="0" s:y="10" s:pid="A"/>
    <g s:x="0" s:y="30" s:pid="B"/>
    <g s:x="10" s:y="35" s:pid="S"/>
    <g s:x="20" s:y="20" s:pid="Y"/>
  </g>
  <g s:type="inputExt" transform="translate(12,111)" s:width="30" s:height="20" id="cell_source">
    <text x="15" y="-4" class="nodelabel text-1 cell_source" s:attribute="ref">source</text>
    <s:alias val="$_inputExt_"/>
    <path d="M0,0 L0,20 L15,20 L30,10 L15,0 Z" class="cell_source fill-4"/>
    <g s:x="30" s:y="10" s:pid="Y"/>
  </g>
  <g s:type="inputExt" transform="translate(130,198)" s:width="30" s:height="20" id="cell_enable_unsigned">
    <text x="15" y="-4" class="nodelabel text-1 cell_enable_unsigned" s:attribute="ref">enable_unsigned</text>
    <s:alias val="$_inputExt_"/>
    <path d="M0,0 L0,20 L15,20 L30,10 L15,0 Z" class="cell_enable_unsigned fill-4"/>
    <g s:x="30" s:y="10" s:pid="Y"/>
  </g>
  <g s:type="outputExt" transform="translate(370,113)" s:width="30" s:height="20" id="cell_destination">
    <text x="15" y="-4" class="nodelabel text-1 cell_destination" s:attribute="ref">destination</text>
    <s:alias val="$_outputExt_"/>
    <path d="M30,0 L30,20 L15,20 L0,10 L15,0 Z" class="cell_destination fill-4"/>
    <g s:x="0" s:y="10" s:pid="A"/>
  </g>
  <g s:type="constant" transform="translate(130,133)" s:width="30" s:height="20" id="cell_0000">
    <text x="15" y="-4" class="nodelabel text-1 cell_0000" s:attribute="ref">0x0</text>
    <s:alias val="$_constant_"/>
    <rect width="30" height="20" class="cell_0000 fill-4"/>
    <g s:x="31" s:y="10" s:pid="Y"/>
  </g>
  <g s:type="join" transform="translate(155,23)" s:width="4" s:height="40" id="cell_$join$,5,5,5,5,">
    <rect width="5" height="80" class="splitjoinBody" s:generic="body"/>
    <s:alias val="$_join_"/>
    <g s:x="5" s:y="20" s:pid="out"/>
    <g transform="translate(0,10)" s:x="0" s:y="10" s:pid="in0">
      <text x="-3" y="-4" class="inputPortLabel text-2">0</text>
    </g>
    <g transform="translate(0,30)" s:x="0" s:y="10" s:pid="in0">
      <text x="-3" y="-4" class="inputPortLabel text-2">1</text>
    </g>
    <g transform="translate(0,50)" s:x="0" s:y="10" s:pid="in0">
      <text x="-3" y="-4" class="inputPortLabel text-2">2</text>
    </g>
    <g transform="translate(0,70)" s:x="0" s:y="10" s:pid="in0">
      <text x="-3" y="-4" class="inputPortLabel text-2">3</text>
    </g>
  </g>
  <g s:type="join" transform="translate(329,102.5)" s:width="4" s:height="40" id="cell_$join$,2,3,4,5,7,8,9,10,">
    <rect width="5" height="40" class="splitjoinBody" s:generic="body"/>
    <s:alias val="$_join_"/>
    <g s:x="5" s:y="20" s:pid="out"/>
    <g transform="translate(0,10)" s:x="0" s:y="10" s:pid="in0">
      <text x="-3" y="-4" class="inputPortLabel text-2">0:3</text>
    </g>
    <g transform="translate(0,30)" s:x="0" s:y="10" s:pid="in0">
      <text x="-3" y="-4" class="inputPortLabel text-2">4:7</text>
    </g>
  </g>
  <g s:type="split" transform="translate(83,63)" s:width="5" s:height="40" id="cell_$split$,2,3,4,5,">
    <rect width="5" height="20" class="splitjoinBody" s:generic="body"/>
    <s:alias val="$_split_"/>
    <g s:x="0" s:y="20" s:pid="in"/>
    <g transform="translate(4,10)" s:x="4" s:y="10" s:pid="out0">
      <text x="5" y="-4" class="text-2">3</text>
    </g>
  </g>
  <line x1="161" x2="230" y1="43.5" y2="43.5" class="net_5,5,5,5"/>
  <line x1="230" x2="230" y1="43.5" y2="123" class="net_5,5,5,5"/>
  <line x1="230" x2="255" y1="123" y2="123" class="net_5,5,5,5"/>
  <line x1="161" x2="255" y1="143" y2="143" class="net_11,12,13,14"/>
  <line x1="160" x2="265" y1="208" y2="208" class="net_6"/>
  <line x1="265" x2="265" y1="208" y2="148" class="net_6"/>
  <line x1="335" x2="370" y1="123" y2="123" class="net_2,3,4,5,7,8,9,10"/>
  <line x1="88" x2="105" y1="73.5" y2="73.5" class="net_5"/>
  <line x1="105" x2="105" y1="73.5" y2="33.5" class="net_5"/>
  <circle cx="105" cy="73.5" r="2" style="fill:#000" class="net_5"/>
  <line x1="105" x2="155" y1="33.5" y2="33.5" class="net_5"/>
  <line x1="88" x2="105" y1="73.5" y2="73.5" class="net_5"/>
  <line x1="105" x2="105" y1="73.5" y2="53.5" class="net_5"/>
  <circle cx="105" cy="53.5" r="2" style="fill:#000" class="net_5"/>
  <line x1="105" x2="155" y1="53.5" y2="53.5" class="net_5"/>
  <line x1="88" x2="155" y1="73.5" y2="73.5" class="net_5"/>
  <line x1="88" x2="105" y1="73.5" y2="73.5" class="net_5"/>
  <line x1="105" x2="105" y1="73.5" y2="113" class="net_5"/>
  <line x1="105" x2="155.5" y1="113" y2="113" class="net_5"/>
  <line x1="155.5" x2="155.5" y1="113" y2="94" class="net_5"/>
  <line x1="42" x2="58" y1="121" y2="121" class="net_2,3,4,5"/>
  <line x1="58" x2="58" y1="121" y2="12" class="net_2,3,4,5"/>
  <line x1="58" x2="285" y1="12" y2="12" class="net_2,3,4,5"/>
  <line x1="285" x2="285" y1="12" y2="113" class="net_2,3,4,5"/>
  <circle cx="58" cy="121" r="2" style="fill:#000" class="net_2,3,4,5"/>
  <line x1="285" x2="329" y1="113" y2="113" class="net_2,3,4,5"/>
  <line x1="42" x2="83.5" y1="121" y2="121" class="net_2,3,4,5"/>
  <line x1="83.5" x2="83.5" y1="121" y2="84" class="net_2,3,4,5"/>
  <line x1="275" x2="329" y1="133" y2="133" class="net_7,8,9,10"/>
</svg>
