<svg xmlns="http://www.w3.org/2000/svg" xmlns:xlink="http://www.w3.org/1999/xlink" xmlns:s="https://github.com/nturley/netlistsvg" width="460" height="502">
  <style>  svg {
      stroke: #011e41;
      fill: none;
    }
    text {
      fill:#ffffff;
      stroke:none;
      font-size:10px;
      font-weight: bold;
      font-family: "Courier New", monospace;
    }
    .fill-1 { fill: #003262; }
    .fill-2 { fill: #011e41; stroke: #003262; }
    .fill-3 { fill: #ffffff; }
    .fill-4 { fill: #003262; }
    .fill-5 { fill: #011e41; stroke: #fdda64; }
    .text-1 { fill: #fdb515; }
    .text-2 { fill: #003262; }
    .text-3 { stroke: #fdda64; }
    .nodelabel { text-anchor: middle; }
    .inputPortLabel { text-anchor: end; }
    .splitjoinBody { fill: #3c3c43; }</style>
  <g s:type="mux" transform="translate(261,385)" s:width="20" s:height="40" id="cell_\2">
    <s:alias val="$pmux"/>
    <s:alias val="$mux"/>
    <s:alias val="$_MUX_"/>
    <path d="M0,0 L20,10 L20,30 L0,40 Z" class="cell_\2 fill-1"/>
    <text x="5" y="32" class="nodelabel cell_\2" s:attribute="">1</text>
    <text x="5" y="13" class="nodelabel cell_\2" s:attribute="">0</text>
    <g s:x="0" s:y="10" s:pid="A"/>
    <g s:x="0" s:y="30" s:pid="B"/>
    <g s:x="10" s:y="35" s:pid="S"/>
    <g s:x="20" s:y="20" s:pid="Y"/>
  </g>
  <g s:type="inputExt" transform="translate(12,353)" s:width="30" s:height="20" id="cell_source">
    <text x="15" y="-4" class="nodelabel text-1 cell_source" s:attribute="ref">source</text>
    <s:alias val="$_inputExt_"/>
    <path d="M0,0 L0,20 L15,20 L30,10 L15,0 Z" class="cell_source fill-4"/>
    <g s:x="30" s:y="10" s:pid="Y"/>
  </g>
  <g s:type="inputExt" transform="translate(136,470)" s:width="30" s:height="20" id="cell_enable_unsigned">
    <text x="15" y="-4" class="nodelabel text-1 cell_enable_unsigned" s:attribute="ref">enable_unsigned</text>
    <s:alias val="$_inputExt_"/>
    <path d="M0,0 L0,20 L15,20 L30,10 L15,0 Z" class="cell_enable_unsigned fill-4"/>
    <g s:x="30" s:y="10" s:pid="Y"/>
  </g>
  <g s:type="outputExt" transform="translate(382,385)" s:width="30" s:height="20" id="cell_destination">
    <text x="15" y="-4" class="nodelabel text-1 cell_destination" s:attribute="ref">destination</text>
    <s:alias val="$_outputExt_"/>
    <path d="M30,0 L30,20 L15,20 L0,10 L15,0 Z" class="cell_destination fill-4"/>
    <g s:x="0" s:y="10" s:pid="A"/>
  </g>
  <g s:type="constant" transform="translate(136,405)" s:width="30" s:height="20" id="cell_0000000000000000">
    <text x="15" y="-4" class="nodelabel text-1 cell_0000000000000000" s:attribute="ref">0x0</text>
    <s:alias val="$_constant_"/>
    <rect width="30" height="20" class="cell_0000000000000000 fill-4"/>
    <g s:x="31" s:y="10" s:pid="Y"/>
  </g>
  <g s:type="join" transform="translate(148.53846153846155,45)" s:width="4" s:height="40" id="cell_$join$,17,17,17,17,17,17,17,17,17,17,17,17,17,17,17,17,">
    <rect width="5" height="320" class="splitjoinBody" s:generic="body"/>
    <s:alias val="$_join_"/>
    <g s:x="5" s:y="20" s:pid="out"/>
    <g transform="translate(0,10)" s:x="0" s:y="10" s:pid="in0">
      <text x="-3" y="-4" class="inputPortLabel text-2">0</text>
    </g>
    <g transform="translate(0,30)" s:x="0" s:y="10" s:pid="in0">
      <text x="-3" y="-4" class="inputPortLabel text-2">1</text>
    </g>
    <g transform="translate(0,50)" s:x="0" s:y="10" s:pid="in0">
      <text x="-3" y="-4" class="inputPortLabel text-2">2</text>
    </g>
    <g transform="translate(0,70)" s:x="0" s:y="10" s:pid="in0">
      <text x="-3" y="-4" class="inputPortLabel text-2">3</text>
    </g>
    <g transform="translate(0,90)" s:x="0" s:y="10" s:pid="in0">
      <text x="-3" y="-4" class="inputPortLabel text-2">4</text>
    </g>
    <g transform="translate(0,110)" s:x="0" s:y="10" s:pid="in0">
      <text x="-3" y="-4" class="inputPortLabel text-2">5</text>
    </g>
    <g transform="translate(0,130)" s:x="0" s:y="10" s:pid="in0">
      <text x="-3" y="-4" class="inputPortLabel text-2">6</text>
    </g>
    <g transform="translate(0,150)" s:x="0" s:y="10" s:pid="in0">
      <text x="-3" y="-4" class="inputPortLabel text-2">7</text>
    </g>
    <g transform="translate(0,170)" s:x="0" s:y="10" s:pid="in0">
      <text x="-3" y="-4" class="inputPortLabel text-2">8</text>
    </g>
    <g transform="translate(0,190)" s:x="0" s:y="10" s:pid="in0">
      <text x="-3" y="-4" class="inputPortLabel text-2">9</text>
    </g>
    <g transform="translate(0,210)" s:x="0" s:y="10" s:pid="in0">
      <text x="-3" y="-4" class="inputPortLabel text-2">10</text>
    </g>
    <g transform="translate(0,230)" s:x="0" s:y="10" s:pid="in0">
      <text x="-3" y="-4" class="inputPortLabel text-2">11</text>
    </g>
    <g transform="translate(0,250)" s:x="0" s:y="10" s:pid="in0">
      <text x="-3" y="-4" class="inputPortLabel text-2">12</text>
    </g>
    <g transform="translate(0,270)" s:x="0" s:y="10" s:pid="in0">
      <text x="-3" y="-4" class="inputPortLabel text-2">13</text>
    </g>
    <g transform="translate(0,290)" s:x="0" s:y="10" s:pid="in0">
      <text x="-3" y="-4" class="inputPortLabel text-2">14</text>
    </g>
    <g transform="translate(0,310)" s:x="0" s:y="10" s:pid="in0">
      <text x="-3" y="-4" class="inputPortLabel text-2">15</text>
    </g>
  </g>
  <g s:type="join" transform="translate(341,374.5)" s:width="4" s:height="40" id="cell_$join$,2,3,4,5,6,7,8,9,10,11,12,13,14,15,16,17,19,20,21,22,23,24,25,26,27,28,29,30,31,32,33,34,">
    <rect width="5" height="40" class="splitjoinBody" s:generic="body"/>
    <s:alias val="$_join_"/>
    <g s:x="5" s:y="20" s:pid="out"/>
    <g transform="translate(0,10)" s:x="0" s:y="10" s:pid="in0">
      <text x="-3" y="-4" class="inputPortLabel text-2">0:15</text>
    </g>
    <g transform="translate(0,30)" s:x="0" s:y="10" s:pid="in0">
      <text x="-3" y="-4" class="inputPortLabel text-2">16:31</text>
    </g>
  </g>
  <g s:type="split" transform="translate(83,305)" s:width="5" s:height="40" id="cell_$split$,2,3,4,5,6,7,8,9,10,11,12,13,14,15,16,17,">
    <rect width="5" height="20" class="splitjoinBody" s:generic="body"/>
    <s:alias val="$_split_"/>
    <g s:x="0" s:y="20" s:pid="in"/>
    <g transform="translate(4,10)" s:x="4" s:y="10" s:pid="out0">
      <text x="5" y="-4" class="text-2">15</text>
    </g>
  </g>
  <line x1="154.53846153846155" x2="236" y1="65.5" y2="65.5" class="net_17,17,17,17,17,17,17,17,17,17,17,17,17,17,17,17"/>
  <line x1="236" x2="236" y1="65.5" y2="395" class="net_17,17,17,17,17,17,17,17,17,17,17,17,17,17,17,17"/>
  <line x1="236" x2="261" y1="395" y2="395" class="net_17,17,17,17,17,17,17,17,17,17,17,17,17,17,17,17"/>
  <line x1="167" x2="261" y1="415" y2="415" class="net_35,36,37,38,39,40,41,42,43,44,45,46,47,48,49,50"/>
  <line x1="166" x2="271" y1="480" y2="480" class="net_18"/>
  <line x1="271" x2="271" y1="480" y2="420" class="net_18"/>
  <line x1="347" x2="382" y1="395" y2="395" class="net_2,3,4,5,6,7,8,9,10,11,12,13,14,15,16,17,19,20,21,22,23,24,25,26,27,28,29,30,31,32,33,34"/>
  <line x1="88" x2="111" y1="315.5" y2="315.5" class="net_17"/>
  <line x1="111" x2="111" y1="315.5" y2="33" class="net_17"/>
  <line x1="111" x2="149.03846153846155" y1="33" y2="33" class="net_17"/>
  <circle cx="111" cy="315.5" r="2" style="fill:#000" class="net_17"/>
  <circle cx="111" cy="33" r="2" style="fill:#000" class="net_17"/>
  <line x1="149.03846153846155" x2="149.03846153846155" y1="33" y2="55" class="net_17"/>
  <line x1="88" x2="111" y1="315.5" y2="315.5" class="net_17"/>
  <line x1="111" x2="111" y1="315.5" y2="23" class="net_17"/>
  <line x1="111" x2="149.03846153846155" y1="23" y2="23" class="net_17"/>
  <line x1="149.03846153846155" x2="149.03846153846155" y1="23" y2="75" class="net_17"/>
  <line x1="88" x2="111" y1="315.5" y2="315.5" class="net_17"/>
  <line x1="111" x2="111" y1="315.5" y2="95.5" class="net_17"/>
  <circle cx="111" cy="95.5" r="2" style="fill:#000" class="net_17"/>
  <line x1="111" x2="148.53846153846155" y1="95.5" y2="95.5" class="net_17"/>
  <line x1="88" x2="111" y1="315.5" y2="315.5" class="net_17"/>
  <line x1="111" x2="111" y1="315.5" y2="115.5" class="net_17"/>
  <circle cx="111" cy="115.5" r="2" style="fill:#000" class="net_17"/>
  <line x1="111" x2="148.53846153846155" y1="115.5" y2="115.5" class="net_17"/>
  <line x1="88" x2="111" y1="315.5" y2="315.5" class="net_17"/>
  <line x1="111" x2="111" y1="315.5" y2="135.5" class="net_17"/>
  <circle cx="111" cy="135.5" r="2" style="fill:#000" class="net_17"/>
  <line x1="111" x2="148.53846153846155" y1="135.5" y2="135.5" class="net_17"/>
  <line x1="88" x2="111" y1="315.5" y2="315.5" class="net_17"/>
  <line x1="111" x2="111" y1="315.5" y2="155.5" class="net_17"/>
  <circle cx="111" cy="155.5" r="2" style="fill:#000" class="net_17"/>
  <line x1="111" x2="148.53846153846155" y1="155.5" y2="155.5" class="net_17"/>
  <line x1="88" x2="111" y1="315.5" y2="315.5" class="net_17"/>
  <line x1="111" x2="111" y1="315.5" y2="175.5" class="net_17"/>
  <circle cx="111" cy="175.5" r="2" style="fill:#000" class="net_17"/>
  <line x1="111" x2="148.53846153846155" y1="175.5" y2="175.5" class="net_17"/>
  <line x1="88" x2="111" y1="315.5" y2="315.5" class="net_17"/>
  <line x1="111" x2="111" y1="315.5" y2="195.5" class="net_17"/>
  <circle cx="111" cy="195.5" r="2" style="fill:#000" class="net_17"/>
  <line x1="111" x2="148.53846153846155" y1="195.5" y2="195.5" class="net_17"/>
  <line x1="88" x2="111" y1="315.5" y2="315.5" class="net_17"/>
  <line x1="111" x2="111" y1="315.5" y2="215.5" class="net_17"/>
  <circle cx="111" cy="215.5" r="2" style="fill:#000" class="net_17"/>
  <line x1="111" x2="148.53846153846155" y1="215.5" y2="215.5" class="net_17"/>
  <line x1="88" x2="111" y1="315.5" y2="315.5" class="net_17"/>
  <line x1="111" x2="111" y1="315.5" y2="235.5" class="net_17"/>
  <circle cx="111" cy="235.5" r="2" style="fill:#000" class="net_17"/>
  <line x1="111" x2="148.53846153846155" y1="235.5" y2="235.5" class="net_17"/>
  <line x1="88" x2="111" y1="315.5" y2="315.5" class="net_17"/>
  <line x1="111" x2="111" y1="315.5" y2="255.5" class="net_17"/>
  <circle cx="111" cy="255.5" r="2" style="fill:#000" class="net_17"/>
  <line x1="111" x2="148.53846153846155" y1="255.5" y2="255.5" class="net_17"/>
  <line x1="88" x2="111" y1="315.5" y2="315.5" class="net_17"/>
  <line x1="111" x2="111" y1="315.5" y2="275.5" class="net_17"/>
  <circle cx="111" cy="275.5" r="2" style="fill:#000" class="net_17"/>
  <line x1="111" x2="148.53846153846155" y1="275.5" y2="275.5" class="net_17"/>
  <line x1="88" x2="111" y1="315.5" y2="315.5" class="net_17"/>
  <line x1="111" x2="111" y1="315.5" y2="295.5" class="net_17"/>
  <circle cx="111" cy="295.5" r="2" style="fill:#000" class="net_17"/>
  <line x1="111" x2="148.53846153846155" y1="295.5" y2="295.5" class="net_17"/>
  <line x1="88" x2="148.53846153846155" y1="315.5" y2="315.5" class="net_17"/>
  <line x1="88" x2="111" y1="315.5" y2="315.5" class="net_17"/>
  <line x1="111" x2="111" y1="315.5" y2="385" class="net_17"/>
  <line x1="111" x2="149.03846153846155" y1="385" y2="385" class="net_17"/>
  <line x1="149.03846153846155" x2="149.03846153846155" y1="385" y2="336" class="net_17"/>
  <line x1="88" x2="111" y1="315.5" y2="315.5" class="net_17"/>
  <line x1="111" x2="111" y1="315.5" y2="375" class="net_17"/>
  <line x1="111" x2="149.03846153846155" y1="375" y2="375" class="net_17"/>
  <circle cx="111" cy="375" r="2" style="fill:#000" class="net_17"/>
  <line x1="149.03846153846155" x2="149.03846153846155" y1="375" y2="356" class="net_17"/>
  <line x1="42" x2="58" y1="363" y2="363" class="net_2,3,4,5,6,7,8,9,10,11,12,13,14,15,16,17"/>
  <line x1="58" x2="58" y1="363" y2="12" class="net_2,3,4,5,6,7,8,9,10,11,12,13,14,15,16,17"/>
  <line x1="58" x2="291" y1="12" y2="12" class="net_2,3,4,5,6,7,8,9,10,11,12,13,14,15,16,17"/>
  <line x1="291" x2="291" y1="12" y2="385" class="net_2,3,4,5,6,7,8,9,10,11,12,13,14,15,16,17"/>
  <circle cx="58" cy="363" r="2" style="fill:#000" class="net_2,3,4,5,6,7,8,9,10,11,12,13,14,15,16,17"/>
  <line x1="291" x2="341" y1="385" y2="385" class="net_2,3,4,5,6,7,8,9,10,11,12,13,14,15,16,17"/>
  <line x1="42" x2="83.5" y1="363" y2="363" class="net_2,3,4,5,6,7,8,9,10,11,12,13,14,15,16,17"/>
  <line x1="83.5" x2="83.5" y1="363" y2="326" class="net_2,3,4,5,6,7,8,9,10,11,12,13,14,15,16,17"/>
  <line x1="281" x2="341" y1="405" y2="405" class="net_19,20,21,22,23,24,25,26,27,28,29,30,31,32,33,34"/>
</svg>
