<svg xmlns="http://www.w3.org/2000/svg" xmlns:xlink="http://www.w3.org/1999/xlink" xmlns:s="https://github.com/nturley/netlistsvg" width="575" height="230">
  <style>  svg {
      stroke: #011e41;
      fill: none;
    }
    text {
      fill:#ffffff;
      stroke:none;
      font-size:10px;
      font-weight: bold;
      font-family: "Courier New", monospace;
    }
    .fill-1 { fill: #003262; }
    .fill-2 { fill: #011e41; stroke: #003262; }
    .fill-3 { fill: #ffffff; }
    .fill-4 { fill: #003262; }
    .fill-5 { fill: #011e41; stroke: #fdda64; }
    .text-1 { fill: #fdb515; }
    .text-2 { fill: #003262; }
    .text-3 { stroke: #fdda64; }
    .nodelabel { text-anchor: middle; }
    .inputPortLabel { text-anchor: end; }
    .splitjoinBody { fill: #3c3c43; }</style>
  <g s:type="generic" transform="translate(304,78)" s:width="30" s:height="40" id="cell_mux_upper">
    <text x="15" y="-4" class="nodelabel text-1 cell_mux_upper" s:attribute="ref">generic_mux_2x1_4</text>
    <rect width="30" height="60" s:generic="body" class="cell_mux_upper fill-1"/>
    <g transform="translate(0,10)" s:x="0" s:y="10" s:pid="in0" id="port_mux_upper~selector">
      <text x="-3" y="-4" class="inputPortLabel text-2 cell_mux_upper">selector</text>
    </g>
    <g transform="translate(0,30)" s:x="0" s:y="10" s:pid="in0" id="port_mux_upper~source_1">
      <text x="-3" y="-4" class="inputPortLabel text-2 cell_mux_upper">source_1</text>
    </g>
    <g transform="translate(0,50)" s:x="0" s:y="10" s:pid="in0" id="port_mux_upper~source_2">
      <text x="-3" y="-4" class="inputPortLabel text-2 cell_mux_upper">source_2</text>
    </g>
    <g transform="translate(30,10)" s:x="30" s:y="10" s:pid="out0" id="port_mux_upper~destination">
      <text x="5" y="-4" class="cell_mux_upper text-2">destination</text>
    </g>
  </g>
  <g s:type="inputExt" transform="translate(12,190.5)" s:width="30" s:height="20" id="cell_source">
    <text x="15" y="-4" class="nodelabel text-1 cell_source" s:attribute="ref">source</text>
    <s:alias val="$_inputExt_"/>
    <path d="M0,0 L0,20 L15,20 L30,10 L15,0 Z" class="cell_source fill-4"/>
    <g s:x="30" s:y="10" s:pid="Y"/>
  </g>
  <g s:type="inputExt" transform="translate(130,33)" s:width="30" s:height="20" id="cell_enable_unsigned">
    <text x="15" y="-4" class="nodelabel text-1 cell_enable_unsigned" s:attribute="ref">enable_unsigned</text>
    <s:alias val="$_inputExt_"/>
    <path d="M0,0 L0,20 L15,20 L30,10 L15,0 Z" class="cell_enable_unsigned fill-4"/>
    <g s:x="30" s:y="10" s:pid="Y"/>
  </g>
  <g s:type="outputExt" transform="translate(497,68.5)" s:width="30" s:height="20" id="cell_destination">
    <text x="15" y="-4" class="nodelabel text-1 cell_destination" s:attribute="ref">destination</text>
    <s:alias val="$_outputExt_"/>
    <path d="M30,0 L30,20 L15,20 L0,10 L15,0 Z" class="cell_destination fill-4"/>
    <g s:x="0" s:y="10" s:pid="A"/>
  </g>
  <g s:type="constant" transform="translate(130,198)" s:width="30" s:height="20" id="cell_0000">
    <text x="15" y="-4" class="nodelabel text-1 cell_0000" s:attribute="ref">0x0</text>
    <s:alias val="$_constant_"/>
    <rect width="30" height="20" class="cell_0000 fill-4"/>
    <g s:x="31" s:y="10" s:pid="Y"/>
  </g>
  <g s:type="join" transform="translate(155,88)" s:width="4" s:height="40" id="cell_$join$,5,5,5,5,">
    <rect width="5" height="80" class="splitjoinBody" s:generic="body"/>
    <s:alias val="$_join_"/>
    <g s:x="5" s:y="20" s:pid="out"/>
    <g transform="translate(0,10)" s:x="0" s:y="10" s:pid="in0">
      <text x="-3" y="-4" class="inputPortLabel text-2">0</text>
    </g>
    <g transform="translate(0,30)" s:x="0" s:y="10" s:pid="in0">
      <text x="-3" y="-4" class="inputPortLabel text-2">1</text>
    </g>
    <g transform="translate(0,50)" s:x="0" s:y="10" s:pid="in0">
      <text x="-3" y="-4" class="inputPortLabel text-2">2</text>
    </g>
    <g transform="translate(0,70)" s:x="0" s:y="10" s:pid="in0">
      <text x="-3" y="-4" class="inputPortLabel text-2">3</text>
    </g>
  </g>
  <g s:type="join" transform="translate(456,58)" s:width="4" s:height="40" id="cell_$join$,2,3,4,5,7,8,9,10,">
    <rect width="5" height="40" class="splitjoinBody" s:generic="body"/>
    <s:alias val="$_join_"/>
    <g s:x="5" s:y="20" s:pid="out"/>
    <g transform="translate(0,10)" s:x="0" s:y="10" s:pid="in0">
      <text x="-3" y="-4" class="inputPortLabel text-2">0:3</text>
    </g>
    <g transform="translate(0,30)" s:x="0" s:y="10" s:pid="in0">
      <text x="-3" y="-4" class="inputPortLabel text-2">4:7</text>
    </g>
  </g>
  <g s:type="split" transform="translate(83,167.5)" s:width="5" s:height="40" id="cell_$split$,2,3,4,5,">
    <rect width="5" height="20" class="splitjoinBody" s:generic="body"/>
    <s:alias val="$_split_"/>
    <g s:x="0" s:y="20" s:pid="in"/>
    <g transform="translate(4,10)" s:x="4" s:y="10" s:pid="out0">
      <text x="5" y="-4" class="text-2">3</text>
    </g>
  </g>
  <line x1="160" x2="230" y1="43" y2="43" class="net_6"/>
  <line x1="230" x2="230" y1="43" y2="88.5" class="net_6"/>
  <line x1="230" x2="304" y1="88.5" y2="88.5" class="net_6"/>
  <line x1="161" x2="304" y1="108.5" y2="108.5" class="net_5,5,5,5"/>
  <line x1="161" x2="230" y1="208" y2="208" class="net_11,12,13,14"/>
  <line x1="230" x2="230" y1="208" y2="128.5" class="net_11,12,13,14"/>
  <line x1="230" x2="304" y1="128.5" y2="128.5" class="net_11,12,13,14"/>
  <line x1="462" x2="497" y1="78.5" y2="78.5" class="net_2,3,4,5,7,8,9,10"/>
  <line x1="88" x2="105" y1="178" y2="178" class="net_5"/>
  <line x1="105" x2="105" y1="178" y2="98.5" class="net_5"/>
  <circle cx="105" cy="178" r="2" style="fill:#000" class="net_5"/>
  <line x1="105" x2="155" y1="98.5" y2="98.5" class="net_5"/>
  <line x1="88" x2="105" y1="178" y2="178" class="net_5"/>
  <line x1="105" x2="105" y1="178" y2="118.5" class="net_5"/>
  <circle cx="105" cy="118.5" r="2" style="fill:#000" class="net_5"/>
  <line x1="105" x2="155" y1="118.5" y2="118.5" class="net_5"/>
  <line x1="88" x2="105" y1="178" y2="178" class="net_5"/>
  <line x1="105" x2="105" y1="178" y2="138.5" class="net_5"/>
  <circle cx="105" cy="138.5" r="2" style="fill:#000" class="net_5"/>
  <line x1="105" x2="155" y1="138.5" y2="138.5" class="net_5"/>
  <line x1="88" x2="155.5" y1="178" y2="178" class="net_5"/>
  <line x1="155.5" x2="155.5" y1="178" y2="159" class="net_5"/>
  <line x1="42" x2="58" y1="200.5" y2="200.5" class="net_2,3,4,5"/>
  <line x1="58" x2="58" y1="200.5" y2="12" class="net_2,3,4,5"/>
  <line x1="58" x2="412" y1="12" y2="12" class="net_2,3,4,5"/>
  <line x1="412" x2="412" y1="12" y2="68.5" class="net_2,3,4,5"/>
  <circle cx="58" cy="200.5" r="2" style="fill:#000" class="net_2,3,4,5"/>
  <line x1="412" x2="456" y1="68.5" y2="68.5" class="net_2,3,4,5"/>
  <line x1="42" x2="83.5" y1="200.5" y2="200.5" class="net_2,3,4,5"/>
  <line x1="83.5" x2="83.5" y1="200.5" y2="188.5" class="net_2,3,4,5"/>
  <line x1="335" x2="456" y1="88.5" y2="88.5" class="net_7,8,9,10"/>
</svg>
