<svg xmlns="http://www.w3.org/2000/svg" xmlns:xlink="http://www.w3.org/1999/xlink" xmlns:s="https://github.com/nturley/netlistsvg" width="233" height="119">
  <style>svg {
    stroke:#000;
    fill:none;
  }
  text {
    fill:#000;
    stroke:none;
    font-size:10px;
    font-weight: bold;
    font-family: "Courier New", monospace;
  }
  .nodelabel {
    text-anchor: middle;
  }
  .inputPortLabel {
    text-anchor: end;
  }
  .splitjoinBody {
    fill:#000;
  }</style>
  <g s:type="add" transform="translate(95,27)" s:width="25" s:height="25" id="cell_\1">
    <s:alias val="$add"/>
    <circle r="12.5" cx="12.5" cy="12.5" class="cell_\1"/>
    <line x1="7.5" x2="17.5" y1="12.5" y2="12.5" class="cell_\1"/>
    <line x1="12.5" x2="12.5" y1="7.5" y2="17.5" class="cell_\1"/>
    <g s:x="3" s:y="5" s:pid="A"/>
    <g s:x="3" s:y="20" s:pid="B"/>
    <g s:x="25" s:y="12.5" s:pid="Y"/>
  </g>
  <g s:type="inputExt" transform="translate(12,22)" s:width="30" s:height="20" id="cell_source_1">
    <text x="15" y="-4" class="nodelabel cell_source_1" s:attribute="ref">source_1</text>
    <s:alias val="$_inputExt_"/>
    <path d="M0,0 L0,20 L15,20 L30,10 L15,0 Z" class="cell_source_1"/>
    <g s:x="28" s:y="10" s:pid="Y"/>
  </g>
  <g s:type="inputExt" transform="translate(12,87)" s:width="30" s:height="20" id="cell_source_2">
    <text x="15" y="-4" class="nodelabel cell_source_2" s:attribute="ref">source_2</text>
    <s:alias val="$_inputExt_"/>
    <path d="M0,0 L0,20 L15,20 L30,10 L15,0 Z" class="cell_source_2"/>
    <g s:x="28" s:y="10" s:pid="Y"/>
  </g>
  <g s:type="outputExt" transform="translate(155,29.5)" s:width="30" s:height="20" id="cell_destination">
    <text x="15" y="-4" class="nodelabel cell_destination" s:attribute="ref">destination</text>
    <s:alias val="$_outputExt_"/>
    <path d="M30,0 L30,20 L15,20 L0,10 L15,0 Z" class="cell_destination"/>
    <g s:x="0" s:y="10" s:pid="A"/>
  </g>
  <line x1="40" x2="98" y1="32" y2="32" class="net_2,3,4,5,6,7,8,9,10,11,12,13,14,15,16,17,18,19,20,21,22,23,24,25,26,27,28,29,30,31,32,33"/>
  <line x1="40" x2="70" y1="97" y2="97" class="net_34,35,36,37,38,39,40,41,42,43,44,45,46,47,48,49,50,51,52,53,54,55,56,57,58,59,60,61,62,63,64,65"/>
  <line x1="70" x2="70" y1="97" y2="47" class="net_34,35,36,37,38,39,40,41,42,43,44,45,46,47,48,49,50,51,52,53,54,55,56,57,58,59,60,61,62,63,64,65"/>
  <line x1="70" x2="98" y1="47" y2="47" class="net_34,35,36,37,38,39,40,41,42,43,44,45,46,47,48,49,50,51,52,53,54,55,56,57,58,59,60,61,62,63,64,65"/>
  <line x1="120" x2="155" y1="39.5" y2="39.5" class="net_66,67,68,69,70,71,72,73,74,75,76,77,78,79,80,81,82,83,84,85,86,87,88,89,90,91,92,93,94,95,96,97"/>
</svg>
