<svg xmlns="http://www.w3.org/2000/svg" xmlns:xlink="http://www.w3.org/1999/xlink" xmlns:s="https://github.com/nturley/netlistsvg" width="1319" height="1054">
  <style>  svg {
      stroke: #011e41;
      fill: none;
    }
    text {
      fill:#ffffff;
      stroke:none;
      font-size:10px;
      font-weight: bold;
      font-family: "Courier New", monospace;
    }
    .fill-1 { fill: #003262; }
    .fill-2 { fill: #011e41; stroke: #003262; }
    .fill-3 { fill: #ffffff; }
    .fill-4 { fill: #003262; }
    .fill-5 { fill: #011e41; stroke: #fdda64; }
    .text-1 { fill: #fdb515; }
    .text-2 { fill: #003262; }
    .text-3 { stroke: #fdda64; }
    .nodelabel { text-anchor: middle; }
    .inputPortLabel { text-anchor: end; }
    .splitjoinBody { fill: #3c3c43; }</style>
  <g s:type="or" transform="translate(226,254)" s:width="30" s:height="25" id="cell_$auto$ghdl cc:904:import_module$42">
    <s:alias val="$or"/>
    <s:alias val="$logic_or"/>
    <s:alias val="$_OR_"/>
    <s:alias val="$reduce_or"/>
    <s:alias val="$reduce_bool"/>
    <path d="M0,0 A30 25 0 0 1 0,25 A30 25 0 0 0 30,12.5 A30 25 0 0 0 0,0" class="cell_$auto$ghdl cc:904:import_module$42 fill-1"/>
    <g s:x="2" s:y="5" s:pid="A"/>
    <g s:x="2" s:y="20" s:pid="B"/>
    <g s:x="30" s:y="12.5" s:pid="Y"/>
  </g>
  <g s:type="and" transform="translate(419,256.5)" s:width="30" s:height="25" id="cell_\10">
    <s:alias val="$and"/>
    <s:alias val="$logic_and"/>
    <s:alias val="$_AND_"/>
    <s:alias val="$reduce_and"/>
    <path d="M0,0 L0,25 L15,25 A15 12.5 0 0 0 15,0 Z" class="cell_\10 fill-1"/>
    <g s:x="0" s:y="5" s:pid="A"/>
    <g s:x="0" s:y="20" s:pid="B"/>
    <g s:x="30" s:y="12.5" s:pid="Y"/>
  </g>
  <g s:type="or" transform="translate(1034,836.5)" s:width="30" s:height="25" id="cell_\102">
    <s:alias val="$or"/>
    <s:alias val="$logic_or"/>
    <s:alias val="$_OR_"/>
    <s:alias val="$reduce_or"/>
    <s:alias val="$reduce_bool"/>
    <path d="M0,0 A30 25 0 0 1 0,25 A30 25 0 0 0 30,12.5 A30 25 0 0 0 0,0" class="cell_\102 fill-1"/>
    <g s:x="2" s:y="5" s:pid="A"/>
    <g s:x="2" s:y="20" s:pid="B"/>
    <g s:x="30" s:y="12.5" s:pid="Y"/>
  </g>
  <g s:type="or" transform="translate(1099,829)" s:width="30" s:height="25" id="cell_\103">
    <s:alias val="$or"/>
    <s:alias val="$logic_or"/>
    <s:alias val="$_OR_"/>
    <s:alias val="$reduce_or"/>
    <s:alias val="$reduce_bool"/>
    <path d="M0,0 A30 25 0 0 1 0,25 A30 25 0 0 0 30,12.5 A30 25 0 0 0 0,0" class="cell_\103 fill-1"/>
    <g s:x="2" s:y="5" s:pid="A"/>
    <g s:x="2" s:y="20" s:pid="B"/>
    <g s:x="30" s:y="12.5" s:pid="Y"/>
  </g>
  <g s:type="or" transform="translate(1034,730.5)" s:width="30" s:height="25" id="cell_\118">
    <s:alias val="$or"/>
    <s:alias val="$logic_or"/>
    <s:alias val="$_OR_"/>
    <s:alias val="$reduce_or"/>
    <s:alias val="$reduce_bool"/>
    <path d="M0,0 A30 25 0 0 1 0,25 A30 25 0 0 0 30,12.5 A30 25 0 0 0 0,0" class="cell_\118 fill-1"/>
    <g s:x="2" s:y="5" s:pid="A"/>
    <g s:x="2" s:y="20" s:pid="B"/>
    <g s:x="30" s:y="12.5" s:pid="Y"/>
  </g>
  <g s:type="or" transform="translate(1034,670.5)" s:width="30" s:height="25" id="cell_\127">
    <s:alias val="$or"/>
    <s:alias val="$logic_or"/>
    <s:alias val="$_OR_"/>
    <s:alias val="$reduce_or"/>
    <s:alias val="$reduce_bool"/>
    <path d="M0,0 A30 25 0 0 1 0,25 A30 25 0 0 0 30,12.5 A30 25 0 0 0 0,0" class="cell_\127 fill-1"/>
    <g s:x="2" s:y="5" s:pid="A"/>
    <g s:x="2" s:y="20" s:pid="B"/>
    <g s:x="30" s:y="12.5" s:pid="Y"/>
  </g>
  <g s:type="or" transform="translate(1099,663)" s:width="30" s:height="25" id="cell_\128">
    <s:alias val="$or"/>
    <s:alias val="$logic_or"/>
    <s:alias val="$_OR_"/>
    <s:alias val="$reduce_or"/>
    <s:alias val="$reduce_bool"/>
    <path d="M0,0 A30 25 0 0 1 0,25 A30 25 0 0 0 30,12.5 A30 25 0 0 0 0,0" class="cell_\128 fill-1"/>
    <g s:x="2" s:y="5" s:pid="A"/>
    <g s:x="2" s:y="20" s:pid="B"/>
    <g s:x="30" s:y="12.5" s:pid="Y"/>
  </g>
  <g s:type="or" transform="translate(1164,655.5)" s:width="30" s:height="25" id="cell_\129">
    <s:alias val="$or"/>
    <s:alias val="$logic_or"/>
    <s:alias val="$_OR_"/>
    <s:alias val="$reduce_or"/>
    <s:alias val="$reduce_bool"/>
    <path d="M0,0 A30 25 0 0 1 0,25 A30 25 0 0 0 30,12.5 A30 25 0 0 0 0,0" class="cell_\129 fill-1"/>
    <g s:x="2" s:y="5" s:pid="A"/>
    <g s:x="2" s:y="20" s:pid="B"/>
    <g s:x="30" s:y="12.5" s:pid="Y"/>
  </g>
  <g s:type="and" transform="translate(484,280)" s:width="30" s:height="25" id="cell_\13">
    <s:alias val="$and"/>
    <s:alias val="$logic_and"/>
    <s:alias val="$_AND_"/>
    <s:alias val="$reduce_and"/>
    <path d="M0,0 L0,25 L15,25 A15 12.5 0 0 0 15,0 Z" class="cell_\13 fill-1"/>
    <g s:x="0" s:y="5" s:pid="A"/>
    <g s:x="0" s:y="20" s:pid="B"/>
    <g s:x="30" s:y="12.5" s:pid="Y"/>
  </g>
  <g s:type="or" transform="translate(1034,610.5)" s:width="30" s:height="25" id="cell_\149">
    <s:alias val="$or"/>
    <s:alias val="$logic_or"/>
    <s:alias val="$_OR_"/>
    <s:alias val="$reduce_or"/>
    <s:alias val="$reduce_bool"/>
    <path d="M0,0 A30 25 0 0 1 0,25 A30 25 0 0 0 30,12.5 A30 25 0 0 0 0,0" class="cell_\149 fill-1"/>
    <g s:x="2" s:y="5" s:pid="A"/>
    <g s:x="2" s:y="20" s:pid="B"/>
    <g s:x="30" s:y="12.5" s:pid="Y"/>
  </g>
  <g s:type="or" transform="translate(1034,355)" s:width="30" s:height="25" id="cell_\158">
    <s:alias val="$or"/>
    <s:alias val="$logic_or"/>
    <s:alias val="$_OR_"/>
    <s:alias val="$reduce_or"/>
    <s:alias val="$reduce_bool"/>
    <path d="M0,0 A30 25 0 0 1 0,25 A30 25 0 0 0 30,12.5 A30 25 0 0 0 0,0" class="cell_\158 fill-1"/>
    <g s:x="2" s:y="5" s:pid="A"/>
    <g s:x="2" s:y="20" s:pid="B"/>
    <g s:x="30" s:y="12.5" s:pid="Y"/>
  </g>
  <g s:type="or" transform="translate(1099,347.5)" s:width="30" s:height="25" id="cell_\159">
    <s:alias val="$or"/>
    <s:alias val="$logic_or"/>
    <s:alias val="$_OR_"/>
    <s:alias val="$reduce_or"/>
    <s:alias val="$reduce_bool"/>
    <path d="M0,0 A30 25 0 0 1 0,25 A30 25 0 0 0 30,12.5 A30 25 0 0 0 0,0" class="cell_\159 fill-1"/>
    <g s:x="2" s:y="5" s:pid="A"/>
    <g s:x="2" s:y="20" s:pid="B"/>
    <g s:x="30" s:y="12.5" s:pid="Y"/>
  </g>
  <g s:type="and" transform="translate(549,340)" s:width="30" s:height="25" id="cell_\16">
    <s:alias val="$and"/>
    <s:alias val="$logic_and"/>
    <s:alias val="$_AND_"/>
    <s:alias val="$reduce_and"/>
    <path d="M0,0 L0,25 L15,25 A15 12.5 0 0 0 15,0 Z" class="cell_\16 fill-1"/>
    <g s:x="0" s:y="5" s:pid="A"/>
    <g s:x="0" s:y="20" s:pid="B"/>
    <g s:x="30" s:y="12.5" s:pid="Y"/>
  </g>
  <g s:type="or" transform="translate(1034,127)" s:width="30" s:height="25" id="cell_\174">
    <s:alias val="$or"/>
    <s:alias val="$logic_or"/>
    <s:alias val="$_OR_"/>
    <s:alias val="$reduce_or"/>
    <s:alias val="$reduce_bool"/>
    <path d="M0,0 A30 25 0 0 1 0,25 A30 25 0 0 0 30,12.5 A30 25 0 0 0 0,0" class="cell_\174 fill-1"/>
    <g s:x="2" s:y="5" s:pid="A"/>
    <g s:x="2" s:y="20" s:pid="B"/>
    <g s:x="30" s:y="12.5" s:pid="Y"/>
  </g>
  <g s:type="or" transform="translate(1034,34.5)" s:width="30" s:height="25" id="cell_\183">
    <s:alias val="$or"/>
    <s:alias val="$logic_or"/>
    <s:alias val="$_OR_"/>
    <s:alias val="$reduce_or"/>
    <s:alias val="$reduce_bool"/>
    <path d="M0,0 A30 25 0 0 1 0,25 A30 25 0 0 0 30,12.5 A30 25 0 0 0 0,0" class="cell_\183 fill-1"/>
    <g s:x="2" s:y="5" s:pid="A"/>
    <g s:x="2" s:y="20" s:pid="B"/>
    <g s:x="30" s:y="12.5" s:pid="Y"/>
  </g>
  <g s:type="or" transform="translate(1099,27)" s:width="30" s:height="25" id="cell_\184">
    <s:alias val="$or"/>
    <s:alias val="$logic_or"/>
    <s:alias val="$_OR_"/>
    <s:alias val="$reduce_or"/>
    <s:alias val="$reduce_bool"/>
    <path d="M0,0 A30 25 0 0 1 0,25 A30 25 0 0 0 30,12.5 A30 25 0 0 0 0,0" class="cell_\184 fill-1"/>
    <g s:x="2" s:y="5" s:pid="A"/>
    <g s:x="2" s:y="20" s:pid="B"/>
    <g s:x="30" s:y="12.5" s:pid="Y"/>
  </g>
  <g s:type="or" transform="translate(1164,19.5)" s:width="30" s:height="25" id="cell_\185">
    <s:alias val="$or"/>
    <s:alias val="$logic_or"/>
    <s:alias val="$_OR_"/>
    <s:alias val="$reduce_or"/>
    <s:alias val="$reduce_bool"/>
    <path d="M0,0 A30 25 0 0 1 0,25 A30 25 0 0 0 30,12.5 A30 25 0 0 0 0,0" class="cell_\185 fill-1"/>
    <g s:x="2" s:y="5" s:pid="A"/>
    <g s:x="2" s:y="20" s:pid="B"/>
    <g s:x="30" s:y="12.5" s:pid="Y"/>
  </g>
  <g s:type="and" transform="translate(614,363.5)" s:width="30" s:height="25" id="cell_\19">
    <s:alias val="$and"/>
    <s:alias val="$logic_and"/>
    <s:alias val="$_AND_"/>
    <s:alias val="$reduce_and"/>
    <path d="M0,0 L0,25 L15,25 A15 12.5 0 0 0 15,0 Z" class="cell_\19 fill-1"/>
    <g s:x="0" s:y="5" s:pid="A"/>
    <g s:x="0" s:y="20" s:pid="B"/>
    <g s:x="30" s:y="12.5" s:pid="Y"/>
  </g>
  <g s:type="and" transform="translate(679,387)" s:width="30" s:height="25" id="cell_\22">
    <s:alias val="$and"/>
    <s:alias val="$logic_and"/>
    <s:alias val="$_AND_"/>
    <s:alias val="$reduce_and"/>
    <path d="M0,0 L0,25 L15,25 A15 12.5 0 0 0 15,0 Z" class="cell_\22 fill-1"/>
    <g s:x="0" s:y="5" s:pid="A"/>
    <g s:x="0" s:y="20" s:pid="B"/>
    <g s:x="30" s:y="12.5" s:pid="Y"/>
  </g>
  <g s:type="and" transform="translate(744,410.5)" s:width="30" s:height="25" id="cell_\25">
    <s:alias val="$and"/>
    <s:alias val="$logic_and"/>
    <s:alias val="$_AND_"/>
    <s:alias val="$reduce_and"/>
    <path d="M0,0 L0,25 L15,25 A15 12.5 0 0 0 15,0 Z" class="cell_\25 fill-1"/>
    <g s:x="0" s:y="5" s:pid="A"/>
    <g s:x="0" s:y="20" s:pid="B"/>
    <g s:x="30" s:y="12.5" s:pid="Y"/>
  </g>
  <g s:type="and" transform="translate(1164,813)" s:width="30" s:height="25" id="cell_\28">
    <s:alias val="$and"/>
    <s:alias val="$logic_and"/>
    <s:alias val="$_AND_"/>
    <s:alias val="$reduce_and"/>
    <path d="M0,0 L0,25 L15,25 A15 12.5 0 0 0 15,0 Z" class="cell_\28 fill-1"/>
    <g s:x="0" s:y="5" s:pid="A"/>
    <g s:x="0" s:y="20" s:pid="B"/>
    <g s:x="30" s:y="12.5" s:pid="Y"/>
  </g>
  <g s:type="not" transform="translate(96,311.5)" s:width="30" s:height="20" id="cell_\3">
    <s:alias val="$_NOT_"/>
    <s:alias val="$not"/>
    <s:alias val="$logic_not"/>
    <path d="M0,0 L0,20 L20,10 Z" class="cell_\3 fill-1"/>
    <circle cx="24" cy="10" r="3" class="cell_\3 fill-3"/>
    <g s:x="-1" s:y="10" s:pid="A"/>
    <g s:x="27" s:y="10" s:pid="Y"/>
  </g>
  <g s:type="and" transform="translate(964,483)" s:width="30" s:height="25" id="cell_\32">
    <s:alias val="$and"/>
    <s:alias val="$logic_and"/>
    <s:alias val="$_AND_"/>
    <s:alias val="$reduce_and"/>
    <path d="M0,0 L0,25 L15,25 A15 12.5 0 0 0 15,0 Z" class="cell_\32 fill-1"/>
    <g s:x="0" s:y="5" s:pid="A"/>
    <g s:x="0" s:y="20" s:pid="B"/>
    <g s:x="30" s:y="12.5" s:pid="Y"/>
  </g>
  <g s:type="and" transform="translate(964,723)" s:width="30" s:height="25" id="cell_\35">
    <s:alias val="$and"/>
    <s:alias val="$logic_and"/>
    <s:alias val="$_AND_"/>
    <s:alias val="$reduce_and"/>
    <path d="M0,0 L0,25 L15,25 A15 12.5 0 0 0 15,0 Z" class="cell_\35 fill-1"/>
    <g s:x="0" s:y="5" s:pid="A"/>
    <g s:x="0" s:y="20" s:pid="B"/>
    <g s:x="30" s:y="12.5" s:pid="Y"/>
  </g>
  <g s:type="and" transform="translate(964,783)" s:width="30" s:height="25" id="cell_\38">
    <s:alias val="$and"/>
    <s:alias val="$logic_and"/>
    <s:alias val="$_AND_"/>
    <s:alias val="$reduce_and"/>
    <path d="M0,0 L0,25 L15,25 A15 12.5 0 0 0 15,0 Z" class="cell_\38 fill-1"/>
    <g s:x="0" s:y="5" s:pid="A"/>
    <g s:x="0" s:y="20" s:pid="B"/>
    <g s:x="30" s:y="12.5" s:pid="Y"/>
  </g>
  <g s:type="and" transform="translate(161,38.5)" s:width="30" s:height="25" id="cell_\4">
    <s:alias val="$and"/>
    <s:alias val="$logic_and"/>
    <s:alias val="$_AND_"/>
    <s:alias val="$reduce_and"/>
    <path d="M0,0 L0,25 L15,25 A15 12.5 0 0 0 15,0 Z" class="cell_\4 fill-1"/>
    <g s:x="0" s:y="5" s:pid="A"/>
    <g s:x="0" s:y="20" s:pid="B"/>
    <g s:x="30" s:y="12.5" s:pid="Y"/>
  </g>
  <g s:type="and" transform="translate(964,829)" s:width="30" s:height="25" id="cell_\41">
    <s:alias val="$and"/>
    <s:alias val="$logic_and"/>
    <s:alias val="$_AND_"/>
    <s:alias val="$reduce_and"/>
    <path d="M0,0 L0,25 L15,25 A15 12.5 0 0 0 15,0 Z" class="cell_\41 fill-1"/>
    <g s:x="0" s:y="5" s:pid="A"/>
    <g s:x="0" s:y="20" s:pid="B"/>
    <g s:x="30" s:y="12.5" s:pid="Y"/>
  </g>
  <g s:type="and" transform="translate(964,875)" s:width="30" s:height="25" id="cell_\44">
    <s:alias val="$and"/>
    <s:alias val="$logic_and"/>
    <s:alias val="$_AND_"/>
    <s:alias val="$reduce_and"/>
    <path d="M0,0 L0,25 L15,25 A15 12.5 0 0 0 15,0 Z" class="cell_\44 fill-1"/>
    <g s:x="0" s:y="5" s:pid="A"/>
    <g s:x="0" s:y="20" s:pid="B"/>
    <g s:x="30" s:y="12.5" s:pid="Y"/>
  </g>
  <g s:type="and" transform="translate(964,935)" s:width="30" s:height="25" id="cell_\47">
    <s:alias val="$and"/>
    <s:alias val="$logic_and"/>
    <s:alias val="$_AND_"/>
    <s:alias val="$reduce_and"/>
    <path d="M0,0 L0,25 L15,25 A15 12.5 0 0 0 15,0 Z" class="cell_\47 fill-1"/>
    <g s:x="0" s:y="5" s:pid="A"/>
    <g s:x="0" s:y="20" s:pid="B"/>
    <g s:x="30" s:y="12.5" s:pid="Y"/>
  </g>
  <g s:type="not" transform="translate(96,256.5)" s:width="30" s:height="20" id="cell_\5">
    <s:alias val="$_NOT_"/>
    <s:alias val="$not"/>
    <s:alias val="$logic_not"/>
    <path d="M0,0 L0,20 L20,10 Z" class="cell_\5 fill-1"/>
    <circle cx="24" cy="10" r="3" class="cell_\5 fill-3"/>
    <g s:x="-1" s:y="10" s:pid="A"/>
    <g s:x="27" s:y="10" s:pid="Y"/>
  </g>
  <g s:type="and" transform="translate(964,995)" s:width="30" s:height="25" id="cell_\50">
    <s:alias val="$and"/>
    <s:alias val="$logic_and"/>
    <s:alias val="$_AND_"/>
    <s:alias val="$reduce_and"/>
    <path d="M0,0 L0,25 L15,25 A15 12.5 0 0 0 15,0 Z" class="cell_\50 fill-1"/>
    <g s:x="0" s:y="5" s:pid="A"/>
    <g s:x="0" s:y="20" s:pid="B"/>
    <g s:x="30" s:y="12.5" s:pid="Y"/>
  </g>
  <g s:type="and" transform="translate(964,42)" s:width="30" s:height="25" id="cell_\54">
    <s:alias val="$and"/>
    <s:alias val="$logic_and"/>
    <s:alias val="$_AND_"/>
    <s:alias val="$reduce_and"/>
    <path d="M0,0 L0,25 L15,25 A15 12.5 0 0 0 15,0 Z" class="cell_\54 fill-1"/>
    <g s:x="0" s:y="5" s:pid="A"/>
    <g s:x="0" s:y="20" s:pid="B"/>
    <g s:x="30" s:y="12.5" s:pid="Y"/>
  </g>
  <g s:type="and" transform="translate(964,119.5)" s:width="30" s:height="25" id="cell_\57">
    <s:alias val="$and"/>
    <s:alias val="$logic_and"/>
    <s:alias val="$_AND_"/>
    <s:alias val="$reduce_and"/>
    <path d="M0,0 L0,25 L15,25 A15 12.5 0 0 0 15,0 Z" class="cell_\57 fill-1"/>
    <g s:x="0" s:y="5" s:pid="A"/>
    <g s:x="0" s:y="20" s:pid="B"/>
    <g s:x="30" s:y="12.5" s:pid="Y"/>
  </g>
  <g s:type="and" transform="translate(161,261.5)" s:width="30" s:height="25" id="cell_\6">
    <s:alias val="$and"/>
    <s:alias val="$logic_and"/>
    <s:alias val="$_AND_"/>
    <s:alias val="$reduce_and"/>
    <path d="M0,0 L0,25 L15,25 A15 12.5 0 0 0 15,0 Z" class="cell_\6 fill-1"/>
    <g s:x="0" s:y="5" s:pid="A"/>
    <g s:x="0" s:y="20" s:pid="B"/>
    <g s:x="30" s:y="12.5" s:pid="Y"/>
  </g>
  <g s:type="and" transform="translate(964,287.5)" s:width="30" s:height="25" id="cell_\60">
    <s:alias val="$and"/>
    <s:alias val="$logic_and"/>
    <s:alias val="$_AND_"/>
    <s:alias val="$reduce_and"/>
    <path d="M0,0 L0,25 L15,25 A15 12.5 0 0 0 15,0 Z" class="cell_\60 fill-1"/>
    <g s:x="0" s:y="5" s:pid="A"/>
    <g s:x="0" s:y="20" s:pid="B"/>
    <g s:x="30" s:y="12.5" s:pid="Y"/>
  </g>
  <g s:type="and" transform="translate(964,347.5)" s:width="30" s:height="25" id="cell_\63">
    <s:alias val="$and"/>
    <s:alias val="$logic_and"/>
    <s:alias val="$_AND_"/>
    <s:alias val="$reduce_and"/>
    <path d="M0,0 L0,25 L15,25 A15 12.5 0 0 0 15,0 Z" class="cell_\63 fill-1"/>
    <g s:x="0" s:y="5" s:pid="A"/>
    <g s:x="0" s:y="20" s:pid="B"/>
    <g s:x="30" s:y="12.5" s:pid="Y"/>
  </g>
  <g s:type="and" transform="translate(964,543)" s:width="30" s:height="25" id="cell_\66">
    <s:alias val="$and"/>
    <s:alias val="$logic_and"/>
    <s:alias val="$_AND_"/>
    <s:alias val="$reduce_and"/>
    <path d="M0,0 L0,25 L15,25 A15 12.5 0 0 0 15,0 Z" class="cell_\66 fill-1"/>
    <g s:x="0" s:y="5" s:pid="A"/>
    <g s:x="0" s:y="20" s:pid="B"/>
    <g s:x="30" s:y="12.5" s:pid="Y"/>
  </g>
  <g s:type="and" transform="translate(964,603)" s:width="30" s:height="25" id="cell_\69">
    <s:alias val="$and"/>
    <s:alias val="$logic_and"/>
    <s:alias val="$_AND_"/>
    <s:alias val="$reduce_and"/>
    <path d="M0,0 L0,25 L15,25 A15 12.5 0 0 0 15,0 Z" class="cell_\69 fill-1"/>
    <g s:x="0" s:y="5" s:pid="A"/>
    <g s:x="0" s:y="20" s:pid="B"/>
    <g s:x="30" s:y="12.5" s:pid="Y"/>
  </g>
  <g s:type="not" transform="translate(292,256.5)" s:width="30" s:height="20" id="cell_\7">
    <s:alias val="$_NOT_"/>
    <s:alias val="$not"/>
    <s:alias val="$logic_not"/>
    <path d="M0,0 L0,20 L20,10 Z" class="cell_\7 fill-1"/>
    <circle cx="24" cy="10" r="3" class="cell_\7 fill-3"/>
    <g s:x="-1" s:y="10" s:pid="A"/>
    <g s:x="27" s:y="10" s:pid="Y"/>
  </g>
  <g s:type="and" transform="translate(964,663)" s:width="30" s:height="25" id="cell_\72">
    <s:alias val="$and"/>
    <s:alias val="$logic_and"/>
    <s:alias val="$_AND_"/>
    <s:alias val="$reduce_and"/>
    <path d="M0,0 L0,25 L15,25 A15 12.5 0 0 0 15,0 Z" class="cell_\72 fill-1"/>
    <g s:x="0" s:y="5" s:pid="A"/>
    <g s:x="0" s:y="20" s:pid="B"/>
    <g s:x="30" s:y="12.5" s:pid="Y"/>
  </g>
  <g s:type="or" transform="translate(1034,942.5)" s:width="30" s:height="25" id="cell_\93">
    <s:alias val="$or"/>
    <s:alias val="$logic_or"/>
    <s:alias val="$_OR_"/>
    <s:alias val="$reduce_or"/>
    <s:alias val="$reduce_bool"/>
    <path d="M0,0 A30 25 0 0 1 0,25 A30 25 0 0 0 30,12.5 A30 25 0 0 0 0,0" class="cell_\93 fill-1"/>
    <g s:x="2" s:y="5" s:pid="A"/>
    <g s:x="2" s:y="20" s:pid="B"/>
    <g s:x="30" s:y="12.5" s:pid="Y"/>
  </g>
  <g s:type="inputExt" transform="translate(12,33.5)" s:width="30" s:height="20" id="cell_source_1">
    <text x="15" y="-4" class="nodelabel text-1 cell_source_1" s:attribute="ref">source_1</text>
    <s:alias val="$_inputExt_"/>
    <path d="M0,0 L0,20 L15,20 L30,10 L15,0 Z" class="cell_source_1 fill-4"/>
    <g s:x="30" s:y="10" s:pid="Y"/>
  </g>
  <g s:type="inputExt" transform="translate(12,311.5)" s:width="30" s:height="20" id="cell_source_2">
    <text x="15" y="-4" class="nodelabel text-1 cell_source_2" s:attribute="ref">source_2</text>
    <s:alias val="$_inputExt_"/>
    <path d="M0,0 L0,20 L15,20 L30,10 L15,0 Z" class="cell_source_2 fill-4"/>
    <g s:x="30" s:y="10" s:pid="Y"/>
  </g>
  <g s:type="outputExt" transform="translate(1229,815.5)" s:width="30" s:height="20" id="cell_flag_equal">
    <text x="15" y="-4" class="nodelabel text-1 cell_flag_equal" s:attribute="ref">flag_equal</text>
    <s:alias val="$_outputExt_"/>
    <path d="M30,0 L30,20 L15,20 L0,10 L15,0 Z" class="cell_flag_equal fill-4"/>
    <g s:x="0" s:y="10" s:pid="A"/>
  </g>
  <g s:type="outputExt" transform="translate(1229,658)" s:width="30" s:height="20" id="cell_flag_less">
    <text x="15" y="-4" class="nodelabel text-1 cell_flag_less" s:attribute="ref">flag_less</text>
    <s:alias val="$_outputExt_"/>
    <path d="M30,0 L30,20 L15,20 L0,10 L15,0 Z" class="cell_flag_less fill-4"/>
    <g s:x="0" s:y="10" s:pid="A"/>
  </g>
  <g s:type="outputExt" transform="translate(1229,22)" s:width="30" s:height="20" id="cell_flag_greather">
    <text x="15" y="-4" class="nodelabel text-1 cell_flag_greather" s:attribute="ref">flag_greather</text>
    <s:alias val="$_outputExt_"/>
    <path d="M30,0 L30,20 L15,20 L0,10 L15,0 Z" class="cell_flag_greather fill-4"/>
    <g s:x="0" s:y="10" s:pid="A"/>
  </g>
  <g s:type="split" transform="translate(357,246)" s:width="5" s:height="40" id="cell_$split$,82,80,78,76,68,59,46,45,">
    <rect width="5" height="160" class="splitjoinBody" s:generic="body"/>
    <s:alias val="$_split_"/>
    <g s:x="0" s:y="20" s:pid="in"/>
    <g transform="translate(4,10)" s:x="4" s:y="10" s:pid="out0">
      <text x="5" y="-4" class="text-2">7</text>
    </g>
    <g transform="translate(4,30)" s:x="4" s:y="10" s:pid="out0">
      <text x="5" y="-4" class="text-2">6</text>
    </g>
    <g transform="translate(4,50)" s:x="4" s:y="10" s:pid="out0">
      <text x="5" y="-4" class="text-2">5</text>
    </g>
    <g transform="translate(4,70)" s:x="4" s:y="10" s:pid="out0">
      <text x="5" y="-4" class="text-2">4</text>
    </g>
    <g transform="translate(4,90)" s:x="4" s:y="10" s:pid="out0">
      <text x="5" y="-4" class="text-2">3</text>
    </g>
    <g transform="translate(4,110)" s:x="4" s:y="10" s:pid="out0">
      <text x="5" y="-4" class="text-2">2</text>
    </g>
    <g transform="translate(4,130)" s:x="4" s:y="10" s:pid="out0">
      <text x="5" y="-4" class="text-2">1</text>
    </g>
    <g transform="translate(4,150)" s:x="4" s:y="10" s:pid="out0">
      <text x="5" y="-4" class="text-2">0</text>
    </g>
  </g>
  <g s:type="split" transform="translate(760.4285714285714,457.5)" s:width="5" s:height="40" id="cell_$split$,29,30,31,32,33,34,35,36,">
    <rect width="5" height="160" class="splitjoinBody" s:generic="body"/>
    <s:alias val="$_split_"/>
    <g s:x="0" s:y="20" s:pid="in"/>
    <g transform="translate(4,10)" s:x="4" s:y="10" s:pid="out0">
      <text x="5" y="-4" class="text-2">7</text>
    </g>
    <g transform="translate(4,30)" s:x="4" s:y="10" s:pid="out0">
      <text x="5" y="-4" class="text-2">6</text>
    </g>
    <g transform="translate(4,50)" s:x="4" s:y="10" s:pid="out0">
      <text x="5" y="-4" class="text-2">5</text>
    </g>
    <g transform="translate(4,70)" s:x="4" s:y="10" s:pid="out0">
      <text x="5" y="-4" class="text-2">4</text>
    </g>
    <g transform="translate(4,90)" s:x="4" s:y="10" s:pid="out0">
      <text x="5" y="-4" class="text-2">3</text>
    </g>
    <g transform="translate(4,110)" s:x="4" s:y="10" s:pid="out0">
      <text x="5" y="-4" class="text-2">2</text>
    </g>
    <g transform="translate(4,130)" s:x="4" s:y="10" s:pid="out0">
      <text x="5" y="-4" class="text-2">1</text>
    </g>
    <g transform="translate(4,150)" s:x="4" s:y="10" s:pid="out0">
      <text x="5" y="-4" class="text-2">0</text>
    </g>
  </g>
  <g s:type="split" transform="translate(760.4285714285714,89)" s:width="5" s:height="40" id="cell_$split$,21,22,23,24,25,26,27,28,">
    <rect width="5" height="160" class="splitjoinBody" s:generic="body"/>
    <s:alias val="$_split_"/>
    <g s:x="0" s:y="20" s:pid="in"/>
    <g transform="translate(4,10)" s:x="4" s:y="10" s:pid="out0">
      <text x="5" y="-4" class="text-2">7</text>
    </g>
    <g transform="translate(4,30)" s:x="4" s:y="10" s:pid="out0">
      <text x="5" y="-4" class="text-2">6</text>
    </g>
    <g transform="translate(4,50)" s:x="4" s:y="10" s:pid="out0">
      <text x="5" y="-4" class="text-2">5</text>
    </g>
    <g transform="translate(4,70)" s:x="4" s:y="10" s:pid="out0">
      <text x="5" y="-4" class="text-2">4</text>
    </g>
    <g transform="translate(4,90)" s:x="4" s:y="10" s:pid="out0">
      <text x="5" y="-4" class="text-2">3</text>
    </g>
    <g transform="translate(4,110)" s:x="4" s:y="10" s:pid="out0">
      <text x="5" y="-4" class="text-2">2</text>
    </g>
    <g transform="translate(4,130)" s:x="4" s:y="10" s:pid="out0">
      <text x="5" y="-4" class="text-2">1</text>
    </g>
    <g transform="translate(4,150)" s:x="4" s:y="10" s:pid="out0">
      <text x="5" y="-4" class="text-2">0</text>
    </g>
  </g>
  <line x1="191" x2="201" y1="51" y2="51" class="net_21,22,23,24,25,26,27,28"/>
  <line x1="201" x2="201" y1="51" y2="259" class="net_21,22,23,24,25,26,27,28"/>
  <circle cx="201" cy="51" r="2" style="fill:#000" class="net_21,22,23,24,25,26,27,28"/>
  <line x1="201" x2="228" y1="259" y2="259" class="net_21,22,23,24,25,26,27,28"/>
  <line x1="191" x2="719" y1="51" y2="51" class="net_21,22,23,24,25,26,27,28"/>
  <line x1="719" x2="719" y1="51" y2="109.5" class="net_21,22,23,24,25,26,27,28"/>
  <line x1="719" x2="760.4285714285714" y1="109.5" y2="109.5" class="net_21,22,23,24,25,26,27,28"/>
  <line x1="191" x2="228" y1="274" y2="274" class="net_29,30,31,32,33,34,35,36"/>
  <line x1="191" x2="201" y1="274" y2="274" class="net_29,30,31,32,33,34,35,36"/>
  <line x1="201" x2="201" y1="274" y2="1041" class="net_29,30,31,32,33,34,35,36"/>
  <line x1="201" x2="719" y1="1041" y2="1041" class="net_29,30,31,32,33,34,35,36"/>
  <line x1="719" x2="719" y1="1041" y2="478" class="net_29,30,31,32,33,34,35,36"/>
  <circle cx="201" cy="274" r="2" style="fill:#000" class="net_29,30,31,32,33,34,35,36"/>
  <line x1="719" x2="760.4285714285714" y1="478" y2="478" class="net_29,30,31,32,33,34,35,36"/>
  <line x1="361.5" x2="361.5" y1="256" y2="62" class="net_45"/>
  <line x1="361.5" x2="379" y1="62" y2="62" class="net_45"/>
  <line x1="379" x2="379" y1="62" y2="261.5" class="net_45"/>
  <circle cx="379" cy="62" r="2" style="fill:#000" class="net_45"/>
  <line x1="379" x2="419" y1="261.5" y2="261.5" class="net_45"/>
  <line x1="361.5" x2="361.5" y1="256" y2="62" class="net_45"/>
  <line x1="361.5" x2="954" y1="62" y2="62" class="net_45"/>
  <line x1="954" x2="954" y1="62" y2="503" class="net_45"/>
  <circle cx="954" cy="62" r="2" style="fill:#000" class="net_45"/>
  <line x1="954" x2="964" y1="503" y2="503" class="net_45"/>
  <line x1="361.5" x2="361.5" y1="256" y2="62" class="net_45"/>
  <line x1="361.5" x2="964" y1="62" y2="62" class="net_45"/>
  <line x1="362" x2="419" y1="276.5" y2="276.5" class="net_46"/>
  <line x1="994" x2="1036" y1="841.5" y2="841.5" class="net_48"/>
  <line x1="994" x2="1024" y1="887.5" y2="887.5" class="net_49"/>
  <line x1="1024" x2="1024" y1="887.5" y2="856.5" class="net_49"/>
  <line x1="1024" x2="1036" y1="856.5" y2="856.5" class="net_49"/>
  <line x1="1064" x2="1074" y1="955" y2="955" class="net_51"/>
  <line x1="1074" x2="1074" y1="955" y2="834" class="net_51"/>
  <line x1="1074" x2="1101" y1="834" y2="834" class="net_51"/>
  <line x1="1064" x2="1101" y1="849" y2="849" class="net_50"/>
  <line x1="994" x2="1036" y1="735.5" y2="735.5" class="net_53"/>
  <line x1="994" x2="1024" y1="795.5" y2="795.5" class="net_54"/>
  <line x1="1024" x2="1024" y1="795.5" y2="750.5" class="net_54"/>
  <line x1="1024" x2="1036" y1="750.5" y2="750.5" class="net_54"/>
  <line x1="764.9285714285714" x2="764.9285714285714" y1="467.5" y2="445.5" class="net_36"/>
  <line x1="764.9285714285714" x2="834" y1="445.5" y2="445.5" class="net_36"/>
  <line x1="834" x2="834" y1="445.5" y2="864" class="net_36"/>
  <line x1="834" x2="1014" y1="864" y2="864" class="net_36"/>
  <line x1="1014" x2="1014" y1="864" y2="675.5" class="net_36"/>
  <line x1="1014" x2="1036" y1="675.5" y2="675.5" class="net_36"/>
  <line x1="994" x2="1024" y1="495.5" y2="495.5" class="net_56"/>
  <line x1="1024" x2="1024" y1="495.5" y2="690.5" class="net_56"/>
  <line x1="1024" x2="1036" y1="690.5" y2="690.5" class="net_56"/>
  <line x1="1064" x2="1074" y1="743" y2="743" class="net_55"/>
  <line x1="1074" x2="1074" y1="743" y2="668" class="net_55"/>
  <line x1="1074" x2="1101" y1="668" y2="668" class="net_55"/>
  <line x1="1064" x2="1101" y1="683" y2="683" class="net_57"/>
  <line x1="1129" x2="1139" y1="841.5" y2="841.5" class="net_52"/>
  <line x1="1139" x2="1139" y1="841.5" y2="660.5" class="net_52"/>
  <line x1="1139" x2="1166" y1="660.5" y2="660.5" class="net_52"/>
  <line x1="1129" x2="1166" y1="675.5" y2="675.5" class="net_58"/>
  <line x1="449" x2="459" y1="269" y2="269" class="net_47"/>
  <line x1="459" x2="459" y1="269" y2="285" class="net_47"/>
  <circle cx="459" cy="269" r="2" style="fill:#000" class="net_47"/>
  <line x1="459" x2="484" y1="285" y2="285" class="net_47"/>
  <line x1="449" x2="894" y1="269" y2="269" class="net_47"/>
  <line x1="894" x2="894" y1="269" y2="728" class="net_47"/>
  <circle cx="894" cy="269" r="2" style="fill:#000" class="net_47"/>
  <line x1="894" x2="964" y1="728" y2="728" class="net_47"/>
  <line x1="449" x2="894" y1="269" y2="269" class="net_47"/>
  <line x1="894" x2="894" y1="269" y2="124.5" class="net_47"/>
  <line x1="894" x2="964" y1="124.5" y2="124.5" class="net_47"/>
  <line x1="362" x2="379" y1="296.5" y2="296.5" class="net_59"/>
  <line x1="379" x2="379" y1="296.5" y2="300" class="net_59"/>
  <line x1="379" x2="484" y1="300" y2="300" class="net_59"/>
  <line x1="994" x2="1036" y1="615.5" y2="615.5" class="net_61"/>
  <line x1="994" x2="1004" y1="675.5" y2="675.5" class="net_62"/>
  <line x1="1004" x2="1004" y1="675.5" y2="630.5" class="net_62"/>
  <line x1="1004" x2="1036" y1="630.5" y2="630.5" class="net_62"/>
  <line x1="994" x2="1036" y1="360" y2="360" class="net_64"/>
  <line x1="994" x2="1004" y1="555.5" y2="555.5" class="net_65"/>
  <line x1="1004" x2="1004" y1="555.5" y2="375" class="net_65"/>
  <line x1="1004" x2="1036" y1="375" y2="375" class="net_65"/>
  <line x1="1064" x2="1074" y1="623" y2="623" class="net_63"/>
  <line x1="1074" x2="1074" y1="623" y2="352.5" class="net_63"/>
  <line x1="1074" x2="1101" y1="352.5" y2="352.5" class="net_63"/>
  <line x1="1064" x2="1101" y1="367.5" y2="367.5" class="net_66"/>
  <line x1="514" x2="524" y1="292.5" y2="292.5" class="net_60"/>
  <line x1="524" x2="524" y1="292.5" y2="345" class="net_60"/>
  <circle cx="524" cy="292.5" r="2" style="fill:#000" class="net_60"/>
  <line x1="524" x2="549" y1="345" y2="345" class="net_60"/>
  <line x1="514" x2="884" y1="292.5" y2="292.5" class="net_60"/>
  <line x1="884" x2="884" y1="292.5" y2="788" class="net_60"/>
  <circle cx="884" cy="292.5" r="2" style="fill:#000" class="net_60"/>
  <line x1="884" x2="964" y1="788" y2="788" class="net_60"/>
  <line x1="514" x2="964" y1="292.5" y2="292.5" class="net_60"/>
  <line x1="362" x2="409" y1="316.5" y2="316.5" class="net_68"/>
  <line x1="409" x2="409" y1="316.5" y2="360" class="net_68"/>
  <line x1="409" x2="549" y1="360" y2="360" class="net_68"/>
  <line x1="994" x2="1036" y1="132" y2="132" class="net_70"/>
  <line x1="994" x2="1004" y1="300" y2="300" class="net_71"/>
  <line x1="1004" x2="1004" y1="300" y2="147" class="net_71"/>
  <line x1="1004" x2="1036" y1="147" y2="147" class="net_71"/>
  <line x1="764.9285714285714" x2="764.9285714285714" y1="99" y2="77" class="net_28"/>
  <line x1="764.9285714285714" x2="1004" y1="77" y2="77" class="net_28"/>
  <line x1="1004" x2="1004" y1="77" y2="39.5" class="net_28"/>
  <line x1="1004" x2="1036" y1="39.5" y2="39.5" class="net_28"/>
  <line x1="994" x2="1036" y1="54.5" y2="54.5" class="net_73"/>
  <line x1="1064" x2="1074" y1="139.5" y2="139.5" class="net_72"/>
  <line x1="1074" x2="1074" y1="139.5" y2="32" class="net_72"/>
  <line x1="1074" x2="1101" y1="32" y2="32" class="net_72"/>
  <line x1="1064" x2="1101" y1="47" y2="47" class="net_74"/>
  <line x1="1129" x2="1139" y1="360" y2="360" class="net_67"/>
  <line x1="1139" x2="1139" y1="360" y2="24.5" class="net_67"/>
  <line x1="1139" x2="1166" y1="24.5" y2="24.5" class="net_67"/>
  <line x1="1129" x2="1166" y1="39.5" y2="39.5" class="net_75"/>
  <line x1="579" x2="589" y1="352.5" y2="352.5" class="net_69"/>
  <line x1="589" x2="589" y1="352.5" y2="368.5" class="net_69"/>
  <circle cx="589" cy="352.5" r="2" style="fill:#000" class="net_69"/>
  <line x1="589" x2="614" y1="368.5" y2="368.5" class="net_69"/>
  <line x1="579" x2="874" y1="352.5" y2="352.5" class="net_69"/>
  <line x1="874" x2="874" y1="352.5" y2="834" class="net_69"/>
  <circle cx="874" cy="352.5" r="2" style="fill:#000" class="net_69"/>
  <line x1="874" x2="964" y1="834" y2="834" class="net_69"/>
  <line x1="579" x2="964" y1="352.5" y2="352.5" class="net_69"/>
  <line x1="362" x2="399" y1="336.5" y2="336.5" class="net_76"/>
  <line x1="399" x2="399" y1="336.5" y2="383.5" class="net_76"/>
  <line x1="399" x2="614" y1="383.5" y2="383.5" class="net_76"/>
  <line x1="644" x2="654" y1="376" y2="376" class="net_77"/>
  <line x1="654" x2="654" y1="376" y2="392" class="net_77"/>
  <circle cx="654" cy="376" r="2" style="fill:#000" class="net_77"/>
  <line x1="654" x2="679" y1="392" y2="392" class="net_77"/>
  <line x1="644" x2="864" y1="376" y2="376" class="net_77"/>
  <line x1="864" x2="864" y1="376" y2="880" class="net_77"/>
  <line x1="864" x2="964" y1="880" y2="880" class="net_77"/>
  <line x1="644" x2="864" y1="376" y2="376" class="net_77"/>
  <line x1="864" x2="864" y1="376" y2="548" class="net_77"/>
  <circle cx="864" cy="548" r="2" style="fill:#000" class="net_77"/>
  <line x1="864" x2="964" y1="548" y2="548" class="net_77"/>
  <line x1="362" x2="389" y1="356.5" y2="356.5" class="net_78"/>
  <line x1="389" x2="389" y1="356.5" y2="407" class="net_78"/>
  <line x1="389" x2="679" y1="407" y2="407" class="net_78"/>
  <line x1="709" x2="719" y1="399.5" y2="399.5" class="net_79"/>
  <line x1="719" x2="719" y1="399.5" y2="415.5" class="net_79"/>
  <circle cx="719" cy="399.5" r="2" style="fill:#000" class="net_79"/>
  <line x1="719" x2="744" y1="415.5" y2="415.5" class="net_79"/>
  <line x1="709" x2="854" y1="399.5" y2="399.5" class="net_79"/>
  <line x1="854" x2="854" y1="399.5" y2="940" class="net_79"/>
  <line x1="854" x2="964" y1="940" y2="940" class="net_79"/>
  <line x1="709" x2="854" y1="399.5" y2="399.5" class="net_79"/>
  <line x1="854" x2="854" y1="399.5" y2="608" class="net_79"/>
  <circle cx="854" cy="608" r="2" style="fill:#000" class="net_79"/>
  <line x1="854" x2="964" y1="608" y2="608" class="net_79"/>
  <line x1="362" x2="379" y1="376.5" y2="376.5" class="net_80"/>
  <line x1="379" x2="379" y1="376.5" y2="430.5" class="net_80"/>
  <line x1="379" x2="744" y1="430.5" y2="430.5" class="net_80"/>
  <line x1="774" x2="844" y1="423" y2="423" class="net_81"/>
  <line x1="844" x2="844" y1="423" y2="818" class="net_81"/>
  <circle cx="844" cy="818" r="2" style="fill:#000" class="net_81"/>
  <line x1="844" x2="1164" y1="818" y2="818" class="net_81"/>
  <line x1="774" x2="844" y1="423" y2="423" class="net_81"/>
  <line x1="844" x2="844" y1="423" y2="1000" class="net_81"/>
  <line x1="844" x2="964" y1="1000" y2="1000" class="net_81"/>
  <line x1="774" x2="844" y1="423" y2="423" class="net_81"/>
  <line x1="844" x2="844" y1="423" y2="668" class="net_81"/>
  <circle cx="844" cy="668" r="2" style="fill:#000" class="net_81"/>
  <line x1="844" x2="964" y1="668" y2="668" class="net_81"/>
  <line x1="361.5" x2="361.5" y1="397" y2="1030" class="net_82"/>
  <line x1="361.5" x2="1149" y1="1030" y2="1030" class="net_82"/>
  <line x1="1149" x2="1149" y1="1030" y2="833" class="net_82"/>
  <line x1="1149" x2="1164" y1="833" y2="833" class="net_82"/>
  <line x1="42" x2="95" y1="321.5" y2="321.5" class="net_10,11,12,13,14,15,16,17"/>
  <line x1="42" x2="70" y1="321.5" y2="321.5" class="net_10,11,12,13,14,15,16,17"/>
  <line x1="70" x2="70" y1="321.5" y2="341.5" class="net_10,11,12,13,14,15,16,17"/>
  <line x1="70" x2="146" y1="341.5" y2="341.5" class="net_10,11,12,13,14,15,16,17"/>
  <line x1="146" x2="146" y1="341.5" y2="281.5" class="net_10,11,12,13,14,15,16,17"/>
  <circle cx="70" cy="321.5" r="2" style="fill:#000" class="net_10,11,12,13,14,15,16,17"/>
  <line x1="146" x2="161" y1="281.5" y2="281.5" class="net_10,11,12,13,14,15,16,17"/>
  <line x1="765.4285714285714" x2="964" y1="488" y2="488" class="net_35"/>
  <line x1="765.4285714285714" x2="824" y1="508" y2="508" class="net_34"/>
  <line x1="824" x2="824" y1="508" y2="743" class="net_34"/>
  <line x1="824" x2="964" y1="743" y2="743" class="net_34"/>
  <line x1="765.4285714285714" x2="814" y1="528" y2="528" class="net_33"/>
  <line x1="814" x2="814" y1="528" y2="803" class="net_33"/>
  <line x1="814" x2="964" y1="803" y2="803" class="net_33"/>
  <line x1="42" x2="161" y1="43.5" y2="43.5" class="net_2,3,4,5,6,7,8,9"/>
  <line x1="42" x2="70" y1="43.5" y2="43.5" class="net_2,3,4,5,6,7,8,9"/>
  <line x1="70" x2="70" y1="43.5" y2="266.5" class="net_2,3,4,5,6,7,8,9"/>
  <circle cx="70" cy="43.5" r="2" style="fill:#000" class="net_2,3,4,5,6,7,8,9"/>
  <line x1="70" x2="95" y1="266.5" y2="266.5" class="net_2,3,4,5,6,7,8,9"/>
  <line x1="123" x2="136" y1="321.5" y2="321.5" class="net_83,84,85,86,87,88,89,90"/>
  <line x1="136" x2="136" y1="321.5" y2="58.5" class="net_83,84,85,86,87,88,89,90"/>
  <line x1="136" x2="161" y1="58.5" y2="58.5" class="net_83,84,85,86,87,88,89,90"/>
  <line x1="765.4285714285714" x2="804" y1="548" y2="548" class="net_32"/>
  <line x1="804" x2="804" y1="548" y2="849" class="net_32"/>
  <line x1="804" x2="964" y1="849" y2="849" class="net_32"/>
  <line x1="765.4285714285714" x2="794" y1="568" y2="568" class="net_31"/>
  <line x1="794" x2="794" y1="568" y2="895" class="net_31"/>
  <line x1="794" x2="964" y1="895" y2="895" class="net_31"/>
  <line x1="765.4285714285714" x2="784" y1="588" y2="588" class="net_30"/>
  <line x1="784" x2="784" y1="588" y2="955" class="net_30"/>
  <line x1="784" x2="964" y1="955" y2="955" class="net_30"/>
  <line x1="764.9285714285714" x2="764.9285714285714" y1="608.5" y2="1015" class="net_29"/>
  <line x1="764.9285714285714" x2="964" y1="1015" y2="1015" class="net_29"/>
  <line x1="765.4285714285714" x2="784" y1="119.5" y2="119.5" class="net_27"/>
  <line x1="784" x2="784" y1="119.5" y2="47" class="net_27"/>
  <line x1="784" x2="964" y1="47" y2="47" class="net_27"/>
  <line x1="765.4285714285714" x2="964" y1="139.5" y2="139.5" class="net_26"/>
  <line x1="123" x2="161" y1="266.5" y2="266.5" class="net_92,93,94,95,96,97,98,99"/>
  <line x1="765.4285714285714" x2="944" y1="159.5" y2="159.5" class="net_25"/>
  <line x1="944" x2="944" y1="159.5" y2="307.5" class="net_25"/>
  <line x1="944" x2="964" y1="307.5" y2="307.5" class="net_25"/>
  <line x1="765.4285714285714" x2="934" y1="179.5" y2="179.5" class="net_24"/>
  <line x1="934" x2="934" y1="179.5" y2="367.5" class="net_24"/>
  <line x1="934" x2="964" y1="367.5" y2="367.5" class="net_24"/>
  <line x1="765.4285714285714" x2="924" y1="199.5" y2="199.5" class="net_23"/>
  <line x1="924" x2="924" y1="199.5" y2="563" class="net_23"/>
  <line x1="924" x2="964" y1="563" y2="563" class="net_23"/>
  <line x1="765.4285714285714" x2="914" y1="219.5" y2="219.5" class="net_22"/>
  <line x1="914" x2="914" y1="219.5" y2="623" class="net_22"/>
  <line x1="914" x2="964" y1="623" y2="623" class="net_22"/>
  <line x1="256" x2="291" y1="266.5" y2="266.5" class="net_37,38,39,40,41,42,43,44"/>
  <line x1="764.9285714285714" x2="764.9285714285714" y1="240" y2="259" class="net_21"/>
  <line x1="764.9285714285714" x2="904" y1="259" y2="259" class="net_21"/>
  <line x1="904" x2="904" y1="259" y2="683" class="net_21"/>
  <line x1="904" x2="964" y1="683" y2="683" class="net_21"/>
  <line x1="994" x2="1036" y1="947.5" y2="947.5" class="net_91"/>
  <line x1="994" x2="1004" y1="1007.5" y2="1007.5" class="net_100"/>
  <line x1="1004" x2="1004" y1="1007.5" y2="962.5" class="net_100"/>
  <line x1="1004" x2="1036" y1="962.5" y2="962.5" class="net_100"/>
  <line x1="1194" x2="1229" y1="825.5" y2="825.5" class="net_18"/>
  <line x1="1194" x2="1229" y1="668" y2="668" class="net_19"/>
  <line x1="1194" x2="1229" y1="32" y2="32" class="net_20"/>
  <line x1="319" x2="357" y1="266.5" y2="266.5" class="net_82,80,78,76,68,59,46,45"/>
</svg>
