<svg xmlns="http://www.w3.org/2000/svg" xmlns:xlink="http://www.w3.org/1999/xlink" xmlns:s="https://github.com/nturley/netlistsvg" width="323" height="264">
  <style>  svg {
      stroke: #011e41;
      fill: none;
    }
    text {
      fill:#ffffff;
      stroke:none;
      font-size:10px;
      font-weight: bold;
      font-family: "Courier New", monospace;
    }
    .fill-1 { fill: #003262; }
    .fill-2 { fill: #011e41; stroke: #003262; }
    .fill-3 { fill: #ffffff; }
    .fill-4 { fill: #003262; }
    .fill-5 { fill: #011e41; stroke: #fdda64; }
    .text-1 { fill: #fdb515; }
    .text-2 { fill: #003262; }
    .text-3 { stroke: #fdda64; }
    .nodelabel { text-anchor: middle; }
    .inputPortLabel { text-anchor: end; }
    .splitjoinBody { fill: #3c3c43; }</style>
  <g s:type="mux" transform="translate(86.66666666666667,22)" s:width="20" s:height="40" id="cell_\5">
    <s:alias val="$pmux"/>
    <s:alias val="$mux"/>
    <s:alias val="$_MUX_"/>
    <path d="M0,0 L20,10 L20,30 L0,40 Z" class="cell_\5 fill-1"/>
    <text x="5" y="32" class="nodelabel cell_\5" s:attribute="">1</text>
    <text x="5" y="13" class="nodelabel cell_\5" s:attribute="">0</text>
    <g s:x="0" s:y="10" s:pid="A"/>
    <g s:x="0" s:y="30" s:pid="B"/>
    <g s:x="10" s:y="35" s:pid="S"/>
    <g s:x="20" s:y="20" s:pid="Y"/>
  </g>
  <g s:type="mux" transform="translate(152.33333333333334,32)" s:width="20" s:height="40" id="cell_\6">
    <s:alias val="$pmux"/>
    <s:alias val="$mux"/>
    <s:alias val="$_MUX_"/>
    <path d="M0,0 L20,10 L20,30 L0,40 Z" class="cell_\6 fill-1"/>
    <text x="5" y="32" class="nodelabel cell_\6" s:attribute="">1</text>
    <text x="5" y="13" class="nodelabel cell_\6" s:attribute="">0</text>
    <g s:x="0" s:y="10" s:pid="A"/>
    <g s:x="0" s:y="30" s:pid="B"/>
    <g s:x="10" s:y="35" s:pid="S"/>
    <g s:x="20" s:y="20" s:pid="Y"/>
  </g>
  <g s:type="dff" transform="translate(215,42)" s:width="30" s:height="40" id="cell_\9">
    <s:alias val="$dff"/>
    <s:alias val="$_DFF_"/>
    <s:alias val="$_DFF_P_"/>
    <s:alias val="$adff"/>
    <s:alias val="$_DFF_"/>
    <s:alias val="$_DFF_P_"/>
    <s:alias val="$sdff"/>
    <s:alias val="$_DFF_"/>
    <s:alias val="$_DFF_P_"/>
    <rect width="30" height="40" x="0" y="0" class="cell_\9 fill-1"/>
    <path d="M0,35 L5,30 L0,25" class="cell_\9 fill-5"/>
    <g s:x="31" s:y="10" s:pid="Q"/>
    <g s:x="-1" s:y="30" s:pid="CLK"/>
    <g s:x="-1" s:y="30" s:pid="C"/>
    <g s:x="-1" s:y="10" s:pid="D"/>
    <g s:x="15" s:y="40" s:pid="ARST"/>
    <g s:x="15" s:y="40" s:pid="SRST"/>
  </g>
  <g s:type="inputExt" transform="translate(149,232)" s:width="30" s:height="20" id="cell_clock">
    <text x="15" y="-4" class="nodelabel text-1 cell_clock" s:attribute="ref">clock</text>
    <s:alias val="$_inputExt_"/>
    <path d="M0,0 L0,20 L15,20 L30,10 L15,0 Z" class="cell_clock fill-4"/>
    <g s:x="30" s:y="10" s:pid="Y"/>
  </g>
  <g s:type="inputExt" transform="translate(12,107)" s:width="30" s:height="20" id="cell_clear">
    <text x="15" y="-4" class="nodelabel text-1 cell_clear" s:attribute="ref">clear</text>
    <s:alias val="$_inputExt_"/>
    <path d="M0,0 L0,20 L15,20 L30,10 L15,0 Z" class="cell_clear fill-4"/>
    <g s:x="30" s:y="10" s:pid="Y"/>
  </g>
  <g s:type="inputExt" transform="translate(78,202)" s:width="30" s:height="20" id="cell_enable">
    <text x="15" y="-4" class="nodelabel text-1 cell_enable" s:attribute="ref">enable</text>
    <s:alias val="$_inputExt_"/>
    <path d="M0,0 L0,20 L15,20 L30,10 L15,0 Z" class="cell_enable fill-4"/>
    <g s:x="30" s:y="10" s:pid="Y"/>
  </g>
  <g s:type="inputExt" transform="translate(78,137)" s:width="30" s:height="20" id="cell_source">
    <text x="15" y="-4" class="nodelabel text-1 cell_source" s:attribute="ref">source</text>
    <s:alias val="$_inputExt_"/>
    <path d="M0,0 L0,20 L15,20 L30,10 L15,0 Z" class="cell_source fill-4"/>
    <g s:x="30" s:y="10" s:pid="Y"/>
  </g>
  <g s:type="outputExt" transform="translate(281,42)" s:width="30" s:height="20" id="cell_state">
    <text x="15" y="-4" class="nodelabel text-1 cell_state" s:attribute="ref">state</text>
    <s:alias val="$_outputExt_"/>
    <path d="M30,0 L30,20 L15,20 L0,10 L15,0 Z" class="cell_state fill-4"/>
    <g s:x="0" s:y="10" s:pid="A"/>
  </g>
  <g s:type="constant" transform="translate(12,42)" s:width="30" s:height="20" id="cell_0">
    <text x="15" y="-4" class="nodelabel text-1 cell_0" s:attribute="ref">0</text>
    <s:alias val="$_constant_"/>
    <rect width="30" height="20" class="cell_0 fill-4"/>
    <g s:x="31" s:y="10" s:pid="Y"/>
  </g>
  <line x1="246" x2="256" y1="52" y2="52" class="net_6"/>
  <line x1="256" x2="256" y1="52" y2="12" class="net_6"/>
  <line x1="256" x2="53" y1="12" y2="12" class="net_6"/>
  <line x1="53" x2="53" y1="12" y2="32" class="net_6"/>
  <circle cx="256" cy="52" r="2" style="fill:#000" class="net_6"/>
  <line x1="53" x2="86.66666666666667" y1="32" y2="32" class="net_6"/>
  <line x1="246" x2="281" y1="52" y2="52" class="net_6"/>
  <line x1="43" x2="86.66666666666667" y1="52" y2="52" class="net_9"/>
  <line x1="42" x2="96.66666666666667" y1="117" y2="117" class="net_3"/>
  <line x1="96.66666666666667" x2="96.66666666666667" y1="117" y2="57" class="net_3"/>
  <line x1="106.66666666666667" x2="152.33333333333334" y1="42" y2="42" class="net_7"/>
  <line x1="108" x2="124" y1="147" y2="147" class="net_5"/>
  <line x1="124" x2="124" y1="147" y2="62" class="net_5"/>
  <line x1="124" x2="152.33333333333334" y1="62" y2="62" class="net_5"/>
  <line x1="108" x2="162.33333333333334" y1="212" y2="212" class="net_4"/>
  <line x1="162.33333333333334" x2="162.33333333333334" y1="212" y2="67" class="net_4"/>
  <line x1="179" x2="189" y1="242" y2="242" class="net_2"/>
  <line x1="189" x2="189" y1="242" y2="72" class="net_2"/>
  <line x1="189" x2="214" y1="72" y2="72" class="net_2"/>
  <line x1="172.33333333333334" x2="214" y1="52" y2="52" class="net_8"/>
</svg>
