<svg xmlns="http://www.w3.org/2000/svg" xmlns:xlink="http://www.w3.org/1999/xlink" xmlns:s="https://github.com/nturley/netlistsvg" width="364" height="244">
  <style>  svg {
      stroke: #011e41;
      fill: none;
    }
    text {
      fill:#ffffff;
      stroke:none;
      font-size:10px;
      font-weight: bold;
      font-family: "Courier New", monospace;
    }
    .fill-1 { fill: #003262; }
    .fill-2 { fill: #011e41; stroke: #003262; }
    .fill-3 { fill: #ffffff; }
    .fill-4 { fill: #003262; }
    .fill-5 { fill: #011e41; stroke: #fdda64; }
    .text-1 { fill: #fdb515; }
    .text-2 { fill: #003262; }
    .text-3 { stroke: #fdda64; }
    .nodelabel { text-anchor: middle; }
    .inputPortLabel { text-anchor: end; }
    .splitjoinBody { fill: #3c3c43; }</style>
  <g s:type="dff" transform="translate(220,192)" s:width="30" s:height="40" id="cell_\10">
    <s:alias val="$dff"/>
    <s:alias val="$_DFF_"/>
    <s:alias val="$_DFF_P_"/>
    <s:alias val="$adff"/>
    <s:alias val="$_DFF_"/>
    <s:alias val="$_DFF_P_"/>
    <s:alias val="$sdff"/>
    <s:alias val="$_DFF_"/>
    <s:alias val="$_DFF_P_"/>
    <rect width="30" height="40" x="0" y="0" class="cell_\10 fill-1"/>
    <path d="M0,35 L5,30 L0,25" class="cell_\10 fill-5"/>
    <g s:x="31" s:y="10" s:pid="Q"/>
    <g s:x="-1" s:y="30" s:pid="CLK"/>
    <g s:x="-1" s:y="30" s:pid="C"/>
    <g s:x="-1" s:y="10" s:pid="D"/>
    <g s:x="15" s:y="40" s:pid="ARST"/>
    <g s:x="15" s:y="40" s:pid="SRST"/>
  </g>
  <g s:type="mux" transform="translate(88.33333333333333,67)" s:width="20" s:height="40" id="cell_\5">
    <s:alias val="$pmux"/>
    <s:alias val="$mux"/>
    <s:alias val="$_MUX_"/>
    <path d="M0,0 L20,10 L20,30 L0,40 Z" class="cell_\5 fill-1"/>
    <text x="5" y="32" class="nodelabel cell_\5" s:attribute="">1</text>
    <text x="5" y="13" class="nodelabel cell_\5" s:attribute="">0</text>
    <g s:x="0" s:y="10" s:pid="A"/>
    <g s:x="0" s:y="30" s:pid="B"/>
    <g s:x="10" s:y="35" s:pid="S"/>
    <g s:x="20" s:y="20" s:pid="Y"/>
  </g>
  <g s:type="mux" transform="translate(160.66666666666666,57)" s:width="20" s:height="40" id="cell_\9">
    <s:alias val="$pmux"/>
    <s:alias val="$mux"/>
    <s:alias val="$_MUX_"/>
    <path d="M0,0 L20,10 L20,30 L0,40 Z" class="cell_\9 fill-1"/>
    <text x="5" y="32" class="nodelabel cell_\9" s:attribute="">1</text>
    <text x="5" y="13" class="nodelabel cell_\9" s:attribute="">0</text>
    <g s:x="0" s:y="10" s:pid="A"/>
    <g s:x="0" s:y="30" s:pid="B"/>
    <g s:x="10" s:y="35" s:pid="S"/>
    <g s:x="20" s:y="20" s:pid="Y"/>
  </g>
  <g s:type="inputExt" transform="translate(154,212)" s:width="30" s:height="20" id="cell_clock">
    <text x="15" y="-4" class="nodelabel text-1 cell_clock" s:attribute="ref">clock</text>
    <s:alias val="$_inputExt_"/>
    <path d="M0,0 L0,20 L15,20 L30,10 L15,0 Z" class="cell_clock fill-4"/>
    <g s:x="30" s:y="10" s:pid="Y"/>
  </g>
  <g s:type="inputExt" transform="translate(12,152)" s:width="30" s:height="20" id="cell_clear">
    <text x="15" y="-4" class="nodelabel text-1 cell_clear" s:attribute="ref">clear</text>
    <s:alias val="$_inputExt_"/>
    <path d="M0,0 L0,20 L15,20 L30,10 L15,0 Z" class="cell_clear fill-4"/>
    <g s:x="30" s:y="10" s:pid="Y"/>
  </g>
  <g s:type="inputExt" transform="translate(83,182)" s:width="30" s:height="20" id="cell_enable">
    <text x="15" y="-4" class="nodelabel text-1 cell_enable" s:attribute="ref">enable</text>
    <s:alias val="$_inputExt_"/>
    <path d="M0,0 L0,20 L15,20 L30,10 L15,0 Z" class="cell_enable fill-4"/>
    <g s:x="30" s:y="10" s:pid="Y"/>
  </g>
  <g s:type="inputExt" transform="translate(12,22)" s:width="30" s:height="20" id="cell_source">
    <text x="15" y="-4" class="nodelabel text-1 cell_source" s:attribute="ref">source</text>
    <s:alias val="$_inputExt_"/>
    <path d="M0,0 L0,20 L15,20 L30,10 L15,0 Z" class="cell_source fill-4"/>
    <g s:x="30" s:y="10" s:pid="Y"/>
  </g>
  <g s:type="outputExt" transform="translate(286,192)" s:width="30" s:height="20" id="cell_destination">
    <text x="15" y="-4" class="nodelabel text-1 cell_destination" s:attribute="ref">destination</text>
    <s:alias val="$_outputExt_"/>
    <path d="M30,0 L30,20 L15,20 L0,10 L15,0 Z" class="cell_destination fill-4"/>
    <g s:x="0" s:y="10" s:pid="A"/>
  </g>
  <g s:type="constant" transform="translate(12,87)" s:width="30" s:height="20" id="cell_00000000">
    <text x="15" y="-4" class="nodelabel text-1 cell_00000000" s:attribute="ref">0x0</text>
    <s:alias val="$_constant_"/>
    <rect width="30" height="20" class="cell_00000000 fill-4"/>
    <g s:x="31" s:y="10" s:pid="Y"/>
  </g>
  <line x1="184" x2="219" y1="222" y2="222" class="net_2"/>
  <line x1="180.66666666666666" x2="194" y1="77" y2="77" class="net_21,22,23,24,25,26,27,28"/>
  <line x1="194" x2="194" y1="77" y2="202" class="net_21,22,23,24,25,26,27,28"/>
  <line x1="194" x2="219" y1="202" y2="202" class="net_21,22,23,24,25,26,27,28"/>
  <line x1="42" x2="58" y1="32" y2="32" class="net_5,6,7,8,9,10,11,12"/>
  <line x1="58" x2="58" y1="32" y2="77" class="net_5,6,7,8,9,10,11,12"/>
  <line x1="58" x2="88.33333333333333" y1="77" y2="77" class="net_5,6,7,8,9,10,11,12"/>
  <line x1="43" x2="88.33333333333333" y1="97" y2="97" class="net_37,38,39,40,41,42,43,44"/>
  <line x1="42" x2="98.33333333333333" y1="162" y2="162" class="net_3"/>
  <line x1="98.33333333333333" x2="98.33333333333333" y1="162" y2="102" class="net_3"/>
  <line x1="251" x2="261" y1="202" y2="202" class="net_13,14,15,16,17,18,19,20"/>
  <line x1="261" x2="261" y1="202" y2="47" class="net_13,14,15,16,17,18,19,20"/>
  <line x1="261" x2="129" y1="47" y2="47" class="net_13,14,15,16,17,18,19,20"/>
  <line x1="129" x2="129" y1="47" y2="67" class="net_13,14,15,16,17,18,19,20"/>
  <circle cx="261" cy="202" r="2" style="fill:#000" class="net_13,14,15,16,17,18,19,20"/>
  <line x1="129" x2="160.66666666666666" y1="67" y2="67" class="net_13,14,15,16,17,18,19,20"/>
  <line x1="251" x2="286" y1="202" y2="202" class="net_13,14,15,16,17,18,19,20"/>
  <line x1="108.33333333333333" x2="160.66666666666666" y1="87" y2="87" class="net_29,30,31,32,33,34,35,36"/>
  <line x1="113" x2="170.66666666666666" y1="192" y2="192" class="net_4"/>
  <line x1="170.66666666666666" x2="170.66666666666666" y1="192" y2="92" class="net_4"/>
</svg>
