<svg xmlns="http://www.w3.org/2000/svg" xmlns:xlink="http://www.w3.org/1999/xlink" xmlns:s="https://github.com/nturley/netlistsvg" width="612" height="1120">
  <style>  svg {
      stroke: #011e41;
      fill: none;
    }
    text {
      fill:#ffffff;
      stroke:none;
      font-size:10px;
      font-weight: bold;
      font-family: "Courier New", monospace;
    }
    .fill-1 { fill: #003262; }
    .fill-2 { fill: #011e41; stroke: #003262; }
    .fill-3 { fill: #ffffff; }
    .fill-4 { fill: #003262; }
    .fill-5 { fill: #011e41; stroke: #fdda64; }
    .text-1 { fill: #fdb515; }
    .text-2 { fill: #003262; }
    .text-3 { stroke: #fdda64; }
    .nodelabel { text-anchor: middle; }
    .inputPortLabel { text-anchor: end; }
    .splitjoinBody { fill: #3c3c43; }</style>
  <g s:type="and" transform="translate(365.3333333333333,43)" s:width="30" s:height="25" id="cell_\18">
    <s:alias val="$and"/>
    <s:alias val="$logic_and"/>
    <s:alias val="$_AND_"/>
    <s:alias val="$reduce_and"/>
    <path d="M0,0 L0,25 L15,25 A15 12.5 0 0 0 15,0 Z" class="cell_\18 fill-1"/>
    <g s:x="0" s:y="5" s:pid="A"/>
    <g s:x="0" s:y="20" s:pid="B"/>
    <g s:x="30" s:y="12.5" s:pid="Y"/>
  </g>
  <g s:type="tribuf" transform="translate(474,273.5)" s:width="15" s:height="30" id="cell_\23">
    <s:alias val="$tribuf"/>
    <s:alias val="$_TRIBUF_"/>
    <s:alias val="tribuf-bus"/>
    <s:alias val="$tribuf-bus"/>
    <s:alias val="$_TRIBUF_-bus"/>
    <path d="M0,0 L25,15 L0,30 Z" class="cell_\23 fill-1"/>
    <g s:x="0" s:y="15" s:pid="A"/>
    <g s:x="11" s:y="6" s:pid="EN"/>
    <g s:x="25" s:y="15" s:pid="Y"/>
  </g>
  <g s:type="and" transform="translate(123,966)" s:width="30" s:height="25" id="cell_\4">
    <s:alias val="$and"/>
    <s:alias val="$logic_and"/>
    <s:alias val="$_AND_"/>
    <s:alias val="$reduce_and"/>
    <path d="M0,0 L0,25 L15,25 A15 12.5 0 0 0 15,0 Z" class="cell_\4 fill-1"/>
    <g s:x="0" s:y="5" s:pid="A"/>
    <g s:x="0" s:y="20" s:pid="B"/>
    <g s:x="30" s:y="12.5" s:pid="Y"/>
  </g>
  <g s:type="generic" transform="translate(365,278)" s:width="30" s:height="40" id="cell_ram">
    <text x="15" y="-4" class="nodelabel text-1 cell_ram" s:attribute="ref">$mem_v2</text>
    <rect width="30" height="180" s:generic="body" class="cell_ram fill-1"/>
    <g transform="translate(0,10)" s:x="0" s:y="10" s:pid="in0" id="port_ram~RD_ADDR">
      <text x="-3" y="-4" class="inputPortLabel text-2 cell_ram">RD_ADDR</text>
    </g>
    <g transform="translate(0,30)" s:x="0" s:y="10" s:pid="in0" id="port_ram~RD_ARST">
      <text x="-3" y="-4" class="inputPortLabel text-2 cell_ram">RD_ARST</text>
    </g>
    <g transform="translate(0,50)" s:x="0" s:y="10" s:pid="in0" id="port_ram~RD_CLK">
      <text x="-3" y="-4" class="inputPortLabel text-2 cell_ram">RD_CLK</text>
    </g>
    <g transform="translate(0,70)" s:x="0" s:y="10" s:pid="in0" id="port_ram~RD_EN">
      <text x="-3" y="-4" class="inputPortLabel text-2 cell_ram">RD_EN</text>
    </g>
    <g transform="translate(0,90)" s:x="0" s:y="10" s:pid="in0" id="port_ram~RD_SRST">
      <text x="-3" y="-4" class="inputPortLabel text-2 cell_ram">RD_SRST</text>
    </g>
    <g transform="translate(0,110)" s:x="0" s:y="10" s:pid="in0" id="port_ram~WR_ADDR">
      <text x="-3" y="-4" class="inputPortLabel text-2 cell_ram">WR_ADDR</text>
    </g>
    <g transform="translate(0,130)" s:x="0" s:y="10" s:pid="in0" id="port_ram~WR_CLK">
      <text x="-3" y="-4" class="inputPortLabel text-2 cell_ram">WR_CLK</text>
    </g>
    <g transform="translate(0,150)" s:x="0" s:y="10" s:pid="in0" id="port_ram~WR_DATA">
      <text x="-3" y="-4" class="inputPortLabel text-2 cell_ram">WR_DATA</text>
    </g>
    <g transform="translate(0,170)" s:x="0" s:y="10" s:pid="in0" id="port_ram~WR_EN">
      <text x="-3" y="-4" class="inputPortLabel text-2 cell_ram">WR_EN</text>
    </g>
    <g transform="translate(30,10)" s:x="30" s:y="10" s:pid="out0" id="port_ram~RD_DATA">
      <text x="5" y="-4" class="cell_ram text-2">RD_DATA</text>
    </g>
  </g>
  <g s:type="inputExt" transform="translate(196,291)" s:width="30" s:height="20" id="cell_clock">
    <text x="15" y="-4" class="nodelabel text-1 cell_clock" s:attribute="ref">clock</text>
    <s:alias val="$_inputExt_"/>
    <path d="M0,0 L0,20 L15,20 L30,10 L15,0 Z" class="cell_clock fill-4"/>
    <g s:x="30" s:y="10" s:pid="Y"/>
  </g>
  <g s:type="inputExt" transform="translate(12,22)" s:width="30" s:height="20" id="cell_enable">
    <text x="15" y="-4" class="nodelabel text-1 cell_enable" s:attribute="ref">enable</text>
    <s:alias val="$_inputExt_"/>
    <path d="M0,0 L0,20 L15,20 L30,10 L15,0 Z" class="cell_enable fill-4"/>
    <g s:x="30" s:y="10" s:pid="Y"/>
  </g>
  <g s:type="inputExt" transform="translate(196,53)" s:width="30" s:height="20" id="cell_enable_read">
    <text x="15" y="-4" class="nodelabel text-1 cell_enable_read" s:attribute="ref">enable_read</text>
    <s:alias val="$_inputExt_"/>
    <path d="M0,0 L0,20 L15,20 L30,10 L15,0 Z" class="cell_enable_read fill-4"/>
    <g s:x="30" s:y="10" s:pid="Y"/>
  </g>
  <g s:type="inputExt" transform="translate(12,976)" s:width="30" s:height="20" id="cell_enable_write">
    <text x="15" y="-4" class="nodelabel text-1 cell_enable_write" s:attribute="ref">enable_write</text>
    <s:alias val="$_inputExt_"/>
    <path d="M0,0 L0,20 L15,20 L30,10 L15,0 Z" class="cell_enable_write fill-4"/>
    <g s:x="30" s:y="10" s:pid="Y"/>
  </g>
  <g s:type="inputExt" transform="translate(119,196)" s:width="30" s:height="20" id="cell_address">
    <text x="15" y="-4" class="nodelabel text-1 cell_address" s:attribute="ref">address</text>
    <s:alias val="$_inputExt_"/>
    <path d="M0,0 L0,20 L15,20 L30,10 L15,0 Z" class="cell_address fill-4"/>
    <g s:x="30" s:y="10" s:pid="Y"/>
  </g>
  <g s:type="inputExt" transform="translate(196,356)" s:width="30" s:height="20" id="cell_source">
    <text x="15" y="-4" class="nodelabel text-1 cell_source" s:attribute="ref">source</text>
    <s:alias val="$_inputExt_"/>
    <path d="M0,0 L0,20 L15,20 L30,10 L15,0 Z" class="cell_source fill-4"/>
    <g s:x="30" s:y="10" s:pid="Y"/>
  </g>
  <g s:type="outputExt" transform="translate(534,278.5)" s:width="30" s:height="20" id="cell_destination">
    <text x="15" y="-4" class="nodelabel text-1 cell_destination" s:attribute="ref">destination</text>
    <s:alias val="$_outputExt_"/>
    <path d="M30,0 L30,20 L15,20 L0,10 L15,0 Z" class="cell_destination fill-4"/>
    <g s:x="0" s:y="10" s:pid="A"/>
  </g>
  <g s:type="constant" transform="translate(196,118)" s:width="30" s:height="20" id="cell_0">
    <text x="15" y="-4" class="nodelabel text-1 cell_0" s:attribute="ref">0</text>
    <s:alias val="$_constant_"/>
    <rect width="30" height="20" class="cell_0 fill-4"/>
    <g s:x="31" s:y="10" s:pid="Y"/>
  </g>
  <g s:type="constant" transform="translate(196,226)" s:width="30" s:height="20" id="cell_1">
    <text x="15" y="-4" class="nodelabel text-1 cell_1" s:attribute="ref">1</text>
    <s:alias val="$_constant_"/>
    <rect width="30" height="20" class="cell_1 fill-4"/>
    <g s:x="31" s:y="10" s:pid="Y"/>
  </g>
  <g s:type="join" transform="translate(198.48,428)" s:width="4" s:height="40" id="cell_$join$,135,135,135,135,135,135,135,135,135,135,135,135,135,135,135,135,135,135,135,135,135,135,135,135,135,135,135,135,135,135,135,135,">
    <rect width="5" height="640" class="splitjoinBody" s:generic="body"/>
    <s:alias val="$_join_"/>
    <g s:x="5" s:y="20" s:pid="out"/>
    <g transform="translate(0,10)" s:x="0" s:y="10" s:pid="in0">
      <text x="-3" y="-4" class="inputPortLabel text-2">0</text>
    </g>
    <g transform="translate(0,30)" s:x="0" s:y="10" s:pid="in0">
      <text x="-3" y="-4" class="inputPortLabel text-2">1</text>
    </g>
    <g transform="translate(0,50)" s:x="0" s:y="10" s:pid="in0">
      <text x="-3" y="-4" class="inputPortLabel text-2">2</text>
    </g>
    <g transform="translate(0,70)" s:x="0" s:y="10" s:pid="in0">
      <text x="-3" y="-4" class="inputPortLabel text-2">3</text>
    </g>
    <g transform="translate(0,90)" s:x="0" s:y="10" s:pid="in0">
      <text x="-3" y="-4" class="inputPortLabel text-2">4</text>
    </g>
    <g transform="translate(0,110)" s:x="0" s:y="10" s:pid="in0">
      <text x="-3" y="-4" class="inputPortLabel text-2">5</text>
    </g>
    <g transform="translate(0,130)" s:x="0" s:y="10" s:pid="in0">
      <text x="-3" y="-4" class="inputPortLabel text-2">6</text>
    </g>
    <g transform="translate(0,150)" s:x="0" s:y="10" s:pid="in0">
      <text x="-3" y="-4" class="inputPortLabel text-2">7</text>
    </g>
    <g transform="translate(0,170)" s:x="0" s:y="10" s:pid="in0">
      <text x="-3" y="-4" class="inputPortLabel text-2">8</text>
    </g>
    <g transform="translate(0,190)" s:x="0" s:y="10" s:pid="in0">
      <text x="-3" y="-4" class="inputPortLabel text-2">9</text>
    </g>
    <g transform="translate(0,210)" s:x="0" s:y="10" s:pid="in0">
      <text x="-3" y="-4" class="inputPortLabel text-2">10</text>
    </g>
    <g transform="translate(0,230)" s:x="0" s:y="10" s:pid="in0">
      <text x="-3" y="-4" class="inputPortLabel text-2">11</text>
    </g>
    <g transform="translate(0,250)" s:x="0" s:y="10" s:pid="in0">
      <text x="-3" y="-4" class="inputPortLabel text-2">12</text>
    </g>
    <g transform="translate(0,270)" s:x="0" s:y="10" s:pid="in0">
      <text x="-3" y="-4" class="inputPortLabel text-2">13</text>
    </g>
    <g transform="translate(0,290)" s:x="0" s:y="10" s:pid="in0">
      <text x="-3" y="-4" class="inputPortLabel text-2">14</text>
    </g>
    <g transform="translate(0,310)" s:x="0" s:y="10" s:pid="in0">
      <text x="-3" y="-4" class="inputPortLabel text-2">15</text>
    </g>
    <g transform="translate(0,330)" s:x="0" s:y="10" s:pid="in0">
      <text x="-3" y="-4" class="inputPortLabel text-2">16</text>
    </g>
    <g transform="translate(0,350)" s:x="0" s:y="10" s:pid="in0">
      <text x="-3" y="-4" class="inputPortLabel text-2">17</text>
    </g>
    <g transform="translate(0,370)" s:x="0" s:y="10" s:pid="in0">
      <text x="-3" y="-4" class="inputPortLabel text-2">18</text>
    </g>
    <g transform="translate(0,390)" s:x="0" s:y="10" s:pid="in0">
      <text x="-3" y="-4" class="inputPortLabel text-2">19</text>
    </g>
    <g transform="translate(0,410)" s:x="0" s:y="10" s:pid="in0">
      <text x="-3" y="-4" class="inputPortLabel text-2">20</text>
    </g>
    <g transform="translate(0,430)" s:x="0" s:y="10" s:pid="in0">
      <text x="-3" y="-4" class="inputPortLabel text-2">21</text>
    </g>
    <g transform="translate(0,450)" s:x="0" s:y="10" s:pid="in0">
      <text x="-3" y="-4" class="inputPortLabel text-2">22</text>
    </g>
    <g transform="translate(0,470)" s:x="0" s:y="10" s:pid="in0">
      <text x="-3" y="-4" class="inputPortLabel text-2">23</text>
    </g>
    <g transform="translate(0,490)" s:x="0" s:y="10" s:pid="in0">
      <text x="-3" y="-4" class="inputPortLabel text-2">24</text>
    </g>
    <g transform="translate(0,510)" s:x="0" s:y="10" s:pid="in0">
      <text x="-3" y="-4" class="inputPortLabel text-2">25</text>
    </g>
    <g transform="translate(0,530)" s:x="0" s:y="10" s:pid="in0">
      <text x="-3" y="-4" class="inputPortLabel text-2">26</text>
    </g>
    <g transform="translate(0,550)" s:x="0" s:y="10" s:pid="in0">
      <text x="-3" y="-4" class="inputPortLabel text-2">27</text>
    </g>
    <g transform="translate(0,570)" s:x="0" s:y="10" s:pid="in0">
      <text x="-3" y="-4" class="inputPortLabel text-2">28</text>
    </g>
    <g transform="translate(0,590)" s:x="0" s:y="10" s:pid="in0">
      <text x="-3" y="-4" class="inputPortLabel text-2">29</text>
    </g>
    <g transform="translate(0,610)" s:x="0" s:y="10" s:pid="in0">
      <text x="-3" y="-4" class="inputPortLabel text-2">30</text>
    </g>
    <g transform="translate(0,630)" s:x="0" s:y="10" s:pid="in0">
      <text x="-3" y="-4" class="inputPortLabel text-2">31</text>
    </g>
  </g>
  <g s:type="split" transform="translate(221,173)" s:width="5" s:height="40" id="cell_$split$,6,7,8,9,10,11,12,13,14,15,16,17,18,19,20,21,22,23,24,25,26,27,28,29,30,31,32,33,34,35,36,37,">
    <rect width="5" height="20" class="splitjoinBody" s:generic="body"/>
    <s:alias val="$_split_"/>
    <g s:x="0" s:y="20" s:pid="in"/>
    <g transform="translate(4,10)" s:x="4" s:y="10" s:pid="out0">
      <text x="5" y="-4" class="text-2">2:11</text>
    </g>
  </g>
  <line x1="42" x2="272" y1="32" y2="32" class="net_3"/>
  <line x1="272" x2="272" y1="32" y2="48" class="net_3"/>
  <line x1="272" x2="365.3333333333333" y1="48" y2="48" class="net_3"/>
  <line x1="42" x2="94" y1="32" y2="32" class="net_3"/>
  <line x1="94" x2="94" y1="32" y2="971" class="net_3"/>
  <circle cx="94" cy="32" r="2" style="fill:#000" class="net_3"/>
  <line x1="94" x2="123" y1="971" y2="971" class="net_3"/>
  <line x1="226" x2="365.3333333333333" y1="63" y2="63" class="net_4"/>
  <line x1="396" x2="474" y1="288.5" y2="288.5" class="net_103,104,105,106,107,108,109,110,111,112,113,114,115,116,117,118,119,120,121,122,123,124,125,126,127,128,129,130,131,132,133,134"/>
  <line x1="395.3333333333333" x2="485" y1="55.5" y2="55.5" class="net_102"/>
  <line x1="485" x2="485" y1="55.5" y2="279.5" class="net_102"/>
  <line x1="42" x2="123" y1="986" y2="986" class="net_5"/>
  <line x1="226" x2="302" y1="183.5" y2="183.5" class="net_8,9,10,11,12,13,14,15,16,17"/>
  <line x1="302" x2="302" y1="183.5" y2="288.5" class="net_8,9,10,11,12,13,14,15,16,17"/>
  <circle cx="302" cy="288.5" r="2" style="fill:#000" class="net_8,9,10,11,12,13,14,15,16,17"/>
  <line x1="302" x2="365" y1="288.5" y2="288.5" class="net_8,9,10,11,12,13,14,15,16,17"/>
  <line x1="226" x2="302" y1="183.5" y2="183.5" class="net_8,9,10,11,12,13,14,15,16,17"/>
  <line x1="302" x2="302" y1="183.5" y2="388.5" class="net_8,9,10,11,12,13,14,15,16,17"/>
  <line x1="302" x2="365" y1="388.5" y2="388.5" class="net_8,9,10,11,12,13,14,15,16,17"/>
  <line x1="227" x2="312" y1="128" y2="128" class="net_136"/>
  <line x1="312" x2="312" y1="128" y2="308.5" class="net_136"/>
  <circle cx="312" cy="308.5" r="2" style="fill:#000" class="net_136"/>
  <line x1="312" x2="365" y1="308.5" y2="308.5" class="net_136"/>
  <line x1="227" x2="312" y1="128" y2="128" class="net_136"/>
  <line x1="312" x2="312" y1="128" y2="328.5" class="net_136"/>
  <circle cx="312" cy="328.5" r="2" style="fill:#000" class="net_136"/>
  <line x1="312" x2="365" y1="328.5" y2="328.5" class="net_136"/>
  <line x1="227" x2="312" y1="128" y2="128" class="net_136"/>
  <line x1="312" x2="312" y1="128" y2="368.5" class="net_136"/>
  <line x1="312" x2="365" y1="368.5" y2="368.5" class="net_136"/>
  <line x1="227" x2="292" y1="236" y2="236" class="net_138"/>
  <line x1="292" x2="292" y1="236" y2="348.5" class="net_138"/>
  <line x1="292" x2="365" y1="348.5" y2="348.5" class="net_138"/>
  <line x1="226" x2="282" y1="301" y2="301" class="net_2"/>
  <line x1="282" x2="282" y1="301" y2="408.5" class="net_2"/>
  <line x1="282" x2="365" y1="408.5" y2="408.5" class="net_2"/>
  <line x1="226" x2="272" y1="366" y2="366" class="net_38,39,40,41,42,43,44,45,46,47,48,49,50,51,52,53,54,55,56,57,58,59,60,61,62,63,64,65,66,67,68,69"/>
  <line x1="272" x2="272" y1="366" y2="428.5" class="net_38,39,40,41,42,43,44,45,46,47,48,49,50,51,52,53,54,55,56,57,58,59,60,61,62,63,64,65,66,67,68,69"/>
  <line x1="272" x2="365" y1="428.5" y2="428.5" class="net_38,39,40,41,42,43,44,45,46,47,48,49,50,51,52,53,54,55,56,57,58,59,60,61,62,63,64,65,66,67,68,69"/>
  <line x1="204.48" x2="365" y1="448.5" y2="448.5" class="net_135,135,135,135,135,135,135,135,135,135,135,135,135,135,135,135,135,135,135,135,135,135,135,135,135,135,135,135,135,135,135,135"/>
  <line x1="499" x2="534" y1="288.5" y2="288.5" class="net_70,71,72,73,74,75,76,77,78,79,80,81,82,83,84,85,86,87,88,89,90,91,92,93,94,95,96,97,98,99,100,101"/>
  <line x1="153" x2="171" y1="978.5" y2="978.5" class="net_135"/>
  <line x1="171" x2="171" y1="978.5" y2="416" class="net_135"/>
  <line x1="171" x2="198.98" y1="416" y2="416" class="net_135"/>
  <circle cx="171" cy="978.5" r="2" style="fill:#000" class="net_135"/>
  <circle cx="171" cy="416" r="2" style="fill:#000" class="net_135"/>
  <line x1="198.98" x2="198.98" y1="416" y2="438" class="net_135"/>
  <line x1="153" x2="171" y1="978.5" y2="978.5" class="net_135"/>
  <line x1="171" x2="171" y1="978.5" y2="406" class="net_135"/>
  <line x1="171" x2="198.98" y1="406" y2="406" class="net_135"/>
  <circle cx="171" cy="406" r="2" style="fill:#000" class="net_135"/>
  <line x1="198.98" x2="198.98" y1="406" y2="458" class="net_135"/>
  <line x1="153" x2="171" y1="978.5" y2="978.5" class="net_135"/>
  <line x1="171" x2="171" y1="978.5" y2="396" class="net_135"/>
  <line x1="171" x2="198.98" y1="396" y2="396" class="net_135"/>
  <circle cx="171" cy="396" r="2" style="fill:#000" class="net_135"/>
  <line x1="198.98" x2="198.98" y1="396" y2="478" class="net_135"/>
  <line x1="153" x2="171" y1="978.5" y2="978.5" class="net_135"/>
  <line x1="171" x2="171" y1="978.5" y2="386" class="net_135"/>
  <line x1="171" x2="198.98" y1="386" y2="386" class="net_135"/>
  <line x1="198.98" x2="198.98" y1="386" y2="498" class="net_135"/>
  <line x1="153" x2="171" y1="978.5" y2="978.5" class="net_135"/>
  <line x1="171" x2="171" y1="978.5" y2="518.5" class="net_135"/>
  <circle cx="171" cy="518.5" r="2" style="fill:#000" class="net_135"/>
  <line x1="171" x2="198.48" y1="518.5" y2="518.5" class="net_135"/>
  <line x1="153" x2="171" y1="978.5" y2="978.5" class="net_135"/>
  <line x1="171" x2="171" y1="978.5" y2="538.5" class="net_135"/>
  <circle cx="171" cy="538.5" r="2" style="fill:#000" class="net_135"/>
  <line x1="171" x2="198.48" y1="538.5" y2="538.5" class="net_135"/>
  <line x1="153" x2="171" y1="978.5" y2="978.5" class="net_135"/>
  <line x1="171" x2="171" y1="978.5" y2="558.5" class="net_135"/>
  <circle cx="171" cy="558.5" r="2" style="fill:#000" class="net_135"/>
  <line x1="171" x2="198.48" y1="558.5" y2="558.5" class="net_135"/>
  <line x1="153" x2="171" y1="978.5" y2="978.5" class="net_135"/>
  <line x1="171" x2="171" y1="978.5" y2="578.5" class="net_135"/>
  <circle cx="171" cy="578.5" r="2" style="fill:#000" class="net_135"/>
  <line x1="171" x2="198.48" y1="578.5" y2="578.5" class="net_135"/>
  <line x1="153" x2="171" y1="978.5" y2="978.5" class="net_135"/>
  <line x1="171" x2="171" y1="978.5" y2="598.5" class="net_135"/>
  <circle cx="171" cy="598.5" r="2" style="fill:#000" class="net_135"/>
  <line x1="171" x2="198.48" y1="598.5" y2="598.5" class="net_135"/>
  <line x1="153" x2="171" y1="978.5" y2="978.5" class="net_135"/>
  <line x1="171" x2="171" y1="978.5" y2="618.5" class="net_135"/>
  <circle cx="171" cy="618.5" r="2" style="fill:#000" class="net_135"/>
  <line x1="171" x2="198.48" y1="618.5" y2="618.5" class="net_135"/>
  <line x1="153" x2="171" y1="978.5" y2="978.5" class="net_135"/>
  <line x1="171" x2="171" y1="978.5" y2="638.5" class="net_135"/>
  <circle cx="171" cy="638.5" r="2" style="fill:#000" class="net_135"/>
  <line x1="171" x2="198.48" y1="638.5" y2="638.5" class="net_135"/>
  <line x1="153" x2="171" y1="978.5" y2="978.5" class="net_135"/>
  <line x1="171" x2="171" y1="978.5" y2="658.5" class="net_135"/>
  <circle cx="171" cy="658.5" r="2" style="fill:#000" class="net_135"/>
  <line x1="171" x2="198.48" y1="658.5" y2="658.5" class="net_135"/>
  <line x1="153" x2="171" y1="978.5" y2="978.5" class="net_135"/>
  <line x1="171" x2="171" y1="978.5" y2="678.5" class="net_135"/>
  <circle cx="171" cy="678.5" r="2" style="fill:#000" class="net_135"/>
  <line x1="171" x2="198.48" y1="678.5" y2="678.5" class="net_135"/>
  <line x1="153" x2="171" y1="978.5" y2="978.5" class="net_135"/>
  <line x1="171" x2="171" y1="978.5" y2="698.5" class="net_135"/>
  <circle cx="171" cy="698.5" r="2" style="fill:#000" class="net_135"/>
  <line x1="171" x2="198.48" y1="698.5" y2="698.5" class="net_135"/>
  <line x1="153" x2="171" y1="978.5" y2="978.5" class="net_135"/>
  <line x1="171" x2="171" y1="978.5" y2="718.5" class="net_135"/>
  <circle cx="171" cy="718.5" r="2" style="fill:#000" class="net_135"/>
  <line x1="171" x2="198.48" y1="718.5" y2="718.5" class="net_135"/>
  <line x1="153" x2="171" y1="978.5" y2="978.5" class="net_135"/>
  <line x1="171" x2="171" y1="978.5" y2="738.5" class="net_135"/>
  <circle cx="171" cy="738.5" r="2" style="fill:#000" class="net_135"/>
  <line x1="171" x2="198.48" y1="738.5" y2="738.5" class="net_135"/>
  <line x1="153" x2="171" y1="978.5" y2="978.5" class="net_135"/>
  <line x1="171" x2="171" y1="978.5" y2="758.5" class="net_135"/>
  <circle cx="171" cy="758.5" r="2" style="fill:#000" class="net_135"/>
  <line x1="171" x2="198.48" y1="758.5" y2="758.5" class="net_135"/>
  <line x1="153" x2="171" y1="978.5" y2="978.5" class="net_135"/>
  <line x1="171" x2="171" y1="978.5" y2="778.5" class="net_135"/>
  <circle cx="171" cy="778.5" r="2" style="fill:#000" class="net_135"/>
  <line x1="171" x2="198.48" y1="778.5" y2="778.5" class="net_135"/>
  <line x1="153" x2="171" y1="978.5" y2="978.5" class="net_135"/>
  <line x1="171" x2="171" y1="978.5" y2="798.5" class="net_135"/>
  <circle cx="171" cy="798.5" r="2" style="fill:#000" class="net_135"/>
  <line x1="171" x2="198.48" y1="798.5" y2="798.5" class="net_135"/>
  <line x1="153" x2="171" y1="978.5" y2="978.5" class="net_135"/>
  <line x1="171" x2="171" y1="978.5" y2="818.5" class="net_135"/>
  <circle cx="171" cy="818.5" r="2" style="fill:#000" class="net_135"/>
  <line x1="171" x2="198.48" y1="818.5" y2="818.5" class="net_135"/>
  <line x1="153" x2="171" y1="978.5" y2="978.5" class="net_135"/>
  <line x1="171" x2="171" y1="978.5" y2="838.5" class="net_135"/>
  <circle cx="171" cy="838.5" r="2" style="fill:#000" class="net_135"/>
  <line x1="171" x2="198.48" y1="838.5" y2="838.5" class="net_135"/>
  <line x1="153" x2="171" y1="978.5" y2="978.5" class="net_135"/>
  <line x1="171" x2="171" y1="978.5" y2="858.5" class="net_135"/>
  <circle cx="171" cy="858.5" r="2" style="fill:#000" class="net_135"/>
  <line x1="171" x2="198.48" y1="858.5" y2="858.5" class="net_135"/>
  <line x1="153" x2="171" y1="978.5" y2="978.5" class="net_135"/>
  <line x1="171" x2="171" y1="978.5" y2="878.5" class="net_135"/>
  <circle cx="171" cy="878.5" r="2" style="fill:#000" class="net_135"/>
  <line x1="171" x2="198.48" y1="878.5" y2="878.5" class="net_135"/>
  <line x1="153" x2="171" y1="978.5" y2="978.5" class="net_135"/>
  <line x1="171" x2="171" y1="978.5" y2="898.5" class="net_135"/>
  <circle cx="171" cy="898.5" r="2" style="fill:#000" class="net_135"/>
  <line x1="171" x2="198.48" y1="898.5" y2="898.5" class="net_135"/>
  <line x1="153" x2="171" y1="978.5" y2="978.5" class="net_135"/>
  <line x1="171" x2="171" y1="978.5" y2="918.5" class="net_135"/>
  <circle cx="171" cy="918.5" r="2" style="fill:#000" class="net_135"/>
  <line x1="171" x2="198.48" y1="918.5" y2="918.5" class="net_135"/>
  <line x1="153" x2="171" y1="978.5" y2="978.5" class="net_135"/>
  <line x1="171" x2="171" y1="978.5" y2="938.5" class="net_135"/>
  <circle cx="171" cy="938.5" r="2" style="fill:#000" class="net_135"/>
  <line x1="171" x2="198.48" y1="938.5" y2="938.5" class="net_135"/>
  <line x1="153" x2="171" y1="978.5" y2="978.5" class="net_135"/>
  <line x1="171" x2="171" y1="978.5" y2="958.5" class="net_135"/>
  <circle cx="171" cy="958.5" r="2" style="fill:#000" class="net_135"/>
  <line x1="171" x2="198.48" y1="958.5" y2="958.5" class="net_135"/>
  <line x1="153" x2="198.48" y1="978.5" y2="978.5" class="net_135"/>
  <line x1="153" x2="171" y1="978.5" y2="978.5" class="net_135"/>
  <line x1="171" x2="171" y1="978.5" y2="1108" class="net_135"/>
  <line x1="171" x2="198.98" y1="1108" y2="1108" class="net_135"/>
  <line x1="198.98" x2="198.98" y1="1108" y2="999" class="net_135"/>
  <line x1="153" x2="171" y1="978.5" y2="978.5" class="net_135"/>
  <line x1="171" x2="171" y1="978.5" y2="1098" class="net_135"/>
  <line x1="171" x2="198.98" y1="1098" y2="1098" class="net_135"/>
  <circle cx="171" cy="1098" r="2" style="fill:#000" class="net_135"/>
  <line x1="198.98" x2="198.98" y1="1098" y2="1019" class="net_135"/>
  <line x1="153" x2="171" y1="978.5" y2="978.5" class="net_135"/>
  <line x1="171" x2="171" y1="978.5" y2="1088" class="net_135"/>
  <line x1="171" x2="198.98" y1="1088" y2="1088" class="net_135"/>
  <circle cx="171" cy="1088" r="2" style="fill:#000" class="net_135"/>
  <line x1="198.98" x2="198.98" y1="1088" y2="1039" class="net_135"/>
  <line x1="153" x2="171" y1="978.5" y2="978.5" class="net_135"/>
  <line x1="171" x2="171" y1="978.5" y2="1078" class="net_135"/>
  <line x1="171" x2="198.98" y1="1078" y2="1078" class="net_135"/>
  <circle cx="171" cy="1078" r="2" style="fill:#000" class="net_135"/>
  <line x1="198.98" x2="198.98" y1="1078" y2="1059" class="net_135"/>
  <line x1="149" x2="221.5" y1="206" y2="206" class="net_6,7,8,9,10,11,12,13,14,15,16,17,18,19,20,21,22,23,24,25,26,27,28,29,30,31,32,33,34,35,36,37"/>
  <line x1="221.5" x2="221.5" y1="206" y2="194" class="net_6,7,8,9,10,11,12,13,14,15,16,17,18,19,20,21,22,23,24,25,26,27,28,29,30,31,32,33,34,35,36,37"/>
</svg>
