<svg xmlns="http://www.w3.org/2000/svg" xmlns:xlink="http://www.w3.org/1999/xlink" xmlns:s="https://github.com/nturley/netlistsvg" width="639" height="248.5">
  <style>  svg {
      stroke: #011e41;
      fill: none;
    }
    text {
      fill:#ffffff;
      stroke:none;
      font-size:10px;
      font-weight: bold;
      font-family: "Courier New", monospace;
    }
    .fill-1 { fill: #003262; }
    .fill-2 { fill: #011e41; stroke: #003262; }
    .fill-3 { fill: #ffffff; }
    .fill-4 { fill: #003262; }
    .fill-5 { fill: #011e41; stroke: #fdda64; }
    .text-1 { fill: #fdb515; }
    .text-2 { fill: #003262; }
    .text-3 { stroke: #fdda64; }
    .nodelabel { text-anchor: middle; }
    .inputPortLabel { text-anchor: end; }
    .splitjoinBody { fill: #3c3c43; }</style>
  <g s:type="and" transform="translate(163.33333333333334,143.5)" s:width="30" s:height="25" id="cell_\1">
    <s:alias val="$and"/>
    <s:alias val="$logic_and"/>
    <s:alias val="$_AND_"/>
    <s:alias val="$reduce_and"/>
    <path d="M0,0 L0,25 L15,25 A15 12.5 0 0 0 15,0 Z" class="cell_\1 fill-1"/>
    <g s:x="0" s:y="5" s:pid="A"/>
    <g s:x="0" s:y="20" s:pid="B"/>
    <g s:x="30" s:y="12.5" s:pid="Y"/>
  </g>
  <g s:type="reduce_xor" transform="translate(95,55)" s:width="33" s:height="25" id="cell_\2">
    <s:alias val="$xor"/>
    <s:alias val="$reduce_xor"/>
    <s:alias val="$_XOR_"/>
    <path d="M3,0 A30 25 0 0 1 3,25 A30 25 0 0 0 33,12.5 A30 25 0 0 0 3,0" class="cell_\2 fill-1"/>
    <path d="M0,0 A30 25 0 0 1 0,25" class="cell_\2"/>
    <g s:x="2" s:y="5" s:pid="A"/>
    <g s:x="2" s:y="20" s:pid="B"/>
    <g s:x="33" s:y="12.5" s:pid="Y"/>
  </g>
  <g s:type="reduce_xor" transform="translate(493,144)" s:width="33" s:height="25" id="cell_\5">
    <s:alias val="$xor"/>
    <s:alias val="$reduce_xor"/>
    <s:alias val="$_XOR_"/>
    <path d="M3,0 A30 25 0 0 1 3,25 A30 25 0 0 0 33,12.5 A30 25 0 0 0 3,0" class="cell_\5 fill-1"/>
    <path d="M0,0 A30 25 0 0 1 0,25" class="cell_\5"/>
    <g s:x="2" s:y="5" s:pid="A"/>
    <g s:x="2" s:y="20" s:pid="B"/>
    <g s:x="33" s:y="12.5" s:pid="Y"/>
  </g>
  <g s:type="generic" transform="translate(320,163.5)" s:width="30" s:height="40" id="cell_carry_lookahead">
    <text x="15" y="-4" class="nodelabel text-1 cell_carry_lookahead" s:attribute="ref">generic_carry_lookahead_7</text>
    <rect width="30" height="60" s:generic="body" class="cell_carry_lookahead fill-1"/>
    <g transform="translate(0,10)" s:x="0" s:y="10" s:pid="in0" id="port_carry_lookahead~carry_generate">
      <text x="-3" y="-4" class="inputPortLabel text-2 cell_carry_lookahead">carry_generate</text>
    </g>
    <g transform="translate(0,30)" s:x="0" s:y="10" s:pid="in0" id="port_carry_lookahead~carry_in">
      <text x="-3" y="-4" class="inputPortLabel text-2 cell_carry_lookahead">carry_in</text>
    </g>
    <g transform="translate(0,50)" s:x="0" s:y="10" s:pid="in0" id="port_carry_lookahead~carry_propagate">
      <text x="-3" y="-4" class="inputPortLabel text-2 cell_carry_lookahead">carry_propagate</text>
    </g>
    <g transform="translate(30,10)" s:x="30" s:y="10" s:pid="out0" id="port_carry_lookahead~carry_out">
      <text x="5" y="-4" class="cell_carry_lookahead text-2">carry_out</text>
    </g>
  </g>
  <g s:type="inputExt" transform="translate(12,50)" s:width="30" s:height="20" id="cell_source_1">
    <text x="15" y="-4" class="nodelabel text-1 cell_source_1" s:attribute="ref">source_1</text>
    <s:alias val="$_inputExt_"/>
    <path d="M0,0 L0,20 L15,20 L30,10 L15,0 Z" class="cell_source_1 fill-4"/>
    <g s:x="30" s:y="10" s:pid="Y"/>
  </g>
  <g s:type="inputExt" transform="translate(12,201)" s:width="30" s:height="20" id="cell_source_2">
    <text x="15" y="-4" class="nodelabel text-1 cell_source_2" s:attribute="ref">source_2</text>
    <s:alias val="$_inputExt_"/>
    <path d="M0,0 L0,20 L15,20 L30,10 L15,0 Z" class="cell_source_2 fill-4"/>
    <g s:x="30" s:y="10" s:pid="Y"/>
  </g>
  <g s:type="outputExt" transform="translate(561,146.5)" s:width="30" s:height="20" id="cell_destination">
    <text x="15" y="-4" class="nodelabel text-1 cell_destination" s:attribute="ref">destination</text>
    <s:alias val="$_outputExt_"/>
    <path d="M30,0 L30,20 L15,20 L0,10 L15,0 Z" class="cell_destination fill-4"/>
    <g s:x="0" s:y="10" s:pid="A"/>
  </g>
  <g s:type="constant" transform="translate(163,88.5)" s:width="30" s:height="20" id="cell_0">
    <text x="15" y="-4" class="nodelabel text-1 cell_0" s:attribute="ref">0</text>
    <s:alias val="$_constant_"/>
    <rect width="30" height="20" class="cell_0 fill-4"/>
    <g s:x="31" s:y="10" s:pid="Y"/>
  </g>
  <g s:type="join" transform="translate(452,143.5)" s:width="4" s:height="40" id="cell_$join$,48,41,42,43,44,45,46,47,">
    <rect width="5" height="40" class="splitjoinBody" s:generic="body"/>
    <s:alias val="$_join_"/>
    <g s:x="5" s:y="20" s:pid="out"/>
    <g transform="translate(0,10)" s:x="0" s:y="10" s:pid="in0">
      <text x="-3" y="-4" class="inputPortLabel text-2">0</text>
    </g>
    <g transform="translate(0,30)" s:x="0" s:y="10" s:pid="in0">
      <text x="-3" y="-4" class="inputPortLabel text-2">1:7</text>
    </g>
  </g>
  <g s:type="split" transform="translate(104,12)" s:width="5" s:height="40" id="cell_$split$,2,3,4,5,6,7,8,9,">
    <rect width="5" height="20" class="splitjoinBody" s:generic="body"/>
    <s:alias val="$_split_"/>
    <g s:x="0" s:y="20" s:pid="in"/>
    <g transform="translate(4,10)" s:x="4" s:y="10" s:pid="out0">
      <text x="5" y="-4" class="text-2">0:6</text>
    </g>
  </g>
  <g s:type="split" transform="translate(104,153)" s:width="5" s:height="40" id="cell_$split$,10,11,12,13,14,15,16,17,">
    <rect width="5" height="20" class="splitjoinBody" s:generic="body"/>
    <s:alias val="$_split_"/>
    <g s:x="0" s:y="20" s:pid="in"/>
    <g transform="translate(4,10)" s:x="4" s:y="10" s:pid="out0">
      <text x="5" y="-4" class="text-2">0:6</text>
    </g>
  </g>
  <g s:type="split" transform="translate(170,203.5)" s:width="5" s:height="40" id="cell_$split$,33,34,35,36,37,38,39,40,">
    <rect width="5" height="20" class="splitjoinBody" s:generic="body"/>
    <s:alias val="$_split_"/>
    <g s:x="0" s:y="20" s:pid="in"/>
    <g transform="translate(4,10)" s:x="4" s:y="10" s:pid="out0">
      <text x="5" y="-4" class="text-2">0:6</text>
    </g>
  </g>
  <line x1="109" x2="148" y1="22.5" y2="22.5" class="net_2,3,4,5,6,7,8"/>
  <line x1="148" x2="148" y1="22.5" y2="148.5" class="net_2,3,4,5,6,7,8"/>
  <line x1="148" x2="163.33333333333334" y1="148.5" y2="148.5" class="net_2,3,4,5,6,7,8"/>
  <line x1="109" x2="163.33333333333334" y1="163.5" y2="163.5" class="net_10,11,12,13,14,15,16"/>
  <line x1="42" x2="97" y1="60" y2="60" class="net_2,3,4,5,6,7,8,9"/>
  <line x1="42" x2="70" y1="60" y2="60" class="net_2,3,4,5,6,7,8,9"/>
  <line x1="70" x2="70" y1="60" y2="45" class="net_2,3,4,5,6,7,8,9"/>
  <line x1="70" x2="104.5" y1="45" y2="45" class="net_2,3,4,5,6,7,8,9"/>
  <circle cx="70" cy="60" r="2" style="fill:#000" class="net_2,3,4,5,6,7,8,9"/>
  <line x1="104.5" x2="104.5" y1="45" y2="33" class="net_2,3,4,5,6,7,8,9"/>
  <line x1="42" x2="70" y1="211" y2="211" class="net_10,11,12,13,14,15,16,17"/>
  <line x1="70" x2="70" y1="211" y2="75" class="net_10,11,12,13,14,15,16,17"/>
  <circle cx="70" cy="211" r="2" style="fill:#000" class="net_10,11,12,13,14,15,16,17"/>
  <line x1="70" x2="97" y1="75" y2="75" class="net_10,11,12,13,14,15,16,17"/>
  <line x1="42" x2="104.5" y1="211" y2="211" class="net_10,11,12,13,14,15,16,17"/>
  <line x1="104.5" x2="104.5" y1="211" y2="174" class="net_10,11,12,13,14,15,16,17"/>
  <line x1="128" x2="468" y1="67.5" y2="67.5" class="net_33,34,35,36,37,38,39,40"/>
  <line x1="468" x2="468" y1="67.5" y2="149" class="net_33,34,35,36,37,38,39,40"/>
  <line x1="468" x2="495" y1="149" y2="149" class="net_33,34,35,36,37,38,39,40"/>
  <line x1="128" x2="138" y1="67.5" y2="67.5" class="net_33,34,35,36,37,38,39,40"/>
  <line x1="138" x2="138" y1="67.5" y2="236.5" class="net_33,34,35,36,37,38,39,40"/>
  <line x1="138" x2="170.5" y1="236.5" y2="236.5" class="net_33,34,35,36,37,38,39,40"/>
  <circle cx="138" cy="67.5" r="2" style="fill:#000" class="net_33,34,35,36,37,38,39,40"/>
  <line x1="170.5" x2="170.5" y1="236.5" y2="224.5" class="net_33,34,35,36,37,38,39,40"/>
  <line x1="458" x2="495" y1="164" y2="164" class="net_48,41,42,43,44,45,46,47"/>
  <line x1="193.33333333333334" x2="204" y1="156" y2="156" class="net_26,27,28,29,30,31,32"/>
  <line x1="204" x2="204" y1="156" y2="174" class="net_26,27,28,29,30,31,32"/>
  <line x1="204" x2="320" y1="174" y2="174" class="net_26,27,28,29,30,31,32"/>
  <line x1="194" x2="214" y1="98.5" y2="98.5" class="net_48"/>
  <line x1="214" x2="214" y1="98.5" y2="194" class="net_48"/>
  <circle cx="214" cy="98.5" r="2" style="fill:#000" class="net_48"/>
  <line x1="214" x2="320" y1="194" y2="194" class="net_48"/>
  <line x1="194" x2="420" y1="98.5" y2="98.5" class="net_48"/>
  <line x1="420" x2="420" y1="98.5" y2="154" class="net_48"/>
  <line x1="420" x2="452" y1="154" y2="154" class="net_48"/>
  <line x1="175" x2="320" y1="214" y2="214" class="net_33,34,35,36,37,38,39"/>
  <line x1="526" x2="561" y1="156.5" y2="156.5" class="net_18,19,20,21,22,23,24,25"/>
  <line x1="351" x2="452" y1="174" y2="174" class="net_41,42,43,44,45,46,47"/>
</svg>
