<svg xmlns="http://www.w3.org/2000/svg" xmlns:xlink="http://www.w3.org/1999/xlink" xmlns:s="https://github.com/nturley/netlistsvg" width="324" height="129">
  <style>  svg {
      stroke: #011e41;
      fill: none;
    }
    text {
      fill:#ffffff;
      stroke:none;
      font-size:10px;
      font-weight: bold;
      font-family: "Courier New", monospace;
    }
    .fill-1 { fill: #003262; }
    .fill-2 { fill: #011e41; stroke: #003262; }
    .fill-3 { fill: #ffffff; }
    .fill-4 { fill: #003262; }
    .fill-5 { fill: #011e41; stroke: #fdda64; }
    .text-1 { fill: #fdb515; }
    .text-2 { fill: #003262; }
    .text-3 { stroke: #fdda64; }
    .nodelabel { text-anchor: middle; }
    .inputPortLabel { text-anchor: end; }
    .splitjoinBody { fill: #3c3c43; }</style>
  <g s:type="dff" transform="translate(84,22)" s:width="30" s:height="40" id="cell_\10">
    <s:alias val="$dff"/>
    <s:alias val="$_DFF_"/>
    <s:alias val="$_DFF_P_"/>
    <s:alias val="$adff"/>
    <s:alias val="$_DFF_"/>
    <s:alias val="$_DFF_P_"/>
    <s:alias val="$sdff"/>
    <s:alias val="$_DFF_"/>
    <s:alias val="$_DFF_P_"/>
    <rect width="30" height="40" x="0" y="0" class="cell_\10 fill-1"/>
    <path d="M0,35 L5,30 L0,25" class="cell_\10 fill-5"/>
    <g s:x="31" s:y="10" s:pid="Q"/>
    <g s:x="-1" s:y="30" s:pid="CLK"/>
    <g s:x="-1" s:y="30" s:pid="C"/>
    <g s:x="-1" s:y="10" s:pid="D"/>
    <g s:x="15" s:y="40" s:pid="ARST"/>
    <g s:x="15" s:y="40" s:pid="SRST"/>
  </g>
  <g s:type="dff" transform="translate(151,77)" s:width="30" s:height="40" id="cell_\11">
    <s:alias val="$dff"/>
    <s:alias val="$_DFF_"/>
    <s:alias val="$_DFF_P_"/>
    <s:alias val="$adff"/>
    <s:alias val="$_DFF_"/>
    <s:alias val="$_DFF_P_"/>
    <s:alias val="$sdff"/>
    <s:alias val="$_DFF_"/>
    <s:alias val="$_DFF_P_"/>
    <rect width="30" height="40" x="0" y="0" class="cell_\11 fill-1"/>
    <path d="M0,35 L5,30 L0,25" class="cell_\11 fill-5"/>
    <g s:x="31" s:y="10" s:pid="Q"/>
    <g s:x="-1" s:y="30" s:pid="CLK"/>
    <g s:x="-1" s:y="30" s:pid="C"/>
    <g s:x="-1" s:y="10" s:pid="D"/>
    <g s:x="15" s:y="40" s:pid="ARST"/>
    <g s:x="15" s:y="40" s:pid="SRST"/>
  </g>
  <g s:type="not" transform="translate(151,22)" s:width="30" s:height="20" id="cell_\8">
    <s:alias val="$_NOT_"/>
    <s:alias val="$not"/>
    <s:alias val="$logic_not"/>
    <path d="M0,0 L0,20 L20,10 Z" class="cell_\8 fill-1"/>
    <circle cx="24" cy="10" r="3" class="cell_\8 fill-3"/>
    <g s:x="-1" s:y="10" s:pid="A"/>
    <g s:x="27" s:y="10" s:pid="Y"/>
  </g>
  <g s:type="and" transform="translate(217,27)" s:width="30" s:height="25" id="cell_\9">
    <s:alias val="$and"/>
    <s:alias val="$logic_and"/>
    <s:alias val="$_AND_"/>
    <s:alias val="$reduce_and"/>
    <path d="M0,0 L0,25 L15,25 A15 12.5 0 0 0 15,0 Z" class="cell_\9 fill-1"/>
    <g s:x="0" s:y="5" s:pid="A"/>
    <g s:x="0" s:y="20" s:pid="B"/>
    <g s:x="30" s:y="12.5" s:pid="Y"/>
  </g>
  <g s:type="inputExt" transform="translate(12,97)" s:width="30" s:height="20" id="cell_clock">
    <text x="15" y="-4" class="nodelabel text-1 cell_clock" s:attribute="ref">clock</text>
    <s:alias val="$_inputExt_"/>
    <path d="M0,0 L0,20 L15,20 L30,10 L15,0 Z" class="cell_clock fill-4"/>
    <g s:x="30" s:y="10" s:pid="Y"/>
  </g>
  <g s:type="inputExt" transform="translate(12,22)" s:width="30" s:height="20" id="cell_source">
    <text x="15" y="-4" class="nodelabel text-1 cell_source" s:attribute="ref">source</text>
    <s:alias val="$_inputExt_"/>
    <path d="M0,0 L0,20 L15,20 L30,10 L15,0 Z" class="cell_source fill-4"/>
    <g s:x="30" s:y="10" s:pid="Y"/>
  </g>
  <g s:type="outputExt" transform="translate(282,29.5)" s:width="30" s:height="20" id="cell_pulse">
    <text x="15" y="-4" class="nodelabel text-1 cell_pulse" s:attribute="ref">pulse</text>
    <s:alias val="$_outputExt_"/>
    <path d="M30,0 L30,20 L15,20 L0,10 L15,0 Z" class="cell_pulse fill-4"/>
    <g s:x="0" s:y="10" s:pid="A"/>
  </g>
  <line x1="42" x2="58" y1="107" y2="107" class="net_2"/>
  <line x1="58" x2="58" y1="107" y2="52" class="net_2"/>
  <circle cx="58" cy="107" r="2" style="fill:#000" class="net_2"/>
  <line x1="58" x2="83" y1="52" y2="52" class="net_2"/>
  <line x1="42" x2="150" y1="107" y2="107" class="net_2"/>
  <line x1="42" x2="83" y1="32" y2="32" class="net_3"/>
  <line x1="115" x2="125" y1="32" y2="32" class="net_5"/>
  <line x1="125" x2="125" y1="32" y2="87" class="net_5"/>
  <circle cx="125" cy="32" r="2" style="fill:#000" class="net_5"/>
  <line x1="125" x2="150" y1="87" y2="87" class="net_5"/>
  <line x1="115" x2="150" y1="32" y2="32" class="net_5"/>
  <line x1="178" x2="217" y1="32" y2="32" class="net_7"/>
  <line x1="182" x2="192" y1="87" y2="87" class="net_6"/>
  <line x1="192" x2="192" y1="87" y2="47" class="net_6"/>
  <line x1="192" x2="217" y1="47" y2="47" class="net_6"/>
  <line x1="247" x2="282" y1="39.5" y2="39.5" class="net_4"/>
</svg>
