<svg xmlns="http://www.w3.org/2000/svg" xmlns:xlink="http://www.w3.org/1999/xlink" xmlns:s="https://github.com/nturley/netlistsvg" width="320" height="129">
  <style>svg {
    stroke:#000;
    fill:none;
  }
  text {
    fill:#000;
    stroke:none;
    font-size:10px;
    font-weight: bold;
    font-family: "Courier New", monospace;
  }
  .nodelabel {
    text-anchor: middle;
  }
  .inputPortLabel {
    text-anchor: end;
  }
  .splitjoinBody {
    fill:#000;
  }</style>
  <g s:type="dff" transform="translate(83,22)" s:width="30" s:height="40" id="cell_\10">
    <s:alias val="$dff"/>
    <s:alias val="$_DFF_"/>
    <s:alias val="$_DFF_P_"/>
    <rect width="30" height="40" x="0" y="0" class="cell_\10"/>
    <path d="M0,35 L5,30 L0,25" class="cell_\10"/>
    <g s:x="30" s:y="10" s:pid="Q"/>
    <g s:x="0" s:y="30" s:pid="CLK"/>
    <g s:x="0" s:y="30" s:pid="C"/>
    <g s:x="0" s:y="10" s:pid="D"/>
  </g>
  <g s:type="dff" transform="translate(148,77)" s:width="30" s:height="40" id="cell_\11">
    <s:alias val="$dff"/>
    <s:alias val="$_DFF_"/>
    <s:alias val="$_DFF_P_"/>
    <rect width="30" height="40" x="0" y="0" class="cell_\11"/>
    <path d="M0,35 L5,30 L0,25" class="cell_\11"/>
    <g s:x="30" s:y="10" s:pid="Q"/>
    <g s:x="0" s:y="30" s:pid="CLK"/>
    <g s:x="0" s:y="30" s:pid="C"/>
    <g s:x="0" s:y="10" s:pid="D"/>
  </g>
  <g s:type="not" transform="translate(148,22)" s:width="30" s:height="20" id="cell_\8">
    <s:alias val="$_NOT_"/>
    <s:alias val="$not"/>
    <s:alias val="$logic_not"/>
    <path d="M0,0 L0,20 L20,10 Z" class="cell_\8"/>
    <circle cx="23" cy="10" r="3" class="cell_\8"/>
    <g s:x="0" s:y="10" s:pid="A"/>
    <g s:x="25" s:y="10" s:pid="Y"/>
  </g>
  <g s:type="and" transform="translate(213,27)" s:width="30" s:height="25" id="cell_\9">
    <s:alias val="$and"/>
    <s:alias val="$logic_and"/>
    <s:alias val="$_AND_"/>
    <path d="M0,0 L0,25 L15,25 A15 12.5 0 0 0 15,0 Z" class="cell_\9"/>
    <g s:x="0" s:y="5" s:pid="A"/>
    <g s:x="0" s:y="20" s:pid="B"/>
    <g s:x="30" s:y="12.5" s:pid="Y"/>
  </g>
  <g s:type="inputExt" transform="translate(12,97)" s:width="30" s:height="20" id="cell_clock">
    <text x="15" y="-4" class="nodelabel cell_clock" s:attribute="ref">clock</text>
    <s:alias val="$_inputExt_"/>
    <path d="M0,0 L0,20 L15,20 L30,10 L15,0 Z" class="cell_clock"/>
    <g s:x="28" s:y="10" s:pid="Y"/>
  </g>
  <g s:type="inputExt" transform="translate(12,22)" s:width="30" s:height="20" id="cell_source">
    <text x="15" y="-4" class="nodelabel cell_source" s:attribute="ref">source</text>
    <s:alias val="$_inputExt_"/>
    <path d="M0,0 L0,20 L15,20 L30,10 L15,0 Z" class="cell_source"/>
    <g s:x="28" s:y="10" s:pid="Y"/>
  </g>
  <g s:type="outputExt" transform="translate(278,29.5)" s:width="30" s:height="20" id="cell_pulse">
    <text x="15" y="-4" class="nodelabel cell_pulse" s:attribute="ref">pulse</text>
    <s:alias val="$_outputExt_"/>
    <path d="M30,0 L30,20 L15,20 L0,10 L15,0 Z" class="cell_pulse"/>
    <g s:x="0" s:y="10" s:pid="A"/>
  </g>
  <line x1="40" x2="58" y1="107" y2="107" class="net_2"/>
  <line x1="58" x2="58" y1="107" y2="52" class="net_2"/>
  <circle cx="58" cy="107" r="2" style="fill:#000" class="net_2"/>
  <line x1="58" x2="83" y1="52" y2="52" class="net_2"/>
  <line x1="40" x2="148" y1="107" y2="107" class="net_2"/>
  <line x1="40" x2="83" y1="32" y2="32" class="net_3"/>
  <line x1="113" x2="123" y1="32" y2="32" class="net_5"/>
  <line x1="123" x2="123" y1="32" y2="87" class="net_5"/>
  <circle cx="123" cy="32" r="2" style="fill:#000" class="net_5"/>
  <line x1="123" x2="148" y1="87" y2="87" class="net_5"/>
  <line x1="113" x2="148" y1="32" y2="32" class="net_5"/>
  <line x1="173" x2="213" y1="32" y2="32" class="net_7"/>
  <line x1="178" x2="188" y1="87" y2="87" class="net_6"/>
  <line x1="188" x2="188" y1="87" y2="47" class="net_6"/>
  <line x1="188" x2="213" y1="47" y2="47" class="net_6"/>
  <line x1="243" x2="278" y1="39.5" y2="39.5" class="net_4"/>
</svg>
