<svg xmlns="http://www.w3.org/2000/svg" xmlns:xlink="http://www.w3.org/1999/xlink" xmlns:s="https://github.com/nturley/netlistsvg" width="477" height="359">
  <style>  svg {
      stroke: #011e41;
      fill: none;
    }
    text {
      fill:#ffffff;
      stroke:none;
      font-size:10px;
      font-weight: bold;
      font-family: "Courier New", monospace;
    }
    .fill-1 { fill: #003262; }
    .fill-2 { fill: #011e41; stroke: #003262; }
    .fill-3 { fill: #ffffff; }
    .fill-4 { fill: #003262; }
    .fill-5 { fill: #011e41; stroke: #fdda64; }
    .text-1 { fill: #fdb515; }
    .text-2 { fill: #003262; }
    .text-3 { stroke: #fdda64; }
    .nodelabel { text-anchor: middle; }
    .inputPortLabel { text-anchor: end; }
    .splitjoinBody { fill: #3c3c43; }</style>
  <g s:type="eq" transform="translate(268.6666666666667,317)" s:width="25" s:height="25" id="cell_\2">
    <s:alias val="$eq"/>
    <s:alias val="$eqx"/>
    <circle r="12.5" cx="12.5" cy="12.5" class="cell_\2 fill-1"/>
    <line x1="7.5" x2="17.5" y1="10" y2="10" class="cell_\2 text-3"/>
    <line x1="7.5" x2="17.5" y1="15" y2="15" class="cell_\2 text-3"/>
    <g s:x="2" s:y="5" s:pid="A"/>
    <g s:x="2" s:y="20" s:pid="B"/>
    <g s:x="25" s:y="12.5" s:pid="Y"/>
  </g>
  <g s:type="mux" transform="translate(344,242)" s:width="20" s:height="40" id="cell_\3">
    <s:alias val="$pmux"/>
    <s:alias val="$mux"/>
    <s:alias val="$_MUX_"/>
    <path d="M0,0 L20,10 L20,30 L0,40 Z" class="cell_\3 fill-1"/>
    <text x="5" y="32" class="nodelabel cell_\3" s:attribute="">1</text>
    <text x="5" y="13" class="nodelabel cell_\3" s:attribute="">0</text>
    <g s:x="0" s:y="10" s:pid="A"/>
    <g s:x="0" s:y="30" s:pid="B"/>
    <g s:x="10" s:y="35" s:pid="S"/>
    <g s:x="20" s:y="20" s:pid="Y"/>
  </g>
  <g s:type="eq" transform="translate(185.66666666666666,229.5)" s:width="25" s:height="25" id="cell_\5">
    <s:alias val="$eq"/>
    <s:alias val="$eqx"/>
    <circle r="12.5" cx="12.5" cy="12.5" class="cell_\5 fill-1"/>
    <line x1="7.5" x2="17.5" y1="10" y2="10" class="cell_\5 text-3"/>
    <line x1="7.5" x2="17.5" y1="15" y2="15" class="cell_\5 text-3"/>
    <g s:x="2" s:y="5" s:pid="A"/>
    <g s:x="2" s:y="20" s:pid="B"/>
    <g s:x="25" s:y="12.5" s:pid="Y"/>
  </g>
  <g s:type="mux" transform="translate(270.3333333333333,154.5)" s:width="20" s:height="40" id="cell_\6">
    <s:alias val="$pmux"/>
    <s:alias val="$mux"/>
    <s:alias val="$_MUX_"/>
    <path d="M0,0 L20,10 L20,30 L0,40 Z" class="cell_\6 fill-1"/>
    <text x="5" y="32" class="nodelabel cell_\6" s:attribute="">1</text>
    <text x="5" y="13" class="nodelabel cell_\6" s:attribute="">0</text>
    <g s:x="0" s:y="10" s:pid="A"/>
    <g s:x="0" s:y="30" s:pid="B"/>
    <g s:x="10" s:y="35" s:pid="S"/>
    <g s:x="20" s:y="20" s:pid="Y"/>
  </g>
  <g s:type="eq" transform="translate(102.66666666666667,142)" s:width="25" s:height="25" id="cell_\8">
    <s:alias val="$eq"/>
    <s:alias val="$eqx"/>
    <circle r="12.5" cx="12.5" cy="12.5" class="cell_\8 fill-1"/>
    <line x1="7.5" x2="17.5" y1="10" y2="10" class="cell_\8 text-3"/>
    <line x1="7.5" x2="17.5" y1="15" y2="15" class="cell_\8 text-3"/>
    <g s:x="2" s:y="5" s:pid="A"/>
    <g s:x="2" s:y="20" s:pid="B"/>
    <g s:x="25" s:y="12.5" s:pid="Y"/>
  </g>
  <g s:type="mux" transform="translate(187.33333333333334,67)" s:width="20" s:height="40" id="cell_\9">
    <s:alias val="$pmux"/>
    <s:alias val="$mux"/>
    <s:alias val="$_MUX_"/>
    <path d="M0,0 L20,10 L20,30 L0,40 Z" class="cell_\9 fill-1"/>
    <text x="5" y="32" class="nodelabel cell_\9" s:attribute="">1</text>
    <text x="5" y="13" class="nodelabel cell_\9" s:attribute="">0</text>
    <g s:x="0" s:y="10" s:pid="A"/>
    <g s:x="0" s:y="30" s:pid="B"/>
    <g s:x="10" s:y="35" s:pid="S"/>
    <g s:x="20" s:y="20" s:pid="Y"/>
  </g>
  <g s:type="inputExt" transform="translate(95,22)" s:width="30" s:height="20" id="cell_source_1">
    <text x="15" y="-4" class="nodelabel text-1 cell_source_1" s:attribute="ref">source_1</text>
    <s:alias val="$_inputExt_"/>
    <path d="M0,0 L0,20 L15,20 L30,10 L15,0 Z" class="cell_source_1 fill-4"/>
    <g s:x="30" s:y="10" s:pid="Y"/>
  </g>
  <g s:type="inputExt" transform="translate(261,262)" s:width="30" s:height="20" id="cell_source_2">
    <text x="15" y="-4" class="nodelabel text-1 cell_source_2" s:attribute="ref">source_2</text>
    <s:alias val="$_inputExt_"/>
    <path d="M0,0 L0,20 L15,20 L30,10 L15,0 Z" class="cell_source_2 fill-4"/>
    <g s:x="30" s:y="10" s:pid="Y"/>
  </g>
  <g s:type="inputExt" transform="translate(178,174.5)" s:width="30" s:height="20" id="cell_source_3">
    <text x="15" y="-4" class="nodelabel text-1 cell_source_3" s:attribute="ref">source_3</text>
    <s:alias val="$_inputExt_"/>
    <path d="M0,0 L0,20 L15,20 L30,10 L15,0 Z" class="cell_source_3 fill-4"/>
    <g s:x="30" s:y="10" s:pid="Y"/>
  </g>
  <g s:type="inputExt" transform="translate(95,87)" s:width="30" s:height="20" id="cell_source_4">
    <text x="15" y="-4" class="nodelabel text-1 cell_source_4" s:attribute="ref">source_4</text>
    <s:alias val="$_inputExt_"/>
    <path d="M0,0 L0,20 L15,20 L30,10 L15,0 Z" class="cell_source_4 fill-4"/>
    <g s:x="30" s:y="10" s:pid="Y"/>
  </g>
  <g s:type="inputExt" transform="translate(12,296)" s:width="30" s:height="20" id="cell_selector">
    <text x="15" y="-4" class="nodelabel text-1 cell_selector" s:attribute="ref">selector</text>
    <s:alias val="$_inputExt_"/>
    <path d="M0,0 L0,20 L15,20 L30,10 L15,0 Z" class="cell_selector fill-4"/>
    <g s:x="30" s:y="10" s:pid="Y"/>
  </g>
  <g s:type="outputExt" transform="translate(399,252)" s:width="30" s:height="20" id="cell_destination">
    <text x="15" y="-4" class="nodelabel text-1 cell_destination" s:attribute="ref">destination</text>
    <s:alias val="$_outputExt_"/>
    <path d="M30,0 L30,20 L15,20 L0,10 L15,0 Z" class="cell_destination fill-4"/>
    <g s:x="0" s:y="10" s:pid="A"/>
  </g>
  <g s:type="constant" transform="translate(178,327)" s:width="30" s:height="20" id="cell_1">
    <text x="15" y="-4" class="nodelabel text-1 cell_1" s:attribute="ref">1</text>
    <s:alias val="$_constant_"/>
    <rect width="30" height="20" class="cell_1 fill-4"/>
    <g s:x="31" s:y="10" s:pid="Y"/>
  </g>
  <g s:type="constant" transform="translate(95,239.5)" s:width="30" s:height="20" id="cell_10">
    <text x="15" y="-4" class="nodelabel text-1 cell_10" s:attribute="ref">10</text>
    <s:alias val="$_constant_"/>
    <rect width="30" height="20" class="cell_10 fill-4"/>
    <g s:x="31" s:y="10" s:pid="Y"/>
  </g>
  <g s:type="constant" transform="translate(12,152)" s:width="30" s:height="20" id="cell_11">
    <text x="15" y="-4" class="nodelabel text-1 cell_11" s:attribute="ref">11</text>
    <s:alias val="$_constant_"/>
    <rect width="30" height="20" class="cell_11 fill-4"/>
    <g s:x="31" s:y="10" s:pid="Y"/>
  </g>
  <line x1="42" x2="236" y1="306" y2="306" class="net_34,35"/>
  <line x1="236" x2="236" y1="306" y2="322" class="net_34,35"/>
  <line x1="236" x2="270.6666666666667" y1="322" y2="322" class="net_34,35"/>
  <line x1="42" x2="70" y1="306" y2="306" class="net_34,35"/>
  <line x1="70" x2="70" y1="306" y2="218.5" class="net_34,35"/>
  <line x1="70" x2="153" y1="218.5" y2="218.5" class="net_34,35"/>
  <line x1="153" x2="153" y1="218.5" y2="234.5" class="net_34,35"/>
  <circle cx="70" cy="306" r="2" style="fill:#000" class="net_34,35"/>
  <circle cx="70" cy="218.5" r="2" style="fill:#000" class="net_34,35"/>
  <line x1="153" x2="187.66666666666666" y1="234.5" y2="234.5" class="net_34,35"/>
  <line x1="42" x2="70" y1="306" y2="306" class="net_34,35"/>
  <line x1="70" x2="70" y1="306" y2="147" class="net_34,35"/>
  <line x1="70" x2="104.66666666666667" y1="147" y2="147" class="net_34,35"/>
  <line x1="209" x2="270.6666666666667" y1="337" y2="337" class="net_63"/>
  <line x1="290.3333333333333" x2="319" y1="174.5" y2="174.5" class="net_45,46,47,48,49,50,51,52"/>
  <line x1="319" x2="319" y1="174.5" y2="252" class="net_45,46,47,48,49,50,51,52"/>
  <line x1="319" x2="344" y1="252" y2="252" class="net_45,46,47,48,49,50,51,52"/>
  <line x1="291" x2="344" y1="272" y2="272" class="net_10,11,12,13,14,15,16,17"/>
  <line x1="293.6666666666667" x2="354" y1="329.5" y2="329.5" class="net_44"/>
  <line x1="354" x2="354" y1="329.5" y2="277" class="net_44"/>
  <line x1="126" x2="187.66666666666666" y1="249.5" y2="249.5" class="net_64,65"/>
  <line x1="207.33333333333334" x2="236" y1="87" y2="87" class="net_54,55,56,57,58,59,60,61"/>
  <line x1="236" x2="236" y1="87" y2="164.5" class="net_54,55,56,57,58,59,60,61"/>
  <line x1="236" x2="270.3333333333333" y1="164.5" y2="164.5" class="net_54,55,56,57,58,59,60,61"/>
  <line x1="208" x2="270.3333333333333" y1="184.5" y2="184.5" class="net_18,19,20,21,22,23,24,25"/>
  <line x1="210.66666666666666" x2="280.3333333333333" y1="242" y2="242" class="net_53"/>
  <line x1="280.3333333333333" x2="280.3333333333333" y1="242" y2="189.5" class="net_53"/>
  <line x1="43" x2="104.66666666666667" y1="162" y2="162" class="net_66,67"/>
  <line x1="125" x2="153" y1="32" y2="32" class="net_2,3,4,5,6,7,8,9"/>
  <line x1="153" x2="153" y1="32" y2="77" class="net_2,3,4,5,6,7,8,9"/>
  <line x1="153" x2="187.33333333333334" y1="77" y2="77" class="net_2,3,4,5,6,7,8,9"/>
  <line x1="125" x2="187.33333333333334" y1="97" y2="97" class="net_26,27,28,29,30,31,32,33"/>
  <line x1="127.66666666666667" x2="197.33333333333334" y1="154.5" y2="154.5" class="net_62"/>
  <line x1="197.33333333333334" x2="197.33333333333334" y1="154.5" y2="102" class="net_62"/>
  <line x1="364" x2="399" y1="262" y2="262" class="net_36,37,38,39,40,41,42,43"/>
</svg>
