<svg xmlns="http://www.w3.org/2000/svg" xmlns:xlink="http://www.w3.org/1999/xlink" xmlns:s="https://github.com/nturley/netlistsvg" width="723" height="305">
  <style>  svg {
      stroke: #011e41;
      fill: none;
    }
    text {
      fill:#ffffff;
      stroke:none;
      font-size:10px;
      font-weight: bold;
      font-family: "Courier New", monospace;
    }
    .fill-1 { fill: #003262; }
    .fill-2 { fill: #011e41; stroke: #003262; }
    .fill-3 { fill: #ffffff; }
    .fill-4 { fill: #003262; }
    .fill-5 { fill: #011e41; stroke: #fdda64; }
    .text-1 { fill: #fdb515; }
    .text-2 { fill: #003262; }
    .text-3 { stroke: #fdda64; }
    .nodelabel { text-anchor: middle; }
    .inputPortLabel { text-anchor: end; }
    .splitjoinBody { fill: #3c3c43; }</style>
  <g s:type="and" transform="translate(580,140.5)" s:width="30" s:height="25" id="cell_\3">
    <s:alias val="$and"/>
    <s:alias val="$logic_and"/>
    <s:alias val="$_AND_"/>
    <s:alias val="$reduce_and"/>
    <path d="M0,0 L0,25 L15,25 A15 12.5 0 0 0 15,0 Z" class="cell_\3 fill-1"/>
    <g s:x="0" s:y="5" s:pid="A"/>
    <g s:x="0" s:y="20" s:pid="B"/>
    <g s:x="30" s:y="12.5" s:pid="Y"/>
  </g>
  <g s:type="generic" transform="translate(186,22)" s:width="30" s:height="40" id="cell_comparator">
    <text x="15" y="-4" class="nodelabel text-1 cell_comparator" s:attribute="ref">generic_comparator_32</text>
    <rect width="30" height="60" s:generic="body" class="cell_comparator fill-1"/>
    <g transform="translate(0,10)" s:x="0" s:y="10" s:pid="in0" id="port_comparator~source_1">
      <text x="-3" y="-4" class="inputPortLabel text-2 cell_comparator">source_1</text>
    </g>
    <g transform="translate(0,30)" s:x="0" s:y="10" s:pid="in0" id="port_comparator~source_2">
      <text x="-3" y="-4" class="inputPortLabel text-2 cell_comparator">source_2</text>
    </g>
    <g transform="translate(30,10)" s:x="30" s:y="10" s:pid="out0" id="port_comparator~flag_equal">
      <text x="5" y="-4" class="cell_comparator text-2">flag_equal</text>
    </g>
    <g transform="translate(30,30)" s:x="30" s:y="10" s:pid="out0" id="port_comparator~flag_greather">
      <text x="5" y="-4" class="cell_comparator text-2">flag_greather</text>
    </g>
    <g transform="translate(30,50)" s:x="30" s:y="10" s:pid="out0" id="port_comparator~flag_less">
      <text x="5" y="-4" class="cell_comparator text-2">flag_less</text>
    </g>
  </g>
  <g s:type="generic" transform="translate(447,150)" s:width="30" s:height="40" id="cell_compare">
    <text x="15" y="-4" class="nodelabel text-1 cell_compare" s:attribute="ref">rv32i_branch_controller</text>
    <rect width="30" height="120" s:generic="body" class="cell_compare fill-1"/>
    <g transform="translate(0,10)" s:x="0" s:y="10" s:pid="in0" id="port_compare~flag_equal">
      <text x="-3" y="-4" class="inputPortLabel text-2 cell_compare">flag_equal</text>
    </g>
    <g transform="translate(0,30)" s:x="0" s:y="10" s:pid="in0" id="port_compare~flag_greather">
      <text x="-3" y="-4" class="inputPortLabel text-2 cell_compare">flag_greather</text>
    </g>
    <g transform="translate(0,50)" s:x="0" s:y="10" s:pid="in0" id="port_compare~flag_less">
      <text x="-3" y="-4" class="inputPortLabel text-2 cell_compare">flag_less</text>
    </g>
    <g transform="translate(0,70)" s:x="0" s:y="10" s:pid="in0" id="port_compare~flag_sign_1">
      <text x="-3" y="-4" class="inputPortLabel text-2 cell_compare">flag_sign_1</text>
    </g>
    <g transform="translate(0,90)" s:x="0" s:y="10" s:pid="in0" id="port_compare~flag_sign_2">
      <text x="-3" y="-4" class="inputPortLabel text-2 cell_compare">flag_sign_2</text>
    </g>
    <g transform="translate(0,110)" s:x="0" s:y="10" s:pid="in0" id="port_compare~select_function">
      <text x="-3" y="-4" class="inputPortLabel text-2 cell_compare">select_function</text>
    </g>
    <g transform="translate(30,10)" s:x="30" s:y="10" s:pid="out0" id="port_compare~destination">
      <text x="5" y="-4" class="cell_compare text-2">destination</text>
    </g>
  </g>
  <g s:type="inputExt" transform="translate(447,85)" s:width="30" s:height="20" id="cell_enable">
    <text x="15" y="-4" class="nodelabel text-1 cell_enable" s:attribute="ref">enable</text>
    <s:alias val="$_inputExt_"/>
    <path d="M0,0 L0,20 L15,20 L30,10 L15,0 Z" class="cell_enable fill-4"/>
    <g s:x="30" s:y="10" s:pid="Y"/>
  </g>
  <g s:type="inputExt" transform="translate(12,273)" s:width="30" s:height="20" id="cell_select_function">
    <text x="15" y="-4" class="nodelabel text-1 cell_select_function" s:attribute="ref">select_function</text>
    <s:alias val="$_inputExt_"/>
    <path d="M0,0 L0,20 L15,20 L30,10 L15,0 Z" class="cell_select_function fill-4"/>
    <g s:x="30" s:y="10" s:pid="Y"/>
  </g>
  <g s:type="inputExt" transform="translate(12,143)" s:width="30" s:height="20" id="cell_source_1">
    <text x="15" y="-4" class="nodelabel text-1 cell_source_1" s:attribute="ref">source_1</text>
    <s:alias val="$_inputExt_"/>
    <path d="M0,0 L0,20 L15,20 L30,10 L15,0 Z" class="cell_source_1 fill-4"/>
    <g s:x="30" s:y="10" s:pid="Y"/>
  </g>
  <g s:type="inputExt" transform="translate(12,208)" s:width="30" s:height="20" id="cell_source_2">
    <text x="15" y="-4" class="nodelabel text-1 cell_source_2" s:attribute="ref">source_2</text>
    <s:alias val="$_inputExt_"/>
    <path d="M0,0 L0,20 L15,20 L30,10 L15,0 Z" class="cell_source_2 fill-4"/>
    <g s:x="30" s:y="10" s:pid="Y"/>
  </g>
  <g s:type="outputExt" transform="translate(645,143)" s:width="30" s:height="20" id="cell_destination">
    <text x="15" y="-4" class="nodelabel text-1 cell_destination" s:attribute="ref">destination</text>
    <s:alias val="$_outputExt_"/>
    <path d="M30,0 L30,20 L15,20 L0,10 L15,0 Z" class="cell_destination fill-4"/>
    <g s:x="0" s:y="10" s:pid="A"/>
  </g>
  <g s:type="split" transform="translate(211,120)" s:width="5" s:height="40" id="cell_$split$,7,8,9,10,11,12,13,14,15,16,17,18,19,20,21,22,23,24,25,26,27,28,29,30,31,32,33,34,35,36,37,38,">
    <rect width="5" height="20" class="splitjoinBody" s:generic="body"/>
    <s:alias val="$_split_"/>
    <g s:x="0" s:y="20" s:pid="in"/>
    <g transform="translate(4,10)" s:x="4" s:y="10" s:pid="out0">
      <text x="5" y="-4" class="text-2">31</text>
    </g>
  </g>
  <g s:type="split" transform="translate(211,185)" s:width="5" s:height="40" id="cell_$split$,39,40,41,42,43,44,45,46,47,48,49,50,51,52,53,54,55,56,57,58,59,60,61,62,63,64,65,66,67,68,69,70,">
    <rect width="5" height="20" class="splitjoinBody" s:generic="body"/>
    <s:alias val="$_split_"/>
    <g s:x="0" s:y="20" s:pid="in"/>
    <g transform="translate(4,10)" s:x="4" s:y="10" s:pid="out0">
      <text x="5" y="-4" class="text-2">31</text>
    </g>
  </g>
  <g s:type="split" transform="translate(211,250)" s:width="5" s:height="40" id="cell_$split$,3,4,5,6,">
    <rect width="5" height="20" class="splitjoinBody" s:generic="body"/>
    <s:alias val="$_split_"/>
    <g s:x="0" s:y="20" s:pid="in"/>
    <g transform="translate(4,10)" s:x="4" s:y="10" s:pid="out0">
      <text x="5" y="-4" class="text-2">0:2</text>
    </g>
  </g>
  <line x1="477" x2="555" y1="95" y2="95" class="net_2"/>
  <line x1="555" x2="555" y1="95" y2="145.5" class="net_2"/>
  <line x1="555" x2="580" y1="145.5" y2="145.5" class="net_2"/>
  <line x1="478" x2="580" y1="160.5" y2="160.5" class="net_72"/>
  <line x1="42" x2="112" y1="153" y2="153" class="net_7,8,9,10,11,12,13,14,15,16,17,18,19,20,21,22,23,24,25,26,27,28,29,30,31,32,33,34,35,36,37,38"/>
  <line x1="112" x2="112" y1="153" y2="32.5" class="net_7,8,9,10,11,12,13,14,15,16,17,18,19,20,21,22,23,24,25,26,27,28,29,30,31,32,33,34,35,36,37,38"/>
  <circle cx="112" cy="153" r="2" style="fill:#000" class="net_7,8,9,10,11,12,13,14,15,16,17,18,19,20,21,22,23,24,25,26,27,28,29,30,31,32,33,34,35,36,37,38"/>
  <line x1="112" x2="186" y1="32.5" y2="32.5" class="net_7,8,9,10,11,12,13,14,15,16,17,18,19,20,21,22,23,24,25,26,27,28,29,30,31,32,33,34,35,36,37,38"/>
  <line x1="42" x2="211.5" y1="153" y2="153" class="net_7,8,9,10,11,12,13,14,15,16,17,18,19,20,21,22,23,24,25,26,27,28,29,30,31,32,33,34,35,36,37,38"/>
  <line x1="211.5" x2="211.5" y1="153" y2="141" class="net_7,8,9,10,11,12,13,14,15,16,17,18,19,20,21,22,23,24,25,26,27,28,29,30,31,32,33,34,35,36,37,38"/>
  <line x1="42" x2="122" y1="218" y2="218" class="net_39,40,41,42,43,44,45,46,47,48,49,50,51,52,53,54,55,56,57,58,59,60,61,62,63,64,65,66,67,68,69,70"/>
  <line x1="122" x2="122" y1="218" y2="52.5" class="net_39,40,41,42,43,44,45,46,47,48,49,50,51,52,53,54,55,56,57,58,59,60,61,62,63,64,65,66,67,68,69,70"/>
  <circle cx="122" cy="218" r="2" style="fill:#000" class="net_39,40,41,42,43,44,45,46,47,48,49,50,51,52,53,54,55,56,57,58,59,60,61,62,63,64,65,66,67,68,69,70"/>
  <line x1="122" x2="186" y1="52.5" y2="52.5" class="net_39,40,41,42,43,44,45,46,47,48,49,50,51,52,53,54,55,56,57,58,59,60,61,62,63,64,65,66,67,68,69,70"/>
  <line x1="42" x2="211.5" y1="218" y2="218" class="net_39,40,41,42,43,44,45,46,47,48,49,50,51,52,53,54,55,56,57,58,59,60,61,62,63,64,65,66,67,68,69,70"/>
  <line x1="211.5" x2="211.5" y1="218" y2="206" class="net_39,40,41,42,43,44,45,46,47,48,49,50,51,52,53,54,55,56,57,58,59,60,61,62,63,64,65,66,67,68,69,70"/>
  <line x1="217" x2="346" y1="32.5" y2="32.5" class="net_73"/>
  <line x1="346" x2="346" y1="32.5" y2="160.5" class="net_73"/>
  <line x1="346" x2="447" y1="160.5" y2="160.5" class="net_73"/>
  <line x1="217" x2="336" y1="52.5" y2="52.5" class="net_74"/>
  <line x1="336" x2="336" y1="52.5" y2="180.5" class="net_74"/>
  <line x1="336" x2="447" y1="180.5" y2="180.5" class="net_74"/>
  <line x1="217" x2="326" y1="72.5" y2="72.5" class="net_75"/>
  <line x1="326" x2="326" y1="72.5" y2="200.5" class="net_75"/>
  <line x1="326" x2="447" y1="200.5" y2="200.5" class="net_75"/>
  <line x1="216" x2="316" y1="130.5" y2="130.5" class="net_38"/>
  <line x1="316" x2="316" y1="130.5" y2="220.5" class="net_38"/>
  <line x1="316" x2="447" y1="220.5" y2="220.5" class="net_38"/>
  <line x1="216" x2="306" y1="195.5" y2="195.5" class="net_70"/>
  <line x1="306" x2="306" y1="195.5" y2="240.5" class="net_70"/>
  <line x1="306" x2="447" y1="240.5" y2="240.5" class="net_70"/>
  <line x1="216" x2="447" y1="260.5" y2="260.5" class="net_3,4,5"/>
  <line x1="610" x2="645" y1="153" y2="153" class="net_71"/>
  <line x1="42" x2="211.5" y1="283" y2="283" class="net_3,4,5,6"/>
  <line x1="211.5" x2="211.5" y1="283" y2="271" class="net_3,4,5,6"/>
</svg>
