<svg xmlns="http://www.w3.org/2000/svg" xmlns:xlink="http://www.w3.org/1999/xlink" xmlns:s="https://github.com/nturley/netlistsvg" width="705" height="323">
  <style>  svg {
      stroke: #011e41;
      fill: none;
    }
    text {
      fill:#ffffff;
      stroke:none;
      font-size:10px;
      font-weight: bold;
      font-family: "Courier New", monospace;
    }
    .fill-1 { fill: #003262; }
    .fill-2 { fill: #011e41; stroke: #003262; }
    .fill-3 { fill: #ffffff; }
    .fill-4 { fill: #003262; }
    .fill-5 { fill: #011e41; stroke: #fdda64; }
    .text-1 { fill: #fdb515; }
    .text-2 { fill: #003262; }
    .text-3 { stroke: #fdda64; }
    .nodelabel { text-anchor: middle; }
    .inputPortLabel { text-anchor: end; }
    .splitjoinBody { fill: #3c3c43; }</style>
  <g s:type="generic" transform="translate(127,257)" s:width="30" s:height="40" id="cell_adder">
    <text x="15" y="-4" class="nodelabel text-1 cell_adder" s:attribute="ref">generic_adder_32_1</text>
    <rect width="30" height="40" s:generic="body" class="cell_adder fill-1"/>
    <g transform="translate(0,10)" s:x="0" s:y="10" s:pid="in0" id="port_adder~source_1">
      <text x="-3" y="-4" class="inputPortLabel text-2 cell_adder">source_1</text>
    </g>
    <g transform="translate(0,30)" s:x="0" s:y="10" s:pid="in0" id="port_adder~source_2">
      <text x="-3" y="-4" class="inputPortLabel text-2 cell_adder">source_2</text>
    </g>
    <g transform="translate(30,10)" s:x="30" s:y="10" s:pid="out0" id="port_adder~destination">
      <text x="5" y="-4" class="cell_adder text-2">destination</text>
    </g>
  </g>
  <g s:type="generic" transform="translate(309,217)" s:width="30" s:height="40" id="cell_mux_register_alu_1">
    <text x="15" y="-4" class="nodelabel text-1 cell_mux_register_alu_1" s:attribute="ref">generic_mux_2x1_32</text>
    <rect width="30" height="60" s:generic="body" class="cell_mux_register_alu_1 fill-1"/>
    <g transform="translate(0,10)" s:x="0" s:y="10" s:pid="in0" id="port_mux_register_alu_1~selector">
      <text x="-3" y="-4" class="inputPortLabel text-2 cell_mux_register_alu_1">selector</text>
    </g>
    <g transform="translate(0,30)" s:x="0" s:y="10" s:pid="in0" id="port_mux_register_alu_1~source_1">
      <text x="-3" y="-4" class="inputPortLabel text-2 cell_mux_register_alu_1">source_1</text>
    </g>
    <g transform="translate(0,50)" s:x="0" s:y="10" s:pid="in0" id="port_mux_register_alu_1~source_2">
      <text x="-3" y="-4" class="inputPortLabel text-2 cell_mux_register_alu_1">source_2</text>
    </g>
    <g transform="translate(30,10)" s:x="30" s:y="10" s:pid="out0" id="port_mux_register_alu_1~destination">
      <text x="5" y="-4" class="cell_mux_register_alu_1 text-2">destination</text>
    </g>
  </g>
  <g s:type="generic" transform="translate(494,157)" s:width="30" s:height="40" id="cell_pc_register">
    <text x="15" y="-4" class="nodelabel text-1 cell_pc_register" s:attribute="ref">generic_register_32</text>
    <rect width="30" height="80" s:generic="body" class="cell_pc_register fill-1"/>
    <g transform="translate(0,10)" s:x="0" s:y="10" s:pid="in0" id="port_pc_register~clear">
      <text x="-3" y="-4" class="inputPortLabel text-2 cell_pc_register">clear</text>
    </g>
    <g transform="translate(0,30)" s:x="0" s:y="10" s:pid="in0" id="port_pc_register~clock">
      <text x="-3" y="-4" class="inputPortLabel text-2 cell_pc_register">clock</text>
    </g>
    <g transform="translate(0,50)" s:x="0" s:y="10" s:pid="in0" id="port_pc_register~enable">
      <text x="-3" y="-4" class="inputPortLabel text-2 cell_pc_register">enable</text>
    </g>
    <g transform="translate(0,70)" s:x="0" s:y="10" s:pid="in0" id="port_pc_register~source">
      <text x="-3" y="-4" class="inputPortLabel text-2 cell_pc_register">source</text>
    </g>
    <g transform="translate(30,10)" s:x="30" s:y="10" s:pid="out0" id="port_pc_register~destination">
      <text x="5" y="-4" class="cell_pc_register text-2">destination</text>
    </g>
  </g>
  <g s:type="inputExt" transform="translate(309,87)" s:width="30" s:height="20" id="cell_clock">
    <text x="15" y="-4" class="nodelabel text-1 cell_clock" s:attribute="ref">clock</text>
    <s:alias val="$_inputExt_"/>
    <path d="M0,0 L0,20 L15,20 L30,10 L15,0 Z" class="cell_clock fill-4"/>
    <g s:x="30" s:y="10" s:pid="Y"/>
  </g>
  <g s:type="inputExt" transform="translate(127,192)" s:width="30" s:height="20" id="cell_jump_address">
    <text x="15" y="-4" class="nodelabel text-1 cell_jump_address" s:attribute="ref">jump_address</text>
    <s:alias val="$_inputExt_"/>
    <path d="M0,0 L0,20 L15,20 L30,10 L15,0 Z" class="cell_jump_address fill-4"/>
    <g s:x="30" s:y="10" s:pid="Y"/>
  </g>
  <g s:type="inputExt" transform="translate(127,127)" s:width="30" s:height="20" id="cell_selector">
    <text x="15" y="-4" class="nodelabel text-1 cell_selector" s:attribute="ref">selector</text>
    <s:alias val="$_inputExt_"/>
    <path d="M0,0 L0,20 L15,20 L30,10 L15,0 Z" class="cell_selector fill-4"/>
    <g s:x="30" s:y="10" s:pid="Y"/>
  </g>
  <g s:type="inputExt" transform="translate(309,152)" s:width="30" s:height="20" id="cell_enable">
    <text x="15" y="-4" class="nodelabel text-1 cell_enable" s:attribute="ref">enable</text>
    <s:alias val="$_inputExt_"/>
    <path d="M0,0 L0,20 L15,20 L30,10 L15,0 Z" class="cell_enable fill-4"/>
    <g s:x="30" s:y="10" s:pid="Y"/>
  </g>
  <g s:type="outputExt" transform="translate(627,157.5)" s:width="30" s:height="20" id="cell_destination">
    <text x="15" y="-4" class="nodelabel text-1 cell_destination" s:attribute="ref">destination</text>
    <s:alias val="$_outputExt_"/>
    <path d="M30,0 L30,20 L15,20 L0,10 L15,0 Z" class="cell_destination fill-4"/>
    <g s:x="0" s:y="10" s:pid="A"/>
  </g>
  <g s:type="constant" transform="translate(12,277.5)" s:width="30" s:height="20" id="cell_00000000000000000000000000000100">
    <text x="15" y="-4" class="nodelabel text-1 cell_00000000000000000000000000000100" s:attribute="ref">0x4</text>
    <s:alias val="$_constant_"/>
    <rect width="30" height="20" class="cell_00000000000000000000000000000100 fill-4"/>
    <g s:x="31" s:y="10" s:pid="Y"/>
  </g>
  <g s:type="constant" transform="translate(309,22)" s:width="30" s:height="20" id="cell_0">
    <text x="15" y="-4" class="nodelabel text-1 cell_0" s:attribute="ref">0</text>
    <s:alias val="$_constant_"/>
    <rect width="30" height="20" class="cell_0 fill-4"/>
    <g s:x="31" s:y="10" s:pid="Y"/>
  </g>
  <line x1="525" x2="602" y1="167.5" y2="167.5" class="net_37,38,39,40,41,42,43,44,45,46,47,48,49,50,51,52,53,54,55,56,57,58,59,60,61,62,63,64,65,66,67,68"/>
  <line x1="602" x2="602" y1="167.5" y2="310" class="net_37,38,39,40,41,42,43,44,45,46,47,48,49,50,51,52,53,54,55,56,57,58,59,60,61,62,63,64,65,66,67,68"/>
  <line x1="602" x2="53" y1="310" y2="310" class="net_37,38,39,40,41,42,43,44,45,46,47,48,49,50,51,52,53,54,55,56,57,58,59,60,61,62,63,64,65,66,67,68"/>
  <line x1="53" x2="53" y1="310" y2="267.5" class="net_37,38,39,40,41,42,43,44,45,46,47,48,49,50,51,52,53,54,55,56,57,58,59,60,61,62,63,64,65,66,67,68"/>
  <circle cx="602" cy="167.5" r="2" style="fill:#000" class="net_37,38,39,40,41,42,43,44,45,46,47,48,49,50,51,52,53,54,55,56,57,58,59,60,61,62,63,64,65,66,67,68"/>
  <line x1="53" x2="127" y1="267.5" y2="267.5" class="net_37,38,39,40,41,42,43,44,45,46,47,48,49,50,51,52,53,54,55,56,57,58,59,60,61,62,63,64,65,66,67,68"/>
  <line x1="525" x2="627" y1="167.5" y2="167.5" class="net_37,38,39,40,41,42,43,44,45,46,47,48,49,50,51,52,53,54,55,56,57,58,59,60,61,62,63,64,65,66,67,68"/>
  <line x1="43" x2="127" y1="287.5" y2="287.5" class="net_133,134,135,136,137,138,139,140,141,142,143,144,145,146,147,148,149,150,151,152,153,154,155,156,157,158,159,160,161,162,163,164"/>
  <line x1="157" x2="245" y1="137" y2="137" class="net_35"/>
  <line x1="245" x2="245" y1="137" y2="227.5" class="net_35"/>
  <line x1="245" x2="309" y1="227.5" y2="227.5" class="net_35"/>
  <line x1="157" x2="235" y1="202" y2="202" class="net_3,4,5,6,7,8,9,10,11,12,13,14,15,16,17,18,19,20,21,22,23,24,25,26,27,28,29,30,31,32,33,34"/>
  <line x1="235" x2="235" y1="202" y2="247.5" class="net_3,4,5,6,7,8,9,10,11,12,13,14,15,16,17,18,19,20,21,22,23,24,25,26,27,28,29,30,31,32,33,34"/>
  <line x1="235" x2="309" y1="247.5" y2="247.5" class="net_3,4,5,6,7,8,9,10,11,12,13,14,15,16,17,18,19,20,21,22,23,24,25,26,27,28,29,30,31,32,33,34"/>
  <line x1="158" x2="309" y1="267.5" y2="267.5" class="net_69,70,71,72,73,74,75,76,77,78,79,80,81,82,83,84,85,86,87,88,89,90,91,92,93,94,95,96,97,98,99,100"/>
  <line x1="340" x2="447" y1="32" y2="32" class="net_165"/>
  <line x1="447" x2="447" y1="32" y2="167.5" class="net_165"/>
  <line x1="447" x2="494" y1="167.5" y2="167.5" class="net_165"/>
  <line x1="339" x2="437" y1="97" y2="97" class="net_2"/>
  <line x1="437" x2="437" y1="97" y2="187.5" class="net_2"/>
  <line x1="437" x2="494" y1="187.5" y2="187.5" class="net_2"/>
  <line x1="339" x2="427" y1="162" y2="162" class="net_36"/>
  <line x1="427" x2="427" y1="162" y2="207.5" class="net_36"/>
  <line x1="427" x2="494" y1="207.5" y2="207.5" class="net_36"/>
  <line x1="340" x2="494" y1="227.5" y2="227.5" class="net_101,102,103,104,105,106,107,108,109,110,111,112,113,114,115,116,117,118,119,120,121,122,123,124,125,126,127,128,129,130,131,132"/>
</svg>
