<svg xmlns="http://www.w3.org/2000/svg" xmlns:xlink="http://www.w3.org/1999/xlink" xmlns:s="https://github.com/nturley/netlistsvg" width="438" height="379">
  <style>svg {
    stroke:#000;
    fill:none;
  }
  text {
    fill:#000;
    stroke:none;
    font-size:10px;
    font-weight: bold;
    font-family: "Courier New", monospace;
  }
  .nodelabel {
    text-anchor: middle;
  }
  .inputPortLabel {
    text-anchor: end;
  }
  .splitjoinBody {
    fill:#000;
  }</style>
  <g s:type="generic" transform="translate(227,111.5)" s:width="30" s:height="40" id="cell_ram">
    <text x="15" y="-4" class="nodelabel cell_ram" s:attribute="ref">generic_ram_32_32_10</text>
    <rect width="30" height="120" s:generic="body" class="cell_ram"/>
    <g transform="translate(0,10)" s:x="0" s:y="10" s:pid="in0" id="port_ram~address">
      <text x="-3" y="-4" class="inputPortLabel cell_ram">address</text>
    </g>
    <g transform="translate(0,30)" s:x="0" s:y="10" s:pid="in0" id="port_ram~clock">
      <text x="-3" y="-4" class="inputPortLabel cell_ram">clock</text>
    </g>
    <g transform="translate(0,50)" s:x="0" s:y="10" s:pid="in0" id="port_ram~enable">
      <text x="-3" y="-4" class="inputPortLabel cell_ram">enable</text>
    </g>
    <g transform="translate(0,70)" s:x="0" s:y="10" s:pid="in0" id="port_ram~enable_read">
      <text x="-3" y="-4" class="inputPortLabel cell_ram">enable_read</text>
    </g>
    <g transform="translate(0,90)" s:x="0" s:y="10" s:pid="in0" id="port_ram~enable_write">
      <text x="-3" y="-4" class="inputPortLabel cell_ram">enable_write</text>
    </g>
    <g transform="translate(0,110)" s:x="0" s:y="10" s:pid="in0" id="port_ram~source">
      <text x="-3" y="-4" class="inputPortLabel cell_ram">source</text>
    </g>
    <g transform="translate(30,10)" s:x="30" s:y="10" s:pid="out0" id="port_ram~destination">
      <text x="5" y="-4" style="fill:#000; stroke:none" class="cell_ram">destination</text>
    </g>
  </g>
  <g s:type="inputExt" transform="translate(12,87)" s:width="30" s:height="20" id="cell_clock">
    <text x="15" y="-4" class="nodelabel cell_clock" s:attribute="ref">clock</text>
    <s:alias val="$_inputExt_"/>
    <path d="M0,0 L0,20 L15,20 L30,10 L15,0 Z" class="cell_clock"/>
    <g s:x="28" s:y="10" s:pid="Y"/>
  </g>
  <g s:type="inputExt" transform="translate(12,152)" s:width="30" s:height="20" id="cell_enable">
    <text x="15" y="-4" class="nodelabel cell_enable" s:attribute="ref">enable</text>
    <s:alias val="$_inputExt_"/>
    <path d="M0,0 L0,20 L15,20 L30,10 L15,0 Z" class="cell_enable"/>
    <g s:x="28" s:y="10" s:pid="Y"/>
  </g>
  <g s:type="inputExt" transform="translate(12,217)" s:width="30" s:height="20" id="cell_enable_read">
    <text x="15" y="-4" class="nodelabel cell_enable_read" s:attribute="ref">enable_read</text>
    <s:alias val="$_inputExt_"/>
    <path d="M0,0 L0,20 L15,20 L30,10 L15,0 Z" class="cell_enable_read"/>
    <g s:x="28" s:y="10" s:pid="Y"/>
  </g>
  <g s:type="inputExt" transform="translate(12,282)" s:width="30" s:height="20" id="cell_enable_write">
    <text x="15" y="-4" class="nodelabel cell_enable_write" s:attribute="ref">enable_write</text>
    <s:alias val="$_inputExt_"/>
    <path d="M0,0 L0,20 L15,20 L30,10 L15,0 Z" class="cell_enable_write"/>
    <g s:x="28" s:y="10" s:pid="Y"/>
  </g>
  <g s:type="inputExt" transform="translate(12,22)" s:width="30" s:height="20" id="cell_source_ex">
    <text x="15" y="-4" class="nodelabel cell_source_ex" s:attribute="ref">source_ex</text>
    <s:alias val="$_inputExt_"/>
    <path d="M0,0 L0,20 L15,20 L30,10 L15,0 Z" class="cell_source_ex"/>
    <g s:x="28" s:y="10" s:pid="Y"/>
  </g>
  <g s:type="inputExt" transform="translate(12,347)" s:width="30" s:height="20" id="cell_register_source_2">
    <text x="15" y="-4" class="nodelabel cell_register_source_2" s:attribute="ref">register_source_2</text>
    <s:alias val="$_inputExt_"/>
    <path d="M0,0 L0,20 L15,20 L30,10 L15,0 Z" class="cell_register_source_2"/>
    <g s:x="28" s:y="10" s:pid="Y"/>
  </g>
  <g s:type="outputExt" transform="translate(360,112)" s:width="30" s:height="20" id="cell_destination">
    <text x="15" y="-4" class="nodelabel cell_destination" s:attribute="ref">destination</text>
    <s:alias val="$_outputExt_"/>
    <path d="M30,0 L30,20 L15,20 L0,10 L15,0 Z" class="cell_destination"/>
    <g s:x="0" s:y="10" s:pid="A"/>
  </g>
  <line x1="40" x2="134" y1="32" y2="32" class="net_6,7,8,9,10,11,12,13,14,15,16,17,18,19,20,21,22,23,24,25,26,27,28,29,30,31,32,33,34,35,36,37"/>
  <line x1="134" x2="134" y1="32" y2="122" class="net_6,7,8,9,10,11,12,13,14,15,16,17,18,19,20,21,22,23,24,25,26,27,28,29,30,31,32,33,34,35,36,37"/>
  <line x1="134" x2="227" y1="122" y2="122" class="net_6,7,8,9,10,11,12,13,14,15,16,17,18,19,20,21,22,23,24,25,26,27,28,29,30,31,32,33,34,35,36,37"/>
  <line x1="40" x2="124" y1="97" y2="97" class="net_2"/>
  <line x1="124" x2="124" y1="97" y2="142" class="net_2"/>
  <line x1="124" x2="227" y1="142" y2="142" class="net_2"/>
  <line x1="40" x2="227" y1="162" y2="162" class="net_3"/>
  <line x1="40" x2="124" y1="227" y2="227" class="net_4"/>
  <line x1="124" x2="124" y1="227" y2="182" class="net_4"/>
  <line x1="124" x2="227" y1="182" y2="182" class="net_4"/>
  <line x1="40" x2="134" y1="292" y2="292" class="net_5"/>
  <line x1="134" x2="134" y1="292" y2="202" class="net_5"/>
  <line x1="134" x2="227" y1="202" y2="202" class="net_5"/>
  <line x1="40" x2="144" y1="357" y2="357" class="net_38,39,40,41,42,43,44,45,46,47,48,49,50,51,52,53,54,55,56,57,58,59,60,61,62,63,64,65,66,67,68,69"/>
  <line x1="144" x2="144" y1="357" y2="222" class="net_38,39,40,41,42,43,44,45,46,47,48,49,50,51,52,53,54,55,56,57,58,59,60,61,62,63,64,65,66,67,68,69"/>
  <line x1="144" x2="227" y1="222" y2="222" class="net_38,39,40,41,42,43,44,45,46,47,48,49,50,51,52,53,54,55,56,57,58,59,60,61,62,63,64,65,66,67,68,69"/>
  <line x1="258" x2="360" y1="122" y2="122" class="net_70,71,72,73,74,75,76,77,78,79,80,81,82,83,84,85,86,87,88,89,90,91,92,93,94,95,96,97,98,99,100,101"/>
</svg>
