<svg xmlns="http://www.w3.org/2000/svg" xmlns:xlink="http://www.w3.org/1999/xlink" xmlns:s="https://github.com/nturley/netlistsvg" width="403" height="184">
  <style>  svg {
      stroke: #011e41;
      fill: none;
    }
    text {
      fill:#ffffff;
      stroke:none;
      font-size:10px;
      font-weight: bold;
      font-family: "Courier New", monospace;
    }
    .fill-1 { fill: #003262; }
    .fill-2 { fill: #011e41; stroke: #003262; }
    .fill-3 { fill: #ffffff; }
    .fill-4 { fill: #003262; }
    .fill-5 { fill: #011e41; stroke: #fdda64; }
    .text-1 { fill: #fdb515; }
    .text-2 { fill: #003262; }
    .text-3 { stroke: #fdda64; }
    .nodelabel { text-anchor: middle; }
    .inputPortLabel { text-anchor: end; }
    .splitjoinBody { fill: #3c3c43; }</style>
  <g s:type="generic" transform="translate(192,66.5)" s:width="30" s:height="40" id="cell_mux_source">
    <text x="15" y="-4" class="nodelabel text-1 cell_mux_source" s:attribute="ref">generic_mux_2x1_32</text>
    <rect width="30" height="60" s:generic="body" class="cell_mux_source fill-1"/>
    <g transform="translate(0,10)" s:x="0" s:y="10" s:pid="in0" id="port_mux_source~selector">
      <text x="-3" y="-4" class="inputPortLabel text-2 cell_mux_source">selector</text>
    </g>
    <g transform="translate(0,30)" s:x="0" s:y="10" s:pid="in0" id="port_mux_source~source_1">
      <text x="-3" y="-4" class="inputPortLabel text-2 cell_mux_source">source_1</text>
    </g>
    <g transform="translate(0,50)" s:x="0" s:y="10" s:pid="in0" id="port_mux_source~source_2">
      <text x="-3" y="-4" class="inputPortLabel text-2 cell_mux_source">source_2</text>
    </g>
    <g transform="translate(30,10)" s:x="30" s:y="10" s:pid="out0" id="port_mux_source~destination">
      <text x="5" y="-4" class="cell_mux_source text-2">destination</text>
    </g>
  </g>
  <g s:type="inputExt" transform="translate(12,22)" s:width="30" s:height="20" id="cell_selector">
    <text x="15" y="-4" class="nodelabel text-1 cell_selector" s:attribute="ref">selector</text>
    <s:alias val="$_inputExt_"/>
    <path d="M0,0 L0,20 L15,20 L30,10 L15,0 Z" class="cell_selector fill-4"/>
    <g s:x="30" s:y="10" s:pid="Y"/>
  </g>
  <g s:type="inputExt" transform="translate(12,87)" s:width="30" s:height="20" id="cell_source_execution">
    <text x="15" y="-4" class="nodelabel text-1 cell_source_execution" s:attribute="ref">source_execution</text>
    <s:alias val="$_inputExt_"/>
    <path d="M0,0 L0,20 L15,20 L30,10 L15,0 Z" class="cell_source_execution fill-4"/>
    <g s:x="30" s:y="10" s:pid="Y"/>
  </g>
  <g s:type="inputExt" transform="translate(12,152)" s:width="30" s:height="20" id="cell_source_memory">
    <text x="15" y="-4" class="nodelabel text-1 cell_source_memory" s:attribute="ref">source_memory</text>
    <s:alias val="$_inputExt_"/>
    <path d="M0,0 L0,20 L15,20 L30,10 L15,0 Z" class="cell_source_memory fill-4"/>
    <g s:x="30" s:y="10" s:pid="Y"/>
  </g>
  <g s:type="outputExt" transform="translate(325,67)" s:width="30" s:height="20" id="cell_destination">
    <text x="15" y="-4" class="nodelabel text-1 cell_destination" s:attribute="ref">destination</text>
    <s:alias val="$_outputExt_"/>
    <path d="M30,0 L30,20 L15,20 L0,10 L15,0 Z" class="cell_destination fill-4"/>
    <g s:x="0" s:y="10" s:pid="A"/>
  </g>
  <line x1="42" x2="118" y1="32" y2="32" class="net_2"/>
  <line x1="118" x2="118" y1="32" y2="77" class="net_2"/>
  <line x1="118" x2="192" y1="77" y2="77" class="net_2"/>
  <line x1="42" x2="192" y1="97" y2="97" class="net_3,4,5,6,7,8,9,10,11,12,13,14,15,16,17,18,19,20,21,22,23,24,25,26,27,28,29,30,31,32,33,34"/>
  <line x1="42" x2="118" y1="162" y2="162" class="net_35,36,37,38,39,40,41,42,43,44,45,46,47,48,49,50,51,52,53,54,55,56,57,58,59,60,61,62,63,64,65,66"/>
  <line x1="118" x2="118" y1="162" y2="117" class="net_35,36,37,38,39,40,41,42,43,44,45,46,47,48,49,50,51,52,53,54,55,56,57,58,59,60,61,62,63,64,65,66"/>
  <line x1="118" x2="192" y1="117" y2="117" class="net_35,36,37,38,39,40,41,42,43,44,45,46,47,48,49,50,51,52,53,54,55,56,57,58,59,60,61,62,63,64,65,66"/>
  <line x1="223" x2="325" y1="77" y2="77" class="net_67,68,69,70,71,72,73,74,75,76,77,78,79,80,81,82,83,84,85,86,87,88,89,90,91,92,93,94,95,96,97,98"/>
</svg>
