<svg xmlns="http://www.w3.org/2000/svg" xmlns:xlink="http://www.w3.org/1999/xlink" xmlns:s="https://github.com/nturley/netlistsvg" width="585" height="230">
  <style>  svg {
      stroke: #011e41;
      fill: none;
    }
    text {
      fill:#ffffff;
      stroke:none;
      font-size:10px;
      font-weight: bold;
      font-family: "Courier New", monospace;
    }
    .fill-1 { fill: #003262; }
    .fill-2 { fill: #011e41; stroke: #003262; }
    .fill-3 { fill: #ffffff; }
    .fill-4 { fill: #003262; }
    .fill-5 { fill: #011e41; stroke: #fdda64; }
    .text-1 { fill: #fdb515; }
    .text-2 { fill: #003262; }
    .text-3 { stroke: #fdda64; }
    .nodelabel { text-anchor: middle; }
    .inputPortLabel { text-anchor: end; }
    .splitjoinBody { fill: #3c3c43; }</style>
  <g s:type="generic" transform="translate(192,87)" s:width="30" s:height="40" id="cell_adder_1">
    <text x="15" y="-4" class="nodelabel text-1 cell_adder_1" s:attribute="ref">generic_adder_32_1</text>
    <rect width="30" height="40" s:generic="body" class="cell_adder_1 fill-1"/>
    <g transform="translate(0,10)" s:x="0" s:y="10" s:pid="in0" id="port_adder_1~source_1">
      <text x="-3" y="-4" class="inputPortLabel text-2 cell_adder_1">source_1</text>
    </g>
    <g transform="translate(0,30)" s:x="0" s:y="10" s:pid="in0" id="port_adder_1~source_2">
      <text x="-3" y="-4" class="inputPortLabel text-2 cell_adder_1">source_2</text>
    </g>
    <g transform="translate(30,10)" s:x="30" s:y="10" s:pid="out0" id="port_adder_1~destination">
      <text x="5" y="-4" class="cell_adder_1 text-2">destination</text>
    </g>
  </g>
  <g s:type="generic" transform="translate(192,175)" s:width="30" s:height="40" id="cell_adder_2">
    <text x="15" y="-4" class="nodelabel text-1 cell_adder_2" s:attribute="ref">generic_adder_32_1</text>
    <rect width="30" height="40" s:generic="body" class="cell_adder_2 fill-1"/>
    <g transform="translate(0,10)" s:x="0" s:y="10" s:pid="in0" id="port_adder_2~source_1">
      <text x="-3" y="-4" class="inputPortLabel text-2 cell_adder_2">source_1</text>
    </g>
    <g transform="translate(0,30)" s:x="0" s:y="10" s:pid="in0" id="port_adder_2~source_2">
      <text x="-3" y="-4" class="inputPortLabel text-2 cell_adder_2">source_2</text>
    </g>
    <g transform="translate(30,10)" s:x="30" s:y="10" s:pid="out0" id="port_adder_2~destination">
      <text x="5" y="-4" class="cell_adder_2 text-2">destination</text>
    </g>
  </g>
  <g s:type="generic" transform="translate(374,67)" s:width="30" s:height="40" id="cell_mux_1">
    <text x="15" y="-4" class="nodelabel text-1 cell_mux_1" s:attribute="ref">generic_mux_2x1_32</text>
    <rect width="30" height="60" s:generic="body" class="cell_mux_1 fill-1"/>
    <g transform="translate(0,10)" s:x="0" s:y="10" s:pid="in0" id="port_mux_1~selector">
      <text x="-3" y="-4" class="inputPortLabel text-2 cell_mux_1">selector</text>
    </g>
    <g transform="translate(0,30)" s:x="0" s:y="10" s:pid="in0" id="port_mux_1~source_1">
      <text x="-3" y="-4" class="inputPortLabel text-2 cell_mux_1">source_1</text>
    </g>
    <g transform="translate(0,50)" s:x="0" s:y="10" s:pid="in0" id="port_mux_1~source_2">
      <text x="-3" y="-4" class="inputPortLabel text-2 cell_mux_1">source_2</text>
    </g>
    <g transform="translate(30,10)" s:x="30" s:y="10" s:pid="out0" id="port_mux_1~destination">
      <text x="5" y="-4" class="cell_mux_1 text-2">destination</text>
    </g>
  </g>
  <g s:type="inputExt" transform="translate(192,22)" s:width="30" s:height="20" id="cell_selector">
    <text x="15" y="-4" class="nodelabel text-1 cell_selector" s:attribute="ref">selector</text>
    <s:alias val="$_inputExt_"/>
    <path d="M0,0 L0,20 L15,20 L30,10 L15,0 Z" class="cell_selector fill-4"/>
    <g s:x="30" s:y="10" s:pid="Y"/>
  </g>
  <g s:type="inputExt" transform="translate(12,42.5)" s:width="30" s:height="20" id="cell_source_program">
    <text x="15" y="-4" class="nodelabel text-1 cell_source_program" s:attribute="ref">source_program</text>
    <s:alias val="$_inputExt_"/>
    <path d="M0,0 L0,20 L15,20 L30,10 L15,0 Z" class="cell_source_program fill-4"/>
    <g s:x="30" s:y="10" s:pid="Y"/>
  </g>
  <g s:type="inputExt" transform="translate(12,107.5)" s:width="30" s:height="20" id="cell_source_immediate">
    <text x="15" y="-4" class="nodelabel text-1 cell_source_immediate" s:attribute="ref">source_immediate</text>
    <s:alias val="$_inputExt_"/>
    <path d="M0,0 L0,20 L15,20 L30,10 L15,0 Z" class="cell_source_immediate fill-4"/>
    <g s:x="30" s:y="10" s:pid="Y"/>
  </g>
  <g s:type="inputExt" transform="translate(12,195.5)" s:width="30" s:height="20" id="cell_source_register">
    <text x="15" y="-4" class="nodelabel text-1 cell_source_register" s:attribute="ref">source_register</text>
    <s:alias val="$_inputExt_"/>
    <path d="M0,0 L0,20 L15,20 L30,10 L15,0 Z" class="cell_source_register fill-4"/>
    <g s:x="30" s:y="10" s:pid="Y"/>
  </g>
  <g s:type="outputExt" transform="translate(507,67.5)" s:width="30" s:height="20" id="cell_destination">
    <text x="15" y="-4" class="nodelabel text-1 cell_destination" s:attribute="ref">destination</text>
    <s:alias val="$_outputExt_"/>
    <path d="M30,0 L30,20 L15,20 L0,10 L15,0 Z" class="cell_destination fill-4"/>
    <g s:x="0" s:y="10" s:pid="A"/>
  </g>
  <line x1="42" x2="118" y1="52.5" y2="52.5" class="net_3,4,5,6,7,8,9,10,11,12,13,14,15,16,17,18,19,20,21,22,23,24,25,26,27,28,29,30,31,32,33,34"/>
  <line x1="118" x2="118" y1="52.5" y2="97.5" class="net_3,4,5,6,7,8,9,10,11,12,13,14,15,16,17,18,19,20,21,22,23,24,25,26,27,28,29,30,31,32,33,34"/>
  <line x1="118" x2="192" y1="97.5" y2="97.5" class="net_3,4,5,6,7,8,9,10,11,12,13,14,15,16,17,18,19,20,21,22,23,24,25,26,27,28,29,30,31,32,33,34"/>
  <line x1="42" x2="192" y1="117.5" y2="117.5" class="net_35,36,37,38,39,40,41,42,43,44,45,46,47,48,49,50,51,52,53,54,55,56,57,58,59,60,61,62,63,64,65,66"/>
  <line x1="42" x2="118" y1="117.5" y2="117.5" class="net_35,36,37,38,39,40,41,42,43,44,45,46,47,48,49,50,51,52,53,54,55,56,57,58,59,60,61,62,63,64,65,66"/>
  <line x1="118" x2="118" y1="117.5" y2="185.5" class="net_35,36,37,38,39,40,41,42,43,44,45,46,47,48,49,50,51,52,53,54,55,56,57,58,59,60,61,62,63,64,65,66"/>
  <circle cx="118" cy="117.5" r="2" style="fill:#000" class="net_35,36,37,38,39,40,41,42,43,44,45,46,47,48,49,50,51,52,53,54,55,56,57,58,59,60,61,62,63,64,65,66"/>
  <line x1="118" x2="192" y1="185.5" y2="185.5" class="net_35,36,37,38,39,40,41,42,43,44,45,46,47,48,49,50,51,52,53,54,55,56,57,58,59,60,61,62,63,64,65,66"/>
  <line x1="42" x2="192" y1="205.5" y2="205.5" class="net_67,68,69,70,71,72,73,74,75,76,77,78,79,80,81,82,83,84,85,86,87,88,89,90,91,92,93,94,95,96,97,98"/>
  <line x1="222" x2="300" y1="32" y2="32" class="net_2"/>
  <line x1="300" x2="300" y1="32" y2="77.5" class="net_2"/>
  <line x1="300" x2="374" y1="77.5" y2="77.5" class="net_2"/>
  <line x1="223" x2="374" y1="97.5" y2="97.5" class="net_131,132,133,134,135,136,137,138,139,140,141,142,143,144,145,146,147,148,149,150,151,152,153,154,155,156,157,158,159,160,161,162"/>
  <line x1="223" x2="300" y1="185.5" y2="185.5" class="net_163,164,165,166,167,168,169,170,171,172,173,174,175,176,177,178,179,180,181,182,183,184,185,186,187,188,189,190,191,192,193,194"/>
  <line x1="300" x2="300" y1="185.5" y2="117.5" class="net_163,164,165,166,167,168,169,170,171,172,173,174,175,176,177,178,179,180,181,182,183,184,185,186,187,188,189,190,191,192,193,194"/>
  <line x1="300" x2="374" y1="117.5" y2="117.5" class="net_163,164,165,166,167,168,169,170,171,172,173,174,175,176,177,178,179,180,181,182,183,184,185,186,187,188,189,190,191,192,193,194"/>
  <line x1="405" x2="507" y1="77.5" y2="77.5" class="net_99,100,101,102,103,104,105,106,107,108,109,110,111,112,113,114,115,116,117,118,119,120,121,122,123,124,125,126,127,128,129,130"/>
</svg>
