<svg xmlns="http://www.w3.org/2000/svg" xmlns:xlink="http://www.w3.org/1999/xlink" xmlns:s="https://github.com/nturley/netlistsvg" width="1016" height="976">
  <style>  svg {
      stroke: #011e41;
      fill: none;
    }
    text {
      fill:#ffffff;
      stroke:none;
      font-size:10px;
      font-weight: bold;
      font-family: "Courier New", monospace;
    }
    .fill-1 { fill: #003262; }
    .fill-2 { fill: #011e41; stroke: #003262; }
    .fill-3 { fill: #ffffff; }
    .fill-4 { fill: #003262; }
    .fill-5 { fill: #011e41; stroke: #fdda64; }
    .text-1 { fill: #fdb515; }
    .text-2 { fill: #003262; }
    .text-3 { stroke: #fdda64; }
    .nodelabel { text-anchor: middle; }
    .inputPortLabel { text-anchor: end; }
    .splitjoinBody { fill: #3c3c43; }</style>
  <g s:type="generic" transform="translate(515,833)" s:width="30" s:height="40" id="cell_adder_1">
    <text x="15" y="-4" class="nodelabel text-1 cell_adder_1" s:attribute="ref">generic_adder_32_1</text>
    <rect width="30" height="40" s:generic="body" class="cell_adder_1 fill-1"/>
    <g transform="translate(0,10)" s:x="0" s:y="10" s:pid="in0" id="port_adder_1~source_1">
      <text x="-3" y="-4" class="inputPortLabel text-2 cell_adder_1">source_1</text>
    </g>
    <g transform="translate(0,30)" s:x="0" s:y="10" s:pid="in0" id="port_adder_1~source_2">
      <text x="-3" y="-4" class="inputPortLabel text-2 cell_adder_1">source_2</text>
    </g>
    <g transform="translate(30,10)" s:x="30" s:y="10" s:pid="out0" id="port_adder_1~destination">
      <text x="5" y="-4" class="cell_adder_1 text-2">destination</text>
    </g>
  </g>
  <g s:type="generic" transform="translate(515,921)" s:width="30" s:height="40" id="cell_adder_2">
    <text x="15" y="-4" class="nodelabel text-1 cell_adder_2" s:attribute="ref">generic_adder_32_1</text>
    <rect width="30" height="40" s:generic="body" class="cell_adder_2 fill-1"/>
    <g transform="translate(0,10)" s:x="0" s:y="10" s:pid="in0" id="port_adder_2~source_1">
      <text x="-3" y="-4" class="inputPortLabel text-2 cell_adder_2">source_1</text>
    </g>
    <g transform="translate(0,30)" s:x="0" s:y="10" s:pid="in0" id="port_adder_2~source_2">
      <text x="-3" y="-4" class="inputPortLabel text-2 cell_adder_2">source_2</text>
    </g>
    <g transform="translate(30,10)" s:x="30" s:y="10" s:pid="out0" id="port_adder_2~destination">
      <text x="5" y="-4" class="cell_adder_2 text-2">destination</text>
    </g>
  </g>
  <g s:type="generic" transform="translate(180,211.5)" s:width="30" s:height="40" id="cell_control_unit">
    <text x="15" y="-4" class="nodelabel text-1 cell_control_unit" s:attribute="ref">rv32i_instruction_decoder</text>
    <rect width="30" height="320" s:generic="body" class="cell_control_unit fill-1"/>
    <g transform="translate(0,10)" s:x="0" s:y="10" s:pid="in0" id="port_control_unit~instruction">
      <text x="-3" y="-4" class="inputPortLabel text-2 cell_control_unit">instruction</text>
    </g>
    <g transform="translate(30,10)" s:x="30" s:y="10" s:pid="out0" id="port_control_unit~control_ex select_operation">
      <text x="5" y="-4" class="cell_control_unit text-2">control_ex select_operation</text>
    </g>
    <g transform="translate(30,30)" s:x="30" s:y="10" s:pid="out0" id="port_control_unit~control_ex select_source_1">
      <text x="5" y="-4" class="cell_control_unit text-2">control_ex select_source_1</text>
    </g>
    <g transform="translate(30,50)" s:x="30" s:y="10" s:pid="out0" id="port_control_unit~control_ex select_source_2">
      <text x="5" y="-4" class="cell_control_unit text-2">control_ex select_source_2</text>
    </g>
    <g transform="translate(30,70)" s:x="30" s:y="10" s:pid="out0" id="port_control_unit~control_id enable_flush_id">
      <text x="5" y="-4" class="cell_control_unit text-2">control_id enable_flush_id</text>
    </g>
    <g transform="translate(30,90)" s:x="30" s:y="10" s:pid="out0" id="port_control_unit~control_id enable_flux_ex">
      <text x="5" y="-4" class="cell_control_unit text-2">control_id enable_flux_ex</text>
    </g>
    <g transform="translate(30,110)" s:x="30" s:y="10" s:pid="out0" id="port_control_unit~control_id enable_jump">
      <text x="5" y="-4" class="cell_control_unit text-2">control_id enable_jump</text>
    </g>
    <g transform="translate(30,130)" s:x="30" s:y="10" s:pid="out0" id="port_control_unit~control_id select_jump">
      <text x="5" y="-4" class="cell_control_unit text-2">control_id select_jump</text>
    </g>
    <g transform="translate(30,150)" s:x="30" s:y="10" s:pid="out0" id="port_control_unit~control_if enable_flush">
      <text x="5" y="-4" class="cell_control_unit text-2">control_if enable_flush</text>
    </g>
    <g transform="translate(30,170)" s:x="30" s:y="10" s:pid="out0" id="port_control_unit~control_if enable_jump">
      <text x="5" y="-4" class="cell_control_unit text-2">control_if enable_jump</text>
    </g>
    <g transform="translate(30,190)" s:x="30" s:y="10" s:pid="out0" id="port_control_unit~control_if enable_stall">
      <text x="5" y="-4" class="cell_control_unit text-2">control_if enable_stall</text>
    </g>
    <g transform="translate(30,210)" s:x="30" s:y="10" s:pid="out0" id="port_control_unit~control_if select_source">
      <text x="5" y="-4" class="cell_control_unit text-2">control_if select_source</text>
    </g>
    <g transform="translate(30,230)" s:x="30" s:y="10" s:pid="out0" id="port_control_unit~control_mem enable_read">
      <text x="5" y="-4" class="cell_control_unit text-2">control_mem enable_read</text>
    </g>
    <g transform="translate(30,250)" s:x="30" s:y="10" s:pid="out0" id="port_control_unit~control_mem enable_write">
      <text x="5" y="-4" class="cell_control_unit text-2">control_mem enable_write</text>
    </g>
    <g transform="translate(30,270)" s:x="30" s:y="10" s:pid="out0" id="port_control_unit~control_wb enable_destination">
      <text x="5" y="-4" class="cell_control_unit text-2">control_wb enable_destination</text>
    </g>
    <g transform="translate(30,290)" s:x="30" s:y="10" s:pid="out0" id="port_control_unit~control_wb select_destination">
      <text x="5" y="-4" class="cell_control_unit text-2">control_wb select_destination</text>
    </g>
    <g transform="translate(30,310)" s:x="30" s:y="10" s:pid="out0" id="port_control_unit~immediate">
      <text x="5" y="-4" class="cell_control_unit text-2">immediate</text>
    </g>
  </g>
  <g s:type="generic" transform="translate(697,671.5)" s:width="30" s:height="40" id="cell_mux">
    <text x="15" y="-4" class="nodelabel text-1 cell_mux" s:attribute="ref">generic_mux_2x1_32</text>
    <rect width="30" height="60" s:generic="body" class="cell_mux fill-1"/>
    <g transform="translate(0,10)" s:x="0" s:y="10" s:pid="in0" id="port_mux~selector">
      <text x="-3" y="-4" class="inputPortLabel text-2 cell_mux">selector</text>
    </g>
    <g transform="translate(0,30)" s:x="0" s:y="10" s:pid="in0" id="port_mux~source_1">
      <text x="-3" y="-4" class="inputPortLabel text-2 cell_mux">source_1</text>
    </g>
    <g transform="translate(0,50)" s:x="0" s:y="10" s:pid="in0" id="port_mux~source_2">
      <text x="-3" y="-4" class="inputPortLabel text-2 cell_mux">source_2</text>
    </g>
    <g transform="translate(30,10)" s:x="30" s:y="10" s:pid="out0" id="port_mux~destination">
      <text x="5" y="-4" class="cell_mux text-2">destination</text>
    </g>
  </g>
  <g s:type="inputExt" transform="translate(12,212)" s:width="30" s:height="20" id="cell_instruction">
    <text x="15" y="-4" class="nodelabel text-1 cell_instruction" s:attribute="ref">instruction</text>
    <s:alias val="$_inputExt_"/>
    <path d="M0,0 L0,20 L15,20 L30,10 L15,0 Z" class="cell_instruction fill-4"/>
    <g s:x="30" s:y="10" s:pid="Y"/>
  </g>
  <g s:type="inputExt" transform="translate(180,833.5)" s:width="30" s:height="20" id="cell_address_program">
    <text x="15" y="-4" class="nodelabel text-1 cell_address_program" s:attribute="ref">address_program</text>
    <s:alias val="$_inputExt_"/>
    <path d="M0,0 L0,20 L15,20 L30,10 L15,0 Z" class="cell_address_program fill-4"/>
    <g s:x="30" s:y="10" s:pid="Y"/>
  </g>
  <g s:type="inputExt" transform="translate(180,941.5)" s:width="30" s:height="20" id="cell_data_source_1">
    <text x="15" y="-4" class="nodelabel text-1 cell_data_source_1" s:attribute="ref">data_source_1</text>
    <s:alias val="$_inputExt_"/>
    <path d="M0,0 L0,20 L15,20 L30,10 L15,0 Z" class="cell_data_source_1 fill-4"/>
    <g s:x="30" s:y="10" s:pid="Y"/>
  </g>
  <g s:type="outputExt" transform="translate(830,672)" s:width="30" s:height="20" id="cell_jump_address">
    <text x="15" y="-4" class="nodelabel text-1 cell_jump_address" s:attribute="ref">jump_address</text>
    <s:alias val="$_outputExt_"/>
    <path d="M30,0 L30,20 L15,20 L0,10 L15,0 Z" class="cell_jump_address fill-4"/>
    <g s:x="0" s:y="10" s:pid="A"/>
  </g>
  <g s:type="outputExt" transform="translate(830,802)" s:width="30" s:height="20" id="cell_immediate_source">
    <text x="15" y="-4" class="nodelabel text-1 cell_immediate_source" s:attribute="ref">immediate_source</text>
    <s:alias val="$_outputExt_"/>
    <path d="M30,0 L30,20 L15,20 L0,10 L15,0 Z" class="cell_immediate_source fill-4"/>
    <g s:x="0" s:y="10" s:pid="A"/>
  </g>
  <g s:type="outputExt" transform="translate(830,347)" s:width="30" s:height="20" id="cell_control_if enable_stall">
    <text x="15" y="-4" class="nodelabel text-1 cell_control_if enable_stall" s:attribute="ref">control_if enable_stall</text>
    <s:alias val="$_outputExt_"/>
    <path d="M30,0 L30,20 L15,20 L0,10 L15,0 Z" class="cell_control_if enable_stall fill-4"/>
    <g s:x="0" s:y="10" s:pid="A"/>
  </g>
  <g s:type="outputExt" transform="translate(830,217)" s:width="30" s:height="20" id="cell_control_if enable_flush">
    <text x="15" y="-4" class="nodelabel text-1 cell_control_if enable_flush" s:attribute="ref">control_if enable_flush</text>
    <s:alias val="$_outputExt_"/>
    <path d="M30,0 L30,20 L15,20 L0,10 L15,0 Z" class="cell_control_if enable_flush fill-4"/>
    <g s:x="0" s:y="10" s:pid="A"/>
  </g>
  <g s:type="outputExt" transform="translate(830,282)" s:width="30" s:height="20" id="cell_control_if enable_jump">
    <text x="15" y="-4" class="nodelabel text-1 cell_control_if enable_jump" s:attribute="ref">control_if enable_jump</text>
    <s:alias val="$_outputExt_"/>
    <path d="M30,0 L30,20 L15,20 L0,10 L15,0 Z" class="cell_control_if enable_jump fill-4"/>
    <g s:x="0" s:y="10" s:pid="A"/>
  </g>
  <g s:type="outputExt" transform="translate(830,412)" s:width="30" s:height="20" id="cell_control_if select_source">
    <text x="15" y="-4" class="nodelabel text-1 cell_control_if select_source" s:attribute="ref">control_if select_source</text>
    <s:alias val="$_outputExt_"/>
    <path d="M30,0 L30,20 L15,20 L0,10 L15,0 Z" class="cell_control_if select_source fill-4"/>
    <g s:x="0" s:y="10" s:pid="A"/>
  </g>
  <g s:type="outputExt" transform="translate(830,87)" s:width="30" s:height="20" id="cell_control_ex select_source_1">
    <text x="15" y="-4" class="nodelabel text-1 cell_control_ex select_source_1" s:attribute="ref">control_ex select_source_1</text>
    <s:alias val="$_outputExt_"/>
    <path d="M30,0 L30,20 L15,20 L0,10 L15,0 Z" class="cell_control_ex select_source_1 fill-4"/>
    <g s:x="0" s:y="10" s:pid="A"/>
  </g>
  <g s:type="outputExt" transform="translate(830,152)" s:width="30" s:height="20" id="cell_control_ex select_source_2">
    <text x="15" y="-4" class="nodelabel text-1 cell_control_ex select_source_2" s:attribute="ref">control_ex select_source_2</text>
    <s:alias val="$_outputExt_"/>
    <path d="M30,0 L30,20 L15,20 L0,10 L15,0 Z" class="cell_control_ex select_source_2 fill-4"/>
    <g s:x="0" s:y="10" s:pid="A"/>
  </g>
  <g s:type="outputExt" transform="translate(830,22)" s:width="30" s:height="20" id="cell_control_ex select_operation">
    <text x="15" y="-4" class="nodelabel text-1 cell_control_ex select_operation" s:attribute="ref">control_ex select_operation</text>
    <s:alias val="$_outputExt_"/>
    <path d="M30,0 L30,20 L15,20 L0,10 L15,0 Z" class="cell_control_ex select_operation fill-4"/>
    <g s:x="0" s:y="10" s:pid="A"/>
  </g>
  <g s:type="outputExt" transform="translate(830,477)" s:width="30" s:height="20" id="cell_control_mem enable_read">
    <text x="15" y="-4" class="nodelabel text-1 cell_control_mem enable_read" s:attribute="ref">control_mem enable_read</text>
    <s:alias val="$_outputExt_"/>
    <path d="M30,0 L30,20 L15,20 L0,10 L15,0 Z" class="cell_control_mem enable_read fill-4"/>
    <g s:x="0" s:y="10" s:pid="A"/>
  </g>
  <g s:type="outputExt" transform="translate(830,542)" s:width="30" s:height="20" id="cell_control_mem enable_write">
    <text x="15" y="-4" class="nodelabel text-1 cell_control_mem enable_write" s:attribute="ref">control_mem enable_write</text>
    <s:alias val="$_outputExt_"/>
    <path d="M30,0 L30,20 L15,20 L0,10 L15,0 Z" class="cell_control_mem enable_write fill-4"/>
    <g s:x="0" s:y="10" s:pid="A"/>
  </g>
  <g s:type="outputExt" transform="translate(830,607)" s:width="30" s:height="20" id="cell_control_wb enable_destination">
    <text x="15" y="-4" class="nodelabel text-1 cell_control_wb enable_destination" s:attribute="ref">control_wb enable_destination</text>
    <s:alias val="$_outputExt_"/>
    <path d="M30,0 L30,20 L15,20 L0,10 L15,0 Z" class="cell_control_wb enable_destination fill-4"/>
    <g s:x="0" s:y="10" s:pid="A"/>
  </g>
  <g s:type="outputExt" transform="translate(830,737)" s:width="30" s:height="20" id="cell_control_wb select_destination">
    <text x="15" y="-4" class="nodelabel text-1 cell_control_wb select_destination" s:attribute="ref">control_wb select_destination</text>
    <s:alias val="$_outputExt_"/>
    <path d="M30,0 L30,20 L15,20 L0,10 L15,0 Z" class="cell_control_wb select_destination fill-4"/>
    <g s:x="0" s:y="10" s:pid="A"/>
  </g>
  <line x1="210" x2="515" y1="843.5" y2="843.5" class="net_34,35,36,37,38,39,40,41,42,43,44,45,46,47,48,49,50,51,52,53,54,55,56,57,58,59,60,61,62,63,64,65"/>
  <line x1="211" x2="396" y1="522" y2="522" class="net_130,131,132,133,134,135,136,137,138,139,140,141,142,143,144,145,146,147,148,149,150,151,152,153,154,155,156,157,158,159,160,161"/>
  <line x1="396" x2="396" y1="522" y2="863.5" class="net_130,131,132,133,134,135,136,137,138,139,140,141,142,143,144,145,146,147,148,149,150,151,152,153,154,155,156,157,158,159,160,161"/>
  <circle cx="396" cy="863.5" r="2" style="fill:#000" class="net_130,131,132,133,134,135,136,137,138,139,140,141,142,143,144,145,146,147,148,149,150,151,152,153,154,155,156,157,158,159,160,161"/>
  <line x1="396" x2="515" y1="863.5" y2="863.5" class="net_130,131,132,133,134,135,136,137,138,139,140,141,142,143,144,145,146,147,148,149,150,151,152,153,154,155,156,157,158,159,160,161"/>
  <line x1="211" x2="396" y1="522" y2="522" class="net_130,131,132,133,134,135,136,137,138,139,140,141,142,143,144,145,146,147,148,149,150,151,152,153,154,155,156,157,158,159,160,161"/>
  <line x1="396" x2="396" y1="522" y2="931.5" class="net_130,131,132,133,134,135,136,137,138,139,140,141,142,143,144,145,146,147,148,149,150,151,152,153,154,155,156,157,158,159,160,161"/>
  <line x1="396" x2="515" y1="931.5" y2="931.5" class="net_130,131,132,133,134,135,136,137,138,139,140,141,142,143,144,145,146,147,148,149,150,151,152,153,154,155,156,157,158,159,160,161"/>
  <line x1="211" x2="396" y1="522" y2="522" class="net_130,131,132,133,134,135,136,137,138,139,140,141,142,143,144,145,146,147,148,149,150,151,152,153,154,155,156,157,158,159,160,161"/>
  <line x1="396" x2="396" y1="522" y2="812" class="net_130,131,132,133,134,135,136,137,138,139,140,141,142,143,144,145,146,147,148,149,150,151,152,153,154,155,156,157,158,159,160,161"/>
  <circle cx="396" cy="812" r="2" style="fill:#000" class="net_130,131,132,133,134,135,136,137,138,139,140,141,142,143,144,145,146,147,148,149,150,151,152,153,154,155,156,157,158,159,160,161"/>
  <line x1="396" x2="830" y1="812" y2="812" class="net_130,131,132,133,134,135,136,137,138,139,140,141,142,143,144,145,146,147,148,149,150,151,152,153,154,155,156,157,158,159,160,161"/>
  <line x1="210" x2="515" y1="951.5" y2="951.5" class="net_66,67,68,69,70,71,72,73,74,75,76,77,78,79,80,81,82,83,84,85,86,87,88,89,90,91,92,93,94,95,96,97"/>
  <line x1="42" x2="180" y1="222" y2="222" class="net_2,3,4,5,6,7,8,9,10,11,12,13,14,15,16,17,18,19,20,21,22,23,24,25,26,27,28,29,30,31,32,33"/>
  <line x1="211" x2="426" y1="342" y2="342" class="net_243"/>
  <line x1="426" x2="426" y1="342" y2="173" class="net_243"/>
  <line x1="426" x2="623" y1="173" y2="173" class="net_243"/>
  <line x1="623" x2="623" y1="173" y2="682" class="net_243"/>
  <line x1="623" x2="697" y1="682" y2="682" class="net_243"/>
  <line x1="546" x2="623" y1="843.5" y2="843.5" class="net_176,177,178,179,180,181,182,183,184,185,186,187,188,189,190,191,192,193,194,195,196,197,198,199,200,201,202,203,204,205,206,207"/>
  <line x1="623" x2="623" y1="843.5" y2="702" class="net_176,177,178,179,180,181,182,183,184,185,186,187,188,189,190,191,192,193,194,195,196,197,198,199,200,201,202,203,204,205,206,207"/>
  <line x1="623" x2="697" y1="702" y2="702" class="net_176,177,178,179,180,181,182,183,184,185,186,187,188,189,190,191,192,193,194,195,196,197,198,199,200,201,202,203,204,205,206,207"/>
  <line x1="546" x2="633" y1="931.5" y2="931.5" class="net_208,209,210,211,212,213,214,215,216,217,218,219,220,221,222,223,224,225,226,227,228,229,230,231,232,233,234,235,236,237,238,239"/>
  <line x1="633" x2="633" y1="931.5" y2="722" class="net_208,209,210,211,212,213,214,215,216,217,218,219,220,221,222,223,224,225,226,227,228,229,230,231,232,233,234,235,236,237,238,239"/>
  <line x1="633" x2="697" y1="722" y2="722" class="net_208,209,210,211,212,213,214,215,216,217,218,219,220,221,222,223,224,225,226,227,228,229,230,231,232,233,234,235,236,237,238,239"/>
  <line x1="728" x2="830" y1="682" y2="682" class="net_98,99,100,101,102,103,104,105,106,107,108,109,110,111,112,113,114,115,116,117,118,119,120,121,122,123,124,125,126,127,128,129"/>
  <line x1="211" x2="456" y1="402" y2="402" class="net_162"/>
  <line x1="456" x2="456" y1="402" y2="357" class="net_162"/>
  <line x1="456" x2="830" y1="357" y2="357" class="net_162"/>
  <line x1="211" x2="436" y1="362" y2="362" class="net_163"/>
  <line x1="436" x2="436" y1="362" y2="227" class="net_163"/>
  <line x1="436" x2="830" y1="227" y2="227" class="net_163"/>
  <line x1="211" x2="446" y1="382" y2="382" class="net_164"/>
  <line x1="446" x2="446" y1="382" y2="292" class="net_164"/>
  <line x1="446" x2="830" y1="292" y2="292" class="net_164"/>
  <line x1="211" x2="830" y1="422" y2="422" class="net_165"/>
  <line x1="211" x2="406" y1="242" y2="242" class="net_166,167"/>
  <line x1="406" x2="406" y1="242" y2="97" class="net_166,167"/>
  <line x1="406" x2="830" y1="97" y2="97" class="net_166,167"/>
  <line x1="211" x2="416" y1="262" y2="262" class="net_168,169"/>
  <line x1="416" x2="416" y1="262" y2="162" class="net_168,169"/>
  <line x1="416" x2="830" y1="162" y2="162" class="net_168,169"/>
  <line x1="211" x2="396" y1="222" y2="222" class="net_170,171"/>
  <line x1="396" x2="396" y1="222" y2="32" class="net_170,171"/>
  <line x1="396" x2="830" y1="32" y2="32" class="net_170,171"/>
  <line x1="211" x2="436" y1="442" y2="442" class="net_172"/>
  <line x1="436" x2="436" y1="442" y2="487" class="net_172"/>
  <line x1="436" x2="830" y1="487" y2="487" class="net_172"/>
  <line x1="211" x2="426" y1="462" y2="462" class="net_173"/>
  <line x1="426" x2="426" y1="462" y2="552" class="net_173"/>
  <line x1="426" x2="830" y1="552" y2="552" class="net_173"/>
  <line x1="211" x2="416" y1="482" y2="482" class="net_174"/>
  <line x1="416" x2="416" y1="482" y2="617" class="net_174"/>
  <line x1="416" x2="830" y1="617" y2="617" class="net_174"/>
  <line x1="211" x2="406" y1="502" y2="502" class="net_175"/>
  <line x1="406" x2="406" y1="502" y2="747" class="net_175"/>
  <line x1="406" x2="830" y1="747" y2="747" class="net_175"/>
</svg>
