<svg xmlns="http://www.w3.org/2000/svg" xmlns:xlink="http://www.w3.org/1999/xlink" xmlns:s="https://github.com/nturley/netlistsvg" width="695" height="303">
  <style>  svg {
      stroke: #011e41;
      fill: none;
    }
    text {
      fill:#ffffff;
      stroke:none;
      font-size:10px;
      font-weight: bold;
      font-family: "Courier New", monospace;
    }
    .fill-1 { fill: #003262; }
    .fill-2 { fill: #011e41; stroke: #003262; }
    .fill-3 { fill: #ffffff; }
    .fill-4 { fill: #003262; }
    .fill-5 { fill: #011e41; stroke: #fdda64; }
    .text-1 { fill: #fdb515; }
    .text-2 { fill: #003262; }
    .text-3 { stroke: #fdda64; }
    .nodelabel { text-anchor: middle; }
    .inputPortLabel { text-anchor: end; }
    .splitjoinBody { fill: #3c3c43; }</style>
  <g s:type="generic" transform="translate(127,180.5)" s:width="30" s:height="40" id="cell_count_adder">
    <text x="15" y="-4" class="nodelabel text-1 cell_count_adder" s:attribute="ref">generic_adder_32_4</text>
    <rect width="30" height="40" s:generic="body" class="cell_count_adder fill-1"/>
    <g transform="translate(0,10)" s:x="0" s:y="10" s:pid="in0" id="port_count_adder~source_1">
      <text x="-3" y="-4" class="inputPortLabel text-2 cell_count_adder">source_1</text>
    </g>
    <g transform="translate(0,30)" s:x="0" s:y="10" s:pid="in0" id="port_count_adder~source_2">
      <text x="-3" y="-4" class="inputPortLabel text-2 cell_count_adder">source_2</text>
    </g>
    <g transform="translate(30,10)" s:x="30" s:y="10" s:pid="out0" id="port_count_adder~destination">
      <text x="5" y="-4" class="cell_count_adder text-2">destination</text>
    </g>
  </g>
  <g s:type="generic" transform="translate(484,168)" s:width="30" s:height="40" id="cell_count_register">
    <text x="15" y="-4" class="nodelabel text-1 cell_count_register" s:attribute="ref">generic_register_32</text>
    <rect width="30" height="80" s:generic="body" class="cell_count_register fill-1"/>
    <g transform="translate(0,10)" s:x="0" s:y="10" s:pid="in0" id="port_count_register~clear">
      <text x="-3" y="-4" class="inputPortLabel text-2 cell_count_register">clear</text>
    </g>
    <g transform="translate(0,30)" s:x="0" s:y="10" s:pid="in0" id="port_count_register~clock">
      <text x="-3" y="-4" class="inputPortLabel text-2 cell_count_register">clock</text>
    </g>
    <g transform="translate(0,50)" s:x="0" s:y="10" s:pid="in0" id="port_count_register~enable">
      <text x="-3" y="-4" class="inputPortLabel text-2 cell_count_register">enable</text>
    </g>
    <g transform="translate(0,70)" s:x="0" s:y="10" s:pid="in0" id="port_count_register~source">
      <text x="-3" y="-4" class="inputPortLabel text-2 cell_count_register">source</text>
    </g>
    <g transform="translate(30,10)" s:x="30" s:y="10" s:pid="out0" id="port_count_register~destination">
      <text x="5" y="-4" class="cell_count_register text-2">destination</text>
    </g>
  </g>
  <g s:type="generic" transform="translate(309,228)" s:width="30" s:height="40" id="cell_mux_source">
    <text x="15" y="-4" class="nodelabel text-1 cell_mux_source" s:attribute="ref">generic_mux_2x1_32</text>
    <rect width="30" height="60" s:generic="body" class="cell_mux_source fill-1"/>
    <g transform="translate(0,10)" s:x="0" s:y="10" s:pid="in0" id="port_mux_source~selector">
      <text x="-3" y="-4" class="inputPortLabel text-2 cell_mux_source">selector</text>
    </g>
    <g transform="translate(0,30)" s:x="0" s:y="10" s:pid="in0" id="port_mux_source~source_1">
      <text x="-3" y="-4" class="inputPortLabel text-2 cell_mux_source">source_1</text>
    </g>
    <g transform="translate(0,50)" s:x="0" s:y="10" s:pid="in0" id="port_mux_source~source_2">
      <text x="-3" y="-4" class="inputPortLabel text-2 cell_mux_source">source_2</text>
    </g>
    <g transform="translate(30,10)" s:x="30" s:y="10" s:pid="out0" id="port_mux_source~destination">
      <text x="5" y="-4" class="cell_mux_source text-2">destination</text>
    </g>
  </g>
  <g s:type="inputExt" transform="translate(309,98)" s:width="30" s:height="20" id="cell_clock">
    <text x="15" y="-4" class="nodelabel text-1 cell_clock" s:attribute="ref">clock</text>
    <s:alias val="$_inputExt_"/>
    <path d="M0,0 L0,20 L15,20 L30,10 L15,0 Z" class="cell_clock fill-4"/>
    <g s:x="30" s:y="10" s:pid="Y"/>
  </g>
  <g s:type="inputExt" transform="translate(309,33)" s:width="30" s:height="20" id="cell_clear">
    <text x="15" y="-4" class="nodelabel text-1 cell_clear" s:attribute="ref">clear</text>
    <s:alias val="$_inputExt_"/>
    <path d="M0,0 L0,20 L15,20 L30,10 L15,0 Z" class="cell_clear fill-4"/>
    <g s:x="30" s:y="10" s:pid="Y"/>
  </g>
  <g s:type="inputExt" transform="translate(309,163)" s:width="30" s:height="20" id="cell_enable">
    <text x="15" y="-4" class="nodelabel text-1 cell_enable" s:attribute="ref">enable</text>
    <s:alias val="$_inputExt_"/>
    <path d="M0,0 L0,20 L15,20 L30,10 L15,0 Z" class="cell_enable fill-4"/>
    <g s:x="30" s:y="10" s:pid="Y"/>
  </g>
  <g s:type="inputExt" transform="translate(127,115.5)" s:width="30" s:height="20" id="cell_selector">
    <text x="15" y="-4" class="nodelabel text-1 cell_selector" s:attribute="ref">selector</text>
    <s:alias val="$_inputExt_"/>
    <path d="M0,0 L0,20 L15,20 L30,10 L15,0 Z" class="cell_selector fill-4"/>
    <g s:x="30" s:y="10" s:pid="Y"/>
  </g>
  <g s:type="inputExt" transform="translate(127,268.5)" s:width="30" s:height="20" id="cell_source">
    <text x="15" y="-4" class="nodelabel text-1 cell_source" s:attribute="ref">source</text>
    <s:alias val="$_inputExt_"/>
    <path d="M0,0 L0,20 L15,20 L30,10 L15,0 Z" class="cell_source fill-4"/>
    <g s:x="30" s:y="10" s:pid="Y"/>
  </g>
  <g s:type="outputExt" transform="translate(617,168.5)" s:width="30" s:height="20" id="cell_destination">
    <text x="15" y="-4" class="nodelabel text-1 cell_destination" s:attribute="ref">destination</text>
    <s:alias val="$_outputExt_"/>
    <path d="M30,0 L30,20 L15,20 L0,10 L15,0 Z" class="cell_destination fill-4"/>
    <g s:x="0" s:y="10" s:pid="A"/>
  </g>
  <g s:type="constant" transform="translate(12,201)" s:width="30" s:height="20" id="cell_00000000000000000000000000000100">
    <text x="15" y="-4" class="nodelabel text-1 cell_00000000000000000000000000000100" s:attribute="ref">0x4</text>
    <s:alias val="$_constant_"/>
    <rect width="30" height="20" class="cell_00000000000000000000000000000100 fill-4"/>
    <g s:x="31" s:y="10" s:pid="Y"/>
  </g>
  <line x1="515" x2="592" y1="178.5" y2="178.5" class="net_38,39,40,41,42,43,44,45,46,47,48,49,50,51,52,53,54,55,56,57,58,59,60,61,62,63,64,65,66,67,68,69"/>
  <line x1="592" x2="592" y1="178.5" y2="12" class="net_38,39,40,41,42,43,44,45,46,47,48,49,50,51,52,53,54,55,56,57,58,59,60,61,62,63,64,65,66,67,68,69"/>
  <line x1="592" x2="53" y1="12" y2="12" class="net_38,39,40,41,42,43,44,45,46,47,48,49,50,51,52,53,54,55,56,57,58,59,60,61,62,63,64,65,66,67,68,69"/>
  <line x1="53" x2="53" y1="12" y2="191" class="net_38,39,40,41,42,43,44,45,46,47,48,49,50,51,52,53,54,55,56,57,58,59,60,61,62,63,64,65,66,67,68,69"/>
  <circle cx="592" cy="178.5" r="2" style="fill:#000" class="net_38,39,40,41,42,43,44,45,46,47,48,49,50,51,52,53,54,55,56,57,58,59,60,61,62,63,64,65,66,67,68,69"/>
  <line x1="53" x2="127" y1="191" y2="191" class="net_38,39,40,41,42,43,44,45,46,47,48,49,50,51,52,53,54,55,56,57,58,59,60,61,62,63,64,65,66,67,68,69"/>
  <line x1="515" x2="617" y1="178.5" y2="178.5" class="net_38,39,40,41,42,43,44,45,46,47,48,49,50,51,52,53,54,55,56,57,58,59,60,61,62,63,64,65,66,67,68,69"/>
  <line x1="43" x2="127" y1="211" y2="211" class="net_134,135,136,137,138,139,140,141,142,143,144,145,146,147,148,149,150,151,152,153,154,155,156,157,158,159,160,161,162,163,164,165"/>
  <line x1="339" x2="437" y1="43" y2="43" class="net_3"/>
  <line x1="437" x2="437" y1="43" y2="178.5" class="net_3"/>
  <line x1="437" x2="484" y1="178.5" y2="178.5" class="net_3"/>
  <line x1="339" x2="427" y1="108" y2="108" class="net_2"/>
  <line x1="427" x2="427" y1="108" y2="198.5" class="net_2"/>
  <line x1="427" x2="484" y1="198.5" y2="198.5" class="net_2"/>
  <line x1="339" x2="417" y1="173" y2="173" class="net_4"/>
  <line x1="417" x2="417" y1="173" y2="218.5" class="net_4"/>
  <line x1="417" x2="484" y1="218.5" y2="218.5" class="net_4"/>
  <line x1="340" x2="484" y1="238.5" y2="238.5" class="net_102,103,104,105,106,107,108,109,110,111,112,113,114,115,116,117,118,119,120,121,122,123,124,125,126,127,128,129,130,131,132,133"/>
  <line x1="157" x2="245" y1="125.5" y2="125.5" class="net_5"/>
  <line x1="245" x2="245" y1="125.5" y2="238.5" class="net_5"/>
  <line x1="245" x2="309" y1="238.5" y2="238.5" class="net_5"/>
  <line x1="158" x2="235" y1="191" y2="191" class="net_70,71,72,73,74,75,76,77,78,79,80,81,82,83,84,85,86,87,88,89,90,91,92,93,94,95,96,97,98,99,100,101"/>
  <line x1="235" x2="235" y1="191" y2="258.5" class="net_70,71,72,73,74,75,76,77,78,79,80,81,82,83,84,85,86,87,88,89,90,91,92,93,94,95,96,97,98,99,100,101"/>
  <line x1="235" x2="309" y1="258.5" y2="258.5" class="net_70,71,72,73,74,75,76,77,78,79,80,81,82,83,84,85,86,87,88,89,90,91,92,93,94,95,96,97,98,99,100,101"/>
  <line x1="157" x2="309" y1="278.5" y2="278.5" class="net_6,7,8,9,10,11,12,13,14,15,16,17,18,19,20,21,22,23,24,25,26,27,28,29,30,31,32,33,34,35,36,37"/>
</svg>
