<svg xmlns="http://www.w3.org/2000/svg" xmlns:xlink="http://www.w3.org/1999/xlink" xmlns:s="https://github.com/nturley/netlistsvg" width="651" height="487.5">
  <style>  svg {
      stroke: #011e41;
      fill: none;
    }
    text {
      fill:#ffffff;
      stroke:none;
      font-size:10px;
      font-weight: bold;
      font-family: "Courier New", monospace;
    }
    .fill-1 { fill: #003262; }
    .fill-2 { fill: #011e41; stroke: #003262; }
    .fill-3 { fill: #ffffff; }
    .fill-4 { fill: #003262; }
    .fill-5 { fill: #011e41; stroke: #fdda64; }
    .text-1 { fill: #fdb515; }
    .text-2 { fill: #003262; }
    .text-3 { stroke: #fdda64; }
    .nodelabel { text-anchor: middle; }
    .inputPortLabel { text-anchor: end; }
    .splitjoinBody { fill: #3c3c43; }</style>
  <g s:type="mux" transform="translate(327,381)" s:width="20" s:height="40" id="cell_\13">
    <s:alias val="$pmux"/>
    <s:alias val="$mux"/>
    <s:alias val="$_MUX_"/>
    <path d="M0,0 L20,10 L20,30 L0,40 Z" class="cell_\13 fill-1"/>
    <text x="5" y="32" class="nodelabel cell_\13" s:attribute="">1</text>
    <text x="5" y="13" class="nodelabel cell_\13" s:attribute="">0</text>
    <g s:x="0" s:y="10" s:pid="A"/>
    <g s:x="0" s:y="30" s:pid="B"/>
    <g s:x="10" s:y="35" s:pid="S"/>
    <g s:x="20" s:y="20" s:pid="Y"/>
  </g>
  <g s:type="mux" transform="translate(327,32)" s:width="20" s:height="40" id="cell_\16">
    <s:alias val="$pmux"/>
    <s:alias val="$mux"/>
    <s:alias val="$_MUX_"/>
    <path d="M0,0 L20,10 L20,30 L0,40 Z" class="cell_\16 fill-1"/>
    <text x="5" y="32" class="nodelabel cell_\16" s:attribute="">1</text>
    <text x="5" y="13" class="nodelabel cell_\16" s:attribute="">0</text>
    <g s:x="0" s:y="10" s:pid="A"/>
    <g s:x="0" s:y="30" s:pid="B"/>
    <g s:x="10" s:y="35" s:pid="S"/>
    <g s:x="20" s:y="20" s:pid="Y"/>
  </g>
  <g s:type="mux" transform="translate(327,174)" s:width="20" s:height="40" id="cell_\19">
    <s:alias val="$pmux"/>
    <s:alias val="$mux"/>
    <s:alias val="$_MUX_"/>
    <path d="M0,0 L20,10 L20,30 L0,40 Z" class="cell_\19 fill-1"/>
    <text x="5" y="32" class="nodelabel cell_\19" s:attribute="">1</text>
    <text x="5" y="13" class="nodelabel cell_\19" s:attribute="">0</text>
    <g s:x="0" s:y="10" s:pid="A"/>
    <g s:x="0" s:y="30" s:pid="B"/>
    <g s:x="10" s:y="35" s:pid="S"/>
    <g s:x="20" s:y="20" s:pid="Y"/>
  </g>
  <g s:type="inputExt" transform="translate(12,371)" s:width="30" s:height="20" id="cell_control_ex_in select_source_1">
    <text x="15" y="-4" class="nodelabel text-1 cell_control_ex_in select_source_1" s:attribute="ref">control_ex_in select_source_1</text>
    <s:alias val="$_inputExt_"/>
    <path d="M0,0 L0,20 L15,20 L30,10 L15,0 Z" class="cell_control_ex_in select_source_1 fill-4"/>
    <g s:x="30" s:y="10" s:pid="Y"/>
  </g>
  <g s:type="inputExt" transform="translate(12,436)" s:width="30" s:height="20" id="cell_control_ex_in select_source_2">
    <text x="15" y="-4" class="nodelabel text-1 cell_control_ex_in select_source_2" s:attribute="ref">control_ex_in select_source_2</text>
    <s:alias val="$_inputExt_"/>
    <path d="M0,0 L0,20 L15,20 L30,10 L15,0 Z" class="cell_control_ex_in select_source_2 fill-4"/>
    <g s:x="30" s:y="10" s:pid="Y"/>
  </g>
  <g s:type="inputExt" transform="translate(12,22)" s:width="30" s:height="20" id="cell_control_mem_in enable_read">
    <text x="15" y="-4" class="nodelabel text-1 cell_control_mem_in enable_read" s:attribute="ref">control_mem_in enable_read</text>
    <s:alias val="$_inputExt_"/>
    <path d="M0,0 L0,20 L15,20 L30,10 L15,0 Z" class="cell_control_mem_in enable_read fill-4"/>
    <g s:x="30" s:y="10" s:pid="Y"/>
  </g>
  <g s:type="inputExt" transform="translate(12,87)" s:width="30" s:height="20" id="cell_control_mem_in enable_write">
    <text x="15" y="-4" class="nodelabel text-1 cell_control_mem_in enable_write" s:attribute="ref">control_mem_in enable_write</text>
    <s:alias val="$_inputExt_"/>
    <path d="M0,0 L0,20 L15,20 L30,10 L15,0 Z" class="cell_control_mem_in enable_write fill-4"/>
    <g s:x="30" s:y="10" s:pid="Y"/>
  </g>
  <g s:type="inputExt" transform="translate(12,164)" s:width="30" s:height="20" id="cell_control_wb_in enable_destination">
    <text x="15" y="-4" class="nodelabel text-1 cell_control_wb_in enable_destination" s:attribute="ref">control_wb_in enable_destination</text>
    <s:alias val="$_inputExt_"/>
    <path d="M0,0 L0,20 L15,20 L30,10 L15,0 Z" class="cell_control_wb_in enable_destination fill-4"/>
    <g s:x="30" s:y="10" s:pid="Y"/>
  </g>
  <g s:type="inputExt" transform="translate(12,229)" s:width="30" s:height="20" id="cell_control_wb_in select_destination">
    <text x="15" y="-4" class="nodelabel text-1 cell_control_wb_in select_destination" s:attribute="ref">control_wb_in select_destination</text>
    <s:alias val="$_inputExt_"/>
    <path d="M0,0 L0,20 L15,20 L30,10 L15,0 Z" class="cell_control_wb_in select_destination fill-4"/>
    <g s:x="30" s:y="10" s:pid="Y"/>
  </g>
  <g s:type="inputExt" transform="translate(239,313.5)" s:width="30" s:height="20" id="cell_selector">
    <text x="15" y="-4" class="nodelabel text-1 cell_selector" s:attribute="ref">selector</text>
    <s:alias val="$_inputExt_"/>
    <path d="M0,0 L0,20 L15,20 L30,10 L15,0 Z" class="cell_selector fill-4"/>
    <g s:x="30" s:y="10" s:pid="Y"/>
  </g>
  <g s:type="outputExt" transform="translate(441,381)" s:width="30" s:height="20" id="cell_control_ex_out select_source_1">
    <text x="15" y="-4" class="nodelabel text-1 cell_control_ex_out select_source_1" s:attribute="ref">control_ex_out select_source_1</text>
    <s:alias val="$_outputExt_"/>
    <path d="M30,0 L30,20 L15,20 L0,10 L15,0 Z" class="cell_control_ex_out select_source_1 fill-4"/>
    <g s:x="0" s:y="10" s:pid="A"/>
  </g>
  <g s:type="outputExt" transform="translate(441,446)" s:width="30" s:height="20" id="cell_control_ex_out select_source_2">
    <text x="15" y="-4" class="nodelabel text-1 cell_control_ex_out select_source_2" s:attribute="ref">control_ex_out select_source_2</text>
    <s:alias val="$_outputExt_"/>
    <path d="M30,0 L30,20 L15,20 L0,10 L15,0 Z" class="cell_control_ex_out select_source_2 fill-4"/>
    <g s:x="0" s:y="10" s:pid="A"/>
  </g>
  <g s:type="outputExt" transform="translate(441,32)" s:width="30" s:height="20" id="cell_control_mem_out enable_read">
    <text x="15" y="-4" class="nodelabel text-1 cell_control_mem_out enable_read" s:attribute="ref">control_mem_out enable_read</text>
    <s:alias val="$_outputExt_"/>
    <path d="M30,0 L30,20 L15,20 L0,10 L15,0 Z" class="cell_control_mem_out enable_read fill-4"/>
    <g s:x="0" s:y="10" s:pid="A"/>
  </g>
  <g s:type="outputExt" transform="translate(441,97)" s:width="30" s:height="20" id="cell_control_mem_out enable_write">
    <text x="15" y="-4" class="nodelabel text-1 cell_control_mem_out enable_write" s:attribute="ref">control_mem_out enable_write</text>
    <s:alias val="$_outputExt_"/>
    <path d="M30,0 L30,20 L15,20 L0,10 L15,0 Z" class="cell_control_mem_out enable_write fill-4"/>
    <g s:x="0" s:y="10" s:pid="A"/>
  </g>
  <g s:type="outputExt" transform="translate(441,174)" s:width="30" s:height="20" id="cell_control_wb_out enable_destination">
    <text x="15" y="-4" class="nodelabel text-1 cell_control_wb_out enable_destination" s:attribute="ref">control_wb_out enable_destination</text>
    <s:alias val="$_outputExt_"/>
    <path d="M30,0 L30,20 L15,20 L0,10 L15,0 Z" class="cell_control_wb_out enable_destination fill-4"/>
    <g s:x="0" s:y="10" s:pid="A"/>
  </g>
  <g s:type="outputExt" transform="translate(441,239)" s:width="30" s:height="20" id="cell_control_wb_out select_destination">
    <text x="15" y="-4" class="nodelabel text-1 cell_control_wb_out select_destination" s:attribute="ref">control_wb_out select_destination</text>
    <s:alias val="$_outputExt_"/>
    <path d="M30,0 L30,20 L15,20 L0,10 L15,0 Z" class="cell_control_wb_out select_destination fill-4"/>
    <g s:x="0" s:y="10" s:pid="A"/>
  </g>
  <g s:type="constant" transform="translate(239,455.5)" s:width="30" s:height="20" id="cell_0000">
    <text x="15" y="-4" class="nodelabel text-1 cell_0000" s:attribute="ref">0x0</text>
    <s:alias val="$_constant_"/>
    <rect width="30" height="20" class="cell_0000 fill-4"/>
    <g s:x="31" s:y="10" s:pid="Y"/>
  </g>
  <g s:type="constant" transform="translate(239,106.5)" s:width="30" s:height="20" id="cell_00">
    <text x="15" y="-4" class="nodelabel text-1 cell_00" s:attribute="ref">00</text>
    <s:alias val="$_constant_"/>
    <rect width="30" height="20" class="cell_00 fill-4"/>
    <g s:x="31" s:y="10" s:pid="Y"/>
  </g>
  <g s:type="constant" transform="translate(239,248.5)" s:width="30" s:height="20" id="cell_10">
    <text x="15" y="-4" class="nodelabel text-1 cell_10" s:attribute="ref">10</text>
    <s:alias val="$_constant_"/>
    <rect width="30" height="20" class="cell_10 fill-4"/>
    <g s:x="31" s:y="10" s:pid="Y"/>
  </g>
  <g s:type="join" transform="translate(260,370.5)" s:width="4" s:height="40" id="cell_$join$,2,3,4,5,">
    <rect width="5" height="40" class="splitjoinBody" s:generic="body"/>
    <s:alias val="$_join_"/>
    <g s:x="5" s:y="20" s:pid="out"/>
    <g transform="translate(0,10)" s:x="0" s:y="10" s:pid="in0">
      <text x="-3" y="-4" class="inputPortLabel text-2">0:1</text>
    </g>
    <g transform="translate(0,30)" s:x="0" s:y="10" s:pid="in0">
      <text x="-3" y="-4" class="inputPortLabel text-2">2:3</text>
    </g>
  </g>
  <g s:type="join" transform="translate(260,21.5)" s:width="4" s:height="40" id="cell_$join$,6,7,">
    <rect width="5" height="40" class="splitjoinBody" s:generic="body"/>
    <s:alias val="$_join_"/>
    <g s:x="5" s:y="20" s:pid="out"/>
    <g transform="translate(0,10)" s:x="0" s:y="10" s:pid="in0">
      <text x="-3" y="-4" class="inputPortLabel text-2">0</text>
    </g>
    <g transform="translate(0,30)" s:x="0" s:y="10" s:pid="in0">
      <text x="-3" y="-4" class="inputPortLabel text-2">1</text>
    </g>
  </g>
  <g s:type="join" transform="translate(260,163.5)" s:width="4" s:height="40" id="cell_$join$,8,9,">
    <rect width="5" height="40" class="splitjoinBody" s:generic="body"/>
    <s:alias val="$_join_"/>
    <g s:x="5" s:y="20" s:pid="out"/>
    <g transform="translate(0,10)" s:x="0" s:y="10" s:pid="in0">
      <text x="-3" y="-4" class="inputPortLabel text-2">0</text>
    </g>
    <g transform="translate(0,30)" s:x="0" s:y="10" s:pid="in0">
      <text x="-3" y="-4" class="inputPortLabel text-2">1</text>
    </g>
  </g>
  <g s:type="split" transform="translate(382,380.5)" s:width="5" s:height="40" id="cell_$split$,11,12,13,14,">
    <rect width="5" height="40" class="splitjoinBody" s:generic="body"/>
    <s:alias val="$_split_"/>
    <g s:x="0" s:y="20" s:pid="in"/>
    <g transform="translate(4,10)" s:x="4" s:y="10" s:pid="out0">
      <text x="5" y="-4" class="text-2">0:1</text>
    </g>
    <g transform="translate(4,30)" s:x="4" s:y="10" s:pid="out0">
      <text x="5" y="-4" class="text-2">2:3</text>
    </g>
  </g>
  <g s:type="split" transform="translate(388.3333333333333,31.5)" s:width="5" s:height="40" id="cell_$split$,15,16,">
    <rect width="5" height="40" class="splitjoinBody" s:generic="body"/>
    <s:alias val="$_split_"/>
    <g s:x="0" s:y="20" s:pid="in"/>
    <g transform="translate(4,10)" s:x="4" s:y="10" s:pid="out0">
      <text x="5" y="-4" class="text-2">0</text>
    </g>
    <g transform="translate(4,30)" s:x="4" s:y="10" s:pid="out0">
      <text x="5" y="-4" class="text-2">1</text>
    </g>
  </g>
  <g s:type="split" transform="translate(388.3333333333333,173.5)" s:width="5" s:height="40" id="cell_$split$,17,18,">
    <rect width="5" height="40" class="splitjoinBody" s:generic="body"/>
    <s:alias val="$_split_"/>
    <g s:x="0" s:y="20" s:pid="in"/>
    <g transform="translate(4,10)" s:x="4" s:y="10" s:pid="out0">
      <text x="5" y="-4" class="text-2">0</text>
    </g>
    <g transform="translate(4,30)" s:x="4" s:y="10" s:pid="out0">
      <text x="5" y="-4" class="text-2">1</text>
    </g>
  </g>
  <line x1="266" x2="327" y1="391" y2="391" class="net_2,3,4,5"/>
  <line x1="270" x2="297" y1="465.5" y2="465.5" class="net_19,20,21,22"/>
  <line x1="297" x2="297" y1="465.5" y2="411" class="net_19,20,21,22"/>
  <line x1="297" x2="327" y1="411" y2="411" class="net_19,20,21,22"/>
  <line x1="269" x2="307" y1="323.5" y2="323.5" class="net_10"/>
  <line x1="307" x2="307" y1="323.5" y2="431" class="net_10"/>
  <line x1="307" x2="337" y1="431" y2="431" class="net_10"/>
  <circle cx="307" cy="323.5" r="2" style="fill:#000" class="net_10"/>
  <line x1="337" x2="337" y1="431" y2="416" class="net_10"/>
  <line x1="269" x2="307" y1="323.5" y2="323.5" class="net_10"/>
  <line x1="307" x2="307" y1="323.5" y2="164" class="net_10"/>
  <line x1="307" x2="337" y1="164" y2="164" class="net_10"/>
  <line x1="337" x2="337" y1="164" y2="67" class="net_10"/>
  <line x1="269" x2="337" y1="323.5" y2="323.5" class="net_10"/>
  <line x1="337" x2="337" y1="323.5" y2="209" class="net_10"/>
  <line x1="266" x2="327" y1="42" y2="42" class="net_6,7"/>
  <line x1="270" x2="297" y1="116.5" y2="116.5" class="net_23,24"/>
  <line x1="297" x2="297" y1="116.5" y2="62" class="net_23,24"/>
  <line x1="297" x2="327" y1="62" y2="62" class="net_23,24"/>
  <line x1="266" x2="327" y1="184" y2="184" class="net_8,9"/>
  <line x1="270" x2="317" y1="258.5" y2="258.5" class="net_25,26"/>
  <line x1="317" x2="317" y1="258.5" y2="204" class="net_25,26"/>
  <line x1="317" x2="327" y1="204" y2="204" class="net_25,26"/>
  <line x1="387" x2="441" y1="391" y2="391" class="net_11,12"/>
  <line x1="387" x2="416" y1="411" y2="411" class="net_13,14"/>
  <line x1="416" x2="416" y1="411" y2="456" class="net_13,14"/>
  <line x1="416" x2="441" y1="456" y2="456" class="net_13,14"/>
  <line x1="393.3333333333333" x2="441" y1="42" y2="42" class="net_15"/>
  <line x1="393.3333333333333" x2="416" y1="62" y2="62" class="net_16"/>
  <line x1="416" x2="416" y1="62" y2="107" class="net_16"/>
  <line x1="416" x2="441" y1="107" y2="107" class="net_16"/>
  <line x1="393.3333333333333" x2="441" y1="184" y2="184" class="net_17"/>
  <line x1="393.3333333333333" x2="416" y1="204" y2="204" class="net_18"/>
  <line x1="416" x2="416" y1="204" y2="249" class="net_18"/>
  <line x1="416" x2="441" y1="249" y2="249" class="net_18"/>
  <line x1="42" x2="260" y1="381" y2="381" class="net_2,3"/>
  <line x1="42" x2="214" y1="446" y2="446" class="net_4,5"/>
  <line x1="214" x2="214" y1="446" y2="401" class="net_4,5"/>
  <line x1="214" x2="260" y1="401" y2="401" class="net_4,5"/>
  <line x1="42" x2="260" y1="32" y2="32" class="net_6"/>
  <line x1="42" x2="214" y1="97" y2="97" class="net_7"/>
  <line x1="214" x2="214" y1="97" y2="52" class="net_7"/>
  <line x1="214" x2="260" y1="52" y2="52" class="net_7"/>
  <line x1="42" x2="260" y1="174" y2="174" class="net_8"/>
  <line x1="42" x2="214" y1="239" y2="239" class="net_9"/>
  <line x1="214" x2="214" y1="239" y2="194" class="net_9"/>
  <line x1="214" x2="260" y1="194" y2="194" class="net_9"/>
  <line x1="347" x2="382" y1="401" y2="401" class="net_11,12,13,14"/>
  <line x1="347" x2="388.3333333333333" y1="52" y2="52" class="net_15,16"/>
  <line x1="347" x2="388.3333333333333" y1="194" y2="194" class="net_17,18"/>
</svg>
