<svg xmlns="http://www.w3.org/2000/svg" xmlns:xlink="http://www.w3.org/1999/xlink" xmlns:s="https://github.com/nturley/netlistsvg" width="626" height="509">
  <style>  svg {
      stroke: #011e41;
      fill: none;
    }
    text {
      fill:#ffffff;
      stroke:none;
      font-size:10px;
      font-weight: bold;
      font-family: "Courier New", monospace;
    }
    .fill-1 { fill: #003262; }
    .fill-2 { fill: #011e41; stroke: #003262; }
    .fill-3 { fill: #ffffff; }
    .fill-4 { fill: #003262; }
    .fill-5 { fill: #011e41; stroke: #fdda64; }
    .text-1 { fill: #fdb515; }
    .text-2 { fill: #003262; }
    .text-3 { stroke: #fdda64; }
    .nodelabel { text-anchor: middle; }
    .inputPortLabel { text-anchor: end; }
    .splitjoinBody { fill: #3c3c43; }</style>
  <g s:type="generic" transform="translate(415,91.5)" s:width="30" s:height="40" id="cell_alu">
    <text x="15" y="-4" class="nodelabel text-1 cell_alu" s:attribute="ref">rv32i_alu_32</text>
    <rect width="30" height="60" s:generic="body" class="cell_alu fill-1"/>
    <g transform="translate(0,10)" s:x="0" s:y="10" s:pid="in0" id="port_alu~select_function">
      <text x="-3" y="-4" class="inputPortLabel text-2 cell_alu">select_function</text>
    </g>
    <g transform="translate(0,30)" s:x="0" s:y="10" s:pid="in0" id="port_alu~source_1">
      <text x="-3" y="-4" class="inputPortLabel text-2 cell_alu">source_1</text>
    </g>
    <g transform="translate(0,50)" s:x="0" s:y="10" s:pid="in0" id="port_alu~source_2">
      <text x="-3" y="-4" class="inputPortLabel text-2 cell_alu">source_2</text>
    </g>
    <g transform="translate(30,10)" s:x="30" s:y="10" s:pid="out0" id="port_alu~destination">
      <text x="5" y="-4" class="cell_alu text-2">destination</text>
    </g>
    <g transform="translate(30,30)" s:x="30" s:y="10" s:pid="out0" id="port_alu~overflow">
      <text x="5" y="-4" class="cell_alu text-2">overflow</text>
    </g>
  </g>
  <g s:type="generic" transform="translate(191,111.5)" s:width="30" s:height="40" id="cell_mux_alu_source_1">
    <text x="15" y="-4" class="nodelabel text-1 cell_mux_alu_source_1" s:attribute="ref">generic_mux_4x1_32</text>
    <rect width="30" height="100" s:generic="body" class="cell_mux_alu_source_1 fill-1"/>
    <g transform="translate(0,10)" s:x="0" s:y="10" s:pid="in0" id="port_mux_alu_source_1~selector">
      <text x="-3" y="-4" class="inputPortLabel text-2 cell_mux_alu_source_1">selector</text>
    </g>
    <g transform="translate(0,30)" s:x="0" s:y="10" s:pid="in0" id="port_mux_alu_source_1~source_1">
      <text x="-3" y="-4" class="inputPortLabel text-2 cell_mux_alu_source_1">source_1</text>
    </g>
    <g transform="translate(0,50)" s:x="0" s:y="10" s:pid="in0" id="port_mux_alu_source_1~source_2">
      <text x="-3" y="-4" class="inputPortLabel text-2 cell_mux_alu_source_1">source_2</text>
    </g>
    <g transform="translate(0,70)" s:x="0" s:y="10" s:pid="in0" id="port_mux_alu_source_1~source_3">
      <text x="-3" y="-4" class="inputPortLabel text-2 cell_mux_alu_source_1">source_3</text>
    </g>
    <g transform="translate(0,90)" s:x="0" s:y="10" s:pid="in0" id="port_mux_alu_source_1~source_4">
      <text x="-3" y="-4" class="inputPortLabel text-2 cell_mux_alu_source_1">source_4</text>
    </g>
    <g transform="translate(30,10)" s:x="30" s:y="10" s:pid="out0" id="port_mux_alu_source_1~destination">
      <text x="5" y="-4" class="cell_mux_alu_source_1 text-2">destination</text>
    </g>
  </g>
  <g s:type="generic" transform="translate(191,326.5)" s:width="30" s:height="40" id="cell_mux_alu_source_2">
    <text x="15" y="-4" class="nodelabel text-1 cell_mux_alu_source_2" s:attribute="ref">generic_mux_4x1_32</text>
    <rect width="30" height="100" s:generic="body" class="cell_mux_alu_source_2 fill-1"/>
    <g transform="translate(0,10)" s:x="0" s:y="10" s:pid="in0" id="port_mux_alu_source_2~selector">
      <text x="-3" y="-4" class="inputPortLabel text-2 cell_mux_alu_source_2">selector</text>
    </g>
    <g transform="translate(0,30)" s:x="0" s:y="10" s:pid="in0" id="port_mux_alu_source_2~source_1">
      <text x="-3" y="-4" class="inputPortLabel text-2 cell_mux_alu_source_2">source_1</text>
    </g>
    <g transform="translate(0,50)" s:x="0" s:y="10" s:pid="in0" id="port_mux_alu_source_2~source_2">
      <text x="-3" y="-4" class="inputPortLabel text-2 cell_mux_alu_source_2">source_2</text>
    </g>
    <g transform="translate(0,70)" s:x="0" s:y="10" s:pid="in0" id="port_mux_alu_source_2~source_3">
      <text x="-3" y="-4" class="inputPortLabel text-2 cell_mux_alu_source_2">source_3</text>
    </g>
    <g transform="translate(0,90)" s:x="0" s:y="10" s:pid="in0" id="port_mux_alu_source_2~source_4">
      <text x="-3" y="-4" class="inputPortLabel text-2 cell_mux_alu_source_2">source_4</text>
    </g>
    <g transform="translate(30,10)" s:x="30" s:y="10" s:pid="out0" id="port_mux_alu_source_2~destination">
      <text x="5" y="-4" class="cell_mux_alu_source_2 text-2">destination</text>
    </g>
  </g>
  <g s:type="inputExt" transform="translate(12,22)" s:width="30" s:height="20" id="cell_select_source_1">
    <text x="15" y="-4" class="nodelabel text-1 cell_select_source_1" s:attribute="ref">select_source_1</text>
    <s:alias val="$_inputExt_"/>
    <path d="M0,0 L0,20 L15,20 L30,10 L15,0 Z" class="cell_select_source_1 fill-4"/>
    <g s:x="30" s:y="10" s:pid="Y"/>
  </g>
  <g s:type="inputExt" transform="translate(12,282)" s:width="30" s:height="20" id="cell_select_source_2">
    <text x="15" y="-4" class="nodelabel text-1 cell_select_source_2" s:attribute="ref">select_source_2</text>
    <s:alias val="$_inputExt_"/>
    <path d="M0,0 L0,20 L15,20 L30,10 L15,0 Z" class="cell_select_source_2 fill-4"/>
    <g s:x="30" s:y="10" s:pid="Y"/>
  </g>
  <g s:type="inputExt" transform="translate(191,46.5)" s:width="30" s:height="20" id="cell_select_function">
    <text x="15" y="-4" class="nodelabel text-1 cell_select_function" s:attribute="ref">select_function</text>
    <s:alias val="$_inputExt_"/>
    <path d="M0,0 L0,20 L15,20 L30,10 L15,0 Z" class="cell_select_function fill-4"/>
    <g s:x="30" s:y="10" s:pid="Y"/>
  </g>
  <g s:type="inputExt" transform="translate(12,152)" s:width="30" s:height="20" id="cell_address_program">
    <text x="15" y="-4" class="nodelabel text-1 cell_address_program" s:attribute="ref">address_program</text>
    <s:alias val="$_inputExt_"/>
    <path d="M0,0 L0,20 L15,20 L30,10 L15,0 Z" class="cell_address_program fill-4"/>
    <g s:x="30" s:y="10" s:pid="Y"/>
  </g>
  <g s:type="inputExt" transform="translate(12,87)" s:width="30" s:height="20" id="cell_source_1">
    <text x="15" y="-4" class="nodelabel text-1 cell_source_1" s:attribute="ref">source_1</text>
    <s:alias val="$_inputExt_"/>
    <path d="M0,0 L0,20 L15,20 L30,10 L15,0 Z" class="cell_source_1 fill-4"/>
    <g s:x="30" s:y="10" s:pid="Y"/>
  </g>
  <g s:type="inputExt" transform="translate(12,347)" s:width="30" s:height="20" id="cell_source_2">
    <text x="15" y="-4" class="nodelabel text-1 cell_source_2" s:attribute="ref">source_2</text>
    <s:alias val="$_inputExt_"/>
    <path d="M0,0 L0,20 L15,20 L30,10 L15,0 Z" class="cell_source_2 fill-4"/>
    <g s:x="30" s:y="10" s:pid="Y"/>
  </g>
  <g s:type="inputExt" transform="translate(12,412)" s:width="30" s:height="20" id="cell_immediate">
    <text x="15" y="-4" class="nodelabel text-1 cell_immediate" s:attribute="ref">immediate</text>
    <s:alias val="$_inputExt_"/>
    <path d="M0,0 L0,20 L15,20 L30,10 L15,0 Z" class="cell_immediate fill-4"/>
    <g s:x="30" s:y="10" s:pid="Y"/>
  </g>
  <g s:type="outputExt" transform="translate(548,157)" s:width="30" s:height="20" id="cell_overflow">
    <text x="15" y="-4" class="nodelabel text-1 cell_overflow" s:attribute="ref">overflow</text>
    <s:alias val="$_outputExt_"/>
    <path d="M30,0 L30,20 L15,20 L0,10 L15,0 Z" class="cell_overflow fill-4"/>
    <g s:x="0" s:y="10" s:pid="A"/>
  </g>
  <g s:type="outputExt" transform="translate(548,92)" s:width="30" s:height="20" id="cell_destination">
    <text x="15" y="-4" class="nodelabel text-1 cell_destination" s:attribute="ref">destination</text>
    <s:alias val="$_outputExt_"/>
    <path d="M30,0 L30,20 L15,20 L0,10 L15,0 Z" class="cell_destination fill-4"/>
    <g s:x="0" s:y="10" s:pid="A"/>
  </g>
  <g s:type="constant" transform="translate(12,217)" s:width="30" s:height="20" id="cell_00000000000000000000000000000000">
    <text x="15" y="-4" class="nodelabel text-1 cell_00000000000000000000000000000000" s:attribute="ref">0x0</text>
    <s:alias val="$_constant_"/>
    <rect width="30" height="20" class="cell_00000000000000000000000000000000 fill-4"/>
    <g s:x="31" s:y="10" s:pid="Y"/>
  </g>
  <g s:type="constant" transform="translate(12,477)" s:width="30" s:height="20" id="cell_00000000000000000000000000000100">
    <text x="15" y="-4" class="nodelabel text-1 cell_00000000000000000000000000000100" s:attribute="ref">0x4</text>
    <s:alias val="$_constant_"/>
    <rect width="30" height="20" class="cell_00000000000000000000000000000100 fill-4"/>
    <g s:x="31" s:y="10" s:pid="Y"/>
  </g>
  <line x1="221" x2="299" y1="56.5" y2="56.5" class="net_6,7,8,9"/>
  <line x1="299" x2="299" y1="56.5" y2="102" class="net_6,7,8,9"/>
  <line x1="299" x2="415" y1="102" y2="102" class="net_6,7,8,9"/>
  <line x1="222" x2="415" y1="122" y2="122" class="net_171,172,173,174,175,176,177,178,179,180,181,182,183,184,185,186,187,188,189,190,191,192,193,194,195,196,197,198,199,200,201,202"/>
  <line x1="222" x2="299" y1="337" y2="337" class="net_203,204,205,206,207,208,209,210,211,212,213,214,215,216,217,218,219,220,221,222,223,224,225,226,227,228,229,230,231,232,233,234"/>
  <line x1="299" x2="299" y1="337" y2="142" class="net_203,204,205,206,207,208,209,210,211,212,213,214,215,216,217,218,219,220,221,222,223,224,225,226,227,228,229,230,231,232,233,234"/>
  <line x1="299" x2="415" y1="142" y2="142" class="net_203,204,205,206,207,208,209,210,211,212,213,214,215,216,217,218,219,220,221,222,223,224,225,226,227,228,229,230,231,232,233,234"/>
  <line x1="42" x2="122" y1="32" y2="32" class="net_2,3"/>
  <line x1="122" x2="122" y1="32" y2="122" class="net_2,3"/>
  <line x1="122" x2="191" y1="122" y2="122" class="net_2,3"/>
  <line x1="42" x2="112" y1="97" y2="97" class="net_42,43,44,45,46,47,48,49,50,51,52,53,54,55,56,57,58,59,60,61,62,63,64,65,66,67,68,69,70,71,72,73"/>
  <line x1="112" x2="112" y1="97" y2="142" class="net_42,43,44,45,46,47,48,49,50,51,52,53,54,55,56,57,58,59,60,61,62,63,64,65,66,67,68,69,70,71,72,73"/>
  <line x1="112" x2="191" y1="142" y2="142" class="net_42,43,44,45,46,47,48,49,50,51,52,53,54,55,56,57,58,59,60,61,62,63,64,65,66,67,68,69,70,71,72,73"/>
  <line x1="42" x2="191" y1="162" y2="162" class="net_10,11,12,13,14,15,16,17,18,19,20,21,22,23,24,25,26,27,28,29,30,31,32,33,34,35,36,37,38,39,40,41"/>
  <line x1="43" x2="132" y1="227" y2="227" class="net_235,236,237,238,239,240,241,242,243,244,245,246,247,248,249,250,251,252,253,254,255,256,257,258,259,260,261,262,263,264,265,266"/>
  <line x1="132" x2="132" y1="227" y2="182" class="net_235,236,237,238,239,240,241,242,243,244,245,246,247,248,249,250,251,252,253,254,255,256,257,258,259,260,261,262,263,264,265,266"/>
  <circle cx="132" cy="227" r="2" style="fill:#000" class="net_235,236,237,238,239,240,241,242,243,244,245,246,247,248,249,250,251,252,253,254,255,256,257,258,259,260,261,262,263,264,265,266"/>
  <line x1="132" x2="191" y1="182" y2="182" class="net_235,236,237,238,239,240,241,242,243,244,245,246,247,248,249,250,251,252,253,254,255,256,257,258,259,260,261,262,263,264,265,266"/>
  <line x1="43" x2="132" y1="227" y2="227" class="net_235,236,237,238,239,240,241,242,243,244,245,246,247,248,249,250,251,252,253,254,255,256,257,258,259,260,261,262,263,264,265,266"/>
  <line x1="132" x2="132" y1="227" y2="202" class="net_235,236,237,238,239,240,241,242,243,244,245,246,247,248,249,250,251,252,253,254,255,256,257,258,259,260,261,262,263,264,265,266"/>
  <circle cx="132" cy="202" r="2" style="fill:#000" class="net_235,236,237,238,239,240,241,242,243,244,245,246,247,248,249,250,251,252,253,254,255,256,257,258,259,260,261,262,263,264,265,266"/>
  <line x1="132" x2="191" y1="202" y2="202" class="net_235,236,237,238,239,240,241,242,243,244,245,246,247,248,249,250,251,252,253,254,255,256,257,258,259,260,261,262,263,264,265,266"/>
  <line x1="43" x2="132" y1="227" y2="227" class="net_235,236,237,238,239,240,241,242,243,244,245,246,247,248,249,250,251,252,253,254,255,256,257,258,259,260,261,262,263,264,265,266"/>
  <line x1="132" x2="132" y1="227" y2="417" class="net_235,236,237,238,239,240,241,242,243,244,245,246,247,248,249,250,251,252,253,254,255,256,257,258,259,260,261,262,263,264,265,266"/>
  <line x1="132" x2="191" y1="417" y2="417" class="net_235,236,237,238,239,240,241,242,243,244,245,246,247,248,249,250,251,252,253,254,255,256,257,258,259,260,261,262,263,264,265,266"/>
  <line x1="42" x2="112" y1="292" y2="292" class="net_4,5"/>
  <line x1="112" x2="112" y1="292" y2="337" class="net_4,5"/>
  <line x1="112" x2="191" y1="337" y2="337" class="net_4,5"/>
  <line x1="42" x2="191" y1="357" y2="357" class="net_74,75,76,77,78,79,80,81,82,83,84,85,86,87,88,89,90,91,92,93,94,95,96,97,98,99,100,101,102,103,104,105"/>
  <line x1="42" x2="112" y1="422" y2="422" class="net_106,107,108,109,110,111,112,113,114,115,116,117,118,119,120,121,122,123,124,125,126,127,128,129,130,131,132,133,134,135,136,137"/>
  <line x1="112" x2="112" y1="422" y2="377" class="net_106,107,108,109,110,111,112,113,114,115,116,117,118,119,120,121,122,123,124,125,126,127,128,129,130,131,132,133,134,135,136,137"/>
  <line x1="112" x2="191" y1="377" y2="377" class="net_106,107,108,109,110,111,112,113,114,115,116,117,118,119,120,121,122,123,124,125,126,127,128,129,130,131,132,133,134,135,136,137"/>
  <line x1="43" x2="122" y1="487" y2="487" class="net_299,300,301,302,303,304,305,306,307,308,309,310,311,312,313,314,315,316,317,318,319,320,321,322,323,324,325,326,327,328,329,330"/>
  <line x1="122" x2="122" y1="487" y2="397" class="net_299,300,301,302,303,304,305,306,307,308,309,310,311,312,313,314,315,316,317,318,319,320,321,322,323,324,325,326,327,328,329,330"/>
  <line x1="122" x2="191" y1="397" y2="397" class="net_299,300,301,302,303,304,305,306,307,308,309,310,311,312,313,314,315,316,317,318,319,320,321,322,323,324,325,326,327,328,329,330"/>
  <line x1="446" x2="523" y1="122" y2="122" class="net_138"/>
  <line x1="523" x2="523" y1="122" y2="167" class="net_138"/>
  <line x1="523" x2="548" y1="167" y2="167" class="net_138"/>
  <line x1="446" x2="548" y1="102" y2="102" class="net_139,140,141,142,143,144,145,146,147,148,149,150,151,152,153,154,155,156,157,158,159,160,161,162,163,164,165,166,167,168,169,170"/>
</svg>
