<svg xmlns="http://www.w3.org/2000/svg" xmlns:xlink="http://www.w3.org/1999/xlink" xmlns:s="https://github.com/nturley/netlistsvg" width="970" height="420.5">
  <style>  svg {
      stroke: #011e41;
      fill: none;
    }
    text {
      fill:#ffffff;
      stroke:none;
      font-size:10px;
      font-weight: bold;
      font-family: "Courier New", monospace;
    }
    .fill-1 { fill: #003262; }
    .fill-2 { fill: #011e41; stroke: #003262; }
    .fill-3 { fill: #ffffff; }
    .fill-4 { fill: #003262; }
    .fill-5 { fill: #011e41; stroke: #fdda64; }
    .text-1 { fill: #fdb515; }
    .text-2 { fill: #003262; }
    .text-3 { stroke: #fdda64; }
    .nodelabel { text-anchor: middle; }
    .inputPortLabel { text-anchor: end; }
    .splitjoinBody { fill: #3c3c43; }</style>
  <g s:type="and" transform="translate(827,71.5)" s:width="30" s:height="25" id="cell_\4">
    <s:alias val="$and"/>
    <s:alias val="$logic_and"/>
    <s:alias val="$_AND_"/>
    <s:alias val="$reduce_and"/>
    <path d="M0,0 L0,25 L15,25 A15 12.5 0 0 0 15,0 Z" class="cell_\4 fill-1"/>
    <g s:x="0" s:y="5" s:pid="A"/>
    <g s:x="0" s:y="20" s:pid="B"/>
    <g s:x="30" s:y="12.5" s:pid="Y"/>
  </g>
  <g s:type="generic" transform="translate(453,131.5)" s:width="30" s:height="40" id="cell_comparator">
    <text x="15" y="-4" class="nodelabel text-1 cell_comparator" s:attribute="ref">generic_comparator_32</text>
    <rect width="30" height="60" s:generic="body" class="cell_comparator fill-1"/>
    <g transform="translate(0,10)" s:x="0" s:y="10" s:pid="in0" id="port_comparator~source_1">
      <text x="-3" y="-4" class="inputPortLabel text-2 cell_comparator">source_1</text>
    </g>
    <g transform="translate(0,30)" s:x="0" s:y="10" s:pid="in0" id="port_comparator~source_2">
      <text x="-3" y="-4" class="inputPortLabel text-2 cell_comparator">source_2</text>
    </g>
    <g transform="translate(30,10)" s:x="30" s:y="10" s:pid="out0" id="port_comparator~flag_equal">
      <text x="5" y="-4" class="cell_comparator text-2">flag_equal</text>
    </g>
    <g transform="translate(30,30)" s:x="30" s:y="10" s:pid="out0" id="port_comparator~flag_greather">
      <text x="5" y="-4" class="cell_comparator text-2">flag_greather</text>
    </g>
    <g transform="translate(30,50)" s:x="30" s:y="10" s:pid="out0" id="port_comparator~flag_less">
      <text x="5" y="-4" class="cell_comparator text-2">flag_less</text>
    </g>
  </g>
  <g s:type="generic" transform="translate(694,131.5)" s:width="30" s:height="40" id="cell_controller">
    <text x="15" y="-4" class="nodelabel text-1 cell_controller" s:attribute="ref">rv32i_branch_controller</text>
    <rect width="30" height="120" s:generic="body" class="cell_controller fill-1"/>
    <g transform="translate(0,10)" s:x="0" s:y="10" s:pid="in0" id="port_controller~flag_equal">
      <text x="-3" y="-4" class="inputPortLabel text-2 cell_controller">flag_equal</text>
    </g>
    <g transform="translate(0,30)" s:x="0" s:y="10" s:pid="in0" id="port_controller~flag_greather">
      <text x="-3" y="-4" class="inputPortLabel text-2 cell_controller">flag_greather</text>
    </g>
    <g transform="translate(0,50)" s:x="0" s:y="10" s:pid="in0" id="port_controller~flag_less">
      <text x="-3" y="-4" class="inputPortLabel text-2 cell_controller">flag_less</text>
    </g>
    <g transform="translate(0,70)" s:x="0" s:y="10" s:pid="in0" id="port_controller~flag_sign_1">
      <text x="-3" y="-4" class="inputPortLabel text-2 cell_controller">flag_sign_1</text>
    </g>
    <g transform="translate(0,90)" s:x="0" s:y="10" s:pid="in0" id="port_controller~flag_sign_2">
      <text x="-3" y="-4" class="inputPortLabel text-2 cell_controller">flag_sign_2</text>
    </g>
    <g transform="translate(0,110)" s:x="0" s:y="10" s:pid="in0" id="port_controller~select_function">
      <text x="-3" y="-4" class="inputPortLabel text-2 cell_controller">select_function</text>
    </g>
    <g transform="translate(30,10)" s:x="30" s:y="10" s:pid="out0" id="port_controller~destination">
      <text x="5" y="-4" class="cell_controller text-2">destination</text>
    </g>
  </g>
  <g s:type="generic" transform="translate(249,131.5)" s:width="30" s:height="40" id="cell_mux_forward_source_1">
    <text x="15" y="-4" class="nodelabel text-1 cell_mux_forward_source_1" s:attribute="ref">generic_mux_2x1_32</text>
    <rect width="30" height="60" s:generic="body" class="cell_mux_forward_source_1 fill-1"/>
    <g transform="translate(0,10)" s:x="0" s:y="10" s:pid="in0" id="port_mux_forward_source_1~selector">
      <text x="-3" y="-4" class="inputPortLabel text-2 cell_mux_forward_source_1">selector</text>
    </g>
    <g transform="translate(0,30)" s:x="0" s:y="10" s:pid="in0" id="port_mux_forward_source_1~source_1">
      <text x="-3" y="-4" class="inputPortLabel text-2 cell_mux_forward_source_1">source_1</text>
    </g>
    <g transform="translate(0,50)" s:x="0" s:y="10" s:pid="in0" id="port_mux_forward_source_1~source_2">
      <text x="-3" y="-4" class="inputPortLabel text-2 cell_mux_forward_source_1">source_2</text>
    </g>
    <g transform="translate(30,10)" s:x="30" s:y="10" s:pid="out0" id="port_mux_forward_source_1~destination">
      <text x="5" y="-4" class="cell_mux_forward_source_1 text-2">destination</text>
    </g>
  </g>
  <g s:type="generic" transform="translate(249,239.5)" s:width="30" s:height="40" id="cell_mux_forward_source_2">
    <text x="15" y="-4" class="nodelabel text-1 cell_mux_forward_source_2" s:attribute="ref">generic_mux_2x1_32</text>
    <rect width="30" height="60" s:generic="body" class="cell_mux_forward_source_2 fill-1"/>
    <g transform="translate(0,10)" s:x="0" s:y="10" s:pid="in0" id="port_mux_forward_source_2~selector">
      <text x="-3" y="-4" class="inputPortLabel text-2 cell_mux_forward_source_2">selector</text>
    </g>
    <g transform="translate(0,30)" s:x="0" s:y="10" s:pid="in0" id="port_mux_forward_source_2~source_1">
      <text x="-3" y="-4" class="inputPortLabel text-2 cell_mux_forward_source_2">source_1</text>
    </g>
    <g transform="translate(0,50)" s:x="0" s:y="10" s:pid="in0" id="port_mux_forward_source_2~source_2">
      <text x="-3" y="-4" class="inputPortLabel text-2 cell_mux_forward_source_2">source_2</text>
    </g>
    <g transform="translate(30,10)" s:x="30" s:y="10" s:pid="out0" id="port_mux_forward_source_2~destination">
      <text x="5" y="-4" class="cell_mux_forward_source_2 text-2">destination</text>
    </g>
  </g>
  <g s:type="inputExt" transform="translate(694,66.5)" s:width="30" s:height="20" id="cell_enable">
    <text x="15" y="-4" class="nodelabel text-1 cell_enable" s:attribute="ref">enable</text>
    <s:alias val="$_inputExt_"/>
    <path d="M0,0 L0,20 L15,20 L30,10 L15,0 Z" class="cell_enable fill-4"/>
    <g s:x="30" s:y="10" s:pid="Y"/>
  </g>
  <g s:type="inputExt" transform="translate(249,388.5)" s:width="30" s:height="20" id="cell_select_function">
    <text x="15" y="-4" class="nodelabel text-1 cell_select_function" s:attribute="ref">select_function</text>
    <s:alias val="$_inputExt_"/>
    <path d="M0,0 L0,20 L15,20 L30,10 L15,0 Z" class="cell_select_function fill-4"/>
    <g s:x="30" s:y="10" s:pid="Y"/>
  </g>
  <g s:type="inputExt" transform="translate(12,152)" s:width="30" s:height="20" id="cell_source_1">
    <text x="15" y="-4" class="nodelabel text-1 cell_source_1" s:attribute="ref">source_1</text>
    <s:alias val="$_inputExt_"/>
    <path d="M0,0 L0,20 L15,20 L30,10 L15,0 Z" class="cell_source_1 fill-4"/>
    <g s:x="30" s:y="10" s:pid="Y"/>
  </g>
  <g s:type="inputExt" transform="translate(12,345.5)" s:width="30" s:height="20" id="cell_source_2">
    <text x="15" y="-4" class="nodelabel text-1 cell_source_2" s:attribute="ref">source_2</text>
    <s:alias val="$_inputExt_"/>
    <path d="M0,0 L0,20 L15,20 L30,10 L15,0 Z" class="cell_source_2 fill-4"/>
    <g s:x="30" s:y="10" s:pid="Y"/>
  </g>
  <g s:type="inputExt" transform="translate(12,22)" s:width="30" s:height="20" id="cell_forward select_source_1">
    <text x="15" y="-4" class="nodelabel text-1 cell_forward select_source_1" s:attribute="ref">forward select_source_1</text>
    <s:alias val="$_inputExt_"/>
    <path d="M0,0 L0,20 L15,20 L30,10 L15,0 Z" class="cell_forward select_source_1 fill-4"/>
    <g s:x="30" s:y="10" s:pid="Y"/>
  </g>
  <g s:type="inputExt" transform="translate(12,87)" s:width="30" s:height="20" id="cell_forward select_source_2">
    <text x="15" y="-4" class="nodelabel text-1 cell_forward select_source_2" s:attribute="ref">forward select_source_2</text>
    <s:alias val="$_inputExt_"/>
    <path d="M0,0 L0,20 L15,20 L30,10 L15,0 Z" class="cell_forward select_source_2 fill-4"/>
    <g s:x="30" s:y="10" s:pid="Y"/>
  </g>
  <g s:type="inputExt" transform="translate(12,280)" s:width="30" s:height="20" id="cell_forward source_mem">
    <text x="15" y="-4" class="nodelabel text-1 cell_forward source_mem" s:attribute="ref">forward source_mem</text>
    <s:alias val="$_inputExt_"/>
    <path d="M0,0 L0,20 L15,20 L30,10 L15,0 Z" class="cell_forward source_mem fill-4"/>
    <g s:x="30" s:y="10" s:pid="Y"/>
  </g>
  <g s:type="outputExt" transform="translate(892,74)" s:width="30" s:height="20" id="cell_destination">
    <text x="15" y="-4" class="nodelabel text-1 cell_destination" s:attribute="ref">destination</text>
    <s:alias val="$_outputExt_"/>
    <path d="M30,0 L30,20 L15,20 L0,10 L15,0 Z" class="cell_destination fill-4"/>
    <g s:x="0" s:y="10" s:pid="A"/>
  </g>
  <g s:type="split" transform="translate(478,229.5)" s:width="5" s:height="40" id="cell_$split$,7,8,9,10,11,12,13,14,15,16,17,18,19,20,21,22,23,24,25,26,27,28,29,30,31,32,33,34,35,36,37,38,">
    <rect width="5" height="20" class="splitjoinBody" s:generic="body"/>
    <s:alias val="$_split_"/>
    <g s:x="0" s:y="20" s:pid="in"/>
    <g transform="translate(4,10)" s:x="4" s:y="10" s:pid="out0">
      <text x="5" y="-4" class="text-2">31</text>
    </g>
  </g>
  <g s:type="split" transform="translate(478,322.5)" s:width="5" s:height="40" id="cell_$split$,39,40,41,42,43,44,45,46,47,48,49,50,51,52,53,54,55,56,57,58,59,60,61,62,63,64,65,66,67,68,69,70,">
    <rect width="5" height="20" class="splitjoinBody" s:generic="body"/>
    <s:alias val="$_split_"/>
    <g s:x="0" s:y="20" s:pid="in"/>
    <g transform="translate(4,10)" s:x="4" s:y="10" s:pid="out0">
      <text x="5" y="-4" class="text-2">31</text>
    </g>
  </g>
  <g s:type="split" transform="translate(478,365.5)" s:width="5" s:height="40" id="cell_$split$,3,4,5,6,">
    <rect width="5" height="20" class="splitjoinBody" s:generic="body"/>
    <s:alias val="$_split_"/>
    <g s:x="0" s:y="20" s:pid="in"/>
    <g transform="translate(4,10)" s:x="4" s:y="10" s:pid="out0">
      <text x="5" y="-4" class="text-2">0:2</text>
    </g>
  </g>
  <line x1="724" x2="827" y1="76.5" y2="76.5" class="net_2"/>
  <line x1="725" x2="802" y1="142" y2="142" class="net_106"/>
  <line x1="802" x2="802" y1="142" y2="91.5" class="net_106"/>
  <line x1="802" x2="827" y1="91.5" y2="91.5" class="net_106"/>
  <line x1="280" x2="453" y1="142" y2="142" class="net_110,111,112,113,114,115,116,117,118,119,120,121,122,123,124,125,126,127,128,129,130,131,132,133,134,135,136,137,138,139,140,141"/>
  <line x1="280" x2="379" y1="250" y2="250" class="net_142,143,144,145,146,147,148,149,150,151,152,153,154,155,156,157,158,159,160,161,162,163,164,165,166,167,168,169,170,171,172,173"/>
  <line x1="379" x2="379" y1="250" y2="162" class="net_142,143,144,145,146,147,148,149,150,151,152,153,154,155,156,157,158,159,160,161,162,163,164,165,166,167,168,169,170,171,172,173"/>
  <line x1="379" x2="453" y1="162" y2="162" class="net_142,143,144,145,146,147,148,149,150,151,152,153,154,155,156,157,158,159,160,161,162,163,164,165,166,167,168,169,170,171,172,173"/>
  <line x1="484" x2="694" y1="142" y2="142" class="net_107"/>
  <line x1="484" x2="694" y1="162" y2="162" class="net_108"/>
  <line x1="484" x2="694" y1="182" y2="182" class="net_109"/>
  <line x1="483" x2="573" y1="240" y2="240" class="net_38"/>
  <line x1="573" x2="573" y1="240" y2="202" class="net_38"/>
  <line x1="573" x2="694" y1="202" y2="202" class="net_38"/>
  <line x1="483" x2="583" y1="333" y2="333" class="net_70"/>
  <line x1="583" x2="583" y1="333" y2="222" class="net_70"/>
  <line x1="583" x2="694" y1="222" y2="222" class="net_70"/>
  <line x1="483" x2="593" y1="376" y2="376" class="net_3,4,5"/>
  <line x1="593" x2="593" y1="376" y2="242" class="net_3,4,5"/>
  <line x1="593" x2="694" y1="242" y2="242" class="net_3,4,5"/>
  <line x1="42" x2="190" y1="32" y2="32" class="net_71"/>
  <line x1="190" x2="190" y1="32" y2="142" class="net_71"/>
  <line x1="190" x2="249" y1="142" y2="142" class="net_71"/>
  <line x1="42" x2="249" y1="162" y2="162" class="net_7,8,9,10,11,12,13,14,15,16,17,18,19,20,21,22,23,24,25,26,27,28,29,30,31,32,33,34,35,36,37,38"/>
  <line x1="42" x2="160" y1="162" y2="162" class="net_7,8,9,10,11,12,13,14,15,16,17,18,19,20,21,22,23,24,25,26,27,28,29,30,31,32,33,34,35,36,37,38"/>
  <line x1="160" x2="160" y1="162" y2="312.5" class="net_7,8,9,10,11,12,13,14,15,16,17,18,19,20,21,22,23,24,25,26,27,28,29,30,31,32,33,34,35,36,37,38"/>
  <line x1="160" x2="478.5" y1="312.5" y2="312.5" class="net_7,8,9,10,11,12,13,14,15,16,17,18,19,20,21,22,23,24,25,26,27,28,29,30,31,32,33,34,35,36,37,38"/>
  <circle cx="160" cy="162" r="2" style="fill:#000" class="net_7,8,9,10,11,12,13,14,15,16,17,18,19,20,21,22,23,24,25,26,27,28,29,30,31,32,33,34,35,36,37,38"/>
  <line x1="478.5" x2="478.5" y1="312.5" y2="250.5" class="net_7,8,9,10,11,12,13,14,15,16,17,18,19,20,21,22,23,24,25,26,27,28,29,30,31,32,33,34,35,36,37,38"/>
  <line x1="42" x2="170" y1="290" y2="290" class="net_73,74,75,76,77,78,79,80,81,82,83,84,85,86,87,88,89,90,91,92,93,94,95,96,97,98,99,100,101,102,103,104"/>
  <line x1="170" x2="170" y1="290" y2="182" class="net_73,74,75,76,77,78,79,80,81,82,83,84,85,86,87,88,89,90,91,92,93,94,95,96,97,98,99,100,101,102,103,104"/>
  <circle cx="170" cy="290" r="2" style="fill:#000" class="net_73,74,75,76,77,78,79,80,81,82,83,84,85,86,87,88,89,90,91,92,93,94,95,96,97,98,99,100,101,102,103,104"/>
  <line x1="170" x2="249" y1="182" y2="182" class="net_73,74,75,76,77,78,79,80,81,82,83,84,85,86,87,88,89,90,91,92,93,94,95,96,97,98,99,100,101,102,103,104"/>
  <line x1="42" x2="249" y1="290" y2="290" class="net_73,74,75,76,77,78,79,80,81,82,83,84,85,86,87,88,89,90,91,92,93,94,95,96,97,98,99,100,101,102,103,104"/>
  <line x1="42" x2="180" y1="97" y2="97" class="net_72"/>
  <line x1="180" x2="180" y1="97" y2="250" class="net_72"/>
  <line x1="180" x2="249" y1="250" y2="250" class="net_72"/>
  <line x1="42" x2="180" y1="355.5" y2="355.5" class="net_39,40,41,42,43,44,45,46,47,48,49,50,51,52,53,54,55,56,57,58,59,60,61,62,63,64,65,66,67,68,69,70"/>
  <line x1="180" x2="180" y1="355.5" y2="270" class="net_39,40,41,42,43,44,45,46,47,48,49,50,51,52,53,54,55,56,57,58,59,60,61,62,63,64,65,66,67,68,69,70"/>
  <circle cx="180" cy="355.5" r="2" style="fill:#000" class="net_39,40,41,42,43,44,45,46,47,48,49,50,51,52,53,54,55,56,57,58,59,60,61,62,63,64,65,66,67,68,69,70"/>
  <line x1="180" x2="249" y1="270" y2="270" class="net_39,40,41,42,43,44,45,46,47,48,49,50,51,52,53,54,55,56,57,58,59,60,61,62,63,64,65,66,67,68,69,70"/>
  <line x1="42" x2="478.5" y1="355.5" y2="355.5" class="net_39,40,41,42,43,44,45,46,47,48,49,50,51,52,53,54,55,56,57,58,59,60,61,62,63,64,65,66,67,68,69,70"/>
  <line x1="478.5" x2="478.5" y1="355.5" y2="343.5" class="net_39,40,41,42,43,44,45,46,47,48,49,50,51,52,53,54,55,56,57,58,59,60,61,62,63,64,65,66,67,68,69,70"/>
  <line x1="857" x2="892" y1="84" y2="84" class="net_105"/>
  <line x1="279" x2="478.5" y1="398.5" y2="398.5" class="net_3,4,5,6"/>
  <line x1="478.5" x2="478.5" y1="398.5" y2="386.5" class="net_3,4,5,6"/>
</svg>
