<svg xmlns="http://www.w3.org/2000/svg" xmlns:xlink="http://www.w3.org/1999/xlink" xmlns:s="https://github.com/nturley/netlistsvg" width="611" height="326">
  <style>  svg {
      stroke: #011e41;
      fill: none;
    }
    text {
      fill:#ffffff;
      stroke:none;
      font-size:10px;
      font-weight: bold;
      font-family: "Courier New", monospace;
    }
    .fill-1 { fill: #003262; }
    .fill-2 { fill: #011e41; stroke: #003262; }
    .fill-3 { fill: #ffffff; }
    .fill-4 { fill: #003262; }
    .fill-5 { fill: #011e41; stroke: #fdda64; }
    .text-1 { fill: #fdb515; }
    .text-2 { fill: #003262; }
    .text-3 { stroke: #fdda64; }
    .nodelabel { text-anchor: middle; }
    .inputPortLabel { text-anchor: end; }
    .splitjoinBody { fill: #3c3c43; }</style>
  <g s:type="generic" transform="translate(376,59)" s:width="30" s:height="40" id="cell_register_file">
    <text x="15" y="-4" class="nodelabel text-1 cell_register_file" s:attribute="ref">rv32i_register_file_32_5</text>
    <rect width="30" height="120" s:generic="body" class="cell_register_file fill-1"/>
    <g transform="translate(0,10)" s:x="0" s:y="10" s:pid="in0" id="port_register_file~address_destination">
      <text x="-3" y="-4" class="inputPortLabel text-2 cell_register_file">address_destination</text>
    </g>
    <g transform="translate(0,30)" s:x="0" s:y="10" s:pid="in0" id="port_register_file~address_source_1">
      <text x="-3" y="-4" class="inputPortLabel text-2 cell_register_file">address_source_1</text>
    </g>
    <g transform="translate(0,50)" s:x="0" s:y="10" s:pid="in0" id="port_register_file~address_source_2">
      <text x="-3" y="-4" class="inputPortLabel text-2 cell_register_file">address_source_2</text>
    </g>
    <g transform="translate(0,70)" s:x="0" s:y="10" s:pid="in0" id="port_register_file~clock">
      <text x="-3" y="-4" class="inputPortLabel text-2 cell_register_file">clock</text>
    </g>
    <g transform="translate(0,90)" s:x="0" s:y="10" s:pid="in0" id="port_register_file~data_destination">
      <text x="-3" y="-4" class="inputPortLabel text-2 cell_register_file">data_destination</text>
    </g>
    <g transform="translate(0,110)" s:x="0" s:y="10" s:pid="in0" id="port_register_file~enable">
      <text x="-3" y="-4" class="inputPortLabel text-2 cell_register_file">enable</text>
    </g>
    <g transform="translate(30,10)" s:x="30" s:y="10" s:pid="out0" id="port_register_file~data_source_1">
      <text x="5" y="-4" class="cell_register_file text-2">data_source_1</text>
    </g>
    <g transform="translate(30,30)" s:x="30" s:y="10" s:pid="out0" id="port_register_file~data_source_2">
      <text x="5" y="-4" class="cell_register_file text-2">data_source_2</text>
    </g>
  </g>
  <g s:type="inputExt" transform="translate(113,164)" s:width="30" s:height="20" id="cell_clock">
    <text x="15" y="-4" class="nodelabel text-1 cell_clock" s:attribute="ref">clock</text>
    <s:alias val="$_inputExt_"/>
    <path d="M0,0 L0,20 L15,20 L30,10 L15,0 Z" class="cell_clock fill-4"/>
    <g s:x="30" s:y="10" s:pid="Y"/>
  </g>
  <g s:type="inputExt" transform="translate(113,294)" s:width="30" s:height="20" id="cell_enable">
    <text x="15" y="-4" class="nodelabel text-1 cell_enable" s:attribute="ref">enable</text>
    <s:alias val="$_inputExt_"/>
    <path d="M0,0 L0,20 L15,20 L30,10 L15,0 Z" class="cell_enable fill-4"/>
    <g s:x="30" s:y="10" s:pid="Y"/>
  </g>
  <g s:type="inputExt" transform="translate(113,22)" s:width="30" s:height="20" id="cell_select_destination">
    <text x="15" y="-4" class="nodelabel text-1 cell_select_destination" s:attribute="ref">select_destination</text>
    <s:alias val="$_inputExt_"/>
    <path d="M0,0 L0,20 L15,20 L30,10 L15,0 Z" class="cell_select_destination fill-4"/>
    <g s:x="30" s:y="10" s:pid="Y"/>
  </g>
  <g s:type="inputExt" transform="translate(113,229)" s:width="30" s:height="20" id="cell_data_destination">
    <text x="15" y="-4" class="nodelabel text-1 cell_data_destination" s:attribute="ref">data_destination</text>
    <s:alias val="$_inputExt_"/>
    <path d="M0,0 L0,20 L15,20 L30,10 L15,0 Z" class="cell_data_destination fill-4"/>
    <g s:x="30" s:y="10" s:pid="Y"/>
  </g>
  <g s:type="inputExt" transform="translate(12,89.5)" s:width="30" s:height="20" id="cell_instruction">
    <text x="15" y="-4" class="nodelabel text-1 cell_instruction" s:attribute="ref">instruction</text>
    <s:alias val="$_inputExt_"/>
    <path d="M0,0 L0,20 L15,20 L30,10 L15,0 Z" class="cell_instruction fill-4"/>
    <g s:x="30" s:y="10" s:pid="Y"/>
  </g>
  <g s:type="outputExt" transform="translate(521,59.5)" s:width="30" s:height="20" id="cell_data_source_1">
    <text x="15" y="-4" class="nodelabel text-1 cell_data_source_1" s:attribute="ref">data_source_1</text>
    <s:alias val="$_outputExt_"/>
    <path d="M30,0 L30,20 L15,20 L0,10 L15,0 Z" class="cell_data_source_1 fill-4"/>
    <g s:x="0" s:y="10" s:pid="A"/>
  </g>
  <g s:type="outputExt" transform="translate(521,124.5)" s:width="30" s:height="20" id="cell_data_source_2">
    <text x="15" y="-4" class="nodelabel text-1 cell_data_source_2" s:attribute="ref">data_source_2</text>
    <s:alias val="$_outputExt_"/>
    <path d="M30,0 L30,20 L15,20 L0,10 L15,0 Z" class="cell_data_source_2 fill-4"/>
    <g s:x="0" s:y="10" s:pid="A"/>
  </g>
  <g s:type="split" transform="translate(155.66666666666666,79)" s:width="5" s:height="40" id="cell_$split$,41,42,43,44,45,46,47,48,49,50,51,52,53,54,55,56,57,58,59,60,61,62,63,64,65,66,67,68,69,70,71,72,">
    <rect width="5" height="40" class="splitjoinBody" s:generic="body"/>
    <s:alias val="$_split_"/>
    <g s:x="0" s:y="20" s:pid="in"/>
    <g transform="translate(4,10)" s:x="4" s:y="10" s:pid="out0">
      <text x="5" y="-4" class="text-2">15:19</text>
    </g>
    <g transform="translate(4,30)" s:x="4" s:y="10" s:pid="out0">
      <text x="5" y="-4" class="text-2">20:24</text>
    </g>
  </g>
  <line x1="143" x2="231" y1="32" y2="32" class="net_4,5,6,7,8"/>
  <line x1="231" x2="231" y1="32" y2="69.5" class="net_4,5,6,7,8"/>
  <line x1="231" x2="376" y1="69.5" y2="69.5" class="net_4,5,6,7,8"/>
  <line x1="160.66666666666666" x2="376" y1="89.5" y2="89.5" class="net_56,57,58,59,60"/>
  <line x1="160.66666666666666" x2="376" y1="109.5" y2="109.5" class="net_61,62,63,64,65"/>
  <line x1="143" x2="231" y1="174" y2="174" class="net_2"/>
  <line x1="231" x2="231" y1="174" y2="129.5" class="net_2"/>
  <line x1="231" x2="376" y1="129.5" y2="129.5" class="net_2"/>
  <line x1="143" x2="241" y1="239" y2="239" class="net_9,10,11,12,13,14,15,16,17,18,19,20,21,22,23,24,25,26,27,28,29,30,31,32,33,34,35,36,37,38,39,40"/>
  <line x1="241" x2="241" y1="239" y2="149.5" class="net_9,10,11,12,13,14,15,16,17,18,19,20,21,22,23,24,25,26,27,28,29,30,31,32,33,34,35,36,37,38,39,40"/>
  <line x1="241" x2="376" y1="149.5" y2="149.5" class="net_9,10,11,12,13,14,15,16,17,18,19,20,21,22,23,24,25,26,27,28,29,30,31,32,33,34,35,36,37,38,39,40"/>
  <line x1="143" x2="251" y1="304" y2="304" class="net_3"/>
  <line x1="251" x2="251" y1="304" y2="169.5" class="net_3"/>
  <line x1="251" x2="376" y1="169.5" y2="169.5" class="net_3"/>
  <line x1="407" x2="521" y1="69.5" y2="69.5" class="net_73,74,75,76,77,78,79,80,81,82,83,84,85,86,87,88,89,90,91,92,93,94,95,96,97,98,99,100,101,102,103,104"/>
  <line x1="407" x2="496" y1="89.5" y2="89.5" class="net_105,106,107,108,109,110,111,112,113,114,115,116,117,118,119,120,121,122,123,124,125,126,127,128,129,130,131,132,133,134,135,136"/>
  <line x1="496" x2="496" y1="89.5" y2="134.5" class="net_105,106,107,108,109,110,111,112,113,114,115,116,117,118,119,120,121,122,123,124,125,126,127,128,129,130,131,132,133,134,135,136"/>
  <line x1="496" x2="521" y1="134.5" y2="134.5" class="net_105,106,107,108,109,110,111,112,113,114,115,116,117,118,119,120,121,122,123,124,125,126,127,128,129,130,131,132,133,134,135,136"/>
  <line x1="42" x2="155.66666666666666" y1="99.5" y2="99.5" class="net_41,42,43,44,45,46,47,48,49,50,51,52,53,54,55,56,57,58,59,60,61,62,63,64,65,66,67,68,69,70,71,72"/>
</svg>
