<svg xmlns="http://www.w3.org/2000/svg" xmlns:xlink="http://www.w3.org/1999/xlink" xmlns:s="https://github.com/nturley/netlistsvg" width="1957" height="611">
  <style>  svg {
      stroke: #011e41;
      fill: none;
    }
    text {
      fill:#ffffff;
      stroke:none;
      font-size:10px;
      font-weight: bold;
      font-family: "Courier New", monospace;
    }
    .fill-1 { fill: #003262; }
    .fill-2 { fill: #011e41; stroke: #003262; }
    .fill-3 { fill: #ffffff; }
    .fill-4 { fill: #003262; }
    .fill-5 { fill: #011e41; stroke: #fdda64; }
    .text-1 { fill: #fdb515; }
    .text-2 { fill: #003262; }
    .text-3 { stroke: #fdda64; }
    .nodelabel { text-anchor: middle; }
    .inputPortLabel { text-anchor: end; }
    .splitjoinBody { fill: #3c3c43; }</style>
  <g s:type="not" transform="translate(251,43.5)" s:width="30" s:height="20" id="cell_$auto$opt_expr cc:712:replace_const_cells$7275">
    <s:alias val="$_NOT_"/>
    <s:alias val="$not"/>
    <s:alias val="$logic_not"/>
    <path d="M0,0 L0,20 L20,10 Z" class="cell_$auto$opt_expr cc:712:replace_const_cells$7275 fill-1"/>
    <circle cx="24" cy="10" r="3" class="cell_$auto$opt_expr cc:712:replace_const_cells$7275 fill-3"/>
    <g s:x="-1" s:y="10" s:pid="A"/>
    <g s:x="27" s:y="10" s:pid="Y"/>
  </g>
  <g s:type="not" transform="translate(185,64.5)" s:width="30" s:height="20" id="cell_$auto$opt_expr cc:712:replace_const_cells$7277">
    <s:alias val="$_NOT_"/>
    <s:alias val="$not"/>
    <s:alias val="$logic_not"/>
    <path d="M0,0 L0,20 L20,10 Z" class="cell_$auto$opt_expr cc:712:replace_const_cells$7277 fill-1"/>
    <circle cx="24" cy="10" r="3" class="cell_$auto$opt_expr cc:712:replace_const_cells$7277 fill-3"/>
    <g s:x="-1" s:y="10" s:pid="A"/>
    <g s:x="27" s:y="10" s:pid="Y"/>
  </g>
  <g s:type="not" transform="translate(400,262)" s:width="30" s:height="20" id="cell_\133">
    <s:alias val="$_NOT_"/>
    <s:alias val="$not"/>
    <s:alias val="$logic_not"/>
    <path d="M0,0 L0,20 L20,10 Z" class="cell_\133 fill-1"/>
    <circle cx="24" cy="10" r="3" class="cell_\133 fill-3"/>
    <g s:x="-1" s:y="10" s:pid="A"/>
    <g s:x="27" s:y="10" s:pid="Y"/>
  </g>
  <g s:type="and" transform="translate(322.3333333333333,84.5)" s:width="30" s:height="25" id="cell_\17">
    <s:alias val="$and"/>
    <s:alias val="$logic_and"/>
    <s:alias val="$_AND_"/>
    <s:alias val="$reduce_and"/>
    <path d="M0,0 L0,25 L15,25 A15 12.5 0 0 0 15,0 Z" class="cell_\17 fill-1"/>
    <g s:x="0" s:y="5" s:pid="A"/>
    <g s:x="0" s:y="20" s:pid="B"/>
    <g s:x="30" s:y="12.5" s:pid="Y"/>
  </g>
  <g s:type="and" transform="translate(250.66666666666666,142)" s:width="30" s:height="25" id="cell_\33">
    <s:alias val="$and"/>
    <s:alias val="$logic_and"/>
    <s:alias val="$_AND_"/>
    <s:alias val="$reduce_and"/>
    <path d="M0,0 L0,25 L15,25 A15 12.5 0 0 0 15,0 Z" class="cell_\33 fill-1"/>
    <g s:x="0" s:y="5" s:pid="A"/>
    <g s:x="0" s:y="20" s:pid="B"/>
    <g s:x="30" s:y="12.5" s:pid="Y"/>
  </g>
  <g s:type="not" transform="translate(325,144.5)" s:width="30" s:height="20" id="cell_\34">
    <s:alias val="$_NOT_"/>
    <s:alias val="$not"/>
    <s:alias val="$logic_not"/>
    <path d="M0,0 L0,20 L20,10 Z" class="cell_\34 fill-1"/>
    <circle cx="24" cy="10" r="3" class="cell_\34 fill-3"/>
    <g s:x="-1" s:y="10" s:pid="A"/>
    <g s:x="27" s:y="10" s:pid="Y"/>
  </g>
  <g s:type="and" transform="translate(399.6666666666667,92)" s:width="30" s:height="25" id="cell_\35">
    <s:alias val="$and"/>
    <s:alias val="$logic_and"/>
    <s:alias val="$_AND_"/>
    <s:alias val="$reduce_and"/>
    <path d="M0,0 L0,25 L15,25 A15 12.5 0 0 0 15,0 Z" class="cell_\35 fill-1"/>
    <g s:x="0" s:y="5" s:pid="A"/>
    <g s:x="0" s:y="20" s:pid="B"/>
    <g s:x="30" s:y="12.5" s:pid="Y"/>
  </g>
  <g s:type="and" transform="translate(653,533)" s:width="30" s:height="25" id="cell_\36">
    <s:alias val="$and"/>
    <s:alias val="$logic_and"/>
    <s:alias val="$_AND_"/>
    <s:alias val="$reduce_and"/>
    <path d="M0,0 L0,25 L15,25 A15 12.5 0 0 0 15,0 Z" class="cell_\36 fill-1"/>
    <g s:x="0" s:y="5" s:pid="A"/>
    <g s:x="0" s:y="20" s:pid="B"/>
    <g s:x="30" s:y="12.5" s:pid="Y"/>
  </g>
  <g s:type="or" transform="translate(1341.3333333333333,563)" s:width="30" s:height="25" id="cell_\37">
    <s:alias val="$or"/>
    <s:alias val="$logic_or"/>
    <s:alias val="$_OR_"/>
    <s:alias val="$reduce_or"/>
    <s:alias val="$reduce_bool"/>
    <path d="M0,0 A30 25 0 0 1 0,25 A30 25 0 0 0 30,12.5 A30 25 0 0 0 0,0" class="cell_\37 fill-1"/>
    <g s:x="2" s:y="5" s:pid="A"/>
    <g s:x="2" s:y="20" s:pid="B"/>
    <g s:x="30" s:y="12.5" s:pid="Y"/>
  </g>
  <g s:type="reduce_xor" transform="translate(652,332)" s:width="33" s:height="25" id="cell_\38">
    <s:alias val="$xor"/>
    <s:alias val="$reduce_xor"/>
    <s:alias val="$_XOR_"/>
    <path d="M3,0 A30 25 0 0 1 3,25 A30 25 0 0 0 33,12.5 A30 25 0 0 0 3,0" class="cell_\38 fill-1"/>
    <path d="M0,0 A30 25 0 0 1 0,25" class="cell_\38"/>
    <g s:x="2" s:y="5" s:pid="A"/>
    <g s:x="2" s:y="20" s:pid="B"/>
    <g s:x="33" s:y="12.5" s:pid="Y"/>
  </g>
  <g s:type="reduce_xor" transform="translate(1049,499.5)" s:width="33" s:height="25" id="cell_\41">
    <s:alias val="$xor"/>
    <s:alias val="$reduce_xor"/>
    <s:alias val="$_XOR_"/>
    <path d="M3,0 A30 25 0 0 1 3,25 A30 25 0 0 0 33,12.5 A30 25 0 0 0 3,0" class="cell_\41 fill-1"/>
    <path d="M0,0 A30 25 0 0 1 0,25" class="cell_\41"/>
    <g s:x="2" s:y="5" s:pid="A"/>
    <g s:x="2" s:y="20" s:pid="B"/>
    <g s:x="33" s:y="12.5" s:pid="Y"/>
  </g>
  <g s:type="reduce_xor" transform="translate(1117,419)" s:width="33" s:height="25" id="cell_\44">
    <s:alias val="$xor"/>
    <s:alias val="$reduce_xor"/>
    <s:alias val="$_XOR_"/>
    <path d="M3,0 A30 25 0 0 1 3,25 A30 25 0 0 0 33,12.5 A30 25 0 0 0 3,0" class="cell_\44 fill-1"/>
    <path d="M0,0 A30 25 0 0 1 0,25" class="cell_\44"/>
    <g s:x="2" s:y="5" s:pid="A"/>
    <g s:x="2" s:y="20" s:pid="B"/>
    <g s:x="33" s:y="12.5" s:pid="Y"/>
  </g>
  <g s:type="reduce_xor" transform="translate(1185,469.5)" s:width="33" s:height="25" id="cell_\46">
    <s:alias val="$xor"/>
    <s:alias val="$reduce_xor"/>
    <s:alias val="$_XOR_"/>
    <path d="M3,0 A30 25 0 0 1 3,25 A30 25 0 0 0 33,12.5 A30 25 0 0 0 3,0" class="cell_\46 fill-1"/>
    <path d="M0,0 A30 25 0 0 1 0,25" class="cell_\46"/>
    <g s:x="2" s:y="5" s:pid="A"/>
    <g s:x="2" s:y="20" s:pid="B"/>
    <g s:x="33" s:y="12.5" s:pid="Y"/>
  </g>
  <g s:type="not" transform="translate(1186.5,304.5)" s:width="30" s:height="20" id="cell_\90">
    <s:alias val="$_NOT_"/>
    <s:alias val="$not"/>
    <s:alias val="$logic_not"/>
    <path d="M0,0 L0,20 L20,10 Z" class="cell_\90 fill-1"/>
    <circle cx="24" cy="10" r="3" class="cell_\90 fill-3"/>
    <g s:x="-1" s:y="10" s:pid="A"/>
    <g s:x="27" s:y="10" s:pid="Y"/>
  </g>
  <g s:type="generic" transform="translate(811,294)" s:width="30" s:height="40" id="cell_carry_lookahead">
    <text x="15" y="-4" class="nodelabel text-1 cell_carry_lookahead" s:attribute="ref">generic_carry_lookahead_32</text>
    <rect width="30" height="60" s:generic="body" class="cell_carry_lookahead fill-1"/>
    <g transform="translate(0,10)" s:x="0" s:y="10" s:pid="in0" id="port_carry_lookahead~carry_generate">
      <text x="-3" y="-4" class="inputPortLabel text-2 cell_carry_lookahead">carry_generate</text>
    </g>
    <g transform="translate(0,30)" s:x="0" s:y="10" s:pid="in0" id="port_carry_lookahead~carry_in">
      <text x="-3" y="-4" class="inputPortLabel text-2 cell_carry_lookahead">carry_in</text>
    </g>
    <g transform="translate(0,50)" s:x="0" s:y="10" s:pid="in0" id="port_carry_lookahead~carry_propagate">
      <text x="-3" y="-4" class="inputPortLabel text-2 cell_carry_lookahead">carry_propagate</text>
    </g>
    <g transform="translate(30,10)" s:x="30" s:y="10" s:pid="out0" id="port_carry_lookahead~carry_out">
      <text x="5" y="-4" class="cell_carry_lookahead text-2">carry_out</text>
    </g>
  </g>
  <g s:type="generic" transform="translate(1556,234)" s:width="30" s:height="40" id="cell_mux_destination_1">
    <text x="15" y="-4" class="nodelabel text-1 cell_mux_destination_1" s:attribute="ref">generic_mux_4x1_32</text>
    <rect width="30" height="100" s:generic="body" class="cell_mux_destination_1 fill-1"/>
    <g transform="translate(0,10)" s:x="0" s:y="10" s:pid="in0" id="port_mux_destination_1~selector">
      <text x="-3" y="-4" class="inputPortLabel text-2 cell_mux_destination_1">selector</text>
    </g>
    <g transform="translate(0,30)" s:x="0" s:y="10" s:pid="in0" id="port_mux_destination_1~source_1">
      <text x="-3" y="-4" class="inputPortLabel text-2 cell_mux_destination_1">source_1</text>
    </g>
    <g transform="translate(0,50)" s:x="0" s:y="10" s:pid="in0" id="port_mux_destination_1~source_2">
      <text x="-3" y="-4" class="inputPortLabel text-2 cell_mux_destination_1">source_2</text>
    </g>
    <g transform="translate(0,70)" s:x="0" s:y="10" s:pid="in0" id="port_mux_destination_1~source_3">
      <text x="-3" y="-4" class="inputPortLabel text-2 cell_mux_destination_1">source_3</text>
    </g>
    <g transform="translate(0,90)" s:x="0" s:y="10" s:pid="in0" id="port_mux_destination_1~source_4">
      <text x="-3" y="-4" class="inputPortLabel text-2 cell_mux_destination_1">source_4</text>
    </g>
    <g transform="translate(30,10)" s:x="30" s:y="10" s:pid="out0" id="port_mux_destination_1~destination">
      <text x="5" y="-4" class="cell_mux_destination_1 text-2">destination</text>
    </g>
  </g>
  <g s:type="generic" transform="translate(1556,455)" s:width="30" s:height="40" id="cell_mux_destination_2">
    <text x="15" y="-4" class="nodelabel text-1 cell_mux_destination_2" s:attribute="ref">generic_mux_4x1_32</text>
    <rect width="30" height="100" s:generic="body" class="cell_mux_destination_2 fill-1"/>
    <g transform="translate(0,10)" s:x="0" s:y="10" s:pid="in0" id="port_mux_destination_2~selector">
      <text x="-3" y="-4" class="inputPortLabel text-2 cell_mux_destination_2">selector</text>
    </g>
    <g transform="translate(0,30)" s:x="0" s:y="10" s:pid="in0" id="port_mux_destination_2~source_1">
      <text x="-3" y="-4" class="inputPortLabel text-2 cell_mux_destination_2">source_1</text>
    </g>
    <g transform="translate(0,50)" s:x="0" s:y="10" s:pid="in0" id="port_mux_destination_2~source_2">
      <text x="-3" y="-4" class="inputPortLabel text-2 cell_mux_destination_2">source_2</text>
    </g>
    <g transform="translate(0,70)" s:x="0" s:y="10" s:pid="in0" id="port_mux_destination_2~source_3">
      <text x="-3" y="-4" class="inputPortLabel text-2 cell_mux_destination_2">source_3</text>
    </g>
    <g transform="translate(0,90)" s:x="0" s:y="10" s:pid="in0" id="port_mux_destination_2~source_4">
      <text x="-3" y="-4" class="inputPortLabel text-2 cell_mux_destination_2">source_4</text>
    </g>
    <g transform="translate(30,10)" s:x="30" s:y="10" s:pid="out0" id="port_mux_destination_2~destination">
      <text x="5" y="-4" class="cell_mux_destination_2 text-2">destination</text>
    </g>
  </g>
  <g s:type="generic" transform="translate(1742,214)" s:width="30" s:height="40" id="cell_mux_destination_3">
    <text x="15" y="-4" class="nodelabel text-1 cell_mux_destination_3" s:attribute="ref">generic_mux_2x1_32</text>
    <rect width="30" height="60" s:generic="body" class="cell_mux_destination_3 fill-1"/>
    <g transform="translate(0,10)" s:x="0" s:y="10" s:pid="in0" id="port_mux_destination_3~selector">
      <text x="-3" y="-4" class="inputPortLabel text-2 cell_mux_destination_3">selector</text>
    </g>
    <g transform="translate(0,30)" s:x="0" s:y="10" s:pid="in0" id="port_mux_destination_3~source_1">
      <text x="-3" y="-4" class="inputPortLabel text-2 cell_mux_destination_3">source_1</text>
    </g>
    <g transform="translate(0,50)" s:x="0" s:y="10" s:pid="in0" id="port_mux_destination_3~source_2">
      <text x="-3" y="-4" class="inputPortLabel text-2 cell_mux_destination_3">source_2</text>
    </g>
    <g transform="translate(30,10)" s:x="30" s:y="10" s:pid="out0" id="port_mux_destination_3~destination">
      <text x="5" y="-4" class="cell_mux_destination_3 text-2">destination</text>
    </g>
  </g>
  <g s:type="generic" transform="translate(519,341.5)" s:width="30" s:height="40" id="cell_mux_source_2">
    <text x="15" y="-4" class="nodelabel text-1 cell_mux_source_2" s:attribute="ref">generic_mux_2x1_32</text>
    <rect width="30" height="60" s:generic="body" class="cell_mux_source_2 fill-1"/>
    <g transform="translate(0,10)" s:x="0" s:y="10" s:pid="in0" id="port_mux_source_2~selector">
      <text x="-3" y="-4" class="inputPortLabel text-2 cell_mux_source_2">selector</text>
    </g>
    <g transform="translate(0,30)" s:x="0" s:y="10" s:pid="in0" id="port_mux_source_2~source_1">
      <text x="-3" y="-4" class="inputPortLabel text-2 cell_mux_source_2">source_1</text>
    </g>
    <g transform="translate(0,50)" s:x="0" s:y="10" s:pid="in0" id="port_mux_source_2~source_2">
      <text x="-3" y="-4" class="inputPortLabel text-2 cell_mux_source_2">source_2</text>
    </g>
    <g transform="translate(30,10)" s:x="30" s:y="10" s:pid="out0" id="port_mux_source_2~destination">
      <text x="5" y="-4" class="cell_mux_source_2 text-2">destination</text>
    </g>
  </g>
  <g s:type="generic" transform="translate(1349,198)" s:width="30" s:height="40" id="cell_shifter">
    <text x="15" y="-4" class="nodelabel text-1 cell_shifter" s:attribute="ref">rv32i_alu_shifter_32_5</text>
    <rect width="30" height="60" s:generic="body" class="cell_shifter fill-1"/>
    <g transform="translate(0,10)" s:x="0" s:y="10" s:pid="in0" id="port_shifter~select_function">
      <text x="-3" y="-4" class="inputPortLabel text-2 cell_shifter">select_function</text>
    </g>
    <g transform="translate(0,30)" s:x="0" s:y="10" s:pid="in0" id="port_shifter~shamt">
      <text x="-3" y="-4" class="inputPortLabel text-2 cell_shifter">shamt</text>
    </g>
    <g transform="translate(0,50)" s:x="0" s:y="10" s:pid="in0" id="port_shifter~source">
      <text x="-3" y="-4" class="inputPortLabel text-2 cell_shifter">source</text>
    </g>
    <g transform="translate(30,10)" s:x="30" s:y="10" s:pid="out0" id="port_shifter~destination">
      <text x="5" y="-4" class="cell_shifter text-2">destination</text>
    </g>
  </g>
  <g s:type="inputExt" transform="translate(12,22)" s:width="30" s:height="20" id="cell_select_function">
    <text x="15" y="-4" class="nodelabel text-1 cell_select_function" s:attribute="ref">select_function</text>
    <s:alias val="$_inputExt_"/>
    <path d="M0,0 L0,20 L15,20 L30,10 L15,0 Z" class="cell_select_function fill-4"/>
    <g s:x="30" s:y="10" s:pid="Y"/>
  </g>
  <g s:type="inputExt" transform="translate(519,528)" s:width="30" s:height="20" id="cell_source_1">
    <text x="15" y="-4" class="nodelabel text-1 cell_source_1" s:attribute="ref">source_1</text>
    <s:alias val="$_inputExt_"/>
    <path d="M0,0 L0,20 L15,20 L30,10 L15,0 Z" class="cell_source_1 fill-4"/>
    <g s:x="30" s:y="10" s:pid="Y"/>
  </g>
  <g s:type="inputExt" transform="translate(316,241)" s:width="30" s:height="20" id="cell_source_2">
    <text x="15" y="-4" class="nodelabel text-1 cell_source_2" s:attribute="ref">source_2</text>
    <s:alias val="$_inputExt_"/>
    <path d="M0,0 L0,20 L15,20 L30,10 L15,0 Z" class="cell_source_2 fill-4"/>
    <g s:x="30" s:y="10" s:pid="Y"/>
  </g>
  <g s:type="outputExt" transform="translate(1879,421.5)" s:width="30" s:height="20" id="cell_overflow">
    <text x="15" y="-4" class="nodelabel text-1 cell_overflow" s:attribute="ref">overflow</text>
    <s:alias val="$_outputExt_"/>
    <path d="M30,0 L30,20 L15,20 L0,10 L15,0 Z" class="cell_overflow fill-4"/>
    <g s:x="0" s:y="10" s:pid="A"/>
  </g>
  <g s:type="outputExt" transform="translate(1879,214.5)" s:width="30" s:height="20" id="cell_destination">
    <text x="15" y="-4" class="nodelabel text-1 cell_destination" s:attribute="ref">destination</text>
    <s:alias val="$_outputExt_"/>
    <path d="M30,0 L30,20 L15,20 L0,10 L15,0 Z" class="cell_destination fill-4"/>
    <g s:x="0" s:y="10" s:pid="A"/>
  </g>
  <g s:type="constant" transform="translate(1185,401.5)" s:width="30" s:height="20" id="cell_0000000000000000000000000000000">
    <text x="15" y="-4" class="nodelabel text-1 cell_0000000000000000000000000000000" s:attribute="ref">0x0</text>
    <s:alias val="$_constant_"/>
    <rect width="30" height="20" class="cell_0000000000000000000000000000000 fill-4"/>
    <g s:x="31" s:y="10" s:pid="Y"/>
  </g>
  <g s:type="join" transform="translate(1008,264)" s:width="4" s:height="40" id="cell_$join$,140,269,270,271,272,273,274,275,276,277,278,279,280,281,282,283,284,285,286,287,288,289,290,291,292,293,294,295,296,297,298,299,">
    <rect width="5" height="40" class="splitjoinBody" s:generic="body"/>
    <s:alias val="$_join_"/>
    <g s:x="5" s:y="20" s:pid="out"/>
    <g transform="translate(0,10)" s:x="0" s:y="10" s:pid="in0">
      <text x="-3" y="-4" class="inputPortLabel text-2">0</text>
    </g>
    <g transform="translate(0,30)" s:x="0" s:y="10" s:pid="in0">
      <text x="-3" y="-4" class="inputPortLabel text-2">1:31</text>
    </g>
  </g>
  <g s:type="join" transform="translate(1350,381)" s:width="4" s:height="40" id="cell_$join$,333,431,432,433,434,435,436,437,438,439,440,441,442,443,444,445,446,447,448,449,450,451,452,453,454,455,456,457,458,459,460,461,">
    <rect width="5" height="40" class="splitjoinBody" s:generic="body"/>
    <s:alias val="$_join_"/>
    <g s:x="5" s:y="20" s:pid="out"/>
    <g transform="translate(0,10)" s:x="0" s:y="10" s:pid="in0">
      <text x="-3" y="-4" class="inputPortLabel text-2">0</text>
    </g>
    <g transform="translate(0,30)" s:x="0" s:y="10" s:pid="in0">
      <text x="-3" y="-4" class="inputPortLabel text-2">1:31</text>
    </g>
  </g>
  <g s:type="join" transform="translate(1350,304)" s:width="4" s:height="40" id="cell_$join$,334,431,432,433,434,435,436,437,438,439,440,441,442,443,444,445,446,447,448,449,450,451,452,453,454,455,456,457,458,459,460,461,">
    <rect width="5" height="40" class="splitjoinBody" s:generic="body"/>
    <s:alias val="$_join_"/>
    <g s:x="5" s:y="20" s:pid="out"/>
    <g transform="translate(0,10)" s:x="0" s:y="10" s:pid="in0">
      <text x="-3" y="-4" class="inputPortLabel text-2">0</text>
    </g>
    <g transform="translate(0,30)" s:x="0" s:y="10" s:pid="in0">
      <text x="-3" y="-4" class="inputPortLabel text-2">1:31</text>
    </g>
  </g>
  <g s:type="split" transform="translate(137,43)" s:width="5" s:height="40" id="cell_$split$,2,3,4,5,">
    <rect width="5" height="100" class="splitjoinBody" s:generic="body"/>
    <s:alias val="$_split_"/>
    <g s:x="0" s:y="20" s:pid="in"/>
    <g transform="translate(4,10)" s:x="4" s:y="10" s:pid="out0">
      <text x="5" y="-4" class="text-2">2</text>
    </g>
    <g transform="translate(4,30)" s:x="4" s:y="10" s:pid="out0">
      <text x="5" y="-4" class="text-2">1</text>
    </g>
    <g transform="translate(4,50)" s:x="4" s:y="10" s:pid="out0">
      <text x="5" y="-4" class="text-2">3</text>
    </g>
    <g transform="translate(4,70)" s:x="4" s:y="10" s:pid="out0">
      <text x="5" y="-4" class="text-2">0</text>
    </g>
    <g transform="translate(4,90)" s:x="4" s:y="10" s:pid="out0">
      <text x="5" y="-4" class="text-2">0:1</text>
    </g>
  </g>
  <g s:type="split" transform="translate(936,284)" s:width="5" s:height="40" id="cell_$split$,269,270,271,272,273,274,275,276,277,278,279,280,281,282,283,284,285,286,287,288,289,290,291,292,293,294,295,296,297,298,299,332,">
    <rect width="5" height="60" class="splitjoinBody" s:generic="body"/>
    <s:alias val="$_split_"/>
    <g s:x="0" s:y="20" s:pid="in"/>
    <g transform="translate(4,10)" s:x="4" s:y="10" s:pid="out0">
      <text x="5" y="-4" class="text-2">0:30</text>
    </g>
    <g transform="translate(4,30)" s:x="4" s:y="10" s:pid="out0">
      <text x="5" y="-4" class="text-2">31</text>
    </g>
    <g transform="translate(4,50)" s:x="4" s:y="10" s:pid="out0">
      <text x="5" y="-4" class="text-2">30</text>
    </g>
  </g>
  <g s:type="split" transform="translate(1132,479)" s:width="5" s:height="40" id="cell_$split$,300,301,302,303,304,305,306,307,308,309,310,311,312,313,314,315,316,317,318,319,320,321,322,323,324,325,326,327,328,329,330,331,">
    <rect width="5" height="20" class="splitjoinBody" s:generic="body"/>
    <s:alias val="$_split_"/>
    <g s:x="0" s:y="20" s:pid="in"/>
    <g transform="translate(4,10)" s:x="4" s:y="10" s:pid="out0">
      <text x="5" y="-4" class="text-2">31</text>
    </g>
  </g>
  <g s:type="split" transform="translate(1194,218)" s:width="5" s:height="40" id="cell_$split$,38,39,40,41,42,43,44,45,46,47,48,49,50,51,52,53,54,55,56,57,58,59,60,61,62,63,64,65,66,67,68,69,">
    <rect width="5" height="20" class="splitjoinBody" s:generic="body"/>
    <s:alias val="$_split_"/>
    <g s:x="0" s:y="20" s:pid="in"/>
    <g transform="translate(4,10)" s:x="4" s:y="10" s:pid="out0">
      <text x="5" y="-4" class="text-2">0:4</text>
    </g>
  </g>
  <line x1="142" x2="250" y1="53.5" y2="53.5" class="net_4"/>
  <line x1="142" x2="235" y1="53.5" y2="53.5" class="net_4"/>
  <line x1="235" x2="235" y1="53.5" y2="73.5" class="net_4"/>
  <line x1="235" x2="1668" y1="73.5" y2="73.5" class="net_4"/>
  <line x1="1668" x2="1668" y1="73.5" y2="224.5" class="net_4"/>
  <circle cx="235" cy="53.5" r="2" style="fill:#000" class="net_4"/>
  <line x1="1668" x2="1742" y1="224.5" y2="224.5" class="net_4"/>
  <line x1="142" x2="159" y1="73.5" y2="73.5" class="net_3"/>
  <line x1="159" x2="159" y1="73.5" y2="74.5" class="net_3"/>
  <line x1="159" x2="184" y1="74.5" y2="74.5" class="net_3"/>
  <line x1="346" x2="374" y1="251" y2="251" class="net_38,39,40,41,42,43,44,45,46,47,48,49,50,51,52,53,54,55,56,57,58,59,60,61,62,63,64,65,66,67,68,69"/>
  <line x1="374" x2="374" y1="251" y2="272" class="net_38,39,40,41,42,43,44,45,46,47,48,49,50,51,52,53,54,55,56,57,58,59,60,61,62,63,64,65,66,67,68,69"/>
  <circle cx="374" cy="251" r="2" style="fill:#000" class="net_38,39,40,41,42,43,44,45,46,47,48,49,50,51,52,53,54,55,56,57,58,59,60,61,62,63,64,65,66,67,68,69"/>
  <circle cx="374" cy="272" r="2" style="fill:#000" class="net_38,39,40,41,42,43,44,45,46,47,48,49,50,51,52,53,54,55,56,57,58,59,60,61,62,63,64,65,66,67,68,69"/>
  <line x1="374" x2="399" y1="272" y2="272" class="net_38,39,40,41,42,43,44,45,46,47,48,49,50,51,52,53,54,55,56,57,58,59,60,61,62,63,64,65,66,67,68,69"/>
  <line x1="346" x2="374" y1="251" y2="251" class="net_38,39,40,41,42,43,44,45,46,47,48,49,50,51,52,53,54,55,56,57,58,59,60,61,62,63,64,65,66,67,68,69"/>
  <line x1="374" x2="374" y1="251" y2="579" class="net_38,39,40,41,42,43,44,45,46,47,48,49,50,51,52,53,54,55,56,57,58,59,60,61,62,63,64,65,66,67,68,69"/>
  <line x1="374" x2="1228" y1="579" y2="579" class="net_38,39,40,41,42,43,44,45,46,47,48,49,50,51,52,53,54,55,56,57,58,59,60,61,62,63,64,65,66,67,68,69"/>
  <line x1="1228" x2="1228" y1="579" y2="583" class="net_38,39,40,41,42,43,44,45,46,47,48,49,50,51,52,53,54,55,56,57,58,59,60,61,62,63,64,65,66,67,68,69"/>
  <line x1="1228" x2="1343.3333333333333" y1="583" y2="583" class="net_38,39,40,41,42,43,44,45,46,47,48,49,50,51,52,53,54,55,56,57,58,59,60,61,62,63,64,65,66,67,68,69"/>
  <line x1="346" x2="450" y1="251" y2="251" class="net_38,39,40,41,42,43,44,45,46,47,48,49,50,51,52,53,54,55,56,57,58,59,60,61,62,63,64,65,66,67,68,69"/>
  <line x1="450" x2="450" y1="251" y2="372" class="net_38,39,40,41,42,43,44,45,46,47,48,49,50,51,52,53,54,55,56,57,58,59,60,61,62,63,64,65,66,67,68,69"/>
  <circle cx="450" cy="251" r="2" style="fill:#000" class="net_38,39,40,41,42,43,44,45,46,47,48,49,50,51,52,53,54,55,56,57,58,59,60,61,62,63,64,65,66,67,68,69"/>
  <line x1="450" x2="519" y1="372" y2="372" class="net_38,39,40,41,42,43,44,45,46,47,48,49,50,51,52,53,54,55,56,57,58,59,60,61,62,63,64,65,66,67,68,69"/>
  <line x1="346" x2="1194.5" y1="251" y2="251" class="net_38,39,40,41,42,43,44,45,46,47,48,49,50,51,52,53,54,55,56,57,58,59,60,61,62,63,64,65,66,67,68,69"/>
  <line x1="1194.5" x2="1194.5" y1="251" y2="239" class="net_38,39,40,41,42,43,44,45,46,47,48,49,50,51,52,53,54,55,56,57,58,59,60,61,62,63,64,65,66,67,68,69"/>
  <line x1="278" x2="291" y1="53.5" y2="53.5" class="net_103"/>
  <line x1="291" x2="291" y1="53.5" y2="89.5" class="net_103"/>
  <line x1="291" x2="322.3333333333333" y1="89.5" y2="89.5" class="net_103"/>
  <line x1="142" x2="159" y1="93.5" y2="93.5" class="net_5"/>
  <line x1="159" x2="159" y1="93.5" y2="104.5" class="net_5"/>
  <line x1="159" x2="322.3333333333333" y1="104.5" y2="104.5" class="net_5"/>
  <line x1="142" x2="159" y1="113.5" y2="113.5" class="net_2"/>
  <line x1="159" x2="159" y1="113.5" y2="147" class="net_2"/>
  <line x1="159" x2="250.66666666666666" y1="147" y2="147" class="net_2"/>
  <line x1="212" x2="225" y1="74.5" y2="74.5" class="net_104"/>
  <line x1="225" x2="225" y1="74.5" y2="162" class="net_104"/>
  <line x1="225" x2="250.66666666666666" y1="162" y2="162" class="net_104"/>
  <line x1="280.66666666666663" x2="324" y1="154.5" y2="154.5" class="net_138"/>
  <line x1="352.3333333333333" x2="399.6666666666667" y1="97" y2="97" class="net_137"/>
  <line x1="352" x2="374" y1="154.5" y2="154.5" class="net_139"/>
  <line x1="374" x2="374" y1="154.5" y2="112" class="net_139"/>
  <line x1="374" x2="399.6666666666667" y1="112" y2="112" class="net_139"/>
  <line x1="549" x2="653" y1="538" y2="538" class="net_6,7,8,9,10,11,12,13,14,15,16,17,18,19,20,21,22,23,24,25,26,27,28,29,30,31,32,33,34,35,36,37"/>
  <line x1="549" x2="627" y1="538" y2="538" class="net_6,7,8,9,10,11,12,13,14,15,16,17,18,19,20,21,22,23,24,25,26,27,28,29,30,31,32,33,34,35,36,37"/>
  <line x1="627" x2="627" y1="538" y2="568" class="net_6,7,8,9,10,11,12,13,14,15,16,17,18,19,20,21,22,23,24,25,26,27,28,29,30,31,32,33,34,35,36,37"/>
  <circle cx="627" cy="538" r="2" style="fill:#000" class="net_6,7,8,9,10,11,12,13,14,15,16,17,18,19,20,21,22,23,24,25,26,27,28,29,30,31,32,33,34,35,36,37"/>
  <line x1="627" x2="1343.3333333333333" y1="568" y2="568" class="net_6,7,8,9,10,11,12,13,14,15,16,17,18,19,20,21,22,23,24,25,26,27,28,29,30,31,32,33,34,35,36,37"/>
  <line x1="549" x2="627" y1="538" y2="538" class="net_6,7,8,9,10,11,12,13,14,15,16,17,18,19,20,21,22,23,24,25,26,27,28,29,30,31,32,33,34,35,36,37"/>
  <line x1="627" x2="627" y1="538" y2="337" class="net_6,7,8,9,10,11,12,13,14,15,16,17,18,19,20,21,22,23,24,25,26,27,28,29,30,31,32,33,34,35,36,37"/>
  <line x1="627" x2="654" y1="337" y2="337" class="net_6,7,8,9,10,11,12,13,14,15,16,17,18,19,20,21,22,23,24,25,26,27,28,29,30,31,32,33,34,35,36,37"/>
  <line x1="549" x2="627" y1="538" y2="538" class="net_6,7,8,9,10,11,12,13,14,15,16,17,18,19,20,21,22,23,24,25,26,27,28,29,30,31,32,33,34,35,36,37"/>
  <line x1="627" x2="627" y1="538" y2="568" class="net_6,7,8,9,10,11,12,13,14,15,16,17,18,19,20,21,22,23,24,25,26,27,28,29,30,31,32,33,34,35,36,37"/>
  <line x1="627" x2="1228" y1="568" y2="568" class="net_6,7,8,9,10,11,12,13,14,15,16,17,18,19,20,21,22,23,24,25,26,27,28,29,30,31,32,33,34,35,36,37"/>
  <line x1="1228" x2="1228" y1="568" y2="248.5" class="net_6,7,8,9,10,11,12,13,14,15,16,17,18,19,20,21,22,23,24,25,26,27,28,29,30,31,32,33,34,35,36,37"/>
  <circle cx="1228" cy="568" r="2" style="fill:#000" class="net_6,7,8,9,10,11,12,13,14,15,16,17,18,19,20,21,22,23,24,25,26,27,28,29,30,31,32,33,34,35,36,37"/>
  <line x1="1228" x2="1349" y1="248.5" y2="248.5" class="net_6,7,8,9,10,11,12,13,14,15,16,17,18,19,20,21,22,23,24,25,26,27,28,29,30,31,32,33,34,35,36,37"/>
  <line x1="550" x2="637" y1="352" y2="352" class="net_141,142,143,144,145,146,147,148,149,150,151,152,153,154,155,156,157,158,159,160,161,162,163,164,165,166,167,168,169,170,171,172"/>
  <line x1="637" x2="637" y1="352" y2="553" class="net_141,142,143,144,145,146,147,148,149,150,151,152,153,154,155,156,157,158,159,160,161,162,163,164,165,166,167,168,169,170,171,172"/>
  <circle cx="637" cy="352" r="2" style="fill:#000" class="net_141,142,143,144,145,146,147,148,149,150,151,152,153,154,155,156,157,158,159,160,161,162,163,164,165,166,167,168,169,170,171,172"/>
  <line x1="637" x2="653" y1="553" y2="553" class="net_141,142,143,144,145,146,147,148,149,150,151,152,153,154,155,156,157,158,159,160,161,162,163,164,165,166,167,168,169,170,171,172"/>
  <line x1="550" x2="654" y1="352" y2="352" class="net_141,142,143,144,145,146,147,148,149,150,151,152,153,154,155,156,157,158,159,160,161,162,163,164,165,166,167,168,169,170,171,172"/>
  <line x1="685" x2="705" y1="344.5" y2="344.5" class="net_237,238,239,240,241,242,243,244,245,246,247,248,249,250,251,252,253,254,255,256,257,258,259,260,261,262,263,264,265,266,267,268"/>
  <line x1="705" x2="705" y1="344.5" y2="504.5" class="net_237,238,239,240,241,242,243,244,245,246,247,248,249,250,251,252,253,254,255,256,257,258,259,260,261,262,263,264,265,266,267,268"/>
  <circle cx="705" cy="344.5" r="2" style="fill:#000" class="net_237,238,239,240,241,242,243,244,245,246,247,248,249,250,251,252,253,254,255,256,257,258,259,260,261,262,263,264,265,266,267,268"/>
  <line x1="705" x2="1051" y1="504.5" y2="504.5" class="net_237,238,239,240,241,242,243,244,245,246,247,248,249,250,251,252,253,254,255,256,257,258,259,260,261,262,263,264,265,266,267,268"/>
  <line x1="685" x2="811" y1="344.5" y2="344.5" class="net_237,238,239,240,241,242,243,244,245,246,247,248,249,250,251,252,253,254,255,256,257,258,259,260,261,262,263,264,265,266,267,268"/>
  <line x1="685" x2="705" y1="344.5" y2="344.5" class="net_237,238,239,240,241,242,243,244,245,246,247,248,249,250,251,252,253,254,255,256,257,258,259,260,261,262,263,264,265,266,267,268"/>
  <line x1="705" x2="705" y1="344.5" y2="504.5" class="net_237,238,239,240,241,242,243,244,245,246,247,248,249,250,251,252,253,254,255,256,257,258,259,260,261,262,263,264,265,266,267,268"/>
  <line x1="705" x2="1024" y1="504.5" y2="504.5" class="net_237,238,239,240,241,242,243,244,245,246,247,248,249,250,251,252,253,254,255,256,257,258,259,260,261,262,263,264,265,266,267,268"/>
  <line x1="1024" x2="1024" y1="504.5" y2="534.5" class="net_237,238,239,240,241,242,243,244,245,246,247,248,249,250,251,252,253,254,255,256,257,258,259,260,261,262,263,264,265,266,267,268"/>
  <line x1="1024" x2="1467" y1="534.5" y2="534.5" class="net_237,238,239,240,241,242,243,244,245,246,247,248,249,250,251,252,253,254,255,256,257,258,259,260,261,262,263,264,265,266,267,268"/>
  <line x1="1467" x2="1467" y1="534.5" y2="485.5" class="net_237,238,239,240,241,242,243,244,245,246,247,248,249,250,251,252,253,254,255,256,257,258,259,260,261,262,263,264,265,266,267,268"/>
  <circle cx="1024" cy="504.5" r="2" style="fill:#000" class="net_237,238,239,240,241,242,243,244,245,246,247,248,249,250,251,252,253,254,255,256,257,258,259,260,261,262,263,264,265,266,267,268"/>
  <line x1="1467" x2="1556" y1="485.5" y2="485.5" class="net_237,238,239,240,241,242,243,244,245,246,247,248,249,250,251,252,253,254,255,256,257,258,259,260,261,262,263,264,265,266,267,268"/>
  <line x1="1014" x2="1034" y1="284.5" y2="284.5" class="net_140,269,270,271,272,273,274,275,276,277,278,279,280,281,282,283,284,285,286,287,288,289,290,291,292,293,294,295,296,297,298,299"/>
  <line x1="1034" x2="1034" y1="284.5" y2="519.5" class="net_140,269,270,271,272,273,274,275,276,277,278,279,280,281,282,283,284,285,286,287,288,289,290,291,292,293,294,295,296,297,298,299"/>
  <line x1="1034" x2="1051" y1="519.5" y2="519.5" class="net_140,269,270,271,272,273,274,275,276,277,278,279,280,281,282,283,284,285,286,287,288,289,290,291,292,293,294,295,296,297,298,299"/>
  <line x1="941" x2="1092" y1="314.5" y2="314.5" class="net_332"/>
  <line x1="1092" x2="1092" y1="314.5" y2="424" class="net_332"/>
  <circle cx="1092" cy="314.5" r="2" style="fill:#000" class="net_332"/>
  <line x1="1092" x2="1119" y1="424" y2="424" class="net_332"/>
  <line x1="941" x2="1185.5" y1="314.5" y2="314.5" class="net_332"/>
  <line x1="941" x2="976" y1="334.5" y2="334.5" class="net_299"/>
  <line x1="976" x2="976" y1="334.5" y2="439" class="net_299"/>
  <line x1="976" x2="1119" y1="439" y2="439" class="net_299"/>
  <line x1="1150" x2="1160" y1="431.5" y2="431.5" class="net_70"/>
  <line x1="1160" x2="1160" y1="431.5" y2="474.5" class="net_70"/>
  <circle cx="1160" cy="431.5" r="2" style="fill:#000" class="net_70"/>
  <line x1="1160" x2="1187" y1="474.5" y2="474.5" class="net_70"/>
  <line x1="1150" x2="1879" y1="431.5" y2="431.5" class="net_70"/>
  <line x1="1137" x2="1187" y1="489.5" y2="489.5" class="net_331"/>
  <line x1="683" x2="695" y1="545.5" y2="545.5" class="net_173,174,175,176,177,178,179,180,181,182,183,184,185,186,187,188,189,190,191,192,193,194,195,196,197,198,199,200,201,202,203,204"/>
  <line x1="695" x2="695" y1="545.5" y2="304.5" class="net_173,174,175,176,177,178,179,180,181,182,183,184,185,186,187,188,189,190,191,192,193,194,195,196,197,198,199,200,201,202,203,204"/>
  <circle cx="695" cy="545.5" r="2" style="fill:#000" class="net_173,174,175,176,177,178,179,180,181,182,183,184,185,186,187,188,189,190,191,192,193,194,195,196,197,198,199,200,201,202,203,204"/>
  <line x1="695" x2="811" y1="304.5" y2="304.5" class="net_173,174,175,176,177,178,179,180,181,182,183,184,185,186,187,188,189,190,191,192,193,194,195,196,197,198,199,200,201,202,203,204"/>
  <line x1="683" x2="1556" y1="545.5" y2="545.5" class="net_173,174,175,176,177,178,179,180,181,182,183,184,185,186,187,188,189,190,191,192,193,194,195,196,197,198,199,200,201,202,203,204"/>
  <line x1="429.6666666666667" x2="705" y1="104.5" y2="104.5" class="net_140"/>
  <line x1="705" x2="705" y1="104.5" y2="324.5" class="net_140"/>
  <circle cx="705" cy="104.5" r="2" style="fill:#000" class="net_140"/>
  <line x1="705" x2="811" y1="324.5" y2="324.5" class="net_140"/>
  <line x1="429.6666666666667" x2="460" y1="104.5" y2="104.5" class="net_140"/>
  <line x1="460" x2="460" y1="104.5" y2="352" class="net_140"/>
  <circle cx="460" cy="104.5" r="2" style="fill:#000" class="net_140"/>
  <line x1="460" x2="519" y1="352" y2="352" class="net_140"/>
  <line x1="429.6666666666667" x2="976" y1="104.5" y2="104.5" class="net_140"/>
  <line x1="976" x2="976" y1="104.5" y2="274.5" class="net_140"/>
  <line x1="976" x2="1008" y1="274.5" y2="274.5" class="net_140"/>
  <line x1="141.5" x2="141.5" y1="134" y2="177" class="net_2,3"/>
  <line x1="141.5" x2="1487" y1="177" y2="177" class="net_2,3"/>
  <line x1="1487" x2="1487" y1="177" y2="244.5" class="net_2,3"/>
  <line x1="1487" x2="1556" y1="244.5" y2="244.5" class="net_2,3"/>
  <line x1="141.5" x2="141.5" y1="134" y2="177" class="net_2,3"/>
  <line x1="141.5" x2="291" y1="177" y2="177" class="net_2,3"/>
  <line x1="291" x2="291" y1="177" y2="598" class="net_2,3"/>
  <line x1="291" x2="1487" y1="598" y2="598" class="net_2,3"/>
  <line x1="1487" x2="1487" y1="598" y2="465.5" class="net_2,3"/>
  <circle cx="291" cy="177" r="2" style="fill:#000" class="net_2,3"/>
  <line x1="1487" x2="1556" y1="465.5" y2="465.5" class="net_2,3"/>
  <line x1="1082" x2="1092" y1="512" y2="512" class="net_300,301,302,303,304,305,306,307,308,309,310,311,312,313,314,315,316,317,318,319,320,321,322,323,324,325,326,327,328,329,330,331"/>
  <line x1="1092" x2="1092" y1="512" y2="522" class="net_300,301,302,303,304,305,306,307,308,309,310,311,312,313,314,315,316,317,318,319,320,321,322,323,324,325,326,327,328,329,330,331"/>
  <line x1="1092" x2="1457" y1="522" y2="522" class="net_300,301,302,303,304,305,306,307,308,309,310,311,312,313,314,315,316,317,318,319,320,321,322,323,324,325,326,327,328,329,330,331"/>
  <line x1="1457" x2="1457" y1="522" y2="264.5" class="net_300,301,302,303,304,305,306,307,308,309,310,311,312,313,314,315,316,317,318,319,320,321,322,323,324,325,326,327,328,329,330,331"/>
  <circle cx="1092" cy="512" r="2" style="fill:#000" class="net_300,301,302,303,304,305,306,307,308,309,310,311,312,313,314,315,316,317,318,319,320,321,322,323,324,325,326,327,328,329,330,331"/>
  <line x1="1457" x2="1556" y1="264.5" y2="264.5" class="net_300,301,302,303,304,305,306,307,308,309,310,311,312,313,314,315,316,317,318,319,320,321,322,323,324,325,326,327,328,329,330,331"/>
  <line x1="1082" x2="1132.5" y1="512" y2="512" class="net_300,301,302,303,304,305,306,307,308,309,310,311,312,313,314,315,316,317,318,319,320,321,322,323,324,325,326,327,328,329,330,331"/>
  <line x1="1132.5" x2="1132.5" y1="512" y2="500" class="net_300,301,302,303,304,305,306,307,308,309,310,311,312,313,314,315,316,317,318,319,320,321,322,323,324,325,326,327,328,329,330,331"/>
  <line x1="1380" x2="1477" y1="208.5" y2="208.5" class="net_367,368,369,370,371,372,373,374,375,376,377,378,379,380,381,382,383,384,385,386,387,388,389,390,391,392,393,394,395,396,397,398"/>
  <line x1="1477" x2="1477" y1="208.5" y2="284.5" class="net_367,368,369,370,371,372,373,374,375,376,377,378,379,380,381,382,383,384,385,386,387,388,389,390,391,392,393,394,395,396,397,398"/>
  <circle cx="1477" cy="284.5" r="2" style="fill:#000" class="net_367,368,369,370,371,372,373,374,375,376,377,378,379,380,381,382,383,384,385,386,387,388,389,390,391,392,393,394,395,396,397,398"/>
  <line x1="1477" x2="1556" y1="284.5" y2="284.5" class="net_367,368,369,370,371,372,373,374,375,376,377,378,379,380,381,382,383,384,385,386,387,388,389,390,391,392,393,394,395,396,397,398"/>
  <line x1="1380" x2="1477" y1="208.5" y2="208.5" class="net_367,368,369,370,371,372,373,374,375,376,377,378,379,380,381,382,383,384,385,386,387,388,389,390,391,392,393,394,395,396,397,398"/>
  <line x1="1477" x2="1477" y1="208.5" y2="505.5" class="net_367,368,369,370,371,372,373,374,375,376,377,378,379,380,381,382,383,384,385,386,387,388,389,390,391,392,393,394,395,396,397,398"/>
  <line x1="1477" x2="1556" y1="505.5" y2="505.5" class="net_367,368,369,370,371,372,373,374,375,376,377,378,379,380,381,382,383,384,385,386,387,388,389,390,391,392,393,394,395,396,397,398"/>
  <line x1="1356" x2="1487" y1="401.5" y2="401.5" class="net_333,431,432,433,434,435,436,437,438,439,440,441,442,443,444,445,446,447,448,449,450,451,452,453,454,455,456,457,458,459,460,461"/>
  <line x1="1487" x2="1487" y1="401.5" y2="304.5" class="net_333,431,432,433,434,435,436,437,438,439,440,441,442,443,444,445,446,447,448,449,450,451,452,453,454,455,456,457,458,459,460,461"/>
  <line x1="1487" x2="1556" y1="304.5" y2="304.5" class="net_333,431,432,433,434,435,436,437,438,439,440,441,442,443,444,445,446,447,448,449,450,451,452,453,454,455,456,457,458,459,460,461"/>
  <line x1="1356" x2="1556" y1="324.5" y2="324.5" class="net_334,431,432,433,434,435,436,437,438,439,440,441,442,443,444,445,446,447,448,449,450,451,452,453,454,455,456,457,458,459,460,461"/>
  <line x1="1371.3333333333333" x2="1497" y1="575.5" y2="575.5" class="net_205,206,207,208,209,210,211,212,213,214,215,216,217,218,219,220,221,222,223,224,225,226,227,228,229,230,231,232,233,234,235,236"/>
  <line x1="1497" x2="1497" y1="575.5" y2="525.5" class="net_205,206,207,208,209,210,211,212,213,214,215,216,217,218,219,220,221,222,223,224,225,226,227,228,229,230,231,232,233,234,235,236"/>
  <line x1="1497" x2="1556" y1="525.5" y2="525.5" class="net_205,206,207,208,209,210,211,212,213,214,215,216,217,218,219,220,221,222,223,224,225,226,227,228,229,230,231,232,233,234,235,236"/>
  <line x1="1587" x2="1742" y1="244.5" y2="244.5" class="net_335,336,337,338,339,340,341,342,343,344,345,346,347,348,349,350,351,352,353,354,355,356,357,358,359,360,361,362,363,364,365,366"/>
  <line x1="1587" x2="1668" y1="465.5" y2="465.5" class="net_399,400,401,402,403,404,405,406,407,408,409,410,411,412,413,414,415,416,417,418,419,420,421,422,423,424,425,426,427,428,429,430"/>
  <line x1="1668" x2="1668" y1="465.5" y2="264.5" class="net_399,400,401,402,403,404,405,406,407,408,409,410,411,412,413,414,415,416,417,418,419,420,421,422,423,424,425,426,427,428,429,430"/>
  <line x1="1668" x2="1742" y1="264.5" y2="264.5" class="net_399,400,401,402,403,404,405,406,407,408,409,410,411,412,413,414,415,416,417,418,419,420,421,422,423,424,425,426,427,428,429,430"/>
  <line x1="427" x2="440" y1="272" y2="272" class="net_105,106,107,108,109,110,111,112,113,114,115,116,117,118,119,120,121,122,123,124,125,126,127,128,129,130,131,132,133,134,135,136"/>
  <line x1="440" x2="440" y1="272" y2="392" class="net_105,106,107,108,109,110,111,112,113,114,115,116,117,118,119,120,121,122,123,124,125,126,127,128,129,130,131,132,133,134,135,136"/>
  <line x1="440" x2="519" y1="392" y2="392" class="net_105,106,107,108,109,110,111,112,113,114,115,116,117,118,119,120,121,122,123,124,125,126,127,128,129,130,131,132,133,134,135,136"/>
  <line x1="42" x2="1228" y1="32" y2="32" class="net_2,3,4,5"/>
  <line x1="1228" x2="1228" y1="32" y2="208.5" class="net_2,3,4,5"/>
  <line x1="1228" x2="1349" y1="208.5" y2="208.5" class="net_2,3,4,5"/>
  <line x1="42" x2="112" y1="32" y2="32" class="net_2,3,4,5"/>
  <line x1="112" x2="112" y1="32" y2="63.5" class="net_2,3,4,5"/>
  <circle cx="112" cy="32" r="2" style="fill:#000" class="net_2,3,4,5"/>
  <line x1="112" x2="137" y1="63.5" y2="63.5" class="net_2,3,4,5"/>
  <line x1="1199" x2="1349" y1="228.5" y2="228.5" class="net_38,39,40,41,42"/>
  <line x1="1773" x2="1879" y1="224.5" y2="224.5" class="net_71,72,73,74,75,76,77,78,79,80,81,82,83,84,85,86,87,88,89,90,91,92,93,94,95,96,97,98,99,100,101,102"/>
  <line x1="941" x2="1008" y1="294.5" y2="294.5" class="net_269,270,271,272,273,274,275,276,277,278,279,280,281,282,283,284,285,286,287,288,289,290,291,292,293,294,295,296,297,298,299"/>
  <line x1="1218" x2="1248" y1="482" y2="482" class="net_333"/>
  <line x1="1248" x2="1248" y1="482" y2="391.5" class="net_333"/>
  <line x1="1248" x2="1350" y1="391.5" y2="391.5" class="net_333"/>
  <line x1="1216" x2="1350" y1="411.5" y2="411.5" class="net_431,432,433,434,435,436,437,438,439,440,441,442,443,444,445,446,447,448,449,450,451,452,453,454,455,456,457,458,459,460,461"/>
  <line x1="1216" x2="1238" y1="411.5" y2="411.5" class="net_431,432,433,434,435,436,437,438,439,440,441,442,443,444,445,446,447,448,449,450,451,452,453,454,455,456,457,458,459,460,461"/>
  <line x1="1238" x2="1238" y1="411.5" y2="334.5" class="net_431,432,433,434,435,436,437,438,439,440,441,442,443,444,445,446,447,448,449,450,451,452,453,454,455,456,457,458,459,460,461"/>
  <circle cx="1238" cy="411.5" r="2" style="fill:#000" class="net_431,432,433,434,435,436,437,438,439,440,441,442,443,444,445,446,447,448,449,450,451,452,453,454,455,456,457,458,459,460,461"/>
  <line x1="1238" x2="1350" y1="334.5" y2="334.5" class="net_431,432,433,434,435,436,437,438,439,440,441,442,443,444,445,446,447,448,449,450,451,452,453,454,455,456,457,458,459,460,461"/>
  <line x1="1213.5" x2="1350" y1="314.5" y2="314.5" class="net_334"/>
  <line x1="842" x2="936" y1="304.5" y2="304.5" class="net_269,270,271,272,273,274,275,276,277,278,279,280,281,282,283,284,285,286,287,288,289,290,291,292,293,294,295,296,297,298,299,332"/>
</svg>
