<svg xmlns="http://www.w3.org/2000/svg" xmlns:xlink="http://www.w3.org/1999/xlink" xmlns:s="https://github.com/nturley/netlistsvg" width="808" height="769">
  <style>  svg {
      stroke: #011e41;
      fill: none;
    }
    text {
      fill:#ffffff;
      stroke:none;
      font-size:10px;
      font-weight: bold;
      font-family: "Courier New", monospace;
    }
    .fill-1 { fill: #003262; }
    .fill-2 { fill: #011e41; stroke: #003262; }
    .fill-3 { fill: #ffffff; }
    .fill-4 { fill: #003262; }
    .fill-5 { fill: #011e41; stroke: #fdda64; }
    .text-1 { fill: #fdb515; }
    .text-2 { fill: #003262; }
    .text-3 { stroke: #fdda64; }
    .nodelabel { text-anchor: middle; }
    .inputPortLabel { text-anchor: end; }
    .splitjoinBody { fill: #3c3c43; }</style>
  <g s:type="not" transform="translate(155,349)" s:width="30" s:height="20" id="cell_\1">
    <s:alias val="$_NOT_"/>
    <s:alias val="$not"/>
    <s:alias val="$logic_not"/>
    <path d="M0,0 L0,20 L20,10 Z" class="cell_\1 fill-1"/>
    <circle cx="24" cy="10" r="3" class="cell_\1 fill-3"/>
    <g s:x="-1" s:y="10" s:pid="A"/>
    <g s:x="27" s:y="10" s:pid="Y"/>
  </g>
  <g s:type="not" transform="translate(266,108)" s:width="30" s:height="20" id="cell_\10">
    <s:alias val="$_NOT_"/>
    <s:alias val="$not"/>
    <s:alias val="$logic_not"/>
    <path d="M0,0 L0,20 L20,10 Z" class="cell_\10 fill-1"/>
    <circle cx="24" cy="10" r="3" class="cell_\10 fill-3"/>
    <g s:x="-1" s:y="10" s:pid="A"/>
    <g s:x="27" s:y="10" s:pid="Y"/>
  </g>
  <g s:type="eq" transform="translate(267.33333333333337,163)" s:width="25" s:height="25" id="cell_\12">
    <s:alias val="$eq"/>
    <s:alias val="$eqx"/>
    <circle r="12.5" cx="12.5" cy="12.5" class="cell_\12 fill-1"/>
    <line x1="7.5" x2="17.5" y1="10" y2="10" class="cell_\12 text-3"/>
    <line x1="7.5" x2="17.5" y1="15" y2="15" class="cell_\12 text-3"/>
    <g s:x="2" s:y="5" s:pid="A"/>
    <g s:x="2" s:y="20" s:pid="B"/>
    <g s:x="25" s:y="12.5" s:pid="Y"/>
  </g>
  <g s:type="mux" transform="translate(339.6666666666667,88)" s:width="20" s:height="40" id="cell_\13">
    <s:alias val="$pmux"/>
    <s:alias val="$mux"/>
    <s:alias val="$_MUX_"/>
    <path d="M0,0 L20,10 L20,30 L0,40 Z" class="cell_\13 fill-1"/>
    <text x="5" y="32" class="nodelabel cell_\13" s:attribute="">1</text>
    <text x="5" y="13" class="nodelabel cell_\13" s:attribute="">0</text>
    <g s:x="0" s:y="10" s:pid="A"/>
    <g s:x="0" s:y="30" s:pid="B"/>
    <g s:x="10" s:y="35" s:pid="S"/>
    <g s:x="20" s:y="20" s:pid="Y"/>
  </g>
  <g s:type="eq" transform="translate(338,209)" s:width="25" s:height="25" id="cell_\16">
    <s:alias val="$eq"/>
    <s:alias val="$eqx"/>
    <circle r="12.5" cx="12.5" cy="12.5" class="cell_\16 fill-1"/>
    <line x1="7.5" x2="17.5" y1="10" y2="10" class="cell_\16 text-3"/>
    <line x1="7.5" x2="17.5" y1="15" y2="15" class="cell_\16 text-3"/>
    <g s:x="2" s:y="5" s:pid="A"/>
    <g s:x="2" s:y="20" s:pid="B"/>
    <g s:x="25" s:y="12.5" s:pid="Y"/>
  </g>
  <g s:type="mux" transform="translate(406,171.5)" s:width="20" s:height="40" id="cell_\17">
    <s:alias val="$pmux"/>
    <s:alias val="$mux"/>
    <s:alias val="$_MUX_"/>
    <path d="M0,0 L20,10 L20,30 L0,40 Z" class="cell_\17 fill-1"/>
    <text x="5" y="32" class="nodelabel cell_\17" s:attribute="">1</text>
    <text x="5" y="13" class="nodelabel cell_\17" s:attribute="">0</text>
    <g s:x="0" s:y="10" s:pid="A"/>
    <g s:x="0" s:y="30" s:pid="B"/>
    <g s:x="10" s:y="35" s:pid="S"/>
    <g s:x="20" s:y="20" s:pid="Y"/>
  </g>
  <g s:type="not" transform="translate(403,349)" s:width="30" s:height="20" id="cell_\19">
    <s:alias val="$_NOT_"/>
    <s:alias val="$not"/>
    <s:alias val="$logic_not"/>
    <path d="M0,0 L0,20 L20,10 Z" class="cell_\19 fill-1"/>
    <circle cx="24" cy="10" r="3" class="cell_\19 fill-3"/>
    <g s:x="-1" s:y="10" s:pid="A"/>
    <g s:x="27" s:y="10" s:pid="Y"/>
  </g>
  <g s:type="and" transform="translate(265.66666666666663,339)" s:width="30" s:height="25" id="cell_\2">
    <s:alias val="$and"/>
    <s:alias val="$logic_and"/>
    <s:alias val="$_AND_"/>
    <s:alias val="$reduce_and"/>
    <path d="M0,0 L0,25 L15,25 A15 12.5 0 0 0 15,0 Z" class="cell_\2 fill-1"/>
    <g s:x="0" s:y="5" s:pid="A"/>
    <g s:x="0" s:y="20" s:pid="B"/>
    <g s:x="30" s:y="12.5" s:pid="Y"/>
  </g>
  <g s:type="eq" transform="translate(404.3333333333333,404)" s:width="25" s:height="25" id="cell_\21">
    <s:alias val="$eq"/>
    <s:alias val="$eqx"/>
    <circle r="12.5" cx="12.5" cy="12.5" class="cell_\21 fill-1"/>
    <line x1="7.5" x2="17.5" y1="10" y2="10" class="cell_\21 text-3"/>
    <line x1="7.5" x2="17.5" y1="15" y2="15" class="cell_\21 text-3"/>
    <g s:x="2" s:y="5" s:pid="A"/>
    <g s:x="2" s:y="20" s:pid="B"/>
    <g s:x="25" s:y="12.5" s:pid="Y"/>
  </g>
  <g s:type="mux" transform="translate(471.6666666666667,329)" s:width="20" s:height="40" id="cell_\22">
    <s:alias val="$pmux"/>
    <s:alias val="$mux"/>
    <s:alias val="$_MUX_"/>
    <path d="M0,0 L20,10 L20,30 L0,40 Z" class="cell_\22 fill-1"/>
    <text x="5" y="32" class="nodelabel cell_\22" s:attribute="">1</text>
    <text x="5" y="13" class="nodelabel cell_\22" s:attribute="">0</text>
    <g s:x="0" s:y="10" s:pid="A"/>
    <g s:x="0" s:y="30" s:pid="B"/>
    <g s:x="10" s:y="35" s:pid="S"/>
    <g s:x="20" s:y="20" s:pid="Y"/>
  </g>
  <g s:type="eq" transform="translate(470,506)" s:width="25" s:height="25" id="cell_\25">
    <s:alias val="$eq"/>
    <s:alias val="$eqx"/>
    <circle r="12.5" cx="12.5" cy="12.5" class="cell_\25 fill-1"/>
    <line x1="7.5" x2="17.5" y1="10" y2="10" class="cell_\25 text-3"/>
    <line x1="7.5" x2="17.5" y1="15" y2="15" class="cell_\25 text-3"/>
    <g s:x="2" s:y="5" s:pid="A"/>
    <g s:x="2" s:y="20" s:pid="B"/>
    <g s:x="25" s:y="12.5" s:pid="Y"/>
  </g>
  <g s:type="mux" transform="translate(538,434)" s:width="20" s:height="40" id="cell_\26">
    <s:alias val="$pmux"/>
    <s:alias val="$mux"/>
    <s:alias val="$_MUX_"/>
    <path d="M0,0 L20,10 L20,30 L0,40 Z" class="cell_\26 fill-1"/>
    <text x="5" y="32" class="nodelabel cell_\26" s:attribute="">1</text>
    <text x="5" y="13" class="nodelabel cell_\26" s:attribute="">0</text>
    <g s:x="0" s:y="10" s:pid="A"/>
    <g s:x="0" s:y="30" s:pid="B"/>
    <g s:x="10" s:y="35" s:pid="S"/>
    <g s:x="20" s:y="20" s:pid="Y"/>
  </g>
  <g s:type="not" transform="translate(535,536)" s:width="30" s:height="20" id="cell_\28">
    <s:alias val="$_NOT_"/>
    <s:alias val="$not"/>
    <s:alias val="$logic_not"/>
    <path d="M0,0 L0,20 L20,10 Z" class="cell_\28 fill-1"/>
    <circle cx="24" cy="10" r="3" class="cell_\28 fill-3"/>
    <g s:x="-1" s:y="10" s:pid="A"/>
    <g s:x="27" s:y="10" s:pid="Y"/>
  </g>
  <g s:type="and" transform="translate(145.33333333333334,602)" s:width="30" s:height="25" id="cell_\3">
    <s:alias val="$and"/>
    <s:alias val="$logic_and"/>
    <s:alias val="$_AND_"/>
    <s:alias val="$reduce_and"/>
    <path d="M0,0 L0,25 L15,25 A15 12.5 0 0 0 15,0 Z" class="cell_\3 fill-1"/>
    <g s:x="0" s:y="5" s:pid="A"/>
    <g s:x="0" s:y="20" s:pid="B"/>
    <g s:x="30" s:y="12.5" s:pid="Y"/>
  </g>
  <g s:type="eq" transform="translate(536.3333333333334,593)" s:width="25" s:height="25" id="cell_\30">
    <s:alias val="$eq"/>
    <s:alias val="$eqx"/>
    <circle r="12.5" cx="12.5" cy="12.5" class="cell_\30 fill-1"/>
    <line x1="7.5" x2="17.5" y1="10" y2="10" class="cell_\30 text-3"/>
    <line x1="7.5" x2="17.5" y1="15" y2="15" class="cell_\30 text-3"/>
    <g s:x="2" s:y="5" s:pid="A"/>
    <g s:x="2" s:y="20" s:pid="B"/>
    <g s:x="25" s:y="12.5" s:pid="Y"/>
  </g>
  <g s:type="mux" transform="translate(603.3333333333334,516)" s:width="20" s:height="40" id="cell_\31">
    <s:alias val="$pmux"/>
    <s:alias val="$mux"/>
    <s:alias val="$_MUX_"/>
    <path d="M0,0 L20,10 L20,30 L0,40 Z" class="cell_\31 fill-1"/>
    <text x="5" y="32" class="nodelabel cell_\31" s:attribute="">1</text>
    <text x="5" y="13" class="nodelabel cell_\31" s:attribute="">0</text>
    <g s:x="0" s:y="10" s:pid="A"/>
    <g s:x="0" s:y="30" s:pid="B"/>
    <g s:x="10" s:y="35" s:pid="S"/>
    <g s:x="20" s:y="20" s:pid="Y"/>
  </g>
  <g s:type="and" transform="translate(265.66666666666663,429)" s:width="30" s:height="25" id="cell_\4">
    <s:alias val="$and"/>
    <s:alias val="$logic_and"/>
    <s:alias val="$_AND_"/>
    <s:alias val="$reduce_and"/>
    <path d="M0,0 L0,25 L15,25 A15 12.5 0 0 0 15,0 Z" class="cell_\4 fill-1"/>
    <g s:x="0" s:y="5" s:pid="A"/>
    <g s:x="0" s:y="20" s:pid="B"/>
    <g s:x="30" s:y="12.5" s:pid="Y"/>
  </g>
  <g s:type="or" transform="translate(402.6666666666667,88)" s:width="30" s:height="25" id="cell_\44">
    <s:alias val="$or"/>
    <s:alias val="$logic_or"/>
    <s:alias val="$_OR_"/>
    <s:alias val="$reduce_or"/>
    <s:alias val="$reduce_bool"/>
    <path d="M0,0 A30 25 0 0 1 0,25 A30 25 0 0 0 30,12.5 A30 25 0 0 0 0,0" class="cell_\44 fill-1"/>
    <g s:x="2" s:y="5" s:pid="A"/>
    <g s:x="2" s:y="20" s:pid="B"/>
    <g s:x="30" s:y="12.5" s:pid="Y"/>
  </g>
  <g s:type="or" transform="translate(468.3333333333333,171.5)" s:width="30" s:height="25" id="cell_\46">
    <s:alias val="$or"/>
    <s:alias val="$logic_or"/>
    <s:alias val="$_OR_"/>
    <s:alias val="$reduce_or"/>
    <s:alias val="$reduce_bool"/>
    <path d="M0,0 A30 25 0 0 1 0,25 A30 25 0 0 0 30,12.5 A30 25 0 0 0 0,0" class="cell_\46 fill-1"/>
    <g s:x="2" s:y="5" s:pid="A"/>
    <g s:x="2" s:y="20" s:pid="B"/>
    <g s:x="30" s:y="12.5" s:pid="Y"/>
  </g>
  <g s:type="or" transform="translate(534.6666666666666,329)" s:width="30" s:height="25" id="cell_\48">
    <s:alias val="$or"/>
    <s:alias val="$logic_or"/>
    <s:alias val="$_OR_"/>
    <s:alias val="$reduce_or"/>
    <s:alias val="$reduce_bool"/>
    <path d="M0,0 A30 25 0 0 1 0,25 A30 25 0 0 0 30,12.5 A30 25 0 0 0 0,0" class="cell_\48 fill-1"/>
    <g s:x="2" s:y="5" s:pid="A"/>
    <g s:x="2" s:y="20" s:pid="B"/>
    <g s:x="30" s:y="12.5" s:pid="Y"/>
  </g>
  <g s:type="or" transform="translate(336.3333333333333,346.5)" s:width="30" s:height="25" id="cell_\5">
    <s:alias val="$or"/>
    <s:alias val="$logic_or"/>
    <s:alias val="$_OR_"/>
    <s:alias val="$reduce_or"/>
    <s:alias val="$reduce_bool"/>
    <path d="M0,0 A30 25 0 0 1 0,25 A30 25 0 0 0 30,12.5 A30 25 0 0 0 0,0" class="cell_\5 fill-1"/>
    <g s:x="2" s:y="5" s:pid="A"/>
    <g s:x="2" s:y="20" s:pid="B"/>
    <g s:x="30" s:y="12.5" s:pid="Y"/>
  </g>
  <g s:type="or" transform="translate(600,434)" s:width="30" s:height="25" id="cell_\50">
    <s:alias val="$or"/>
    <s:alias val="$logic_or"/>
    <s:alias val="$_OR_"/>
    <s:alias val="$reduce_or"/>
    <s:alias val="$reduce_bool"/>
    <path d="M0,0 A30 25 0 0 1 0,25 A30 25 0 0 0 30,12.5 A30 25 0 0 0 0,0" class="cell_\50 fill-1"/>
    <g s:x="2" s:y="5" s:pid="A"/>
    <g s:x="2" s:y="20" s:pid="B"/>
    <g s:x="30" s:y="12.5" s:pid="Y"/>
  </g>
  <g s:type="or" transform="translate(665,516)" s:width="30" s:height="25" id="cell_\52">
    <s:alias val="$or"/>
    <s:alias val="$logic_or"/>
    <s:alias val="$_OR_"/>
    <s:alias val="$reduce_or"/>
    <s:alias val="$reduce_bool"/>
    <path d="M0,0 A30 25 0 0 1 0,25 A30 25 0 0 0 30,12.5 A30 25 0 0 0 0,0" class="cell_\52 fill-1"/>
    <g s:x="2" s:y="5" s:pid="A"/>
    <g s:x="2" s:y="20" s:pid="B"/>
    <g s:x="30" s:y="12.5" s:pid="Y"/>
  </g>
  <g s:type="not" transform="translate(266,53)" s:width="30" s:height="20" id="cell_\7">
    <s:alias val="$_NOT_"/>
    <s:alias val="$not"/>
    <s:alias val="$logic_not"/>
    <path d="M0,0 L0,20 L20,10 Z" class="cell_\7 fill-1"/>
    <circle cx="24" cy="10" r="3" class="cell_\7 fill-3"/>
    <g s:x="-1" s:y="10" s:pid="A"/>
    <g s:x="27" s:y="10" s:pid="Y"/>
  </g>
  <g s:type="mux" transform="translate(339.6666666666667,12)" s:width="20" s:height="40" id="cell_\8">
    <s:alias val="$pmux"/>
    <s:alias val="$mux"/>
    <s:alias val="$_MUX_"/>
    <path d="M0,0 L20,10 L20,30 L0,40 Z" class="cell_\8 fill-1"/>
    <text x="5" y="32" class="nodelabel cell_\8" s:attribute="">1</text>
    <text x="5" y="13" class="nodelabel cell_\8" s:attribute="">0</text>
    <g s:x="0" s:y="10" s:pid="A"/>
    <g s:x="0" s:y="30" s:pid="B"/>
    <g s:x="10" s:y="35" s:pid="S"/>
    <g s:x="20" s:y="20" s:pid="Y"/>
  </g>
  <g s:type="inputExt" transform="translate(125,547)" s:width="30" s:height="20" id="cell_select_function">
    <text x="15" y="-4" class="nodelabel text-1 cell_select_function" s:attribute="ref">select_function</text>
    <s:alias val="$_inputExt_"/>
    <path d="M0,0 L0,20 L15,20 L30,10 L15,0 Z" class="cell_select_function fill-4"/>
    <g s:x="30" s:y="10" s:pid="Y"/>
  </g>
  <g s:type="inputExt" transform="translate(12,349)" s:width="30" s:height="20" id="cell_flag_sign_1">
    <text x="15" y="-4" class="nodelabel text-1 cell_flag_sign_1" s:attribute="ref">flag_sign_1</text>
    <s:alias val="$_inputExt_"/>
    <path d="M0,0 L0,20 L15,20 L30,10 L15,0 Z" class="cell_flag_sign_1 fill-4"/>
    <g s:x="30" s:y="10" s:pid="Y"/>
  </g>
  <g s:type="inputExt" transform="translate(125,672)" s:width="30" s:height="20" id="cell_flag_sign_2">
    <text x="15" y="-4" class="nodelabel text-1 cell_flag_sign_2" s:attribute="ref">flag_sign_2</text>
    <s:alias val="$_inputExt_"/>
    <path d="M0,0 L0,20 L15,20 L30,10 L15,0 Z" class="cell_flag_sign_2 fill-4"/>
    <g s:x="30" s:y="10" s:pid="Y"/>
  </g>
  <g s:type="inputExt" transform="translate(125,108)" s:width="30" s:height="20" id="cell_flag_equal">
    <text x="15" y="-4" class="nodelabel text-1 cell_flag_equal" s:attribute="ref">flag_equal</text>
    <s:alias val="$_inputExt_"/>
    <path d="M0,0 L0,20 L15,20 L30,10 L15,0 Z" class="cell_flag_equal fill-4"/>
    <g s:x="30" s:y="10" s:pid="Y"/>
  </g>
  <g s:type="inputExt" transform="translate(125,737)" s:width="30" s:height="20" id="cell_flag_less">
    <text x="15" y="-4" class="nodelabel text-1 cell_flag_less" s:attribute="ref">flag_less</text>
    <s:alias val="$_inputExt_"/>
    <path d="M0,0 L0,20 L15,20 L30,10 L15,0 Z" class="cell_flag_less fill-4"/>
    <g s:x="30" s:y="10" s:pid="Y"/>
  </g>
  <g s:type="inputExt" transform="translate(12,597)" s:width="30" s:height="20" id="cell_flag_greather">
    <text x="15" y="-4" class="nodelabel text-1 cell_flag_greather" s:attribute="ref">flag_greather</text>
    <s:alias val="$_inputExt_"/>
    <path d="M0,0 L0,20 L15,20 L30,10 L15,0 Z" class="cell_flag_greather fill-4"/>
    <g s:x="30" s:y="10" s:pid="Y"/>
  </g>
  <g s:type="outputExt" transform="translate(730,518.5)" s:width="30" s:height="20" id="cell_destination">
    <text x="15" y="-4" class="nodelabel text-1 cell_destination" s:attribute="ref">destination</text>
    <s:alias val="$_outputExt_"/>
    <path d="M30,0 L30,20 L15,20 L0,10 L15,0 Z" class="cell_destination fill-4"/>
    <g s:x="0" s:y="10" s:pid="A"/>
  </g>
  <g s:type="constant" transform="translate(125,173)" s:width="30" s:height="20" id="cell_1">
    <text x="15" y="-4" class="nodelabel text-1 cell_1" s:attribute="ref">1</text>
    <s:alias val="$_constant_"/>
    <rect width="30" height="20" class="cell_1 fill-4"/>
    <g s:x="31" s:y="10" s:pid="Y"/>
  </g>
  <g s:type="constant" transform="translate(265,284)" s:width="30" s:height="20" id="cell_0">
    <text x="15" y="-4" class="nodelabel text-1 cell_0" s:attribute="ref">0</text>
    <s:alias val="$_constant_"/>
    <rect width="30" height="20" class="cell_0 fill-4"/>
    <g s:x="31" s:y="10" s:pid="Y"/>
  </g>
  <g s:type="constant" transform="translate(265,219)" s:width="30" s:height="20" id="cell_100">
    <text x="15" y="-4" class="nodelabel text-1 cell_100" s:attribute="ref">100</text>
    <s:alias val="$_constant_"/>
    <rect width="30" height="20" class="cell_100 fill-4"/>
    <g s:x="31" s:y="10" s:pid="Y"/>
  </g>
  <g s:type="constant" transform="translate(336,414)" s:width="30" s:height="20" id="cell_101">
    <text x="15" y="-4" class="nodelabel text-1 cell_101" s:attribute="ref">101</text>
    <s:alias val="$_constant_"/>
    <rect width="30" height="20" class="cell_101 fill-4"/>
    <g s:x="31" s:y="10" s:pid="Y"/>
  </g>
  <g s:type="constant" transform="translate(402,516)" s:width="30" s:height="20" id="cell_110">
    <text x="15" y="-4" class="nodelabel text-1 cell_110" s:attribute="ref">110</text>
    <s:alias val="$_constant_"/>
    <rect width="30" height="20" class="cell_110 fill-4"/>
    <g s:x="31" s:y="10" s:pid="Y"/>
  </g>
  <g s:type="constant" transform="translate(468,603)" s:width="30" s:height="20" id="cell_111">
    <text x="15" y="-4" class="nodelabel text-1 cell_111" s:attribute="ref">111</text>
    <s:alias val="$_constant_"/>
    <rect width="30" height="20" class="cell_111 fill-4"/>
    <g s:x="31" s:y="10" s:pid="Y"/>
  </g>
  <line x1="42" x2="154" y1="359" y2="359" class="net_5"/>
  <line x1="42" x2="100" y1="359" y2="359" class="net_5"/>
  <line x1="100" x2="100" y1="359" y2="622" class="net_5"/>
  <circle cx="100" cy="359" r="2" style="fill:#000" class="net_5"/>
  <line x1="100" x2="145.33333333333334" y1="622" y2="622" class="net_5"/>
  <line x1="155" x2="265" y1="118" y2="118" class="net_7"/>
  <line x1="155" x2="225" y1="118" y2="118" class="net_7"/>
  <line x1="225" x2="225" y1="118" y2="42" class="net_7"/>
  <circle cx="225" cy="118" r="2" style="fill:#000" class="net_7"/>
  <line x1="225" x2="339.6666666666667" y1="42" y2="42" class="net_7"/>
  <line x1="155" x2="245" y1="557" y2="557" class="net_2,3,4"/>
  <line x1="245" x2="245" y1="557" y2="168" class="net_2,3,4"/>
  <circle cx="245" cy="557" r="2" style="fill:#000" class="net_2,3,4"/>
  <circle cx="245" cy="168" r="2" style="fill:#000" class="net_2,3,4"/>
  <line x1="245" x2="269.33333333333337" y1="168" y2="168" class="net_2,3,4"/>
  <line x1="155" x2="245" y1="557" y2="557" class="net_2,3,4"/>
  <line x1="245" x2="245" y1="557" y2="198" class="net_2,3,4"/>
  <line x1="245" x2="326" y1="198" y2="198" class="net_2,3,4"/>
  <line x1="326" x2="326" y1="198" y2="214" class="net_2,3,4"/>
  <circle cx="245" cy="198" r="2" style="fill:#000" class="net_2,3,4"/>
  <line x1="326" x2="340" y1="214" y2="214" class="net_2,3,4"/>
  <line x1="155" x2="245" y1="557" y2="557" class="net_2,3,4"/>
  <line x1="245" x2="245" y1="557" y2="393" class="net_2,3,4"/>
  <line x1="245" x2="377" y1="393" y2="393" class="net_2,3,4"/>
  <line x1="377" x2="377" y1="393" y2="409" class="net_2,3,4"/>
  <circle cx="245" cy="393" r="2" style="fill:#000" class="net_2,3,4"/>
  <line x1="377" x2="406.3333333333333" y1="409" y2="409" class="net_2,3,4"/>
  <line x1="155" x2="245" y1="557" y2="557" class="net_2,3,4"/>
  <line x1="245" x2="245" y1="557" y2="495" class="net_2,3,4"/>
  <line x1="245" x2="443" y1="495" y2="495" class="net_2,3,4"/>
  <line x1="443" x2="443" y1="495" y2="511" class="net_2,3,4"/>
  <circle cx="245" cy="495" r="2" style="fill:#000" class="net_2,3,4"/>
  <line x1="443" x2="472" y1="511" y2="511" class="net_2,3,4"/>
  <line x1="155" x2="509" y1="557" y2="557" class="net_2,3,4"/>
  <line x1="509" x2="509" y1="557" y2="598" class="net_2,3,4"/>
  <line x1="509" x2="538.3333333333334" y1="598" y2="598" class="net_2,3,4"/>
  <line x1="155" x2="245" y1="557" y2="557" class="net_2,3,4"/>
  <line x1="245" x2="245" y1="557" y2="63" class="net_2,3,4"/>
  <line x1="245" x2="265" y1="63" y2="63" class="net_2,3,4"/>
  <line x1="156" x2="269.33333333333337" y1="183" y2="183" class="net_35"/>
  <line x1="296" x2="316" y1="294" y2="294" class="net_36"/>
  <line x1="316" x2="316" y1="294" y2="98" class="net_36"/>
  <circle cx="316" cy="294" r="2" style="fill:#000" class="net_36"/>
  <circle cx="316" cy="98" r="2" style="fill:#000" class="net_36"/>
  <line x1="316" x2="339.6666666666667" y1="98" y2="98" class="net_36"/>
  <line x1="296" x2="377" y1="294" y2="294" class="net_36"/>
  <line x1="377" x2="377" y1="294" y2="181.5" class="net_36"/>
  <circle cx="377" cy="294" r="2" style="fill:#000" class="net_36"/>
  <line x1="377" x2="406" y1="181.5" y2="181.5" class="net_36"/>
  <line x1="296" x2="443" y1="294" y2="294" class="net_36"/>
  <line x1="443" x2="443" y1="294" y2="339" class="net_36"/>
  <line x1="443" x2="471.6666666666667" y1="339" y2="339" class="net_36"/>
  <line x1="296" x2="316" y1="294" y2="294" class="net_36"/>
  <line x1="316" x2="316" y1="294" y2="444" class="net_36"/>
  <circle cx="316" cy="444" r="2" style="fill:#000" class="net_36"/>
  <line x1="316" x2="538" y1="444" y2="444" class="net_36"/>
  <line x1="296" x2="316" y1="294" y2="294" class="net_36"/>
  <line x1="316" x2="316" y1="294" y2="484" class="net_36"/>
  <line x1="316" x2="575" y1="484" y2="484" class="net_36"/>
  <line x1="575" x2="575" y1="484" y2="526" class="net_36"/>
  <line x1="575" x2="603.3333333333334" y1="526" y2="526" class="net_36"/>
  <line x1="296" x2="316" y1="294" y2="294" class="net_36"/>
  <line x1="316" x2="316" y1="294" y2="22" class="net_36"/>
  <line x1="316" x2="339.6666666666667" y1="22" y2="22" class="net_36"/>
  <line x1="293" x2="339.6666666666667" y1="118" y2="118" class="net_12"/>
  <line x1="292.33333333333337" x2="349.6666666666667" y1="175.5" y2="175.5" class="net_13"/>
  <line x1="349.6666666666667" x2="349.6666666666667" y1="175.5" y2="123" class="net_13"/>
  <line x1="296" x2="340" y1="229" y2="229" class="net_37,38,39"/>
  <line x1="366.3333333333333" x2="387" y1="359" y2="359" class="net_16"/>
  <line x1="387" x2="387" y1="359" y2="201.5" class="net_16"/>
  <circle cx="387" cy="359" r="2" style="fill:#000" class="net_16"/>
  <line x1="387" x2="406" y1="201.5" y2="201.5" class="net_16"/>
  <line x1="366.3333333333333" x2="402" y1="359" y2="359" class="net_16"/>
  <line x1="363" x2="416" y1="221.5" y2="221.5" class="net_15"/>
  <line x1="416" x2="416" y1="221.5" y2="206.5" class="net_15"/>
  <line x1="155" x2="255" y1="747" y2="747" class="net_8"/>
  <line x1="255" x2="255" y1="747" y2="344" class="net_8"/>
  <line x1="255" x2="265.66666666666663" y1="344" y2="344" class="net_8"/>
  <line x1="155" x2="255" y1="747" y2="747" class="net_8"/>
  <line x1="255" x2="255" y1="747" y2="464" class="net_8"/>
  <circle cx="255" cy="464" r="2" style="fill:#000" class="net_8"/>
  <line x1="255" x2="538" y1="464" y2="464" class="net_8"/>
  <line x1="155" x2="255" y1="747" y2="747" class="net_8"/>
  <line x1="255" x2="255" y1="747" y2="546" class="net_8"/>
  <circle cx="255" cy="546" r="2" style="fill:#000" class="net_8"/>
  <line x1="255" x2="534" y1="546" y2="546" class="net_8"/>
  <line x1="182" x2="265.66666666666663" y1="359" y2="359" class="net_11"/>
  <line x1="367" x2="406.3333333333333" y1="424" y2="424" class="net_41,42,43"/>
  <line x1="430" x2="471.6666666666667" y1="359" y2="359" class="net_18"/>
  <line x1="429.3333333333333" x2="481.6666666666667" y1="416.5" y2="416.5" class="net_20"/>
  <line x1="481.6666666666667" x2="481.6666666666667" y1="416.5" y2="364" class="net_20"/>
  <line x1="433" x2="472" y1="526" y2="526" class="net_45,46,47"/>
  <line x1="495" x2="548" y1="518.5" y2="518.5" class="net_22"/>
  <line x1="548" x2="548" y1="518.5" y2="469" class="net_22"/>
  <line x1="42" x2="145.33333333333334" y1="607" y2="607" class="net_9"/>
  <line x1="499" x2="538.3333333333334" y1="613" y2="613" class="net_49,50,51"/>
  <line x1="562" x2="603.3333333333334" y1="546" y2="546" class="net_24"/>
  <line x1="561.3333333333334" x2="613.3333333333334" y1="605.5" y2="605.5" class="net_26"/>
  <line x1="613.3333333333334" x2="613.3333333333334" y1="605.5" y2="551" class="net_26"/>
  <line x1="175.33333333333334" x2="225" y1="614.5" y2="614.5" class="net_25"/>
  <line x1="225" x2="225" y1="614.5" y2="434" class="net_25"/>
  <line x1="225" x2="265.66666666666663" y1="434" y2="434" class="net_25"/>
  <line x1="155" x2="235" y1="682" y2="682" class="net_6"/>
  <line x1="235" x2="235" y1="682" y2="449" class="net_6"/>
  <line x1="235" x2="265.66666666666663" y1="449" y2="449" class="net_6"/>
  <line x1="359.6666666666667" x2="377" y1="32" y2="32" class="net_29"/>
  <line x1="377" x2="377" y1="32" y2="93" class="net_29"/>
  <line x1="377" x2="404.6666666666667" y1="93" y2="93" class="net_29"/>
  <line x1="359.6666666666667" x2="404.6666666666667" y1="108" y2="108" class="net_14"/>
  <line x1="432.6666666666667" x2="443" y1="100.5" y2="100.5" class="net_30"/>
  <line x1="443" x2="443" y1="100.5" y2="176.5" class="net_30"/>
  <line x1="443" x2="470.3333333333333" y1="176.5" y2="176.5" class="net_30"/>
  <line x1="426" x2="470.3333333333333" y1="191.5" y2="191.5" class="net_17"/>
  <line x1="498.3333333333333" x2="509" y1="184" y2="184" class="net_31"/>
  <line x1="509" x2="509" y1="184" y2="334" class="net_31"/>
  <line x1="509" x2="536.6666666666666" y1="334" y2="334" class="net_31"/>
  <line x1="491.6666666666667" x2="536.6666666666666" y1="349" y2="349" class="net_21"/>
  <line x1="295.66666666666663" x2="338.3333333333333" y1="351.5" y2="351.5" class="net_19"/>
  <line x1="295.66666666666663" x2="306" y1="441.5" y2="441.5" class="net_28"/>
  <line x1="306" x2="306" y1="441.5" y2="366.5" class="net_28"/>
  <line x1="306" x2="338.3333333333333" y1="366.5" y2="366.5" class="net_28"/>
  <line x1="564.6666666666666" x2="575" y1="341.5" y2="341.5" class="net_32"/>
  <line x1="575" x2="575" y1="341.5" y2="439" class="net_32"/>
  <line x1="575" x2="602" y1="439" y2="439" class="net_32"/>
  <line x1="558" x2="602" y1="454" y2="454" class="net_23"/>
  <line x1="630" x2="640" y1="446.5" y2="446.5" class="net_33"/>
  <line x1="640" x2="640" y1="446.5" y2="521" class="net_33"/>
  <line x1="640" x2="667" y1="521" y2="521" class="net_33"/>
  <line x1="623.3333333333334" x2="667" y1="536" y2="536" class="net_27"/>
  <line x1="293" x2="349.6666666666667" y1="63" y2="63" class="net_34"/>
  <line x1="349.6666666666667" x2="349.6666666666667" y1="63" y2="47" class="net_34"/>
  <line x1="695" x2="730" y1="528.5" y2="528.5" class="net_10"/>
</svg>
