<svg xmlns="http://www.w3.org/2000/svg" xmlns:xlink="http://www.w3.org/1999/xlink" xmlns:s="https://github.com/nturley/netlistsvg" width="733" height="402">
  <style>  svg {
      stroke: #011e41;
      fill: none;
    }
    text {
      fill:#ffffff;
      stroke:none;
      font-size:10px;
      font-weight: bold;
      font-family: "Courier New", monospace;
    }
    .fill-1 { fill: #003262; }
    .fill-2 { fill: #011e41; stroke: #003262; }
    .fill-3 { fill: #ffffff; }
    .fill-4 { fill: #003262; }
    .fill-5 { fill: #011e41; stroke: #fdda64; }
    .text-1 { fill: #fdb515; }
    .text-2 { fill: #003262; }
    .text-3 { stroke: #fdda64; }
    .nodelabel { text-anchor: middle; }
    .inputPortLabel { text-anchor: end; }
    .splitjoinBody { fill: #3c3c43; }</style>
  <g s:type="mux" transform="translate(593.3333333333334,241.5)" s:width="20" s:height="40" id="cell_\10">
    <s:alias val="$pmux"/>
    <s:alias val="$mux"/>
    <s:alias val="$_MUX_"/>
    <path d="M0,0 L20,10 L20,30 L0,40 Z" class="cell_\10 fill-1"/>
    <text x="5" y="32" class="nodelabel cell_\10" s:attribute="">1</text>
    <text x="5" y="13" class="nodelabel cell_\10" s:attribute="">0</text>
    <g s:x="0" s:y="10" s:pid="A"/>
    <g s:x="0" s:y="30" s:pid="B"/>
    <g s:x="10" s:y="35" s:pid="S"/>
    <g s:x="20" s:y="20" s:pid="Y"/>
  </g>
  <g s:type="or" transform="translate(459.3333333333333,249)" s:width="30" s:height="25" id="cell_\11">
    <s:alias val="$or"/>
    <s:alias val="$logic_or"/>
    <s:alias val="$_OR_"/>
    <s:alias val="$reduce_or"/>
    <s:alias val="$reduce_bool"/>
    <path d="M0,0 A30 25 0 0 1 0,25 A30 25 0 0 0 30,12.5 A30 25 0 0 0 0,0" class="cell_\11 fill-1"/>
    <g s:x="2" s:y="5" s:pid="A"/>
    <g s:x="2" s:y="20" s:pid="B"/>
    <g s:x="30" s:y="12.5" s:pid="Y"/>
  </g>
  <g s:type="eq" transform="translate(461,309)" s:width="25" s:height="25" id="cell_\14">
    <s:alias val="$eq"/>
    <s:alias val="$eqx"/>
    <circle r="12.5" cx="12.5" cy="12.5" class="cell_\14 fill-1"/>
    <line x1="7.5" x2="17.5" y1="10" y2="10" class="cell_\14 text-3"/>
    <line x1="7.5" x2="17.5" y1="15" y2="15" class="cell_\14 text-3"/>
    <g s:x="2" s:y="5" s:pid="A"/>
    <g s:x="2" s:y="20" s:pid="B"/>
    <g s:x="25" s:y="12.5" s:pid="Y"/>
  </g>
  <g s:type="mux" transform="translate(528.3333333333334,231.5)" s:width="20" s:height="40" id="cell_\15">
    <s:alias val="$pmux"/>
    <s:alias val="$mux"/>
    <s:alias val="$_MUX_"/>
    <path d="M0,0 L20,10 L20,30 L0,40 Z" class="cell_\15 fill-1"/>
    <text x="5" y="32" class="nodelabel cell_\15" s:attribute="">1</text>
    <text x="5" y="13" class="nodelabel cell_\15" s:attribute="">0</text>
    <g s:x="0" s:y="10" s:pid="A"/>
    <g s:x="0" s:y="30" s:pid="B"/>
    <g s:x="10" s:y="35" s:pid="S"/>
    <g s:x="20" s:y="20" s:pid="Y"/>
  </g>
  <g s:type="eq" transform="translate(393.6666666666667,214)" s:width="25" s:height="25" id="cell_\18">
    <s:alias val="$eq"/>
    <s:alias val="$eqx"/>
    <circle r="12.5" cx="12.5" cy="12.5" class="cell_\18 fill-1"/>
    <line x1="7.5" x2="17.5" y1="10" y2="10" class="cell_\18 text-3"/>
    <line x1="7.5" x2="17.5" y1="15" y2="15" class="cell_\18 text-3"/>
    <g s:x="2" s:y="5" s:pid="A"/>
    <g s:x="2" s:y="20" s:pid="B"/>
    <g s:x="25" s:y="12.5" s:pid="Y"/>
  </g>
  <g s:type="mux" transform="translate(462.6666666666667,150.5)" s:width="20" s:height="40" id="cell_\19">
    <s:alias val="$pmux"/>
    <s:alias val="$mux"/>
    <s:alias val="$_MUX_"/>
    <path d="M0,0 L20,10 L20,30 L0,40 Z" class="cell_\19 fill-1"/>
    <text x="5" y="32" class="nodelabel cell_\19" s:attribute="">1</text>
    <text x="5" y="13" class="nodelabel cell_\19" s:attribute="">0</text>
    <g s:x="0" s:y="10" s:pid="A"/>
    <g s:x="0" s:y="30" s:pid="B"/>
    <g s:x="10" s:y="35" s:pid="S"/>
    <g s:x="20" s:y="20" s:pid="Y"/>
  </g>
  <g s:type="and" transform="translate(525,72)" s:width="30" s:height="25" id="cell_\20">
    <s:alias val="$and"/>
    <s:alias val="$logic_and"/>
    <s:alias val="$_AND_"/>
    <s:alias val="$reduce_and"/>
    <path d="M0,0 L0,25 L15,25 A15 12.5 0 0 0 15,0 Z" class="cell_\20 fill-1"/>
    <g s:x="0" s:y="5" s:pid="A"/>
    <g s:x="0" s:y="20" s:pid="B"/>
    <g s:x="30" s:y="12.5" s:pid="Y"/>
  </g>
  <g s:type="and" transform="translate(525,12)" s:width="30" s:height="25" id="cell_\21">
    <s:alias val="$and"/>
    <s:alias val="$logic_and"/>
    <s:alias val="$_AND_"/>
    <s:alias val="$reduce_and"/>
    <path d="M0,0 L0,25 L15,25 A15 12.5 0 0 0 15,0 Z" class="cell_\21 fill-1"/>
    <g s:x="0" s:y="5" s:pid="A"/>
    <g s:x="0" s:y="20" s:pid="B"/>
    <g s:x="30" s:y="12.5" s:pid="Y"/>
  </g>
  <g s:type="or" transform="translate(590,79.5)" s:width="30" s:height="25" id="cell_\22">
    <s:alias val="$or"/>
    <s:alias val="$logic_or"/>
    <s:alias val="$_OR_"/>
    <s:alias val="$reduce_or"/>
    <s:alias val="$reduce_bool"/>
    <path d="M0,0 A30 25 0 0 1 0,25 A30 25 0 0 0 30,12.5 A30 25 0 0 0 0,0" class="cell_\22 fill-1"/>
    <g s:x="2" s:y="5" s:pid="A"/>
    <g s:x="2" s:y="20" s:pid="B"/>
    <g s:x="30" s:y="12.5" s:pid="Y"/>
  </g>
  <g s:type="reduce_xor" transform="translate(225,175.5)" s:width="33" s:height="25" id="cell_\3">
    <s:alias val="$xor"/>
    <s:alias val="$reduce_xor"/>
    <s:alias val="$_XOR_"/>
    <path d="M3,0 A30 25 0 0 1 3,25 A30 25 0 0 0 33,12.5 A30 25 0 0 0 3,0" class="cell_\3 fill-1"/>
    <path d="M0,0 A30 25 0 0 1 0,25" class="cell_\3"/>
    <g s:x="2" s:y="5" s:pid="A"/>
    <g s:x="2" s:y="20" s:pid="B"/>
    <g s:x="33" s:y="12.5" s:pid="Y"/>
  </g>
  <g s:type="reduce_xor" transform="translate(313,168)" s:width="33" s:height="25" id="cell_\4">
    <s:alias val="$xor"/>
    <s:alias val="$reduce_xor"/>
    <s:alias val="$_XOR_"/>
    <path d="M3,0 A30 25 0 0 1 3,25 A30 25 0 0 0 33,12.5 A30 25 0 0 0 3,0" class="cell_\4 fill-1"/>
    <path d="M0,0 A30 25 0 0 1 0,25" class="cell_\4"/>
    <g s:x="2" s:y="5" s:pid="A"/>
    <g s:x="2" s:y="20" s:pid="B"/>
    <g s:x="33" s:y="12.5" s:pid="Y"/>
  </g>
  <g s:type="reduce_xor" transform="translate(391,103)" s:width="33" s:height="25" id="cell_\5">
    <s:alias val="$xor"/>
    <s:alias val="$reduce_xor"/>
    <s:alias val="$_XOR_"/>
    <path d="M3,0 A30 25 0 0 1 3,25 A30 25 0 0 0 33,12.5 A30 25 0 0 0 3,0" class="cell_\5 fill-1"/>
    <path d="M0,0 A30 25 0 0 1 0,25" class="cell_\5"/>
    <g s:x="2" s:y="5" s:pid="A"/>
    <g s:x="2" s:y="20" s:pid="B"/>
    <g s:x="33" s:y="12.5" s:pid="Y"/>
  </g>
  <g s:type="eq" transform="translate(526.6666666666666,360)" s:width="25" s:height="25" id="cell_\9">
    <s:alias val="$eq"/>
    <s:alias val="$eqx"/>
    <circle r="12.5" cx="12.5" cy="12.5" class="cell_\9 fill-1"/>
    <line x1="7.5" x2="17.5" y1="10" y2="10" class="cell_\9 text-3"/>
    <line x1="7.5" x2="17.5" y1="15" y2="15" class="cell_\9 text-3"/>
    <g s:x="2" s:y="5" s:pid="A"/>
    <g s:x="2" s:y="20" s:pid="B"/>
    <g s:x="25" s:y="12.5" s:pid="Y"/>
  </g>
  <g s:type="inputExt" transform="translate(12,349)" s:width="30" s:height="20" id="cell_select_function">
    <text x="15" y="-4" class="nodelabel text-1 cell_select_function" s:attribute="ref">select_function</text>
    <s:alias val="$_inputExt_"/>
    <path d="M0,0 L0,20 L15,20 L30,10 L15,0 Z" class="cell_select_function fill-4"/>
    <g s:x="30" s:y="10" s:pid="Y"/>
  </g>
  <g s:type="inputExt" transform="translate(308,113)" s:width="30" s:height="20" id="cell_carry_in">
    <text x="15" y="-4" class="nodelabel text-1 cell_carry_in" s:attribute="ref">carry_in</text>
    <s:alias val="$_inputExt_"/>
    <path d="M0,0 L0,20 L15,20 L30,10 L15,0 Z" class="cell_carry_in fill-4"/>
    <g s:x="30" s:y="10" s:pid="Y"/>
  </g>
  <g s:type="inputExt" transform="translate(220,67)" s:width="30" s:height="20" id="cell_source_1">
    <text x="15" y="-4" class="nodelabel text-1 cell_source_1" s:attribute="ref">source_1</text>
    <s:alias val="$_inputExt_"/>
    <path d="M0,0 L0,20 L15,20 L30,10 L15,0 Z" class="cell_source_1 fill-4"/>
    <g s:x="30" s:y="10" s:pid="Y"/>
  </g>
  <g s:type="inputExt" transform="translate(137,170.5)" s:width="30" s:height="20" id="cell_source_2">
    <text x="15" y="-4" class="nodelabel text-1 cell_source_2" s:attribute="ref">source_2</text>
    <s:alias val="$_inputExt_"/>
    <path d="M0,0 L0,20 L15,20 L30,10 L15,0 Z" class="cell_source_2 fill-4"/>
    <g s:x="30" s:y="10" s:pid="Y"/>
  </g>
  <g s:type="outputExt" transform="translate(655,251.5)" s:width="30" s:height="20" id="cell_destination">
    <text x="15" y="-4" class="nodelabel text-1 cell_destination" s:attribute="ref">destination</text>
    <s:alias val="$_outputExt_"/>
    <path d="M30,0 L30,20 L15,20 L0,10 L15,0 Z" class="cell_destination fill-4"/>
    <g s:x="0" s:y="10" s:pid="A"/>
  </g>
  <g s:type="outputExt" transform="translate(655,82)" s:width="30" s:height="20" id="cell_carry_out">
    <text x="15" y="-4" class="nodelabel text-1 cell_carry_out" s:attribute="ref">carry_out</text>
    <s:alias val="$_outputExt_"/>
    <path d="M30,0 L30,20 L15,20 L0,10 L15,0 Z" class="cell_carry_out fill-4"/>
    <g s:x="0" s:y="10" s:pid="A"/>
  </g>
  <g s:type="constant" transform="translate(393,319)" s:width="30" s:height="20" id="cell_110">
    <text x="15" y="-4" class="nodelabel text-1 cell_110" s:attribute="ref">110</text>
    <s:alias val="$_constant_"/>
    <rect width="30" height="20" class="cell_110 fill-4"/>
    <g s:x="31" s:y="10" s:pid="Y"/>
  </g>
  <g s:type="constant" transform="translate(308,224)" s:width="30" s:height="20" id="cell_100">
    <text x="15" y="-4" class="nodelabel text-1 cell_100" s:attribute="ref">100</text>
    <s:alias val="$_constant_"/>
    <rect width="30" height="20" class="cell_100 fill-4"/>
    <g s:x="31" s:y="10" s:pid="Y"/>
  </g>
  <g s:type="constant" transform="translate(459,370)" s:width="30" s:height="20" id="cell_111">
    <text x="15" y="-4" class="nodelabel text-1 cell_111" s:attribute="ref">111</text>
    <s:alias val="$_constant_"/>
    <rect width="30" height="20" class="cell_111 fill-4"/>
    <g s:x="31" s:y="10" s:pid="Y"/>
  </g>
  <g s:type="split" transform="translate(159.33333333333334,338.5)" s:width="5" s:height="40" id="cell_$split$,2,3,4,5,">
    <rect width="5" height="40" class="splitjoinBody" s:generic="body"/>
    <s:alias val="$_split_"/>
    <g s:x="0" s:y="20" s:pid="in"/>
    <g transform="translate(4,10)" s:x="4" s:y="10" s:pid="out0">
      <text x="5" y="-4" class="text-2">0:2</text>
    </g>
    <g transform="translate(4,30)" s:x="4" s:y="10" s:pid="out0">
      <text x="5" y="-4" class="text-2">3</text>
    </g>
  </g>
  <line x1="548.3333333333334" x2="593.3333333333334" y1="251.5" y2="251.5" class="net_11"/>
  <line x1="555" x2="565" y1="84.5" y2="84.5" class="net_12"/>
  <line x1="565" x2="565" y1="84.5" y2="271.5" class="net_12"/>
  <circle cx="565" cy="84.5" r="2" style="fill:#000" class="net_12"/>
  <line x1="565" x2="593.3333333333334" y1="271.5" y2="271.5" class="net_12"/>
  <line x1="555" x2="592" y1="84.5" y2="84.5" class="net_12"/>
  <line x1="551.6666666666666" x2="603.3333333333334" y1="372.5" y2="372.5" class="net_13"/>
  <line x1="603.3333333333334" x2="603.3333333333334" y1="372.5" y2="276.5" class="net_13"/>
  <line x1="250" x2="298" y1="77" y2="77" class="net_7"/>
  <line x1="298" x2="298" y1="77" y2="254" class="net_7"/>
  <circle cx="298" cy="77" r="2" style="fill:#000" class="net_7"/>
  <line x1="298" x2="461.3333333333333" y1="254" y2="254" class="net_7"/>
  <line x1="250" x2="525" y1="77" y2="77" class="net_7"/>
  <line x1="250" x2="298" y1="77" y2="77" class="net_7"/>
  <line x1="298" x2="298" y1="77" y2="173" class="net_7"/>
  <circle cx="298" cy="173" r="2" style="fill:#000" class="net_7"/>
  <line x1="298" x2="315" y1="173" y2="173" class="net_7"/>
  <line x1="258" x2="278" y1="188" y2="188" class="net_14"/>
  <line x1="278" x2="278" y1="188" y2="269" class="net_14"/>
  <circle cx="278" cy="188" r="2" style="fill:#000" class="net_14"/>
  <line x1="278" x2="461.3333333333333" y1="269" y2="269" class="net_14"/>
  <line x1="258" x2="278" y1="188" y2="188" class="net_14"/>
  <line x1="278" x2="278" y1="188" y2="92" class="net_14"/>
  <line x1="278" x2="525" y1="92" y2="92" class="net_14"/>
  <line x1="258" x2="315" y1="188" y2="188" class="net_14"/>
  <line x1="164.33333333333334" x2="366" y1="349" y2="349" class="net_2,3,4"/>
  <line x1="366" x2="366" y1="349" y2="298" class="net_2,3,4"/>
  <line x1="366" x2="434" y1="298" y2="298" class="net_2,3,4"/>
  <line x1="434" x2="434" y1="298" y2="314" class="net_2,3,4"/>
  <circle cx="366" cy="349" r="2" style="fill:#000" class="net_2,3,4"/>
  <line x1="434" x2="463" y1="314" y2="314" class="net_2,3,4"/>
  <line x1="164.33333333333334" x2="288" y1="349" y2="349" class="net_2,3,4"/>
  <line x1="288" x2="288" y1="349" y2="203" class="net_2,3,4"/>
  <line x1="288" x2="366" y1="203" y2="203" class="net_2,3,4"/>
  <line x1="366" x2="366" y1="203" y2="219" class="net_2,3,4"/>
  <circle cx="288" cy="349" r="2" style="fill:#000" class="net_2,3,4"/>
  <line x1="366" x2="395.6666666666667" y1="219" y2="219" class="net_2,3,4"/>
  <line x1="164.33333333333334" x2="500" y1="349" y2="349" class="net_2,3,4"/>
  <line x1="500" x2="500" y1="349" y2="365" class="net_2,3,4"/>
  <line x1="500" x2="528.6666666666666" y1="365" y2="365" class="net_2,3,4"/>
  <line x1="424" x2="463" y1="329" y2="329" class="net_22,23,24"/>
  <line x1="482.6666666666667" x2="500" y1="170.5" y2="170.5" class="net_17"/>
  <line x1="500" x2="500" y1="170.5" y2="241.5" class="net_17"/>
  <line x1="500" x2="528.3333333333334" y1="241.5" y2="241.5" class="net_17"/>
  <line x1="489.3333333333333" x2="528.3333333333334" y1="261.5" y2="261.5" class="net_15"/>
  <line x1="486" x2="538.3333333333334" y1="321.5" y2="321.5" class="net_16"/>
  <line x1="538.3333333333334" x2="538.3333333333334" y1="321.5" y2="266.5" class="net_16"/>
  <line x1="339" x2="395.6666666666667" y1="234" y2="234" class="net_25,26,27"/>
  <line x1="424" x2="434" y1="115.5" y2="115.5" class="net_19"/>
  <line x1="434" x2="434" y1="115.5" y2="160.5" class="net_19"/>
  <line x1="434" x2="462.6666666666667" y1="160.5" y2="160.5" class="net_19"/>
  <line x1="346" x2="462.6666666666667" y1="180.5" y2="180.5" class="net_20"/>
  <line x1="346" x2="366" y1="180.5" y2="180.5" class="net_20"/>
  <line x1="366" x2="366" y1="180.5" y2="21" class="net_20"/>
  <line x1="366" x2="500" y1="21" y2="21" class="net_20"/>
  <line x1="500" x2="500" y1="21" y2="17" class="net_20"/>
  <circle cx="366" cy="180.5" r="2" style="fill:#000" class="net_20"/>
  <line x1="500" x2="525" y1="17" y2="17" class="net_20"/>
  <line x1="346" x2="366" y1="180.5" y2="180.5" class="net_20"/>
  <line x1="366" x2="366" y1="180.5" y2="108" class="net_20"/>
  <circle cx="366" cy="108" r="2" style="fill:#000" class="net_20"/>
  <line x1="366" x2="393" y1="108" y2="108" class="net_20"/>
  <line x1="418.6666666666667" x2="472.6666666666667" y1="226.5" y2="226.5" class="net_18"/>
  <line x1="472.6666666666667" x2="472.6666666666667" y1="226.5" y2="185.5" class="net_18"/>
  <line x1="338" x2="376" y1="123" y2="123" class="net_6"/>
  <line x1="376" x2="376" y1="123" y2="32" class="net_6"/>
  <circle cx="376" cy="123" r="2" style="fill:#000" class="net_6"/>
  <line x1="376" x2="525" y1="32" y2="32" class="net_6"/>
  <line x1="338" x2="393" y1="123" y2="123" class="net_6"/>
  <line x1="555" x2="575" y1="24.5" y2="24.5" class="net_21"/>
  <line x1="575" x2="575" y1="24.5" y2="99.5" class="net_21"/>
  <line x1="575" x2="592" y1="99.5" y2="99.5" class="net_21"/>
  <line x1="167" x2="227" y1="180.5" y2="180.5" class="net_8"/>
  <line x1="164.33333333333334" x2="195" y1="369" y2="369" class="net_5"/>
  <line x1="195" x2="195" y1="369" y2="195.5" class="net_5"/>
  <line x1="195" x2="227" y1="195.5" y2="195.5" class="net_5"/>
  <line x1="490" x2="528.6666666666666" y1="380" y2="380" class="net_28,29,30"/>
  <line x1="613.3333333333334" x2="655" y1="261.5" y2="261.5" class="net_9"/>
  <line x1="620" x2="655" y1="92" y2="92" class="net_10"/>
  <line x1="42" x2="159.33333333333334" y1="359" y2="359" class="net_2,3,4,5"/>
</svg>
