<svg xmlns="http://www.w3.org/2000/svg" xmlns:xlink="http://www.w3.org/1999/xlink" xmlns:s="https://github.com/nturley/netlistsvg" width="853" height="218.5">
  <style>  svg {
      stroke: #011e41;
      fill: none;
    }
    text {
      fill:#ffffff;
      stroke:none;
      font-size:10px;
      font-weight: bold;
      font-family: "Courier New", monospace;
    }
    .fill-1 { fill: #003262; }
    .fill-2 { fill: #011e41; stroke: #003262; }
    .fill-3 { fill: #ffffff; }
    .fill-4 { fill: #003262; }
    .fill-5 { fill: #011e41; stroke: #fdda64; }
    .text-1 { fill: #fdb515; }
    .text-2 { fill: #003262; }
    .text-3 { stroke: #fdda64; }
    .nodelabel { text-anchor: middle; }
    .inputPortLabel { text-anchor: end; }
    .splitjoinBody { fill: #3c3c43; }</style>
  <g s:type="generic" transform="translate(278,44)" s:width="30" s:height="40" id="cell_extend_byte">
    <text x="15" y="-4" class="nodelabel text-1 cell_extend_byte" s:attribute="ref">generic_signal_extender_8_32</text>
    <rect width="30" height="40" s:generic="body" class="cell_extend_byte fill-1"/>
    <g transform="translate(0,10)" s:x="0" s:y="10" s:pid="in0" id="port_extend_byte~enable_unsigned">
      <text x="-3" y="-4" class="inputPortLabel text-2 cell_extend_byte">enable_unsigned</text>
    </g>
    <g transform="translate(0,30)" s:x="0" s:y="10" s:pid="in0" id="port_extend_byte~source">
      <text x="-3" y="-4" class="inputPortLabel text-2 cell_extend_byte">source</text>
    </g>
    <g transform="translate(30,10)" s:x="30" s:y="10" s:pid="out0" id="port_extend_byte~destination">
      <text x="5" y="-4" class="cell_extend_byte text-2">destination</text>
    </g>
  </g>
  <g s:type="generic" transform="translate(278,141)" s:width="30" s:height="40" id="cell_extend_halfword">
    <text x="15" y="-4" class="nodelabel text-1 cell_extend_halfword" s:attribute="ref">generic_signal_extender_16_32</text>
    <rect width="30" height="40" s:generic="body" class="cell_extend_halfword fill-1"/>
    <g transform="translate(0,10)" s:x="0" s:y="10" s:pid="in0" id="port_extend_halfword~enable_unsigned">
      <text x="-3" y="-4" class="inputPortLabel text-2 cell_extend_halfword">enable_unsigned</text>
    </g>
    <g transform="translate(0,30)" s:x="0" s:y="10" s:pid="in0" id="port_extend_halfword~source">
      <text x="-3" y="-4" class="inputPortLabel text-2 cell_extend_halfword">source</text>
    </g>
    <g transform="translate(30,10)" s:x="30" s:y="10" s:pid="out0" id="port_extend_halfword~destination">
      <text x="5" y="-4" class="cell_extend_halfword text-2">destination</text>
    </g>
  </g>
  <g s:type="generic" transform="translate(642,143.5)" s:width="30" s:height="40" id="cell_mux_destination">
    <text x="15" y="-4" class="nodelabel text-1 cell_mux_destination" s:attribute="ref">generic_mux_2x1_32</text>
    <rect width="30" height="60" s:generic="body" class="cell_mux_destination fill-1"/>
    <g transform="translate(0,10)" s:x="0" s:y="10" s:pid="in0" id="port_mux_destination~selector">
      <text x="-3" y="-4" class="inputPortLabel text-2 cell_mux_destination">selector</text>
    </g>
    <g transform="translate(0,30)" s:x="0" s:y="10" s:pid="in0" id="port_mux_destination~source_1">
      <text x="-3" y="-4" class="inputPortLabel text-2 cell_mux_destination">source_1</text>
    </g>
    <g transform="translate(0,50)" s:x="0" s:y="10" s:pid="in0" id="port_mux_destination~source_2">
      <text x="-3" y="-4" class="inputPortLabel text-2 cell_mux_destination">source_2</text>
    </g>
    <g transform="translate(30,10)" s:x="30" s:y="10" s:pid="out0" id="port_mux_destination~destination">
      <text x="5" y="-4" class="cell_mux_destination text-2">destination</text>
    </g>
  </g>
  <g s:type="generic" transform="translate(460,101)" s:width="30" s:height="40" id="cell_mux_type">
    <text x="15" y="-4" class="nodelabel text-1 cell_mux_type" s:attribute="ref">generic_mux_2x1_32</text>
    <rect width="30" height="60" s:generic="body" class="cell_mux_type fill-1"/>
    <g transform="translate(0,10)" s:x="0" s:y="10" s:pid="in0" id="port_mux_type~selector">
      <text x="-3" y="-4" class="inputPortLabel text-2 cell_mux_type">selector</text>
    </g>
    <g transform="translate(0,30)" s:x="0" s:y="10" s:pid="in0" id="port_mux_type~source_1">
      <text x="-3" y="-4" class="inputPortLabel text-2 cell_mux_type">source_1</text>
    </g>
    <g transform="translate(0,50)" s:x="0" s:y="10" s:pid="in0" id="port_mux_type~source_2">
      <text x="-3" y="-4" class="inputPortLabel text-2 cell_mux_type">source_2</text>
    </g>
    <g transform="translate(30,10)" s:x="30" s:y="10" s:pid="out0" id="port_mux_type~destination">
      <text x="5" y="-4" class="cell_mux_type text-2">destination</text>
    </g>
  </g>
  <g s:type="inputExt" transform="translate(12,54.5)" s:width="30" s:height="20" id="cell_select_type">
    <text x="15" y="-4" class="nodelabel text-1 cell_select_type" s:attribute="ref">select_type</text>
    <s:alias val="$_inputExt_"/>
    <path d="M0,0 L0,20 L15,20 L30,10 L15,0 Z" class="cell_select_type fill-4"/>
    <g s:x="30" s:y="10" s:pid="Y"/>
  </g>
  <g s:type="inputExt" transform="translate(12,184)" s:width="30" s:height="20" id="cell_source">
    <text x="15" y="-4" class="nodelabel text-1 cell_source" s:attribute="ref">source</text>
    <s:alias val="$_inputExt_"/>
    <path d="M0,0 L0,20 L15,20 L30,10 L15,0 Z" class="cell_source fill-4"/>
    <g s:x="30" s:y="10" s:pid="Y"/>
  </g>
  <g s:type="outputExt" transform="translate(775,144)" s:width="30" s:height="20" id="cell_destination">
    <text x="15" y="-4" class="nodelabel text-1 cell_destination" s:attribute="ref">destination</text>
    <s:alias val="$_outputExt_"/>
    <path d="M30,0 L30,20 L15,20 L0,10 L15,0 Z" class="cell_destination fill-4"/>
    <g s:x="0" s:y="10" s:pid="A"/>
  </g>
  <g s:type="split" transform="translate(117.75,44)" s:width="5" s:height="40" id="cell_$split$,2,3,4,">
    <rect width="5" height="60" class="splitjoinBody" s:generic="body"/>
    <s:alias val="$_split_"/>
    <g s:x="0" s:y="20" s:pid="in"/>
    <g transform="translate(4,10)" s:x="4" s:y="10" s:pid="out0">
      <text x="5" y="-4" class="text-2">2</text>
    </g>
    <g transform="translate(4,30)" s:x="4" s:y="10" s:pid="out0">
      <text x="5" y="-4" class="text-2">1</text>
    </g>
    <g transform="translate(4,50)" s:x="4" s:y="10" s:pid="out0">
      <text x="5" y="-4" class="text-2">0</text>
    </g>
  </g>
  <g s:type="split" transform="translate(113,141)" s:width="5" s:height="40" id="cell_$split$,5,6,7,8,9,10,11,12,13,14,15,16,17,18,19,20,21,22,23,24,25,26,27,28,29,30,31,32,33,34,35,36,">
    <rect width="5" height="40" class="splitjoinBody" s:generic="body"/>
    <s:alias val="$_split_"/>
    <g s:x="0" s:y="20" s:pid="in"/>
    <g transform="translate(4,10)" s:x="4" s:y="10" s:pid="out0">
      <text x="5" y="-4" class="text-2">0:7</text>
    </g>
    <g transform="translate(4,30)" s:x="4" s:y="10" s:pid="out0">
      <text x="5" y="-4" class="text-2">0:15</text>
    </g>
  </g>
  <line x1="122.75" x2="278" y1="54.5" y2="54.5" class="net_4"/>
  <line x1="122.75" x2="177" y1="54.5" y2="54.5" class="net_4"/>
  <line x1="177" x2="177" y1="54.5" y2="151.5" class="net_4"/>
  <circle cx="177" cy="54.5" r="2" style="fill:#000" class="net_4"/>
  <line x1="177" x2="278" y1="151.5" y2="151.5" class="net_4"/>
  <line x1="118" x2="167" y1="151.5" y2="151.5" class="net_5,6,7,8,9,10,11,12"/>
  <line x1="167" x2="167" y1="151.5" y2="74.5" class="net_5,6,7,8,9,10,11,12"/>
  <line x1="167" x2="278" y1="74.5" y2="74.5" class="net_5,6,7,8,9,10,11,12"/>
  <line x1="118" x2="278" y1="171.5" y2="171.5" class="net_5,6,7,8,9,10,11,12,13,14,15,16,17,18,19,20"/>
  <line x1="122.75" x2="147" y1="74.5" y2="74.5" class="net_3"/>
  <line x1="147" x2="147" y1="74.5" y2="12" class="net_3"/>
  <line x1="147" x2="578" y1="12" y2="12" class="net_3"/>
  <line x1="578" x2="578" y1="12" y2="154" class="net_3"/>
  <line x1="578" x2="642" y1="154" y2="154" class="net_3"/>
  <line x1="491" x2="568" y1="111.5" y2="111.5" class="net_133,134,135,136,137,138,139,140,141,142,143,144,145,146,147,148,149,150,151,152,153,154,155,156,157,158,159,160,161,162,163,164"/>
  <line x1="568" x2="568" y1="111.5" y2="174" class="net_133,134,135,136,137,138,139,140,141,142,143,144,145,146,147,148,149,150,151,152,153,154,155,156,157,158,159,160,161,162,163,164"/>
  <line x1="568" x2="642" y1="174" y2="174" class="net_133,134,135,136,137,138,139,140,141,142,143,144,145,146,147,148,149,150,151,152,153,154,155,156,157,158,159,160,161,162,163,164"/>
  <line x1="42" x2="642" y1="194" y2="194" class="net_5,6,7,8,9,10,11,12,13,14,15,16,17,18,19,20,21,22,23,24,25,26,27,28,29,30,31,32,33,34,35,36"/>
  <line x1="42" x2="88" y1="194" y2="194" class="net_5,6,7,8,9,10,11,12,13,14,15,16,17,18,19,20,21,22,23,24,25,26,27,28,29,30,31,32,33,34,35,36"/>
  <line x1="88" x2="88" y1="194" y2="161.5" class="net_5,6,7,8,9,10,11,12,13,14,15,16,17,18,19,20,21,22,23,24,25,26,27,28,29,30,31,32,33,34,35,36"/>
  <circle cx="88" cy="194" r="2" style="fill:#000" class="net_5,6,7,8,9,10,11,12,13,14,15,16,17,18,19,20,21,22,23,24,25,26,27,28,29,30,31,32,33,34,35,36"/>
  <line x1="88" x2="113" y1="161.5" y2="161.5" class="net_5,6,7,8,9,10,11,12,13,14,15,16,17,18,19,20,21,22,23,24,25,26,27,28,29,30,31,32,33,34,35,36"/>
  <line x1="122.75" x2="157" y1="94.5" y2="94.5" class="net_2"/>
  <line x1="157" x2="157" y1="94.5" y2="23" class="net_2"/>
  <line x1="157" x2="396" y1="23" y2="23" class="net_2"/>
  <line x1="396" x2="396" y1="23" y2="111.5" class="net_2"/>
  <line x1="396" x2="460" y1="111.5" y2="111.5" class="net_2"/>
  <line x1="309" x2="386" y1="54.5" y2="54.5" class="net_69,70,71,72,73,74,75,76,77,78,79,80,81,82,83,84,85,86,87,88,89,90,91,92,93,94,95,96,97,98,99,100"/>
  <line x1="386" x2="386" y1="54.5" y2="131.5" class="net_69,70,71,72,73,74,75,76,77,78,79,80,81,82,83,84,85,86,87,88,89,90,91,92,93,94,95,96,97,98,99,100"/>
  <line x1="386" x2="460" y1="131.5" y2="131.5" class="net_69,70,71,72,73,74,75,76,77,78,79,80,81,82,83,84,85,86,87,88,89,90,91,92,93,94,95,96,97,98,99,100"/>
  <line x1="309" x2="460" y1="151.5" y2="151.5" class="net_101,102,103,104,105,106,107,108,109,110,111,112,113,114,115,116,117,118,119,120,121,122,123,124,125,126,127,128,129,130,131,132"/>
  <line x1="673" x2="775" y1="154" y2="154" class="net_37,38,39,40,41,42,43,44,45,46,47,48,49,50,51,52,53,54,55,56,57,58,59,60,61,62,63,64,65,66,67,68"/>
  <line x1="42" x2="117.75" y1="64.5" y2="64.5" class="net_2,3,4"/>
</svg>
