<svg xmlns="http://www.w3.org/2000/svg" xmlns:xlink="http://www.w3.org/1999/xlink" xmlns:s="https://github.com/nturley/netlistsvg" width="1945" height="590.5">
  <style>  svg {
      stroke: #011e41;
      fill: none;
    }
    text {
      fill:#ffffff;
      stroke:none;
      font-size:10px;
      font-weight: bold;
      font-family: "Courier New", monospace;
    }
    .fill-1 { fill: #003262; }
    .fill-2 { fill: #011e41; stroke: #003262; }
    .fill-3 { fill: #ffffff; }
    .fill-4 { fill: #003262; }
    .fill-5 { fill: #011e41; stroke: #fdda64; }
    .text-1 { fill: #fdb515; }
    .text-2 { fill: #003262; }
    .text-3 { stroke: #fdda64; }
    .nodelabel { text-anchor: middle; }
    .inputPortLabel { text-anchor: end; }
    .splitjoinBody { fill: #3c3c43; }</style>
  <g s:type="not" transform="translate(1174.5,284)" s:width="30" s:height="20" id="cell_\114">
    <s:alias val="$_NOT_"/>
    <s:alias val="$not"/>
    <s:alias val="$logic_not"/>
    <path d="M0,0 L0,20 L20,10 Z" class="cell_\114 fill-1"/>
    <circle cx="24" cy="10" r="3" class="cell_\114 fill-3"/>
    <g s:x="-1" s:y="10" s:pid="A"/>
    <g s:x="27" s:y="10" s:pid="Y"/>
  </g>
  <g s:type="not" transform="translate(400,225)" s:width="30" s:height="20" id="cell_\157">
    <s:alias val="$_NOT_"/>
    <s:alias val="$not"/>
    <s:alias val="$logic_not"/>
    <path d="M0,0 L0,20 L20,10 Z" class="cell_\157 fill-1"/>
    <circle cx="24" cy="10" r="3" class="cell_\157 fill-3"/>
    <g s:x="-1" s:y="10" s:pid="A"/>
    <g s:x="27" s:y="10" s:pid="Y"/>
  </g>
  <g s:type="not" transform="translate(251,53)" s:width="30" s:height="20" id="cell_\27">
    <s:alias val="$_NOT_"/>
    <s:alias val="$not"/>
    <s:alias val="$logic_not"/>
    <path d="M0,0 L0,20 L20,10 Z" class="cell_\27 fill-1"/>
    <circle cx="24" cy="10" r="3" class="cell_\27 fill-3"/>
    <g s:x="-1" s:y="10" s:pid="A"/>
    <g s:x="27" s:y="10" s:pid="Y"/>
  </g>
  <g s:type="and" transform="translate(322.3333333333333,43)" s:width="30" s:height="25" id="cell_\28">
    <s:alias val="$and"/>
    <s:alias val="$logic_and"/>
    <s:alias val="$_AND_"/>
    <s:alias val="$reduce_and"/>
    <path d="M0,0 L0,25 L15,25 A15 12.5 0 0 0 15,0 Z" class="cell_\28 fill-1"/>
    <g s:x="0" s:y="5" s:pid="A"/>
    <g s:x="0" s:y="20" s:pid="B"/>
    <g s:x="30" s:y="12.5" s:pid="Y"/>
  </g>
  <g s:type="not" transform="translate(185,96.5)" s:width="30" s:height="20" id="cell_\45">
    <s:alias val="$_NOT_"/>
    <s:alias val="$not"/>
    <s:alias val="$logic_not"/>
    <path d="M0,0 L0,20 L20,10 Z" class="cell_\45 fill-1"/>
    <circle cx="24" cy="10" r="3" class="cell_\45 fill-3"/>
    <g s:x="-1" s:y="10" s:pid="A"/>
    <g s:x="27" s:y="10" s:pid="Y"/>
  </g>
  <g s:type="and" transform="translate(250.66666666666666,101.5)" s:width="30" s:height="25" id="cell_\53">
    <s:alias val="$and"/>
    <s:alias val="$logic_and"/>
    <s:alias val="$_AND_"/>
    <s:alias val="$reduce_and"/>
    <path d="M0,0 L0,25 L15,25 A15 12.5 0 0 0 15,0 Z" class="cell_\53 fill-1"/>
    <g s:x="0" s:y="5" s:pid="A"/>
    <g s:x="0" s:y="20" s:pid="B"/>
    <g s:x="30" s:y="12.5" s:pid="Y"/>
  </g>
  <g s:type="not" transform="translate(325,104)" s:width="30" s:height="20" id="cell_\58">
    <s:alias val="$_NOT_"/>
    <s:alias val="$not"/>
    <s:alias val="$logic_not"/>
    <path d="M0,0 L0,20 L20,10 Z" class="cell_\58 fill-1"/>
    <circle cx="24" cy="10" r="3" class="cell_\58 fill-3"/>
    <g s:x="-1" s:y="10" s:pid="A"/>
    <g s:x="27" s:y="10" s:pid="Y"/>
  </g>
  <g s:type="and" transform="translate(399.6666666666667,94)" s:width="30" s:height="25" id="cell_\59">
    <s:alias val="$and"/>
    <s:alias val="$logic_and"/>
    <s:alias val="$_AND_"/>
    <s:alias val="$reduce_and"/>
    <path d="M0,0 L0,25 L15,25 A15 12.5 0 0 0 15,0 Z" class="cell_\59 fill-1"/>
    <g s:x="0" s:y="5" s:pid="A"/>
    <g s:x="0" s:y="20" s:pid="B"/>
    <g s:x="30" s:y="12.5" s:pid="Y"/>
  </g>
  <g s:type="and" transform="translate(648,512.5)" s:width="30" s:height="25" id="cell_\60">
    <s:alias val="$and"/>
    <s:alias val="$logic_and"/>
    <s:alias val="$_AND_"/>
    <s:alias val="$reduce_and"/>
    <path d="M0,0 L0,25 L15,25 A15 12.5 0 0 0 15,0 Z" class="cell_\60 fill-1"/>
    <g s:x="0" s:y="5" s:pid="A"/>
    <g s:x="0" s:y="20" s:pid="B"/>
    <g s:x="30" s:y="12.5" s:pid="Y"/>
  </g>
  <g s:type="or" transform="translate(1329.3333333333333,542.5)" s:width="30" s:height="25" id="cell_\61">
    <s:alias val="$or"/>
    <s:alias val="$logic_or"/>
    <s:alias val="$_OR_"/>
    <s:alias val="$reduce_or"/>
    <s:alias val="$reduce_bool"/>
    <path d="M0,0 A30 25 0 0 1 0,25 A30 25 0 0 0 30,12.5 A30 25 0 0 0 0,0" class="cell_\61 fill-1"/>
    <g s:x="2" s:y="5" s:pid="A"/>
    <g s:x="2" s:y="20" s:pid="B"/>
    <g s:x="30" s:y="12.5" s:pid="Y"/>
  </g>
  <g s:type="reduce_xor" transform="translate(647,331.5)" s:width="33" s:height="25" id="cell_\62">
    <s:alias val="$xor"/>
    <s:alias val="$reduce_xor"/>
    <s:alias val="$_XOR_"/>
    <path d="M3,0 A30 25 0 0 1 3,25 A30 25 0 0 0 33,12.5 A30 25 0 0 0 3,0" class="cell_\62 fill-1"/>
    <path d="M0,0 A30 25 0 0 1 0,25" class="cell_\62"/>
    <g s:x="2" s:y="5" s:pid="A"/>
    <g s:x="2" s:y="20" s:pid="B"/>
    <g s:x="33" s:y="12.5" s:pid="Y"/>
  </g>
  <g s:type="reduce_xor" transform="translate(1037,479)" s:width="33" s:height="25" id="cell_\65">
    <s:alias val="$xor"/>
    <s:alias val="$reduce_xor"/>
    <s:alias val="$_XOR_"/>
    <path d="M3,0 A30 25 0 0 1 3,25 A30 25 0 0 0 33,12.5 A30 25 0 0 0 3,0" class="cell_\65 fill-1"/>
    <path d="M0,0 A30 25 0 0 1 0,25" class="cell_\65"/>
    <g s:x="2" s:y="5" s:pid="A"/>
    <g s:x="2" s:y="20" s:pid="B"/>
    <g s:x="33" s:y="12.5" s:pid="Y"/>
  </g>
  <g s:type="reduce_xor" transform="translate(1105,398.5)" s:width="33" s:height="25" id="cell_\68">
    <s:alias val="$xor"/>
    <s:alias val="$reduce_xor"/>
    <s:alias val="$_XOR_"/>
    <path d="M3,0 A30 25 0 0 1 3,25 A30 25 0 0 0 33,12.5 A30 25 0 0 0 3,0" class="cell_\68 fill-1"/>
    <path d="M0,0 A30 25 0 0 1 0,25" class="cell_\68"/>
    <g s:x="2" s:y="5" s:pid="A"/>
    <g s:x="2" s:y="20" s:pid="B"/>
    <g s:x="33" s:y="12.5" s:pid="Y"/>
  </g>
  <g s:type="reduce_xor" transform="translate(1173,449)" s:width="33" s:height="25" id="cell_\70">
    <s:alias val="$xor"/>
    <s:alias val="$reduce_xor"/>
    <s:alias val="$_XOR_"/>
    <path d="M3,0 A30 25 0 0 1 3,25 A30 25 0 0 0 33,12.5 A30 25 0 0 0 3,0" class="cell_\70 fill-1"/>
    <path d="M0,0 A30 25 0 0 1 0,25" class="cell_\70"/>
    <g s:x="2" s:y="5" s:pid="A"/>
    <g s:x="2" s:y="20" s:pid="B"/>
    <g s:x="33" s:y="12.5" s:pid="Y"/>
  </g>
  <g s:type="generic" transform="translate(806,293.5)" s:width="30" s:height="40" id="cell_carry_lookahead">
    <text x="15" y="-4" class="nodelabel text-1 cell_carry_lookahead" s:attribute="ref">generic_carry_lookahead_32</text>
    <rect width="30" height="60" s:generic="body" class="cell_carry_lookahead fill-1"/>
    <g transform="translate(0,10)" s:x="0" s:y="10" s:pid="in0" id="port_carry_lookahead~carry_generate">
      <text x="-3" y="-4" class="inputPortLabel text-2 cell_carry_lookahead">carry_generate</text>
    </g>
    <g transform="translate(0,30)" s:x="0" s:y="10" s:pid="in0" id="port_carry_lookahead~carry_in">
      <text x="-3" y="-4" class="inputPortLabel text-2 cell_carry_lookahead">carry_in</text>
    </g>
    <g transform="translate(0,50)" s:x="0" s:y="10" s:pid="in0" id="port_carry_lookahead~carry_propagate">
      <text x="-3" y="-4" class="inputPortLabel text-2 cell_carry_lookahead">carry_propagate</text>
    </g>
    <g transform="translate(30,10)" s:x="30" s:y="10" s:pid="out0" id="port_carry_lookahead~carry_out">
      <text x="5" y="-4" class="cell_carry_lookahead text-2">carry_out</text>
    </g>
  </g>
  <g s:type="generic" transform="translate(1544,213.5)" s:width="30" s:height="40" id="cell_mux_destination_1">
    <text x="15" y="-4" class="nodelabel text-1 cell_mux_destination_1" s:attribute="ref">generic_mux_4x1_32</text>
    <rect width="30" height="100" s:generic="body" class="cell_mux_destination_1 fill-1"/>
    <g transform="translate(0,10)" s:x="0" s:y="10" s:pid="in0" id="port_mux_destination_1~selector">
      <text x="-3" y="-4" class="inputPortLabel text-2 cell_mux_destination_1">selector</text>
    </g>
    <g transform="translate(0,30)" s:x="0" s:y="10" s:pid="in0" id="port_mux_destination_1~source_1">
      <text x="-3" y="-4" class="inputPortLabel text-2 cell_mux_destination_1">source_1</text>
    </g>
    <g transform="translate(0,50)" s:x="0" s:y="10" s:pid="in0" id="port_mux_destination_1~source_2">
      <text x="-3" y="-4" class="inputPortLabel text-2 cell_mux_destination_1">source_2</text>
    </g>
    <g transform="translate(0,70)" s:x="0" s:y="10" s:pid="in0" id="port_mux_destination_1~source_3">
      <text x="-3" y="-4" class="inputPortLabel text-2 cell_mux_destination_1">source_3</text>
    </g>
    <g transform="translate(0,90)" s:x="0" s:y="10" s:pid="in0" id="port_mux_destination_1~source_4">
      <text x="-3" y="-4" class="inputPortLabel text-2 cell_mux_destination_1">source_4</text>
    </g>
    <g transform="translate(30,10)" s:x="30" s:y="10" s:pid="out0" id="port_mux_destination_1~destination">
      <text x="5" y="-4" class="cell_mux_destination_1 text-2">destination</text>
    </g>
  </g>
  <g s:type="generic" transform="translate(1544,434.5)" s:width="30" s:height="40" id="cell_mux_destination_2">
    <text x="15" y="-4" class="nodelabel text-1 cell_mux_destination_2" s:attribute="ref">generic_mux_4x1_32</text>
    <rect width="30" height="100" s:generic="body" class="cell_mux_destination_2 fill-1"/>
    <g transform="translate(0,10)" s:x="0" s:y="10" s:pid="in0" id="port_mux_destination_2~selector">
      <text x="-3" y="-4" class="inputPortLabel text-2 cell_mux_destination_2">selector</text>
    </g>
    <g transform="translate(0,30)" s:x="0" s:y="10" s:pid="in0" id="port_mux_destination_2~source_1">
      <text x="-3" y="-4" class="inputPortLabel text-2 cell_mux_destination_2">source_1</text>
    </g>
    <g transform="translate(0,50)" s:x="0" s:y="10" s:pid="in0" id="port_mux_destination_2~source_2">
      <text x="-3" y="-4" class="inputPortLabel text-2 cell_mux_destination_2">source_2</text>
    </g>
    <g transform="translate(0,70)" s:x="0" s:y="10" s:pid="in0" id="port_mux_destination_2~source_3">
      <text x="-3" y="-4" class="inputPortLabel text-2 cell_mux_destination_2">source_3</text>
    </g>
    <g transform="translate(0,90)" s:x="0" s:y="10" s:pid="in0" id="port_mux_destination_2~source_4">
      <text x="-3" y="-4" class="inputPortLabel text-2 cell_mux_destination_2">source_4</text>
    </g>
    <g transform="translate(30,10)" s:x="30" s:y="10" s:pid="out0" id="port_mux_destination_2~destination">
      <text x="5" y="-4" class="cell_mux_destination_2 text-2">destination</text>
    </g>
  </g>
  <g s:type="generic" transform="translate(1730,193.5)" s:width="30" s:height="40" id="cell_mux_destination_3">
    <text x="15" y="-4" class="nodelabel text-1 cell_mux_destination_3" s:attribute="ref">generic_mux_2x1_32</text>
    <rect width="30" height="60" s:generic="body" class="cell_mux_destination_3 fill-1"/>
    <g transform="translate(0,10)" s:x="0" s:y="10" s:pid="in0" id="port_mux_destination_3~selector">
      <text x="-3" y="-4" class="inputPortLabel text-2 cell_mux_destination_3">selector</text>
    </g>
    <g transform="translate(0,30)" s:x="0" s:y="10" s:pid="in0" id="port_mux_destination_3~source_1">
      <text x="-3" y="-4" class="inputPortLabel text-2 cell_mux_destination_3">source_1</text>
    </g>
    <g transform="translate(0,50)" s:x="0" s:y="10" s:pid="in0" id="port_mux_destination_3~source_2">
      <text x="-3" y="-4" class="inputPortLabel text-2 cell_mux_destination_3">source_2</text>
    </g>
    <g transform="translate(30,10)" s:x="30" s:y="10" s:pid="out0" id="port_mux_destination_3~destination">
      <text x="5" y="-4" class="cell_mux_destination_3 text-2">destination</text>
    </g>
  </g>
  <g s:type="generic" transform="translate(514,183.5)" s:width="30" s:height="40" id="cell_mux_source_2">
    <text x="15" y="-4" class="nodelabel text-1 cell_mux_source_2" s:attribute="ref">generic_mux_2x1_32</text>
    <rect width="30" height="60" s:generic="body" class="cell_mux_source_2 fill-1"/>
    <g transform="translate(0,10)" s:x="0" s:y="10" s:pid="in0" id="port_mux_source_2~selector">
      <text x="-3" y="-4" class="inputPortLabel text-2 cell_mux_source_2">selector</text>
    </g>
    <g transform="translate(0,30)" s:x="0" s:y="10" s:pid="in0" id="port_mux_source_2~source_1">
      <text x="-3" y="-4" class="inputPortLabel text-2 cell_mux_source_2">source_1</text>
    </g>
    <g transform="translate(0,50)" s:x="0" s:y="10" s:pid="in0" id="port_mux_source_2~source_2">
      <text x="-3" y="-4" class="inputPortLabel text-2 cell_mux_source_2">source_2</text>
    </g>
    <g transform="translate(30,10)" s:x="30" s:y="10" s:pid="out0" id="port_mux_source_2~destination">
      <text x="5" y="-4" class="cell_mux_source_2 text-2">destination</text>
    </g>
  </g>
  <g s:type="generic" transform="translate(1337,183.5)" s:width="30" s:height="40" id="cell_shifter">
    <text x="15" y="-4" class="nodelabel text-1 cell_shifter" s:attribute="ref">rv32i_alu_shifter_32_5</text>
    <rect width="30" height="60" s:generic="body" class="cell_shifter fill-1"/>
    <g transform="translate(0,10)" s:x="0" s:y="10" s:pid="in0" id="port_shifter~select_function">
      <text x="-3" y="-4" class="inputPortLabel text-2 cell_shifter">select_function</text>
    </g>
    <g transform="translate(0,30)" s:x="0" s:y="10" s:pid="in0" id="port_shifter~shamt">
      <text x="-3" y="-4" class="inputPortLabel text-2 cell_shifter">shamt</text>
    </g>
    <g transform="translate(0,50)" s:x="0" s:y="10" s:pid="in0" id="port_shifter~source">
      <text x="-3" y="-4" class="inputPortLabel text-2 cell_shifter">source</text>
    </g>
    <g transform="translate(30,10)" s:x="30" s:y="10" s:pid="out0" id="port_shifter~destination">
      <text x="5" y="-4" class="cell_shifter text-2">destination</text>
    </g>
  </g>
  <g s:type="inputExt" transform="translate(12,22)" s:width="30" s:height="20" id="cell_select_function">
    <text x="15" y="-4" class="nodelabel text-1 cell_select_function" s:attribute="ref">select_function</text>
    <s:alias val="$_inputExt_"/>
    <path d="M0,0 L0,20 L15,20 L30,10 L15,0 Z" class="cell_select_function fill-4"/>
    <g s:x="30" s:y="10" s:pid="Y"/>
  </g>
  <g s:type="inputExt" transform="translate(514,326.5)" s:width="30" s:height="20" id="cell_source_1">
    <text x="15" y="-4" class="nodelabel text-1 cell_source_1" s:attribute="ref">source_1</text>
    <s:alias val="$_inputExt_"/>
    <path d="M0,0 L0,20 L15,20 L30,10 L15,0 Z" class="cell_source_1 fill-4"/>
    <g s:x="30" s:y="10" s:pid="Y"/>
  </g>
  <g s:type="inputExt" transform="translate(316,204)" s:width="30" s:height="20" id="cell_source_2">
    <text x="15" y="-4" class="nodelabel text-1 cell_source_2" s:attribute="ref">source_2</text>
    <s:alias val="$_inputExt_"/>
    <path d="M0,0 L0,20 L15,20 L30,10 L15,0 Z" class="cell_source_2 fill-4"/>
    <g s:x="30" s:y="10" s:pid="Y"/>
  </g>
  <g s:type="outputExt" transform="translate(1867,401)" s:width="30" s:height="20" id="cell_overflow">
    <text x="15" y="-4" class="nodelabel text-1 cell_overflow" s:attribute="ref">overflow</text>
    <s:alias val="$_outputExt_"/>
    <path d="M30,0 L30,20 L15,20 L0,10 L15,0 Z" class="cell_overflow fill-4"/>
    <g s:x="0" s:y="10" s:pid="A"/>
  </g>
  <g s:type="outputExt" transform="translate(1867,194)" s:width="30" s:height="20" id="cell_destination">
    <text x="15" y="-4" class="nodelabel text-1 cell_destination" s:attribute="ref">destination</text>
    <s:alias val="$_outputExt_"/>
    <path d="M30,0 L30,20 L15,20 L0,10 L15,0 Z" class="cell_destination fill-4"/>
    <g s:x="0" s:y="10" s:pid="A"/>
  </g>
  <g s:type="constant" transform="translate(1173,381)" s:width="30" s:height="20" id="cell_0000000000000000000000000000000">
    <text x="15" y="-4" class="nodelabel text-1 cell_0000000000000000000000000000000" s:attribute="ref">0x0</text>
    <s:alias val="$_constant_"/>
    <rect width="30" height="20" class="cell_0000000000000000000000000000000 fill-4"/>
    <g s:x="31" s:y="10" s:pid="Y"/>
  </g>
  <g s:type="join" transform="translate(996,307)" s:width="4" s:height="40" id="cell_$join$,142,271,272,273,274,275,276,277,278,279,280,281,282,283,284,285,286,287,288,289,290,291,292,293,294,295,296,297,298,299,300,301,">
    <rect width="5" height="40" class="splitjoinBody" s:generic="body"/>
    <s:alias val="$_join_"/>
    <g s:x="5" s:y="20" s:pid="out"/>
    <g transform="translate(0,10)" s:x="0" s:y="10" s:pid="in0">
      <text x="-3" y="-4" class="inputPortLabel text-2">0</text>
    </g>
    <g transform="translate(0,30)" s:x="0" s:y="10" s:pid="in0">
      <text x="-3" y="-4" class="inputPortLabel text-2">1:31</text>
    </g>
  </g>
  <g s:type="join" transform="translate(1338,360.5)" s:width="4" s:height="40" id="cell_$join$,334,431,432,433,434,435,436,437,438,439,440,441,442,443,444,445,446,447,448,449,450,451,452,453,454,455,456,457,458,459,460,461,">
    <rect width="5" height="40" class="splitjoinBody" s:generic="body"/>
    <s:alias val="$_join_"/>
    <g s:x="5" s:y="20" s:pid="out"/>
    <g transform="translate(0,10)" s:x="0" s:y="10" s:pid="in0">
      <text x="-3" y="-4" class="inputPortLabel text-2">0</text>
    </g>
    <g transform="translate(0,30)" s:x="0" s:y="10" s:pid="in0">
      <text x="-3" y="-4" class="inputPortLabel text-2">1:31</text>
    </g>
  </g>
  <g s:type="join" transform="translate(1338,283.5)" s:width="4" s:height="40" id="cell_$join$,104,431,432,433,434,435,436,437,438,439,440,441,442,443,444,445,446,447,448,449,450,451,452,453,454,455,456,457,458,459,460,461,">
    <rect width="5" height="40" class="splitjoinBody" s:generic="body"/>
    <s:alias val="$_join_"/>
    <g s:x="5" s:y="20" s:pid="out"/>
    <g transform="translate(0,10)" s:x="0" s:y="10" s:pid="in0">
      <text x="-3" y="-4" class="inputPortLabel text-2">0</text>
    </g>
    <g transform="translate(0,30)" s:x="0" s:y="10" s:pid="in0">
      <text x="-3" y="-4" class="inputPortLabel text-2">1:31</text>
    </g>
  </g>
  <g s:type="split" transform="translate(931,283.5)" s:width="5" s:height="40" id="cell_$split$,271,272,273,274,275,276,277,278,279,280,281,282,283,284,285,286,287,288,289,290,291,292,293,294,295,296,297,298,299,300,301,103,">
    <rect width="5" height="60" class="splitjoinBody" s:generic="body"/>
    <s:alias val="$_split_"/>
    <g s:x="0" s:y="20" s:pid="in"/>
    <g transform="translate(4,10)" s:x="4" s:y="10" s:pid="out0">
      <text x="5" y="-4" class="text-2">31</text>
    </g>
    <g transform="translate(4,30)" s:x="4" s:y="10" s:pid="out0">
      <text x="5" y="-4" class="text-2">0:30</text>
    </g>
    <g transform="translate(4,50)" s:x="4" s:y="10" s:pid="out0">
      <text x="5" y="-4" class="text-2">30</text>
    </g>
  </g>
  <g s:type="split" transform="translate(137,52.5)" s:width="5" s:height="40" id="cell_$split$,2,3,4,5,">
    <rect width="5" height="100" class="splitjoinBody" s:generic="body"/>
    <s:alias val="$_split_"/>
    <g s:x="0" s:y="20" s:pid="in"/>
    <g transform="translate(4,10)" s:x="4" s:y="10" s:pid="out0">
      <text x="5" y="-4" class="text-2">3</text>
    </g>
    <g transform="translate(4,30)" s:x="4" s:y="10" s:pid="out0">
      <text x="5" y="-4" class="text-2">2</text>
    </g>
    <g transform="translate(4,50)" s:x="4" s:y="10" s:pid="out0">
      <text x="5" y="-4" class="text-2">0</text>
    </g>
    <g transform="translate(4,70)" s:x="4" s:y="10" s:pid="out0">
      <text x="5" y="-4" class="text-2">1</text>
    </g>
    <g transform="translate(4,90)" s:x="4" s:y="10" s:pid="out0">
      <text x="5" y="-4" class="text-2">0:1</text>
    </g>
  </g>
  <g s:type="split" transform="translate(1120,458.5)" s:width="5" s:height="40" id="cell_$split$,302,303,304,305,306,307,308,309,310,311,312,313,314,315,316,317,318,319,320,321,322,323,324,325,326,327,328,329,330,331,332,333,">
    <rect width="5" height="20" class="splitjoinBody" s:generic="body"/>
    <s:alias val="$_split_"/>
    <g s:x="0" s:y="20" s:pid="in"/>
    <g transform="translate(4,10)" s:x="4" s:y="10" s:pid="out0">
      <text x="5" y="-4" class="text-2">31</text>
    </g>
  </g>
  <g s:type="split" transform="translate(1182,203.5)" s:width="5" s:height="40" id="cell_$split$,38,39,40,41,42,43,44,45,46,47,48,49,50,51,52,53,54,55,56,57,58,59,60,61,62,63,64,65,66,67,68,69,">
    <rect width="5" height="20" class="splitjoinBody" s:generic="body"/>
    <s:alias val="$_split_"/>
    <g s:x="0" s:y="20" s:pid="in"/>
    <g transform="translate(4,10)" s:x="4" s:y="10" s:pid="out0">
      <text x="5" y="-4" class="text-2">0:4</text>
    </g>
  </g>
  <line x1="936" x2="1173.5" y1="294" y2="294" class="net_103"/>
  <line x1="936" x2="1080" y1="294" y2="294" class="net_103"/>
  <line x1="1080" x2="1080" y1="294" y2="403.5" class="net_103"/>
  <circle cx="1080" cy="294" r="2" style="fill:#000" class="net_103"/>
  <line x1="1080" x2="1107" y1="403.5" y2="403.5" class="net_103"/>
  <line x1="346" x2="374" y1="214" y2="214" class="net_38,39,40,41,42,43,44,45,46,47,48,49,50,51,52,53,54,55,56,57,58,59,60,61,62,63,64,65,66,67,68,69"/>
  <line x1="374" x2="374" y1="214" y2="235" class="net_38,39,40,41,42,43,44,45,46,47,48,49,50,51,52,53,54,55,56,57,58,59,60,61,62,63,64,65,66,67,68,69"/>
  <circle cx="374" cy="214" r="2" style="fill:#000" class="net_38,39,40,41,42,43,44,45,46,47,48,49,50,51,52,53,54,55,56,57,58,59,60,61,62,63,64,65,66,67,68,69"/>
  <circle cx="374" cy="235" r="2" style="fill:#000" class="net_38,39,40,41,42,43,44,45,46,47,48,49,50,51,52,53,54,55,56,57,58,59,60,61,62,63,64,65,66,67,68,69"/>
  <line x1="374" x2="399" y1="235" y2="235" class="net_38,39,40,41,42,43,44,45,46,47,48,49,50,51,52,53,54,55,56,57,58,59,60,61,62,63,64,65,66,67,68,69"/>
  <line x1="346" x2="374" y1="214" y2="214" class="net_38,39,40,41,42,43,44,45,46,47,48,49,50,51,52,53,54,55,56,57,58,59,60,61,62,63,64,65,66,67,68,69"/>
  <line x1="374" x2="374" y1="214" y2="256.5" class="net_38,39,40,41,42,43,44,45,46,47,48,49,50,51,52,53,54,55,56,57,58,59,60,61,62,63,64,65,66,67,68,69"/>
  <line x1="374" x2="440" y1="256.5" y2="256.5" class="net_38,39,40,41,42,43,44,45,46,47,48,49,50,51,52,53,54,55,56,57,58,59,60,61,62,63,64,65,66,67,68,69"/>
  <line x1="440" x2="440" y1="256.5" y2="558.5" class="net_38,39,40,41,42,43,44,45,46,47,48,49,50,51,52,53,54,55,56,57,58,59,60,61,62,63,64,65,66,67,68,69"/>
  <line x1="440" x2="1216" y1="558.5" y2="558.5" class="net_38,39,40,41,42,43,44,45,46,47,48,49,50,51,52,53,54,55,56,57,58,59,60,61,62,63,64,65,66,67,68,69"/>
  <line x1="1216" x2="1216" y1="558.5" y2="562.5" class="net_38,39,40,41,42,43,44,45,46,47,48,49,50,51,52,53,54,55,56,57,58,59,60,61,62,63,64,65,66,67,68,69"/>
  <circle cx="440" cy="256.5" r="2" style="fill:#000" class="net_38,39,40,41,42,43,44,45,46,47,48,49,50,51,52,53,54,55,56,57,58,59,60,61,62,63,64,65,66,67,68,69"/>
  <line x1="1216" x2="1331.3333333333333" y1="562.5" y2="562.5" class="net_38,39,40,41,42,43,44,45,46,47,48,49,50,51,52,53,54,55,56,57,58,59,60,61,62,63,64,65,66,67,68,69"/>
  <line x1="346" x2="514" y1="214" y2="214" class="net_38,39,40,41,42,43,44,45,46,47,48,49,50,51,52,53,54,55,56,57,58,59,60,61,62,63,64,65,66,67,68,69"/>
  <line x1="346" x2="374" y1="214" y2="214" class="net_38,39,40,41,42,43,44,45,46,47,48,49,50,51,52,53,54,55,56,57,58,59,60,61,62,63,64,65,66,67,68,69"/>
  <line x1="374" x2="374" y1="214" y2="256.5" class="net_38,39,40,41,42,43,44,45,46,47,48,49,50,51,52,53,54,55,56,57,58,59,60,61,62,63,64,65,66,67,68,69"/>
  <line x1="374" x2="1182.5" y1="256.5" y2="256.5" class="net_38,39,40,41,42,43,44,45,46,47,48,49,50,51,52,53,54,55,56,57,58,59,60,61,62,63,64,65,66,67,68,69"/>
  <line x1="1182.5" x2="1182.5" y1="256.5" y2="224.5" class="net_38,39,40,41,42,43,44,45,46,47,48,49,50,51,52,53,54,55,56,57,58,59,60,61,62,63,64,65,66,67,68,69"/>
  <line x1="142" x2="250" y1="63" y2="63" class="net_5"/>
  <line x1="142" x2="291" y1="83" y2="83" class="net_4"/>
  <line x1="291" x2="291" y1="83" y2="48" class="net_4"/>
  <circle cx="291" cy="83" r="2" style="fill:#000" class="net_4"/>
  <line x1="291" x2="322.3333333333333" y1="48" y2="48" class="net_4"/>
  <line x1="142" x2="1656" y1="83" y2="83" class="net_4"/>
  <line x1="1656" x2="1656" y1="83" y2="204" class="net_4"/>
  <line x1="1656" x2="1730" y1="204" y2="204" class="net_4"/>
  <line x1="278" x2="322.3333333333333" y1="63" y2="63" class="net_137"/>
  <line x1="142" x2="159" y1="103" y2="103" class="net_2"/>
  <line x1="159" x2="159" y1="103" y2="106.5" class="net_2"/>
  <line x1="159" x2="184" y1="106.5" y2="106.5" class="net_2"/>
  <line x1="212" x2="250.66666666666666" y1="106.5" y2="106.5" class="net_139"/>
  <line x1="142" x2="159" y1="123" y2="123" class="net_3"/>
  <line x1="159" x2="159" y1="123" y2="126.5" class="net_3"/>
  <line x1="159" x2="225" y1="126.5" y2="126.5" class="net_3"/>
  <line x1="225" x2="225" y1="126.5" y2="121.5" class="net_3"/>
  <line x1="225" x2="250.66666666666666" y1="121.5" y2="121.5" class="net_3"/>
  <line x1="280.66666666666663" x2="324" y1="114" y2="114" class="net_140"/>
  <line x1="352.3333333333333" x2="374" y1="55.5" y2="55.5" class="net_138"/>
  <line x1="374" x2="374" y1="55.5" y2="99" class="net_138"/>
  <line x1="374" x2="399.6666666666667" y1="99" y2="99" class="net_138"/>
  <line x1="352" x2="399.6666666666667" y1="114" y2="114" class="net_141"/>
  <line x1="544" x2="622" y1="336.5" y2="336.5" class="net_6,7,8,9,10,11,12,13,14,15,16,17,18,19,20,21,22,23,24,25,26,27,28,29,30,31,32,33,34,35,36,37"/>
  <line x1="622" x2="622" y1="336.5" y2="517.5" class="net_6,7,8,9,10,11,12,13,14,15,16,17,18,19,20,21,22,23,24,25,26,27,28,29,30,31,32,33,34,35,36,37"/>
  <circle cx="622" cy="336.5" r="2" style="fill:#000" class="net_6,7,8,9,10,11,12,13,14,15,16,17,18,19,20,21,22,23,24,25,26,27,28,29,30,31,32,33,34,35,36,37"/>
  <circle cx="622" cy="517.5" r="2" style="fill:#000" class="net_6,7,8,9,10,11,12,13,14,15,16,17,18,19,20,21,22,23,24,25,26,27,28,29,30,31,32,33,34,35,36,37"/>
  <line x1="622" x2="648" y1="517.5" y2="517.5" class="net_6,7,8,9,10,11,12,13,14,15,16,17,18,19,20,21,22,23,24,25,26,27,28,29,30,31,32,33,34,35,36,37"/>
  <line x1="544" x2="622" y1="336.5" y2="336.5" class="net_6,7,8,9,10,11,12,13,14,15,16,17,18,19,20,21,22,23,24,25,26,27,28,29,30,31,32,33,34,35,36,37"/>
  <line x1="622" x2="622" y1="336.5" y2="547.5" class="net_6,7,8,9,10,11,12,13,14,15,16,17,18,19,20,21,22,23,24,25,26,27,28,29,30,31,32,33,34,35,36,37"/>
  <line x1="622" x2="1331.3333333333333" y1="547.5" y2="547.5" class="net_6,7,8,9,10,11,12,13,14,15,16,17,18,19,20,21,22,23,24,25,26,27,28,29,30,31,32,33,34,35,36,37"/>
  <line x1="544" x2="649" y1="336.5" y2="336.5" class="net_6,7,8,9,10,11,12,13,14,15,16,17,18,19,20,21,22,23,24,25,26,27,28,29,30,31,32,33,34,35,36,37"/>
  <line x1="544" x2="622" y1="336.5" y2="336.5" class="net_6,7,8,9,10,11,12,13,14,15,16,17,18,19,20,21,22,23,24,25,26,27,28,29,30,31,32,33,34,35,36,37"/>
  <line x1="622" x2="622" y1="336.5" y2="547.5" class="net_6,7,8,9,10,11,12,13,14,15,16,17,18,19,20,21,22,23,24,25,26,27,28,29,30,31,32,33,34,35,36,37"/>
  <line x1="622" x2="1216" y1="547.5" y2="547.5" class="net_6,7,8,9,10,11,12,13,14,15,16,17,18,19,20,21,22,23,24,25,26,27,28,29,30,31,32,33,34,35,36,37"/>
  <line x1="1216" x2="1216" y1="547.5" y2="234" class="net_6,7,8,9,10,11,12,13,14,15,16,17,18,19,20,21,22,23,24,25,26,27,28,29,30,31,32,33,34,35,36,37"/>
  <circle cx="1216" cy="547.5" r="2" style="fill:#000" class="net_6,7,8,9,10,11,12,13,14,15,16,17,18,19,20,21,22,23,24,25,26,27,28,29,30,31,32,33,34,35,36,37"/>
  <line x1="1216" x2="1337" y1="234" y2="234" class="net_6,7,8,9,10,11,12,13,14,15,16,17,18,19,20,21,22,23,24,25,26,27,28,29,30,31,32,33,34,35,36,37"/>
  <line x1="545" x2="632" y1="194" y2="194" class="net_143,144,145,146,147,148,149,150,151,152,153,154,155,156,157,158,159,160,161,162,163,164,165,166,167,168,169,170,171,172,173,174"/>
  <line x1="632" x2="632" y1="194" y2="532.5" class="net_143,144,145,146,147,148,149,150,151,152,153,154,155,156,157,158,159,160,161,162,163,164,165,166,167,168,169,170,171,172,173,174"/>
  <line x1="632" x2="648" y1="532.5" y2="532.5" class="net_143,144,145,146,147,148,149,150,151,152,153,154,155,156,157,158,159,160,161,162,163,164,165,166,167,168,169,170,171,172,173,174"/>
  <line x1="545" x2="632" y1="194" y2="194" class="net_143,144,145,146,147,148,149,150,151,152,153,154,155,156,157,158,159,160,161,162,163,164,165,166,167,168,169,170,171,172,173,174"/>
  <line x1="632" x2="632" y1="194" y2="351.5" class="net_143,144,145,146,147,148,149,150,151,152,153,154,155,156,157,158,159,160,161,162,163,164,165,166,167,168,169,170,171,172,173,174"/>
  <circle cx="632" cy="351.5" r="2" style="fill:#000" class="net_143,144,145,146,147,148,149,150,151,152,153,154,155,156,157,158,159,160,161,162,163,164,165,166,167,168,169,170,171,172,173,174"/>
  <line x1="632" x2="649" y1="351.5" y2="351.5" class="net_143,144,145,146,147,148,149,150,151,152,153,154,155,156,157,158,159,160,161,162,163,164,165,166,167,168,169,170,171,172,173,174"/>
  <line x1="680" x2="700" y1="344" y2="344" class="net_239,240,241,242,243,244,245,246,247,248,249,250,251,252,253,254,255,256,257,258,259,260,261,262,263,264,265,266,267,268,269,270"/>
  <line x1="700" x2="700" y1="344" y2="484" class="net_239,240,241,242,243,244,245,246,247,248,249,250,251,252,253,254,255,256,257,258,259,260,261,262,263,264,265,266,267,268,269,270"/>
  <circle cx="700" cy="344" r="2" style="fill:#000" class="net_239,240,241,242,243,244,245,246,247,248,249,250,251,252,253,254,255,256,257,258,259,260,261,262,263,264,265,266,267,268,269,270"/>
  <line x1="700" x2="1039" y1="484" y2="484" class="net_239,240,241,242,243,244,245,246,247,248,249,250,251,252,253,254,255,256,257,258,259,260,261,262,263,264,265,266,267,268,269,270"/>
  <line x1="680" x2="806" y1="344" y2="344" class="net_239,240,241,242,243,244,245,246,247,248,249,250,251,252,253,254,255,256,257,258,259,260,261,262,263,264,265,266,267,268,269,270"/>
  <line x1="680" x2="700" y1="344" y2="344" class="net_239,240,241,242,243,244,245,246,247,248,249,250,251,252,253,254,255,256,257,258,259,260,261,262,263,264,265,266,267,268,269,270"/>
  <line x1="700" x2="700" y1="344" y2="484" class="net_239,240,241,242,243,244,245,246,247,248,249,250,251,252,253,254,255,256,257,258,259,260,261,262,263,264,265,266,267,268,269,270"/>
  <line x1="700" x2="1012" y1="484" y2="484" class="net_239,240,241,242,243,244,245,246,247,248,249,250,251,252,253,254,255,256,257,258,259,260,261,262,263,264,265,266,267,268,269,270"/>
  <line x1="1012" x2="1012" y1="484" y2="514" class="net_239,240,241,242,243,244,245,246,247,248,249,250,251,252,253,254,255,256,257,258,259,260,261,262,263,264,265,266,267,268,269,270"/>
  <line x1="1012" x2="1455" y1="514" y2="514" class="net_239,240,241,242,243,244,245,246,247,248,249,250,251,252,253,254,255,256,257,258,259,260,261,262,263,264,265,266,267,268,269,270"/>
  <line x1="1455" x2="1455" y1="514" y2="465" class="net_239,240,241,242,243,244,245,246,247,248,249,250,251,252,253,254,255,256,257,258,259,260,261,262,263,264,265,266,267,268,269,270"/>
  <circle cx="1012" cy="484" r="2" style="fill:#000" class="net_239,240,241,242,243,244,245,246,247,248,249,250,251,252,253,254,255,256,257,258,259,260,261,262,263,264,265,266,267,268,269,270"/>
  <line x1="1455" x2="1544" y1="465" y2="465" class="net_239,240,241,242,243,244,245,246,247,248,249,250,251,252,253,254,255,256,257,258,259,260,261,262,263,264,265,266,267,268,269,270"/>
  <line x1="1002" x2="1022" y1="327.5" y2="327.5" class="net_142,271,272,273,274,275,276,277,278,279,280,281,282,283,284,285,286,287,288,289,290,291,292,293,294,295,296,297,298,299,300,301"/>
  <line x1="1022" x2="1022" y1="327.5" y2="499" class="net_142,271,272,273,274,275,276,277,278,279,280,281,282,283,284,285,286,287,288,289,290,291,292,293,294,295,296,297,298,299,300,301"/>
  <line x1="1022" x2="1039" y1="499" y2="499" class="net_142,271,272,273,274,275,276,277,278,279,280,281,282,283,284,285,286,287,288,289,290,291,292,293,294,295,296,297,298,299,300,301"/>
  <line x1="936" x2="959" y1="334" y2="334" class="net_301"/>
  <line x1="959" x2="959" y1="334" y2="418.5" class="net_301"/>
  <line x1="959" x2="1107" y1="418.5" y2="418.5" class="net_301"/>
  <line x1="1138" x2="1148" y1="411" y2="411" class="net_70"/>
  <line x1="1148" x2="1148" y1="411" y2="454" class="net_70"/>
  <circle cx="1148" cy="411" r="2" style="fill:#000" class="net_70"/>
  <line x1="1148" x2="1175" y1="454" y2="454" class="net_70"/>
  <line x1="1138" x2="1867" y1="411" y2="411" class="net_70"/>
  <line x1="1125" x2="1175" y1="469" y2="469" class="net_333"/>
  <line x1="678" x2="690" y1="525" y2="525" class="net_175,176,177,178,179,180,181,182,183,184,185,186,187,188,189,190,191,192,193,194,195,196,197,198,199,200,201,202,203,204,205,206"/>
  <line x1="690" x2="690" y1="525" y2="304" class="net_175,176,177,178,179,180,181,182,183,184,185,186,187,188,189,190,191,192,193,194,195,196,197,198,199,200,201,202,203,204,205,206"/>
  <circle cx="690" cy="525" r="2" style="fill:#000" class="net_175,176,177,178,179,180,181,182,183,184,185,186,187,188,189,190,191,192,193,194,195,196,197,198,199,200,201,202,203,204,205,206"/>
  <line x1="690" x2="806" y1="304" y2="304" class="net_175,176,177,178,179,180,181,182,183,184,185,186,187,188,189,190,191,192,193,194,195,196,197,198,199,200,201,202,203,204,205,206"/>
  <line x1="678" x2="1544" y1="525" y2="525" class="net_175,176,177,178,179,180,181,182,183,184,185,186,187,188,189,190,191,192,193,194,195,196,197,198,199,200,201,202,203,204,205,206"/>
  <line x1="429.6666666666667" x2="700" y1="106.5" y2="106.5" class="net_142"/>
  <line x1="700" x2="700" y1="106.5" y2="324" class="net_142"/>
  <circle cx="700" cy="106.5" r="2" style="fill:#000" class="net_142"/>
  <line x1="700" x2="806" y1="324" y2="324" class="net_142"/>
  <line x1="429.6666666666667" x2="440" y1="106.5" y2="106.5" class="net_142"/>
  <line x1="440" x2="440" y1="106.5" y2="194" class="net_142"/>
  <circle cx="440" cy="106.5" r="2" style="fill:#000" class="net_142"/>
  <line x1="440" x2="514" y1="194" y2="194" class="net_142"/>
  <line x1="429.6666666666667" x2="979" y1="106.5" y2="106.5" class="net_142"/>
  <line x1="979" x2="979" y1="106.5" y2="317.5" class="net_142"/>
  <line x1="979" x2="996" y1="317.5" y2="317.5" class="net_142"/>
  <line x1="141.5" x2="141.5" y1="143.5" y2="162.5" class="net_2,3"/>
  <line x1="141.5" x2="1475" y1="162.5" y2="162.5" class="net_2,3"/>
  <line x1="1475" x2="1475" y1="162.5" y2="224" class="net_2,3"/>
  <line x1="1475" x2="1544" y1="224" y2="224" class="net_2,3"/>
  <line x1="141.5" x2="141.5" y1="143.5" y2="162.5" class="net_2,3"/>
  <line x1="141.5" x2="291" y1="162.5" y2="162.5" class="net_2,3"/>
  <line x1="291" x2="291" y1="162.5" y2="577.5" class="net_2,3"/>
  <line x1="291" x2="1475" y1="577.5" y2="577.5" class="net_2,3"/>
  <line x1="1475" x2="1475" y1="577.5" y2="445" class="net_2,3"/>
  <circle cx="291" cy="162.5" r="2" style="fill:#000" class="net_2,3"/>
  <line x1="1475" x2="1544" y1="445" y2="445" class="net_2,3"/>
  <line x1="1070" x2="1080" y1="491.5" y2="491.5" class="net_302,303,304,305,306,307,308,309,310,311,312,313,314,315,316,317,318,319,320,321,322,323,324,325,326,327,328,329,330,331,332,333"/>
  <line x1="1080" x2="1080" y1="491.5" y2="501.5" class="net_302,303,304,305,306,307,308,309,310,311,312,313,314,315,316,317,318,319,320,321,322,323,324,325,326,327,328,329,330,331,332,333"/>
  <line x1="1080" x2="1445" y1="501.5" y2="501.5" class="net_302,303,304,305,306,307,308,309,310,311,312,313,314,315,316,317,318,319,320,321,322,323,324,325,326,327,328,329,330,331,332,333"/>
  <line x1="1445" x2="1445" y1="501.5" y2="244" class="net_302,303,304,305,306,307,308,309,310,311,312,313,314,315,316,317,318,319,320,321,322,323,324,325,326,327,328,329,330,331,332,333"/>
  <circle cx="1080" cy="491.5" r="2" style="fill:#000" class="net_302,303,304,305,306,307,308,309,310,311,312,313,314,315,316,317,318,319,320,321,322,323,324,325,326,327,328,329,330,331,332,333"/>
  <line x1="1445" x2="1544" y1="244" y2="244" class="net_302,303,304,305,306,307,308,309,310,311,312,313,314,315,316,317,318,319,320,321,322,323,324,325,326,327,328,329,330,331,332,333"/>
  <line x1="1070" x2="1120.5" y1="491.5" y2="491.5" class="net_302,303,304,305,306,307,308,309,310,311,312,313,314,315,316,317,318,319,320,321,322,323,324,325,326,327,328,329,330,331,332,333"/>
  <line x1="1120.5" x2="1120.5" y1="491.5" y2="479.5" class="net_302,303,304,305,306,307,308,309,310,311,312,313,314,315,316,317,318,319,320,321,322,323,324,325,326,327,328,329,330,331,332,333"/>
  <line x1="1368" x2="1465" y1="194" y2="194" class="net_367,368,369,370,371,372,373,374,375,376,377,378,379,380,381,382,383,384,385,386,387,388,389,390,391,392,393,394,395,396,397,398"/>
  <line x1="1465" x2="1465" y1="194" y2="264" class="net_367,368,369,370,371,372,373,374,375,376,377,378,379,380,381,382,383,384,385,386,387,388,389,390,391,392,393,394,395,396,397,398"/>
  <circle cx="1465" cy="264" r="2" style="fill:#000" class="net_367,368,369,370,371,372,373,374,375,376,377,378,379,380,381,382,383,384,385,386,387,388,389,390,391,392,393,394,395,396,397,398"/>
  <line x1="1465" x2="1544" y1="264" y2="264" class="net_367,368,369,370,371,372,373,374,375,376,377,378,379,380,381,382,383,384,385,386,387,388,389,390,391,392,393,394,395,396,397,398"/>
  <line x1="1368" x2="1465" y1="194" y2="194" class="net_367,368,369,370,371,372,373,374,375,376,377,378,379,380,381,382,383,384,385,386,387,388,389,390,391,392,393,394,395,396,397,398"/>
  <line x1="1465" x2="1465" y1="194" y2="485" class="net_367,368,369,370,371,372,373,374,375,376,377,378,379,380,381,382,383,384,385,386,387,388,389,390,391,392,393,394,395,396,397,398"/>
  <line x1="1465" x2="1544" y1="485" y2="485" class="net_367,368,369,370,371,372,373,374,375,376,377,378,379,380,381,382,383,384,385,386,387,388,389,390,391,392,393,394,395,396,397,398"/>
  <line x1="1344" x2="1475" y1="381" y2="381" class="net_334,431,432,433,434,435,436,437,438,439,440,441,442,443,444,445,446,447,448,449,450,451,452,453,454,455,456,457,458,459,460,461"/>
  <line x1="1475" x2="1475" y1="381" y2="284" class="net_334,431,432,433,434,435,436,437,438,439,440,441,442,443,444,445,446,447,448,449,450,451,452,453,454,455,456,457,458,459,460,461"/>
  <line x1="1475" x2="1544" y1="284" y2="284" class="net_334,431,432,433,434,435,436,437,438,439,440,441,442,443,444,445,446,447,448,449,450,451,452,453,454,455,456,457,458,459,460,461"/>
  <line x1="1344" x2="1544" y1="304" y2="304" class="net_104,431,432,433,434,435,436,437,438,439,440,441,442,443,444,445,446,447,448,449,450,451,452,453,454,455,456,457,458,459,460,461"/>
  <line x1="1359.3333333333333" x2="1485" y1="555" y2="555" class="net_207,208,209,210,211,212,213,214,215,216,217,218,219,220,221,222,223,224,225,226,227,228,229,230,231,232,233,234,235,236,237,238"/>
  <line x1="1485" x2="1485" y1="555" y2="505" class="net_207,208,209,210,211,212,213,214,215,216,217,218,219,220,221,222,223,224,225,226,227,228,229,230,231,232,233,234,235,236,237,238"/>
  <line x1="1485" x2="1544" y1="505" y2="505" class="net_207,208,209,210,211,212,213,214,215,216,217,218,219,220,221,222,223,224,225,226,227,228,229,230,231,232,233,234,235,236,237,238"/>
  <line x1="1575" x2="1730" y1="224" y2="224" class="net_335,336,337,338,339,340,341,342,343,344,345,346,347,348,349,350,351,352,353,354,355,356,357,358,359,360,361,362,363,364,365,366"/>
  <line x1="1575" x2="1656" y1="445" y2="445" class="net_399,400,401,402,403,404,405,406,407,408,409,410,411,412,413,414,415,416,417,418,419,420,421,422,423,424,425,426,427,428,429,430"/>
  <line x1="1656" x2="1656" y1="445" y2="244" class="net_399,400,401,402,403,404,405,406,407,408,409,410,411,412,413,414,415,416,417,418,419,420,421,422,423,424,425,426,427,428,429,430"/>
  <line x1="1656" x2="1730" y1="244" y2="244" class="net_399,400,401,402,403,404,405,406,407,408,409,410,411,412,413,414,415,416,417,418,419,420,421,422,423,424,425,426,427,428,429,430"/>
  <line x1="427" x2="440" y1="235" y2="235" class="net_105,106,107,108,109,110,111,112,113,114,115,116,117,118,119,120,121,122,123,124,125,126,127,128,129,130,131,132,133,134,135,136"/>
  <line x1="440" x2="440" y1="235" y2="234" class="net_105,106,107,108,109,110,111,112,113,114,115,116,117,118,119,120,121,122,123,124,125,126,127,128,129,130,131,132,133,134,135,136"/>
  <line x1="440" x2="514" y1="234" y2="234" class="net_105,106,107,108,109,110,111,112,113,114,115,116,117,118,119,120,121,122,123,124,125,126,127,128,129,130,131,132,133,134,135,136"/>
  <line x1="42" x2="1216" y1="32" y2="32" class="net_2,3,4,5"/>
  <line x1="1216" x2="1216" y1="32" y2="194" class="net_2,3,4,5"/>
  <line x1="1216" x2="1337" y1="194" y2="194" class="net_2,3,4,5"/>
  <line x1="42" x2="112" y1="32" y2="32" class="net_2,3,4,5"/>
  <line x1="112" x2="112" y1="32" y2="73" class="net_2,3,4,5"/>
  <circle cx="112" cy="32" r="2" style="fill:#000" class="net_2,3,4,5"/>
  <line x1="112" x2="137" y1="73" y2="73" class="net_2,3,4,5"/>
  <line x1="1187" x2="1337" y1="214" y2="214" class="net_38,39,40,41,42"/>
  <line x1="1761" x2="1867" y1="204" y2="204" class="net_71,72,73,74,75,76,77,78,79,80,81,82,83,84,85,86,87,88,89,90,91,92,93,94,95,96,97,98,99,100,101,102"/>
  <line x1="936" x2="969" y1="314" y2="314" class="net_271,272,273,274,275,276,277,278,279,280,281,282,283,284,285,286,287,288,289,290,291,292,293,294,295,296,297,298,299,300,301"/>
  <line x1="969" x2="969" y1="314" y2="337.5" class="net_271,272,273,274,275,276,277,278,279,280,281,282,283,284,285,286,287,288,289,290,291,292,293,294,295,296,297,298,299,300,301"/>
  <line x1="969" x2="996" y1="337.5" y2="337.5" class="net_271,272,273,274,275,276,277,278,279,280,281,282,283,284,285,286,287,288,289,290,291,292,293,294,295,296,297,298,299,300,301"/>
  <line x1="1206" x2="1236" y1="461.5" y2="461.5" class="net_334"/>
  <line x1="1236" x2="1236" y1="461.5" y2="371" class="net_334"/>
  <line x1="1236" x2="1338" y1="371" y2="371" class="net_334"/>
  <line x1="1204" x2="1338" y1="391" y2="391" class="net_431,432,433,434,435,436,437,438,439,440,441,442,443,444,445,446,447,448,449,450,451,452,453,454,455,456,457,458,459,460,461"/>
  <line x1="1204" x2="1226" y1="391" y2="391" class="net_431,432,433,434,435,436,437,438,439,440,441,442,443,444,445,446,447,448,449,450,451,452,453,454,455,456,457,458,459,460,461"/>
  <line x1="1226" x2="1226" y1="391" y2="314" class="net_431,432,433,434,435,436,437,438,439,440,441,442,443,444,445,446,447,448,449,450,451,452,453,454,455,456,457,458,459,460,461"/>
  <circle cx="1226" cy="391" r="2" style="fill:#000" class="net_431,432,433,434,435,436,437,438,439,440,441,442,443,444,445,446,447,448,449,450,451,452,453,454,455,456,457,458,459,460,461"/>
  <line x1="1226" x2="1338" y1="314" y2="314" class="net_431,432,433,434,435,436,437,438,439,440,441,442,443,444,445,446,447,448,449,450,451,452,453,454,455,456,457,458,459,460,461"/>
  <line x1="1201.5" x2="1338" y1="294" y2="294" class="net_104"/>
  <line x1="837" x2="931" y1="304" y2="304" class="net_271,272,273,274,275,276,277,278,279,280,281,282,283,284,285,286,287,288,289,290,291,292,293,294,295,296,297,298,299,300,301,103"/>
</svg>
