<svg xmlns="http://www.w3.org/2000/svg" xmlns:xlink="http://www.w3.org/1999/xlink" xmlns:s="https://github.com/nturley/netlistsvg" width="1180" height="826.5">
  <style>  svg {
      stroke: #011e41;
      fill: none;
    }
    text {
      fill:#ffffff;
      stroke:none;
      font-size:10px;
      font-weight: bold;
      font-family: "Courier New", monospace;
    }
    .fill-1 { fill: #003262; }
    .fill-2 { fill: #011e41; stroke: #003262; }
    .fill-3 { fill: #ffffff; }
    .fill-4 { fill: #003262; }
    .fill-5 { fill: #011e41; stroke: #fdda64; }
    .text-1 { fill: #fdb515; }
    .text-2 { fill: #003262; }
    .text-3 { stroke: #fdda64; }
    .nodelabel { text-anchor: middle; }
    .inputPortLabel { text-anchor: end; }
    .splitjoinBody { fill: #3c3c43; }</style>
  <g s:type="not" transform="translate(293,546)" s:width="30" s:height="20" id="cell_$auto$opt_expr cc:712:replace_const_cells$42">
    <s:alias val="$_NOT_"/>
    <s:alias val="$not"/>
    <s:alias val="$logic_not"/>
    <path d="M0,0 L0,20 L20,10 Z" class="cell_$auto$opt_expr cc:712:replace_const_cells$42 fill-1"/>
    <circle cx="24" cy="10" r="3" class="cell_$auto$opt_expr cc:712:replace_const_cells$42 fill-3"/>
    <g s:x="-1" s:y="10" s:pid="A"/>
    <g s:x="27" s:y="10" s:pid="Y"/>
  </g>
  <g s:type="not" transform="translate(293,643)" s:width="30" s:height="20" id="cell_$auto$opt_expr cc:712:replace_const_cells$44">
    <s:alias val="$_NOT_"/>
    <s:alias val="$not"/>
    <s:alias val="$logic_not"/>
    <path d="M0,0 L0,20 L20,10 Z" class="cell_$auto$opt_expr cc:712:replace_const_cells$44 fill-1"/>
    <circle cx="24" cy="10" r="3" class="cell_$auto$opt_expr cc:712:replace_const_cells$44 fill-3"/>
    <g s:x="-1" s:y="10" s:pid="A"/>
    <g s:x="27" s:y="10" s:pid="Y"/>
  </g>
  <g s:type="not" transform="translate(377,480)" s:width="30" s:height="20" id="cell_$auto$opt_expr cc:712:replace_const_cells$46">
    <s:alias val="$_NOT_"/>
    <s:alias val="$not"/>
    <s:alias val="$logic_not"/>
    <path d="M0,0 L0,20 L20,10 Z" class="cell_$auto$opt_expr cc:712:replace_const_cells$46 fill-1"/>
    <circle cx="24" cy="10" r="3" class="cell_$auto$opt_expr cc:712:replace_const_cells$46 fill-3"/>
    <g s:x="-1" s:y="10" s:pid="A"/>
    <g s:x="27" s:y="10" s:pid="Y"/>
  </g>
  <g s:type="not" transform="translate(377,125.5)" s:width="30" s:height="20" id="cell_$auto$opt_expr cc:712:replace_const_cells$48">
    <s:alias val="$_NOT_"/>
    <s:alias val="$not"/>
    <s:alias val="$logic_not"/>
    <path d="M0,0 L0,20 L20,10 Z" class="cell_$auto$opt_expr cc:712:replace_const_cells$48 fill-1"/>
    <circle cx="24" cy="10" r="3" class="cell_$auto$opt_expr cc:712:replace_const_cells$48 fill-3"/>
    <g s:x="-1" s:y="10" s:pid="A"/>
    <g s:x="27" s:y="10" s:pid="Y"/>
  </g>
  <g s:type="not" transform="translate(377,220.5)" s:width="30" s:height="20" id="cell_$auto$opt_expr cc:712:replace_const_cells$50">
    <s:alias val="$_NOT_"/>
    <s:alias val="$not"/>
    <s:alias val="$logic_not"/>
    <path d="M0,0 L0,20 L20,10 Z" class="cell_$auto$opt_expr cc:712:replace_const_cells$50 fill-1"/>
    <circle cx="24" cy="10" r="3" class="cell_$auto$opt_expr cc:712:replace_const_cells$50 fill-3"/>
    <g s:x="-1" s:y="10" s:pid="A"/>
    <g s:x="27" s:y="10" s:pid="Y"/>
  </g>
  <g s:type="not" transform="translate(293,286.5)" s:width="30" s:height="20" id="cell_\1">
    <s:alias val="$_NOT_"/>
    <s:alias val="$not"/>
    <s:alias val="$logic_not"/>
    <path d="M0,0 L0,20 L20,10 Z" class="cell_\1 fill-1"/>
    <circle cx="24" cy="10" r="3" class="cell_\1 fill-3"/>
    <g s:x="-1" s:y="10" s:pid="A"/>
    <g s:x="27" s:y="10" s:pid="Y"/>
  </g>
  <g s:type="and" transform="translate(452,739.5)" s:width="30" s:height="25" id="cell_\112">
    <s:alias val="$and"/>
    <s:alias val="$logic_and"/>
    <s:alias val="$_AND_"/>
    <s:alias val="$reduce_and"/>
    <path d="M0,0 L0,25 L15,25 A15 12.5 0 0 0 15,0 Z" class="cell_\112 fill-1"/>
    <g s:x="0" s:y="5" s:pid="A"/>
    <g s:x="0" s:y="20" s:pid="B"/>
    <g s:x="30" s:y="12.5" s:pid="Y"/>
  </g>
  <g s:type="and" transform="translate(537.6666666666666,732)" s:width="30" s:height="25" id="cell_\113">
    <s:alias val="$and"/>
    <s:alias val="$logic_and"/>
    <s:alias val="$_AND_"/>
    <s:alias val="$reduce_and"/>
    <path d="M0,0 L0,25 L15,25 A15 12.5 0 0 0 15,0 Z" class="cell_\113 fill-1"/>
    <g s:x="0" s:y="5" s:pid="A"/>
    <g s:x="0" s:y="20" s:pid="B"/>
    <g s:x="30" s:y="12.5" s:pid="Y"/>
  </g>
  <g s:type="not" transform="translate(538,792)" s:width="30" s:height="20" id="cell_\115">
    <s:alias val="$_NOT_"/>
    <s:alias val="$not"/>
    <s:alias val="$logic_not"/>
    <path d="M0,0 L0,20 L20,10 Z" class="cell_\115 fill-1"/>
    <circle cx="24" cy="10" r="3" class="cell_\115 fill-3"/>
    <g s:x="-1" s:y="10" s:pid="A"/>
    <g s:x="27" s:y="10" s:pid="Y"/>
  </g>
  <g s:type="and" transform="translate(537.6666666666666,480)" s:width="30" s:height="25" id="cell_\143">
    <s:alias val="$and"/>
    <s:alias val="$logic_and"/>
    <s:alias val="$_AND_"/>
    <s:alias val="$reduce_and"/>
    <path d="M0,0 L0,25 L15,25 A15 12.5 0 0 0 15,0 Z" class="cell_\143 fill-1"/>
    <g s:x="0" s:y="5" s:pid="A"/>
    <g s:x="0" s:y="20" s:pid="B"/>
    <g s:x="30" s:y="12.5" s:pid="Y"/>
  </g>
  <g s:type="and" transform="translate(663.3333333333334,472.5)" s:width="30" s:height="25" id="cell_\144">
    <s:alias val="$and"/>
    <s:alias val="$logic_and"/>
    <s:alias val="$_AND_"/>
    <s:alias val="$reduce_and"/>
    <path d="M0,0 L0,25 L15,25 A15 12.5 0 0 0 15,0 Z" class="cell_\144 fill-1"/>
    <g s:x="0" s:y="5" s:pid="A"/>
    <g s:x="0" s:y="20" s:pid="B"/>
    <g s:x="30" s:y="12.5" s:pid="Y"/>
  </g>
  <g s:type="and" transform="translate(452,115.5)" s:width="30" s:height="25" id="cell_\173">
    <s:alias val="$and"/>
    <s:alias val="$logic_and"/>
    <s:alias val="$_AND_"/>
    <s:alias val="$reduce_and"/>
    <path d="M0,0 L0,25 L15,25 A15 12.5 0 0 0 15,0 Z" class="cell_\173 fill-1"/>
    <g s:x="0" s:y="5" s:pid="A"/>
    <g s:x="0" s:y="20" s:pid="B"/>
    <g s:x="30" s:y="12.5" s:pid="Y"/>
  </g>
  <g s:type="and" transform="translate(537.6666666666666,108)" s:width="30" s:height="25" id="cell_\174">
    <s:alias val="$and"/>
    <s:alias val="$logic_and"/>
    <s:alias val="$_AND_"/>
    <s:alias val="$reduce_and"/>
    <path d="M0,0 L0,25 L15,25 A15 12.5 0 0 0 15,0 Z" class="cell_\174 fill-1"/>
    <g s:x="0" s:y="5" s:pid="A"/>
    <g s:x="0" s:y="20" s:pid="B"/>
    <g s:x="30" s:y="12.5" s:pid="Y"/>
  </g>
  <g s:type="not" transform="translate(538,168)" s:width="30" s:height="20" id="cell_\176">
    <s:alias val="$_NOT_"/>
    <s:alias val="$not"/>
    <s:alias val="$logic_not"/>
    <path d="M0,0 L0,20 L20,10 Z" class="cell_\176 fill-1"/>
    <circle cx="24" cy="10" r="3" class="cell_\176 fill-3"/>
    <g s:x="-1" s:y="10" s:pid="A"/>
    <g s:x="27" s:y="10" s:pid="Y"/>
  </g>
  <g s:type="and" transform="translate(376.6666666666667,276.5)" s:width="30" s:height="25" id="cell_\2">
    <s:alias val="$and"/>
    <s:alias val="$logic_and"/>
    <s:alias val="$_AND_"/>
    <s:alias val="$reduce_and"/>
    <path d="M0,0 L0,25 L15,25 A15 12.5 0 0 0 15,0 Z" class="cell_\2 fill-1"/>
    <g s:x="0" s:y="5" s:pid="A"/>
    <g s:x="0" s:y="20" s:pid="B"/>
    <g s:x="30" s:y="12.5" s:pid="Y"/>
  </g>
  <g s:type="and" transform="translate(452,230.5)" s:width="30" s:height="25" id="cell_\204">
    <s:alias val="$and"/>
    <s:alias val="$logic_and"/>
    <s:alias val="$_AND_"/>
    <s:alias val="$reduce_and"/>
    <path d="M0,0 L0,25 L15,25 A15 12.5 0 0 0 15,0 Z" class="cell_\204 fill-1"/>
    <g s:x="0" s:y="5" s:pid="A"/>
    <g s:x="0" s:y="20" s:pid="B"/>
    <g s:x="30" s:y="12.5" s:pid="Y"/>
  </g>
  <g s:type="and" transform="translate(537.6666666666666,223)" s:width="30" s:height="25" id="cell_\205">
    <s:alias val="$and"/>
    <s:alias val="$logic_and"/>
    <s:alias val="$_AND_"/>
    <s:alias val="$reduce_and"/>
    <path d="M0,0 L0,25 L15,25 A15 12.5 0 0 0 15,0 Z" class="cell_\205 fill-1"/>
    <g s:x="0" s:y="5" s:pid="A"/>
    <g s:x="0" s:y="20" s:pid="B"/>
    <g s:x="30" s:y="12.5" s:pid="Y"/>
  </g>
  <g s:type="and" transform="translate(537.6666666666666,24)" s:width="30" s:height="25" id="cell_\234">
    <s:alias val="$and"/>
    <s:alias val="$logic_and"/>
    <s:alias val="$_AND_"/>
    <s:alias val="$reduce_and"/>
    <path d="M0,0 L0,25 L15,25 A15 12.5 0 0 0 15,0 Z" class="cell_\234 fill-1"/>
    <g s:x="0" s:y="5" s:pid="A"/>
    <g s:x="0" s:y="20" s:pid="B"/>
    <g s:x="30" s:y="12.5" s:pid="Y"/>
  </g>
  <g s:type="and" transform="translate(663.3333333333334,16.5)" s:width="30" s:height="25" id="cell_\235">
    <s:alias val="$and"/>
    <s:alias val="$logic_and"/>
    <s:alias val="$_AND_"/>
    <s:alias val="$reduce_and"/>
    <path d="M0,0 L0,25 L15,25 A15 12.5 0 0 0 15,0 Z" class="cell_\235 fill-1"/>
    <g s:x="0" s:y="5" s:pid="A"/>
    <g s:x="0" s:y="20" s:pid="B"/>
    <g s:x="30" s:y="12.5" s:pid="Y"/>
  </g>
  <g s:type="not" transform="translate(666.5,62.5)" s:width="30" s:height="20" id="cell_\237">
    <s:alias val="$_NOT_"/>
    <s:alias val="$not"/>
    <s:alias val="$logic_not"/>
    <path d="M0,0 L0,20 L20,10 Z" class="cell_\237 fill-1"/>
    <circle cx="24" cy="10" r="3" class="cell_\237 fill-3"/>
    <g s:x="-1" s:y="10" s:pid="A"/>
    <g s:x="27" s:y="10" s:pid="Y"/>
  </g>
  <g s:type="and" transform="translate(287.3333333333333,356.5)" s:width="30" s:height="25" id="cell_\3">
    <s:alias val="$and"/>
    <s:alias val="$logic_and"/>
    <s:alias val="$_AND_"/>
    <s:alias val="$reduce_and"/>
    <path d="M0,0 L0,25 L15,25 A15 12.5 0 0 0 15,0 Z" class="cell_\3 fill-1"/>
    <g s:x="0" s:y="5" s:pid="A"/>
    <g s:x="0" s:y="20" s:pid="B"/>
    <g s:x="30" s:y="12.5" s:pid="Y"/>
  </g>
  <g s:type="or" transform="translate(845.3333333333334,365)" s:width="30" s:height="25" id="cell_\31">
    <s:alias val="$or"/>
    <s:alias val="$logic_or"/>
    <s:alias val="$_OR_"/>
    <s:alias val="$reduce_or"/>
    <s:alias val="$reduce_bool"/>
    <path d="M0,0 A30 25 0 0 1 0,25 A30 25 0 0 0 30,12.5 A30 25 0 0 0 0,0" class="cell_\31 fill-1"/>
    <g s:x="2" s:y="5" s:pid="A"/>
    <g s:x="2" s:y="20" s:pid="B"/>
    <g s:x="30" s:y="12.5" s:pid="Y"/>
  </g>
  <g s:type="or" transform="translate(972,357.5)" s:width="30" s:height="25" id="cell_\32">
    <s:alias val="$or"/>
    <s:alias val="$logic_or"/>
    <s:alias val="$_OR_"/>
    <s:alias val="$reduce_or"/>
    <s:alias val="$reduce_bool"/>
    <path d="M0,0 A30 25 0 0 1 0,25 A30 25 0 0 0 30,12.5 A30 25 0 0 0 0,0" class="cell_\32 fill-1"/>
    <g s:x="2" s:y="5" s:pid="A"/>
    <g s:x="2" s:y="20" s:pid="B"/>
    <g s:x="30" s:y="12.5" s:pid="Y"/>
  </g>
  <g s:type="and" transform="translate(376.6666666666667,416.5)" s:width="30" s:height="25" id="cell_\4">
    <s:alias val="$and"/>
    <s:alias val="$logic_and"/>
    <s:alias val="$_AND_"/>
    <s:alias val="$reduce_and"/>
    <path d="M0,0 L0,25 L15,25 A15 12.5 0 0 0 15,0 Z" class="cell_\4 fill-1"/>
    <g s:x="0" s:y="5" s:pid="A"/>
    <g s:x="0" s:y="20" s:pid="B"/>
    <g s:x="30" s:y="12.5" s:pid="Y"/>
  </g>
  <g s:type="or" transform="translate(452,409)" s:width="30" s:height="25" id="cell_\5">
    <s:alias val="$or"/>
    <s:alias val="$logic_or"/>
    <s:alias val="$_OR_"/>
    <s:alias val="$reduce_or"/>
    <s:alias val="$reduce_bool"/>
    <path d="M0,0 A30 25 0 0 1 0,25 A30 25 0 0 0 30,12.5 A30 25 0 0 0 0,0" class="cell_\5 fill-1"/>
    <g s:x="2" s:y="5" s:pid="A"/>
    <g s:x="2" s:y="20" s:pid="B"/>
    <g s:x="30" s:y="12.5" s:pid="Y"/>
  </g>
  <g s:type="or" transform="translate(845.3333333333334,742)" s:width="30" s:height="25" id="cell_\53">
    <s:alias val="$or"/>
    <s:alias val="$logic_or"/>
    <s:alias val="$_OR_"/>
    <s:alias val="$reduce_or"/>
    <s:alias val="$reduce_bool"/>
    <path d="M0,0 A30 25 0 0 1 0,25 A30 25 0 0 0 30,12.5 A30 25 0 0 0 0,0" class="cell_\53 fill-1"/>
    <g s:x="2" s:y="5" s:pid="A"/>
    <g s:x="2" s:y="20" s:pid="B"/>
    <g s:x="30" s:y="12.5" s:pid="Y"/>
  </g>
  <g s:type="or" transform="translate(972,734.5)" s:width="30" s:height="25" id="cell_\54">
    <s:alias val="$or"/>
    <s:alias val="$logic_or"/>
    <s:alias val="$_OR_"/>
    <s:alias val="$reduce_or"/>
    <s:alias val="$reduce_bool"/>
    <path d="M0,0 A30 25 0 0 1 0,25 A30 25 0 0 0 30,12.5 A30 25 0 0 0 0,0" class="cell_\54 fill-1"/>
    <g s:x="2" s:y="5" s:pid="A"/>
    <g s:x="2" s:y="20" s:pid="B"/>
    <g s:x="30" s:y="12.5" s:pid="Y"/>
  </g>
  <g s:type="or" transform="translate(1037,727)" s:width="30" s:height="25" id="cell_\55">
    <s:alias val="$or"/>
    <s:alias val="$logic_or"/>
    <s:alias val="$_OR_"/>
    <s:alias val="$reduce_or"/>
    <s:alias val="$reduce_bool"/>
    <path d="M0,0 A30 25 0 0 1 0,25 A30 25 0 0 0 30,12.5 A30 25 0 0 0 0,0" class="cell_\55 fill-1"/>
    <g s:x="2" s:y="5" s:pid="A"/>
    <g s:x="2" s:y="20" s:pid="B"/>
    <g s:x="30" s:y="12.5" s:pid="Y"/>
  </g>
  <g s:type="and" transform="translate(452,546)" s:width="30" s:height="25" id="cell_\82">
    <s:alias val="$and"/>
    <s:alias val="$logic_and"/>
    <s:alias val="$_AND_"/>
    <s:alias val="$reduce_and"/>
    <path d="M0,0 L0,25 L15,25 A15 12.5 0 0 0 15,0 Z" class="cell_\82 fill-1"/>
    <g s:x="0" s:y="5" s:pid="A"/>
    <g s:x="0" s:y="20" s:pid="B"/>
    <g s:x="30" s:y="12.5" s:pid="Y"/>
  </g>
  <g s:type="and" transform="translate(537.6666666666666,538.5)" s:width="30" s:height="25" id="cell_\83">
    <s:alias val="$and"/>
    <s:alias val="$logic_and"/>
    <s:alias val="$_AND_"/>
    <s:alias val="$reduce_and"/>
    <path d="M0,0 L0,25 L15,25 A15 12.5 0 0 0 15,0 Z" class="cell_\83 fill-1"/>
    <g s:x="0" s:y="5" s:pid="A"/>
    <g s:x="0" s:y="20" s:pid="B"/>
    <g s:x="30" s:y="12.5" s:pid="Y"/>
  </g>
  <g s:type="generic" transform="translate(657,643.5)" s:width="30" s:height="40" id="cell_mux_case_beq">
    <text x="15" y="-4" class="nodelabel text-1 cell_mux_case_beq" s:attribute="ref">generic_mux_2x1_1</text>
    <rect width="30" height="60" s:generic="body" class="cell_mux_case_beq fill-1"/>
    <g transform="translate(0,10)" s:x="0" s:y="10" s:pid="in0" id="port_mux_case_beq~selector">
      <text x="-3" y="-4" class="inputPortLabel text-2 cell_mux_case_beq">selector</text>
    </g>
    <g transform="translate(0,30)" s:x="0" s:y="10" s:pid="in0" id="port_mux_case_beq~source_1">
      <text x="-3" y="-4" class="inputPortLabel text-2 cell_mux_case_beq">source_1</text>
    </g>
    <g transform="translate(0,50)" s:x="0" s:y="10" s:pid="in0" id="port_mux_case_beq~source_2">
      <text x="-3" y="-4" class="inputPortLabel text-2 cell_mux_case_beq">source_2</text>
    </g>
    <g transform="translate(30,10)" s:x="30" s:y="10" s:pid="out0" id="port_mux_case_beq~destination">
      <text x="5" y="-4" class="cell_mux_case_beq text-2">destination</text>
    </g>
  </g>
  <g s:type="generic" transform="translate(657,127.5)" s:width="30" s:height="40" id="cell_mux_case_bge">
    <text x="15" y="-4" class="nodelabel text-1 cell_mux_case_bge" s:attribute="ref">generic_mux_2x1_1</text>
    <rect width="30" height="60" s:generic="body" class="cell_mux_case_bge fill-1"/>
    <g transform="translate(0,10)" s:x="0" s:y="10" s:pid="in0" id="port_mux_case_bge~selector">
      <text x="-3" y="-4" class="inputPortLabel text-2 cell_mux_case_bge">selector</text>
    </g>
    <g transform="translate(0,30)" s:x="0" s:y="10" s:pid="in0" id="port_mux_case_bge~source_1">
      <text x="-3" y="-4" class="inputPortLabel text-2 cell_mux_case_bge">source_1</text>
    </g>
    <g transform="translate(0,50)" s:x="0" s:y="10" s:pid="in0" id="port_mux_case_bge~source_2">
      <text x="-3" y="-4" class="inputPortLabel text-2 cell_mux_case_bge">source_2</text>
    </g>
    <g transform="translate(30,10)" s:x="30" s:y="10" s:pid="out0" id="port_mux_case_bge~destination">
      <text x="5" y="-4" class="cell_mux_case_bge text-2">destination</text>
    </g>
  </g>
  <g s:type="generic" transform="translate(839,22)" s:width="30" s:height="40" id="cell_mux_case_bgeu">
    <text x="15" y="-4" class="nodelabel text-1 cell_mux_case_bgeu" s:attribute="ref">generic_mux_2x1_1</text>
    <rect width="30" height="60" s:generic="body" class="cell_mux_case_bgeu fill-1"/>
    <g transform="translate(0,10)" s:x="0" s:y="10" s:pid="in0" id="port_mux_case_bgeu~selector">
      <text x="-3" y="-4" class="inputPortLabel text-2 cell_mux_case_bgeu">selector</text>
    </g>
    <g transform="translate(0,30)" s:x="0" s:y="10" s:pid="in0" id="port_mux_case_bgeu~source_1">
      <text x="-3" y="-4" class="inputPortLabel text-2 cell_mux_case_bgeu">source_1</text>
    </g>
    <g transform="translate(0,50)" s:x="0" s:y="10" s:pid="in0" id="port_mux_case_bgeu~source_2">
      <text x="-3" y="-4" class="inputPortLabel text-2 cell_mux_case_bgeu">source_2</text>
    </g>
    <g transform="translate(30,10)" s:x="30" s:y="10" s:pid="out0" id="port_mux_case_bgeu~destination">
      <text x="5" y="-4" class="cell_mux_case_bgeu text-2">destination</text>
    </g>
  </g>
  <g s:type="generic" transform="translate(839,477)" s:width="30" s:height="40" id="cell_mux_case_blt">
    <text x="15" y="-4" class="nodelabel text-1 cell_mux_case_blt" s:attribute="ref">generic_mux_2x1_1</text>
    <rect width="30" height="60" s:generic="body" class="cell_mux_case_blt fill-1"/>
    <g transform="translate(0,10)" s:x="0" s:y="10" s:pid="in0" id="port_mux_case_blt~selector">
      <text x="-3" y="-4" class="inputPortLabel text-2 cell_mux_case_blt">selector</text>
    </g>
    <g transform="translate(0,30)" s:x="0" s:y="10" s:pid="in0" id="port_mux_case_blt~source_1">
      <text x="-3" y="-4" class="inputPortLabel text-2 cell_mux_case_blt">source_1</text>
    </g>
    <g transform="translate(0,50)" s:x="0" s:y="10" s:pid="in0" id="port_mux_case_blt~source_2">
      <text x="-3" y="-4" class="inputPortLabel text-2 cell_mux_case_blt">source_2</text>
    </g>
    <g transform="translate(30,10)" s:x="30" s:y="10" s:pid="out0" id="port_mux_case_blt~destination">
      <text x="5" y="-4" class="cell_mux_case_blt text-2">destination</text>
    </g>
  </g>
  <g s:type="generic" transform="translate(657,374.5)" s:width="30" s:height="40" id="cell_mux_case_bltu">
    <text x="15" y="-4" class="nodelabel text-1 cell_mux_case_bltu" s:attribute="ref">generic_mux_2x1_1</text>
    <rect width="30" height="60" s:generic="body" class="cell_mux_case_bltu fill-1"/>
    <g transform="translate(0,10)" s:x="0" s:y="10" s:pid="in0" id="port_mux_case_bltu~selector">
      <text x="-3" y="-4" class="inputPortLabel text-2 cell_mux_case_bltu">selector</text>
    </g>
    <g transform="translate(0,30)" s:x="0" s:y="10" s:pid="in0" id="port_mux_case_bltu~source_1">
      <text x="-3" y="-4" class="inputPortLabel text-2 cell_mux_case_bltu">source_1</text>
    </g>
    <g transform="translate(0,50)" s:x="0" s:y="10" s:pid="in0" id="port_mux_case_bltu~source_2">
      <text x="-3" y="-4" class="inputPortLabel text-2 cell_mux_case_bltu">source_2</text>
    </g>
    <g transform="translate(30,10)" s:x="30" s:y="10" s:pid="out0" id="port_mux_case_bltu~destination">
      <text x="5" y="-4" class="cell_mux_case_bltu text-2">destination</text>
    </g>
  </g>
  <g s:type="generic" transform="translate(657,751.5)" s:width="30" s:height="40" id="cell_mux_case_bne">
    <text x="15" y="-4" class="nodelabel text-1 cell_mux_case_bne" s:attribute="ref">generic_mux_2x1_1</text>
    <rect width="30" height="60" s:generic="body" class="cell_mux_case_bne fill-1"/>
    <g transform="translate(0,10)" s:x="0" s:y="10" s:pid="in0" id="port_mux_case_bne~selector">
      <text x="-3" y="-4" class="inputPortLabel text-2 cell_mux_case_bne">selector</text>
    </g>
    <g transform="translate(0,30)" s:x="0" s:y="10" s:pid="in0" id="port_mux_case_bne~source_1">
      <text x="-3" y="-4" class="inputPortLabel text-2 cell_mux_case_bne">source_1</text>
    </g>
    <g transform="translate(0,50)" s:x="0" s:y="10" s:pid="in0" id="port_mux_case_bne~source_2">
      <text x="-3" y="-4" class="inputPortLabel text-2 cell_mux_case_bne">source_2</text>
    </g>
    <g transform="translate(30,10)" s:x="30" s:y="10" s:pid="out0" id="port_mux_case_bne~destination">
      <text x="5" y="-4" class="cell_mux_case_bne text-2">destination</text>
    </g>
  </g>
  <g s:type="inputExt" transform="translate(12,546)" s:width="30" s:height="20" id="cell_select_function">
    <text x="15" y="-4" class="nodelabel text-1 cell_select_function" s:attribute="ref">select_function</text>
    <s:alias val="$_inputExt_"/>
    <path d="M0,0 L0,20 L15,20 L30,10 L15,0 Z" class="cell_select_function fill-4"/>
    <g s:x="30" s:y="10" s:pid="Y"/>
  </g>
  <g s:type="inputExt" transform="translate(137,286.5)" s:width="30" s:height="20" id="cell_flag_sign_1">
    <text x="15" y="-4" class="nodelabel text-1 cell_flag_sign_1" s:attribute="ref">flag_sign_1</text>
    <s:alias val="$_inputExt_"/>
    <path d="M0,0 L0,20 L15,20 L30,10 L15,0 Z" class="cell_flag_sign_1 fill-4"/>
    <g s:x="30" s:y="10" s:pid="Y"/>
  </g>
  <g s:type="inputExt" transform="translate(275,426.5)" s:width="30" s:height="20" id="cell_flag_sign_2">
    <text x="15" y="-4" class="nodelabel text-1 cell_flag_sign_2" s:attribute="ref">flag_sign_2</text>
    <s:alias val="$_inputExt_"/>
    <path d="M0,0 L0,20 L15,20 L30,10 L15,0 Z" class="cell_flag_sign_2 fill-4"/>
    <g s:x="30" s:y="10" s:pid="Y"/>
  </g>
  <g s:type="inputExt" transform="translate(442,684)" s:width="30" s:height="20" id="cell_flag_equal">
    <text x="15" y="-4" class="nodelabel text-1 cell_flag_equal" s:attribute="ref">flag_equal</text>
    <s:alias val="$_inputExt_"/>
    <path d="M0,0 L0,20 L15,20 L30,10 L15,0 Z" class="cell_flag_equal fill-4"/>
    <g s:x="30" s:y="10" s:pid="Y"/>
  </g>
  <g s:type="inputExt" transform="translate(275,200.5)" s:width="30" s:height="20" id="cell_flag_less">
    <text x="15" y="-4" class="nodelabel text-1 cell_flag_less" s:attribute="ref">flag_less</text>
    <s:alias val="$_inputExt_"/>
    <path d="M0,0 L0,20 L15,20 L30,10 L15,0 Z" class="cell_flag_less fill-4"/>
    <g s:x="30" s:y="10" s:pid="Y"/>
  </g>
  <g s:type="inputExt" transform="translate(137,351.5)" s:width="30" s:height="20" id="cell_flag_greather">
    <text x="15" y="-4" class="nodelabel text-1 cell_flag_greather" s:attribute="ref">flag_greather</text>
    <s:alias val="$_inputExt_"/>
    <path d="M0,0 L0,20 L15,20 L30,10 L15,0 Z" class="cell_flag_greather fill-4"/>
    <g s:x="30" s:y="10" s:pid="Y"/>
  </g>
  <g s:type="outputExt" transform="translate(1102,729.5)" s:width="30" s:height="20" id="cell_destination">
    <text x="15" y="-4" class="nodelabel text-1 cell_destination" s:attribute="ref">destination</text>
    <s:alias val="$_outputExt_"/>
    <path d="M30,0 L30,20 L15,20 L0,10 L15,0 Z" class="cell_destination fill-4"/>
    <g s:x="0" s:y="10" s:pid="A"/>
  </g>
  <g s:type="constant" transform="translate(537,395)" s:width="30" s:height="20" id="cell_0">
    <text x="15" y="-4" class="nodelabel text-1 cell_0" s:attribute="ref">0</text>
    <s:alias val="$_constant_"/>
    <rect width="30" height="20" class="cell_0 fill-4"/>
    <g s:x="31" s:y="10" s:pid="Y"/>
  </g>
  <g s:type="split" transform="translate(166.6,69.5)" s:width="5" s:height="40" id="cell_$split$,2,3,4,">
    <rect width="5" height="100" class="splitjoinBody" s:generic="body"/>
    <s:alias val="$_split_"/>
    <g s:x="0" s:y="20" s:pid="in"/>
    <g transform="translate(4,10)" s:x="4" s:y="10" s:pid="out0">
      <text x="5" y="-4" class="text-2">1:2</text>
    </g>
    <g transform="translate(4,30)" s:x="4" s:y="10" s:pid="out0">
      <text x="5" y="-4" class="text-2">0:1</text>
    </g>
    <g transform="translate(4,50)" s:x="4" s:y="10" s:pid="out0">
      <text x="5" y="-4" class="text-2">1</text>
    </g>
    <g transform="translate(4,70)" s:x="4" s:y="10" s:pid="out0">
      <text x="5" y="-4" class="text-2">0</text>
    </g>
    <g transform="translate(4,90)" s:x="4" s:y="10" s:pid="out0">
      <text x="5" y="-4" class="text-2">2</text>
    </g>
  </g>
  <g s:type="split" transform="translate(391,632.5)" s:width="5" s:height="40" id="cell_$split$,14,15,">
    <rect width="5" height="40" class="splitjoinBody" s:generic="body"/>
    <s:alias val="$_split_"/>
    <g s:x="0" s:y="20" s:pid="in"/>
    <g transform="translate(4,10)" s:x="4" s:y="10" s:pid="out0">
      <text x="5" y="-4" class="text-2">0</text>
    </g>
    <g transform="translate(4,30)" s:x="4" s:y="10" s:pid="out0">
      <text x="5" y="-4" class="text-2">1</text>
    </g>
  </g>
  <g s:type="split" transform="translate(468.6666666666667,469.5)" s:width="5" s:height="40" id="cell_$split$,16,17,">
    <rect width="5" height="40" class="splitjoinBody" s:generic="body"/>
    <s:alias val="$_split_"/>
    <g s:x="0" s:y="20" s:pid="in"/>
    <g transform="translate(4,10)" s:x="4" s:y="10" s:pid="out0">
      <text x="5" y="-4" class="text-2">0</text>
    </g>
    <g transform="translate(4,30)" s:x="4" s:y="10" s:pid="out0">
      <text x="5" y="-4" class="text-2">1</text>
    </g>
  </g>
  <g s:type="split" transform="translate(392,535.5)" s:width="5" s:height="40" id="cell_$split$,11,12,13,">
    <rect width="5" height="60" class="splitjoinBody" s:generic="body"/>
    <s:alias val="$_split_"/>
    <g s:x="0" s:y="20" s:pid="in"/>
    <g transform="translate(4,10)" s:x="4" s:y="10" s:pid="out0">
      <text x="5" y="-4" class="text-2">0</text>
    </g>
    <g transform="translate(4,30)" s:x="4" s:y="10" s:pid="out0">
      <text x="5" y="-4" class="text-2">1</text>
    </g>
    <g transform="translate(4,50)" s:x="4" s:y="10" s:pid="out0">
      <text x="5" y="-4" class="text-2">2</text>
    </g>
  </g>
  <line x1="42" x2="292" y1="556" y2="556" class="net_2,3,4"/>
  <line x1="42" x2="112" y1="556" y2="556" class="net_2,3,4"/>
  <line x1="112" x2="112" y1="556" y2="90" class="net_2,3,4"/>
  <circle cx="112" cy="556" r="2" style="fill:#000" class="net_2,3,4"/>
  <line x1="112" x2="166.6" y1="90" y2="90" class="net_2,3,4"/>
  <line x1="171.6" x2="225" y1="80" y2="80" class="net_3,4"/>
  <line x1="225" x2="225" y1="80" y2="653" class="net_3,4"/>
  <line x1="225" x2="292" y1="653" y2="653" class="net_3,4"/>
  <line x1="171.6" x2="235" y1="100" y2="100" class="net_2,3"/>
  <line x1="235" x2="235" y1="100" y2="490" class="net_2,3"/>
  <line x1="235" x2="376" y1="490" y2="490" class="net_2,3"/>
  <line x1="171.6" x2="265" y1="120" y2="120" class="net_3"/>
  <line x1="265" x2="265" y1="120" y2="135.5" class="net_3"/>
  <circle cx="265" cy="120" r="2" style="fill:#000" class="net_3"/>
  <circle cx="265" cy="135.5" r="2" style="fill:#000" class="net_3"/>
  <line x1="265" x2="376" y1="135.5" y2="135.5" class="net_3"/>
  <line x1="171.6" x2="265" y1="120" y2="120" class="net_3"/>
  <line x1="265" x2="265" y1="120" y2="250.5" class="net_3"/>
  <line x1="265" x2="452" y1="250.5" y2="250.5" class="net_3"/>
  <line x1="171.6" x2="265" y1="120" y2="120" class="net_3"/>
  <line x1="265" x2="265" y1="120" y2="44" class="net_3"/>
  <line x1="265" x2="537.6666666666666" y1="44" y2="44" class="net_3"/>
  <line x1="171.6" x2="255" y1="140" y2="140" class="net_2"/>
  <line x1="255" x2="255" y1="140" y2="230.5" class="net_2"/>
  <circle cx="255" cy="140" r="2" style="fill:#000" class="net_2"/>
  <circle cx="255" cy="230.5" r="2" style="fill:#000" class="net_2"/>
  <line x1="255" x2="376" y1="230.5" y2="230.5" class="net_2"/>
  <line x1="171.6" x2="255" y1="140" y2="140" class="net_2"/>
  <line x1="255" x2="255" y1="140" y2="744.5" class="net_2"/>
  <line x1="255" x2="452" y1="744.5" y2="744.5" class="net_2"/>
  <line x1="171.6" x2="255" y1="140" y2="140" class="net_2"/>
  <line x1="255" x2="255" y1="140" y2="114.5" class="net_2"/>
  <line x1="255" x2="417" y1="114.5" y2="114.5" class="net_2"/>
  <line x1="417" x2="417" y1="114.5" y2="120.5" class="net_2"/>
  <circle cx="255" cy="114.5" r="2" style="fill:#000" class="net_2"/>
  <line x1="417" x2="452" y1="120.5" y2="120.5" class="net_2"/>
  <line x1="171.6" x2="255" y1="140" y2="140" class="net_2"/>
  <line x1="255" x2="255" y1="140" y2="29" class="net_2"/>
  <line x1="255" x2="537.6666666666666" y1="29" y2="29" class="net_2"/>
  <line x1="167" x2="292" y1="296.5" y2="296.5" class="net_5"/>
  <line x1="167" x2="265" y1="296.5" y2="296.5" class="net_5"/>
  <line x1="265" x2="265" y1="296.5" y2="376.5" class="net_5"/>
  <circle cx="265" cy="296.5" r="2" style="fill:#000" class="net_5"/>
  <line x1="265" x2="287.3333333333333" y1="376.5" y2="376.5" class="net_5"/>
  <line x1="396" x2="417" y1="643" y2="643" class="net_14"/>
  <line x1="417" x2="417" y1="643" y2="759.5" class="net_14"/>
  <line x1="417" x2="452" y1="759.5" y2="759.5" class="net_14"/>
  <line x1="396" x2="522" y1="663" y2="663" class="net_15"/>
  <line x1="522" x2="522" y1="663" y2="737" class="net_15"/>
  <line x1="522" x2="537.6666666666666" y1="737" y2="737" class="net_15"/>
  <line x1="482" x2="537.6666666666666" y1="752" y2="752" class="net_21"/>
  <line x1="472" x2="512" y1="694" y2="694" class="net_7"/>
  <line x1="512" x2="512" y1="694" y2="802" class="net_7"/>
  <circle cx="512" cy="694" r="2" style="fill:#000" class="net_7"/>
  <line x1="512" x2="537" y1="802" y2="802" class="net_7"/>
  <line x1="472" x2="657" y1="694" y2="694" class="net_7"/>
  <line x1="473.6666666666667" x2="512" y1="480" y2="480" class="net_16"/>
  <line x1="512" x2="512" y1="480" y2="485" class="net_16"/>
  <line x1="512" x2="537.6666666666666" y1="485" y2="485" class="net_16"/>
  <line x1="473.6666666666667" x2="537.6666666666666" y1="500" y2="500" class="net_17"/>
  <line x1="171.1" x2="171.1" y1="160.5" y2="179.5" class="net_4"/>
  <line x1="171.1" x2="245" y1="179.5" y2="179.5" class="net_4"/>
  <line x1="245" x2="245" y1="179.5" y2="456.5" class="net_4"/>
  <line x1="245" x2="578" y1="456.5" y2="456.5" class="net_4"/>
  <line x1="578" x2="578" y1="456.5" y2="477.5" class="net_4"/>
  <circle cx="245" cy="179.5" r="2" style="fill:#000" class="net_4"/>
  <line x1="578" x2="663.3333333333334" y1="477.5" y2="477.5" class="net_4"/>
  <line x1="171.1" x2="171.1" y1="160.5" y2="179.5" class="net_4"/>
  <line x1="171.1" x2="245" y1="179.5" y2="179.5" class="net_4"/>
  <line x1="245" x2="245" y1="179.5" y2="103.5" class="net_4"/>
  <line x1="245" x2="512" y1="103.5" y2="103.5" class="net_4"/>
  <line x1="512" x2="512" y1="103.5" y2="113" class="net_4"/>
  <circle cx="245" cy="103.5" r="2" style="fill:#000" class="net_4"/>
  <line x1="512" x2="537.6666666666666" y1="113" y2="113" class="net_4"/>
  <line x1="171.1" x2="171.1" y1="160.5" y2="179.5" class="net_4"/>
  <line x1="171.1" x2="512" y1="179.5" y2="179.5" class="net_4"/>
  <line x1="512" x2="512" y1="179.5" y2="228" class="net_4"/>
  <line x1="512" x2="537.6666666666666" y1="228" y2="228" class="net_4"/>
  <line x1="171.1" x2="171.1" y1="160.5" y2="179.5" class="net_4"/>
  <line x1="171.1" x2="245" y1="179.5" y2="179.5" class="net_4"/>
  <line x1="245" x2="245" y1="179.5" y2="13" class="net_4"/>
  <line x1="245" x2="578" y1="13" y2="13" class="net_4"/>
  <line x1="578" x2="578" y1="13" y2="21.5" class="net_4"/>
  <line x1="578" x2="663.3333333333334" y1="21.5" y2="21.5" class="net_4"/>
  <line x1="567.6666666666666" x2="663.3333333333334" y1="492.5" y2="492.5" class="net_24"/>
  <line x1="404" x2="452" y1="135.5" y2="135.5" class="net_18"/>
  <line x1="482" x2="537.6666666666666" y1="128" y2="128" class="net_26"/>
  <line x1="482" x2="522" y1="421.5" y2="421.5" class="net_28"/>
  <line x1="522" x2="522" y1="421.5" y2="178" class="net_28"/>
  <circle cx="522" cy="421.5" r="2" style="fill:#000" class="net_28"/>
  <line x1="522" x2="537" y1="178" y2="178" class="net_28"/>
  <line x1="482" x2="522" y1="421.5" y2="421.5" class="net_28"/>
  <line x1="522" x2="522" y1="421.5" y2="527.5" class="net_28"/>
  <line x1="522" x2="839" y1="527.5" y2="527.5" class="net_28"/>
  <line x1="305" x2="351" y1="210.5" y2="210.5" class="net_8"/>
  <line x1="351" x2="351" y1="210.5" y2="281.5" class="net_8"/>
  <circle cx="351" cy="210.5" r="2" style="fill:#000" class="net_8"/>
  <line x1="351" x2="376.6666666666667" y1="281.5" y2="281.5" class="net_8"/>
  <line x1="305" x2="351" y1="210.5" y2="210.5" class="net_8"/>
  <line x1="351" x2="351" y1="210.5" y2="72.5" class="net_8"/>
  <line x1="351" x2="665.5" y1="72.5" y2="72.5" class="net_8"/>
  <line x1="305" x2="351" y1="210.5" y2="210.5" class="net_8"/>
  <line x1="351" x2="351" y1="210.5" y2="265.5" class="net_8"/>
  <line x1="351" x2="578" y1="265.5" y2="265.5" class="net_8"/>
  <line x1="578" x2="578" y1="265.5" y2="425" class="net_8"/>
  <circle cx="351" cy="265.5" r="2" style="fill:#000" class="net_8"/>
  <line x1="578" x2="657" y1="425" y2="425" class="net_8"/>
  <line x1="320" x2="376.6666666666667" y1="296.5" y2="296.5" class="net_20"/>
  <line x1="404" x2="417" y1="230.5" y2="230.5" class="net_19"/>
  <line x1="417" x2="417" y1="230.5" y2="235.5" class="net_19"/>
  <line x1="417" x2="452" y1="235.5" y2="235.5" class="net_19"/>
  <line x1="482" x2="537.6666666666666" y1="243" y2="243" class="net_31"/>
  <line x1="567.6666666666666" x2="663.3333333333334" y1="36.5" y2="36.5" class="net_33"/>
  <line x1="167" x2="287.3333333333333" y1="361.5" y2="361.5" class="net_9"/>
  <line x1="688" x2="765" y1="138" y2="138" class="net_37"/>
  <line x1="765" x2="765" y1="138" y2="370" class="net_37"/>
  <line x1="765" x2="847.3333333333334" y1="370" y2="370" class="net_37"/>
  <line x1="688" x2="847.3333333333334" y1="385" y2="385" class="net_38"/>
  <line x1="870" x2="947" y1="32.5" y2="32.5" class="net_40"/>
  <line x1="947" x2="947" y1="32.5" y2="362.5" class="net_40"/>
  <line x1="947" x2="974" y1="362.5" y2="362.5" class="net_40"/>
  <line x1="875.3333333333334" x2="974" y1="377.5" y2="377.5" class="net_39"/>
  <line x1="317.3333333333333" x2="351" y1="369" y2="369" class="net_36"/>
  <line x1="351" x2="351" y1="369" y2="421.5" class="net_36"/>
  <line x1="351" x2="376.6666666666667" y1="421.5" y2="421.5" class="net_36"/>
  <line x1="305" x2="376.6666666666667" y1="436.5" y2="436.5" class="net_6"/>
  <line x1="406.6666666666667" x2="417" y1="289" y2="289" class="net_30"/>
  <line x1="417" x2="417" y1="289" y2="414" class="net_30"/>
  <line x1="417" x2="454" y1="414" y2="414" class="net_30"/>
  <line x1="406.6666666666667" x2="454" y1="429" y2="429" class="net_42"/>
  <line x1="688" x2="765" y1="654" y2="654" class="net_43"/>
  <line x1="765" x2="765" y1="654" y2="747" class="net_43"/>
  <line x1="765" x2="847.3333333333334" y1="747" y2="747" class="net_43"/>
  <line x1="688" x2="847.3333333333334" y1="762" y2="762" class="net_44"/>
  <line x1="870" x2="947" y1="487.5" y2="487.5" class="net_46"/>
  <line x1="947" x2="947" y1="487.5" y2="739.5" class="net_46"/>
  <line x1="947" x2="974" y1="739.5" y2="739.5" class="net_46"/>
  <line x1="875.3333333333334" x2="974" y1="754.5" y2="754.5" class="net_45"/>
  <line x1="1002" x2="1012" y1="370" y2="370" class="net_41"/>
  <line x1="1012" x2="1012" y1="370" y2="732" class="net_41"/>
  <line x1="1012" x2="1039" y1="732" y2="732" class="net_41"/>
  <line x1="1002" x2="1039" y1="747" y2="747" class="net_47"/>
  <line x1="397" x2="427" y1="546" y2="546" class="net_11"/>
  <line x1="427" x2="427" y1="546" y2="551" class="net_11"/>
  <line x1="427" x2="452" y1="551" y2="551" class="net_11"/>
  <line x1="397" x2="452" y1="566" y2="566" class="net_12"/>
  <line x1="397" x2="417" y1="586" y2="586" class="net_13"/>
  <line x1="417" x2="417" y1="586" y2="535" class="net_13"/>
  <line x1="417" x2="512" y1="535" y2="535" class="net_13"/>
  <line x1="512" x2="512" y1="535" y2="543.5" class="net_13"/>
  <line x1="512" x2="537.6666666666666" y1="543.5" y2="543.5" class="net_13"/>
  <line x1="482" x2="537.6666666666666" y1="558.5" y2="558.5" class="net_48"/>
  <line x1="567.6666666666666" x2="578" y1="551" y2="551" class="net_49"/>
  <line x1="578" x2="578" y1="551" y2="654" class="net_49"/>
  <line x1="578" x2="657" y1="654" y2="654" class="net_49"/>
  <line x1="568" x2="588" y1="405" y2="405" class="net_50"/>
  <line x1="588" x2="588" y1="405" y2="674" class="net_50"/>
  <circle cx="588" cy="405" r="2" style="fill:#000" class="net_50"/>
  <circle cx="588" cy="674" r="2" style="fill:#000" class="net_50"/>
  <line x1="588" x2="657" y1="674" y2="674" class="net_50"/>
  <line x1="568" x2="588" y1="405" y2="405" class="net_50"/>
  <line x1="588" x2="588" y1="405" y2="158" class="net_50"/>
  <circle cx="588" cy="158" r="2" style="fill:#000" class="net_50"/>
  <line x1="588" x2="657" y1="158" y2="158" class="net_50"/>
  <line x1="568" x2="588" y1="405" y2="405" class="net_50"/>
  <line x1="588" x2="588" y1="405" y2="51.5" class="net_50"/>
  <line x1="588" x2="765" y1="51.5" y2="51.5" class="net_50"/>
  <line x1="765" x2="765" y1="51.5" y2="52.5" class="net_50"/>
  <line x1="765" x2="839" y1="52.5" y2="52.5" class="net_50"/>
  <line x1="568" x2="588" y1="405" y2="405" class="net_50"/>
  <line x1="588" x2="588" y1="405" y2="507.5" class="net_50"/>
  <circle cx="588" cy="507.5" r="2" style="fill:#000" class="net_50"/>
  <line x1="588" x2="839" y1="507.5" y2="507.5" class="net_50"/>
  <line x1="568" x2="657" y1="405" y2="405" class="net_50"/>
  <line x1="568" x2="588" y1="405" y2="405" class="net_50"/>
  <line x1="588" x2="588" y1="405" y2="782" class="net_50"/>
  <line x1="588" x2="657" y1="782" y2="782" class="net_50"/>
  <line x1="567.6666666666666" x2="598" y1="120.5" y2="120.5" class="net_27"/>
  <line x1="598" x2="598" y1="120.5" y2="138" class="net_27"/>
  <line x1="598" x2="657" y1="138" y2="138" class="net_27"/>
  <line x1="565" x2="657" y1="178" y2="178" class="net_29"/>
  <line x1="693.3333333333334" x2="765" y1="29" y2="29" class="net_34"/>
  <line x1="765" x2="765" y1="29" y2="32.5" class="net_34"/>
  <line x1="765" x2="839" y1="32.5" y2="32.5" class="net_34"/>
  <line x1="693.5" x2="839" y1="72.5" y2="72.5" class="net_35"/>
  <line x1="693.3333333333334" x2="765" y1="485" y2="485" class="net_25"/>
  <line x1="765" x2="765" y1="485" y2="487.5" class="net_25"/>
  <line x1="765" x2="839" y1="487.5" y2="487.5" class="net_25"/>
  <line x1="567.6666666666666" x2="598" y1="235.5" y2="235.5" class="net_32"/>
  <line x1="598" x2="598" y1="235.5" y2="385" class="net_32"/>
  <line x1="598" x2="657" y1="385" y2="385" class="net_32"/>
  <line x1="567.6666666666666" x2="578" y1="744.5" y2="744.5" class="net_22"/>
  <line x1="578" x2="578" y1="744.5" y2="762" class="net_22"/>
  <line x1="578" x2="657" y1="762" y2="762" class="net_22"/>
  <line x1="565" x2="657" y1="802" y2="802" class="net_23"/>
  <line x1="1067" x2="1102" y1="739.5" y2="739.5" class="net_10"/>
  <line x1="320" x2="391" y1="653" y2="653" class="net_14,15"/>
  <line x1="404" x2="468.6666666666667" y1="490" y2="490" class="net_16,17"/>
  <line x1="320" x2="392" y1="556" y2="556" class="net_11,12,13"/>
</svg>
