<svg xmlns="http://www.w3.org/2000/svg" xmlns:xlink="http://www.w3.org/1999/xlink" xmlns:s="https://github.com/nturley/netlistsvg" width="901" height="586">
  <style>  svg {
      stroke: #011e41;
      fill: none;
    }
    text {
      fill:#ffffff;
      stroke:none;
      font-size:10px;
      font-weight: bold;
      font-family: "Courier New", monospace;
    }
    .fill-1 { fill: #003262; }
    .fill-2 { fill: #011e41; stroke: #003262; }
    .fill-3 { fill: #ffffff; }
    .fill-4 { fill: #003262; }
    .fill-5 { fill: #011e41; stroke: #fdda64; }
    .text-1 { fill: #fdb515; }
    .text-2 { fill: #003262; }
    .text-3 { stroke: #fdda64; }
    .nodelabel { text-anchor: middle; }
    .inputPortLabel { text-anchor: end; }
    .splitjoinBody { fill: #3c3c43; }</style>
  <g s:type="mux" transform="translate(756,147)" s:width="20" s:height="40" id="cell_\10">
    <s:alias val="$pmux"/>
    <s:alias val="$mux"/>
    <s:alias val="$_MUX_"/>
    <path d="M0,0 L20,10 L20,30 L0,40 Z" class="cell_\10 fill-1"/>
    <text x="5" y="32" class="nodelabel cell_\10" s:attribute="">1</text>
    <text x="5" y="13" class="nodelabel cell_\10" s:attribute="">0</text>
    <g s:x="0" s:y="10" s:pid="A"/>
    <g s:x="0" s:y="30" s:pid="B"/>
    <g s:x="10" s:y="35" s:pid="S"/>
    <g s:x="20" s:y="20" s:pid="Y"/>
  </g>
  <g s:type="eq" transform="translate(206.66666666666666,77)" s:width="25" s:height="25" id="cell_\12">
    <s:alias val="$eq"/>
    <s:alias val="$eqx"/>
    <circle r="12.5" cx="12.5" cy="12.5" class="cell_\12 fill-1"/>
    <line x1="7.5" x2="17.5" y1="10" y2="10" class="cell_\12 text-3"/>
    <line x1="7.5" x2="17.5" y1="15" y2="15" class="cell_\12 text-3"/>
    <g s:x="2" s:y="5" s:pid="A"/>
    <g s:x="2" s:y="20" s:pid="B"/>
    <g s:x="25" s:y="12.5" s:pid="Y"/>
  </g>
  <g s:type="and" transform="translate(348,84.5)" s:width="30" s:height="25" id="cell_\13">
    <s:alias val="$and"/>
    <s:alias val="$logic_and"/>
    <s:alias val="$_AND_"/>
    <s:alias val="$reduce_and"/>
    <path d="M0,0 L0,25 L15,25 A15 12.5 0 0 0 15,0 Z" class="cell_\13 fill-1"/>
    <g s:x="0" s:y="5" s:pid="A"/>
    <g s:x="0" s:y="20" s:pid="B"/>
    <g s:x="30" s:y="12.5" s:pid="Y"/>
  </g>
  <g s:type="or" transform="translate(367,274)" s:width="30" s:height="25" id="cell_\15">
    <s:alias val="$or"/>
    <s:alias val="$logic_or"/>
    <s:alias val="$_OR_"/>
    <s:alias val="$reduce_or"/>
    <s:alias val="$reduce_bool"/>
    <path d="M0,0 A30 25 0 0 1 0,25 A30 25 0 0 0 30,12.5 A30 25 0 0 0 0,0" class="cell_\15 fill-1"/>
    <g s:x="2" s:y="5" s:pid="A"/>
    <g s:x="2" s:y="20" s:pid="B"/>
    <g s:x="30" s:y="12.5" s:pid="Y"/>
  </g>
  <g s:type="and" transform="translate(511,77)" s:width="30" s:height="25" id="cell_\16">
    <s:alias val="$and"/>
    <s:alias val="$logic_and"/>
    <s:alias val="$_AND_"/>
    <s:alias val="$reduce_and"/>
    <path d="M0,0 L0,25 L15,25 A15 12.5 0 0 0 15,0 Z" class="cell_\16 fill-1"/>
    <g s:x="0" s:y="5" s:pid="A"/>
    <g s:x="0" s:y="20" s:pid="B"/>
    <g s:x="30" s:y="12.5" s:pid="Y"/>
  </g>
  <g s:type="mux" transform="translate(628.3333333333334,127)" s:width="20" s:height="40" id="cell_\17">
    <s:alias val="$pmux"/>
    <s:alias val="$mux"/>
    <s:alias val="$_MUX_"/>
    <path d="M0,0 L20,10 L20,30 L0,40 Z" class="cell_\17 fill-1"/>
    <text x="5" y="32" class="nodelabel cell_\17" s:attribute="">1</text>
    <text x="5" y="13" class="nodelabel cell_\17" s:attribute="">0</text>
    <g s:x="0" s:y="10" s:pid="A"/>
    <g s:x="0" s:y="30" s:pid="B"/>
    <g s:x="10" s:y="35" s:pid="S"/>
    <g s:x="20" s:y="20" s:pid="Y"/>
  </g>
  <g s:type="eq" transform="translate(512.6666666666667,541.5)" s:width="25" s:height="25" id="cell_\20">
    <s:alias val="$eq"/>
    <s:alias val="$eqx"/>
    <circle r="12.5" cx="12.5" cy="12.5" class="cell_\20 fill-1"/>
    <line x1="7.5" x2="17.5" y1="10" y2="10" class="cell_\20 text-3"/>
    <line x1="7.5" x2="17.5" y1="15" y2="15" class="cell_\20 text-3"/>
    <g s:x="2" s:y="5" s:pid="A"/>
    <g s:x="2" s:y="20" s:pid="B"/>
    <g s:x="25" s:y="12.5" s:pid="Y"/>
  </g>
  <g s:type="and" transform="translate(625,549)" s:width="30" s:height="25" id="cell_\21">
    <s:alias val="$and"/>
    <s:alias val="$logic_and"/>
    <s:alias val="$_AND_"/>
    <s:alias val="$reduce_and"/>
    <path d="M0,0 L0,25 L15,25 A15 12.5 0 0 0 15,0 Z" class="cell_\21 fill-1"/>
    <g s:x="0" s:y="5" s:pid="A"/>
    <g s:x="0" s:y="20" s:pid="B"/>
    <g s:x="30" s:y="12.5" s:pid="Y"/>
  </g>
  <g s:type="or" transform="translate(625,489)" s:width="30" s:height="25" id="cell_\23">
    <s:alias val="$or"/>
    <s:alias val="$logic_or"/>
    <s:alias val="$_OR_"/>
    <s:alias val="$reduce_or"/>
    <s:alias val="$reduce_bool"/>
    <path d="M0,0 A30 25 0 0 1 0,25 A30 25 0 0 0 30,12.5 A30 25 0 0 0 0,0" class="cell_\23 fill-1"/>
    <g s:x="2" s:y="5" s:pid="A"/>
    <g s:x="2" s:y="20" s:pid="B"/>
    <g s:x="30" s:y="12.5" s:pid="Y"/>
  </g>
  <g s:type="and" transform="translate(691,496.5)" s:width="30" s:height="25" id="cell_\24">
    <s:alias val="$and"/>
    <s:alias val="$logic_and"/>
    <s:alias val="$_AND_"/>
    <s:alias val="$reduce_and"/>
    <path d="M0,0 L0,25 L15,25 A15 12.5 0 0 0 15,0 Z" class="cell_\24 fill-1"/>
    <g s:x="0" s:y="5" s:pid="A"/>
    <g s:x="0" s:y="20" s:pid="B"/>
    <g s:x="30" s:y="12.5" s:pid="Y"/>
  </g>
  <g s:type="mux" transform="translate(756,416.5)" s:width="20" s:height="40" id="cell_\25">
    <s:alias val="$pmux"/>
    <s:alias val="$mux"/>
    <s:alias val="$_MUX_"/>
    <path d="M0,0 L20,10 L20,30 L0,40 Z" class="cell_\25 fill-1"/>
    <text x="5" y="32" class="nodelabel cell_\25" s:attribute="">1</text>
    <text x="5" y="13" class="nodelabel cell_\25" s:attribute="">0</text>
    <g s:x="0" s:y="10" s:pid="A"/>
    <g s:x="0" s:y="30" s:pid="B"/>
    <g s:x="10" s:y="35" s:pid="S"/>
    <g s:x="20" s:y="20" s:pid="Y"/>
  </g>
  <g s:type="eq" transform="translate(206.66666666666666,326.5)" s:width="25" s:height="25" id="cell_\27">
    <s:alias val="$eq"/>
    <s:alias val="$eqx"/>
    <circle r="12.5" cx="12.5" cy="12.5" class="cell_\27 fill-1"/>
    <line x1="7.5" x2="17.5" y1="10" y2="10" class="cell_\27 text-3"/>
    <line x1="7.5" x2="17.5" y1="15" y2="15" class="cell_\27 text-3"/>
    <g s:x="2" s:y="5" s:pid="A"/>
    <g s:x="2" s:y="20" s:pid="B"/>
    <g s:x="25" s:y="12.5" s:pid="Y"/>
  </g>
  <g s:type="and" transform="translate(348,334)" s:width="30" s:height="25" id="cell_\28">
    <s:alias val="$and"/>
    <s:alias val="$logic_and"/>
    <s:alias val="$_AND_"/>
    <s:alias val="$reduce_and"/>
    <path d="M0,0 L0,25 L15,25 A15 12.5 0 0 0 15,0 Z" class="cell_\28 fill-1"/>
    <g s:x="0" s:y="5" s:pid="A"/>
    <g s:x="0" s:y="20" s:pid="B"/>
    <g s:x="30" s:y="12.5" s:pid="Y"/>
  </g>
  <g s:type="and" transform="translate(511,281.5)" s:width="30" s:height="25" id="cell_\31">
    <s:alias val="$and"/>
    <s:alias val="$logic_and"/>
    <s:alias val="$_AND_"/>
    <s:alias val="$reduce_and"/>
    <path d="M0,0 L0,25 L15,25 A15 12.5 0 0 0 15,0 Z" class="cell_\31 fill-1"/>
    <g s:x="0" s:y="5" s:pid="A"/>
    <g s:x="0" s:y="20" s:pid="B"/>
    <g s:x="30" s:y="12.5" s:pid="Y"/>
  </g>
  <g s:type="mux" transform="translate(628.3333333333334,233)" s:width="20" s:height="40" id="cell_\32">
    <s:alias val="$pmux"/>
    <s:alias val="$mux"/>
    <s:alias val="$_MUX_"/>
    <path d="M0,0 L20,10 L20,30 L0,40 Z" class="cell_\32 fill-1"/>
    <text x="5" y="32" class="nodelabel cell_\32" s:attribute="">1</text>
    <text x="5" y="13" class="nodelabel cell_\32" s:attribute="">0</text>
    <g s:x="0" s:y="10" s:pid="A"/>
    <g s:x="0" s:y="30" s:pid="B"/>
    <g s:x="10" s:y="35" s:pid="S"/>
    <g s:x="20" s:y="20" s:pid="Y"/>
  </g>
  <g s:type="eq" transform="translate(512.6666666666667,394)" s:width="25" s:height="25" id="cell_\5">
    <s:alias val="$eq"/>
    <s:alias val="$eqx"/>
    <circle r="12.5" cx="12.5" cy="12.5" class="cell_\5 fill-1"/>
    <line x1="7.5" x2="17.5" y1="10" y2="10" class="cell_\5 text-3"/>
    <line x1="7.5" x2="17.5" y1="15" y2="15" class="cell_\5 text-3"/>
    <g s:x="2" s:y="5" s:pid="A"/>
    <g s:x="2" s:y="20" s:pid="B"/>
    <g s:x="25" s:y="12.5" s:pid="Y"/>
  </g>
  <g s:type="and" transform="translate(625,401.5)" s:width="30" s:height="25" id="cell_\6">
    <s:alias val="$and"/>
    <s:alias val="$logic_and"/>
    <s:alias val="$_AND_"/>
    <s:alias val="$reduce_and"/>
    <path d="M0,0 L0,25 L15,25 A15 12.5 0 0 0 15,0 Z" class="cell_\6 fill-1"/>
    <g s:x="0" s:y="5" s:pid="A"/>
    <g s:x="0" s:y="20" s:pid="B"/>
    <g s:x="30" s:y="12.5" s:pid="Y"/>
  </g>
  <g s:type="and" transform="translate(691,394)" s:width="30" s:height="25" id="cell_\9">
    <s:alias val="$and"/>
    <s:alias val="$logic_and"/>
    <s:alias val="$_AND_"/>
    <s:alias val="$reduce_and"/>
    <path d="M0,0 L0,25 L15,25 A15 12.5 0 0 0 15,0 Z" class="cell_\9 fill-1"/>
    <g s:x="0" s:y="5" s:pid="A"/>
    <g s:x="0" s:y="20" s:pid="B"/>
    <g s:x="30" s:y="12.5" s:pid="Y"/>
  </g>
  <g s:type="inputExt" transform="translate(12,22)" s:width="30" s:height="20" id="cell_register_source_1">
    <text x="15" y="-4" class="nodelabel text-1 cell_register_source_1" s:attribute="ref">register_source_1</text>
    <s:alias val="$_inputExt_"/>
    <path d="M0,0 L0,20 L15,20 L30,10 L15,0 Z" class="cell_register_source_1 fill-4"/>
    <g s:x="30" s:y="10" s:pid="Y"/>
  </g>
  <g s:type="inputExt" transform="translate(12,321.5)" s:width="30" s:height="20" id="cell_register_source_2">
    <text x="15" y="-4" class="nodelabel text-1 cell_register_source_2" s:attribute="ref">register_source_2</text>
    <s:alias val="$_inputExt_"/>
    <path d="M0,0 L0,20 L15,20 L30,10 L15,0 Z" class="cell_register_source_2 fill-4"/>
    <g s:x="30" s:y="10" s:pid="Y"/>
  </g>
  <g s:type="inputExt" transform="translate(310,404)" s:width="30" s:height="20" id="cell_register_destination_mem">
    <text x="15" y="-4" class="nodelabel text-1 cell_register_destination_mem" s:attribute="ref">register_destination_mem</text>
    <s:alias val="$_inputExt_"/>
    <path d="M0,0 L0,20 L15,20 L30,10 L15,0 Z" class="cell_register_destination_mem fill-4"/>
    <g s:x="30" s:y="10" s:pid="Y"/>
  </g>
  <g s:type="inputExt" transform="translate(489,464)" s:width="30" s:height="20" id="cell_enable_write_mem">
    <text x="15" y="-4" class="nodelabel text-1 cell_enable_write_mem" s:attribute="ref">enable_write_mem</text>
    <s:alias val="$_inputExt_"/>
    <path d="M0,0 L0,20 L15,20 L30,10 L15,0 Z" class="cell_enable_write_mem fill-4"/>
    <g s:x="30" s:y="10" s:pid="Y"/>
  </g>
  <g s:type="inputExt" transform="translate(12,87)" s:width="30" s:height="20" id="cell_register_destination_wb">
    <text x="15" y="-4" class="nodelabel text-1 cell_register_destination_wb" s:attribute="ref">register_destination_wb</text>
    <s:alias val="$_inputExt_"/>
    <path d="M0,0 L0,20 L15,20 L30,10 L15,0 Z" class="cell_register_destination_wb fill-4"/>
    <g s:x="30" s:y="10" s:pid="Y"/>
  </g>
  <g s:type="inputExt" transform="translate(185,147)" s:width="30" s:height="20" id="cell_enable_write_wb">
    <text x="15" y="-4" class="nodelabel text-1 cell_enable_write_wb" s:attribute="ref">enable_write_wb</text>
    <s:alias val="$_inputExt_"/>
    <path d="M0,0 L0,20 L15,20 L30,10 L15,0 Z" class="cell_enable_write_wb fill-4"/>
    <g s:x="30" s:y="10" s:pid="Y"/>
  </g>
  <g s:type="outputExt" transform="translate(811,157)" s:width="30" s:height="20" id="cell_mux_control_1">
    <text x="15" y="-4" class="nodelabel text-1 cell_mux_control_1" s:attribute="ref">mux_control_1</text>
    <s:alias val="$_outputExt_"/>
    <path d="M30,0 L30,20 L15,20 L0,10 L15,0 Z" class="cell_mux_control_1 fill-4"/>
    <g s:x="0" s:y="10" s:pid="A"/>
  </g>
  <g s:type="outputExt" transform="translate(811,426.5)" s:width="30" s:height="20" id="cell_mux_control_2">
    <text x="15" y="-4" class="nodelabel text-1 cell_mux_control_2" s:attribute="ref">mux_control_2</text>
    <s:alias val="$_outputExt_"/>
    <path d="M30,0 L30,20 L15,20 L0,10 L15,0 Z" class="cell_mux_control_2 fill-4"/>
    <g s:x="0" s:y="10" s:pid="A"/>
  </g>
  <g s:type="constant" transform="translate(489,212)" s:width="30" s:height="20" id="cell_0">
    <text x="15" y="-4" class="nodelabel text-1 cell_0" s:attribute="ref">0</text>
    <s:alias val="$_constant_"/>
    <rect width="30" height="20" class="cell_0 fill-4"/>
    <g s:x="31" s:y="10" s:pid="Y"/>
  </g>
  <g s:type="constant" transform="translate(690,327.5)" s:width="30" s:height="20" id="cell_10">
    <text x="15" y="-4" class="nodelabel text-1 cell_10" s:attribute="ref">10</text>
    <s:alias val="$_constant_"/>
    <rect width="30" height="20" class="cell_10 fill-4"/>
    <g s:x="31" s:y="10" s:pid="Y"/>
  </g>
  <g s:type="constant" transform="translate(489,147)" s:width="30" s:height="20" id="cell_1">
    <text x="15" y="-4" class="nodelabel text-1 cell_1" s:attribute="ref">1</text>
    <s:alias val="$_constant_"/>
    <rect width="30" height="20" class="cell_1 fill-4"/>
    <g s:x="31" s:y="10" s:pid="Y"/>
  </g>
  <g s:type="join" transform="translate(701.3333333333334,136.5)" s:width="4" s:height="40" id="cell_$join$,28,44,">
    <rect width="5" height="40" class="splitjoinBody" s:generic="body"/>
    <s:alias val="$_join_"/>
    <g s:x="5" s:y="20" s:pid="out"/>
    <g transform="translate(0,10)" s:x="0" s:y="10" s:pid="in0">
      <text x="-3" y="-4" class="inputPortLabel text-2">0</text>
    </g>
    <g transform="translate(0,30)" s:x="0" s:y="10" s:pid="in0">
      <text x="-3" y="-4" class="inputPortLabel text-2">1</text>
    </g>
  </g>
  <g s:type="join" transform="translate(701.3333333333334,242.5)" s:width="4" s:height="40" id="cell_$join$,38,44,">
    <rect width="5" height="40" class="splitjoinBody" s:generic="body"/>
    <s:alias val="$_join_"/>
    <g s:x="5" s:y="20" s:pid="out"/>
    <g transform="translate(0,10)" s:x="0" s:y="10" s:pid="in0">
      <text x="-3" y="-4" class="inputPortLabel text-2">0</text>
    </g>
    <g transform="translate(0,30)" s:x="0" s:y="10" s:pid="in0">
      <text x="-3" y="-4" class="inputPortLabel text-2">1</text>
    </g>
  </g>
  <line x1="707.3333333333334" x2="756" y1="157" y2="157" class="net_28,44"/>
  <line x1="721" x2="731" y1="337.5" y2="337.5" class="net_45,46"/>
  <line x1="731" x2="731" y1="337.5" y2="177" class="net_45,46"/>
  <circle cx="731" cy="337.5" r="2" style="fill:#000" class="net_45,46"/>
  <line x1="731" x2="756" y1="177" y2="177" class="net_45,46"/>
  <line x1="721" x2="731" y1="337.5" y2="337.5" class="net_45,46"/>
  <line x1="731" x2="731" y1="337.5" y2="446.5" class="net_45,46"/>
  <line x1="731" x2="756" y1="446.5" y2="446.5" class="net_45,46"/>
  <line x1="721" x2="766" y1="406.5" y2="406.5" class="net_29"/>
  <line x1="766" x2="766" y1="406.5" y2="182" class="net_29"/>
  <line x1="42" x2="160" y1="32" y2="32" class="net_2,3,4,5,6"/>
  <line x1="160" x2="160" y1="32" y2="82" class="net_2,3,4,5,6"/>
  <circle cx="160" cy="32" r="2" style="fill:#000" class="net_2,3,4,5,6"/>
  <line x1="160" x2="208.66666666666666" y1="82" y2="82" class="net_2,3,4,5,6"/>
  <line x1="42" x2="464" y1="32" y2="32" class="net_2,3,4,5,6"/>
  <line x1="464" x2="464" y1="32" y2="399" class="net_2,3,4,5,6"/>
  <line x1="464" x2="514.6666666666667" y1="399" y2="399" class="net_2,3,4,5,6"/>
  <line x1="42" x2="208.66666666666666" y1="97" y2="97" class="net_18,19,20,21,22"/>
  <line x1="42" x2="170" y1="97" y2="97" class="net_18,19,20,21,22"/>
  <line x1="170" x2="170" y1="97" y2="279" class="net_18,19,20,21,22"/>
  <circle cx="170" cy="97" r="2" style="fill:#000" class="net_18,19,20,21,22"/>
  <circle cx="170" cy="279" r="2" style="fill:#000" class="net_18,19,20,21,22"/>
  <line x1="170" x2="369" y1="279" y2="279" class="net_18,19,20,21,22"/>
  <line x1="42" x2="170" y1="97" y2="97" class="net_18,19,20,21,22"/>
  <line x1="170" x2="170" y1="97" y2="346.5" class="net_18,19,20,21,22"/>
  <line x1="170" x2="208.66666666666666" y1="346.5" y2="346.5" class="net_18,19,20,21,22"/>
  <line x1="231.66666666666666" x2="348" y1="89.5" y2="89.5" class="net_30"/>
  <line x1="215" x2="285" y1="157" y2="157" class="net_23"/>
  <line x1="285" x2="285" y1="157" y2="104.5" class="net_23"/>
  <circle cx="285" cy="157" r="2" style="fill:#000" class="net_23"/>
  <line x1="285" x2="348" y1="104.5" y2="104.5" class="net_23"/>
  <line x1="215" x2="285" y1="157" y2="157" class="net_23"/>
  <line x1="285" x2="285" y1="157" y2="354" class="net_23"/>
  <line x1="285" x2="348" y1="354" y2="354" class="net_23"/>
  <line x1="397" x2="474" y1="286.5" y2="286.5" class="net_32"/>
  <line x1="474" x2="474" y1="286.5" y2="82" class="net_32"/>
  <circle cx="474" cy="286.5" r="2" style="fill:#000" class="net_32"/>
  <line x1="474" x2="511" y1="82" y2="82" class="net_32"/>
  <line x1="397" x2="511" y1="286.5" y2="286.5" class="net_32"/>
  <line x1="378" x2="511" y1="97" y2="97" class="net_31"/>
  <line x1="520" x2="605" y1="222" y2="222" class="net_44"/>
  <line x1="605" x2="605" y1="222" y2="137" class="net_44"/>
  <circle cx="605" cy="222" r="2" style="fill:#000" class="net_44"/>
  <line x1="605" x2="628.3333333333334" y1="137" y2="137" class="net_44"/>
  <line x1="520" x2="605" y1="222" y2="222" class="net_44"/>
  <line x1="605" x2="605" y1="222" y2="243" class="net_44"/>
  <circle cx="605" cy="243" r="2" style="fill:#000" class="net_44"/>
  <line x1="605" x2="628.3333333333334" y1="243" y2="243" class="net_44"/>
  <line x1="520" x2="665" y1="222" y2="222" class="net_44"/>
  <line x1="665" x2="665" y1="222" y2="167" class="net_44"/>
  <line x1="665" x2="701.3333333333334" y1="167" y2="167" class="net_44"/>
  <line x1="520" x2="605" y1="222" y2="222" class="net_44"/>
  <line x1="605" x2="605" y1="222" y2="283" class="net_44"/>
  <line x1="605" x2="665" y1="283" y2="283" class="net_44"/>
  <line x1="665" x2="665" y1="283" y2="273" class="net_44"/>
  <line x1="665" x2="701.3333333333334" y1="273" y2="273" class="net_44"/>
  <line x1="520" x2="628.3333333333334" y1="157" y2="157" class="net_48"/>
  <line x1="520" x2="595" y1="157" y2="157" class="net_48"/>
  <line x1="595" x2="595" y1="157" y2="263" class="net_48"/>
  <circle cx="595" cy="157" r="2" style="fill:#000" class="net_48"/>
  <line x1="595" x2="628.3333333333334" y1="263" y2="263" class="net_48"/>
  <line x1="541" x2="615" y1="89.5" y2="89.5" class="net_33"/>
  <line x1="615" x2="615" y1="89.5" y2="177" class="net_33"/>
  <line x1="615" x2="638.3333333333334" y1="177" y2="177" class="net_33"/>
  <line x1="638.3333333333334" x2="638.3333333333334" y1="177" y2="162" class="net_33"/>
  <line x1="42" x2="160" y1="331.5" y2="331.5" class="net_7,8,9,10,11"/>
  <line x1="160" x2="160" y1="331.5" y2="546.5" class="net_7,8,9,10,11"/>
  <circle cx="160" cy="331.5" r="2" style="fill:#000" class="net_7,8,9,10,11"/>
  <line x1="160" x2="514.6666666666667" y1="546.5" y2="546.5" class="net_7,8,9,10,11"/>
  <line x1="42" x2="208.66666666666666" y1="331.5" y2="331.5" class="net_7,8,9,10,11"/>
  <line x1="340" x2="464" y1="414" y2="414" class="net_12,13,14,15,16"/>
  <line x1="464" x2="464" y1="414" y2="561.5" class="net_12,13,14,15,16"/>
  <circle cx="464" cy="414" r="2" style="fill:#000" class="net_12,13,14,15,16"/>
  <line x1="464" x2="514.6666666666667" y1="561.5" y2="561.5" class="net_12,13,14,15,16"/>
  <line x1="340" x2="464" y1="414" y2="414" class="net_12,13,14,15,16"/>
  <line x1="464" x2="464" y1="414" y2="494" class="net_12,13,14,15,16"/>
  <circle cx="464" cy="494" r="2" style="fill:#000" class="net_12,13,14,15,16"/>
  <line x1="464" x2="627" y1="494" y2="494" class="net_12,13,14,15,16"/>
  <line x1="340" x2="514.6666666666667" y1="414" y2="414" class="net_12,13,14,15,16"/>
  <line x1="537.6666666666667" x2="625" y1="554" y2="554" class="net_34"/>
  <line x1="519" x2="595" y1="474" y2="474" class="net_17"/>
  <line x1="595" x2="595" y1="474" y2="569" class="net_17"/>
  <circle cx="595" cy="474" r="2" style="fill:#000" class="net_17"/>
  <line x1="595" x2="625" y1="569" y2="569" class="net_17"/>
  <line x1="519" x2="595" y1="474" y2="474" class="net_17"/>
  <line x1="595" x2="595" y1="474" y2="421.5" class="net_17"/>
  <line x1="595" x2="625" y1="421.5" y2="421.5" class="net_17"/>
  <line x1="655" x2="691" y1="501.5" y2="501.5" class="net_36"/>
  <line x1="655" x2="665" y1="501.5" y2="501.5" class="net_36"/>
  <line x1="665" x2="665" y1="501.5" y2="399" class="net_36"/>
  <circle cx="665" cy="501.5" r="2" style="fill:#000" class="net_36"/>
  <line x1="665" x2="691" y1="399" y2="399" class="net_36"/>
  <line x1="655" x2="665" y1="561.5" y2="561.5" class="net_35"/>
  <line x1="665" x2="665" y1="561.5" y2="516.5" class="net_35"/>
  <line x1="665" x2="691" y1="516.5" y2="516.5" class="net_35"/>
  <line x1="707.3333333333334" x2="741" y1="263" y2="263" class="net_38,44"/>
  <line x1="741" x2="741" y1="263" y2="426.5" class="net_38,44"/>
  <line x1="741" x2="756" y1="426.5" y2="426.5" class="net_38,44"/>
  <line x1="721" x2="766" y1="509" y2="509" class="net_37"/>
  <line x1="766" x2="766" y1="509" y2="451.5" class="net_37"/>
  <line x1="231.66666666666666" x2="348" y1="339" y2="339" class="net_39"/>
  <line x1="378" x2="474" y1="346.5" y2="346.5" class="net_40"/>
  <line x1="474" x2="474" y1="346.5" y2="301.5" class="net_40"/>
  <line x1="474" x2="511" y1="301.5" y2="301.5" class="net_40"/>
  <line x1="541" x2="638.3333333333334" y1="294" y2="294" class="net_41"/>
  <line x1="638.3333333333334" x2="638.3333333333334" y1="294" y2="268" class="net_41"/>
  <line x1="537.6666666666667" x2="625" y1="406.5" y2="406.5" class="net_42"/>
  <line x1="655" x2="691" y1="414" y2="414" class="net_43"/>
  <line x1="776" x2="811" y1="167" y2="167" class="net_24,25"/>
  <line x1="776" x2="811" y1="436.5" y2="436.5" class="net_26,27"/>
  <line x1="648.3333333333334" x2="701.3333333333334" y1="147" y2="147" class="net_28"/>
  <line x1="648.3333333333334" x2="701.3333333333334" y1="253" y2="253" class="net_38"/>
</svg>
