<svg xmlns="http://www.w3.org/2000/svg" xmlns:xlink="http://www.w3.org/1999/xlink" xmlns:s="https://github.com/nturley/netlistsvg" width="743" height="548">
  <style>  svg {
      stroke: #011e41;
      fill: none;
    }
    text {
      fill:#ffffff;
      stroke:none;
      font-size:10px;
      font-weight: bold;
      font-family: "Courier New", monospace;
    }
    .fill-1 { fill: #003262; }
    .fill-2 { fill: #011e41; stroke: #003262; }
    .fill-3 { fill: #ffffff; }
    .fill-4 { fill: #003262; }
    .fill-5 { fill: #011e41; stroke: #fdda64; }
    .text-1 { fill: #fdb515; }
    .text-2 { fill: #003262; }
    .text-3 { stroke: #fdda64; }
    .nodelabel { text-anchor: middle; }
    .inputPortLabel { text-anchor: end; }
    .splitjoinBody { fill: #3c3c43; }</style>
  <g s:type="mux" transform="translate(601.3333333333334,385)" s:width="20" s:height="40" id="cell_\10">
    <s:alias val="$pmux"/>
    <s:alias val="$mux"/>
    <s:alias val="$_MUX_"/>
    <path d="M0,0 L20,10 L20,30 L0,40 Z" class="cell_\10 fill-1"/>
    <text x="5" y="32" class="nodelabel cell_\10" s:attribute="">1</text>
    <text x="5" y="13" class="nodelabel cell_\10" s:attribute="">0</text>
    <g s:x="0" s:y="10" s:pid="A"/>
    <g s:x="0" s:y="30" s:pid="B"/>
    <g s:x="10" s:y="35" s:pid="S"/>
    <g s:x="20" s:y="20" s:pid="Y"/>
  </g>
  <g s:type="or" transform="translate(464,426)" s:width="30" s:height="25" id="cell_\11">
    <s:alias val="$or"/>
    <s:alias val="$logic_or"/>
    <s:alias val="$_OR_"/>
    <s:alias val="$reduce_or"/>
    <s:alias val="$reduce_bool"/>
    <path d="M0,0 A30 25 0 0 1 0,25 A30 25 0 0 0 30,12.5 A30 25 0 0 0 0,0" class="cell_\11 fill-1"/>
    <g s:x="2" s:y="5" s:pid="A"/>
    <g s:x="2" s:y="20" s:pid="B"/>
    <g s:x="30" s:y="12.5" s:pid="Y"/>
  </g>
  <g s:type="eq" transform="translate(465.6666666666667,486)" s:width="25" s:height="25" id="cell_\13">
    <s:alias val="$eq"/>
    <s:alias val="$eqx"/>
    <circle r="12.5" cx="12.5" cy="12.5" class="cell_\13 fill-1"/>
    <line x1="7.5" x2="17.5" y1="10" y2="10" class="cell_\13 text-3"/>
    <line x1="7.5" x2="17.5" y1="15" y2="15" class="cell_\13 text-3"/>
    <g s:x="2" s:y="5" s:pid="A"/>
    <g s:x="2" s:y="20" s:pid="B"/>
    <g s:x="25" s:y="12.5" s:pid="Y"/>
  </g>
  <g s:type="mux" transform="translate(533.6666666666666,148)" s:width="20" s:height="40" id="cell_\14">
    <s:alias val="$pmux"/>
    <s:alias val="$mux"/>
    <s:alias val="$_MUX_"/>
    <path d="M0,0 L20,10 L20,30 L0,40 Z" class="cell_\14 fill-1"/>
    <text x="5" y="32" class="nodelabel cell_\14" s:attribute="">1</text>
    <text x="5" y="13" class="nodelabel cell_\14" s:attribute="">0</text>
    <g s:x="0" s:y="10" s:pid="A"/>
    <g s:x="0" s:y="30" s:pid="B"/>
    <g s:x="10" s:y="35" s:pid="S"/>
    <g s:x="20" s:y="20" s:pid="Y"/>
  </g>
  <g s:type="eq" transform="translate(400,391)" s:width="25" s:height="25" id="cell_\16">
    <s:alias val="$eq"/>
    <s:alias val="$eqx"/>
    <circle r="12.5" cx="12.5" cy="12.5" class="cell_\16 fill-1"/>
    <line x1="7.5" x2="17.5" y1="10" y2="10" class="cell_\16 text-3"/>
    <line x1="7.5" x2="17.5" y1="15" y2="15" class="cell_\16 text-3"/>
    <g s:x="2" s:y="5" s:pid="A"/>
    <g s:x="2" s:y="20" s:pid="B"/>
    <g s:x="25" s:y="12.5" s:pid="Y"/>
  </g>
  <g s:type="mux" transform="translate(467.3333333333333,138)" s:width="20" s:height="40" id="cell_\17">
    <s:alias val="$pmux"/>
    <s:alias val="$mux"/>
    <s:alias val="$_MUX_"/>
    <path d="M0,0 L20,10 L20,30 L0,40 Z" class="cell_\17 fill-1"/>
    <text x="5" y="32" class="nodelabel cell_\17" s:attribute="">1</text>
    <text x="5" y="13" class="nodelabel cell_\17" s:attribute="">0</text>
    <g s:x="0" s:y="10" s:pid="A"/>
    <g s:x="0" s:y="30" s:pid="B"/>
    <g s:x="10" s:y="35" s:pid="S"/>
    <g s:x="20" s:y="20" s:pid="Y"/>
  </g>
  <g s:type="eq" transform="translate(332.6666666666667,179)" s:width="25" s:height="25" id="cell_\19">
    <s:alias val="$eq"/>
    <s:alias val="$eqx"/>
    <circle r="12.5" cx="12.5" cy="12.5" class="cell_\19 fill-1"/>
    <line x1="7.5" x2="17.5" y1="10" y2="10" class="cell_\19 text-3"/>
    <line x1="7.5" x2="17.5" y1="15" y2="15" class="cell_\19 text-3"/>
    <g s:x="2" s:y="5" s:pid="A"/>
    <g s:x="2" s:y="20" s:pid="B"/>
    <g s:x="25" s:y="12.5" s:pid="Y"/>
  </g>
  <g s:type="mux" transform="translate(401.6666666666667,109)" s:width="20" s:height="40" id="cell_\20">
    <s:alias val="$pmux"/>
    <s:alias val="$mux"/>
    <s:alias val="$_MUX_"/>
    <path d="M0,0 L20,10 L20,30 L0,40 Z" class="cell_\20 fill-1"/>
    <text x="5" y="32" class="nodelabel cell_\20" s:attribute="">1</text>
    <text x="5" y="13" class="nodelabel cell_\20" s:attribute="">0</text>
    <g s:x="0" s:y="10" s:pid="A"/>
    <g s:x="0" s:y="30" s:pid="B"/>
    <g s:x="10" s:y="35" s:pid="S"/>
    <g s:x="20" s:y="20" s:pid="Y"/>
  </g>
  <g s:type="and" transform="translate(398.3333333333333,329)" s:width="30" s:height="25" id="cell_\21">
    <s:alias val="$and"/>
    <s:alias val="$logic_and"/>
    <s:alias val="$_AND_"/>
    <s:alias val="$reduce_and"/>
    <path d="M0,0 L0,25 L15,25 A15 12.5 0 0 0 15,0 Z" class="cell_\21 fill-1"/>
    <g s:x="0" s:y="5" s:pid="A"/>
    <g s:x="0" s:y="20" s:pid="B"/>
    <g s:x="30" s:y="12.5" s:pid="Y"/>
  </g>
  <g s:type="and" transform="translate(398.3333333333333,30.5)" s:width="30" s:height="25" id="cell_\22">
    <s:alias val="$and"/>
    <s:alias val="$logic_and"/>
    <s:alias val="$_AND_"/>
    <s:alias val="$reduce_and"/>
    <path d="M0,0 L0,25 L15,25 A15 12.5 0 0 0 15,0 Z" class="cell_\22 fill-1"/>
    <g s:x="0" s:y="5" s:pid="A"/>
    <g s:x="0" s:y="20" s:pid="B"/>
    <g s:x="30" s:y="12.5" s:pid="Y"/>
  </g>
  <g s:type="or" transform="translate(464,23)" s:width="30" s:height="25" id="cell_\23">
    <s:alias val="$or"/>
    <s:alias val="$logic_or"/>
    <s:alias val="$_OR_"/>
    <s:alias val="$reduce_or"/>
    <s:alias val="$reduce_bool"/>
    <path d="M0,0 A30 25 0 0 1 0,25 A30 25 0 0 0 30,12.5 A30 25 0 0 0 0,0" class="cell_\23 fill-1"/>
    <g s:x="2" s:y="5" s:pid="A"/>
    <g s:x="2" s:y="20" s:pid="B"/>
    <g s:x="30" s:y="12.5" s:pid="Y"/>
  </g>
  <g s:type="reduce_xor" transform="translate(529,30.5)" s:width="33" s:height="25" id="cell_\24">
    <s:alias val="$xor"/>
    <s:alias val="$reduce_xor"/>
    <s:alias val="$_XOR_"/>
    <path d="M3,0 A30 25 0 0 1 3,25 A30 25 0 0 0 33,12.5 A30 25 0 0 0 3,0" class="cell_\24 fill-1"/>
    <path d="M0,0 A30 25 0 0 1 0,25" class="cell_\24"/>
    <g s:x="2" s:y="5" s:pid="A"/>
    <g s:x="2" s:y="20" s:pid="B"/>
    <g s:x="33" s:y="12.5" s:pid="Y"/>
  </g>
  <g s:type="reduce_xor" transform="translate(597,59.5)" s:width="33" s:height="25" id="cell_\25">
    <s:alias val="$xor"/>
    <s:alias val="$reduce_xor"/>
    <s:alias val="$_XOR_"/>
    <path d="M3,0 A30 25 0 0 1 3,25 A30 25 0 0 0 33,12.5 A30 25 0 0 0 3,0" class="cell_\25 fill-1"/>
    <path d="M0,0 A30 25 0 0 1 0,25" class="cell_\25"/>
    <g s:x="2" s:y="5" s:pid="A"/>
    <g s:x="2" s:y="20" s:pid="B"/>
    <g s:x="33" s:y="12.5" s:pid="Y"/>
  </g>
  <g s:type="reduce_xor" transform="translate(137,206.5)" s:width="33" s:height="25" id="cell_\3">
    <s:alias val="$xor"/>
    <s:alias val="$reduce_xor"/>
    <s:alias val="$_XOR_"/>
    <path d="M3,0 A30 25 0 0 1 3,25 A30 25 0 0 0 33,12.5 A30 25 0 0 0 3,0" class="cell_\3 fill-1"/>
    <path d="M0,0 A30 25 0 0 1 0,25" class="cell_\3"/>
    <g s:x="2" s:y="5" s:pid="A"/>
    <g s:x="2" s:y="20" s:pid="B"/>
    <g s:x="33" s:y="12.5" s:pid="Y"/>
  </g>
  <g s:type="reduce_xor" transform="translate(137,336.5)" s:width="33" s:height="25" id="cell_\4">
    <s:alias val="$xor"/>
    <s:alias val="$reduce_xor"/>
    <s:alias val="$_XOR_"/>
    <path d="M3,0 A30 25 0 0 1 3,25 A30 25 0 0 0 33,12.5 A30 25 0 0 0 3,0" class="cell_\4 fill-1"/>
    <path d="M0,0 A30 25 0 0 1 0,25" class="cell_\4"/>
    <g s:x="2" s:y="5" s:pid="A"/>
    <g s:x="2" s:y="20" s:pid="B"/>
    <g s:x="33" s:y="12.5" s:pid="Y"/>
  </g>
  <g s:type="reduce_xor" transform="translate(224,119)" s:width="33" s:height="25" id="cell_\5">
    <s:alias val="$xor"/>
    <s:alias val="$reduce_xor"/>
    <s:alias val="$_XOR_"/>
    <path d="M3,0 A30 25 0 0 1 3,25 A30 25 0 0 0 33,12.5 A30 25 0 0 0 3,0" class="cell_\5 fill-1"/>
    <path d="M0,0 A30 25 0 0 1 0,25" class="cell_\5"/>
    <g s:x="2" s:y="5" s:pid="A"/>
    <g s:x="2" s:y="20" s:pid="B"/>
    <g s:x="33" s:y="12.5" s:pid="Y"/>
  </g>
  <g s:type="reduce_xor" transform="translate(330,126.5)" s:width="33" s:height="25" id="cell_\6">
    <s:alias val="$xor"/>
    <s:alias val="$reduce_xor"/>
    <s:alias val="$_XOR_"/>
    <path d="M3,0 A30 25 0 0 1 3,25 A30 25 0 0 0 33,12.5 A30 25 0 0 0 3,0" class="cell_\6 fill-1"/>
    <path d="M0,0 A30 25 0 0 1 0,25" class="cell_\6"/>
    <g s:x="2" s:y="5" s:pid="A"/>
    <g s:x="2" s:y="20" s:pid="B"/>
    <g s:x="33" s:y="12.5" s:pid="Y"/>
  </g>
  <g s:type="not" transform="translate(530.5,516)" s:width="30" s:height="20" id="cell_\9">
    <s:alias val="$_NOT_"/>
    <s:alias val="$not"/>
    <s:alias val="$logic_not"/>
    <path d="M0,0 L0,20 L20,10 Z" class="cell_\9 fill-1"/>
    <circle cx="24" cy="10" r="3" class="cell_\9 fill-3"/>
    <g s:x="-1" s:y="10" s:pid="A"/>
    <g s:x="27" s:y="10" s:pid="Y"/>
  </g>
  <g s:type="inputExt" transform="translate(12,216.5)" s:width="30" s:height="20" id="cell_invert_source_1">
    <text x="15" y="-4" class="nodelabel text-1 cell_invert_source_1" s:attribute="ref">invert_source_1</text>
    <s:alias val="$_inputExt_"/>
    <path d="M0,0 L0,20 L15,20 L30,10 L15,0 Z" class="cell_invert_source_1 fill-4"/>
    <g s:x="30" s:y="10" s:pid="Y"/>
  </g>
  <g s:type="inputExt" transform="translate(12,346.5)" s:width="30" s:height="20" id="cell_invert_source_2">
    <text x="15" y="-4" class="nodelabel text-1 cell_invert_source_2" s:attribute="ref">invert_source_2</text>
    <s:alias val="$_inputExt_"/>
    <path d="M0,0 L0,20 L15,20 L30,10 L15,0 Z" class="cell_invert_source_2 fill-4"/>
    <g s:x="30" s:y="10" s:pid="Y"/>
  </g>
  <g s:type="inputExt" transform="translate(205,370)" s:width="30" s:height="20" id="cell_select_function">
    <text x="15" y="-4" class="nodelabel text-1 cell_select_function" s:attribute="ref">select_function</text>
    <s:alias val="$_inputExt_"/>
    <path d="M0,0 L0,20 L15,20 L30,10 L15,0 Z" class="cell_select_function fill-4"/>
    <g s:x="30" s:y="10" s:pid="Y"/>
  </g>
  <g s:type="inputExt" transform="translate(205,40.5)" s:width="30" s:height="20" id="cell_carry_in">
    <text x="15" y="-4" class="nodelabel text-1 cell_carry_in" s:attribute="ref">carry_in</text>
    <s:alias val="$_inputExt_"/>
    <path d="M0,0 L0,20 L15,20 L30,10 L15,0 Z" class="cell_carry_in fill-4"/>
    <g s:x="30" s:y="10" s:pid="Y"/>
  </g>
  <g s:type="inputExt" transform="translate(332,71.5)" s:width="30" s:height="20" id="cell_slt">
    <text x="15" y="-4" class="nodelabel text-1 cell_slt" s:attribute="ref">slt</text>
    <s:alias val="$_inputExt_"/>
    <path d="M0,0 L0,20 L15,20 L30,10 L15,0 Z" class="cell_slt fill-4"/>
    <g s:x="30" s:y="10" s:pid="Y"/>
  </g>
  <g s:type="inputExt" transform="translate(12,151.5)" s:width="30" s:height="20" id="cell_source_1">
    <text x="15" y="-4" class="nodelabel text-1 cell_source_1" s:attribute="ref">source_1</text>
    <s:alias val="$_inputExt_"/>
    <path d="M0,0 L0,20 L15,20 L30,10 L15,0 Z" class="cell_source_1 fill-4"/>
    <g s:x="30" s:y="10" s:pid="Y"/>
  </g>
  <g s:type="inputExt" transform="translate(12,281.5)" s:width="30" s:height="20" id="cell_source_2">
    <text x="15" y="-4" class="nodelabel text-1 cell_source_2" s:attribute="ref">source_2</text>
    <s:alias val="$_inputExt_"/>
    <path d="M0,0 L0,20 L15,20 L30,10 L15,0 Z" class="cell_source_2 fill-4"/>
    <g s:x="30" s:y="10" s:pid="Y"/>
  </g>
  <g s:type="outputExt" transform="translate(665,395)" s:width="30" s:height="20" id="cell_destination">
    <text x="15" y="-4" class="nodelabel text-1 cell_destination" s:attribute="ref">destination</text>
    <s:alias val="$_outputExt_"/>
    <path d="M30,0 L30,20 L15,20 L0,10 L15,0 Z" class="cell_destination fill-4"/>
    <g s:x="0" s:y="10" s:pid="A"/>
  </g>
  <g s:type="outputExt" transform="translate(665,127)" s:width="30" s:height="20" id="cell_carry_out">
    <text x="15" y="-4" class="nodelabel text-1 cell_carry_out" s:attribute="ref">carry_out</text>
    <s:alias val="$_outputExt_"/>
    <path d="M30,0 L30,20 L15,20 L0,10 L15,0 Z" class="cell_carry_out fill-4"/>
    <g s:x="0" s:y="10" s:pid="A"/>
  </g>
  <g s:type="outputExt" transform="translate(665,62)" s:width="30" s:height="20" id="cell_overflow">
    <text x="15" y="-4" class="nodelabel text-1 cell_overflow" s:attribute="ref">overflow</text>
    <s:alias val="$_outputExt_"/>
    <path d="M30,0 L30,20 L15,20 L0,10 L15,0 Z" class="cell_overflow fill-4"/>
    <g s:x="0" s:y="10" s:pid="A"/>
  </g>
  <g s:type="constant" transform="translate(398,496)" s:width="30" s:height="20" id="cell_1">
    <text x="15" y="-4" class="nodelabel text-1 cell_1" s:attribute="ref">1</text>
    <s:alias val="$_constant_"/>
    <rect width="30" height="20" class="cell_1 fill-4"/>
    <g s:x="31" s:y="10" s:pid="Y"/>
  </g>
  <g s:type="constant" transform="translate(332,401)" s:width="30" s:height="20" id="cell_10">
    <text x="15" y="-4" class="nodelabel text-1 cell_10" s:attribute="ref">10</text>
    <s:alias val="$_constant_"/>
    <rect width="30" height="20" class="cell_10 fill-4"/>
    <g s:x="31" s:y="10" s:pid="Y"/>
  </g>
  <g s:type="constant" transform="translate(205,189)" s:width="30" s:height="20" id="cell_11">
    <text x="15" y="-4" class="nodelabel text-1 cell_11" s:attribute="ref">11</text>
    <s:alias val="$_constant_"/>
    <rect width="30" height="20" class="cell_11 fill-4"/>
    <g s:x="31" s:y="10" s:pid="Y"/>
  </g>
  <line x1="553.6666666666666" x2="572" y1="168" y2="168" class="net_14"/>
  <line x1="572" x2="572" y1="168" y2="395" class="net_14"/>
  <line x1="572" x2="601.3333333333334" y1="395" y2="395" class="net_14"/>
  <line x1="428.3333333333333" x2="439" y1="341.5" y2="341.5" class="net_15"/>
  <line x1="439" x2="439" y1="341.5" y2="415" class="net_15"/>
  <circle cx="439" cy="341.5" r="2" style="fill:#000" class="net_15"/>
  <line x1="439" x2="601.3333333333334" y1="415" y2="415" class="net_15"/>
  <line x1="428.3333333333333" x2="439" y1="341.5" y2="341.5" class="net_15"/>
  <line x1="439" x2="439" y1="341.5" y2="28" class="net_15"/>
  <line x1="439" x2="466" y1="28" y2="28" class="net_15"/>
  <line x1="557.5" x2="611.3333333333334" y1="526" y2="526" class="net_16"/>
  <line x1="611.3333333333334" x2="611.3333333333334" y1="526" y2="420" class="net_16"/>
  <line x1="170" x2="190" y1="219" y2="219" class="net_17"/>
  <line x1="190" x2="190" y1="219" y2="431" class="net_17"/>
  <circle cx="190" cy="219" r="2" style="fill:#000" class="net_17"/>
  <line x1="190" x2="466" y1="431" y2="431" class="net_17"/>
  <line x1="170" x2="373" y1="219" y2="219" class="net_17"/>
  <line x1="373" x2="373" y1="219" y2="334" class="net_17"/>
  <line x1="373" x2="398.3333333333333" y1="334" y2="334" class="net_17"/>
  <line x1="170" x2="190" y1="219" y2="219" class="net_17"/>
  <line x1="190" x2="190" y1="219" y2="124" class="net_17"/>
  <line x1="190" x2="226" y1="124" y2="124" class="net_17"/>
  <line x1="170" x2="180" y1="349" y2="349" class="net_18"/>
  <line x1="180" x2="180" y1="349" y2="446" class="net_18"/>
  <circle cx="180" cy="349" r="2" style="fill:#000" class="net_18"/>
  <line x1="180" x2="466" y1="446" y2="446" class="net_18"/>
  <line x1="170" x2="398.3333333333333" y1="349" y2="349" class="net_18"/>
  <line x1="170" x2="180" y1="349" y2="349" class="net_18"/>
  <line x1="180" x2="180" y1="349" y2="139" class="net_18"/>
  <line x1="180" x2="226" y1="139" y2="139" class="net_18"/>
  <line x1="235" x2="305" y1="380" y2="380" class="net_4,5,6"/>
  <line x1="305" x2="305" y1="380" y2="526" class="net_4,5,6"/>
  <line x1="305" x2="373" y1="526" y2="526" class="net_4,5,6"/>
  <line x1="373" x2="373" y1="526" y2="475" class="net_4,5,6"/>
  <line x1="373" x2="439" y1="475" y2="475" class="net_4,5,6"/>
  <line x1="439" x2="439" y1="475" y2="491" class="net_4,5,6"/>
  <circle cx="305" cy="380" r="2" style="fill:#000" class="net_4,5,6"/>
  <circle cx="373" cy="526" r="2" style="fill:#000" class="net_4,5,6"/>
  <line x1="439" x2="467.6666666666667" y1="491" y2="491" class="net_4,5,6"/>
  <line x1="235" x2="373" y1="380" y2="380" class="net_4,5,6"/>
  <line x1="373" x2="373" y1="380" y2="396" class="net_4,5,6"/>
  <line x1="373" x2="402" y1="396" y2="396" class="net_4,5,6"/>
  <line x1="235" x2="305" y1="380" y2="380" class="net_4,5,6"/>
  <line x1="305" x2="305" y1="380" y2="184" class="net_4,5,6"/>
  <line x1="305" x2="334.6666666666667" y1="184" y2="184" class="net_4,5,6"/>
  <line x1="235" x2="305" y1="380" y2="380" class="net_4,5,6"/>
  <line x1="305" x2="305" y1="380" y2="526" class="net_4,5,6"/>
  <line x1="305" x2="529.5" y1="526" y2="526" class="net_4,5,6"/>
  <line x1="429" x2="467.6666666666667" y1="506" y2="506" class="net_29"/>
  <line x1="487.3333333333333" x2="533.6666666666666" y1="158" y2="158" class="net_21"/>
  <line x1="494" x2="504" y1="438.5" y2="438.5" class="net_19"/>
  <line x1="504" x2="504" y1="438.5" y2="178" class="net_19"/>
  <line x1="504" x2="533.6666666666666" y1="178" y2="178" class="net_19"/>
  <line x1="490.6666666666667" x2="543.6666666666666" y1="498.5" y2="498.5" class="net_20"/>
  <line x1="543.6666666666666" x2="543.6666666666666" y1="498.5" y2="183" class="net_20"/>
  <line x1="363" x2="402" y1="411" y2="411" class="net_30,31"/>
  <line x1="421.6666666666667" x2="449" y1="129" y2="129" class="net_23"/>
  <line x1="449" x2="449" y1="129" y2="148" class="net_23"/>
  <line x1="449" x2="467.3333333333333" y1="148" y2="148" class="net_23"/>
  <line x1="257" x2="305" y1="131.5" y2="131.5" class="net_24"/>
  <line x1="305" x2="305" y1="131.5" y2="168" class="net_24"/>
  <circle cx="305" cy="131.5" r="2" style="fill:#000" class="net_24"/>
  <line x1="305" x2="467.3333333333333" y1="168" y2="168" class="net_24"/>
  <line x1="257" x2="305" y1="131.5" y2="131.5" class="net_24"/>
  <line x1="305" x2="305" y1="131.5" y2="35.5" class="net_24"/>
  <line x1="305" x2="398.3333333333333" y1="35.5" y2="35.5" class="net_24"/>
  <line x1="257" x2="332" y1="131.5" y2="131.5" class="net_24"/>
  <line x1="425" x2="477.3333333333333" y1="403.5" y2="403.5" class="net_22"/>
  <line x1="477.3333333333333" x2="477.3333333333333" y1="403.5" y2="173" class="net_22"/>
  <line x1="236" x2="334.6666666666667" y1="199" y2="199" class="net_32,33"/>
  <line x1="362" x2="383" y1="81.5" y2="81.5" class="net_8"/>
  <line x1="383" x2="383" y1="81.5" y2="119" class="net_8"/>
  <line x1="383" x2="401.6666666666667" y1="119" y2="119" class="net_8"/>
  <line x1="363" x2="401.6666666666667" y1="139" y2="139" class="net_26"/>
  <line x1="363" x2="373" y1="139" y2="139" class="net_26"/>
  <line x1="373" x2="373" y1="139" y2="79.5" class="net_26"/>
  <circle cx="373" cy="139" r="2" style="fill:#000" class="net_26"/>
  <line x1="373" x2="599" y1="79.5" y2="79.5" class="net_26"/>
  <line x1="357.6666666666667" x2="411.6666666666667" y1="191.5" y2="191.5" class="net_25"/>
  <line x1="411.6666666666667" x2="411.6666666666667" y1="191.5" y2="144" class="net_25"/>
  <line x1="235" x2="398.3333333333333" y1="50.5" y2="50.5" class="net_7"/>
  <line x1="235" x2="315" y1="50.5" y2="50.5" class="net_7"/>
  <line x1="315" x2="315" y1="50.5" y2="12" class="net_7"/>
  <line x1="315" x2="514" y1="12" y2="12" class="net_7"/>
  <line x1="514" x2="514" y1="12" y2="50.5" class="net_7"/>
  <circle cx="315" cy="50.5" r="2" style="fill:#000" class="net_7"/>
  <line x1="514" x2="531" y1="50.5" y2="50.5" class="net_7"/>
  <line x1="235" x2="315" y1="50.5" y2="50.5" class="net_7"/>
  <line x1="315" x2="315" y1="50.5" y2="146.5" class="net_7"/>
  <line x1="315" x2="332" y1="146.5" y2="146.5" class="net_7"/>
  <line x1="428.3333333333333" x2="466" y1="43" y2="43" class="net_27"/>
  <line x1="494" x2="531" y1="35.5" y2="35.5" class="net_12"/>
  <line x1="494" x2="504" y1="35.5" y2="35.5" class="net_12"/>
  <line x1="504" x2="504" y1="35.5" y2="137" class="net_12"/>
  <circle cx="504" cy="35.5" r="2" style="fill:#000" class="net_12"/>
  <line x1="504" x2="665" y1="137" y2="137" class="net_12"/>
  <line x1="562" x2="572" y1="43" y2="43" class="net_28"/>
  <line x1="572" x2="572" y1="43" y2="64.5" class="net_28"/>
  <line x1="572" x2="599" y1="64.5" y2="64.5" class="net_28"/>
  <line x1="42" x2="112" y1="161.5" y2="161.5" class="net_9"/>
  <line x1="112" x2="112" y1="161.5" y2="211.5" class="net_9"/>
  <line x1="112" x2="139" y1="211.5" y2="211.5" class="net_9"/>
  <line x1="42" x2="139" y1="226.5" y2="226.5" class="net_2"/>
  <line x1="42" x2="112" y1="291.5" y2="291.5" class="net_10"/>
  <line x1="112" x2="112" y1="291.5" y2="341.5" class="net_10"/>
  <line x1="112" x2="139" y1="341.5" y2="341.5" class="net_10"/>
  <line x1="42" x2="139" y1="356.5" y2="356.5" class="net_3"/>
  <line x1="621.3333333333334" x2="665" y1="405" y2="405" class="net_11"/>
  <line x1="630" x2="665" y1="72" y2="72" class="net_13"/>
</svg>
