<svg xmlns="http://www.w3.org/2000/svg" xmlns:xlink="http://www.w3.org/1999/xlink" xmlns:s="https://github.com/nturley/netlistsvg" width="794" height="561.5">
  <style>  svg {
      stroke: #011e41;
      fill: none;
    }
    text {
      fill:#ffffff;
      stroke:none;
      font-size:10px;
      font-weight: bold;
      font-family: "Courier New", monospace;
    }
    .fill-1 { fill: #003262; }
    .fill-2 { fill: #011e41; stroke: #003262; }
    .fill-3 { fill: #ffffff; }
    .fill-4 { fill: #003262; }
    .fill-5 { fill: #011e41; stroke: #fdda64; }
    .text-1 { fill: #fdb515; }
    .text-2 { fill: #003262; }
    .text-3 { stroke: #fdda64; }
    .nodelabel { text-anchor: middle; }
    .inputPortLabel { text-anchor: end; }
    .splitjoinBody { fill: #3c3c43; }</style>
  <g s:type="mux" transform="translate(352.33333333333337,59.5)" s:width="20" s:height="40" id="cell_\15">
    <s:alias val="$pmux"/>
    <s:alias val="$mux"/>
    <s:alias val="$_MUX_"/>
    <path d="M0,0 L20,10 L20,30 L0,40 Z" class="cell_\15 fill-1"/>
    <text x="5" y="32" class="nodelabel cell_\15" s:attribute="">1</text>
    <text x="5" y="13" class="nodelabel cell_\15" s:attribute="">0</text>
    <g s:x="0" s:y="10" s:pid="A"/>
    <g s:x="0" s:y="30" s:pid="B"/>
    <g s:x="10" s:y="35" s:pid="S"/>
    <g s:x="20" s:y="20" s:pid="Y"/>
  </g>
  <g s:type="mux" transform="translate(421.3333333333333,69.5)" s:width="20" s:height="40" id="cell_\16">
    <s:alias val="$pmux"/>
    <s:alias val="$mux"/>
    <s:alias val="$_MUX_"/>
    <path d="M0,0 L20,10 L20,30 L0,40 Z" class="cell_\16 fill-1"/>
    <text x="5" y="32" class="nodelabel cell_\16" s:attribute="">1</text>
    <text x="5" y="13" class="nodelabel cell_\16" s:attribute="">0</text>
    <g s:x="0" s:y="10" s:pid="A"/>
    <g s:x="0" s:y="30" s:pid="B"/>
    <g s:x="10" s:y="35" s:pid="S"/>
    <g s:x="20" s:y="20" s:pid="Y"/>
  </g>
  <g s:type="dff" transform="translate(484,79.5)" s:width="30" s:height="40" id="cell_\29">
    <s:alias val="$dff"/>
    <s:alias val="$_DFF_"/>
    <s:alias val="$_DFF_P_"/>
    <s:alias val="$adff"/>
    <s:alias val="$_DFF_"/>
    <s:alias val="$_DFF_P_"/>
    <s:alias val="$sdff"/>
    <s:alias val="$_DFF_"/>
    <s:alias val="$_DFF_P_"/>
    <rect width="30" height="40" x="0" y="0" class="cell_\29 fill-1"/>
    <path d="M0,35 L5,30 L0,25" class="cell_\29 fill-5"/>
    <g s:x="31" s:y="10" s:pid="Q"/>
    <g s:x="-1" s:y="30" s:pid="CLK"/>
    <g s:x="-1" s:y="30" s:pid="C"/>
    <g s:x="-1" s:y="10" s:pid="D"/>
    <g s:x="15" s:y="40" s:pid="ARST"/>
    <g s:x="15" s:y="40" s:pid="SRST"/>
  </g>
  <g s:type="inputExt" transform="translate(418,529.5)" s:width="30" s:height="20" id="cell_clock">
    <text x="15" y="-4" class="nodelabel text-1 cell_clock" s:attribute="ref">clock</text>
    <s:alias val="$_inputExt_"/>
    <path d="M0,0 L0,20 L15,20 L30,10 L15,0 Z" class="cell_clock fill-4"/>
    <g s:x="30" s:y="10" s:pid="Y"/>
  </g>
  <g s:type="inputExt" transform="translate(162,144.5)" s:width="30" s:height="20" id="cell_clear">
    <text x="15" y="-4" class="nodelabel text-1 cell_clear" s:attribute="ref">clear</text>
    <s:alias val="$_inputExt_"/>
    <path d="M0,0 L0,20 L15,20 L30,10 L15,0 Z" class="cell_clear fill-4"/>
    <g s:x="30" s:y="10" s:pid="Y"/>
  </g>
  <g s:type="inputExt" transform="translate(347,499.5)" s:width="30" s:height="20" id="cell_enable">
    <text x="15" y="-4" class="nodelabel text-1 cell_enable" s:attribute="ref">enable</text>
    <s:alias val="$_inputExt_"/>
    <path d="M0,0 L0,20 L15,20 L30,10 L15,0 Z" class="cell_enable fill-4"/>
    <g s:x="30" s:y="10" s:pid="Y"/>
  </g>
  <g s:type="inputExt" transform="translate(162,209.5)" s:width="30" s:height="20" id="cell_source control_mem">
    <text x="15" y="-4" class="nodelabel text-1 cell_source control_mem" s:attribute="ref">source control_mem</text>
    <s:alias val="$_inputExt_"/>
    <path d="M0,0 L0,20 L15,20 L30,10 L15,0 Z" class="cell_source control_mem fill-4"/>
    <g s:x="30" s:y="10" s:pid="Y"/>
  </g>
  <g s:type="inputExt" transform="translate(162,274.5)" s:width="30" s:height="20" id="cell_source control_wb">
    <text x="15" y="-4" class="nodelabel text-1 cell_source control_wb" s:attribute="ref">source control_wb</text>
    <s:alias val="$_inputExt_"/>
    <path d="M0,0 L0,20 L15,20 L30,10 L15,0 Z" class="cell_source control_wb fill-4"/>
    <g s:x="30" s:y="10" s:pid="Y"/>
  </g>
  <g s:type="inputExt" transform="translate(162,339.5)" s:width="30" s:height="20" id="cell_source address_pointer">
    <text x="15" y="-4" class="nodelabel text-1 cell_source address_pointer" s:attribute="ref">source address_pointer</text>
    <s:alias val="$_inputExt_"/>
    <path d="M0,0 L0,20 L15,20 L30,10 L15,0 Z" class="cell_source address_pointer fill-4"/>
    <g s:x="30" s:y="10" s:pid="Y"/>
  </g>
  <g s:type="inputExt" transform="translate(162,404.5)" s:width="30" s:height="20" id="cell_source data_source_2">
    <text x="15" y="-4" class="nodelabel text-1 cell_source data_source_2" s:attribute="ref">source data_source_2</text>
    <s:alias val="$_inputExt_"/>
    <path d="M0,0 L0,20 L15,20 L30,10 L15,0 Z" class="cell_source data_source_2 fill-4"/>
    <g s:x="30" s:y="10" s:pid="Y"/>
  </g>
  <g s:type="inputExt" transform="translate(162,469.5)" s:width="30" s:height="20" id="cell_source select_destination">
    <text x="15" y="-4" class="nodelabel text-1 cell_source select_destination" s:attribute="ref">source select_destination</text>
    <s:alias val="$_inputExt_"/>
    <path d="M0,0 L0,20 L15,20 L30,10 L15,0 Z" class="cell_source select_destination fill-4"/>
    <g s:x="30" s:y="10" s:pid="Y"/>
  </g>
  <g s:type="outputExt" transform="translate(602,22)" s:width="30" s:height="20" id="cell_control_memory enable_read">
    <text x="15" y="-4" class="nodelabel text-1 cell_control_memory enable_read" s:attribute="ref">control_memory enable_read</text>
    <s:alias val="$_outputExt_"/>
    <path d="M30,0 L30,20 L15,20 L0,10 L15,0 Z" class="cell_control_memory enable_read fill-4"/>
    <g s:x="0" s:y="10" s:pid="A"/>
  </g>
  <g s:type="outputExt" transform="translate(602,89.5)" s:width="30" s:height="20" id="cell_control_memory enable_write">
    <text x="15" y="-4" class="nodelabel text-1 cell_control_memory enable_write" s:attribute="ref">control_memory enable_write</text>
    <s:alias val="$_outputExt_"/>
    <path d="M30,0 L30,20 L15,20 L0,10 L15,0 Z" class="cell_control_memory enable_write fill-4"/>
    <g s:x="0" s:y="10" s:pid="A"/>
  </g>
  <g s:type="outputExt" transform="translate(602,219.5)" s:width="30" s:height="20" id="cell_address_memory">
    <text x="15" y="-4" class="nodelabel text-1 cell_address_memory" s:attribute="ref">address_memory</text>
    <s:alias val="$_outputExt_"/>
    <path d="M30,0 L30,20 L15,20 L0,10 L15,0 Z" class="cell_address_memory fill-4"/>
    <g s:x="0" s:y="10" s:pid="A"/>
  </g>
  <g s:type="outputExt" transform="translate(602,284.5)" s:width="30" s:height="20" id="cell_data_memory">
    <text x="15" y="-4" class="nodelabel text-1 cell_data_memory" s:attribute="ref">data_memory</text>
    <s:alias val="$_outputExt_"/>
    <path d="M30,0 L30,20 L15,20 L0,10 L15,0 Z" class="cell_data_memory fill-4"/>
    <g s:x="0" s:y="10" s:pid="A"/>
  </g>
  <g s:type="outputExt" transform="translate(602,349.5)" s:width="30" s:height="20" id="cell_destination control_wb">
    <text x="15" y="-4" class="nodelabel text-1 cell_destination control_wb" s:attribute="ref">destination control_wb</text>
    <s:alias val="$_outputExt_"/>
    <path d="M30,0 L30,20 L15,20 L0,10 L15,0 Z" class="cell_destination control_wb fill-4"/>
    <g s:x="0" s:y="10" s:pid="A"/>
  </g>
  <g s:type="outputExt" transform="translate(12,22)" s:width="30" s:height="20" id="cell_destination data_memory">
    <text x="15" y="-4" class="nodelabel text-1 cell_destination data_memory" s:attribute="ref">destination data_memory</text>
    <s:alias val="$_outputExt_"/>
    <path d="M30,0 L30,20 L15,20 L0,10 L15,0 Z" class="cell_destination data_memory fill-4"/>
    <g s:x="0" s:y="10" s:pid="A"/>
  </g>
  <g s:type="outputExt" transform="translate(602,154.5)" s:width="30" s:height="20" id="cell_destination data_destination">
    <text x="15" y="-4" class="nodelabel text-1 cell_destination data_destination" s:attribute="ref">destination data_destination</text>
    <s:alias val="$_outputExt_"/>
    <path d="M30,0 L30,20 L15,20 L0,10 L15,0 Z" class="cell_destination data_destination fill-4"/>
    <g s:x="0" s:y="10" s:pid="A"/>
  </g>
  <g s:type="outputExt" transform="translate(602,414.5)" s:width="30" s:height="20" id="cell_destination select_destination">
    <text x="15" y="-4" class="nodelabel text-1 cell_destination select_destination" s:attribute="ref">destination select_destination</text>
    <s:alias val="$_outputExt_"/>
    <path d="M30,0 L30,20 L15,20 L0,10 L15,0 Z" class="cell_destination select_destination fill-4"/>
    <g s:x="0" s:y="10" s:pid="A"/>
  </g>
  <g s:type="constant" transform="translate(162,79.5)" s:width="30" s:height="20" id="cell_0000000000000000000000000000000000000000000000000000000000000000000001000">
    <text x="15" y="-4" class="nodelabel text-1 cell_0000000000000000000000000000000000000000000000000000000000000000000001000" s:attribute="ref">0x8</text>
    <s:alias val="$_constant_"/>
    <rect width="30" height="20" class="cell_0000000000000000000000000000000000000000000000000000000000000000000001000 fill-4"/>
    <g s:x="31" s:y="10" s:pid="Y"/>
  </g>
  <g s:type="join" transform="translate(355,299)" s:width="4" s:height="40" id="cell_$join$,5,6,7,8,9,10,11,12,13,14,15,16,17,18,19,20,21,22,23,24,25,26,27,28,29,30,31,32,33,34,35,36,37,38,39,40,41,42,43,44,45,46,47,48,49,50,51,52,53,54,55,56,57,58,59,60,61,62,63,64,65,66,67,68,69,70,71,72,73,74,75,76,77,">
    <rect width="5" height="100" class="splitjoinBody" s:generic="body"/>
    <s:alias val="$_join_"/>
    <g s:x="5" s:y="20" s:pid="out"/>
    <g transform="translate(0,10)" s:x="0" s:y="10" s:pid="in0">
      <text x="-3" y="-4" class="inputPortLabel text-2">0:1</text>
    </g>
    <g transform="translate(0,30)" s:x="0" s:y="10" s:pid="in0">
      <text x="-3" y="-4" class="inputPortLabel text-2">2:3</text>
    </g>
    <g transform="translate(0,50)" s:x="0" s:y="10" s:pid="in0">
      <text x="-3" y="-4" class="inputPortLabel text-2">4:35</text>
    </g>
    <g transform="translate(0,70)" s:x="0" s:y="10" s:pid="in0">
      <text x="-3" y="-4" class="inputPortLabel text-2">36:67</text>
    </g>
    <g transform="translate(0,90)" s:x="0" s:y="10" s:pid="in0">
      <text x="-3" y="-4" class="inputPortLabel text-2">68:72</text>
    </g>
  </g>
  <g s:type="split" transform="translate(550,69)" s:width="5" s:height="40" id="cell_$split$,78,79,144,145,80,81,82,83,84,85,86,87,88,89,90,91,92,93,94,95,96,97,98,99,100,101,102,103,104,105,106,107,108,109,110,111,112,113,114,115,116,117,118,119,120,121,122,123,124,125,126,127,128,129,130,131,132,133,134,135,136,137,138,139,140,141,142,143,146,147,148,149,150,">
    <rect width="5" height="120" class="splitjoinBody" s:generic="body"/>
    <s:alias val="$_split_"/>
    <g s:x="0" s:y="20" s:pid="in"/>
    <g transform="translate(4,10)" s:x="4" s:y="10" s:pid="out0">
      <text x="5" y="-4" class="text-2">0</text>
    </g>
    <g transform="translate(4,30)" s:x="4" s:y="10" s:pid="out0">
      <text x="5" y="-4" class="text-2">1</text>
    </g>
    <g transform="translate(4,50)" s:x="4" s:y="10" s:pid="out0">
      <text x="5" y="-4" class="text-2">4:35</text>
    </g>
    <g transform="translate(4,70)" s:x="4" s:y="10" s:pid="out0">
      <text x="5" y="-4" class="text-2">36:67</text>
    </g>
    <g transform="translate(4,90)" s:x="4" s:y="10" s:pid="out0">
      <text x="5" y="-4" class="text-2">2:3</text>
    </g>
    <g transform="translate(4,110)" s:x="4" s:y="10" s:pid="out0">
      <text x="5" y="-4" class="text-2">68:72</text>
    </g>
  </g>
  <line x1="515" x2="525" y1="89.5" y2="89.5" class="net_78,79,144,145,80,81,82,83,84,85,86,87,88,89,90,91,92,93,94,95,96,97,98,99,100,101,102,103,104,105,106,107,108,109,110,111,112,113,114,115,116,117,118,119,120,121,122,123,124,125,126,127,128,129,130,131,132,133,134,135,136,137,138,139,140,141,142,143,146,147,148,149,150"/>
  <line x1="525" x2="525" y1="89.5" y2="49.5" class="net_78,79,144,145,80,81,82,83,84,85,86,87,88,89,90,91,92,93,94,95,96,97,98,99,100,101,102,103,104,105,106,107,108,109,110,111,112,113,114,115,116,117,118,119,120,121,122,123,124,125,126,127,128,129,130,131,132,133,134,135,136,137,138,139,140,141,142,143,146,147,148,149,150"/>
  <line x1="525" x2="322" y1="49.5" y2="49.5" class="net_78,79,144,145,80,81,82,83,84,85,86,87,88,89,90,91,92,93,94,95,96,97,98,99,100,101,102,103,104,105,106,107,108,109,110,111,112,113,114,115,116,117,118,119,120,121,122,123,124,125,126,127,128,129,130,131,132,133,134,135,136,137,138,139,140,141,142,143,146,147,148,149,150"/>
  <line x1="322" x2="322" y1="49.5" y2="69.5" class="net_78,79,144,145,80,81,82,83,84,85,86,87,88,89,90,91,92,93,94,95,96,97,98,99,100,101,102,103,104,105,106,107,108,109,110,111,112,113,114,115,116,117,118,119,120,121,122,123,124,125,126,127,128,129,130,131,132,133,134,135,136,137,138,139,140,141,142,143,146,147,148,149,150"/>
  <circle cx="525" cy="89.5" r="2" style="fill:#000" class="net_78,79,144,145,80,81,82,83,84,85,86,87,88,89,90,91,92,93,94,95,96,97,98,99,100,101,102,103,104,105,106,107,108,109,110,111,112,113,114,115,116,117,118,119,120,121,122,123,124,125,126,127,128,129,130,131,132,133,134,135,136,137,138,139,140,141,142,143,146,147,148,149,150"/>
  <line x1="322" x2="352.33333333333337" y1="69.5" y2="69.5" class="net_78,79,144,145,80,81,82,83,84,85,86,87,88,89,90,91,92,93,94,95,96,97,98,99,100,101,102,103,104,105,106,107,108,109,110,111,112,113,114,115,116,117,118,119,120,121,122,123,124,125,126,127,128,129,130,131,132,133,134,135,136,137,138,139,140,141,142,143,146,147,148,149,150"/>
  <line x1="515" x2="550" y1="89.5" y2="89.5" class="net_78,79,144,145,80,81,82,83,84,85,86,87,88,89,90,91,92,93,94,95,96,97,98,99,100,101,102,103,104,105,106,107,108,109,110,111,112,113,114,115,116,117,118,119,120,121,122,123,124,125,126,127,128,129,130,131,132,133,134,135,136,137,138,139,140,141,142,143,146,147,148,149,150"/>
  <line x1="193" x2="352.33333333333337" y1="89.5" y2="89.5" class="net_297,298,299,300,301,302,303,304,305,306,307,308,309,310,311,312,313,314,315,316,317,318,319,320,321,322,323,324,325,326,327,328,329,330,331,332,333,334,335,336,337,338,339,340,341,342,343,344,345,346,347,348,349,350,351,352,353,354,355,356,357,358,359,360,361,362,363,364,365,366,367,368,369"/>
  <line x1="192" x2="362.33333333333337" y1="154.5" y2="154.5" class="net_3"/>
  <line x1="362.33333333333337" x2="362.33333333333337" y1="154.5" y2="94.5" class="net_3"/>
  <line x1="372.33333333333337" x2="421.3333333333333" y1="79.5" y2="79.5" class="net_151,152,153,154,155,156,157,158,159,160,161,162,163,164,165,166,167,168,169,170,171,172,173,174,175,176,177,178,179,180,181,182,183,184,185,186,187,188,189,190,191,192,193,194,195,196,197,198,199,200,201,202,203,204,205,206,207,208,209,210,211,212,213,214,215,216,217,218,219,220,221,222,223"/>
  <line x1="361" x2="393" y1="319.5" y2="319.5" class="net_5,6,7,8,9,10,11,12,13,14,15,16,17,18,19,20,21,22,23,24,25,26,27,28,29,30,31,32,33,34,35,36,37,38,39,40,41,42,43,44,45,46,47,48,49,50,51,52,53,54,55,56,57,58,59,60,61,62,63,64,65,66,67,68,69,70,71,72,73,74,75,76,77"/>
  <line x1="393" x2="393" y1="319.5" y2="99.5" class="net_5,6,7,8,9,10,11,12,13,14,15,16,17,18,19,20,21,22,23,24,25,26,27,28,29,30,31,32,33,34,35,36,37,38,39,40,41,42,43,44,45,46,47,48,49,50,51,52,53,54,55,56,57,58,59,60,61,62,63,64,65,66,67,68,69,70,71,72,73,74,75,76,77"/>
  <line x1="393" x2="421.3333333333333" y1="99.5" y2="99.5" class="net_5,6,7,8,9,10,11,12,13,14,15,16,17,18,19,20,21,22,23,24,25,26,27,28,29,30,31,32,33,34,35,36,37,38,39,40,41,42,43,44,45,46,47,48,49,50,51,52,53,54,55,56,57,58,59,60,61,62,63,64,65,66,67,68,69,70,71,72,73,74,75,76,77"/>
  <line x1="377" x2="431.3333333333333" y1="509.5" y2="509.5" class="net_4"/>
  <line x1="431.3333333333333" x2="431.3333333333333" y1="509.5" y2="104.5" class="net_4"/>
  <line x1="448" x2="458" y1="539.5" y2="539.5" class="net_2"/>
  <line x1="458" x2="458" y1="539.5" y2="109.5" class="net_2"/>
  <line x1="458" x2="483" y1="109.5" y2="109.5" class="net_2"/>
  <line x1="441.3333333333333" x2="483" y1="89.5" y2="89.5" class="net_224,225,226,227,228,229,230,231,232,233,234,235,236,237,238,239,240,241,242,243,244,245,246,247,248,249,250,251,252,253,254,255,256,257,258,259,260,261,262,263,264,265,266,267,268,269,270,271,272,273,274,275,276,277,278,279,280,281,282,283,284,285,286,287,288,289,290,291,292,293,294,295,296"/>
  <line x1="554.5" x2="554.5" y1="79" y2="32" class="net_78"/>
  <line x1="554.5" x2="602" y1="32" y2="32" class="net_78"/>
  <line x1="555" x2="602" y1="99.5" y2="99.5" class="net_79"/>
  <line x1="555" x2="592" y1="119.5" y2="119.5" class="net_80,81,82,83,84,85,86,87,88,89,90,91,92,93,94,95,96,97,98,99,100,101,102,103,104,105,106,107,108,109,110,111"/>
  <line x1="592" x2="592" y1="119.5" y2="229.5" class="net_80,81,82,83,84,85,86,87,88,89,90,91,92,93,94,95,96,97,98,99,100,101,102,103,104,105,106,107,108,109,110,111"/>
  <line x1="592" x2="602" y1="229.5" y2="229.5" class="net_80,81,82,83,84,85,86,87,88,89,90,91,92,93,94,95,96,97,98,99,100,101,102,103,104,105,106,107,108,109,110,111"/>
  <line x1="555" x2="592" y1="119.5" y2="119.5" class="net_80,81,82,83,84,85,86,87,88,89,90,91,92,93,94,95,96,97,98,99,100,101,102,103,104,105,106,107,108,109,110,111"/>
  <line x1="592" x2="592" y1="119.5" y2="164.5" class="net_80,81,82,83,84,85,86,87,88,89,90,91,92,93,94,95,96,97,98,99,100,101,102,103,104,105,106,107,108,109,110,111"/>
  <circle cx="592" cy="164.5" r="2" style="fill:#000" class="net_80,81,82,83,84,85,86,87,88,89,90,91,92,93,94,95,96,97,98,99,100,101,102,103,104,105,106,107,108,109,110,111"/>
  <line x1="592" x2="602" y1="164.5" y2="164.5" class="net_80,81,82,83,84,85,86,87,88,89,90,91,92,93,94,95,96,97,98,99,100,101,102,103,104,105,106,107,108,109,110,111"/>
  <line x1="555" x2="582" y1="139.5" y2="139.5" class="net_112,113,114,115,116,117,118,119,120,121,122,123,124,125,126,127,128,129,130,131,132,133,134,135,136,137,138,139,140,141,142,143"/>
  <line x1="582" x2="582" y1="139.5" y2="294.5" class="net_112,113,114,115,116,117,118,119,120,121,122,123,124,125,126,127,128,129,130,131,132,133,134,135,136,137,138,139,140,141,142,143"/>
  <line x1="582" x2="602" y1="294.5" y2="294.5" class="net_112,113,114,115,116,117,118,119,120,121,122,123,124,125,126,127,128,129,130,131,132,133,134,135,136,137,138,139,140,141,142,143"/>
  <line x1="555" x2="572" y1="159.5" y2="159.5" class="net_144,145"/>
  <line x1="572" x2="572" y1="159.5" y2="359.5" class="net_144,145"/>
  <line x1="572" x2="602" y1="359.5" y2="359.5" class="net_144,145"/>
  <line x1="554.5" x2="554.5" y1="180" y2="424.5" class="net_146,147,148,149,150"/>
  <line x1="554.5" x2="602" y1="424.5" y2="424.5" class="net_146,147,148,149,150"/>
  <line x1="192" x2="355.5" y1="219.5" y2="219.5" class="net_5,6"/>
  <line x1="355.5" x2="355.5" y1="219.5" y2="309" class="net_5,6"/>
  <line x1="192" x2="322" y1="284.5" y2="284.5" class="net_7,8"/>
  <line x1="322" x2="322" y1="284.5" y2="329.5" class="net_7,8"/>
  <line x1="322" x2="355" y1="329.5" y2="329.5" class="net_7,8"/>
  <line x1="192" x2="355" y1="349.5" y2="349.5" class="net_9,10,11,12,13,14,15,16,17,18,19,20,21,22,23,24,25,26,27,28,29,30,31,32,33,34,35,36,37,38,39,40"/>
  <line x1="192" x2="322" y1="414.5" y2="414.5" class="net_41,42,43,44,45,46,47,48,49,50,51,52,53,54,55,56,57,58,59,60,61,62,63,64,65,66,67,68,69,70,71,72"/>
  <line x1="322" x2="322" y1="414.5" y2="369.5" class="net_41,42,43,44,45,46,47,48,49,50,51,52,53,54,55,56,57,58,59,60,61,62,63,64,65,66,67,68,69,70,71,72"/>
  <line x1="322" x2="355" y1="369.5" y2="369.5" class="net_41,42,43,44,45,46,47,48,49,50,51,52,53,54,55,56,57,58,59,60,61,62,63,64,65,66,67,68,69,70,71,72"/>
  <line x1="192" x2="355.5" y1="479.5" y2="479.5" class="net_73,74,75,76,77"/>
  <line x1="355.5" x2="355.5" y1="479.5" y2="390" class="net_73,74,75,76,77"/>
</svg>
