<svg xmlns="http://www.w3.org/2000/svg" xmlns:xlink="http://www.w3.org/1999/xlink" xmlns:s="https://github.com/nturley/netlistsvg" width="1649" height="1471">
  <style>  svg {
      stroke: #011e41;
      fill: none;
    }
    text {
      fill:#ffffff;
      stroke:none;
      font-size:10px;
      font-weight: bold;
      font-family: "Courier New", monospace;
    }
    .fill-1 { fill: #003262; }
    .fill-2 { fill: #011e41; stroke: #003262; }
    .fill-3 { fill: #ffffff; }
    .fill-4 { fill: #003262; }
    .fill-5 { fill: #011e41; stroke: #fdda64; }
    .text-1 { fill: #fdb515; }
    .text-2 { fill: #003262; }
    .text-3 { stroke: #fdda64; }
    .nodelabel { text-anchor: middle; }
    .inputPortLabel { text-anchor: end; }
    .splitjoinBody { fill: #3c3c43; }</style>
  <g s:type="not" transform="translate(455,132)" s:width="30" s:height="20" id="cell_$auto$opt_expr cc:712:replace_const_cells$8480">
    <s:alias val="$_NOT_"/>
    <s:alias val="$not"/>
    <s:alias val="$logic_not"/>
    <path d="M0,0 L0,20 L20,10 Z" class="cell_$auto$opt_expr cc:712:replace_const_cells$8480 fill-1"/>
    <circle cx="24" cy="10" r="3" class="cell_$auto$opt_expr cc:712:replace_const_cells$8480 fill-3"/>
    <g s:x="-1" s:y="10" s:pid="A"/>
    <g s:x="27" s:y="10" s:pid="Y"/>
  </g>
  <g s:type="and" transform="translate(818,87)" s:width="30" s:height="25" id="cell_\112">
    <s:alias val="$and"/>
    <s:alias val="$logic_and"/>
    <s:alias val="$_AND_"/>
    <s:alias val="$reduce_and"/>
    <path d="M0,0 L0,25 L15,25 A15 12.5 0 0 0 15,0 Z" class="cell_\112 fill-1"/>
    <g s:x="0" s:y="5" s:pid="A"/>
    <g s:x="0" s:y="20" s:pid="B"/>
    <g s:x="30" s:y="12.5" s:pid="Y"/>
  </g>
  <g s:type="and" transform="translate(818,147)" s:width="30" s:height="25" id="cell_\121">
    <s:alias val="$and"/>
    <s:alias val="$logic_and"/>
    <s:alias val="$_AND_"/>
    <s:alias val="$reduce_and"/>
    <path d="M0,0 L0,25 L15,25 A15 12.5 0 0 0 15,0 Z" class="cell_\121 fill-1"/>
    <g s:x="0" s:y="5" s:pid="A"/>
    <g s:x="0" s:y="20" s:pid="B"/>
    <g s:x="30" s:y="12.5" s:pid="Y"/>
  </g>
  <g s:type="and" transform="translate(883,139.5)" s:width="30" s:height="25" id="cell_\122">
    <s:alias val="$and"/>
    <s:alias val="$logic_and"/>
    <s:alias val="$_AND_"/>
    <s:alias val="$reduce_and"/>
    <path d="M0,0 L0,25 L15,25 A15 12.5 0 0 0 15,0 Z" class="cell_\122 fill-1"/>
    <g s:x="0" s:y="5" s:pid="A"/>
    <g s:x="0" s:y="20" s:pid="B"/>
    <g s:x="30" s:y="12.5" s:pid="Y"/>
  </g>
  <g s:type="and" transform="translate(818,207)" s:width="30" s:height="25" id="cell_\137">
    <s:alias val="$and"/>
    <s:alias val="$logic_and"/>
    <s:alias val="$_AND_"/>
    <s:alias val="$reduce_and"/>
    <path d="M0,0 L0,25 L15,25 A15 12.5 0 0 0 15,0 Z" class="cell_\137 fill-1"/>
    <g s:x="0" s:y="5" s:pid="A"/>
    <g s:x="0" s:y="20" s:pid="B"/>
    <g s:x="30" s:y="12.5" s:pid="Y"/>
  </g>
  <g s:type="and" transform="translate(818,267)" s:width="30" s:height="25" id="cell_\146">
    <s:alias val="$and"/>
    <s:alias val="$logic_and"/>
    <s:alias val="$_AND_"/>
    <s:alias val="$reduce_and"/>
    <path d="M0,0 L0,25 L15,25 A15 12.5 0 0 0 15,0 Z" class="cell_\146 fill-1"/>
    <g s:x="0" s:y="5" s:pid="A"/>
    <g s:x="0" s:y="20" s:pid="B"/>
    <g s:x="30" s:y="12.5" s:pid="Y"/>
  </g>
  <g s:type="and" transform="translate(883,259.5)" s:width="30" s:height="25" id="cell_\147">
    <s:alias val="$and"/>
    <s:alias val="$logic_and"/>
    <s:alias val="$_AND_"/>
    <s:alias val="$reduce_and"/>
    <path d="M0,0 L0,25 L15,25 A15 12.5 0 0 0 15,0 Z" class="cell_\147 fill-1"/>
    <g s:x="0" s:y="5" s:pid="A"/>
    <g s:x="0" s:y="20" s:pid="B"/>
    <g s:x="30" s:y="12.5" s:pid="Y"/>
  </g>
  <g s:type="and" transform="translate(948,252)" s:width="30" s:height="25" id="cell_\148">
    <s:alias val="$and"/>
    <s:alias val="$logic_and"/>
    <s:alias val="$_AND_"/>
    <s:alias val="$reduce_and"/>
    <path d="M0,0 L0,25 L15,25 A15 12.5 0 0 0 15,0 Z" class="cell_\148 fill-1"/>
    <g s:x="0" s:y="5" s:pid="A"/>
    <g s:x="0" s:y="20" s:pid="B"/>
    <g s:x="30" s:y="12.5" s:pid="Y"/>
  </g>
  <g s:type="and" transform="translate(1013,244.5)" s:width="30" s:height="25" id="cell_\149">
    <s:alias val="$and"/>
    <s:alias val="$logic_and"/>
    <s:alias val="$_AND_"/>
    <s:alias val="$reduce_and"/>
    <path d="M0,0 L0,25 L15,25 A15 12.5 0 0 0 15,0 Z" class="cell_\149 fill-1"/>
    <g s:x="0" s:y="5" s:pid="A"/>
    <g s:x="0" s:y="20" s:pid="B"/>
    <g s:x="30" s:y="12.5" s:pid="Y"/>
  </g>
  <g s:type="and" transform="translate(818,327)" s:width="30" s:height="25" id="cell_\176">
    <s:alias val="$and"/>
    <s:alias val="$logic_and"/>
    <s:alias val="$_AND_"/>
    <s:alias val="$reduce_and"/>
    <path d="M0,0 L0,25 L15,25 A15 12.5 0 0 0 15,0 Z" class="cell_\176 fill-1"/>
    <g s:x="0" s:y="5" s:pid="A"/>
    <g s:x="0" s:y="20" s:pid="B"/>
    <g s:x="30" s:y="12.5" s:pid="Y"/>
  </g>
  <g s:type="and" transform="translate(818,387)" s:width="30" s:height="25" id="cell_\185">
    <s:alias val="$and"/>
    <s:alias val="$logic_and"/>
    <s:alias val="$_AND_"/>
    <s:alias val="$reduce_and"/>
    <path d="M0,0 L0,25 L15,25 A15 12.5 0 0 0 15,0 Z" class="cell_\185 fill-1"/>
    <g s:x="0" s:y="5" s:pid="A"/>
    <g s:x="0" s:y="20" s:pid="B"/>
    <g s:x="30" s:y="12.5" s:pid="Y"/>
  </g>
  <g s:type="and" transform="translate(883,379.5)" s:width="30" s:height="25" id="cell_\186">
    <s:alias val="$and"/>
    <s:alias val="$logic_and"/>
    <s:alias val="$_AND_"/>
    <s:alias val="$reduce_and"/>
    <path d="M0,0 L0,25 L15,25 A15 12.5 0 0 0 15,0 Z" class="cell_\186 fill-1"/>
    <g s:x="0" s:y="5" s:pid="A"/>
    <g s:x="0" s:y="20" s:pid="B"/>
    <g s:x="30" s:y="12.5" s:pid="Y"/>
  </g>
  <g s:type="and" transform="translate(818,447)" s:width="30" s:height="25" id="cell_\201">
    <s:alias val="$and"/>
    <s:alias val="$logic_and"/>
    <s:alias val="$_AND_"/>
    <s:alias val="$reduce_and"/>
    <path d="M0,0 L0,25 L15,25 A15 12.5 0 0 0 15,0 Z" class="cell_\201 fill-1"/>
    <g s:x="0" s:y="5" s:pid="A"/>
    <g s:x="0" s:y="20" s:pid="B"/>
    <g s:x="30" s:y="12.5" s:pid="Y"/>
  </g>
  <g s:type="and" transform="translate(818,507)" s:width="30" s:height="25" id="cell_\210">
    <s:alias val="$and"/>
    <s:alias val="$logic_and"/>
    <s:alias val="$_AND_"/>
    <s:alias val="$reduce_and"/>
    <path d="M0,0 L0,25 L15,25 A15 12.5 0 0 0 15,0 Z" class="cell_\210 fill-1"/>
    <g s:x="0" s:y="5" s:pid="A"/>
    <g s:x="0" s:y="20" s:pid="B"/>
    <g s:x="30" s:y="12.5" s:pid="Y"/>
  </g>
  <g s:type="and" transform="translate(883,499.5)" s:width="30" s:height="25" id="cell_\211">
    <s:alias val="$and"/>
    <s:alias val="$logic_and"/>
    <s:alias val="$_AND_"/>
    <s:alias val="$reduce_and"/>
    <path d="M0,0 L0,25 L15,25 A15 12.5 0 0 0 15,0 Z" class="cell_\211 fill-1"/>
    <g s:x="0" s:y="5" s:pid="A"/>
    <g s:x="0" s:y="20" s:pid="B"/>
    <g s:x="30" s:y="12.5" s:pid="Y"/>
  </g>
  <g s:type="and" transform="translate(948,492)" s:width="30" s:height="25" id="cell_\212">
    <s:alias val="$and"/>
    <s:alias val="$logic_and"/>
    <s:alias val="$_AND_"/>
    <s:alias val="$reduce_and"/>
    <path d="M0,0 L0,25 L15,25 A15 12.5 0 0 0 15,0 Z" class="cell_\212 fill-1"/>
    <g s:x="0" s:y="5" s:pid="A"/>
    <g s:x="0" s:y="20" s:pid="B"/>
    <g s:x="30" s:y="12.5" s:pid="Y"/>
  </g>
  <g s:type="and" transform="translate(818,807)" s:width="30" s:height="25" id="cell_\233">
    <s:alias val="$and"/>
    <s:alias val="$logic_and"/>
    <s:alias val="$_AND_"/>
    <s:alias val="$reduce_and"/>
    <path d="M0,0 L0,25 L15,25 A15 12.5 0 0 0 15,0 Z" class="cell_\233 fill-1"/>
    <g s:x="0" s:y="5" s:pid="A"/>
    <g s:x="0" s:y="20" s:pid="B"/>
    <g s:x="30" s:y="12.5" s:pid="Y"/>
  </g>
  <g s:type="and" transform="translate(818,567)" s:width="30" s:height="25" id="cell_\242">
    <s:alias val="$and"/>
    <s:alias val="$logic_and"/>
    <s:alias val="$_AND_"/>
    <s:alias val="$reduce_and"/>
    <path d="M0,0 L0,25 L15,25 A15 12.5 0 0 0 15,0 Z" class="cell_\242 fill-1"/>
    <g s:x="0" s:y="5" s:pid="A"/>
    <g s:x="0" s:y="20" s:pid="B"/>
    <g s:x="30" s:y="12.5" s:pid="Y"/>
  </g>
  <g s:type="and" transform="translate(883,814.5)" s:width="30" s:height="25" id="cell_\243">
    <s:alias val="$and"/>
    <s:alias val="$logic_and"/>
    <s:alias val="$_AND_"/>
    <s:alias val="$reduce_and"/>
    <path d="M0,0 L0,25 L15,25 A15 12.5 0 0 0 15,0 Z" class="cell_\243 fill-1"/>
    <g s:x="0" s:y="5" s:pid="A"/>
    <g s:x="0" s:y="20" s:pid="B"/>
    <g s:x="30" s:y="12.5" s:pid="Y"/>
  </g>
  <g s:type="and" transform="translate(818,627)" s:width="30" s:height="25" id="cell_\258">
    <s:alias val="$and"/>
    <s:alias val="$logic_and"/>
    <s:alias val="$_AND_"/>
    <s:alias val="$reduce_and"/>
    <path d="M0,0 L0,25 L15,25 A15 12.5 0 0 0 15,0 Z" class="cell_\258 fill-1"/>
    <g s:x="0" s:y="5" s:pid="A"/>
    <g s:x="0" s:y="20" s:pid="B"/>
    <g s:x="30" s:y="12.5" s:pid="Y"/>
  </g>
  <g s:type="and" transform="translate(818,687)" s:width="30" s:height="25" id="cell_\267">
    <s:alias val="$and"/>
    <s:alias val="$logic_and"/>
    <s:alias val="$_AND_"/>
    <s:alias val="$reduce_and"/>
    <path d="M0,0 L0,25 L15,25 A15 12.5 0 0 0 15,0 Z" class="cell_\267 fill-1"/>
    <g s:x="0" s:y="5" s:pid="A"/>
    <g s:x="0" s:y="20" s:pid="B"/>
    <g s:x="30" s:y="12.5" s:pid="Y"/>
  </g>
  <g s:type="and" transform="translate(883,679.5)" s:width="30" s:height="25" id="cell_\268">
    <s:alias val="$and"/>
    <s:alias val="$logic_and"/>
    <s:alias val="$_AND_"/>
    <s:alias val="$reduce_and"/>
    <path d="M0,0 L0,25 L15,25 A15 12.5 0 0 0 15,0 Z" class="cell_\268 fill-1"/>
    <g s:x="0" s:y="5" s:pid="A"/>
    <g s:x="0" s:y="20" s:pid="B"/>
    <g s:x="30" s:y="12.5" s:pid="Y"/>
  </g>
  <g s:type="and" transform="translate(948,822)" s:width="30" s:height="25" id="cell_\269">
    <s:alias val="$and"/>
    <s:alias val="$logic_and"/>
    <s:alias val="$_AND_"/>
    <s:alias val="$reduce_and"/>
    <path d="M0,0 L0,25 L15,25 A15 12.5 0 0 0 15,0 Z" class="cell_\269 fill-1"/>
    <g s:x="0" s:y="5" s:pid="A"/>
    <g s:x="0" s:y="20" s:pid="B"/>
    <g s:x="30" s:y="12.5" s:pid="Y"/>
  </g>
  <g s:type="and" transform="translate(1013,814.5)" s:width="30" s:height="25" id="cell_\270">
    <s:alias val="$and"/>
    <s:alias val="$logic_and"/>
    <s:alias val="$_AND_"/>
    <s:alias val="$reduce_and"/>
    <path d="M0,0 L0,25 L15,25 A15 12.5 0 0 0 15,0 Z" class="cell_\270 fill-1"/>
    <g s:x="0" s:y="5" s:pid="A"/>
    <g s:x="0" s:y="20" s:pid="B"/>
    <g s:x="30" s:y="12.5" s:pid="Y"/>
  </g>
  <g s:type="and" transform="translate(1078,807)" s:width="30" s:height="25" id="cell_\271">
    <s:alias val="$and"/>
    <s:alias val="$logic_and"/>
    <s:alias val="$_AND_"/>
    <s:alias val="$reduce_and"/>
    <path d="M0,0 L0,25 L15,25 A15 12.5 0 0 0 15,0 Z" class="cell_\271 fill-1"/>
    <g s:x="0" s:y="5" s:pid="A"/>
    <g s:x="0" s:y="20" s:pid="B"/>
    <g s:x="30" s:y="12.5" s:pid="Y"/>
  </g>
  <g s:type="and" transform="translate(1148,1266.5)" s:width="30" s:height="25" id="cell_\272">
    <s:alias val="$and"/>
    <s:alias val="$logic_and"/>
    <s:alias val="$_AND_"/>
    <s:alias val="$reduce_and"/>
    <path d="M0,0 L0,25 L15,25 A15 12.5 0 0 0 15,0 Z" class="cell_\272 fill-1"/>
    <g s:x="0" s:y="5" s:pid="A"/>
    <g s:x="0" s:y="20" s:pid="B"/>
    <g s:x="30" s:y="12.5" s:pid="Y"/>
  </g>
  <g s:type="and" transform="translate(818,747)" s:width="30" s:height="25" id="cell_\55">
    <s:alias val="$and"/>
    <s:alias val="$logic_and"/>
    <s:alias val="$_AND_"/>
    <s:alias val="$reduce_and"/>
    <path d="M0,0 L0,25 L15,25 A15 12.5 0 0 0 15,0 Z" class="cell_\55 fill-1"/>
    <g s:x="0" s:y="5" s:pid="A"/>
    <g s:x="0" s:y="20" s:pid="B"/>
    <g s:x="30" s:y="12.5" s:pid="Y"/>
  </g>
  <g s:type="and" transform="translate(818,882)" s:width="30" s:height="25" id="cell_\64">
    <s:alias val="$and"/>
    <s:alias val="$logic_and"/>
    <s:alias val="$_AND_"/>
    <s:alias val="$reduce_and"/>
    <path d="M0,0 L0,25 L15,25 A15 12.5 0 0 0 15,0 Z" class="cell_\64 fill-1"/>
    <g s:x="0" s:y="5" s:pid="A"/>
    <g s:x="0" s:y="20" s:pid="B"/>
    <g s:x="30" s:y="12.5" s:pid="Y"/>
  </g>
  <g s:type="and" transform="translate(883,874.5)" s:width="30" s:height="25" id="cell_\65">
    <s:alias val="$and"/>
    <s:alias val="$logic_and"/>
    <s:alias val="$_AND_"/>
    <s:alias val="$reduce_and"/>
    <path d="M0,0 L0,25 L15,25 A15 12.5 0 0 0 15,0 Z" class="cell_\65 fill-1"/>
    <g s:x="0" s:y="5" s:pid="A"/>
    <g s:x="0" s:y="20" s:pid="B"/>
    <g s:x="30" s:y="12.5" s:pid="Y"/>
  </g>
  <g s:type="and" transform="translate(818,942)" s:width="30" s:height="25" id="cell_\80">
    <s:alias val="$and"/>
    <s:alias val="$logic_and"/>
    <s:alias val="$_AND_"/>
    <s:alias val="$reduce_and"/>
    <path d="M0,0 L0,25 L15,25 A15 12.5 0 0 0 15,0 Z" class="cell_\80 fill-1"/>
    <g s:x="0" s:y="5" s:pid="A"/>
    <g s:x="0" s:y="20" s:pid="B"/>
    <g s:x="30" s:y="12.5" s:pid="Y"/>
  </g>
  <g s:type="and" transform="translate(818,1031.5)" s:width="30" s:height="25" id="cell_\89">
    <s:alias val="$and"/>
    <s:alias val="$logic_and"/>
    <s:alias val="$_AND_"/>
    <s:alias val="$reduce_and"/>
    <path d="M0,0 L0,25 L15,25 A15 12.5 0 0 0 15,0 Z" class="cell_\89 fill-1"/>
    <g s:x="0" s:y="5" s:pid="A"/>
    <g s:x="0" s:y="20" s:pid="B"/>
    <g s:x="30" s:y="12.5" s:pid="Y"/>
  </g>
  <g s:type="and" transform="translate(883,1024)" s:width="30" s:height="25" id="cell_\90">
    <s:alias val="$and"/>
    <s:alias val="$logic_and"/>
    <s:alias val="$_AND_"/>
    <s:alias val="$reduce_and"/>
    <path d="M0,0 L0,25 L15,25 A15 12.5 0 0 0 15,0 Z" class="cell_\90 fill-1"/>
    <g s:x="0" s:y="5" s:pid="A"/>
    <g s:x="0" s:y="20" s:pid="B"/>
    <g s:x="30" s:y="12.5" s:pid="Y"/>
  </g>
  <g s:type="and" transform="translate(948,1016.5)" s:width="30" s:height="25" id="cell_\91">
    <s:alias val="$and"/>
    <s:alias val="$logic_and"/>
    <s:alias val="$_AND_"/>
    <s:alias val="$reduce_and"/>
    <path d="M0,0 L0,25 L15,25 A15 12.5 0 0 0 15,0 Z" class="cell_\91 fill-1"/>
    <g s:x="0" s:y="5" s:pid="A"/>
    <g s:x="0" s:y="20" s:pid="B"/>
    <g s:x="30" s:y="12.5" s:pid="Y"/>
  </g>
  <g s:type="generic" transform="translate(178,1271)" s:width="30" s:height="40" id="cell_cpu">
    <text x="15" y="-4" class="nodelabel text-1 cell_cpu" s:attribute="ref">cpu_top_level_5ba93c9db0cff93f52b521d7420e43f6eda2784f</text>
    <rect width="30" height="100" s:generic="body" class="cell_cpu fill-1"/>
    <g transform="translate(0,10)" s:x="0" s:y="10" s:pid="in0" id="port_cpu~clear">
      <text x="-3" y="-4" class="inputPortLabel text-2 cell_cpu">clear</text>
    </g>
    <g transform="translate(0,30)" s:x="0" s:y="10" s:pid="in0" id="port_cpu~clock">
      <text x="-3" y="-4" class="inputPortLabel text-2 cell_cpu">clock</text>
    </g>
    <g transform="translate(0,50)" s:x="0" s:y="10" s:pid="in0" id="port_cpu~data_memory_in">
      <text x="-3" y="-4" class="inputPortLabel text-2 cell_cpu">data_memory_in</text>
    </g>
    <g transform="translate(0,70)" s:x="0" s:y="10" s:pid="in0" id="port_cpu~data_program">
      <text x="-3" y="-4" class="inputPortLabel text-2 cell_cpu">data_program</text>
    </g>
    <g transform="translate(0,90)" s:x="0" s:y="10" s:pid="in0" id="port_cpu~enable">
      <text x="-3" y="-4" class="inputPortLabel text-2 cell_cpu">enable</text>
    </g>
    <g transform="translate(30,10)" s:x="30" s:y="10" s:pid="out0" id="port_cpu~address_memory">
      <text x="5" y="-4" class="cell_cpu text-2">address_memory</text>
    </g>
    <g transform="translate(30,30)" s:x="30" s:y="10" s:pid="out0" id="port_cpu~address_program">
      <text x="5" y="-4" class="cell_cpu text-2">address_program</text>
    </g>
    <g transform="translate(30,50)" s:x="30" s:y="10" s:pid="out0" id="port_cpu~data_memory_out">
      <text x="5" y="-4" class="cell_cpu text-2">data_memory_out</text>
    </g>
    <g transform="translate(30,70)" s:x="30" s:y="10" s:pid="out0" id="port_cpu~memory_read">
      <text x="5" y="-4" class="cell_cpu text-2">memory_read</text>
    </g>
    <g transform="translate(30,90)" s:x="30" s:y="10" s:pid="out0" id="port_cpu~memory_write">
      <text x="5" y="-4" class="cell_cpu text-2">memory_write</text>
    </g>
  </g>
  <g s:type="generic" transform="translate(1519,1271)" s:width="30" s:height="40" id="cell_ram">
    <text x="15" y="-4" class="nodelabel text-1 cell_ram" s:attribute="ref">generic_ram_32_32_7</text>
    <rect width="30" height="120" s:generic="body" class="cell_ram fill-1"/>
    <g transform="translate(0,10)" s:x="0" s:y="10" s:pid="in0" id="port_ram~address">
      <text x="-3" y="-4" class="inputPortLabel text-2 cell_ram">address</text>
    </g>
    <g transform="translate(0,30)" s:x="0" s:y="10" s:pid="in0" id="port_ram~clock">
      <text x="-3" y="-4" class="inputPortLabel text-2 cell_ram">clock</text>
    </g>
    <g transform="translate(0,50)" s:x="0" s:y="10" s:pid="in0" id="port_ram~enable">
      <text x="-3" y="-4" class="inputPortLabel text-2 cell_ram">enable</text>
    </g>
    <g transform="translate(0,70)" s:x="0" s:y="10" s:pid="in0" id="port_ram~enable_read">
      <text x="-3" y="-4" class="inputPortLabel text-2 cell_ram">enable_read</text>
    </g>
    <g transform="translate(0,90)" s:x="0" s:y="10" s:pid="in0" id="port_ram~enable_write">
      <text x="-3" y="-4" class="inputPortLabel text-2 cell_ram">enable_write</text>
    </g>
    <g transform="translate(0,110)" s:x="0" s:y="10" s:pid="in0" id="port_ram~source">
      <text x="-3" y="-4" class="inputPortLabel text-2 cell_ram">source</text>
    </g>
    <g transform="translate(30,10)" s:x="30" s:y="10" s:pid="out0" id="port_ram~destination">
      <text x="5" y="-4" class="cell_ram text-2">destination</text>
    </g>
  </g>
  <g s:type="generic" transform="translate(1519,1065.5)" s:width="30" s:height="40" id="cell_rom">
    <text x="15" y="-4" class="nodelabel text-1 cell_rom" s:attribute="ref">generic_rom_32_32_7_6407d6e3f0ab43aac91d26cce58698810f53500a</text>
    <rect width="30" height="40" s:generic="body" class="cell_rom fill-1"/>
    <g transform="translate(0,10)" s:x="0" s:y="10" s:pid="in0" id="port_rom~address">
      <text x="-3" y="-4" class="inputPortLabel text-2 cell_rom">address</text>
    </g>
    <g transform="translate(0,30)" s:x="0" s:y="10" s:pid="in0" id="port_rom~clock">
      <text x="-3" y="-4" class="inputPortLabel text-2 cell_rom">clock</text>
    </g>
    <g transform="translate(30,10)" s:x="30" s:y="10" s:pid="out0" id="port_rom~destination">
      <text x="5" y="-4" class="cell_rom text-2">destination</text>
    </g>
  </g>
  <g s:type="generic" transform="translate(1250,1228.5)" s:width="30" s:height="40" id="cell_update_led">
    <text x="15" y="-4" class="nodelabel text-1 cell_update_led" s:attribute="ref">generic_register_2</text>
    <rect width="30" height="80" s:generic="body" class="cell_update_led fill-1"/>
    <g transform="translate(0,10)" s:x="0" s:y="10" s:pid="in0" id="port_update_led~clear">
      <text x="-3" y="-4" class="inputPortLabel text-2 cell_update_led">clear</text>
    </g>
    <g transform="translate(0,30)" s:x="0" s:y="10" s:pid="in0" id="port_update_led~clock">
      <text x="-3" y="-4" class="inputPortLabel text-2 cell_update_led">clock</text>
    </g>
    <g transform="translate(0,50)" s:x="0" s:y="10" s:pid="in0" id="port_update_led~enable">
      <text x="-3" y="-4" class="inputPortLabel text-2 cell_update_led">enable</text>
    </g>
    <g transform="translate(0,70)" s:x="0" s:y="10" s:pid="in0" id="port_update_led~source">
      <text x="-3" y="-4" class="inputPortLabel text-2 cell_update_led">source</text>
    </g>
    <g transform="translate(30,10)" s:x="30" s:y="10" s:pid="out0" id="port_update_led~destination">
      <text x="5" y="-4" class="cell_update_led text-2">destination</text>
    </g>
  </g>
  <g s:type="inputExt" transform="translate(12,1374)" s:width="30" s:height="20" id="cell_CLOCK">
    <text x="15" y="-4" class="nodelabel text-1 cell_CLOCK" s:attribute="ref">CLOCK</text>
    <s:alias val="$_inputExt_"/>
    <path d="M0,0 L0,20 L15,20 L30,10 L15,0 Z" class="cell_CLOCK fill-4"/>
    <g s:x="30" s:y="10" s:pid="Y"/>
  </g>
  <g s:type="inputExt" transform="translate(1148,1133.5)" s:width="30" s:height="20" id="cell_SW">
    <text x="15" y="-4" class="nodelabel text-1 cell_SW" s:attribute="ref">SW</text>
    <s:alias val="$_inputExt_"/>
    <path d="M0,0 L0,20 L15,20 L30,10 L15,0 Z" class="cell_SW fill-4"/>
    <g s:x="30" s:y="10" s:pid="Y"/>
  </g>
  <g s:type="outputExt" transform="translate(1519,1153.5)" s:width="30" s:height="20" id="cell_LEDR">
    <text x="15" y="-4" class="nodelabel text-1 cell_LEDR" s:attribute="ref">LEDR</text>
    <s:alias val="$_outputExt_"/>
    <path d="M30,0 L30,20 L15,20 L0,10 L15,0 Z" class="cell_LEDR fill-4"/>
    <g s:x="0" s:y="10" s:pid="A"/>
  </g>
  <g s:type="constant" transform="translate(12,22)" s:width="30" s:height="20" id="cell_0">
    <text x="15" y="-4" class="nodelabel text-1 cell_0" s:attribute="ref">0</text>
    <s:alias val="$_constant_"/>
    <rect width="30" height="20" class="cell_0 fill-4"/>
    <g s:x="31" s:y="10" s:pid="Y"/>
  </g>
  <g s:type="constant" transform="translate(12,1439)" s:width="30" s:height="20" id="cell_1">
    <text x="15" y="-4" class="nodelabel text-1 cell_1" s:attribute="ref">1</text>
    <s:alias val="$_constant_"/>
    <rect width="30" height="20" class="cell_1 fill-4"/>
    <g s:x="31" s:y="10" s:pid="Y"/>
  </g>
  <g s:type="constant" transform="translate(1250,1163.5)" s:width="30" s:height="20" id="cell_111111">
    <text x="15" y="-4" class="nodelabel text-1 cell_111111" s:attribute="ref">0x3f</text>
    <s:alias val="$_constant_"/>
    <rect width="30" height="20" class="cell_111111 fill-4"/>
    <g s:x="31" s:y="10" s:pid="Y"/>
  </g>
  <g s:type="join" transform="translate(413,121.5)" s:width="4" s:height="40" id="cell_$join$,9,10,11,12,13,14,15,16,17,18,19,20,21,22,23,24,25,26,27,28,29,30,31,32,33,34,35,36,37,38,39,">
    <rect width="5" height="40" class="splitjoinBody" s:generic="body"/>
    <s:alias val="$_join_"/>
    <g s:x="5" s:y="20" s:pid="out"/>
    <g transform="translate(0,10)" s:x="0" s:y="10" s:pid="in0">
      <text x="-3" y="-4" class="inputPortLabel text-2">0:6</text>
    </g>
    <g transform="translate(0,30)" s:x="0" s:y="10" s:pid="in0">
      <text x="-3" y="-4" class="inputPortLabel text-2">7:30</text>
    </g>
  </g>
  <g s:type="join" transform="translate(1390,1143)" s:width="4" s:height="40" id="cell_$join$,3,238,239,240,241,242,243,7,8,235,">
    <rect width="5" height="80" class="splitjoinBody" s:generic="body"/>
    <s:alias val="$_join_"/>
    <g s:x="5" s:y="20" s:pid="out"/>
    <g transform="translate(0,10)" s:x="0" s:y="10" s:pid="in0">
      <text x="-3" y="-4" class="inputPortLabel text-2">0</text>
    </g>
    <g transform="translate(0,30)" s:x="0" s:y="10" s:pid="in0">
      <text x="-3" y="-4" class="inputPortLabel text-2">1:6</text>
    </g>
    <g transform="translate(0,50)" s:x="0" s:y="10" s:pid="in0">
      <text x="-3" y="-4" class="inputPortLabel text-2">7:8</text>
    </g>
    <g transform="translate(0,70)" s:x="0" s:y="10" s:pid="in0">
      <text x="-3" y="-4" class="inputPortLabel text-2">9</text>
    </g>
  </g>
  <g s:type="split" transform="translate(335,1006)" s:width="5" s:height="40" id="cell_$split$,9,10,11,12,13,14,15,87,16,17,18,19,20,21,22,23,24,25,26,27,28,29,30,31,32,33,34,35,36,37,38,39,">
    <rect width="5" height="60" class="splitjoinBody" s:generic="body"/>
    <s:alias val="$_split_"/>
    <g s:x="0" s:y="20" s:pid="in"/>
    <g transform="translate(4,10)" s:x="4" s:y="10" s:pid="out0">
      <text x="5" y="-4" class="text-2">0:6</text>
    </g>
    <g transform="translate(4,30)" s:x="4" s:y="10" s:pid="out0">
      <text x="5" y="-4" class="text-2">8:31</text>
    </g>
    <g transform="translate(4,50)" s:x="4" s:y="10" s:pid="out0">
      <text x="5" y="-4" class="text-2">7</text>
    </g>
  </g>
  <g s:type="split" transform="translate(520,396.5)" s:width="5" s:height="40" id="cell_$split$,40,41,42,43,44,45,46,47,48,49,50,51,52,53,54,55,56,57,58,59,60,61,62,63,64,65,66,67,68,69,70,">
    <rect width="5" height="620" class="splitjoinBody" s:generic="body"/>
    <s:alias val="$_split_"/>
    <g s:x="0" s:y="20" s:pid="in"/>
    <g transform="translate(4,10)" s:x="4" s:y="10" s:pid="out0">
      <text x="5" y="-4" class="text-2">21</text>
    </g>
    <g transform="translate(4,30)" s:x="4" s:y="10" s:pid="out0">
      <text x="5" y="-4" class="text-2">22</text>
    </g>
    <g transform="translate(4,50)" s:x="4" s:y="10" s:pid="out0">
      <text x="5" y="-4" class="text-2">19</text>
    </g>
    <g transform="translate(4,70)" s:x="4" s:y="10" s:pid="out0">
      <text x="5" y="-4" class="text-2">20</text>
    </g>
    <g transform="translate(4,90)" s:x="4" s:y="10" s:pid="out0">
      <text x="5" y="-4" class="text-2">17</text>
    </g>
    <g transform="translate(4,110)" s:x="4" s:y="10" s:pid="out0">
      <text x="5" y="-4" class="text-2">18</text>
    </g>
    <g transform="translate(4,130)" s:x="4" s:y="10" s:pid="out0">
      <text x="5" y="-4" class="text-2">15</text>
    </g>
    <g transform="translate(4,150)" s:x="4" s:y="10" s:pid="out0">
      <text x="5" y="-4" class="text-2">16</text>
    </g>
    <g transform="translate(4,170)" s:x="4" s:y="10" s:pid="out0">
      <text x="5" y="-4" class="text-2">13</text>
    </g>
    <g transform="translate(4,190)" s:x="4" s:y="10" s:pid="out0">
      <text x="5" y="-4" class="text-2">14</text>
    </g>
    <g transform="translate(4,210)" s:x="4" s:y="10" s:pid="out0">
      <text x="5" y="-4" class="text-2">11</text>
    </g>
    <g transform="translate(4,230)" s:x="4" s:y="10" s:pid="out0">
      <text x="5" y="-4" class="text-2">12</text>
    </g>
    <g transform="translate(4,250)" s:x="4" s:y="10" s:pid="out0">
      <text x="5" y="-4" class="text-2">9</text>
    </g>
    <g transform="translate(4,270)" s:x="4" s:y="10" s:pid="out0">
      <text x="5" y="-4" class="text-2">10</text>
    </g>
    <g transform="translate(4,290)" s:x="4" s:y="10" s:pid="out0">
      <text x="5" y="-4" class="text-2">7</text>
    </g>
    <g transform="translate(4,310)" s:x="4" s:y="10" s:pid="out0">
      <text x="5" y="-4" class="text-2">8</text>
    </g>
    <g transform="translate(4,330)" s:x="4" s:y="10" s:pid="out0">
      <text x="5" y="-4" class="text-2">6</text>
    </g>
    <g transform="translate(4,350)" s:x="4" s:y="10" s:pid="out0">
      <text x="5" y="-4" class="text-2">4</text>
    </g>
    <g transform="translate(4,370)" s:x="4" s:y="10" s:pid="out0">
      <text x="5" y="-4" class="text-2">5</text>
    </g>
    <g transform="translate(4,390)" s:x="4" s:y="10" s:pid="out0">
      <text x="5" y="-4" class="text-2">2</text>
    </g>
    <g transform="translate(4,410)" s:x="4" s:y="10" s:pid="out0">
      <text x="5" y="-4" class="text-2">3</text>
    </g>
    <g transform="translate(4,430)" s:x="4" s:y="10" s:pid="out0">
      <text x="5" y="-4" class="text-2">0</text>
    </g>
    <g transform="translate(4,450)" s:x="4" s:y="10" s:pid="out0">
      <text x="5" y="-4" class="text-2">1</text>
    </g>
    <g transform="translate(4,470)" s:x="4" s:y="10" s:pid="out0">
      <text x="5" y="-4" class="text-2">29</text>
    </g>
    <g transform="translate(4,490)" s:x="4" s:y="10" s:pid="out0">
      <text x="5" y="-4" class="text-2">30</text>
    </g>
    <g transform="translate(4,510)" s:x="4" s:y="10" s:pid="out0">
      <text x="5" y="-4" class="text-2">27</text>
    </g>
    <g transform="translate(4,530)" s:x="4" s:y="10" s:pid="out0">
      <text x="5" y="-4" class="text-2">28</text>
    </g>
    <g transform="translate(4,550)" s:x="4" s:y="10" s:pid="out0">
      <text x="5" y="-4" class="text-2">25</text>
    </g>
    <g transform="translate(4,570)" s:x="4" s:y="10" s:pid="out0">
      <text x="5" y="-4" class="text-2">26</text>
    </g>
    <g transform="translate(4,590)" s:x="4" s:y="10" s:pid="out0">
      <text x="5" y="-4" class="text-2">23</text>
    </g>
    <g transform="translate(4,610)" s:x="4" s:y="10" s:pid="out0">
      <text x="5" y="-4" class="text-2">24</text>
    </g>
  </g>
  <g s:type="split" transform="translate(1154,1223.5)" s:width="5" s:height="40" id="cell_$split$,169,170,171,172,173,174,175,176,177,178,179,180,181,182,183,184,185,186,187,188,189,190,191,192,193,194,195,196,197,198,199,200,">
    <rect width="5" height="20" class="splitjoinBody" s:generic="body"/>
    <s:alias val="$_split_"/>
    <g s:x="0" s:y="20" s:pid="in"/>
    <g transform="translate(4,10)" s:x="4" s:y="10" s:pid="out0">
      <text x="5" y="-4" class="text-2">0:1</text>
    </g>
  </g>
  <g s:type="split" transform="translate(1275,1110.5)" s:width="5" s:height="40" id="cell_$split$,3,4,5,6,">
    <rect width="5" height="20" class="splitjoinBody" s:generic="body"/>
    <s:alias val="$_split_"/>
    <g s:x="0" s:y="20" s:pid="in"/>
    <g transform="translate(4,10)" s:x="4" s:y="10" s:pid="out0">
      <text x="5" y="-4" class="text-2">0</text>
    </g>
  </g>
  <line x1="419" x2="454" y1="142" y2="142" class="net_9,10,11,12,13,14,15,16,17,18,19,20,21,22,23,24,25,26,27,28,29,30,31,32,33,34,35,36,37,38,39"/>
  <line x1="524.5" x2="524.5" y1="406.5" y2="384.5" class="net_61"/>
  <line x1="524.5" x2="558" y1="384.5" y2="384.5" class="net_61"/>
  <line x1="558" x2="558" y1="384.5" y2="92" class="net_61"/>
  <line x1="558" x2="818" y1="92" y2="92" class="net_61"/>
  <line x1="524.5" x2="524.5" y1="426.5" y2="374.5" class="net_62"/>
  <line x1="524.5" x2="548" y1="374.5" y2="374.5" class="net_62"/>
  <line x1="548" x2="548" y1="374.5" y2="107" class="net_62"/>
  <line x1="548" x2="818" y1="107" y2="107" class="net_62"/>
  <line x1="524.5" x2="524.5" y1="446.5" y2="152" class="net_59"/>
  <line x1="524.5" x2="818" y1="152" y2="152" class="net_59"/>
  <line x1="525" x2="568" y1="467" y2="467" class="net_60"/>
  <line x1="568" x2="568" y1="467" y2="167" class="net_60"/>
  <line x1="568" x2="818" y1="167" y2="167" class="net_60"/>
  <line x1="848" x2="858" y1="99.5" y2="99.5" class="net_71"/>
  <line x1="858" x2="858" y1="99.5" y2="144.5" class="net_71"/>
  <line x1="858" x2="883" y1="144.5" y2="144.5" class="net_71"/>
  <line x1="848" x2="883" y1="159.5" y2="159.5" class="net_72"/>
  <line x1="525" x2="578" y1="487" y2="487" class="net_57"/>
  <line x1="578" x2="578" y1="487" y2="212" class="net_57"/>
  <line x1="578" x2="818" y1="212" y2="212" class="net_57"/>
  <line x1="525" x2="588" y1="507" y2="507" class="net_58"/>
  <line x1="588" x2="588" y1="507" y2="227" class="net_58"/>
  <line x1="588" x2="818" y1="227" y2="227" class="net_58"/>
  <line x1="525" x2="598" y1="527" y2="527" class="net_55"/>
  <line x1="598" x2="598" y1="527" y2="272" class="net_55"/>
  <line x1="598" x2="818" y1="272" y2="272" class="net_55"/>
  <line x1="525" x2="608" y1="547" y2="547" class="net_56"/>
  <line x1="608" x2="608" y1="547" y2="287" class="net_56"/>
  <line x1="608" x2="818" y1="287" y2="287" class="net_56"/>
  <line x1="848" x2="858" y1="219.5" y2="219.5" class="net_74"/>
  <line x1="858" x2="858" y1="219.5" y2="264.5" class="net_74"/>
  <line x1="858" x2="883" y1="264.5" y2="264.5" class="net_74"/>
  <line x1="848" x2="883" y1="279.5" y2="279.5" class="net_75"/>
  <line x1="913" x2="923" y1="152" y2="152" class="net_73"/>
  <line x1="923" x2="923" y1="152" y2="257" class="net_73"/>
  <line x1="923" x2="948" y1="257" y2="257" class="net_73"/>
  <line x1="913" x2="948" y1="272" y2="272" class="net_76"/>
  <line x1="978" x2="988" y1="1029" y2="1029" class="net_78"/>
  <line x1="988" x2="988" y1="1029" y2="249.5" class="net_78"/>
  <line x1="988" x2="1013" y1="249.5" y2="249.5" class="net_78"/>
  <line x1="978" x2="1013" y1="264.5" y2="264.5" class="net_77"/>
  <line x1="525" x2="618" y1="567" y2="567" class="net_53"/>
  <line x1="618" x2="618" y1="567" y2="332" class="net_53"/>
  <line x1="618" x2="818" y1="332" y2="332" class="net_53"/>
  <line x1="525" x2="628" y1="587" y2="587" class="net_54"/>
  <line x1="628" x2="628" y1="587" y2="347" class="net_54"/>
  <line x1="628" x2="818" y1="347" y2="347" class="net_54"/>
  <line x1="525" x2="638" y1="607" y2="607" class="net_51"/>
  <line x1="638" x2="638" y1="607" y2="392" class="net_51"/>
  <line x1="638" x2="818" y1="392" y2="392" class="net_51"/>
  <line x1="525" x2="648" y1="627" y2="627" class="net_52"/>
  <line x1="648" x2="648" y1="627" y2="407" class="net_52"/>
  <line x1="648" x2="818" y1="407" y2="407" class="net_52"/>
  <line x1="848" x2="858" y1="339.5" y2="339.5" class="net_80"/>
  <line x1="858" x2="858" y1="339.5" y2="384.5" class="net_80"/>
  <line x1="858" x2="883" y1="384.5" y2="384.5" class="net_80"/>
  <line x1="848" x2="883" y1="399.5" y2="399.5" class="net_81"/>
  <line x1="525" x2="658" y1="647" y2="647" class="net_49"/>
  <line x1="658" x2="658" y1="647" y2="452" class="net_49"/>
  <line x1="658" x2="818" y1="452" y2="452" class="net_49"/>
  <line x1="525" x2="668" y1="667" y2="667" class="net_50"/>
  <line x1="668" x2="668" y1="667" y2="467" class="net_50"/>
  <line x1="668" x2="818" y1="467" y2="467" class="net_50"/>
  <line x1="525" x2="678" y1="687" y2="687" class="net_47"/>
  <line x1="678" x2="678" y1="687" y2="512" class="net_47"/>
  <line x1="678" x2="818" y1="512" y2="512" class="net_47"/>
  <line x1="525" x2="688" y1="707" y2="707" class="net_48"/>
  <line x1="688" x2="688" y1="707" y2="527" class="net_48"/>
  <line x1="688" x2="818" y1="527" y2="527" class="net_48"/>
  <line x1="848" x2="858" y1="459.5" y2="459.5" class="net_83"/>
  <line x1="858" x2="858" y1="459.5" y2="504.5" class="net_83"/>
  <line x1="858" x2="883" y1="504.5" y2="504.5" class="net_83"/>
  <line x1="848" x2="883" y1="519.5" y2="519.5" class="net_84"/>
  <line x1="913" x2="923" y1="392" y2="392" class="net_82"/>
  <line x1="923" x2="923" y1="392" y2="497" class="net_82"/>
  <line x1="923" x2="948" y1="497" y2="497" class="net_82"/>
  <line x1="913" x2="948" y1="512" y2="512" class="net_85"/>
  <line x1="525" x2="778" y1="727" y2="727" class="net_46"/>
  <line x1="778" x2="778" y1="727" y2="812" class="net_46"/>
  <line x1="778" x2="818" y1="812" y2="812" class="net_46"/>
  <line x1="340" x2="788" y1="1056.5" y2="1056.5" class="net_87"/>
  <line x1="788" x2="788" y1="1056.5" y2="827" class="net_87"/>
  <line x1="788" x2="818" y1="827" y2="827" class="net_87"/>
  <line x1="525" x2="698" y1="747" y2="747" class="net_44"/>
  <line x1="698" x2="698" y1="747" y2="572" class="net_44"/>
  <line x1="698" x2="818" y1="572" y2="572" class="net_44"/>
  <line x1="525" x2="708" y1="767" y2="767" class="net_45"/>
  <line x1="708" x2="708" y1="767" y2="587" class="net_45"/>
  <line x1="708" x2="818" y1="587" y2="587" class="net_45"/>
  <line x1="848" x2="883" y1="819.5" y2="819.5" class="net_88"/>
  <line x1="848" x2="868" y1="579.5" y2="579.5" class="net_89"/>
  <line x1="868" x2="868" y1="579.5" y2="834.5" class="net_89"/>
  <line x1="868" x2="883" y1="834.5" y2="834.5" class="net_89"/>
  <line x1="525" x2="718" y1="787" y2="787" class="net_42"/>
  <line x1="718" x2="718" y1="787" y2="632" class="net_42"/>
  <line x1="718" x2="818" y1="632" y2="632" class="net_42"/>
  <line x1="525" x2="728" y1="807" y2="807" class="net_43"/>
  <line x1="728" x2="728" y1="807" y2="647" class="net_43"/>
  <line x1="728" x2="818" y1="647" y2="647" class="net_43"/>
  <line x1="525" x2="738" y1="827" y2="827" class="net_40"/>
  <line x1="738" x2="738" y1="827" y2="692" class="net_40"/>
  <line x1="738" x2="818" y1="692" y2="692" class="net_40"/>
  <line x1="525" x2="748" y1="847" y2="847" class="net_41"/>
  <line x1="748" x2="748" y1="847" y2="707" class="net_41"/>
  <line x1="748" x2="818" y1="707" y2="707" class="net_41"/>
  <line x1="848" x2="858" y1="639.5" y2="639.5" class="net_91"/>
  <line x1="858" x2="858" y1="639.5" y2="684.5" class="net_91"/>
  <line x1="858" x2="883" y1="684.5" y2="684.5" class="net_91"/>
  <line x1="848" x2="883" y1="699.5" y2="699.5" class="net_92"/>
  <line x1="913" x2="948" y1="827" y2="827" class="net_90"/>
  <line x1="913" x2="923" y1="692" y2="692" class="net_93"/>
  <line x1="923" x2="923" y1="692" y2="842" class="net_93"/>
  <line x1="923" x2="948" y1="842" y2="842" class="net_93"/>
  <line x1="978" x2="998" y1="504.5" y2="504.5" class="net_86"/>
  <line x1="998" x2="998" y1="504.5" y2="819.5" class="net_86"/>
  <line x1="998" x2="1013" y1="819.5" y2="819.5" class="net_86"/>
  <line x1="978" x2="1013" y1="834.5" y2="834.5" class="net_94"/>
  <line x1="1043" x2="1053" y1="257" y2="257" class="net_79"/>
  <line x1="1053" x2="1053" y1="257" y2="812" class="net_79"/>
  <line x1="1053" x2="1078" y1="812" y2="812" class="net_79"/>
  <line x1="1043" x2="1078" y1="827" y2="827" class="net_95"/>
  <line x1="209" x2="1128" y1="1361.5" y2="1361.5" class="net_97"/>
  <line x1="1128" x2="1128" y1="1361.5" y2="1271.5" class="net_97"/>
  <circle cx="1128" cy="1361.5" r="2" style="fill:#000" class="net_97"/>
  <line x1="1128" x2="1148" y1="1271.5" y2="1271.5" class="net_97"/>
  <line x1="209" x2="1519" y1="1361.5" y2="1361.5" class="net_97"/>
  <line x1="1108" x2="1138" y1="819.5" y2="819.5" class="net_96"/>
  <line x1="1138" x2="1138" y1="819.5" y2="1286.5" class="net_96"/>
  <line x1="1138" x2="1148" y1="1286.5" y2="1286.5" class="net_96"/>
  <line x1="525" x2="758" y1="867" y2="867" class="net_69"/>
  <line x1="758" x2="758" y1="867" y2="752" class="net_69"/>
  <line x1="758" x2="818" y1="752" y2="752" class="net_69"/>
  <line x1="525" x2="768" y1="887" y2="887" class="net_70"/>
  <line x1="768" x2="768" y1="887" y2="767" class="net_70"/>
  <line x1="768" x2="818" y1="767" y2="767" class="net_70"/>
  <line x1="525" x2="778" y1="907" y2="907" class="net_67"/>
  <line x1="778" x2="778" y1="907" y2="887" class="net_67"/>
  <line x1="778" x2="818" y1="887" y2="887" class="net_67"/>
  <line x1="525" x2="798" y1="927" y2="927" class="net_68"/>
  <line x1="798" x2="798" y1="927" y2="902" class="net_68"/>
  <line x1="798" x2="818" y1="902" y2="902" class="net_68"/>
  <line x1="848" x2="858" y1="759.5" y2="759.5" class="net_99"/>
  <line x1="858" x2="858" y1="759.5" y2="879.5" class="net_99"/>
  <line x1="858" x2="883" y1="879.5" y2="879.5" class="net_99"/>
  <line x1="848" x2="883" y1="894.5" y2="894.5" class="net_100"/>
  <line x1="525" x2="818" y1="947" y2="947" class="net_65"/>
  <line x1="524.5" x2="524.5" y1="967.5" y2="1046.5" class="net_66"/>
  <line x1="524.5" x2="798" y1="1046.5" y2="1046.5" class="net_66"/>
  <line x1="798" x2="798" y1="1046.5" y2="962" class="net_66"/>
  <line x1="798" x2="818" y1="962" y2="962" class="net_66"/>
  <line x1="524.5" x2="524.5" y1="987.5" y2="1036.5" class="net_63"/>
  <line x1="524.5" x2="818" y1="1036.5" y2="1036.5" class="net_63"/>
  <line x1="524.5" x2="524.5" y1="1007.5" y2="1026.5" class="net_64"/>
  <line x1="524.5" x2="808" y1="1026.5" y2="1026.5" class="net_64"/>
  <line x1="808" x2="808" y1="1026.5" y2="1051.5" class="net_64"/>
  <line x1="808" x2="818" y1="1051.5" y2="1051.5" class="net_64"/>
  <line x1="848" x2="858" y1="954.5" y2="954.5" class="net_102"/>
  <line x1="858" x2="858" y1="954.5" y2="1029" class="net_102"/>
  <line x1="858" x2="883" y1="1029" y2="1029" class="net_102"/>
  <line x1="848" x2="883" y1="1044" y2="1044" class="net_103"/>
  <line x1="913" x2="923" y1="887" y2="887" class="net_101"/>
  <line x1="923" x2="923" y1="887" y2="1021.5" class="net_101"/>
  <line x1="923" x2="948" y1="1021.5" y2="1021.5" class="net_101"/>
  <line x1="913" x2="948" y1="1036.5" y2="1036.5" class="net_104"/>
  <line x1="43" x2="83" y1="32" y2="32" class="net_234"/>
  <line x1="83" x2="83" y1="32" y2="1281.5" class="net_234"/>
  <circle cx="83" cy="32" r="2" style="fill:#000" class="net_234"/>
  <line x1="83" x2="178" y1="1281.5" y2="1281.5" class="net_234"/>
  <line x1="43" x2="1198" y1="32" y2="32" class="net_234"/>
  <line x1="1198" x2="1198" y1="32" y2="1239" class="net_234"/>
  <line x1="1198" x2="1250" y1="1239" y2="1239" class="net_234"/>
  <line x1="42" x2="73" y1="1384" y2="1384" class="net_2"/>
  <line x1="73" x2="73" y1="1384" y2="1301.5" class="net_2"/>
  <circle cx="73" cy="1384" r="2" style="fill:#000" class="net_2"/>
  <circle cx="73" cy="1301.5" r="2" style="fill:#000" class="net_2"/>
  <line x1="73" x2="178" y1="1301.5" y2="1301.5" class="net_2"/>
  <line x1="42" x2="73" y1="1384" y2="1384" class="net_2"/>
  <line x1="73" x2="73" y1="1384" y2="65" class="net_2"/>
  <line x1="73" x2="1436" y1="65" y2="65" class="net_2"/>
  <line x1="1436" x2="1436" y1="65" y2="1301.5" class="net_2"/>
  <line x1="1436" x2="1519" y1="1301.5" y2="1301.5" class="net_2"/>
  <line x1="42" x2="1416" y1="1384" y2="1384" class="net_2"/>
  <line x1="1416" x2="1416" y1="1384" y2="1096" class="net_2"/>
  <line x1="1416" x2="1519" y1="1096" y2="1096" class="net_2"/>
  <line x1="42" x2="1198" y1="1384" y2="1384" class="net_2"/>
  <line x1="1198" x2="1198" y1="1384" y2="1259" class="net_2"/>
  <circle cx="1198" cy="1384" r="2" style="fill:#000" class="net_2"/>
  <line x1="1198" x2="1250" y1="1259" y2="1259" class="net_2"/>
  <line x1="1550" x2="1627" y1="1281.5" y2="1281.5" class="net_137,138,139,140,141,142,143,144,145,146,147,148,149,150,151,152,153,154,155,156,157,158,159,160,161,162,163,164,165,166,167,168"/>
  <line x1="1627" x2="1627" y1="1281.5" y2="54" class="net_137,138,139,140,141,142,143,144,145,146,147,148,149,150,151,152,153,154,155,156,157,158,159,160,161,162,163,164,165,166,167,168"/>
  <line x1="1627" x2="63" y1="54" y2="54" class="net_137,138,139,140,141,142,143,144,145,146,147,148,149,150,151,152,153,154,155,156,157,158,159,160,161,162,163,164,165,166,167,168"/>
  <line x1="63" x2="63" y1="54" y2="1321.5" class="net_137,138,139,140,141,142,143,144,145,146,147,148,149,150,151,152,153,154,155,156,157,158,159,160,161,162,163,164,165,166,167,168"/>
  <line x1="63" x2="178" y1="1321.5" y2="1321.5" class="net_137,138,139,140,141,142,143,144,145,146,147,148,149,150,151,152,153,154,155,156,157,158,159,160,161,162,163,164,165,166,167,168"/>
  <line x1="1550" x2="1637" y1="1076" y2="1076" class="net_201,202,203,204,205,206,207,208,209,210,211,212,213,214,215,216,217,218,219,220,221,222,223,224,225,226,227,228,229,230,231,232"/>
  <line x1="1637" x2="1637" y1="1076" y2="43" class="net_201,202,203,204,205,206,207,208,209,210,211,212,213,214,215,216,217,218,219,220,221,222,223,224,225,226,227,228,229,230,231,232"/>
  <line x1="1637" x2="53" y1="43" y2="43" class="net_201,202,203,204,205,206,207,208,209,210,211,212,213,214,215,216,217,218,219,220,221,222,223,224,225,226,227,228,229,230,231,232"/>
  <line x1="53" x2="53" y1="43" y2="1341.5" class="net_201,202,203,204,205,206,207,208,209,210,211,212,213,214,215,216,217,218,219,220,221,222,223,224,225,226,227,228,229,230,231,232"/>
  <line x1="53" x2="178" y1="1341.5" y2="1341.5" class="net_201,202,203,204,205,206,207,208,209,210,211,212,213,214,215,216,217,218,219,220,221,222,223,224,225,226,227,228,229,230,231,232"/>
  <line x1="43" x2="83" y1="1449" y2="1449" class="net_235"/>
  <line x1="83" x2="83" y1="1449" y2="1361.5" class="net_235"/>
  <circle cx="83" cy="1449" r="2" style="fill:#000" class="net_235"/>
  <line x1="83" x2="178" y1="1361.5" y2="1361.5" class="net_235"/>
  <line x1="43" x2="1426" y1="1449" y2="1449" class="net_235"/>
  <line x1="1426" x2="1426" y1="1449" y2="1321.5" class="net_235"/>
  <line x1="1426" x2="1519" y1="1321.5" y2="1321.5" class="net_235"/>
  <line x1="43" x2="1358" y1="1449" y2="1449" class="net_235"/>
  <line x1="1358" x2="1358" y1="1449" y2="1439" class="net_235"/>
  <line x1="1358" x2="1390.5" y1="1439" y2="1439" class="net_235"/>
  <circle cx="1358" cy="1449" r="2" style="fill:#000" class="net_235"/>
  <line x1="1390.5" x2="1390.5" y1="1439" y2="1214" class="net_235"/>
  <line x1="209" x2="310" y1="1281.5" y2="1281.5" class="net_9,10,11,12,13,14,15,87,16,17,18,19,20,21,22,23,24,25,26,27,28,29,30,31,32,33,34,35,36,37,38,39"/>
  <line x1="310" x2="310" y1="1281.5" y2="76" class="net_9,10,11,12,13,14,15,87,16,17,18,19,20,21,22,23,24,25,26,27,28,29,30,31,32,33,34,35,36,37,38,39"/>
  <line x1="310" x2="1426" y1="76" y2="76" class="net_9,10,11,12,13,14,15,87,16,17,18,19,20,21,22,23,24,25,26,27,28,29,30,31,32,33,34,35,36,37,38,39"/>
  <line x1="1426" x2="1426" y1="76" y2="1281.5" class="net_9,10,11,12,13,14,15,87,16,17,18,19,20,21,22,23,24,25,26,27,28,29,30,31,32,33,34,35,36,37,38,39"/>
  <line x1="1426" x2="1519" y1="1281.5" y2="1281.5" class="net_9,10,11,12,13,14,15,87,16,17,18,19,20,21,22,23,24,25,26,27,28,29,30,31,32,33,34,35,36,37,38,39"/>
  <line x1="209" x2="310" y1="1281.5" y2="1281.5" class="net_9,10,11,12,13,14,15,87,16,17,18,19,20,21,22,23,24,25,26,27,28,29,30,31,32,33,34,35,36,37,38,39"/>
  <line x1="310" x2="310" y1="1281.5" y2="1026.5" class="net_9,10,11,12,13,14,15,87,16,17,18,19,20,21,22,23,24,25,26,27,28,29,30,31,32,33,34,35,36,37,38,39"/>
  <circle cx="310" cy="1026.5" r="2" style="fill:#000" class="net_9,10,11,12,13,14,15,87,16,17,18,19,20,21,22,23,24,25,26,27,28,29,30,31,32,33,34,35,36,37,38,39"/>
  <line x1="310" x2="335" y1="1026.5" y2="1026.5" class="net_9,10,11,12,13,14,15,87,16,17,18,19,20,21,22,23,24,25,26,27,28,29,30,31,32,33,34,35,36,37,38,39"/>
  <line x1="209" x2="1519" y1="1341.5" y2="1341.5" class="net_233"/>
  <line x1="209" x2="1406" y1="1321.5" y2="1321.5" class="net_169,170,171,172,173,174,175,176,177,178,179,180,181,182,183,184,185,186,187,188,189,190,191,192,193,194,195,196,197,198,199,200"/>
  <line x1="1406" x2="1406" y1="1321.5" y2="1381.5" class="net_169,170,171,172,173,174,175,176,177,178,179,180,181,182,183,184,185,186,187,188,189,190,191,192,193,194,195,196,197,198,199,200"/>
  <line x1="1406" x2="1519" y1="1381.5" y2="1381.5" class="net_169,170,171,172,173,174,175,176,177,178,179,180,181,182,183,184,185,186,187,188,189,190,191,192,193,194,195,196,197,198,199,200"/>
  <line x1="209" x2="1118" y1="1321.5" y2="1321.5" class="net_169,170,171,172,173,174,175,176,177,178,179,180,181,182,183,184,185,186,187,188,189,190,191,192,193,194,195,196,197,198,199,200"/>
  <line x1="1118" x2="1118" y1="1321.5" y2="1256.5" class="net_169,170,171,172,173,174,175,176,177,178,179,180,181,182,183,184,185,186,187,188,189,190,191,192,193,194,195,196,197,198,199,200"/>
  <line x1="1118" x2="1154.5" y1="1256.5" y2="1256.5" class="net_169,170,171,172,173,174,175,176,177,178,179,180,181,182,183,184,185,186,187,188,189,190,191,192,193,194,195,196,197,198,199,200"/>
  <circle cx="1118" cy="1321.5" r="2" style="fill:#000" class="net_169,170,171,172,173,174,175,176,177,178,179,180,181,182,183,184,185,186,187,188,189,190,191,192,193,194,195,196,197,198,199,200"/>
  <line x1="1154.5" x2="1154.5" y1="1256.5" y2="1244.5" class="net_169,170,171,172,173,174,175,176,177,178,179,180,181,182,183,184,185,186,187,188,189,190,191,192,193,194,195,196,197,198,199,200"/>
  <line x1="209" x2="320" y1="1301.5" y2="1301.5" class="net_105,106,107,108,109,110,111,112,113,114,115,116,117,118,119,120,121,122,123,124,125,126,127,128,129,130,131,132,133,134,135,136"/>
  <line x1="320" x2="320" y1="1301.5" y2="1076" class="net_105,106,107,108,109,110,111,112,113,114,115,116,117,118,119,120,121,122,123,124,125,126,127,128,129,130,131,132,133,134,135,136"/>
  <line x1="320" x2="1519" y1="1076" y2="1076" class="net_105,106,107,108,109,110,111,112,113,114,115,116,117,118,119,120,121,122,123,124,125,126,127,128,129,130,131,132,133,134,135,136"/>
  <line x1="1178" x2="1250" y1="1279" y2="1279" class="net_98"/>
  <line x1="1159" x2="1188" y1="1234" y2="1234" class="net_169,170"/>
  <line x1="1188" x2="1188" y1="1234" y2="1299" class="net_169,170"/>
  <line x1="1188" x2="1250" y1="1299" y2="1299" class="net_169,170"/>
  <line x1="1396" x2="1519" y1="1163.5" y2="1163.5" class="net_3,238,239,240,241,242,243,7,8,235"/>
  <line x1="340" x2="369" y1="1016.5" y2="1016.5" class="net_9,10,11,12,13,14,15"/>
  <line x1="369" x2="369" y1="1016.5" y2="132" class="net_9,10,11,12,13,14,15"/>
  <line x1="369" x2="413" y1="132" y2="132" class="net_9,10,11,12,13,14,15"/>
  <line x1="340" x2="379" y1="1036.5" y2="1036.5" class="net_16,17,18,19,20,21,22,23,24,25,26,27,28,29,30,31,32,33,34,35,36,37,38,39"/>
  <line x1="379" x2="379" y1="1036.5" y2="152" class="net_16,17,18,19,20,21,22,23,24,25,26,27,28,29,30,31,32,33,34,35,36,37,38,39"/>
  <line x1="379" x2="413" y1="152" y2="152" class="net_16,17,18,19,20,21,22,23,24,25,26,27,28,29,30,31,32,33,34,35,36,37,38,39"/>
  <line x1="1280" x2="1358" y1="1121" y2="1121" class="net_3"/>
  <line x1="1358" x2="1358" y1="1121" y2="1153.5" class="net_3"/>
  <line x1="1358" x2="1390" y1="1153.5" y2="1153.5" class="net_3"/>
  <line x1="1281" x2="1390" y1="1173.5" y2="1173.5" class="net_238,239,240,241,242,243"/>
  <line x1="1281" x2="1358" y1="1239" y2="1239" class="net_7,8"/>
  <line x1="1358" x2="1358" y1="1239" y2="1193.5" class="net_7,8"/>
  <line x1="1358" x2="1390" y1="1193.5" y2="1193.5" class="net_7,8"/>
  <line x1="482" x2="520.5" y1="142" y2="142" class="net_40,41,42,43,44,45,46,47,48,49,50,51,52,53,54,55,56,57,58,59,60,61,62,63,64,65,66,67,68,69,70"/>
  <line x1="520.5" x2="520.5" y1="142" y2="416.5" class="net_40,41,42,43,44,45,46,47,48,49,50,51,52,53,54,55,56,57,58,59,60,61,62,63,64,65,66,67,68,69,70"/>
  <line x1="1178" x2="1275.5" y1="1143.5" y2="1143.5" class="net_3,4,5,6"/>
  <line x1="1275.5" x2="1275.5" y1="1143.5" y2="1131.5" class="net_3,4,5,6"/>
</svg>
