<svg xmlns="http://www.w3.org/2000/svg" xmlns:xlink="http://www.w3.org/1999/xlink" xmlns:s="https://github.com/nturley/netlistsvg" width="233" height="139">
  <style>  svg {
      stroke: #011e41;
      fill: none;
    }
    text {
      fill:#ffffff;
      stroke:none;
      font-size:10px;
      font-weight: bold;
      font-family: "Courier New", monospace;
    }
    .fill-1 { fill: #003262; }
    .fill-2 { fill: #011e41; stroke: #003262; }
    .fill-3 { fill: #ffffff; }
    .fill-4 { fill: #003262; }
    .fill-5 { fill: #011e41; stroke: #fdda64; }
    .text-1 { fill: #fdb515; }
    .text-2 { fill: #003262; }
    .text-3 { stroke: #fdda64; }
    .nodelabel { text-anchor: middle; }
    .inputPortLabel { text-anchor: end; }
    .splitjoinBody { fill: #3c3c43; }</style>
  <g s:type="inputExt" transform="translate(12,22)" s:width="30" s:height="20" id="cell_CLOCK">
    <text x="15" y="-4" class="nodelabel text-1 cell_CLOCK" s:attribute="ref">CLOCK</text>
    <s:alias val="$_inputExt_"/>
    <path d="M0,0 L0,20 L15,20 L30,10 L15,0 Z" class="cell_CLOCK fill-4"/>
    <g s:x="30" s:y="10" s:pid="Y"/>
  </g>
  <g s:type="inputExt" transform="translate(12,77)" s:width="30" s:height="20" id="cell_SW">
    <text x="15" y="-4" class="nodelabel text-1 cell_SW" s:attribute="ref">SW</text>
    <s:alias val="$_inputExt_"/>
    <path d="M0,0 L0,20 L15,20 L30,10 L15,0 Z" class="cell_SW fill-4"/>
    <g s:x="30" s:y="10" s:pid="Y"/>
  </g>
  <g s:type="outputExt" transform="translate(191,97)" s:width="30" s:height="20" id="cell_LED">
    <text x="15" y="-4" class="nodelabel text-1 cell_LED" s:attribute="ref">LED</text>
    <s:alias val="$_outputExt_"/>
    <path d="M30,0 L30,20 L15,20 L0,10 L15,0 Z" class="cell_LED fill-4"/>
    <g s:x="0" s:y="10" s:pid="A"/>
  </g>
  <g s:type="constant" transform="translate(77,107)" s:width="30" s:height="20" id="cell_0000000">
    <text x="15" y="-4" class="nodelabel text-1 cell_0000000" s:attribute="ref">0x0</text>
    <s:alias val="$_constant_"/>
    <rect width="30" height="20" class="cell_0000000 fill-4"/>
    <g s:x="31" s:y="10" s:pid="Y"/>
  </g>
  <g s:type="join" transform="translate(150,86.5)" s:width="4" s:height="40" id="cell_$join$,4,7,8,9,10,11,12,13,">
    <rect width="5" height="40" class="splitjoinBody" s:generic="body"/>
    <s:alias val="$_join_"/>
    <g s:x="5" s:y="20" s:pid="out"/>
    <g transform="translate(0,10)" s:x="0" s:y="10" s:pid="in0">
      <text x="-3" y="-4" class="inputPortLabel text-2">0</text>
    </g>
    <g transform="translate(0,30)" s:x="0" s:y="10" s:pid="in0">
      <text x="-3" y="-4" class="inputPortLabel text-2">1:7</text>
    </g>
  </g>
  <g s:type="split" transform="translate(96,54)" s:width="5" s:height="40" id="cell_$split$,3,4,5,6,">
    <rect width="5" height="20" class="splitjoinBody" s:generic="body"/>
    <s:alias val="$_split_"/>
    <g s:x="0" s:y="20" s:pid="in"/>
    <g transform="translate(4,10)" s:x="4" s:y="10" s:pid="out0">
      <text x="5" y="-4" class="text-2">1</text>
    </g>
  </g>
  <line x1="156" x2="191" y1="107" y2="107" class="net_4,7,8,9,10,11,12,13"/>
  <line x1="101" x2="118" y1="64.5" y2="64.5" class="net_4"/>
  <line x1="118" x2="118" y1="64.5" y2="97" class="net_4"/>
  <line x1="118" x2="150" y1="97" y2="97" class="net_4"/>
  <line x1="108" x2="150" y1="117" y2="117" class="net_7,8,9,10,11,12,13"/>
  <line x1="42" x2="96.5" y1="87" y2="87" class="net_3,4,5,6"/>
  <line x1="96.5" x2="96.5" y1="87" y2="75" class="net_3,4,5,6"/>
</svg>
