<svg xmlns="http://www.w3.org/2000/svg" xmlns:xlink="http://www.w3.org/1999/xlink" xmlns:s="https://github.com/nturley/netlistsvg" width="638" height="1075">
  <style>svg {
    stroke:#000;
    fill:none;
  }
  text {
    fill:#000;
    stroke:none;
    font-size:10px;
    font-weight: bold;
    font-family: "Courier New", monospace;
  }
  .nodelabel {
    text-anchor: middle;
  }
  .inputPortLabel {
    text-anchor: end;
  }
  .splitjoinBody {
    fill:#000;
  }</style>
  <g s:type="and" transform="translate(365.3333333333333,1033)" s:width="30" s:height="25" id="cell_\18">
    <s:alias val="$and"/>
    <s:alias val="$logic_and"/>
    <s:alias val="$_AND_"/>
    <path d="M0,0 L0,25 L15,25 A15 12.5 0 0 0 15,0 Z" class="cell_\18"/>
    <g s:x="0" s:y="5" s:pid="A"/>
    <g s:x="0" s:y="20" s:pid="B"/>
    <g s:x="30" s:y="12.5" s:pid="Y"/>
  </g>
  <g s:type="generic" transform="translate(487,1015)" s:width="30" s:height="40" id="cell_\23">
    <text x="15" y="-4" class="nodelabel cell_\23" s:attribute="ref">$tribuf</text>
    <rect width="30" height="40" s:generic="body" class="cell_\23"/>
    <g transform="translate(0,10)" s:x="0" s:y="10" s:pid="in0" id="port_\23~A">
      <text x="-3" y="-4" class="inputPortLabel cell_\23">A</text>
    </g>
    <g transform="translate(0,30)" s:x="0" s:y="10" s:pid="in0" id="port_\23~EN">
      <text x="-3" y="-4" class="inputPortLabel cell_\23">EN</text>
    </g>
    <g transform="translate(30,10)" s:x="30" s:y="10" s:pid="out0" id="port_\23~Y">
      <text x="5" y="-4" style="fill:#000; stroke:none" class="cell_\23">Y</text>
    </g>
  </g>
  <g s:type="and" transform="translate(123,870)" s:width="30" s:height="25" id="cell_\4">
    <s:alias val="$and"/>
    <s:alias val="$logic_and"/>
    <s:alias val="$_AND_"/>
    <path d="M0,0 L0,25 L15,25 A15 12.5 0 0 0 15,0 Z" class="cell_\4"/>
    <g s:x="0" s:y="5" s:pid="A"/>
    <g s:x="0" s:y="20" s:pid="B"/>
    <g s:x="30" s:y="12.5" s:pid="Y"/>
  </g>
  <g s:type="generic" transform="translate(365,182)" s:width="30" s:height="40" id="cell_ram">
    <text x="15" y="-4" class="nodelabel cell_ram" s:attribute="ref">$mem_v2</text>
    <rect width="30" height="180" s:generic="body" class="cell_ram"/>
    <g transform="translate(0,10)" s:x="0" s:y="10" s:pid="in0" id="port_ram~RD_ADDR">
      <text x="-3" y="-4" class="inputPortLabel cell_ram">RD_ADDR</text>
    </g>
    <g transform="translate(0,30)" s:x="0" s:y="10" s:pid="in0" id="port_ram~RD_ARST">
      <text x="-3" y="-4" class="inputPortLabel cell_ram">RD_ARST</text>
    </g>
    <g transform="translate(0,50)" s:x="0" s:y="10" s:pid="in0" id="port_ram~RD_CLK">
      <text x="-3" y="-4" class="inputPortLabel cell_ram">RD_CLK</text>
    </g>
    <g transform="translate(0,70)" s:x="0" s:y="10" s:pid="in0" id="port_ram~RD_EN">
      <text x="-3" y="-4" class="inputPortLabel cell_ram">RD_EN</text>
    </g>
    <g transform="translate(0,90)" s:x="0" s:y="10" s:pid="in0" id="port_ram~RD_SRST">
      <text x="-3" y="-4" class="inputPortLabel cell_ram">RD_SRST</text>
    </g>
    <g transform="translate(0,110)" s:x="0" s:y="10" s:pid="in0" id="port_ram~WR_ADDR">
      <text x="-3" y="-4" class="inputPortLabel cell_ram">WR_ADDR</text>
    </g>
    <g transform="translate(0,130)" s:x="0" s:y="10" s:pid="in0" id="port_ram~WR_CLK">
      <text x="-3" y="-4" class="inputPortLabel cell_ram">WR_CLK</text>
    </g>
    <g transform="translate(0,150)" s:x="0" s:y="10" s:pid="in0" id="port_ram~WR_DATA">
      <text x="-3" y="-4" class="inputPortLabel cell_ram">WR_DATA</text>
    </g>
    <g transform="translate(0,170)" s:x="0" s:y="10" s:pid="in0" id="port_ram~WR_EN">
      <text x="-3" y="-4" class="inputPortLabel cell_ram">WR_EN</text>
    </g>
    <g transform="translate(30,10)" s:x="30" s:y="10" s:pid="out0" id="port_ram~RD_DATA">
      <text x="5" y="-4" style="fill:#000; stroke:none" class="cell_ram">RD_DATA</text>
    </g>
  </g>
  <g s:type="inputExt" transform="translate(196,195)" s:width="30" s:height="20" id="cell_clock">
    <text x="15" y="-4" class="nodelabel cell_clock" s:attribute="ref">clock</text>
    <s:alias val="$_inputExt_"/>
    <path d="M0,0 L0,20 L15,20 L30,10 L15,0 Z" class="cell_clock"/>
    <g s:x="28" s:y="10" s:pid="Y"/>
  </g>
  <g s:type="inputExt" transform="translate(12,815)" s:width="30" s:height="20" id="cell_enable">
    <text x="15" y="-4" class="nodelabel cell_enable" s:attribute="ref">enable</text>
    <s:alias val="$_inputExt_"/>
    <path d="M0,0 L0,20 L15,20 L30,10 L15,0 Z" class="cell_enable"/>
    <g s:x="28" s:y="10" s:pid="Y"/>
  </g>
  <g s:type="inputExt" transform="translate(196,1043)" s:width="30" s:height="20" id="cell_enable_read">
    <text x="15" y="-4" class="nodelabel cell_enable_read" s:attribute="ref">enable_read</text>
    <s:alias val="$_inputExt_"/>
    <path d="M0,0 L0,20 L15,20 L30,10 L15,0 Z" class="cell_enable_read"/>
    <g s:x="28" s:y="10" s:pid="Y"/>
  </g>
  <g s:type="inputExt" transform="translate(12,880)" s:width="30" s:height="20" id="cell_enable_write">
    <text x="15" y="-4" class="nodelabel cell_enable_write" s:attribute="ref">enable_write</text>
    <s:alias val="$_inputExt_"/>
    <path d="M0,0 L0,20 L15,20 L30,10 L15,0 Z" class="cell_enable_write"/>
    <g s:x="28" s:y="10" s:pid="Y"/>
  </g>
  <g s:type="inputExt" transform="translate(119,100)" s:width="30" s:height="20" id="cell_address">
    <text x="15" y="-4" class="nodelabel cell_address" s:attribute="ref">address</text>
    <s:alias val="$_inputExt_"/>
    <path d="M0,0 L0,20 L15,20 L30,10 L15,0 Z" class="cell_address"/>
    <g s:x="28" s:y="10" s:pid="Y"/>
  </g>
  <g s:type="inputExt" transform="translate(196,260)" s:width="30" s:height="20" id="cell_source">
    <text x="15" y="-4" class="nodelabel cell_source" s:attribute="ref">source</text>
    <s:alias val="$_inputExt_"/>
    <path d="M0,0 L0,20 L15,20 L30,10 L15,0 Z" class="cell_source"/>
    <g s:x="28" s:y="10" s:pid="Y"/>
  </g>
  <g s:type="outputExt" transform="translate(560,1015.5)" s:width="30" s:height="20" id="cell_destination">
    <text x="15" y="-4" class="nodelabel cell_destination" s:attribute="ref">destination</text>
    <s:alias val="$_outputExt_"/>
    <path d="M30,0 L30,20 L15,20 L0,10 L15,0 Z" class="cell_destination"/>
    <g s:x="0" s:y="10" s:pid="A"/>
  </g>
  <g s:type="constant" transform="translate(196,22)" s:width="30" s:height="20" id="cell_0">
    <text x="15" y="-4" class="nodelabel cell_0" s:attribute="ref">0</text>
    <s:alias val="$_constant_"/>
    <rect width="30" height="20" class="cell_0"/>
    <g s:x="30" s:y="10" s:pid="Y"/>
  </g>
  <g s:type="constant" transform="translate(196,130)" s:width="30" s:height="20" id="cell_1">
    <text x="15" y="-4" class="nodelabel cell_1" s:attribute="ref">1</text>
    <s:alias val="$_constant_"/>
    <rect width="30" height="20" class="cell_1"/>
    <g s:x="30" s:y="10" s:pid="Y"/>
  </g>
  <g s:type="join" transform="translate(198.48,332)" s:width="4" s:height="40" id="cell_$join$,135,135,135,135,135,135,135,135,135,135,135,135,135,135,135,135,135,135,135,135,135,135,135,135,135,135,135,135,135,135,135,135,">
    <rect width="5" height="640" class="splitjoinBody" s:generic="body"/>
    <s:alias val="$_join_"/>
    <g s:x="5" s:y="20" s:pid="out"/>
    <g transform="translate(0,10)" s:x="0" s:y="10" s:pid="in0">
      <text x="-3" y="-4" class="inputPortLabel">0</text>
    </g>
    <g transform="translate(0,30)" s:x="0" s:y="10" s:pid="in0">
      <text x="-3" y="-4" class="inputPortLabel">1</text>
    </g>
    <g transform="translate(0,50)" s:x="0" s:y="10" s:pid="in0">
      <text x="-3" y="-4" class="inputPortLabel">2</text>
    </g>
    <g transform="translate(0,70)" s:x="0" s:y="10" s:pid="in0">
      <text x="-3" y="-4" class="inputPortLabel">3</text>
    </g>
    <g transform="translate(0,90)" s:x="0" s:y="10" s:pid="in0">
      <text x="-3" y="-4" class="inputPortLabel">4</text>
    </g>
    <g transform="translate(0,110)" s:x="0" s:y="10" s:pid="in0">
      <text x="-3" y="-4" class="inputPortLabel">5</text>
    </g>
    <g transform="translate(0,130)" s:x="0" s:y="10" s:pid="in0">
      <text x="-3" y="-4" class="inputPortLabel">6</text>
    </g>
    <g transform="translate(0,150)" s:x="0" s:y="10" s:pid="in0">
      <text x="-3" y="-4" class="inputPortLabel">7</text>
    </g>
    <g transform="translate(0,170)" s:x="0" s:y="10" s:pid="in0">
      <text x="-3" y="-4" class="inputPortLabel">8</text>
    </g>
    <g transform="translate(0,190)" s:x="0" s:y="10" s:pid="in0">
      <text x="-3" y="-4" class="inputPortLabel">9</text>
    </g>
    <g transform="translate(0,210)" s:x="0" s:y="10" s:pid="in0">
      <text x="-3" y="-4" class="inputPortLabel">10</text>
    </g>
    <g transform="translate(0,230)" s:x="0" s:y="10" s:pid="in0">
      <text x="-3" y="-4" class="inputPortLabel">11</text>
    </g>
    <g transform="translate(0,250)" s:x="0" s:y="10" s:pid="in0">
      <text x="-3" y="-4" class="inputPortLabel">12</text>
    </g>
    <g transform="translate(0,270)" s:x="0" s:y="10" s:pid="in0">
      <text x="-3" y="-4" class="inputPortLabel">13</text>
    </g>
    <g transform="translate(0,290)" s:x="0" s:y="10" s:pid="in0">
      <text x="-3" y="-4" class="inputPortLabel">14</text>
    </g>
    <g transform="translate(0,310)" s:x="0" s:y="10" s:pid="in0">
      <text x="-3" y="-4" class="inputPortLabel">15</text>
    </g>
    <g transform="translate(0,330)" s:x="0" s:y="10" s:pid="in0">
      <text x="-3" y="-4" class="inputPortLabel">16</text>
    </g>
    <g transform="translate(0,350)" s:x="0" s:y="10" s:pid="in0">
      <text x="-3" y="-4" class="inputPortLabel">17</text>
    </g>
    <g transform="translate(0,370)" s:x="0" s:y="10" s:pid="in0">
      <text x="-3" y="-4" class="inputPortLabel">18</text>
    </g>
    <g transform="translate(0,390)" s:x="0" s:y="10" s:pid="in0">
      <text x="-3" y="-4" class="inputPortLabel">19</text>
    </g>
    <g transform="translate(0,410)" s:x="0" s:y="10" s:pid="in0">
      <text x="-3" y="-4" class="inputPortLabel">20</text>
    </g>
    <g transform="translate(0,430)" s:x="0" s:y="10" s:pid="in0">
      <text x="-3" y="-4" class="inputPortLabel">21</text>
    </g>
    <g transform="translate(0,450)" s:x="0" s:y="10" s:pid="in0">
      <text x="-3" y="-4" class="inputPortLabel">22</text>
    </g>
    <g transform="translate(0,470)" s:x="0" s:y="10" s:pid="in0">
      <text x="-3" y="-4" class="inputPortLabel">23</text>
    </g>
    <g transform="translate(0,490)" s:x="0" s:y="10" s:pid="in0">
      <text x="-3" y="-4" class="inputPortLabel">24</text>
    </g>
    <g transform="translate(0,510)" s:x="0" s:y="10" s:pid="in0">
      <text x="-3" y="-4" class="inputPortLabel">25</text>
    </g>
    <g transform="translate(0,530)" s:x="0" s:y="10" s:pid="in0">
      <text x="-3" y="-4" class="inputPortLabel">26</text>
    </g>
    <g transform="translate(0,550)" s:x="0" s:y="10" s:pid="in0">
      <text x="-3" y="-4" class="inputPortLabel">27</text>
    </g>
    <g transform="translate(0,570)" s:x="0" s:y="10" s:pid="in0">
      <text x="-3" y="-4" class="inputPortLabel">28</text>
    </g>
    <g transform="translate(0,590)" s:x="0" s:y="10" s:pid="in0">
      <text x="-3" y="-4" class="inputPortLabel">29</text>
    </g>
    <g transform="translate(0,610)" s:x="0" s:y="10" s:pid="in0">
      <text x="-3" y="-4" class="inputPortLabel">30</text>
    </g>
    <g transform="translate(0,630)" s:x="0" s:y="10" s:pid="in0">
      <text x="-3" y="-4" class="inputPortLabel">31</text>
    </g>
  </g>
  <g s:type="split" transform="translate(221,77)" s:width="5" s:height="40" id="cell_$split$,6,7,8,9,10,11,12,13,14,15,16,17,18,19,20,21,22,23,24,25,26,27,28,29,30,31,32,33,34,35,36,37,">
    <rect width="5" height="20" class="splitjoinBody" s:generic="body"/>
    <s:alias val="$_split_"/>
    <g s:x="0" s:y="20" s:pid="in"/>
    <g transform="translate(4,10)" s:x="4" s:y="10" s:pid="out0">
      <text x="5" y="-4">2:11</text>
    </g>
  </g>
  <line x1="40" x2="94" y1="825" y2="825" class="net_3"/>
  <line x1="94" x2="94" y1="825" y2="1022" class="net_3"/>
  <line x1="94" x2="272" y1="1022" y2="1022" class="net_3"/>
  <line x1="272" x2="272" y1="1022" y2="1038" class="net_3"/>
  <line x1="272" x2="365.3333333333333" y1="1038" y2="1038" class="net_3"/>
  <line x1="40" x2="94" y1="825" y2="825" class="net_3"/>
  <line x1="94" x2="94" y1="825" y2="875" class="net_3"/>
  <circle cx="94" cy="875" r="2" style="fill:#000" class="net_3"/>
  <line x1="94" x2="123" y1="875" y2="875" class="net_3"/>
  <line x1="224" x2="365.3333333333333" y1="1053" y2="1053" class="net_4"/>
  <line x1="396" x2="449" y1="192.5" y2="192.5" class="net_103,104,105,106,107,108,109,110,111,112,113,114,115,116,117,118,119,120,121,122,123,124,125,126,127,128,129,130,131,132,133,134"/>
  <line x1="449" x2="449" y1="192.5" y2="1025.5" class="net_103,104,105,106,107,108,109,110,111,112,113,114,115,116,117,118,119,120,121,122,123,124,125,126,127,128,129,130,131,132,133,134"/>
  <line x1="449" x2="487" y1="1025.5" y2="1025.5" class="net_103,104,105,106,107,108,109,110,111,112,113,114,115,116,117,118,119,120,121,122,123,124,125,126,127,128,129,130,131,132,133,134"/>
  <line x1="395.3333333333333" x2="487" y1="1045.5" y2="1045.5" class="net_102"/>
  <line x1="40" x2="123" y1="890" y2="890" class="net_5"/>
  <line x1="226" x2="302" y1="87.5" y2="87.5" class="net_8,9,10,11,12,13,14,15,16,17"/>
  <line x1="302" x2="302" y1="87.5" y2="192.5" class="net_8,9,10,11,12,13,14,15,16,17"/>
  <circle cx="302" cy="192.5" r="2" style="fill:#000" class="net_8,9,10,11,12,13,14,15,16,17"/>
  <line x1="302" x2="365" y1="192.5" y2="192.5" class="net_8,9,10,11,12,13,14,15,16,17"/>
  <line x1="226" x2="302" y1="87.5" y2="87.5" class="net_8,9,10,11,12,13,14,15,16,17"/>
  <line x1="302" x2="302" y1="87.5" y2="292.5" class="net_8,9,10,11,12,13,14,15,16,17"/>
  <line x1="302" x2="365" y1="292.5" y2="292.5" class="net_8,9,10,11,12,13,14,15,16,17"/>
  <line x1="226" x2="312" y1="32" y2="32" class="net_136"/>
  <line x1="312" x2="312" y1="32" y2="212.5" class="net_136"/>
  <circle cx="312" cy="212.5" r="2" style="fill:#000" class="net_136"/>
  <line x1="312" x2="365" y1="212.5" y2="212.5" class="net_136"/>
  <line x1="226" x2="312" y1="32" y2="32" class="net_136"/>
  <line x1="312" x2="312" y1="32" y2="232.5" class="net_136"/>
  <circle cx="312" cy="232.5" r="2" style="fill:#000" class="net_136"/>
  <line x1="312" x2="365" y1="232.5" y2="232.5" class="net_136"/>
  <line x1="226" x2="312" y1="32" y2="32" class="net_136"/>
  <line x1="312" x2="312" y1="32" y2="272.5" class="net_136"/>
  <line x1="312" x2="365" y1="272.5" y2="272.5" class="net_136"/>
  <line x1="226" x2="292" y1="140" y2="140" class="net_138"/>
  <line x1="292" x2="292" y1="140" y2="252.5" class="net_138"/>
  <line x1="292" x2="365" y1="252.5" y2="252.5" class="net_138"/>
  <line x1="224" x2="282" y1="205" y2="205" class="net_2"/>
  <line x1="282" x2="282" y1="205" y2="312.5" class="net_2"/>
  <line x1="282" x2="365" y1="312.5" y2="312.5" class="net_2"/>
  <line x1="224" x2="272" y1="270" y2="270" class="net_38,39,40,41,42,43,44,45,46,47,48,49,50,51,52,53,54,55,56,57,58,59,60,61,62,63,64,65,66,67,68,69"/>
  <line x1="272" x2="272" y1="270" y2="332.5" class="net_38,39,40,41,42,43,44,45,46,47,48,49,50,51,52,53,54,55,56,57,58,59,60,61,62,63,64,65,66,67,68,69"/>
  <line x1="272" x2="365" y1="332.5" y2="332.5" class="net_38,39,40,41,42,43,44,45,46,47,48,49,50,51,52,53,54,55,56,57,58,59,60,61,62,63,64,65,66,67,68,69"/>
  <line x1="204.48" x2="365" y1="352.5" y2="352.5" class="net_135,135,135,135,135,135,135,135,135,135,135,135,135,135,135,135,135,135,135,135,135,135,135,135,135,135,135,135,135,135,135,135"/>
  <line x1="518" x2="560" y1="1025.5" y2="1025.5" class="net_70,71,72,73,74,75,76,77,78,79,80,81,82,83,84,85,86,87,88,89,90,91,92,93,94,95,96,97,98,99,100,101"/>
  <line x1="153" x2="171" y1="882.5" y2="882.5" class="net_135"/>
  <line x1="171" x2="171" y1="882.5" y2="320" class="net_135"/>
  <line x1="171" x2="198.98" y1="320" y2="320" class="net_135"/>
  <circle cx="171" cy="882.5" r="2" style="fill:#000" class="net_135"/>
  <circle cx="171" cy="320" r="2" style="fill:#000" class="net_135"/>
  <line x1="198.98" x2="198.98" y1="320" y2="342" class="net_135"/>
  <line x1="153" x2="171" y1="882.5" y2="882.5" class="net_135"/>
  <line x1="171" x2="171" y1="882.5" y2="310" class="net_135"/>
  <line x1="171" x2="198.98" y1="310" y2="310" class="net_135"/>
  <circle cx="171" cy="310" r="2" style="fill:#000" class="net_135"/>
  <line x1="198.98" x2="198.98" y1="310" y2="362" class="net_135"/>
  <line x1="153" x2="171" y1="882.5" y2="882.5" class="net_135"/>
  <line x1="171" x2="171" y1="882.5" y2="300" class="net_135"/>
  <line x1="171" x2="198.98" y1="300" y2="300" class="net_135"/>
  <circle cx="171" cy="300" r="2" style="fill:#000" class="net_135"/>
  <line x1="198.98" x2="198.98" y1="300" y2="382" class="net_135"/>
  <line x1="153" x2="171" y1="882.5" y2="882.5" class="net_135"/>
  <line x1="171" x2="171" y1="882.5" y2="290" class="net_135"/>
  <line x1="171" x2="198.98" y1="290" y2="290" class="net_135"/>
  <line x1="198.98" x2="198.98" y1="290" y2="402" class="net_135"/>
  <line x1="153" x2="171" y1="882.5" y2="882.5" class="net_135"/>
  <line x1="171" x2="171" y1="882.5" y2="422.5" class="net_135"/>
  <circle cx="171" cy="422.5" r="2" style="fill:#000" class="net_135"/>
  <line x1="171" x2="198.48" y1="422.5" y2="422.5" class="net_135"/>
  <line x1="153" x2="171" y1="882.5" y2="882.5" class="net_135"/>
  <line x1="171" x2="171" y1="882.5" y2="442.5" class="net_135"/>
  <circle cx="171" cy="442.5" r="2" style="fill:#000" class="net_135"/>
  <line x1="171" x2="198.48" y1="442.5" y2="442.5" class="net_135"/>
  <line x1="153" x2="171" y1="882.5" y2="882.5" class="net_135"/>
  <line x1="171" x2="171" y1="882.5" y2="462.5" class="net_135"/>
  <circle cx="171" cy="462.5" r="2" style="fill:#000" class="net_135"/>
  <line x1="171" x2="198.48" y1="462.5" y2="462.5" class="net_135"/>
  <line x1="153" x2="171" y1="882.5" y2="882.5" class="net_135"/>
  <line x1="171" x2="171" y1="882.5" y2="482.5" class="net_135"/>
  <circle cx="171" cy="482.5" r="2" style="fill:#000" class="net_135"/>
  <line x1="171" x2="198.48" y1="482.5" y2="482.5" class="net_135"/>
  <line x1="153" x2="171" y1="882.5" y2="882.5" class="net_135"/>
  <line x1="171" x2="171" y1="882.5" y2="502.5" class="net_135"/>
  <circle cx="171" cy="502.5" r="2" style="fill:#000" class="net_135"/>
  <line x1="171" x2="198.48" y1="502.5" y2="502.5" class="net_135"/>
  <line x1="153" x2="171" y1="882.5" y2="882.5" class="net_135"/>
  <line x1="171" x2="171" y1="882.5" y2="522.5" class="net_135"/>
  <circle cx="171" cy="522.5" r="2" style="fill:#000" class="net_135"/>
  <line x1="171" x2="198.48" y1="522.5" y2="522.5" class="net_135"/>
  <line x1="153" x2="171" y1="882.5" y2="882.5" class="net_135"/>
  <line x1="171" x2="171" y1="882.5" y2="542.5" class="net_135"/>
  <circle cx="171" cy="542.5" r="2" style="fill:#000" class="net_135"/>
  <line x1="171" x2="198.48" y1="542.5" y2="542.5" class="net_135"/>
  <line x1="153" x2="171" y1="882.5" y2="882.5" class="net_135"/>
  <line x1="171" x2="171" y1="882.5" y2="562.5" class="net_135"/>
  <circle cx="171" cy="562.5" r="2" style="fill:#000" class="net_135"/>
  <line x1="171" x2="198.48" y1="562.5" y2="562.5" class="net_135"/>
  <line x1="153" x2="171" y1="882.5" y2="882.5" class="net_135"/>
  <line x1="171" x2="171" y1="882.5" y2="582.5" class="net_135"/>
  <circle cx="171" cy="582.5" r="2" style="fill:#000" class="net_135"/>
  <line x1="171" x2="198.48" y1="582.5" y2="582.5" class="net_135"/>
  <line x1="153" x2="171" y1="882.5" y2="882.5" class="net_135"/>
  <line x1="171" x2="171" y1="882.5" y2="602.5" class="net_135"/>
  <circle cx="171" cy="602.5" r="2" style="fill:#000" class="net_135"/>
  <line x1="171" x2="198.48" y1="602.5" y2="602.5" class="net_135"/>
  <line x1="153" x2="171" y1="882.5" y2="882.5" class="net_135"/>
  <line x1="171" x2="171" y1="882.5" y2="622.5" class="net_135"/>
  <circle cx="171" cy="622.5" r="2" style="fill:#000" class="net_135"/>
  <line x1="171" x2="198.48" y1="622.5" y2="622.5" class="net_135"/>
  <line x1="153" x2="171" y1="882.5" y2="882.5" class="net_135"/>
  <line x1="171" x2="171" y1="882.5" y2="642.5" class="net_135"/>
  <circle cx="171" cy="642.5" r="2" style="fill:#000" class="net_135"/>
  <line x1="171" x2="198.48" y1="642.5" y2="642.5" class="net_135"/>
  <line x1="153" x2="171" y1="882.5" y2="882.5" class="net_135"/>
  <line x1="171" x2="171" y1="882.5" y2="662.5" class="net_135"/>
  <circle cx="171" cy="662.5" r="2" style="fill:#000" class="net_135"/>
  <line x1="171" x2="198.48" y1="662.5" y2="662.5" class="net_135"/>
  <line x1="153" x2="171" y1="882.5" y2="882.5" class="net_135"/>
  <line x1="171" x2="171" y1="882.5" y2="682.5" class="net_135"/>
  <circle cx="171" cy="682.5" r="2" style="fill:#000" class="net_135"/>
  <line x1="171" x2="198.48" y1="682.5" y2="682.5" class="net_135"/>
  <line x1="153" x2="171" y1="882.5" y2="882.5" class="net_135"/>
  <line x1="171" x2="171" y1="882.5" y2="702.5" class="net_135"/>
  <circle cx="171" cy="702.5" r="2" style="fill:#000" class="net_135"/>
  <line x1="171" x2="198.48" y1="702.5" y2="702.5" class="net_135"/>
  <line x1="153" x2="171" y1="882.5" y2="882.5" class="net_135"/>
  <line x1="171" x2="171" y1="882.5" y2="722.5" class="net_135"/>
  <circle cx="171" cy="722.5" r="2" style="fill:#000" class="net_135"/>
  <line x1="171" x2="198.48" y1="722.5" y2="722.5" class="net_135"/>
  <line x1="153" x2="171" y1="882.5" y2="882.5" class="net_135"/>
  <line x1="171" x2="171" y1="882.5" y2="742.5" class="net_135"/>
  <circle cx="171" cy="742.5" r="2" style="fill:#000" class="net_135"/>
  <line x1="171" x2="198.48" y1="742.5" y2="742.5" class="net_135"/>
  <line x1="153" x2="171" y1="882.5" y2="882.5" class="net_135"/>
  <line x1="171" x2="171" y1="882.5" y2="762.5" class="net_135"/>
  <circle cx="171" cy="762.5" r="2" style="fill:#000" class="net_135"/>
  <line x1="171" x2="198.48" y1="762.5" y2="762.5" class="net_135"/>
  <line x1="153" x2="171" y1="882.5" y2="882.5" class="net_135"/>
  <line x1="171" x2="171" y1="882.5" y2="782.5" class="net_135"/>
  <circle cx="171" cy="782.5" r="2" style="fill:#000" class="net_135"/>
  <line x1="171" x2="198.48" y1="782.5" y2="782.5" class="net_135"/>
  <line x1="153" x2="171" y1="882.5" y2="882.5" class="net_135"/>
  <line x1="171" x2="171" y1="882.5" y2="802.5" class="net_135"/>
  <circle cx="171" cy="802.5" r="2" style="fill:#000" class="net_135"/>
  <line x1="171" x2="198.48" y1="802.5" y2="802.5" class="net_135"/>
  <line x1="153" x2="171" y1="882.5" y2="882.5" class="net_135"/>
  <line x1="171" x2="171" y1="882.5" y2="822.5" class="net_135"/>
  <circle cx="171" cy="822.5" r="2" style="fill:#000" class="net_135"/>
  <line x1="171" x2="198.48" y1="822.5" y2="822.5" class="net_135"/>
  <line x1="153" x2="171" y1="882.5" y2="882.5" class="net_135"/>
  <line x1="171" x2="171" y1="882.5" y2="842.5" class="net_135"/>
  <circle cx="171" cy="842.5" r="2" style="fill:#000" class="net_135"/>
  <line x1="171" x2="198.48" y1="842.5" y2="842.5" class="net_135"/>
  <line x1="153" x2="171" y1="882.5" y2="882.5" class="net_135"/>
  <line x1="171" x2="171" y1="882.5" y2="862.5" class="net_135"/>
  <circle cx="171" cy="862.5" r="2" style="fill:#000" class="net_135"/>
  <line x1="171" x2="198.48" y1="862.5" y2="862.5" class="net_135"/>
  <line x1="153" x2="198.48" y1="882.5" y2="882.5" class="net_135"/>
  <line x1="153" x2="171" y1="882.5" y2="882.5" class="net_135"/>
  <line x1="171" x2="171" y1="882.5" y2="1012" class="net_135"/>
  <line x1="171" x2="198.98" y1="1012" y2="1012" class="net_135"/>
  <line x1="198.98" x2="198.98" y1="1012" y2="903" class="net_135"/>
  <line x1="153" x2="171" y1="882.5" y2="882.5" class="net_135"/>
  <line x1="171" x2="171" y1="882.5" y2="1002" class="net_135"/>
  <line x1="171" x2="198.98" y1="1002" y2="1002" class="net_135"/>
  <circle cx="171" cy="1002" r="2" style="fill:#000" class="net_135"/>
  <line x1="198.98" x2="198.98" y1="1002" y2="923" class="net_135"/>
  <line x1="153" x2="171" y1="882.5" y2="882.5" class="net_135"/>
  <line x1="171" x2="171" y1="882.5" y2="992" class="net_135"/>
  <line x1="171" x2="198.98" y1="992" y2="992" class="net_135"/>
  <circle cx="171" cy="992" r="2" style="fill:#000" class="net_135"/>
  <line x1="198.98" x2="198.98" y1="992" y2="943" class="net_135"/>
  <line x1="153" x2="171" y1="882.5" y2="882.5" class="net_135"/>
  <line x1="171" x2="171" y1="882.5" y2="982" class="net_135"/>
  <line x1="171" x2="198.98" y1="982" y2="982" class="net_135"/>
  <circle cx="171" cy="982" r="2" style="fill:#000" class="net_135"/>
  <line x1="198.98" x2="198.98" y1="982" y2="963" class="net_135"/>
  <line x1="147" x2="221.5" y1="110" y2="110" class="net_6,7,8,9,10,11,12,13,14,15,16,17,18,19,20,21,22,23,24,25,26,27,28,29,30,31,32,33,34,35,36,37"/>
  <line x1="221.5" x2="221.5" y1="110" y2="98" class="net_6,7,8,9,10,11,12,13,14,15,16,17,18,19,20,21,22,23,24,25,26,27,28,29,30,31,32,33,34,35,36,37"/>
</svg>
