<svg xmlns="http://www.w3.org/2000/svg" xmlns:xlink="http://www.w3.org/1999/xlink" xmlns:s="https://github.com/nturley/netlistsvg" width="704" height="323">
  <style>svg {
    stroke:#000;
    fill:none;
  }
  text {
    fill:#000;
    stroke:none;
    font-size:10px;
    font-weight: bold;
    font-family: "Courier New", monospace;
  }
  .nodelabel {
    text-anchor: middle;
  }
  .inputPortLabel {
    text-anchor: end;
  }
  .splitjoinBody {
    fill:#000;
  }</style>
  <g s:type="generic" transform="translate(126,257)" s:width="30" s:height="40" id="cell_adder">
    <text x="15" y="-4" class="nodelabel cell_adder" s:attribute="ref">generic_adder_32_1</text>
    <rect width="30" height="40" s:generic="body" class="cell_adder"/>
    <g transform="translate(0,10)" s:x="0" s:y="10" s:pid="in0" id="port_adder~source_1">
      <text x="-3" y="-4" class="inputPortLabel cell_adder">source_1</text>
    </g>
    <g transform="translate(0,30)" s:x="0" s:y="10" s:pid="in0" id="port_adder~source_2">
      <text x="-3" y="-4" class="inputPortLabel cell_adder">source_2</text>
    </g>
    <g transform="translate(30,10)" s:x="30" s:y="10" s:pid="out0" id="port_adder~destination">
      <text x="5" y="-4" style="fill:#000; stroke:none" class="cell_adder">destination</text>
    </g>
  </g>
  <g s:type="generic" transform="translate(308,217)" s:width="30" s:height="40" id="cell_mux_register_alu_1">
    <text x="15" y="-4" class="nodelabel cell_mux_register_alu_1" s:attribute="ref">generic_mux_2x1_32</text>
    <rect width="30" height="60" s:generic="body" class="cell_mux_register_alu_1"/>
    <g transform="translate(0,10)" s:x="0" s:y="10" s:pid="in0" id="port_mux_register_alu_1~selector">
      <text x="-3" y="-4" class="inputPortLabel cell_mux_register_alu_1">selector</text>
    </g>
    <g transform="translate(0,30)" s:x="0" s:y="10" s:pid="in0" id="port_mux_register_alu_1~source_1">
      <text x="-3" y="-4" class="inputPortLabel cell_mux_register_alu_1">source_1</text>
    </g>
    <g transform="translate(0,50)" s:x="0" s:y="10" s:pid="in0" id="port_mux_register_alu_1~source_2">
      <text x="-3" y="-4" class="inputPortLabel cell_mux_register_alu_1">source_2</text>
    </g>
    <g transform="translate(30,10)" s:x="30" s:y="10" s:pid="out0" id="port_mux_register_alu_1~destination">
      <text x="5" y="-4" style="fill:#000; stroke:none" class="cell_mux_register_alu_1">destination</text>
    </g>
  </g>
  <g s:type="generic" transform="translate(493,157)" s:width="30" s:height="40" id="cell_pc_register">
    <text x="15" y="-4" class="nodelabel cell_pc_register" s:attribute="ref">generic_register_32</text>
    <rect width="30" height="80" s:generic="body" class="cell_pc_register"/>
    <g transform="translate(0,10)" s:x="0" s:y="10" s:pid="in0" id="port_pc_register~clear">
      <text x="-3" y="-4" class="inputPortLabel cell_pc_register">clear</text>
    </g>
    <g transform="translate(0,30)" s:x="0" s:y="10" s:pid="in0" id="port_pc_register~clock">
      <text x="-3" y="-4" class="inputPortLabel cell_pc_register">clock</text>
    </g>
    <g transform="translate(0,50)" s:x="0" s:y="10" s:pid="in0" id="port_pc_register~enable">
      <text x="-3" y="-4" class="inputPortLabel cell_pc_register">enable</text>
    </g>
    <g transform="translate(0,70)" s:x="0" s:y="10" s:pid="in0" id="port_pc_register~source">
      <text x="-3" y="-4" class="inputPortLabel cell_pc_register">source</text>
    </g>
    <g transform="translate(30,10)" s:x="30" s:y="10" s:pid="out0" id="port_pc_register~destination">
      <text x="5" y="-4" style="fill:#000; stroke:none" class="cell_pc_register">destination</text>
    </g>
  </g>
  <g s:type="inputExt" transform="translate(308,87)" s:width="30" s:height="20" id="cell_clock">
    <text x="15" y="-4" class="nodelabel cell_clock" s:attribute="ref">clock</text>
    <s:alias val="$_inputExt_"/>
    <path d="M0,0 L0,20 L15,20 L30,10 L15,0 Z" class="cell_clock"/>
    <g s:x="28" s:y="10" s:pid="Y"/>
  </g>
  <g s:type="inputExt" transform="translate(126,192)" s:width="30" s:height="20" id="cell_jump_address">
    <text x="15" y="-4" class="nodelabel cell_jump_address" s:attribute="ref">jump_address</text>
    <s:alias val="$_inputExt_"/>
    <path d="M0,0 L0,20 L15,20 L30,10 L15,0 Z" class="cell_jump_address"/>
    <g s:x="28" s:y="10" s:pid="Y"/>
  </g>
  <g s:type="inputExt" transform="translate(126,127)" s:width="30" s:height="20" id="cell_selector">
    <text x="15" y="-4" class="nodelabel cell_selector" s:attribute="ref">selector</text>
    <s:alias val="$_inputExt_"/>
    <path d="M0,0 L0,20 L15,20 L30,10 L15,0 Z" class="cell_selector"/>
    <g s:x="28" s:y="10" s:pid="Y"/>
  </g>
  <g s:type="inputExt" transform="translate(308,152)" s:width="30" s:height="20" id="cell_enable">
    <text x="15" y="-4" class="nodelabel cell_enable" s:attribute="ref">enable</text>
    <s:alias val="$_inputExt_"/>
    <path d="M0,0 L0,20 L15,20 L30,10 L15,0 Z" class="cell_enable"/>
    <g s:x="28" s:y="10" s:pid="Y"/>
  </g>
  <g s:type="outputExt" transform="translate(626,157.5)" s:width="30" s:height="20" id="cell_destination">
    <text x="15" y="-4" class="nodelabel cell_destination" s:attribute="ref">destination</text>
    <s:alias val="$_outputExt_"/>
    <path d="M30,0 L30,20 L15,20 L0,10 L15,0 Z" class="cell_destination"/>
    <g s:x="0" s:y="10" s:pid="A"/>
  </g>
  <g s:type="constant" transform="translate(12,277.5)" s:width="30" s:height="20" id="cell_00000000000000000000000000000100">
    <text x="15" y="-4" class="nodelabel cell_00000000000000000000000000000100" s:attribute="ref">0x4</text>
    <s:alias val="$_constant_"/>
    <rect width="30" height="20" class="cell_00000000000000000000000000000100"/>
    <g s:x="30" s:y="10" s:pid="Y"/>
  </g>
  <g s:type="constant" transform="translate(308,22)" s:width="30" s:height="20" id="cell_0">
    <text x="15" y="-4" class="nodelabel cell_0" s:attribute="ref">0</text>
    <s:alias val="$_constant_"/>
    <rect width="30" height="20" class="cell_0"/>
    <g s:x="30" s:y="10" s:pid="Y"/>
  </g>
  <line x1="524" x2="601" y1="167.5" y2="167.5" class="net_37,38,39,40,41,42,43,44,45,46,47,48,49,50,51,52,53,54,55,56,57,58,59,60,61,62,63,64,65,66,67,68"/>
  <line x1="601" x2="601" y1="167.5" y2="310" class="net_37,38,39,40,41,42,43,44,45,46,47,48,49,50,51,52,53,54,55,56,57,58,59,60,61,62,63,64,65,66,67,68"/>
  <line x1="601" x2="52" y1="310" y2="310" class="net_37,38,39,40,41,42,43,44,45,46,47,48,49,50,51,52,53,54,55,56,57,58,59,60,61,62,63,64,65,66,67,68"/>
  <line x1="52" x2="52" y1="310" y2="267.5" class="net_37,38,39,40,41,42,43,44,45,46,47,48,49,50,51,52,53,54,55,56,57,58,59,60,61,62,63,64,65,66,67,68"/>
  <circle cx="601" cy="167.5" r="2" style="fill:#000" class="net_37,38,39,40,41,42,43,44,45,46,47,48,49,50,51,52,53,54,55,56,57,58,59,60,61,62,63,64,65,66,67,68"/>
  <line x1="52" x2="126" y1="267.5" y2="267.5" class="net_37,38,39,40,41,42,43,44,45,46,47,48,49,50,51,52,53,54,55,56,57,58,59,60,61,62,63,64,65,66,67,68"/>
  <line x1="524" x2="626" y1="167.5" y2="167.5" class="net_37,38,39,40,41,42,43,44,45,46,47,48,49,50,51,52,53,54,55,56,57,58,59,60,61,62,63,64,65,66,67,68"/>
  <line x1="42" x2="126" y1="287.5" y2="287.5" class="net_133,134,135,136,137,138,139,140,141,142,143,144,145,146,147,148,149,150,151,152,153,154,155,156,157,158,159,160,161,162,163,164"/>
  <line x1="154" x2="244" y1="137" y2="137" class="net_35"/>
  <line x1="244" x2="244" y1="137" y2="227.5" class="net_35"/>
  <line x1="244" x2="308" y1="227.5" y2="227.5" class="net_35"/>
  <line x1="154" x2="234" y1="202" y2="202" class="net_3,4,5,6,7,8,9,10,11,12,13,14,15,16,17,18,19,20,21,22,23,24,25,26,27,28,29,30,31,32,33,34"/>
  <line x1="234" x2="234" y1="202" y2="247.5" class="net_3,4,5,6,7,8,9,10,11,12,13,14,15,16,17,18,19,20,21,22,23,24,25,26,27,28,29,30,31,32,33,34"/>
  <line x1="234" x2="308" y1="247.5" y2="247.5" class="net_3,4,5,6,7,8,9,10,11,12,13,14,15,16,17,18,19,20,21,22,23,24,25,26,27,28,29,30,31,32,33,34"/>
  <line x1="157" x2="308" y1="267.5" y2="267.5" class="net_69,70,71,72,73,74,75,76,77,78,79,80,81,82,83,84,85,86,87,88,89,90,91,92,93,94,95,96,97,98,99,100"/>
  <line x1="338" x2="446" y1="32" y2="32" class="net_165"/>
  <line x1="446" x2="446" y1="32" y2="167.5" class="net_165"/>
  <line x1="446" x2="493" y1="167.5" y2="167.5" class="net_165"/>
  <line x1="336" x2="436" y1="97" y2="97" class="net_2"/>
  <line x1="436" x2="436" y1="97" y2="187.5" class="net_2"/>
  <line x1="436" x2="493" y1="187.5" y2="187.5" class="net_2"/>
  <line x1="336" x2="426" y1="162" y2="162" class="net_36"/>
  <line x1="426" x2="426" y1="162" y2="207.5" class="net_36"/>
  <line x1="426" x2="493" y1="207.5" y2="207.5" class="net_36"/>
  <line x1="339" x2="493" y1="227.5" y2="227.5" class="net_101,102,103,104,105,106,107,108,109,110,111,112,113,114,115,116,117,118,119,120,121,122,123,124,125,126,127,128,129,130,131,132"/>
</svg>
