<svg xmlns="http://www.w3.org/2000/svg" xmlns:xlink="http://www.w3.org/1999/xlink" xmlns:s="https://github.com/nturley/netlistsvg" width="677" height="543.5">
  <style>svg {
    stroke:#000;
    fill:none;
  }
  text {
    fill:#000;
    stroke:none;
    font-size:10px;
    font-weight: bold;
    font-family: "Courier New", monospace;
  }
  .nodelabel {
    text-anchor: middle;
  }
  .inputPortLabel {
    text-anchor: end;
  }
  .splitjoinBody {
    fill:#000;
  }</style>
  <g s:type="mux" transform="translate(535.3333333333334,259)" s:width="20" s:height="40" id="cell_\10">
    <s:alias val="$pmux"/>
    <s:alias val="$mux"/>
    <s:alias val="$_MUX_"/>
    <path d="M0,0 L20,10 L20,30 L0,40 Z" class="cell_\10"/>
    <g s:x="0" s:y="10" s:pid="A"/>
    <g s:x="0" s:y="30" s:pid="B"/>
    <g s:x="10" s:y="35" s:pid="S"/>
    <g s:x="20" s:y="20" s:pid="Y"/>
  </g>
  <g s:type="or" transform="translate(398,421.5)" s:width="30" s:height="25" id="cell_\11">
    <s:alias val="$or"/>
    <s:alias val="$logic_or"/>
    <s:alias val="$_OR_"/>
    <path d="M0,25 L0,25 L15,25 A15 12.5 0 0 0 15,0 L0,0" class="cell_\11"/>
    <path d="M0,0 A30 25 0 0 1 0,25" class="cell_\11"/>
    <g s:x="3" s:y="5" s:pid="A"/>
    <g s:x="3" s:y="20" s:pid="B"/>
    <g s:x="30" s:y="12.5" s:pid="Y"/>
  </g>
  <g s:type="eq" transform="translate(399.6666666666667,481.5)" s:width="25" s:height="25" id="cell_\13">
    <s:alias val="$eq"/>
    <circle r="12.5" cx="12.5" cy="12.5" class="cell_\13"/>
    <line x1="7.5" x2="17.5" y1="10" y2="10" class="cell_\13"/>
    <line x1="7.5" x2="17.5" y1="15" y2="15" class="cell_\13"/>
    <g s:x="3" s:y="5" s:pid="A"/>
    <g s:x="3" s:y="20" s:pid="B"/>
    <g s:x="25" s:y="12.5" s:pid="Y"/>
  </g>
  <g s:type="mux" transform="translate(467.3333333333333,171.5)" s:width="20" s:height="40" id="cell_\14">
    <s:alias val="$pmux"/>
    <s:alias val="$mux"/>
    <s:alias val="$_MUX_"/>
    <path d="M0,0 L20,10 L20,30 L0,40 Z" class="cell_\14"/>
    <g s:x="0" s:y="10" s:pid="A"/>
    <g s:x="0" s:y="30" s:pid="B"/>
    <g s:x="10" s:y="35" s:pid="S"/>
    <g s:x="20" s:y="20" s:pid="Y"/>
  </g>
  <g s:type="eq" transform="translate(332.6666666666667,216.5)" s:width="25" s:height="25" id="cell_\16">
    <s:alias val="$eq"/>
    <circle r="12.5" cx="12.5" cy="12.5" class="cell_\16"/>
    <line x1="7.5" x2="17.5" y1="10" y2="10" class="cell_\16"/>
    <line x1="7.5" x2="17.5" y1="15" y2="15" class="cell_\16"/>
    <g s:x="3" s:y="5" s:pid="A"/>
    <g s:x="3" s:y="20" s:pid="B"/>
    <g s:x="25" s:y="12.5" s:pid="Y"/>
  </g>
  <g s:type="mux" transform="translate(401.3333333333333,161.5)" s:width="20" s:height="40" id="cell_\17">
    <s:alias val="$pmux"/>
    <s:alias val="$mux"/>
    <s:alias val="$_MUX_"/>
    <path d="M0,0 L20,10 L20,30 L0,40 Z" class="cell_\17"/>
    <g s:x="0" s:y="10" s:pid="A"/>
    <g s:x="0" s:y="30" s:pid="B"/>
    <g s:x="10" s:y="35" s:pid="S"/>
    <g s:x="20" s:y="20" s:pid="Y"/>
  </g>
  <g s:type="and" transform="translate(331,276.5)" s:width="30" s:height="25" id="cell_\18">
    <s:alias val="$and"/>
    <s:alias val="$logic_and"/>
    <s:alias val="$_AND_"/>
    <path d="M0,0 L0,25 L15,25 A15 12.5 0 0 0 15,0 Z" class="cell_\18"/>
    <g s:x="0" s:y="5" s:pid="A"/>
    <g s:x="0" s:y="20" s:pid="B"/>
    <g s:x="30" s:y="12.5" s:pid="Y"/>
  </g>
  <g s:type="and" transform="translate(331,30.5)" s:width="30" s:height="25" id="cell_\19">
    <s:alias val="$and"/>
    <s:alias val="$logic_and"/>
    <s:alias val="$_AND_"/>
    <path d="M0,0 L0,25 L15,25 A15 12.5 0 0 0 15,0 Z" class="cell_\19"/>
    <g s:x="0" s:y="5" s:pid="A"/>
    <g s:x="0" s:y="20" s:pid="B"/>
    <g s:x="30" s:y="12.5" s:pid="Y"/>
  </g>
  <g s:type="or" transform="translate(398,23)" s:width="30" s:height="25" id="cell_\20">
    <s:alias val="$or"/>
    <s:alias val="$logic_or"/>
    <s:alias val="$_OR_"/>
    <path d="M0,25 L0,25 L15,25 A15 12.5 0 0 0 15,0 L0,0" class="cell_\20"/>
    <path d="M0,0 A30 25 0 0 1 0,25" class="cell_\20"/>
    <g s:x="3" s:y="5" s:pid="A"/>
    <g s:x="3" s:y="20" s:pid="B"/>
    <g s:x="30" s:y="12.5" s:pid="Y"/>
  </g>
  <g s:type="reduce_xor" transform="translate(463,30.5)" s:width="33" s:height="25" id="cell_\21">
    <s:alias val="$xor"/>
    <s:alias val="$reduce_xor"/>
    <s:alias val="$_XOR_"/>
    <path d="M3,0 A30 25 0 0 1 3,25 A30 25 0 0 0 33,12.5 A30 25 0 0 0 3,0" class="cell_\21"/>
    <path d="M0,0 A30 25 0 0 1 0,25" class="cell_\21"/>
    <g s:x="3" s:y="5" s:pid="A"/>
    <g s:x="3" s:y="20" s:pid="B"/>
    <g s:x="33" s:y="12.5" s:pid="Y"/>
  </g>
  <g s:type="reduce_xor" transform="translate(531,83)" s:width="33" s:height="25" id="cell_\22">
    <s:alias val="$xor"/>
    <s:alias val="$reduce_xor"/>
    <s:alias val="$_XOR_"/>
    <path d="M3,0 A30 25 0 0 1 3,25 A30 25 0 0 0 33,12.5 A30 25 0 0 0 3,0" class="cell_\22"/>
    <path d="M0,0 A30 25 0 0 1 0,25" class="cell_\22"/>
    <g s:x="3" s:y="5" s:pid="A"/>
    <g s:x="3" s:y="20" s:pid="B"/>
    <g s:x="33" s:y="12.5" s:pid="Y"/>
  </g>
  <g s:type="reduce_xor" transform="translate(137,299)" s:width="33" s:height="25" id="cell_\3">
    <s:alias val="$xor"/>
    <s:alias val="$reduce_xor"/>
    <s:alias val="$_XOR_"/>
    <path d="M3,0 A30 25 0 0 1 3,25 A30 25 0 0 0 33,12.5 A30 25 0 0 0 3,0" class="cell_\3"/>
    <path d="M0,0 A30 25 0 0 1 0,25" class="cell_\3"/>
    <g s:x="3" s:y="5" s:pid="A"/>
    <g s:x="3" s:y="20" s:pid="B"/>
    <g s:x="33" s:y="12.5" s:pid="Y"/>
  </g>
  <g s:type="reduce_xor" transform="translate(137,429)" s:width="33" s:height="25" id="cell_\4">
    <s:alias val="$xor"/>
    <s:alias val="$reduce_xor"/>
    <s:alias val="$_XOR_"/>
    <path d="M3,0 A30 25 0 0 1 3,25 A30 25 0 0 0 33,12.5 A30 25 0 0 0 3,0" class="cell_\4"/>
    <path d="M0,0 A30 25 0 0 1 0,25" class="cell_\4"/>
    <g s:x="3" s:y="5" s:pid="A"/>
    <g s:x="3" s:y="20" s:pid="B"/>
    <g s:x="33" s:y="12.5" s:pid="Y"/>
  </g>
  <g s:type="reduce_xor" transform="translate(224,23)" s:width="33" s:height="25" id="cell_\5">
    <s:alias val="$xor"/>
    <s:alias val="$reduce_xor"/>
    <s:alias val="$_XOR_"/>
    <path d="M3,0 A30 25 0 0 1 3,25 A30 25 0 0 0 33,12.5 A30 25 0 0 0 3,0" class="cell_\5"/>
    <path d="M0,0 A30 25 0 0 1 0,25" class="cell_\5"/>
    <g s:x="3" s:y="5" s:pid="A"/>
    <g s:x="3" s:y="20" s:pid="B"/>
    <g s:x="33" s:y="12.5" s:pid="Y"/>
  </g>
  <g s:type="reduce_xor" transform="translate(330,90.5)" s:width="33" s:height="25" id="cell_\6">
    <s:alias val="$xor"/>
    <s:alias val="$reduce_xor"/>
    <s:alias val="$_XOR_"/>
    <path d="M3,0 A30 25 0 0 1 3,25 A30 25 0 0 0 33,12.5 A30 25 0 0 0 3,0" class="cell_\6"/>
    <path d="M0,0 A30 25 0 0 1 0,25" class="cell_\6"/>
    <g s:x="3" s:y="5" s:pid="A"/>
    <g s:x="3" s:y="20" s:pid="B"/>
    <g s:x="33" s:y="12.5" s:pid="Y"/>
  </g>
  <g s:type="not" transform="translate(464.5,511.5)" s:width="30" s:height="20" id="cell_\9">
    <s:alias val="$_NOT_"/>
    <s:alias val="$not"/>
    <s:alias val="$logic_not"/>
    <path d="M0,0 L0,20 L20,10 Z" class="cell_\9"/>
    <circle cx="23" cy="10" r="3" class="cell_\9"/>
    <g s:x="0" s:y="10" s:pid="A"/>
    <g s:x="25" s:y="10" s:pid="Y"/>
  </g>
  <g s:type="inputExt" transform="translate(12,309)" s:width="30" s:height="20" id="cell_invert_source_1">
    <text x="15" y="-4" class="nodelabel cell_invert_source_1" s:attribute="ref">invert_source_1</text>
    <s:alias val="$_inputExt_"/>
    <path d="M0,0 L0,20 L15,20 L30,10 L15,0 Z" class="cell_invert_source_1"/>
    <g s:x="28" s:y="10" s:pid="Y"/>
  </g>
  <g s:type="inputExt" transform="translate(12,439)" s:width="30" s:height="20" id="cell_invert_source_2">
    <text x="15" y="-4" class="nodelabel cell_invert_source_2" s:attribute="ref">invert_source_2</text>
    <s:alias val="$_inputExt_"/>
    <path d="M0,0 L0,20 L15,20 L30,10 L15,0 Z" class="cell_invert_source_2"/>
    <g s:x="28" s:y="10" s:pid="Y"/>
  </g>
  <g s:type="inputExt" transform="translate(205,511.5)" s:width="30" s:height="20" id="cell_select_function">
    <text x="15" y="-4" class="nodelabel cell_select_function" s:attribute="ref">select_function</text>
    <s:alias val="$_inputExt_"/>
    <path d="M0,0 L0,20 L15,20 L30,10 L15,0 Z" class="cell_select_function"/>
    <g s:x="28" s:y="10" s:pid="Y"/>
  </g>
  <g s:type="inputExt" transform="translate(205,100.5)" s:width="30" s:height="20" id="cell_carry_in">
    <text x="15" y="-4" class="nodelabel cell_carry_in" s:attribute="ref">carry_in</text>
    <s:alias val="$_inputExt_"/>
    <path d="M0,0 L0,20 L15,20 L30,10 L15,0 Z" class="cell_carry_in"/>
    <g s:x="28" s:y="10" s:pid="Y"/>
  </g>
  <g s:type="inputExt" transform="translate(333,161.5)" s:width="30" s:height="20" id="cell_slt">
    <text x="15" y="-4" class="nodelabel cell_slt" s:attribute="ref">slt</text>
    <s:alias val="$_inputExt_"/>
    <path d="M0,0 L0,20 L15,20 L30,10 L15,0 Z" class="cell_slt"/>
    <g s:x="28" s:y="10" s:pid="Y"/>
  </g>
  <g s:type="inputExt" transform="translate(12,244)" s:width="30" s:height="20" id="cell_source_1">
    <text x="15" y="-4" class="nodelabel cell_source_1" s:attribute="ref">source_1</text>
    <s:alias val="$_inputExt_"/>
    <path d="M0,0 L0,20 L15,20 L30,10 L15,0 Z" class="cell_source_1"/>
    <g s:x="28" s:y="10" s:pid="Y"/>
  </g>
  <g s:type="inputExt" transform="translate(12,374)" s:width="30" s:height="20" id="cell_source_2">
    <text x="15" y="-4" class="nodelabel cell_source_2" s:attribute="ref">source_2</text>
    <s:alias val="$_inputExt_"/>
    <path d="M0,0 L0,20 L15,20 L30,10 L15,0 Z" class="cell_source_2"/>
    <g s:x="28" s:y="10" s:pid="Y"/>
  </g>
  <g s:type="outputExt" transform="translate(599,269)" s:width="30" s:height="20" id="cell_destination">
    <text x="15" y="-4" class="nodelabel cell_destination" s:attribute="ref">destination</text>
    <s:alias val="$_outputExt_"/>
    <path d="M30,0 L30,20 L15,20 L0,10 L15,0 Z" class="cell_destination"/>
    <g s:x="0" s:y="10" s:pid="A"/>
  </g>
  <g s:type="outputExt" transform="translate(599,150.5)" s:width="30" s:height="20" id="cell_carry_out">
    <text x="15" y="-4" class="nodelabel cell_carry_out" s:attribute="ref">carry_out</text>
    <s:alias val="$_outputExt_"/>
    <path d="M30,0 L30,20 L15,20 L0,10 L15,0 Z" class="cell_carry_out"/>
    <g s:x="0" s:y="10" s:pid="A"/>
  </g>
  <g s:type="outputExt" transform="translate(599,85.5)" s:width="30" s:height="20" id="cell_overflow">
    <text x="15" y="-4" class="nodelabel cell_overflow" s:attribute="ref">overflow</text>
    <s:alias val="$_outputExt_"/>
    <path d="M30,0 L30,20 L15,20 L0,10 L15,0 Z" class="cell_overflow"/>
    <g s:x="0" s:y="10" s:pid="A"/>
  </g>
  <g s:type="constant" transform="translate(333,491.5)" s:width="30" s:height="20" id="cell_1">
    <text x="15" y="-4" class="nodelabel cell_1" s:attribute="ref">1</text>
    <s:alias val="$_constant_"/>
    <rect width="30" height="20" class="cell_1"/>
    <g s:x="30" s:y="10" s:pid="Y"/>
  </g>
  <g s:type="constant" transform="translate(205,226.5)" s:width="30" s:height="20" id="cell_10">
    <text x="15" y="-4" class="nodelabel cell_10" s:attribute="ref">10</text>
    <s:alias val="$_constant_"/>
    <rect width="30" height="20" class="cell_10"/>
    <g s:x="30" s:y="10" s:pid="Y"/>
  </g>
  <line x1="487.3333333333333" x2="506" y1="191.5" y2="191.5" class="net_13"/>
  <line x1="506" x2="506" y1="191.5" y2="269" class="net_13"/>
  <line x1="506" x2="535.3333333333334" y1="269" y2="269" class="net_13"/>
  <line x1="361" x2="535.3333333333334" y1="289" y2="289" class="net_14"/>
  <line x1="361" x2="373" y1="289" y2="289" class="net_14"/>
  <line x1="373" x2="373" y1="289" y2="28" class="net_14"/>
  <circle cx="373" cy="289" r="2" style="fill:#000" class="net_14"/>
  <line x1="373" x2="401" y1="28" y2="28" class="net_14"/>
  <line x1="489.5" x2="545.3333333333334" y1="521.5" y2="521.5" class="net_15"/>
  <line x1="545.3333333333334" x2="545.3333333333334" y1="521.5" y2="294" class="net_15"/>
  <line x1="170" x2="373" y1="311.5" y2="311.5" class="net_16"/>
  <line x1="373" x2="373" y1="311.5" y2="426.5" class="net_16"/>
  <line x1="373" x2="401" y1="426.5" y2="426.5" class="net_16"/>
  <line x1="170" x2="180" y1="311.5" y2="311.5" class="net_16"/>
  <line x1="180" x2="180" y1="311.5" y2="285.5" class="net_16"/>
  <line x1="180" x2="315" y1="285.5" y2="285.5" class="net_16"/>
  <line x1="315" x2="315" y1="285.5" y2="281.5" class="net_16"/>
  <circle cx="180" cy="311.5" r="2" style="fill:#000" class="net_16"/>
  <circle cx="180" cy="285.5" r="2" style="fill:#000" class="net_16"/>
  <line x1="315" x2="331" y1="281.5" y2="281.5" class="net_16"/>
  <line x1="170" x2="180" y1="311.5" y2="311.5" class="net_16"/>
  <line x1="180" x2="180" y1="311.5" y2="28" class="net_16"/>
  <line x1="180" x2="227" y1="28" y2="28" class="net_16"/>
  <line x1="170" x2="401" y1="441.5" y2="441.5" class="net_17"/>
  <line x1="170" x2="190" y1="441.5" y2="441.5" class="net_17"/>
  <line x1="190" x2="190" y1="441.5" y2="296.5" class="net_17"/>
  <circle cx="190" cy="441.5" r="2" style="fill:#000" class="net_17"/>
  <circle cx="190" cy="296.5" r="2" style="fill:#000" class="net_17"/>
  <line x1="190" x2="331" y1="296.5" y2="296.5" class="net_17"/>
  <line x1="170" x2="190" y1="441.5" y2="441.5" class="net_17"/>
  <line x1="190" x2="190" y1="441.5" y2="43" class="net_17"/>
  <line x1="190" x2="227" y1="43" y2="43" class="net_17"/>
  <line x1="233" x2="305" y1="521.5" y2="521.5" class="net_4,5"/>
  <line x1="305" x2="305" y1="521.5" y2="470.5" class="net_4,5"/>
  <line x1="305" x2="373" y1="470.5" y2="470.5" class="net_4,5"/>
  <line x1="373" x2="373" y1="470.5" y2="486.5" class="net_4,5"/>
  <circle cx="305" cy="521.5" r="2" style="fill:#000" class="net_4,5"/>
  <circle cx="305" cy="470.5" r="2" style="fill:#000" class="net_4,5"/>
  <line x1="373" x2="402.6666666666667" y1="486.5" y2="486.5" class="net_4,5"/>
  <line x1="233" x2="305" y1="521.5" y2="521.5" class="net_4,5"/>
  <line x1="305" x2="305" y1="521.5" y2="221.5" class="net_4,5"/>
  <line x1="305" x2="335.6666666666667" y1="221.5" y2="221.5" class="net_4,5"/>
  <line x1="233" x2="464.5" y1="521.5" y2="521.5" class="net_4,5"/>
  <line x1="363" x2="402.6666666666667" y1="501.5" y2="501.5" class="net_26"/>
  <line x1="421.3333333333333" x2="467.3333333333333" y1="181.5" y2="181.5" class="net_20"/>
  <line x1="428" x2="438" y1="434" y2="434" class="net_18"/>
  <line x1="438" x2="438" y1="434" y2="201.5" class="net_18"/>
  <line x1="438" x2="467.3333333333333" y1="201.5" y2="201.5" class="net_18"/>
  <line x1="424.6666666666667" x2="448" y1="494" y2="494" class="net_19"/>
  <line x1="448" x2="448" y1="494" y2="279" class="net_19"/>
  <line x1="448" x2="477.3333333333333" y1="279" y2="279" class="net_19"/>
  <line x1="477.3333333333333" x2="477.3333333333333" y1="279" y2="206.5" class="net_19"/>
  <line x1="235" x2="335.6666666666667" y1="236.5" y2="236.5" class="net_27,28"/>
  <line x1="361" x2="401.3333333333333" y1="171.5" y2="171.5" class="net_7"/>
  <line x1="363" x2="383" y1="103" y2="103" class="net_22"/>
  <line x1="383" x2="383" y1="103" y2="191.5" class="net_22"/>
  <circle cx="383" cy="103" r="2" style="fill:#000" class="net_22"/>
  <line x1="383" x2="401.3333333333333" y1="191.5" y2="191.5" class="net_22"/>
  <line x1="363" x2="534" y1="103" y2="103" class="net_22"/>
  <line x1="357.6666666666667" x2="411.3333333333333" y1="229" y2="229" class="net_21"/>
  <line x1="411.3333333333333" x2="411.3333333333333" y1="229" y2="196.5" class="net_21"/>
  <line x1="257" x2="331" y1="35.5" y2="35.5" class="net_23"/>
  <line x1="257" x2="315" y1="35.5" y2="35.5" class="net_23"/>
  <line x1="315" x2="315" y1="35.5" y2="95.5" class="net_23"/>
  <circle cx="315" cy="35.5" r="2" style="fill:#000" class="net_23"/>
  <line x1="315" x2="333" y1="95.5" y2="95.5" class="net_23"/>
  <line x1="233" x2="305" y1="110.5" y2="110.5" class="net_6"/>
  <line x1="305" x2="305" y1="110.5" y2="50.5" class="net_6"/>
  <circle cx="305" cy="110.5" r="2" style="fill:#000" class="net_6"/>
  <circle cx="305" cy="50.5" r="2" style="fill:#000" class="net_6"/>
  <line x1="305" x2="331" y1="50.5" y2="50.5" class="net_6"/>
  <line x1="233" x2="305" y1="110.5" y2="110.5" class="net_6"/>
  <line x1="305" x2="305" y1="110.5" y2="12" class="net_6"/>
  <line x1="305" x2="448" y1="12" y2="12" class="net_6"/>
  <line x1="448" x2="448" y1="12" y2="50.5" class="net_6"/>
  <line x1="448" x2="466" y1="50.5" y2="50.5" class="net_6"/>
  <line x1="233" x2="333" y1="110.5" y2="110.5" class="net_6"/>
  <line x1="361" x2="401" y1="43" y2="43" class="net_24"/>
  <line x1="428" x2="466" y1="35.5" y2="35.5" class="net_11"/>
  <line x1="428" x2="438" y1="35.5" y2="35.5" class="net_11"/>
  <line x1="438" x2="438" y1="35.5" y2="160.5" class="net_11"/>
  <circle cx="438" cy="35.5" r="2" style="fill:#000" class="net_11"/>
  <line x1="438" x2="599" y1="160.5" y2="160.5" class="net_11"/>
  <line x1="496" x2="506" y1="43" y2="43" class="net_25"/>
  <line x1="506" x2="506" y1="43" y2="88" class="net_25"/>
  <line x1="506" x2="534" y1="88" y2="88" class="net_25"/>
  <line x1="40" x2="112" y1="254" y2="254" class="net_8"/>
  <line x1="112" x2="112" y1="254" y2="304" class="net_8"/>
  <line x1="112" x2="140" y1="304" y2="304" class="net_8"/>
  <line x1="40" x2="140" y1="319" y2="319" class="net_2"/>
  <line x1="40" x2="112" y1="384" y2="384" class="net_9"/>
  <line x1="112" x2="112" y1="384" y2="434" class="net_9"/>
  <line x1="112" x2="140" y1="434" y2="434" class="net_9"/>
  <line x1="40" x2="140" y1="449" y2="449" class="net_3"/>
  <line x1="555.3333333333334" x2="599" y1="279" y2="279" class="net_10"/>
  <line x1="564" x2="599" y1="95.5" y2="95.5" class="net_12"/>
</svg>
