<svg xmlns="http://www.w3.org/2000/svg" xmlns:xlink="http://www.w3.org/1999/xlink" xmlns:s="https://github.com/nturley/netlistsvg" width="695" height="286">
  <style>svg {
    stroke:#000;
    fill:none;
  }
  text {
    fill:#000;
    stroke:none;
    font-size:10px;
    font-weight: bold;
    font-family: "Courier New", monospace;
  }
  .nodelabel {
    text-anchor: middle;
  }
  .inputPortLabel {
    text-anchor: end;
  }
  .splitjoinBody {
    fill:#000;
  }</style>
  <g s:type="not" transform="translate(164,169)" s:width="30" s:height="20" id="cell_\5">
    <s:alias val="$_NOT_"/>
    <s:alias val="$not"/>
    <s:alias val="$logic_not"/>
    <path d="M0,0 L0,20 L20,10 Z" class="cell_\5"/>
    <circle cx="23" cy="10" r="3" class="cell_\5"/>
    <g s:x="0" s:y="10" s:pid="A"/>
    <g s:x="25" s:y="10" s:pid="Y"/>
  </g>
  <g s:type="and" transform="translate(262,119)" s:width="30" s:height="25" id="cell_\6">
    <s:alias val="$and"/>
    <s:alias val="$logic_and"/>
    <s:alias val="$_AND_"/>
    <path d="M0,0 L0,25 L15,25 A15 12.5 0 0 0 15,0 Z" class="cell_\6"/>
    <g s:x="0" s:y="5" s:pid="A"/>
    <g s:x="0" s:y="20" s:pid="B"/>
    <g s:x="30" s:y="12.5" s:pid="Y"/>
  </g>
  <g s:type="generic" transform="translate(460,101)" s:width="30" s:height="40" id="cell_module_pc">
    <text x="15" y="-4" class="nodelabel cell_module_pc" s:attribute="ref">module_pc_32</text>
    <rect width="30" height="80" s:generic="body" class="cell_module_pc"/>
    <g transform="translate(0,10)" s:x="0" s:y="10" s:pid="in0" id="port_module_pc~clock">
      <text x="-3" y="-4" class="inputPortLabel cell_module_pc">clock</text>
    </g>
    <g transform="translate(0,30)" s:x="0" s:y="10" s:pid="in0" id="port_module_pc~enable">
      <text x="-3" y="-4" class="inputPortLabel cell_module_pc">enable</text>
    </g>
    <g transform="translate(0,50)" s:x="0" s:y="10" s:pid="in0" id="port_module_pc~jump_address">
      <text x="-3" y="-4" class="inputPortLabel cell_module_pc">jump_address</text>
    </g>
    <g transform="translate(0,70)" s:x="0" s:y="10" s:pid="in0" id="port_module_pc~selector">
      <text x="-3" y="-4" class="inputPortLabel cell_module_pc">selector</text>
    </g>
    <g transform="translate(30,10)" s:x="30" s:y="10" s:pid="out0" id="port_module_pc~destination">
      <text x="5" y="-4" style="fill:#000; stroke:none" class="cell_module_pc">destination</text>
    </g>
  </g>
  <g s:type="inputExt" transform="translate(232,64)" s:width="30" s:height="20" id="cell_clock">
    <text x="15" y="-4" class="nodelabel cell_clock" s:attribute="ref">clock</text>
    <s:alias val="$_inputExt_"/>
    <path d="M0,0 L0,20 L15,20 L30,10 L15,0 Z" class="cell_clock"/>
    <g s:x="28" s:y="10" s:pid="Y"/>
  </g>
  <g s:type="inputExt" transform="translate(161,114)" s:width="30" s:height="20" id="cell_enable">
    <text x="15" y="-4" class="nodelabel cell_enable" s:attribute="ref">enable</text>
    <s:alias val="$_inputExt_"/>
    <path d="M0,0 L0,20 L15,20 L30,10 L15,0 Z" class="cell_enable"/>
    <g s:x="28" s:y="10" s:pid="Y"/>
  </g>
  <g s:type="inputExt" transform="translate(12,169)" s:width="30" s:height="20" id="cell_source enable_stall">
    <text x="15" y="-4" class="nodelabel cell_source enable_stall" s:attribute="ref">source enable_stall</text>
    <s:alias val="$_inputExt_"/>
    <path d="M0,0 L0,20 L15,20 L30,10 L15,0 Z" class="cell_source enable_stall"/>
    <g s:x="28" s:y="10" s:pid="Y"/>
  </g>
  <g s:type="inputExt" transform="translate(132,22)" s:width="30" s:height="20" id="cell_source enable_flush">
    <text x="15" y="-4" class="nodelabel cell_source enable_flush" s:attribute="ref">source enable_flush</text>
    <s:alias val="$_inputExt_"/>
    <path d="M0,0 L0,20 L15,20 L30,10 L15,0 Z" class="cell_source enable_flush"/>
    <g s:x="28" s:y="10" s:pid="Y"/>
  </g>
  <g s:type="inputExt" transform="translate(12,22)" s:width="30" s:height="20" id="cell_source enable_jump">
    <text x="15" y="-4" class="nodelabel cell_source enable_jump" s:attribute="ref">source enable_jump</text>
    <s:alias val="$_inputExt_"/>
    <path d="M0,0 L0,20 L15,20 L30,10 L15,0 Z" class="cell_source enable_jump"/>
    <g s:x="28" s:y="10" s:pid="Y"/>
  </g>
  <g s:type="inputExt" transform="translate(232,254)" s:width="30" s:height="20" id="cell_source select_source">
    <text x="15" y="-4" class="nodelabel cell_source select_source" s:attribute="ref">source select_source</text>
    <s:alias val="$_inputExt_"/>
    <path d="M0,0 L0,20 L15,20 L30,10 L15,0 Z" class="cell_source select_source"/>
    <g s:x="28" s:y="10" s:pid="Y"/>
  </g>
  <g s:type="inputExt" transform="translate(232,189)" s:width="30" s:height="20" id="cell_address_jump">
    <text x="15" y="-4" class="nodelabel cell_address_jump" s:attribute="ref">address_jump</text>
    <s:alias val="$_inputExt_"/>
    <path d="M0,0 L0,20 L15,20 L30,10 L15,0 Z" class="cell_address_jump"/>
    <g s:x="28" s:y="10" s:pid="Y"/>
  </g>
  <g s:type="outputExt" transform="translate(593,101.5)" s:width="30" s:height="20" id="cell_address_program">
    <text x="15" y="-4" class="nodelabel cell_address_program" s:attribute="ref">address_program</text>
    <s:alias val="$_outputExt_"/>
    <path d="M30,0 L30,20 L15,20 L0,10 L15,0 Z" class="cell_address_program"/>
    <g s:x="0" s:y="10" s:pid="A"/>
  </g>
  <line x1="40" x2="164" y1="179" y2="179" class="net_4"/>
  <line x1="189" x2="262" y1="124" y2="124" class="net_3"/>
  <line x1="189" x2="207" y1="179" y2="179" class="net_72"/>
  <line x1="207" x2="207" y1="179" y2="139" class="net_72"/>
  <line x1="207" x2="262" y1="139" y2="139" class="net_72"/>
  <line x1="260" x2="362" y1="74" y2="74" class="net_2"/>
  <line x1="362" x2="362" y1="74" y2="111.5" class="net_2"/>
  <line x1="362" x2="460" y1="111.5" y2="111.5" class="net_2"/>
  <line x1="292" x2="460" y1="131.5" y2="131.5" class="net_73"/>
  <line x1="260" x2="362" y1="199" y2="199" class="net_8,9,10,11,12,13,14,15,16,17,18,19,20,21,22,23,24,25,26,27,28,29,30,31,32,33,34,35,36,37,38,39"/>
  <line x1="362" x2="362" y1="199" y2="151.5" class="net_8,9,10,11,12,13,14,15,16,17,18,19,20,21,22,23,24,25,26,27,28,29,30,31,32,33,34,35,36,37,38,39"/>
  <line x1="362" x2="460" y1="151.5" y2="151.5" class="net_8,9,10,11,12,13,14,15,16,17,18,19,20,21,22,23,24,25,26,27,28,29,30,31,32,33,34,35,36,37,38,39"/>
  <line x1="260" x2="372" y1="264" y2="264" class="net_7"/>
  <line x1="372" x2="372" y1="264" y2="171.5" class="net_7"/>
  <line x1="372" x2="460" y1="171.5" y2="171.5" class="net_7"/>
  <line x1="491" x2="593" y1="111.5" y2="111.5" class="net_40,41,42,43,44,45,46,47,48,49,50,51,52,53,54,55,56,57,58,59,60,61,62,63,64,65,66,67,68,69,70,71"/>
</svg>
