<svg xmlns="http://www.w3.org/2000/svg" xmlns:xlink="http://www.w3.org/1999/xlink" xmlns:s="https://github.com/nturley/netlistsvg" width="2119" height="901">
  <style>svg {
    stroke:#000;
    fill:none;
  }
  text {
    fill:#000;
    stroke:none;
    font-size:10px;
    font-weight: bold;
    font-family: "Courier New", monospace;
  }
  .nodelabel {
    text-anchor: middle;
  }
  .inputPortLabel {
    text-anchor: end;
  }
  .splitjoinBody {
    fill:#000;
  }</style>
  <g s:type="generic" transform="translate(1589.857142857143,373)" s:width="30" s:height="40" id="cell_memory_source ram">
    <text x="15" y="-4" class="nodelabel cell_memory_source ram" s:attribute="ref">generic_ram_32_32_10</text>
    <rect width="30" height="120" s:generic="body" class="cell_memory_source ram"/>
    <g transform="translate(0,10)" s:x="0" s:y="10" s:pid="in0" id="port_memory_source ram~address">
      <text x="-3" y="-4" class="inputPortLabel cell_memory_source ram">address</text>
    </g>
    <g transform="translate(0,30)" s:x="0" s:y="10" s:pid="in0" id="port_memory_source ram~clock">
      <text x="-3" y="-4" class="inputPortLabel cell_memory_source ram">clock</text>
    </g>
    <g transform="translate(0,50)" s:x="0" s:y="10" s:pid="in0" id="port_memory_source ram~enable">
      <text x="-3" y="-4" class="inputPortLabel cell_memory_source ram">enable</text>
    </g>
    <g transform="translate(0,70)" s:x="0" s:y="10" s:pid="in0" id="port_memory_source ram~enable_read">
      <text x="-3" y="-4" class="inputPortLabel cell_memory_source ram">enable_read</text>
    </g>
    <g transform="translate(0,90)" s:x="0" s:y="10" s:pid="in0" id="port_memory_source ram~enable_write">
      <text x="-3" y="-4" class="inputPortLabel cell_memory_source ram">enable_write</text>
    </g>
    <g transform="translate(0,110)" s:x="0" s:y="10" s:pid="in0" id="port_memory_source ram~source">
      <text x="-3" y="-4" class="inputPortLabel cell_memory_source ram">source</text>
    </g>
    <g transform="translate(30,10)" s:x="30" s:y="10" s:pid="out0" id="port_memory_source ram~destination">
      <text x="5" y="-4" style="fill:#000; stroke:none" class="cell_memory_source ram">destination</text>
    </g>
  </g>
  <g s:type="generic" transform="translate(1927,264.5)" s:width="30" s:height="40" id="cell_program_source rom">
    <text x="15" y="-4" class="nodelabel cell_program_source rom" s:attribute="ref">generic_rom_32_32_7</text>
    <rect width="30" height="20" s:generic="body" class="cell_program_source rom"/>
    <g transform="translate(0,10)" s:x="0" s:y="10" s:pid="in0" id="port_program_source rom~address">
      <text x="-3" y="-4" class="inputPortLabel cell_program_source rom">address</text>
    </g>
    <g transform="translate(30,10)" s:x="30" s:y="10" s:pid="out0" id="port_program_source rom~destination">
      <text x="5" y="-4" style="fill:#000; stroke:none" class="cell_program_source rom">destination</text>
    </g>
  </g>
  <g s:type="generic" transform="translate(758,401.5)" s:width="30" s:height="40" id="cell_stage_ex">
    <text x="15" y="-4" class="nodelabel cell_stage_ex" s:attribute="ref">stage_ex_bf8b4530d8d246dd74ac53a13471bba17941dff7</text>
    <rect width="30" height="280" s:generic="body" class="cell_stage_ex"/>
    <g transform="translate(0,10)" s:x="0" s:y="10" s:pid="in0" id="port_stage_ex~clear">
      <text x="-3" y="-4" class="inputPortLabel cell_stage_ex">clear</text>
    </g>
    <g transform="translate(0,30)" s:x="0" s:y="10" s:pid="in0" id="port_stage_ex~clock">
      <text x="-3" y="-4" class="inputPortLabel cell_stage_ex">clock</text>
    </g>
    <g transform="translate(0,50)" s:x="0" s:y="10" s:pid="in0" id="port_stage_ex~enable">
      <text x="-3" y="-4" class="inputPortLabel cell_stage_ex">enable</text>
    </g>
    <g transform="translate(0,70)" s:x="0" s:y="10" s:pid="in0" id="port_stage_ex~source address_program">
      <text x="-3" y="-4" class="inputPortLabel cell_stage_ex">source address_program</text>
    </g>
    <g transform="translate(0,90)" s:x="0" s:y="10" s:pid="in0" id="port_stage_ex~source control_ex">
      <text x="-3" y="-4" class="inputPortLabel cell_stage_ex">source control_ex</text>
    </g>
    <g transform="translate(0,110)" s:x="0" s:y="10" s:pid="in0" id="port_stage_ex~source control_mem">
      <text x="-3" y="-4" class="inputPortLabel cell_stage_ex">source control_mem</text>
    </g>
    <g transform="translate(0,130)" s:x="0" s:y="10" s:pid="in0" id="port_stage_ex~source control_wb">
      <text x="-3" y="-4" class="inputPortLabel cell_stage_ex">source control_wb</text>
    </g>
    <g transform="translate(0,150)" s:x="0" s:y="10" s:pid="in0" id="port_stage_ex~source data_immediate">
      <text x="-3" y="-4" class="inputPortLabel cell_stage_ex">source data_immediate</text>
    </g>
    <g transform="translate(0,170)" s:x="0" s:y="10" s:pid="in0" id="port_stage_ex~source data_source_1">
      <text x="-3" y="-4" class="inputPortLabel cell_stage_ex">source data_source_1</text>
    </g>
    <g transform="translate(0,190)" s:x="0" s:y="10" s:pid="in0" id="port_stage_ex~source data_source_2">
      <text x="-3" y="-4" class="inputPortLabel cell_stage_ex">source data_source_2</text>
    </g>
    <g transform="translate(0,210)" s:x="0" s:y="10" s:pid="in0" id="port_stage_ex~source funct_3">
      <text x="-3" y="-4" class="inputPortLabel cell_stage_ex">source funct_3</text>
    </g>
    <g transform="translate(0,230)" s:x="0" s:y="10" s:pid="in0" id="port_stage_ex~source funct_7">
      <text x="-3" y="-4" class="inputPortLabel cell_stage_ex">source funct_7</text>
    </g>
    <g transform="translate(0,250)" s:x="0" s:y="10" s:pid="in0" id="port_stage_ex~source opcode">
      <text x="-3" y="-4" class="inputPortLabel cell_stage_ex">source opcode</text>
    </g>
    <g transform="translate(0,270)" s:x="0" s:y="10" s:pid="in0" id="port_stage_ex~source select_destination">
      <text x="-3" y="-4" class="inputPortLabel cell_stage_ex">source select_destination</text>
    </g>
    <g transform="translate(30,10)" s:x="30" s:y="10" s:pid="out0" id="port_stage_ex~destination address_pointer">
      <text x="5" y="-4" style="fill:#000; stroke:none" class="cell_stage_ex">destination address_pointer</text>
    </g>
    <g transform="translate(30,30)" s:x="30" s:y="10" s:pid="out0" id="port_stage_ex~destination control_mem">
      <text x="5" y="-4" style="fill:#000; stroke:none" class="cell_stage_ex">destination control_mem</text>
    </g>
    <g transform="translate(30,50)" s:x="30" s:y="10" s:pid="out0" id="port_stage_ex~destination control_wb">
      <text x="5" y="-4" style="fill:#000; stroke:none" class="cell_stage_ex">destination control_wb</text>
    </g>
    <g transform="translate(30,70)" s:x="30" s:y="10" s:pid="out0" id="port_stage_ex~destination data_source_2">
      <text x="5" y="-4" style="fill:#000; stroke:none" class="cell_stage_ex">destination data_source_2</text>
    </g>
    <g transform="translate(30,90)" s:x="30" s:y="10" s:pid="out0" id="port_stage_ex~destination select_destination">
      <text x="5" y="-4" style="fill:#000; stroke:none" class="cell_stage_ex">destination select_destination</text>
    </g>
  </g>
  <g s:type="generic" transform="translate(251,199)" s:width="30" s:height="40" id="cell_stage_id">
    <text x="15" y="-4" class="nodelabel cell_stage_id" s:attribute="ref">stage_id_bf8b4530d8d246dd74ac53a13471bba17941dff7</text>
    <rect width="30" height="320" s:generic="body" class="cell_stage_id"/>
    <g transform="translate(0,10)" s:x="0" s:y="10" s:pid="in0" id="port_stage_id~clear">
      <text x="-3" y="-4" class="inputPortLabel cell_stage_id">clear</text>
    </g>
    <g transform="translate(0,30)" s:x="0" s:y="10" s:pid="in0" id="port_stage_id~clock">
      <text x="-3" y="-4" class="inputPortLabel cell_stage_id">clock</text>
    </g>
    <g transform="translate(0,50)" s:x="0" s:y="10" s:pid="in0" id="port_stage_id~data_destination">
      <text x="-3" y="-4" class="inputPortLabel cell_stage_id">data_destination</text>
    </g>
    <g transform="translate(0,70)" s:x="0" s:y="10" s:pid="in0" id="port_stage_id~enable">
      <text x="-3" y="-4" class="inputPortLabel cell_stage_id">enable</text>
    </g>
    <g transform="translate(0,90)" s:x="0" s:y="10" s:pid="in0" id="port_stage_id~select_destination">
      <text x="-3" y="-4" class="inputPortLabel cell_stage_id">select_destination</text>
    </g>
    <g transform="translate(0,110)" s:x="0" s:y="10" s:pid="in0" id="port_stage_id~source address_program">
      <text x="-3" y="-4" class="inputPortLabel cell_stage_id">source address_program</text>
    </g>
    <g transform="translate(0,130)" s:x="0" s:y="10" s:pid="in0" id="port_stage_id~source data_instruction">
      <text x="-3" y="-4" class="inputPortLabel cell_stage_id">source data_instruction</text>
    </g>
    <g transform="translate(30,10)" s:x="30" s:y="10" s:pid="out0" id="port_stage_id~address_jump">
      <text x="5" y="-4" style="fill:#000; stroke:none" class="cell_stage_id">address_jump</text>
    </g>
    <g transform="translate(30,30)" s:x="30" s:y="10" s:pid="out0" id="port_stage_id~control_if enable_flush">
      <text x="5" y="-4" style="fill:#000; stroke:none" class="cell_stage_id">control_if enable_flush</text>
    </g>
    <g transform="translate(30,50)" s:x="30" s:y="10" s:pid="out0" id="port_stage_id~control_if enable_jump">
      <text x="5" y="-4" style="fill:#000; stroke:none" class="cell_stage_id">control_if enable_jump</text>
    </g>
    <g transform="translate(30,70)" s:x="30" s:y="10" s:pid="out0" id="port_stage_id~control_if enable_stall">
      <text x="5" y="-4" style="fill:#000; stroke:none" class="cell_stage_id">control_if enable_stall</text>
    </g>
    <g transform="translate(30,90)" s:x="30" s:y="10" s:pid="out0" id="port_stage_id~control_if select_source">
      <text x="5" y="-4" style="fill:#000; stroke:none" class="cell_stage_id">control_if select_source</text>
    </g>
    <g transform="translate(30,110)" s:x="30" s:y="10" s:pid="out0" id="port_stage_id~signals_ex address_program">
      <text x="5" y="-4" style="fill:#000; stroke:none" class="cell_stage_id">signals_ex address_program</text>
    </g>
    <g transform="translate(30,130)" s:x="30" s:y="10" s:pid="out0" id="port_stage_id~signals_ex control_ex">
      <text x="5" y="-4" style="fill:#000; stroke:none" class="cell_stage_id">signals_ex control_ex</text>
    </g>
    <g transform="translate(30,150)" s:x="30" s:y="10" s:pid="out0" id="port_stage_id~signals_ex control_mem">
      <text x="5" y="-4" style="fill:#000; stroke:none" class="cell_stage_id">signals_ex control_mem</text>
    </g>
    <g transform="translate(30,170)" s:x="30" s:y="10" s:pid="out0" id="port_stage_id~signals_ex control_wb">
      <text x="5" y="-4" style="fill:#000; stroke:none" class="cell_stage_id">signals_ex control_wb</text>
    </g>
    <g transform="translate(30,190)" s:x="30" s:y="10" s:pid="out0" id="port_stage_id~signals_ex data_immediate">
      <text x="5" y="-4" style="fill:#000; stroke:none" class="cell_stage_id">signals_ex data_immediate</text>
    </g>
    <g transform="translate(30,210)" s:x="30" s:y="10" s:pid="out0" id="port_stage_id~signals_ex data_source_1">
      <text x="5" y="-4" style="fill:#000; stroke:none" class="cell_stage_id">signals_ex data_source_1</text>
    </g>
    <g transform="translate(30,230)" s:x="30" s:y="10" s:pid="out0" id="port_stage_id~signals_ex data_source_2">
      <text x="5" y="-4" style="fill:#000; stroke:none" class="cell_stage_id">signals_ex data_source_2</text>
    </g>
    <g transform="translate(30,250)" s:x="30" s:y="10" s:pid="out0" id="port_stage_id~signals_ex funct_3">
      <text x="5" y="-4" style="fill:#000; stroke:none" class="cell_stage_id">signals_ex funct_3</text>
    </g>
    <g transform="translate(30,270)" s:x="30" s:y="10" s:pid="out0" id="port_stage_id~signals_ex funct_7">
      <text x="5" y="-4" style="fill:#000; stroke:none" class="cell_stage_id">signals_ex funct_7</text>
    </g>
    <g transform="translate(30,290)" s:x="30" s:y="10" s:pid="out0" id="port_stage_id~signals_ex opcode">
      <text x="5" y="-4" style="fill:#000; stroke:none" class="cell_stage_id">signals_ex opcode</text>
    </g>
    <g transform="translate(30,310)" s:x="30" s:y="10" s:pid="out0" id="port_stage_id~signals_ex select_destination">
      <text x="5" y="-4" style="fill:#000; stroke:none" class="cell_stage_id">signals_ex select_destination</text>
    </g>
  </g>
  <g s:type="generic" transform="translate(1594,199)" s:width="30" s:height="40" id="cell_stage_if">
    <text x="15" y="-4" class="nodelabel cell_stage_if" s:attribute="ref">stage_if</text>
    <rect width="30" height="140" s:generic="body" class="cell_stage_if"/>
    <g transform="translate(0,10)" s:x="0" s:y="10" s:pid="in0" id="port_stage_if~address_jump">
      <text x="-3" y="-4" class="inputPortLabel cell_stage_if">address_jump</text>
    </g>
    <g transform="translate(0,30)" s:x="0" s:y="10" s:pid="in0" id="port_stage_if~clock">
      <text x="-3" y="-4" class="inputPortLabel cell_stage_if">clock</text>
    </g>
    <g transform="translate(0,50)" s:x="0" s:y="10" s:pid="in0" id="port_stage_if~enable">
      <text x="-3" y="-4" class="inputPortLabel cell_stage_if">enable</text>
    </g>
    <g transform="translate(0,70)" s:x="0" s:y="10" s:pid="in0" id="port_stage_if~source enable_flush">
      <text x="-3" y="-4" class="inputPortLabel cell_stage_if">source enable_flush</text>
    </g>
    <g transform="translate(0,90)" s:x="0" s:y="10" s:pid="in0" id="port_stage_if~source enable_jump">
      <text x="-3" y="-4" class="inputPortLabel cell_stage_if">source enable_jump</text>
    </g>
    <g transform="translate(0,110)" s:x="0" s:y="10" s:pid="in0" id="port_stage_if~source enable_stall">
      <text x="-3" y="-4" class="inputPortLabel cell_stage_if">source enable_stall</text>
    </g>
    <g transform="translate(0,130)" s:x="0" s:y="10" s:pid="in0" id="port_stage_if~source select_source">
      <text x="-3" y="-4" class="inputPortLabel cell_stage_if">source select_source</text>
    </g>
    <g transform="translate(30,10)" s:x="30" s:y="10" s:pid="out0" id="port_stage_if~address_program">
      <text x="5" y="-4" style="fill:#000; stroke:none" class="cell_stage_if">address_program</text>
    </g>
  </g>
  <g s:type="generic" transform="translate(1161,341.5)" s:width="30" s:height="40" id="cell_stage_mem">
    <text x="15" y="-4" class="nodelabel cell_stage_mem" s:attribute="ref">stage_mem_bf8b4530d8d246dd74ac53a13471bba17941dff7</text>
    <rect width="30" height="160" s:generic="body" class="cell_stage_mem"/>
    <g transform="translate(0,10)" s:x="0" s:y="10" s:pid="in0" id="port_stage_mem~clear">
      <text x="-3" y="-4" class="inputPortLabel cell_stage_mem">clear</text>
    </g>
    <g transform="translate(0,30)" s:x="0" s:y="10" s:pid="in0" id="port_stage_mem~clock">
      <text x="-3" y="-4" class="inputPortLabel cell_stage_mem">clock</text>
    </g>
    <g transform="translate(0,50)" s:x="0" s:y="10" s:pid="in0" id="port_stage_mem~enable">
      <text x="-3" y="-4" class="inputPortLabel cell_stage_mem">enable</text>
    </g>
    <g transform="translate(0,70)" s:x="0" s:y="10" s:pid="in0" id="port_stage_mem~source address_pointer">
      <text x="-3" y="-4" class="inputPortLabel cell_stage_mem">source address_pointer</text>
    </g>
    <g transform="translate(0,90)" s:x="0" s:y="10" s:pid="in0" id="port_stage_mem~source control_mem">
      <text x="-3" y="-4" class="inputPortLabel cell_stage_mem">source control_mem</text>
    </g>
    <g transform="translate(0,110)" s:x="0" s:y="10" s:pid="in0" id="port_stage_mem~source control_wb">
      <text x="-3" y="-4" class="inputPortLabel cell_stage_mem">source control_wb</text>
    </g>
    <g transform="translate(0,130)" s:x="0" s:y="10" s:pid="in0" id="port_stage_mem~source data_source_2">
      <text x="-3" y="-4" class="inputPortLabel cell_stage_mem">source data_source_2</text>
    </g>
    <g transform="translate(0,150)" s:x="0" s:y="10" s:pid="in0" id="port_stage_mem~source select_destination">
      <text x="-3" y="-4" class="inputPortLabel cell_stage_mem">source select_destination</text>
    </g>
    <g transform="translate(30,10)" s:x="30" s:y="10" s:pid="out0" id="port_stage_mem~address_memory">
      <text x="5" y="-4" style="fill:#000; stroke:none" class="cell_stage_mem">address_memory</text>
    </g>
    <g transform="translate(30,30)" s:x="30" s:y="10" s:pid="out0" id="port_stage_mem~control_memory enable_read">
      <text x="5" y="-4" style="fill:#000; stroke:none" class="cell_stage_mem">control_memory enable_read</text>
    </g>
    <g transform="translate(30,50)" s:x="30" s:y="10" s:pid="out0" id="port_stage_mem~control_memory enable_write">
      <text x="5" y="-4" style="fill:#000; stroke:none" class="cell_stage_mem">control_memory enable_write</text>
    </g>
    <g transform="translate(30,70)" s:x="30" s:y="10" s:pid="out0" id="port_stage_mem~data_memory">
      <text x="5" y="-4" style="fill:#000; stroke:none" class="cell_stage_mem">data_memory</text>
    </g>
    <g transform="translate(30,90)" s:x="30" s:y="10" s:pid="out0" id="port_stage_mem~destination control_wb">
      <text x="5" y="-4" style="fill:#000; stroke:none" class="cell_stage_mem">destination control_wb</text>
    </g>
    <g transform="translate(30,110)" s:x="30" s:y="10" s:pid="out0" id="port_stage_mem~destination data_destination">
      <text x="5" y="-4" style="fill:#000; stroke:none" class="cell_stage_mem">destination data_destination</text>
    </g>
    <g transform="translate(30,130)" s:x="30" s:y="10" s:pid="out0" id="port_stage_mem~destination data_memory">
      <text x="5" y="-4" style="fill:#000; stroke:none" class="cell_stage_mem">destination data_memory</text>
    </g>
    <g transform="translate(30,150)" s:x="30" s:y="10" s:pid="out0" id="port_stage_mem~destination select_destination">
      <text x="5" y="-4" style="fill:#000; stroke:none" class="cell_stage_mem">destination select_destination</text>
    </g>
  </g>
  <g s:type="generic" transform="translate(1927,691)" s:width="30" s:height="40" id="cell_stage_wb">
    <text x="15" y="-4" class="nodelabel cell_stage_wb" s:attribute="ref">stage_wb_bf8b4530d8d246dd74ac53a13471bba17941dff7</text>
    <rect width="30" height="140" s:generic="body" class="cell_stage_wb"/>
    <g transform="translate(0,10)" s:x="0" s:y="10" s:pid="in0" id="port_stage_wb~clear">
      <text x="-3" y="-4" class="inputPortLabel cell_stage_wb">clear</text>
    </g>
    <g transform="translate(0,30)" s:x="0" s:y="10" s:pid="in0" id="port_stage_wb~clock">
      <text x="-3" y="-4" class="inputPortLabel cell_stage_wb">clock</text>
    </g>
    <g transform="translate(0,50)" s:x="0" s:y="10" s:pid="in0" id="port_stage_wb~enable">
      <text x="-3" y="-4" class="inputPortLabel cell_stage_wb">enable</text>
    </g>
    <g transform="translate(0,70)" s:x="0" s:y="10" s:pid="in0" id="port_stage_wb~source control_wb">
      <text x="-3" y="-4" class="inputPortLabel cell_stage_wb">source control_wb</text>
    </g>
    <g transform="translate(0,90)" s:x="0" s:y="10" s:pid="in0" id="port_stage_wb~source data_destination">
      <text x="-3" y="-4" class="inputPortLabel cell_stage_wb">source data_destination</text>
    </g>
    <g transform="translate(0,110)" s:x="0" s:y="10" s:pid="in0" id="port_stage_wb~source data_memory">
      <text x="-3" y="-4" class="inputPortLabel cell_stage_wb">source data_memory</text>
    </g>
    <g transform="translate(0,130)" s:x="0" s:y="10" s:pid="in0" id="port_stage_wb~source select_destination">
      <text x="-3" y="-4" class="inputPortLabel cell_stage_wb">source select_destination</text>
    </g>
    <g transform="translate(30,10)" s:x="30" s:y="10" s:pid="out0" id="port_stage_wb~destination">
      <text x="5" y="-4" style="fill:#000; stroke:none" class="cell_stage_wb">destination</text>
    </g>
    <g transform="translate(30,30)" s:x="30" s:y="10" s:pid="out0" id="port_stage_wb~enable_destination">
      <text x="5" y="-4" style="fill:#000; stroke:none" class="cell_stage_wb">enable_destination</text>
    </g>
    <g transform="translate(30,50)" s:x="30" s:y="10" s:pid="out0" id="port_stage_wb~select_destination">
      <text x="5" y="-4" style="fill:#000; stroke:none" class="cell_stage_wb">select_destination</text>
    </g>
  </g>
  <g s:type="inputExt" transform="translate(12,107)" s:width="30" s:height="20" id="cell_CLOCK">
    <text x="15" y="-4" class="nodelabel cell_CLOCK" s:attribute="ref">CLOCK</text>
    <s:alias val="$_inputExt_"/>
    <path d="M0,0 L0,20 L15,20 L30,10 L15,0 Z" class="cell_CLOCK"/>
    <g s:x="28" s:y="10" s:pid="Y"/>
  </g>
  <g s:type="inputExt" transform="translate(12,22)" s:width="30" s:height="20" id="cell_DATA_PROGRAM">
    <text x="15" y="-4" class="nodelabel cell_DATA_PROGRAM" s:attribute="ref">DATA_PROGRAM</text>
    <s:alias val="$_inputExt_"/>
    <path d="M0,0 L0,20 L15,20 L30,10 L15,0 Z" class="cell_DATA_PROGRAM"/>
    <g s:x="28" s:y="10" s:pid="Y"/>
  </g>
  <g s:type="inputExt" transform="translate(96,22)" s:width="30" s:height="20" id="cell_DATA_MEMORY_IN">
    <text x="15" y="-4" class="nodelabel cell_DATA_MEMORY_IN" s:attribute="ref">DATA_MEMORY_IN</text>
    <s:alias val="$_inputExt_"/>
    <path d="M0,0 L0,20 L15,20 L30,10 L15,0 Z" class="cell_DATA_MEMORY_IN"/>
    <g s:x="28" s:y="10" s:pid="Y"/>
  </g>
  <g s:type="inputExt" transform="translate(192,35)" s:width="30" s:height="20" id="cell_SW">
    <text x="15" y="-4" class="nodelabel cell_SW" s:attribute="ref">SW</text>
    <s:alias val="$_inputExt_"/>
    <path d="M0,0 L0,20 L15,20 L30,10 L15,0 Z" class="cell_SW"/>
    <g s:x="28" s:y="10" s:pid="Y"/>
  </g>
  <g s:type="outputExt" transform="translate(1927,626)" s:width="30" s:height="20" id="cell_DATA_MEMORY_OUT">
    <text x="15" y="-4" class="nodelabel cell_DATA_MEMORY_OUT" s:attribute="ref">DATA_MEMORY_OUT</text>
    <s:alias val="$_outputExt_"/>
    <path d="M30,0 L30,20 L15,20 L0,10 L15,0 Z" class="cell_DATA_MEMORY_OUT"/>
    <g s:x="0" s:y="10" s:pid="A"/>
  </g>
  <g s:type="outputExt" transform="translate(1927,199.5)" s:width="30" s:height="20" id="cell_ADDRESS_PROGRAM">
    <text x="15" y="-4" class="nodelabel cell_ADDRESS_PROGRAM" s:attribute="ref">ADDRESS_PROGRAM</text>
    <s:alias val="$_outputExt_"/>
    <path d="M30,0 L30,20 L15,20 L0,10 L15,0 Z" class="cell_ADDRESS_PROGRAM"/>
    <g s:x="0" s:y="10" s:pid="A"/>
  </g>
  <g s:type="outputExt" transform="translate(1927,342)" s:width="30" s:height="20" id="cell_ADDRESS_MEMORY">
    <text x="15" y="-4" class="nodelabel cell_ADDRESS_MEMORY" s:attribute="ref">ADDRESS_MEMORY</text>
    <s:alias val="$_outputExt_"/>
    <path d="M30,0 L30,20 L15,20 L0,10 L15,0 Z" class="cell_ADDRESS_MEMORY"/>
    <g s:x="0" s:y="10" s:pid="A"/>
  </g>
  <g s:type="outputExt" transform="translate(1927,496)" s:width="30" s:height="20" id="cell_MEMORY_READ">
    <text x="15" y="-4" class="nodelabel cell_MEMORY_READ" s:attribute="ref">MEMORY_READ</text>
    <s:alias val="$_outputExt_"/>
    <path d="M30,0 L30,20 L15,20 L0,10 L15,0 Z" class="cell_MEMORY_READ"/>
    <g s:x="0" s:y="10" s:pid="A"/>
  </g>
  <g s:type="outputExt" transform="translate(1927,561)" s:width="30" s:height="20" id="cell_MEMORY_WRITE">
    <text x="15" y="-4" class="nodelabel cell_MEMORY_WRITE" s:attribute="ref">MEMORY_WRITE</text>
    <s:alias val="$_outputExt_"/>
    <path d="M30,0 L30,20 L15,20 L0,10 L15,0 Z" class="cell_MEMORY_WRITE"/>
    <g s:x="0" s:y="10" s:pid="A"/>
  </g>
  <g s:type="outputExt" transform="translate(370,55)" s:width="30" s:height="20" id="cell_LED">
    <text x="15" y="-4" class="nodelabel cell_LED" s:attribute="ref">LED</text>
    <s:alias val="$_outputExt_"/>
    <path d="M30,0 L30,20 L15,20 L0,10 L15,0 Z" class="cell_LED"/>
    <g s:x="0" s:y="10" s:pid="A"/>
  </g>
  <g s:type="constant" transform="translate(251,138)" s:width="30" s:height="20" id="cell_1">
    <text x="15" y="-4" class="nodelabel cell_1" s:attribute="ref">1</text>
    <s:alias val="$_constant_"/>
    <rect width="30" height="20" class="cell_1"/>
    <g s:x="30" s:y="10" s:pid="Y"/>
  </g>
  <g s:type="constant" transform="translate(12,199.5)" s:width="30" s:height="20" id="cell_0">
    <text x="15" y="-4" class="nodelabel cell_0" s:attribute="ref">0</text>
    <s:alias val="$_constant_"/>
    <rect width="30" height="20" class="cell_0"/>
    <g s:x="30" s:y="10" s:pid="Y"/>
  </g>
  <g s:type="constant" transform="translate(257,65)" s:width="30" s:height="20" id="cell_0000000">
    <text x="15" y="-4" class="nodelabel cell_0000000" s:attribute="ref">0x0</text>
    <s:alias val="$_constant_"/>
    <rect width="30" height="20" class="cell_0000000"/>
    <g s:x="30" s:y="10" s:pid="Y"/>
  </g>
  <g s:type="join" transform="translate(329,44.5)" s:width="4" s:height="40" id="cell_$join$,68,618,619,620,621,622,623,624,">
    <rect width="5" height="40" class="splitjoinBody" s:generic="body"/>
    <s:alias val="$_join_"/>
    <g s:x="5" s:y="20" s:pid="out"/>
    <g transform="translate(0,10)" s:x="0" s:y="10" s:pid="in0">
      <text x="-3" y="-4" class="inputPortLabel">0</text>
    </g>
    <g transform="translate(0,30)" s:x="0" s:y="10" s:pid="in0">
      <text x="-3" y="-4" class="inputPortLabel">1:7</text>
    </g>
  </g>
  <g s:type="split" transform="translate(275,12)" s:width="5" s:height="40" id="cell_$split$,67,68,69,70,">
    <rect width="5" height="20" class="splitjoinBody" s:generic="body"/>
    <s:alias val="$_split_"/>
    <g s:x="0" s:y="20" s:pid="in"/>
    <g transform="translate(4,10)" s:x="4" s:y="10" s:pid="out0">
      <text x="5" y="-4">1</text>
    </g>
  </g>
  <line x1="1192" x2="1463" y1="352" y2="352" class="net_135,136,137,138,139,140,141,142,143,144,145,146,147,148,149,150,151,152,153,154,155,156,157,158,159,160,161,162,163,164,165,166"/>
  <line x1="1463" x2="1463" y1="352" y2="383.5" class="net_135,136,137,138,139,140,141,142,143,144,145,146,147,148,149,150,151,152,153,154,155,156,157,158,159,160,161,162,163,164,165,166"/>
  <circle cx="1463" cy="352" r="2" style="fill:#000" class="net_135,136,137,138,139,140,141,142,143,144,145,146,147,148,149,150,151,152,153,154,155,156,157,158,159,160,161,162,163,164,165,166"/>
  <line x1="1463" x2="1589.857142857143" y1="383.5" y2="383.5" class="net_135,136,137,138,139,140,141,142,143,144,145,146,147,148,149,150,151,152,153,154,155,156,157,158,159,160,161,162,163,164,165,166"/>
  <line x1="1192" x2="1927" y1="352" y2="352" class="net_135,136,137,138,139,140,141,142,143,144,145,146,147,148,149,150,151,152,153,154,155,156,157,158,159,160,161,162,163,164,165,166"/>
  <line x1="40" x2="1453" y1="117" y2="117" class="net_2"/>
  <line x1="1453" x2="1453" y1="117" y2="403.5" class="net_2"/>
  <line x1="1453" x2="1589.857142857143" y1="403.5" y2="403.5" class="net_2"/>
  <line x1="40" x2="102" y1="117" y2="117" class="net_2"/>
  <line x1="102" x2="102" y1="117" y2="168" class="net_2"/>
  <line x1="102" x2="587" y1="168" y2="168" class="net_2"/>
  <line x1="587" x2="587" y1="168" y2="432" class="net_2"/>
  <circle cx="102" cy="117" r="2" style="fill:#000" class="net_2"/>
  <circle cx="102" cy="168" r="2" style="fill:#000" class="net_2"/>
  <line x1="587" x2="758" y1="432" y2="432" class="net_2"/>
  <line x1="40" x2="102" y1="117" y2="117" class="net_2"/>
  <line x1="102" x2="102" y1="117" y2="229.5" class="net_2"/>
  <line x1="102" x2="251" y1="229.5" y2="229.5" class="net_2"/>
  <line x1="40" x2="1453" y1="117" y2="117" class="net_2"/>
  <line x1="1453" x2="1453" y1="117" y2="229.5" class="net_2"/>
  <circle cx="1453" cy="117" r="2" style="fill:#000" class="net_2"/>
  <circle cx="1453" cy="229.5" r="2" style="fill:#000" class="net_2"/>
  <line x1="1453" x2="1594" y1="229.5" y2="229.5" class="net_2"/>
  <line x1="40" x2="1000" y1="117" y2="117" class="net_2"/>
  <line x1="1000" x2="1000" y1="117" y2="372" class="net_2"/>
  <circle cx="1000" cy="117" r="2" style="fill:#000" class="net_2"/>
  <line x1="1000" x2="1161" y1="372" y2="372" class="net_2"/>
  <line x1="40" x2="1766" y1="117" y2="117" class="net_2"/>
  <line x1="1766" x2="1766" y1="117" y2="721.5" class="net_2"/>
  <line x1="1766" x2="1927" y1="721.5" y2="721.5" class="net_2"/>
  <line x1="281" x2="1443" y1="148" y2="148" class="net_609"/>
  <line x1="1443" x2="1443" y1="148" y2="423.5" class="net_609"/>
  <circle cx="1443" cy="148" r="2" style="fill:#000" class="net_609"/>
  <line x1="1443" x2="1589.857142857143" y1="423.5" y2="423.5" class="net_609"/>
  <line x1="281" x2="597" y1="148" y2="148" class="net_609"/>
  <line x1="597" x2="597" y1="148" y2="452" class="net_609"/>
  <circle cx="597" cy="148" r="2" style="fill:#000" class="net_609"/>
  <line x1="597" x2="758" y1="452" y2="452" class="net_609"/>
  <line x1="281" x2="1443" y1="148" y2="148" class="net_609"/>
  <line x1="1443" x2="1443" y1="148" y2="249.5" class="net_609"/>
  <circle cx="1443" cy="249.5" r="2" style="fill:#000" class="net_609"/>
  <line x1="1443" x2="1594" y1="249.5" y2="249.5" class="net_609"/>
  <line x1="281" x2="980" y1="148" y2="148" class="net_609"/>
  <line x1="980" x2="980" y1="148" y2="392" class="net_609"/>
  <circle cx="980" cy="148" r="2" style="fill:#000" class="net_609"/>
  <line x1="980" x2="1161" y1="392" y2="392" class="net_609"/>
  <line x1="281" x2="1746" y1="148" y2="148" class="net_609"/>
  <line x1="1746" x2="1746" y1="148" y2="741.5" class="net_609"/>
  <line x1="1746" x2="1927" y1="741.5" y2="741.5" class="net_609"/>
  <line x1="1192" x2="1433" y1="372" y2="372" class="net_167"/>
  <line x1="1433" x2="1433" y1="372" y2="443.5" class="net_167"/>
  <circle cx="1433" cy="443.5" r="2" style="fill:#000" class="net_167"/>
  <line x1="1433" x2="1589.857142857143" y1="443.5" y2="443.5" class="net_167"/>
  <line x1="1192" x2="1433" y1="372" y2="372" class="net_167"/>
  <line x1="1433" x2="1433" y1="372" y2="506" class="net_167"/>
  <line x1="1433" x2="1927" y1="506" y2="506" class="net_167"/>
  <line x1="1192" x2="1423" y1="392" y2="392" class="net_168"/>
  <line x1="1423" x2="1423" y1="392" y2="463.5" class="net_168"/>
  <circle cx="1423" cy="463.5" r="2" style="fill:#000" class="net_168"/>
  <line x1="1423" x2="1589.857142857143" y1="463.5" y2="463.5" class="net_168"/>
  <line x1="1192" x2="1423" y1="392" y2="392" class="net_168"/>
  <line x1="1423" x2="1423" y1="392" y2="571" class="net_168"/>
  <line x1="1423" x2="1927" y1="571" y2="571" class="net_168"/>
  <line x1="1192" x2="1413" y1="412" y2="412" class="net_71,72,73,74,75,76,77,78,79,80,81,82,83,84,85,86,87,88,89,90,91,92,93,94,95,96,97,98,99,100,101,102"/>
  <line x1="1413" x2="1413" y1="412" y2="483.5" class="net_71,72,73,74,75,76,77,78,79,80,81,82,83,84,85,86,87,88,89,90,91,92,93,94,95,96,97,98,99,100,101,102"/>
  <circle cx="1413" cy="483.5" r="2" style="fill:#000" class="net_71,72,73,74,75,76,77,78,79,80,81,82,83,84,85,86,87,88,89,90,91,92,93,94,95,96,97,98,99,100,101,102"/>
  <line x1="1413" x2="1589.857142857143" y1="483.5" y2="483.5" class="net_71,72,73,74,75,76,77,78,79,80,81,82,83,84,85,86,87,88,89,90,91,92,93,94,95,96,97,98,99,100,101,102"/>
  <line x1="1192" x2="1413" y1="412" y2="412" class="net_71,72,73,74,75,76,77,78,79,80,81,82,83,84,85,86,87,88,89,90,91,92,93,94,95,96,97,98,99,100,101,102"/>
  <line x1="1413" x2="1413" y1="412" y2="636" class="net_71,72,73,74,75,76,77,78,79,80,81,82,83,84,85,86,87,88,89,90,91,92,93,94,95,96,97,98,99,100,101,102"/>
  <line x1="1413" x2="1927" y1="636" y2="636" class="net_71,72,73,74,75,76,77,78,79,80,81,82,83,84,85,86,87,88,89,90,91,92,93,94,95,96,97,98,99,100,101,102"/>
  <line x1="1625" x2="1756" y1="209.5" y2="209.5" class="net_103,104,105,106,107,108,109,110,111,112,113,114,115,116,117,118,119,120,121,122,123,124,125,126,127,128,129,130,131,132,133,134"/>
  <line x1="1756" x2="1756" y1="209.5" y2="275" class="net_103,104,105,106,107,108,109,110,111,112,113,114,115,116,117,118,119,120,121,122,123,124,125,126,127,128,129,130,131,132,133,134"/>
  <line x1="1756" x2="1927" y1="275" y2="275" class="net_103,104,105,106,107,108,109,110,111,112,113,114,115,116,117,118,119,120,121,122,123,124,125,126,127,128,129,130,131,132,133,134"/>
  <line x1="1625" x2="1756" y1="209.5" y2="209.5" class="net_103,104,105,106,107,108,109,110,111,112,113,114,115,116,117,118,119,120,121,122,123,124,125,126,127,128,129,130,131,132,133,134"/>
  <line x1="1756" x2="1756" y1="209.5" y2="179" class="net_103,104,105,106,107,108,109,110,111,112,113,114,115,116,117,118,119,120,121,122,123,124,125,126,127,128,129,130,131,132,133,134"/>
  <line x1="1756" x2="92" y1="179" y2="179" class="net_103,104,105,106,107,108,109,110,111,112,113,114,115,116,117,118,119,120,121,122,123,124,125,126,127,128,129,130,131,132,133,134"/>
  <line x1="92" x2="92" y1="179" y2="309.5" class="net_103,104,105,106,107,108,109,110,111,112,113,114,115,116,117,118,119,120,121,122,123,124,125,126,127,128,129,130,131,132,133,134"/>
  <circle cx="1756" cy="209.5" r="2" style="fill:#000" class="net_103,104,105,106,107,108,109,110,111,112,113,114,115,116,117,118,119,120,121,122,123,124,125,126,127,128,129,130,131,132,133,134"/>
  <line x1="92" x2="251" y1="309.5" y2="309.5" class="net_103,104,105,106,107,108,109,110,111,112,113,114,115,116,117,118,119,120,121,122,123,124,125,126,127,128,129,130,131,132,133,134"/>
  <line x1="1625" x2="1927" y1="209.5" y2="209.5" class="net_103,104,105,106,107,108,109,110,111,112,113,114,115,116,117,118,119,120,121,122,123,124,125,126,127,128,129,130,131,132,133,134"/>
  <line x1="42" x2="52" y1="209.5" y2="209.5" class="net_610"/>
  <line x1="52" x2="52" y1="209.5" y2="888" class="net_610"/>
  <line x1="52" x2="577" y1="888" y2="888" class="net_610"/>
  <line x1="577" x2="577" y1="888" y2="412" class="net_610"/>
  <circle cx="52" cy="209.5" r="2" style="fill:#000" class="net_610"/>
  <circle cx="577" cy="888" r="2" style="fill:#000" class="net_610"/>
  <line x1="577" x2="758" y1="412" y2="412" class="net_610"/>
  <line x1="42" x2="251" y1="209.5" y2="209.5" class="net_610"/>
  <line x1="42" x2="52" y1="209.5" y2="209.5" class="net_610"/>
  <line x1="52" x2="52" y1="209.5" y2="888" class="net_610"/>
  <line x1="52" x2="990" y1="888" y2="888" class="net_610"/>
  <line x1="990" x2="990" y1="888" y2="352" class="net_610"/>
  <circle cx="990" cy="888" r="2" style="fill:#000" class="net_610"/>
  <line x1="990" x2="1161" y1="352" y2="352" class="net_610"/>
  <line x1="42" x2="52" y1="209.5" y2="209.5" class="net_610"/>
  <line x1="52" x2="52" y1="209.5" y2="888" class="net_610"/>
  <line x1="52" x2="1756" y1="888" y2="888" class="net_610"/>
  <line x1="1756" x2="1756" y1="888" y2="701.5" class="net_610"/>
  <line x1="1756" x2="1927" y1="701.5" y2="701.5" class="net_610"/>
  <line x1="282" x2="567" y1="309.5" y2="309.5" class="net_306,307,308,309,310,311,312,313,314,315,316,317,318,319,320,321,322,323,324,325,326,327,328,329,330,331,332,333,334,335,336,337"/>
  <line x1="567" x2="567" y1="309.5" y2="472" class="net_306,307,308,309,310,311,312,313,314,315,316,317,318,319,320,321,322,323,324,325,326,327,328,329,330,331,332,333,334,335,336,337"/>
  <line x1="567" x2="758" y1="472" y2="472" class="net_306,307,308,309,310,311,312,313,314,315,316,317,318,319,320,321,322,323,324,325,326,327,328,329,330,331,332,333,334,335,336,337"/>
  <line x1="282" x2="557" y1="329.5" y2="329.5" class="net_338,339,340,341,342,343"/>
  <line x1="557" x2="557" y1="329.5" y2="492" class="net_338,339,340,341,342,343"/>
  <line x1="557" x2="758" y1="492" y2="492" class="net_338,339,340,341,342,343"/>
  <line x1="282" x2="547" y1="349.5" y2="349.5" class="net_344,345"/>
  <line x1="547" x2="547" y1="349.5" y2="512" class="net_344,345"/>
  <line x1="547" x2="758" y1="512" y2="512" class="net_344,345"/>
  <line x1="282" x2="537" y1="369.5" y2="369.5" class="net_346,347"/>
  <line x1="537" x2="537" y1="369.5" y2="532" class="net_346,347"/>
  <line x1="537" x2="758" y1="532" y2="532" class="net_346,347"/>
  <line x1="282" x2="527" y1="389.5" y2="389.5" class="net_348,349,350,351,352,353,354,355,356,357,358,359,360,361,362,363,364,365,366,367,368,369,370,371,372,373,374,375,376,377,378,379"/>
  <line x1="527" x2="527" y1="389.5" y2="552" class="net_348,349,350,351,352,353,354,355,356,357,358,359,360,361,362,363,364,365,366,367,368,369,370,371,372,373,374,375,376,377,378,379"/>
  <line x1="527" x2="758" y1="552" y2="552" class="net_348,349,350,351,352,353,354,355,356,357,358,359,360,361,362,363,364,365,366,367,368,369,370,371,372,373,374,375,376,377,378,379"/>
  <line x1="282" x2="517" y1="409.5" y2="409.5" class="net_380,381,382,383,384,385,386,387,388,389,390,391,392,393,394,395,396,397,398,399,400,401,402,403,404,405,406,407,408,409,410,411"/>
  <line x1="517" x2="517" y1="409.5" y2="572" class="net_380,381,382,383,384,385,386,387,388,389,390,391,392,393,394,395,396,397,398,399,400,401,402,403,404,405,406,407,408,409,410,411"/>
  <line x1="517" x2="758" y1="572" y2="572" class="net_380,381,382,383,384,385,386,387,388,389,390,391,392,393,394,395,396,397,398,399,400,401,402,403,404,405,406,407,408,409,410,411"/>
  <line x1="282" x2="507" y1="429.5" y2="429.5" class="net_412,413,414,415,416,417,418,419,420,421,422,423,424,425,426,427,428,429,430,431,432,433,434,435,436,437,438,439,440,441,442,443"/>
  <line x1="507" x2="507" y1="429.5" y2="592" class="net_412,413,414,415,416,417,418,419,420,421,422,423,424,425,426,427,428,429,430,431,432,433,434,435,436,437,438,439,440,441,442,443"/>
  <line x1="507" x2="758" y1="592" y2="592" class="net_412,413,414,415,416,417,418,419,420,421,422,423,424,425,426,427,428,429,430,431,432,433,434,435,436,437,438,439,440,441,442,443"/>
  <line x1="282" x2="497" y1="449.5" y2="449.5" class="net_444,445,446"/>
  <line x1="497" x2="497" y1="449.5" y2="612" class="net_444,445,446"/>
  <line x1="497" x2="758" y1="612" y2="612" class="net_444,445,446"/>
  <line x1="282" x2="487" y1="469.5" y2="469.5" class="net_447,448,449,450,451,452,453"/>
  <line x1="487" x2="487" y1="469.5" y2="632" class="net_447,448,449,450,451,452,453"/>
  <line x1="487" x2="758" y1="632" y2="632" class="net_447,448,449,450,451,452,453"/>
  <line x1="282" x2="477" y1="489.5" y2="489.5" class="net_454,455,456,457,458"/>
  <line x1="477" x2="477" y1="489.5" y2="652" class="net_454,455,456,457,458"/>
  <line x1="477" x2="758" y1="652" y2="652" class="net_454,455,456,457,458"/>
  <line x1="282" x2="467" y1="509.5" y2="509.5" class="net_459,460,461,462,463"/>
  <line x1="467" x2="467" y1="509.5" y2="672" class="net_459,460,461,462,463"/>
  <line x1="467" x2="758" y1="672" y2="672" class="net_459,460,461,462,463"/>
  <line x1="1958" x2="2077" y1="701.5" y2="701.5" class="net_500,501,502,503,504,505,506,507,508,509,510,511,512,513,514,515,516,517,518,519,520,521,522,523,524,525,526,527,528,529,530,531"/>
  <line x1="2077" x2="2077" y1="701.5" y2="844" class="net_500,501,502,503,504,505,506,507,508,509,510,511,512,513,514,515,516,517,518,519,520,521,522,523,524,525,526,527,528,529,530,531"/>
  <line x1="2077" x2="82" y1="844" y2="844" class="net_500,501,502,503,504,505,506,507,508,509,510,511,512,513,514,515,516,517,518,519,520,521,522,523,524,525,526,527,528,529,530,531"/>
  <line x1="82" x2="82" y1="844" y2="249.5" class="net_500,501,502,503,504,505,506,507,508,509,510,511,512,513,514,515,516,517,518,519,520,521,522,523,524,525,526,527,528,529,530,531"/>
  <line x1="82" x2="251" y1="249.5" y2="249.5" class="net_500,501,502,503,504,505,506,507,508,509,510,511,512,513,514,515,516,517,518,519,520,521,522,523,524,525,526,527,528,529,530,531"/>
  <line x1="1958" x2="2097" y1="721.5" y2="721.5" class="net_532"/>
  <line x1="2097" x2="2097" y1="721.5" y2="877" class="net_532"/>
  <line x1="2097" x2="62" y1="877" y2="877" class="net_532"/>
  <line x1="62" x2="62" y1="877" y2="269.5" class="net_532"/>
  <line x1="62" x2="251" y1="269.5" y2="269.5" class="net_532"/>
  <line x1="1958" x2="2087" y1="741.5" y2="741.5" class="net_533,534,535,536,537"/>
  <line x1="2087" x2="2087" y1="741.5" y2="866" class="net_533,534,535,536,537"/>
  <line x1="2087" x2="72" y1="866" y2="866" class="net_533,534,535,536,537"/>
  <line x1="72" x2="72" y1="866" y2="289.5" class="net_533,534,535,536,537"/>
  <line x1="72" x2="251" y1="289.5" y2="289.5" class="net_533,534,535,536,537"/>
  <line x1="1958" x2="2107" y1="275" y2="275" class="net_201,202,203,204,205,206,207,208,209,210,211,212,213,214,215,216,217,218,219,220,221,222,223,224,225,226,227,228,229,230,231,232"/>
  <line x1="2107" x2="2107" y1="275" y2="855" class="net_201,202,203,204,205,206,207,208,209,210,211,212,213,214,215,216,217,218,219,220,221,222,223,224,225,226,227,228,229,230,231,232"/>
  <line x1="2107" x2="102" y1="855" y2="855" class="net_201,202,203,204,205,206,207,208,209,210,211,212,213,214,215,216,217,218,219,220,221,222,223,224,225,226,227,228,229,230,231,232"/>
  <line x1="102" x2="102" y1="855" y2="329.5" class="net_201,202,203,204,205,206,207,208,209,210,211,212,213,214,215,216,217,218,219,220,221,222,223,224,225,226,227,228,229,230,231,232"/>
  <line x1="102" x2="251" y1="329.5" y2="329.5" class="net_201,202,203,204,205,206,207,208,209,210,211,212,213,214,215,216,217,218,219,220,221,222,223,224,225,226,227,228,229,230,231,232"/>
  <line x1="282" x2="1594" y1="209.5" y2="209.5" class="net_464,465,466,467,468,469,470,471,472,473,474,475,476,477,478,479,480,481,482,483,484,485,486,487,488,489,490,491,492,493,494,495"/>
  <line x1="282" x2="497" y1="229.5" y2="229.5" class="net_496"/>
  <line x1="497" x2="497" y1="229.5" y2="269.5" class="net_496"/>
  <line x1="497" x2="1594" y1="269.5" y2="269.5" class="net_496"/>
  <line x1="282" x2="487" y1="249.5" y2="249.5" class="net_497"/>
  <line x1="487" x2="487" y1="249.5" y2="280.5" class="net_497"/>
  <line x1="487" x2="1463" y1="280.5" y2="280.5" class="net_497"/>
  <line x1="1463" x2="1463" y1="280.5" y2="289.5" class="net_497"/>
  <line x1="1463" x2="1594" y1="289.5" y2="289.5" class="net_497"/>
  <line x1="282" x2="477" y1="269.5" y2="269.5" class="net_498"/>
  <line x1="477" x2="477" y1="269.5" y2="291.5" class="net_498"/>
  <line x1="477" x2="1463" y1="291.5" y2="291.5" class="net_498"/>
  <line x1="1463" x2="1463" y1="291.5" y2="309.5" class="net_498"/>
  <line x1="1463" x2="1594" y1="309.5" y2="309.5" class="net_498"/>
  <line x1="282" x2="467" y1="289.5" y2="289.5" class="net_499"/>
  <line x1="467" x2="467" y1="289.5" y2="302.5" class="net_499"/>
  <line x1="467" x2="1383" y1="302.5" y2="302.5" class="net_499"/>
  <line x1="1383" x2="1383" y1="302.5" y2="329.5" class="net_499"/>
  <line x1="1383" x2="1594" y1="329.5" y2="329.5" class="net_499"/>
  <line x1="789" x2="1161" y1="412" y2="412" class="net_233,234,235,236,237,238,239,240,241,242,243,244,245,246,247,248,249,250,251,252,253,254,255,256,257,258,259,260,261,262,263,264"/>
  <line x1="789" x2="1161" y1="432" y2="432" class="net_265,266"/>
  <line x1="789" x2="1161" y1="452" y2="452" class="net_267,268"/>
  <line x1="789" x2="1161" y1="472" y2="472" class="net_269,270,271,272,273,274,275,276,277,278,279,280,281,282,283,284,285,286,287,288,289,290,291,292,293,294,295,296,297,298,299,300"/>
  <line x1="789" x2="1161" y1="492" y2="492" class="net_301,302,303,304,305"/>
  <line x1="1192" x2="1403" y1="432" y2="432" class="net_538,539"/>
  <line x1="1403" x2="1403" y1="432" y2="761.5" class="net_538,539"/>
  <line x1="1403" x2="1927" y1="761.5" y2="761.5" class="net_538,539"/>
  <line x1="1192" x2="1393" y1="452" y2="452" class="net_540,541,542,543,544,545,546,547,548,549,550,551,552,553,554,555,556,557,558,559,560,561,562,563,564,565,566,567,568,569,570,571"/>
  <line x1="1393" x2="1393" y1="452" y2="772.5" class="net_540,541,542,543,544,545,546,547,548,549,550,551,552,553,554,555,556,557,558,559,560,561,562,563,564,565,566,567,568,569,570,571"/>
  <line x1="1393" x2="1766" y1="772.5" y2="772.5" class="net_540,541,542,543,544,545,546,547,548,549,550,551,552,553,554,555,556,557,558,559,560,561,562,563,564,565,566,567,568,569,570,571"/>
  <line x1="1766" x2="1766" y1="772.5" y2="781.5" class="net_540,541,542,543,544,545,546,547,548,549,550,551,552,553,554,555,556,557,558,559,560,561,562,563,564,565,566,567,568,569,570,571"/>
  <line x1="1766" x2="1927" y1="781.5" y2="781.5" class="net_540,541,542,543,544,545,546,547,548,549,550,551,552,553,554,555,556,557,558,559,560,561,562,563,564,565,566,567,568,569,570,571"/>
  <line x1="1620.857142857143" x2="1736" y1="383.5" y2="383.5" class="net_169,170,171,172,173,174,175,176,177,178,179,180,181,182,183,184,185,186,187,188,189,190,191,192,193,194,195,196,197,198,199,200"/>
  <line x1="1736" x2="1736" y1="383.5" y2="801.5" class="net_169,170,171,172,173,174,175,176,177,178,179,180,181,182,183,184,185,186,187,188,189,190,191,192,193,194,195,196,197,198,199,200"/>
  <line x1="1736" x2="1927" y1="801.5" y2="801.5" class="net_169,170,171,172,173,174,175,176,177,178,179,180,181,182,183,184,185,186,187,188,189,190,191,192,193,194,195,196,197,198,199,200"/>
  <line x1="1192" x2="1383" y1="492" y2="492" class="net_604,605,606,607,608"/>
  <line x1="1383" x2="1383" y1="492" y2="783.5" class="net_604,605,606,607,608"/>
  <line x1="1383" x2="1726" y1="783.5" y2="783.5" class="net_604,605,606,607,608"/>
  <line x1="1726" x2="1726" y1="783.5" y2="821.5" class="net_604,605,606,607,608"/>
  <line x1="1726" x2="1927" y1="821.5" y2="821.5" class="net_604,605,606,607,608"/>
  <line x1="335" x2="370" y1="65" y2="65" class="net_68,618,619,620,621,622,623,624"/>
  <line x1="280" x2="297" y1="22.5" y2="22.5" class="net_68"/>
  <line x1="297" x2="297" y1="22.5" y2="55" class="net_68"/>
  <line x1="297" x2="329" y1="55" y2="55" class="net_68"/>
  <line x1="287" x2="329" y1="75" y2="75" class="net_618,619,620,621,622,623,624"/>
  <line x1="220" x2="275.5" y1="45" y2="45" class="net_67,68,69,70"/>
  <line x1="275.5" x2="275.5" y1="45" y2="33" class="net_67,68,69,70"/>
</svg>
