<svg xmlns="http://www.w3.org/2000/svg" xmlns:xlink="http://www.w3.org/1999/xlink" xmlns:s="https://github.com/nturley/netlistsvg" width="454" height="229">
  <style>svg {
    stroke:#000;
    fill:none;
  }
  text {
    fill:#000;
    stroke:none;
    font-size:10px;
    font-weight: bold;
    font-family: "Courier New", monospace;
  }
  .nodelabel {
    text-anchor: middle;
  }
  .inputPortLabel {
    text-anchor: end;
  }
  .splitjoinBody {
    fill:#000;
  }</style>
  <g s:type="sub" transform="translate(155.66666666666666,27)" s:width="25" s:height="25" id="cell_\5">
    <s:alias val="$sub"/>
    <circle r="12.5" cx="12.5" cy="12.5" class="cell_\5"/>
    <line x1="7.5" x2="17.5" y1="12.5" y2="12.5" class="cell_\5"/>
    <g s:x="3" s:y="5" s:pid="A"/>
    <g s:x="3" s:y="20" s:pid="B"/>
    <g s:x="25" s:y="12.5" s:pid="Y"/>
  </g>
  <g s:type="generic" transform="translate(267,29)" s:width="30" s:height="40" id="cell_\8">
    <text x="15" y="-4" class="nodelabel cell_\8" s:attribute="ref">$mem_v2</text>
    <rect width="30" height="180" s:generic="body" class="cell_\8"/>
    <g transform="translate(0,10)" s:x="0" s:y="10" s:pid="in0" id="port_\8~RD_ADDR">
      <text x="-3" y="-4" class="inputPortLabel cell_\8">RD_ADDR</text>
    </g>
    <g transform="translate(0,30)" s:x="0" s:y="10" s:pid="in0" id="port_\8~RD_ARST">
      <text x="-3" y="-4" class="inputPortLabel cell_\8">RD_ARST</text>
    </g>
    <g transform="translate(0,50)" s:x="0" s:y="10" s:pid="in0" id="port_\8~RD_CLK">
      <text x="-3" y="-4" class="inputPortLabel cell_\8">RD_CLK</text>
    </g>
    <g transform="translate(0,70)" s:x="0" s:y="10" s:pid="in0" id="port_\8~RD_EN">
      <text x="-3" y="-4" class="inputPortLabel cell_\8">RD_EN</text>
    </g>
    <g transform="translate(0,90)" s:x="0" s:y="10" s:pid="in0" id="port_\8~RD_SRST">
      <text x="-3" y="-4" class="inputPortLabel cell_\8">RD_SRST</text>
    </g>
    <g transform="translate(0,110)" s:x="0" s:y="10" s:pid="in0" id="port_\8~WR_ADDR">
      <text x="-3" y="-4" class="inputPortLabel cell_\8">WR_ADDR</text>
    </g>
    <g transform="translate(0,130)" s:x="0" s:y="10" s:pid="in0" id="port_\8~WR_CLK">
      <text x="-3" y="-4" class="inputPortLabel cell_\8">WR_CLK</text>
    </g>
    <g transform="translate(0,150)" s:x="0" s:y="10" s:pid="in0" id="port_\8~WR_DATA">
      <text x="-3" y="-4" class="inputPortLabel cell_\8">WR_DATA</text>
    </g>
    <g transform="translate(0,170)" s:x="0" s:y="10" s:pid="in0" id="port_\8~WR_EN">
      <text x="-3" y="-4" class="inputPortLabel cell_\8">WR_EN</text>
    </g>
    <g transform="translate(30,10)" s:x="30" s:y="10" s:pid="out0" id="port_\8~RD_DATA">
      <text x="5" y="-4" style="fill:#000; stroke:none" class="cell_\8">RD_DATA</text>
    </g>
  </g>
  <g s:type="inputExt" transform="translate(12,100)" s:width="30" s:height="20" id="cell_address">
    <text x="15" y="-4" class="nodelabel cell_address" s:attribute="ref">address</text>
    <s:alias val="$_inputExt_"/>
    <path d="M0,0 L0,20 L15,20 L30,10 L15,0 Z" class="cell_address"/>
    <g s:x="28" s:y="10" s:pid="Y"/>
  </g>
  <g s:type="outputExt" transform="translate(376,29.5)" s:width="30" s:height="20" id="cell_destination">
    <text x="15" y="-4" class="nodelabel cell_destination" s:attribute="ref">destination</text>
    <s:alias val="$_outputExt_"/>
    <path d="M30,0 L30,20 L15,20 L0,10 L15,0 Z" class="cell_destination"/>
    <g s:x="0" s:y="10" s:pid="A"/>
  </g>
  <g s:type="constant" transform="translate(89,22)" s:width="30" s:height="20" id="cell_1111111111">
    <text x="15" y="-4" class="nodelabel cell_1111111111" s:attribute="ref">0x3ff</text>
    <s:alias val="$_constant_"/>
    <rect width="30" height="20" class="cell_1111111111"/>
    <g s:x="30" s:y="10" s:pid="Y"/>
  </g>
  <g s:type="constant" transform="translate(154,97)" s:width="30" s:height="20" id="cell_0">
    <text x="15" y="-4" class="nodelabel cell_0" s:attribute="ref">0</text>
    <s:alias val="$_constant_"/>
    <rect width="30" height="20" class="cell_0"/>
    <g s:x="30" s:y="10" s:pid="Y"/>
  </g>
  <g s:type="constant" transform="translate(154,162)" s:width="30" s:height="20" id="cell_1">
    <text x="15" y="-4" class="nodelabel cell_1" s:attribute="ref">1</text>
    <s:alias val="$_constant_"/>
    <rect width="30" height="20" class="cell_1"/>
    <g s:x="30" s:y="10" s:pid="Y"/>
  </g>
  <g s:type="split" transform="translate(95,77)" s:width="5" s:height="40" id="cell_$split$,2,3,4,5,6,7,8,9,10,11,12,13,14,15,16,17,18,19,20,21,22,23,24,25,26,27,28,29,30,31,32,33,">
    <rect width="5" height="20" class="splitjoinBody" s:generic="body"/>
    <s:alias val="$_split_"/>
    <g s:x="0" s:y="20" s:pid="in"/>
    <g transform="translate(4,10)" s:x="4" s:y="10" s:pid="out0">
      <text x="5" y="-4">0:9</text>
    </g>
  </g>
  <line x1="119" x2="158.66666666666666" y1="32" y2="32" class="net_76,77,78,79,80,81,82,83,84,85"/>
  <line x1="100" x2="129" y1="87.5" y2="87.5" class="net_2,3,4,5,6,7,8,9,10,11"/>
  <line x1="129" x2="129" y1="87.5" y2="47" class="net_2,3,4,5,6,7,8,9,10,11"/>
  <line x1="129" x2="158.66666666666666" y1="47" y2="47" class="net_2,3,4,5,6,7,8,9,10,11"/>
  <line x1="180.66666666666666" x2="267" y1="39.5" y2="39.5" class="net_66,67,68,69,70,71,72,73,74,75"/>
  <line x1="184" x2="194" y1="107" y2="107" class="net_86"/>
  <line x1="194" x2="194" y1="107" y2="59.5" class="net_86"/>
  <circle cx="194" cy="107" r="2" style="fill:#000" class="net_86"/>
  <line x1="194" x2="267" y1="59.5" y2="59.5" class="net_86"/>
  <line x1="184" x2="194" y1="107" y2="107" class="net_86"/>
  <line x1="194" x2="194" y1="107" y2="79.5" class="net_86"/>
  <circle cx="194" cy="79.5" r="2" style="fill:#000" class="net_86"/>
  <line x1="194" x2="267" y1="79.5" y2="79.5" class="net_86"/>
  <line x1="184" x2="194" y1="107" y2="107" class="net_86"/>
  <line x1="194" x2="194" y1="107" y2="119.5" class="net_86"/>
  <line x1="194" x2="267" y1="119.5" y2="119.5" class="net_86"/>
  <line x1="184" x2="204" y1="172" y2="172" class="net_88"/>
  <line x1="204" x2="204" y1="172" y2="99.5" class="net_88"/>
  <line x1="204" x2="267" y1="99.5" y2="99.5" class="net_88"/>
  <line x1="214" x2="214" y1="217" y2="139.5" class="net_"/>
  <line x1="214" x2="267" y1="139.5" y2="139.5" class="net_"/>
  <line x1="214" x2="214" y1="217" y2="159.5" class="net_"/>
  <circle cx="214" cy="159.5" r="2" style="fill:#000" class="net_"/>
  <line x1="214" x2="267" y1="159.5" y2="159.5" class="net_"/>
  <line x1="214" x2="214" y1="217" y2="179.5" class="net_"/>
  <circle cx="214" cy="179.5" r="2" style="fill:#000" class="net_"/>
  <line x1="214" x2="267" y1="179.5" y2="179.5" class="net_"/>
  <line x1="214" x2="214" y1="217" y2="199.5" class="net_"/>
  <circle cx="214" cy="199.5" r="2" style="fill:#000" class="net_"/>
  <line x1="214" x2="267" y1="199.5" y2="199.5" class="net_"/>
  <line x1="298" x2="376" y1="39.5" y2="39.5" class="net_34,35,36,37,38,39,40,41,42,43,44,45,46,47,48,49,50,51,52,53,54,55,56,57,58,59,60,61,62,63,64,65"/>
  <line x1="40" x2="95.5" y1="110" y2="110" class="net_2,3,4,5,6,7,8,9,10,11,12,13,14,15,16,17,18,19,20,21,22,23,24,25,26,27,28,29,30,31,32,33"/>
  <line x1="95.5" x2="95.5" y1="110" y2="98" class="net_2,3,4,5,6,7,8,9,10,11,12,13,14,15,16,17,18,19,20,21,22,23,24,25,26,27,28,29,30,31,32,33"/>
</svg>
