<svg xmlns="http://www.w3.org/2000/svg" xmlns:xlink="http://www.w3.org/1999/xlink" xmlns:s="https://github.com/nturley/netlistsvg" width="674" height="1270.5">
  <style>svg {
    stroke:#000;
    fill:none;
  }
  text {
    fill:#000;
    stroke:none;
    font-size:10px;
    font-weight: bold;
    font-family: "Courier New", monospace;
  }
  .nodelabel {
    text-anchor: middle;
  }
  .inputPortLabel {
    text-anchor: end;
  }
  .splitjoinBody {
    fill:#000;
  }</style>
  <g s:type="not" transform="translate(464,1118.5)" s:width="30" s:height="20" id="cell_\14">
    <s:alias val="$_NOT_"/>
    <s:alias val="$not"/>
    <s:alias val="$logic_not"/>
    <path d="M0,0 L0,20 L20,10 Z" class="cell_\14"/>
    <circle cx="23" cy="10" r="3" class="cell_\14"/>
    <g s:x="0" s:y="10" s:pid="A"/>
    <g s:x="25" s:y="10" s:pid="Y"/>
  </g>
  <g s:type="mux" transform="translate(529,101.5)" s:width="20" s:height="40" id="cell_\15">
    <s:alias val="$pmux"/>
    <s:alias val="$mux"/>
    <s:alias val="$_MUX_"/>
    <path d="M0,0 L20,10 L20,30 L0,40 Z" class="cell_\15"/>
    <g s:x="0" s:y="10" s:pid="A"/>
    <g s:x="0" s:y="30" s:pid="B"/>
    <g s:x="10" s:y="35" s:pid="S"/>
    <g s:x="20" s:y="20" s:pid="Y"/>
  </g>
  <g s:type="not" transform="translate(464,1238.5)" s:width="30" s:height="20" id="cell_\20">
    <s:alias val="$_NOT_"/>
    <s:alias val="$not"/>
    <s:alias val="$logic_not"/>
    <path d="M0,0 L0,20 L20,10 Z" class="cell_\20"/>
    <circle cx="23" cy="10" r="3" class="cell_\20"/>
    <g s:x="0" s:y="10" s:pid="A"/>
    <g s:x="25" s:y="10" s:pid="Y"/>
  </g>
  <g s:type="mux" transform="translate(529,1163.5)" s:width="20" s:height="40" id="cell_\21">
    <s:alias val="$pmux"/>
    <s:alias val="$mux"/>
    <s:alias val="$_MUX_"/>
    <path d="M0,0 L20,10 L20,30 L0,40 Z" class="cell_\21"/>
    <g s:x="0" s:y="10" s:pid="A"/>
    <g s:x="0" s:y="30" s:pid="B"/>
    <g s:x="10" s:y="35" s:pid="S"/>
    <g s:x="20" s:y="20" s:pid="Y"/>
  </g>
  <g s:type="generic" transform="translate(355,111)" s:width="30" s:height="40" id="cell_registers">
    <text x="15" y="-4" class="nodelabel cell_registers" s:attribute="ref">$mem_v2</text>
    <rect width="30" height="180" s:generic="body" class="cell_registers"/>
    <g transform="translate(0,10)" s:x="0" s:y="10" s:pid="in0" id="port_registers~RD_ADDR">
      <text x="-3" y="-4" class="inputPortLabel cell_registers">RD_ADDR</text>
    </g>
    <g transform="translate(0,30)" s:x="0" s:y="10" s:pid="in0" id="port_registers~RD_ARST">
      <text x="-3" y="-4" class="inputPortLabel cell_registers">RD_ARST</text>
    </g>
    <g transform="translate(0,50)" s:x="0" s:y="10" s:pid="in0" id="port_registers~RD_CLK">
      <text x="-3" y="-4" class="inputPortLabel cell_registers">RD_CLK</text>
    </g>
    <g transform="translate(0,70)" s:x="0" s:y="10" s:pid="in0" id="port_registers~RD_EN">
      <text x="-3" y="-4" class="inputPortLabel cell_registers">RD_EN</text>
    </g>
    <g transform="translate(0,90)" s:x="0" s:y="10" s:pid="in0" id="port_registers~RD_SRST">
      <text x="-3" y="-4" class="inputPortLabel cell_registers">RD_SRST</text>
    </g>
    <g transform="translate(0,110)" s:x="0" s:y="10" s:pid="in0" id="port_registers~WR_ADDR">
      <text x="-3" y="-4" class="inputPortLabel cell_registers">WR_ADDR</text>
    </g>
    <g transform="translate(0,130)" s:x="0" s:y="10" s:pid="in0" id="port_registers~WR_CLK">
      <text x="-3" y="-4" class="inputPortLabel cell_registers">WR_CLK</text>
    </g>
    <g transform="translate(0,150)" s:x="0" s:y="10" s:pid="in0" id="port_registers~WR_DATA">
      <text x="-3" y="-4" class="inputPortLabel cell_registers">WR_DATA</text>
    </g>
    <g transform="translate(0,170)" s:x="0" s:y="10" s:pid="in0" id="port_registers~WR_EN">
      <text x="-3" y="-4" class="inputPortLabel cell_registers">WR_EN</text>
    </g>
    <g transform="translate(30,10)" s:x="30" s:y="10" s:pid="out0" id="port_registers~RD_DATA">
      <text x="5" y="-4" style="fill:#000; stroke:none" class="cell_registers">RD_DATA</text>
    </g>
  </g>
  <g s:type="inputExt" transform="translate(148,301.5)" s:width="30" s:height="20" id="cell_clock">
    <text x="15" y="-4" class="nodelabel cell_clock" s:attribute="ref">clock</text>
    <s:alias val="$_inputExt_"/>
    <path d="M0,0 L0,20 L15,20 L30,10 L15,0 Z" class="cell_clock"/>
    <g s:x="28" s:y="10" s:pid="Y"/>
  </g>
  <g s:type="inputExt" transform="translate(12,386.5)" s:width="30" s:height="20" id="cell_enable">
    <text x="15" y="-4" class="nodelabel cell_enable" s:attribute="ref">enable</text>
    <s:alias val="$_inputExt_"/>
    <path d="M0,0 L0,20 L15,20 L30,10 L15,0 Z" class="cell_enable"/>
    <g s:x="28" s:y="10" s:pid="Y"/>
  </g>
  <g s:type="inputExt" transform="translate(148,236.5)" s:width="30" s:height="20" id="cell_address_destination">
    <text x="15" y="-4" class="nodelabel cell_address_destination" s:attribute="ref">address_destination</text>
    <s:alias val="$_inputExt_"/>
    <path d="M0,0 L0,20 L15,20 L30,10 L15,0 Z" class="cell_address_destination"/>
    <g s:x="28" s:y="10" s:pid="Y"/>
  </g>
  <g s:type="inputExt" transform="translate(12,22)" s:width="30" s:height="20" id="cell_address_source_1">
    <text x="15" y="-4" class="nodelabel cell_address_source_1" s:attribute="ref">address_source_1</text>
    <s:alias val="$_inputExt_"/>
    <path d="M0,0 L0,20 L15,20 L30,10 L15,0 Z" class="cell_address_source_1"/>
    <g s:x="28" s:y="10" s:pid="Y"/>
  </g>
  <g s:type="inputExt" transform="translate(12,1238.5)" s:width="30" s:height="20" id="cell_address_source_2">
    <text x="15" y="-4" class="nodelabel cell_address_source_2" s:attribute="ref">address_source_2</text>
    <s:alias val="$_inputExt_"/>
    <path d="M0,0 L0,20 L15,20 L30,10 L15,0 Z" class="cell_address_source_2"/>
    <g s:x="28" s:y="10" s:pid="Y"/>
  </g>
  <g s:type="inputExt" transform="translate(148,366.5)" s:width="30" s:height="20" id="cell_data_destination">
    <text x="15" y="-4" class="nodelabel cell_data_destination" s:attribute="ref">data_destination</text>
    <s:alias val="$_inputExt_"/>
    <path d="M0,0 L0,20 L15,20 L30,10 L15,0 Z" class="cell_data_destination"/>
    <g s:x="28" s:y="10" s:pid="Y"/>
  </g>
  <g s:type="outputExt" transform="translate(584,111.5)" s:width="30" s:height="20" id="cell_data_source_1">
    <text x="15" y="-4" class="nodelabel cell_data_source_1" s:attribute="ref">data_source_1</text>
    <s:alias val="$_outputExt_"/>
    <path d="M30,0 L30,20 L15,20 L0,10 L15,0 Z" class="cell_data_source_1"/>
    <g s:x="0" s:y="10" s:pid="A"/>
  </g>
  <g s:type="outputExt" transform="translate(584,1173.5)" s:width="30" s:height="20" id="cell_data_source_2">
    <text x="15" y="-4" class="nodelabel cell_data_source_2" s:attribute="ref">data_source_2</text>
    <s:alias val="$_outputExt_"/>
    <path d="M30,0 L30,20 L15,20 L0,10 L15,0 Z" class="cell_data_source_2"/>
    <g s:x="0" s:y="10" s:pid="A"/>
  </g>
  <g s:type="constant" transform="translate(464,1183.5)" s:width="30" s:height="20" id="cell_00000000000000000000000000000000">
    <text x="15" y="-4" class="nodelabel cell_00000000000000000000000000000000" s:attribute="ref">0x0</text>
    <s:alias val="$_constant_"/>
    <rect width="30" height="20" class="cell_00000000000000000000000000000000"/>
    <g s:x="30" s:y="10" s:pid="Y"/>
  </g>
  <g s:type="constant" transform="translate(148,106.5)" s:width="30" s:height="20" id="cell_00">
    <text x="15" y="-4" class="nodelabel cell_00" s:attribute="ref">00</text>
    <s:alias val="$_constant_"/>
    <rect width="30" height="20" class="cell_00"/>
    <g s:x="30" s:y="10" s:pid="Y"/>
  </g>
  <g s:type="constant" transform="translate(148,171.5)" s:width="30" s:height="20" id="cell_11">
    <text x="15" y="-4" class="nodelabel cell_11" s:attribute="ref">11</text>
    <s:alias val="$_constant_"/>
    <rect width="30" height="20" class="cell_11"/>
    <g s:x="30" s:y="10" s:pid="Y"/>
  </g>
  <g s:type="join" transform="translate(191,21.5)" s:width="4" s:height="40" id="cell_$join$,9,10,11,12,13,14,15,16,17,18,">
    <rect width="5" height="40" class="splitjoinBody" s:generic="body"/>
    <s:alias val="$_join_"/>
    <g s:x="5" s:y="20" s:pid="out"/>
    <g transform="translate(0,10)" s:x="0" s:y="10" s:pid="in0">
      <text x="-3" y="-4" class="inputPortLabel">0:4</text>
    </g>
    <g transform="translate(0,30)" s:x="0" s:y="10" s:pid="in0">
      <text x="-3" y="-4" class="inputPortLabel">5:9</text>
    </g>
  </g>
  <g s:type="join" transform="translate(169.88,438.5)" s:width="4" s:height="40" id="cell_$join$,3,3,3,3,3,3,3,3,3,3,3,3,3,3,3,3,3,3,3,3,3,3,3,3,3,3,3,3,3,3,3,3,">
    <rect width="5" height="640" class="splitjoinBody" s:generic="body"/>
    <s:alias val="$_join_"/>
    <g s:x="5" s:y="20" s:pid="out"/>
    <g transform="translate(0,10)" s:x="0" s:y="10" s:pid="in0">
      <text x="-3" y="-4" class="inputPortLabel">0</text>
    </g>
    <g transform="translate(0,30)" s:x="0" s:y="10" s:pid="in0">
      <text x="-3" y="-4" class="inputPortLabel">1</text>
    </g>
    <g transform="translate(0,50)" s:x="0" s:y="10" s:pid="in0">
      <text x="-3" y="-4" class="inputPortLabel">2</text>
    </g>
    <g transform="translate(0,70)" s:x="0" s:y="10" s:pid="in0">
      <text x="-3" y="-4" class="inputPortLabel">3</text>
    </g>
    <g transform="translate(0,90)" s:x="0" s:y="10" s:pid="in0">
      <text x="-3" y="-4" class="inputPortLabel">4</text>
    </g>
    <g transform="translate(0,110)" s:x="0" s:y="10" s:pid="in0">
      <text x="-3" y="-4" class="inputPortLabel">5</text>
    </g>
    <g transform="translate(0,130)" s:x="0" s:y="10" s:pid="in0">
      <text x="-3" y="-4" class="inputPortLabel">6</text>
    </g>
    <g transform="translate(0,150)" s:x="0" s:y="10" s:pid="in0">
      <text x="-3" y="-4" class="inputPortLabel">7</text>
    </g>
    <g transform="translate(0,170)" s:x="0" s:y="10" s:pid="in0">
      <text x="-3" y="-4" class="inputPortLabel">8</text>
    </g>
    <g transform="translate(0,190)" s:x="0" s:y="10" s:pid="in0">
      <text x="-3" y="-4" class="inputPortLabel">9</text>
    </g>
    <g transform="translate(0,210)" s:x="0" s:y="10" s:pid="in0">
      <text x="-3" y="-4" class="inputPortLabel">10</text>
    </g>
    <g transform="translate(0,230)" s:x="0" s:y="10" s:pid="in0">
      <text x="-3" y="-4" class="inputPortLabel">11</text>
    </g>
    <g transform="translate(0,250)" s:x="0" s:y="10" s:pid="in0">
      <text x="-3" y="-4" class="inputPortLabel">12</text>
    </g>
    <g transform="translate(0,270)" s:x="0" s:y="10" s:pid="in0">
      <text x="-3" y="-4" class="inputPortLabel">13</text>
    </g>
    <g transform="translate(0,290)" s:x="0" s:y="10" s:pid="in0">
      <text x="-3" y="-4" class="inputPortLabel">14</text>
    </g>
    <g transform="translate(0,310)" s:x="0" s:y="10" s:pid="in0">
      <text x="-3" y="-4" class="inputPortLabel">15</text>
    </g>
    <g transform="translate(0,330)" s:x="0" s:y="10" s:pid="in0">
      <text x="-3" y="-4" class="inputPortLabel">16</text>
    </g>
    <g transform="translate(0,350)" s:x="0" s:y="10" s:pid="in0">
      <text x="-3" y="-4" class="inputPortLabel">17</text>
    </g>
    <g transform="translate(0,370)" s:x="0" s:y="10" s:pid="in0">
      <text x="-3" y="-4" class="inputPortLabel">18</text>
    </g>
    <g transform="translate(0,390)" s:x="0" s:y="10" s:pid="in0">
      <text x="-3" y="-4" class="inputPortLabel">19</text>
    </g>
    <g transform="translate(0,410)" s:x="0" s:y="10" s:pid="in0">
      <text x="-3" y="-4" class="inputPortLabel">20</text>
    </g>
    <g transform="translate(0,430)" s:x="0" s:y="10" s:pid="in0">
      <text x="-3" y="-4" class="inputPortLabel">21</text>
    </g>
    <g transform="translate(0,450)" s:x="0" s:y="10" s:pid="in0">
      <text x="-3" y="-4" class="inputPortLabel">22</text>
    </g>
    <g transform="translate(0,470)" s:x="0" s:y="10" s:pid="in0">
      <text x="-3" y="-4" class="inputPortLabel">23</text>
    </g>
    <g transform="translate(0,490)" s:x="0" s:y="10" s:pid="in0">
      <text x="-3" y="-4" class="inputPortLabel">24</text>
    </g>
    <g transform="translate(0,510)" s:x="0" s:y="10" s:pid="in0">
      <text x="-3" y="-4" class="inputPortLabel">25</text>
    </g>
    <g transform="translate(0,530)" s:x="0" s:y="10" s:pid="in0">
      <text x="-3" y="-4" class="inputPortLabel">26</text>
    </g>
    <g transform="translate(0,550)" s:x="0" s:y="10" s:pid="in0">
      <text x="-3" y="-4" class="inputPortLabel">27</text>
    </g>
    <g transform="translate(0,570)" s:x="0" s:y="10" s:pid="in0">
      <text x="-3" y="-4" class="inputPortLabel">28</text>
    </g>
    <g transform="translate(0,590)" s:x="0" s:y="10" s:pid="in0">
      <text x="-3" y="-4" class="inputPortLabel">29</text>
    </g>
    <g transform="translate(0,610)" s:x="0" s:y="10" s:pid="in0">
      <text x="-3" y="-4" class="inputPortLabel">30</text>
    </g>
    <g transform="translate(0,630)" s:x="0" s:y="10" s:pid="in0">
      <text x="-3" y="-4" class="inputPortLabel">31</text>
    </g>
  </g>
  <g s:type="split" transform="translate(464,101)" s:width="5" s:height="40" id="cell_$split$,116,117,118,119,120,121,122,123,124,125,126,127,128,129,130,131,132,133,134,135,136,137,138,139,140,141,142,143,144,145,146,147,149,150,151,152,153,154,155,156,157,158,159,160,161,162,163,164,165,166,167,168,169,170,171,172,173,174,175,176,177,178,179,180,">
    <rect width="5" height="40" class="splitjoinBody" s:generic="body"/>
    <s:alias val="$_split_"/>
    <g s:x="0" s:y="20" s:pid="in"/>
    <g transform="translate(4,10)" s:x="4" s:y="10" s:pid="out0">
      <text x="5" y="-4">0:31</text>
    </g>
    <g transform="translate(4,30)" s:x="4" s:y="10" s:pid="out0">
      <text x="5" y="-4">32:63</text>
    </g>
  </g>
  <line x1="40" x2="118" y1="32" y2="32" class="net_9,10,11,12,13"/>
  <line x1="118" x2="118" y1="32" y2="1128.5" class="net_9,10,11,12,13"/>
  <circle cx="118" cy="32" r="2" style="fill:#000" class="net_9,10,11,12,13"/>
  <line x1="118" x2="464" y1="1128.5" y2="1128.5" class="net_9,10,11,12,13"/>
  <line x1="40" x2="191" y1="32" y2="32" class="net_9,10,11,12,13"/>
  <line x1="469" x2="529" y1="111.5" y2="111.5" class="net_116,117,118,119,120,121,122,123,124,125,126,127,128,129,130,131,132,133,134,135,136,137,138,139,140,141,142,143,144,145,146,147"/>
  <line x1="494" x2="514" y1="1193.5" y2="1193.5" class="net_181,182,183,184,185,186,187,188,189,190,191,192,193,194,195,196,197,198,199,200,201,202,203,204,205,206,207,208,209,210,211,212"/>
  <line x1="514" x2="514" y1="1193.5" y2="131.5" class="net_181,182,183,184,185,186,187,188,189,190,191,192,193,194,195,196,197,198,199,200,201,202,203,204,205,206,207,208,209,210,211,212"/>
  <circle cx="514" cy="1193.5" r="2" style="fill:#000" class="net_181,182,183,184,185,186,187,188,189,190,191,192,193,194,195,196,197,198,199,200,201,202,203,204,205,206,207,208,209,210,211,212"/>
  <line x1="514" x2="529" y1="131.5" y2="131.5" class="net_181,182,183,184,185,186,187,188,189,190,191,192,193,194,195,196,197,198,199,200,201,202,203,204,205,206,207,208,209,210,211,212"/>
  <line x1="494" x2="529" y1="1193.5" y2="1193.5" class="net_181,182,183,184,185,186,187,188,189,190,191,192,193,194,195,196,197,198,199,200,201,202,203,204,205,206,207,208,209,210,211,212"/>
  <line x1="489" x2="539" y1="1128.5" y2="1128.5" class="net_115"/>
  <line x1="539" x2="539" y1="1128.5" y2="136.5" class="net_115"/>
  <line x1="40" x2="464" y1="1248.5" y2="1248.5" class="net_14,15,16,17,18"/>
  <line x1="40" x2="128" y1="1248.5" y2="1248.5" class="net_14,15,16,17,18"/>
  <line x1="128" x2="128" y1="1248.5" y2="52" class="net_14,15,16,17,18"/>
  <circle cx="128" cy="1248.5" r="2" style="fill:#000" class="net_14,15,16,17,18"/>
  <line x1="128" x2="191" y1="52" y2="52" class="net_14,15,16,17,18"/>
  <line x1="469" x2="504" y1="131.5" y2="131.5" class="net_149,150,151,152,153,154,155,156,157,158,159,160,161,162,163,164,165,166,167,168,169,170,171,172,173,174,175,176,177,178,179,180"/>
  <line x1="504" x2="504" y1="131.5" y2="1173.5" class="net_149,150,151,152,153,154,155,156,157,158,159,160,161,162,163,164,165,166,167,168,169,170,171,172,173,174,175,176,177,178,179,180"/>
  <line x1="504" x2="529" y1="1173.5" y2="1173.5" class="net_149,150,151,152,153,154,155,156,157,158,159,160,161,162,163,164,165,166,167,168,169,170,171,172,173,174,175,176,177,178,179,180"/>
  <line x1="489" x2="539" y1="1248.5" y2="1248.5" class="net_148"/>
  <line x1="539" x2="539" y1="1248.5" y2="1198.5" class="net_148"/>
  <line x1="197" x2="282" y1="42" y2="42" class="net_9,10,11,12,13,14,15,16,17,18"/>
  <line x1="282" x2="282" y1="42" y2="121.5" class="net_9,10,11,12,13,14,15,16,17,18"/>
  <line x1="282" x2="355" y1="121.5" y2="121.5" class="net_9,10,11,12,13,14,15,16,17,18"/>
  <line x1="178" x2="272" y1="116.5" y2="116.5" class="net_245,246"/>
  <line x1="272" x2="272" y1="116.5" y2="141.5" class="net_245,246"/>
  <circle cx="272" cy="141.5" r="2" style="fill:#000" class="net_245,246"/>
  <line x1="272" x2="355" y1="141.5" y2="141.5" class="net_245,246"/>
  <line x1="178" x2="272" y1="116.5" y2="116.5" class="net_245,246"/>
  <line x1="272" x2="272" y1="116.5" y2="161.5" class="net_245,246"/>
  <circle cx="272" cy="161.5" r="2" style="fill:#000" class="net_245,246"/>
  <line x1="272" x2="355" y1="161.5" y2="161.5" class="net_245,246"/>
  <line x1="178" x2="272" y1="116.5" y2="116.5" class="net_245,246"/>
  <line x1="272" x2="272" y1="116.5" y2="201.5" class="net_245,246"/>
  <line x1="272" x2="355" y1="201.5" y2="201.5" class="net_245,246"/>
  <line x1="178" x2="355" y1="181.5" y2="181.5" class="net_249,250"/>
  <line x1="176" x2="272" y1="246.5" y2="246.5" class="net_4,5,6,7,8"/>
  <line x1="272" x2="272" y1="246.5" y2="221.5" class="net_4,5,6,7,8"/>
  <line x1="272" x2="355" y1="221.5" y2="221.5" class="net_4,5,6,7,8"/>
  <line x1="176" x2="282" y1="311.5" y2="311.5" class="net_2"/>
  <line x1="282" x2="282" y1="311.5" y2="241.5" class="net_2"/>
  <line x1="282" x2="355" y1="241.5" y2="241.5" class="net_2"/>
  <line x1="176" x2="292" y1="376.5" y2="376.5" class="net_19,20,21,22,23,24,25,26,27,28,29,30,31,32,33,34,35,36,37,38,39,40,41,42,43,44,45,46,47,48,49,50"/>
  <line x1="292" x2="292" y1="376.5" y2="261.5" class="net_19,20,21,22,23,24,25,26,27,28,29,30,31,32,33,34,35,36,37,38,39,40,41,42,43,44,45,46,47,48,49,50"/>
  <line x1="292" x2="355" y1="261.5" y2="261.5" class="net_19,20,21,22,23,24,25,26,27,28,29,30,31,32,33,34,35,36,37,38,39,40,41,42,43,44,45,46,47,48,49,50"/>
  <line x1="175.88" x2="302" y1="459" y2="459" class="net_3,3,3,3,3,3,3,3,3,3,3,3,3,3,3,3,3,3,3,3,3,3,3,3,3,3,3,3,3,3,3,3"/>
  <line x1="302" x2="302" y1="459" y2="281.5" class="net_3,3,3,3,3,3,3,3,3,3,3,3,3,3,3,3,3,3,3,3,3,3,3,3,3,3,3,3,3,3,3,3"/>
  <line x1="302" x2="355" y1="281.5" y2="281.5" class="net_3,3,3,3,3,3,3,3,3,3,3,3,3,3,3,3,3,3,3,3,3,3,3,3,3,3,3,3,3,3,3,3"/>
  <line x1="549" x2="584" y1="121.5" y2="121.5" class="net_51,52,53,54,55,56,57,58,59,60,61,62,63,64,65,66,67,68,69,70,71,72,73,74,75,76,77,78,79,80,81,82"/>
  <line x1="549" x2="584" y1="1183.5" y2="1183.5" class="net_83,84,85,86,87,88,89,90,91,92,93,94,95,96,97,98,99,100,101,102,103,104,105,106,107,108,109,110,111,112,113,114"/>
  <line x1="40" x2="138" y1="396.5" y2="396.5" class="net_3"/>
  <line x1="138" x2="138" y1="396.5" y2="426.5" class="net_3"/>
  <line x1="138" x2="170.38" y1="426.5" y2="426.5" class="net_3"/>
  <circle cx="138" cy="396.5" r="2" style="fill:#000" class="net_3"/>
  <circle cx="138" cy="426.5" r="2" style="fill:#000" class="net_3"/>
  <line x1="170.38" x2="170.38" y1="426.5" y2="448.5" class="net_3"/>
  <line x1="40" x2="138" y1="396.5" y2="396.5" class="net_3"/>
  <line x1="138" x2="138" y1="396.5" y2="416.5" class="net_3"/>
  <line x1="138" x2="170.38" y1="416.5" y2="416.5" class="net_3"/>
  <circle cx="138" cy="416.5" r="2" style="fill:#000" class="net_3"/>
  <line x1="170.38" x2="170.38" y1="416.5" y2="468.5" class="net_3"/>
  <line x1="40" x2="138" y1="396.5" y2="396.5" class="net_3"/>
  <line x1="138" x2="138" y1="396.5" y2="406.5" class="net_3"/>
  <line x1="138" x2="170.38" y1="406.5" y2="406.5" class="net_3"/>
  <circle cx="138" cy="406.5" r="2" style="fill:#000" class="net_3"/>
  <line x1="170.38" x2="170.38" y1="406.5" y2="488.5" class="net_3"/>
  <line x1="40" x2="170.38" y1="396.5" y2="396.5" class="net_3"/>
  <line x1="170.38" x2="170.38" y1="396.5" y2="508.5" class="net_3"/>
  <line x1="40" x2="138" y1="396.5" y2="396.5" class="net_3"/>
  <line x1="138" x2="138" y1="396.5" y2="529" class="net_3"/>
  <circle cx="138" cy="529" r="2" style="fill:#000" class="net_3"/>
  <line x1="138" x2="169.88" y1="529" y2="529" class="net_3"/>
  <line x1="40" x2="138" y1="396.5" y2="396.5" class="net_3"/>
  <line x1="138" x2="138" y1="396.5" y2="549" class="net_3"/>
  <circle cx="138" cy="549" r="2" style="fill:#000" class="net_3"/>
  <line x1="138" x2="169.88" y1="549" y2="549" class="net_3"/>
  <line x1="40" x2="138" y1="396.5" y2="396.5" class="net_3"/>
  <line x1="138" x2="138" y1="396.5" y2="569" class="net_3"/>
  <circle cx="138" cy="569" r="2" style="fill:#000" class="net_3"/>
  <line x1="138" x2="169.88" y1="569" y2="569" class="net_3"/>
  <line x1="40" x2="138" y1="396.5" y2="396.5" class="net_3"/>
  <line x1="138" x2="138" y1="396.5" y2="589" class="net_3"/>
  <circle cx="138" cy="589" r="2" style="fill:#000" class="net_3"/>
  <line x1="138" x2="169.88" y1="589" y2="589" class="net_3"/>
  <line x1="40" x2="138" y1="396.5" y2="396.5" class="net_3"/>
  <line x1="138" x2="138" y1="396.5" y2="609" class="net_3"/>
  <circle cx="138" cy="609" r="2" style="fill:#000" class="net_3"/>
  <line x1="138" x2="169.88" y1="609" y2="609" class="net_3"/>
  <line x1="40" x2="138" y1="396.5" y2="396.5" class="net_3"/>
  <line x1="138" x2="138" y1="396.5" y2="629" class="net_3"/>
  <circle cx="138" cy="629" r="2" style="fill:#000" class="net_3"/>
  <line x1="138" x2="169.88" y1="629" y2="629" class="net_3"/>
  <line x1="40" x2="138" y1="396.5" y2="396.5" class="net_3"/>
  <line x1="138" x2="138" y1="396.5" y2="649" class="net_3"/>
  <circle cx="138" cy="649" r="2" style="fill:#000" class="net_3"/>
  <line x1="138" x2="169.88" y1="649" y2="649" class="net_3"/>
  <line x1="40" x2="138" y1="396.5" y2="396.5" class="net_3"/>
  <line x1="138" x2="138" y1="396.5" y2="669" class="net_3"/>
  <circle cx="138" cy="669" r="2" style="fill:#000" class="net_3"/>
  <line x1="138" x2="169.88" y1="669" y2="669" class="net_3"/>
  <line x1="40" x2="138" y1="396.5" y2="396.5" class="net_3"/>
  <line x1="138" x2="138" y1="396.5" y2="689" class="net_3"/>
  <circle cx="138" cy="689" r="2" style="fill:#000" class="net_3"/>
  <line x1="138" x2="169.88" y1="689" y2="689" class="net_3"/>
  <line x1="40" x2="138" y1="396.5" y2="396.5" class="net_3"/>
  <line x1="138" x2="138" y1="396.5" y2="709" class="net_3"/>
  <circle cx="138" cy="709" r="2" style="fill:#000" class="net_3"/>
  <line x1="138" x2="169.88" y1="709" y2="709" class="net_3"/>
  <line x1="40" x2="138" y1="396.5" y2="396.5" class="net_3"/>
  <line x1="138" x2="138" y1="396.5" y2="729" class="net_3"/>
  <circle cx="138" cy="729" r="2" style="fill:#000" class="net_3"/>
  <line x1="138" x2="169.88" y1="729" y2="729" class="net_3"/>
  <line x1="40" x2="138" y1="396.5" y2="396.5" class="net_3"/>
  <line x1="138" x2="138" y1="396.5" y2="749" class="net_3"/>
  <circle cx="138" cy="749" r="2" style="fill:#000" class="net_3"/>
  <line x1="138" x2="169.88" y1="749" y2="749" class="net_3"/>
  <line x1="40" x2="138" y1="396.5" y2="396.5" class="net_3"/>
  <line x1="138" x2="138" y1="396.5" y2="769" class="net_3"/>
  <circle cx="138" cy="769" r="2" style="fill:#000" class="net_3"/>
  <line x1="138" x2="169.88" y1="769" y2="769" class="net_3"/>
  <line x1="40" x2="138" y1="396.5" y2="396.5" class="net_3"/>
  <line x1="138" x2="138" y1="396.5" y2="789" class="net_3"/>
  <circle cx="138" cy="789" r="2" style="fill:#000" class="net_3"/>
  <line x1="138" x2="169.88" y1="789" y2="789" class="net_3"/>
  <line x1="40" x2="138" y1="396.5" y2="396.5" class="net_3"/>
  <line x1="138" x2="138" y1="396.5" y2="809" class="net_3"/>
  <circle cx="138" cy="809" r="2" style="fill:#000" class="net_3"/>
  <line x1="138" x2="169.88" y1="809" y2="809" class="net_3"/>
  <line x1="40" x2="138" y1="396.5" y2="396.5" class="net_3"/>
  <line x1="138" x2="138" y1="396.5" y2="829" class="net_3"/>
  <circle cx="138" cy="829" r="2" style="fill:#000" class="net_3"/>
  <line x1="138" x2="169.88" y1="829" y2="829" class="net_3"/>
  <line x1="40" x2="138" y1="396.5" y2="396.5" class="net_3"/>
  <line x1="138" x2="138" y1="396.5" y2="849" class="net_3"/>
  <circle cx="138" cy="849" r="2" style="fill:#000" class="net_3"/>
  <line x1="138" x2="169.88" y1="849" y2="849" class="net_3"/>
  <line x1="40" x2="138" y1="396.5" y2="396.5" class="net_3"/>
  <line x1="138" x2="138" y1="396.5" y2="869" class="net_3"/>
  <circle cx="138" cy="869" r="2" style="fill:#000" class="net_3"/>
  <line x1="138" x2="169.88" y1="869" y2="869" class="net_3"/>
  <line x1="40" x2="138" y1="396.5" y2="396.5" class="net_3"/>
  <line x1="138" x2="138" y1="396.5" y2="889" class="net_3"/>
  <circle cx="138" cy="889" r="2" style="fill:#000" class="net_3"/>
  <line x1="138" x2="169.88" y1="889" y2="889" class="net_3"/>
  <line x1="40" x2="138" y1="396.5" y2="396.5" class="net_3"/>
  <line x1="138" x2="138" y1="396.5" y2="909" class="net_3"/>
  <circle cx="138" cy="909" r="2" style="fill:#000" class="net_3"/>
  <line x1="138" x2="169.88" y1="909" y2="909" class="net_3"/>
  <line x1="40" x2="138" y1="396.5" y2="396.5" class="net_3"/>
  <line x1="138" x2="138" y1="396.5" y2="929" class="net_3"/>
  <circle cx="138" cy="929" r="2" style="fill:#000" class="net_3"/>
  <line x1="138" x2="169.88" y1="929" y2="929" class="net_3"/>
  <line x1="40" x2="138" y1="396.5" y2="396.5" class="net_3"/>
  <line x1="138" x2="138" y1="396.5" y2="949" class="net_3"/>
  <circle cx="138" cy="949" r="2" style="fill:#000" class="net_3"/>
  <line x1="138" x2="169.88" y1="949" y2="949" class="net_3"/>
  <line x1="40" x2="138" y1="396.5" y2="396.5" class="net_3"/>
  <line x1="138" x2="138" y1="396.5" y2="969" class="net_3"/>
  <circle cx="138" cy="969" r="2" style="fill:#000" class="net_3"/>
  <line x1="138" x2="169.88" y1="969" y2="969" class="net_3"/>
  <line x1="40" x2="138" y1="396.5" y2="396.5" class="net_3"/>
  <line x1="138" x2="138" y1="396.5" y2="989" class="net_3"/>
  <circle cx="138" cy="989" r="2" style="fill:#000" class="net_3"/>
  <line x1="138" x2="169.88" y1="989" y2="989" class="net_3"/>
  <line x1="40" x2="138" y1="396.5" y2="396.5" class="net_3"/>
  <line x1="138" x2="138" y1="396.5" y2="1118.5" class="net_3"/>
  <line x1="138" x2="170.38" y1="1118.5" y2="1118.5" class="net_3"/>
  <line x1="170.38" x2="170.38" y1="1118.5" y2="1009.5" class="net_3"/>
  <line x1="40" x2="138" y1="396.5" y2="396.5" class="net_3"/>
  <line x1="138" x2="138" y1="396.5" y2="1108.5" class="net_3"/>
  <line x1="138" x2="170.38" y1="1108.5" y2="1108.5" class="net_3"/>
  <circle cx="138" cy="1108.5" r="2" style="fill:#000" class="net_3"/>
  <line x1="170.38" x2="170.38" y1="1108.5" y2="1029.5" class="net_3"/>
  <line x1="40" x2="138" y1="396.5" y2="396.5" class="net_3"/>
  <line x1="138" x2="138" y1="396.5" y2="1098.5" class="net_3"/>
  <line x1="138" x2="170.38" y1="1098.5" y2="1098.5" class="net_3"/>
  <circle cx="138" cy="1098.5" r="2" style="fill:#000" class="net_3"/>
  <line x1="170.38" x2="170.38" y1="1098.5" y2="1049.5" class="net_3"/>
  <line x1="40" x2="138" y1="396.5" y2="396.5" class="net_3"/>
  <line x1="138" x2="138" y1="396.5" y2="1088.5" class="net_3"/>
  <line x1="138" x2="170.38" y1="1088.5" y2="1088.5" class="net_3"/>
  <circle cx="138" cy="1088.5" r="2" style="fill:#000" class="net_3"/>
  <line x1="170.38" x2="170.38" y1="1088.5" y2="1069.5" class="net_3"/>
  <line x1="386" x2="464" y1="121.5" y2="121.5" class="net_116,117,118,119,120,121,122,123,124,125,126,127,128,129,130,131,132,133,134,135,136,137,138,139,140,141,142,143,144,145,146,147,149,150,151,152,153,154,155,156,157,158,159,160,161,162,163,164,165,166,167,168,169,170,171,172,173,174,175,176,177,178,179,180"/>
</svg>
