<svg xmlns="http://www.w3.org/2000/svg" xmlns:xlink="http://www.w3.org/1999/xlink" xmlns:s="https://github.com/nturley/netlistsvg" width="1116" height="957">
  <style>svg {
    stroke:#000;
    fill:none;
  }
  text {
    fill:#000;
    stroke:none;
    font-size:10px;
    font-weight: bold;
    font-family: "Courier New", monospace;
  }
  .nodelabel {
    text-anchor: middle;
  }
  .inputPortLabel {
    text-anchor: end;
  }
  .splitjoinBody {
    fill:#000;
  }</style>
  <g s:type="mux" transform="translate(983,132)" s:width="20" s:height="40" id="cell_\10">
    <s:alias val="$pmux"/>
    <s:alias val="$mux"/>
    <s:alias val="$_MUX_"/>
    <path d="M0,0 L20,10 L20,30 L0,40 Z" class="cell_\10"/>
    <g s:x="0" s:y="10" s:pid="A"/>
    <g s:x="0" s:y="30" s:pid="B"/>
    <g s:x="10" s:y="35" s:pid="S"/>
    <g s:x="20" s:y="20" s:pid="Y"/>
  </g>
  <g s:type="eq" transform="translate(479.6666666666667,823)" s:width="25" s:height="25" id="cell_\13">
    <s:alias val="$eq"/>
    <circle r="12.5" cx="12.5" cy="12.5" class="cell_\13"/>
    <line x1="7.5" x2="17.5" y1="10" y2="10" class="cell_\13"/>
    <line x1="7.5" x2="17.5" y1="15" y2="15" class="cell_\13"/>
    <g s:x="3" s:y="5" s:pid="A"/>
    <g s:x="3" s:y="20" s:pid="B"/>
    <g s:x="25" s:y="12.5" s:pid="Y"/>
  </g>
  <g s:type="eq" transform="translate(252,701)" s:width="25" s:height="25" id="cell_\15">
    <s:alias val="$eq"/>
    <circle r="12.5" cx="12.5" cy="12.5" class="cell_\15"/>
    <line x1="7.5" x2="17.5" y1="10" y2="10" class="cell_\15"/>
    <line x1="7.5" x2="17.5" y1="15" y2="15" class="cell_\15"/>
    <g s:x="3" s:y="5" s:pid="A"/>
    <g s:x="3" s:y="20" s:pid="B"/>
    <g s:x="25" s:y="12.5" s:pid="Y"/>
  </g>
  <g s:type="and" transform="translate(788,874)" s:width="30" s:height="25" id="cell_\16">
    <s:alias val="$and"/>
    <s:alias val="$logic_and"/>
    <s:alias val="$_AND_"/>
    <path d="M0,0 L0,25 L15,25 A15 12.5 0 0 0 15,0 Z" class="cell_\16"/>
    <g s:x="0" s:y="5" s:pid="A"/>
    <g s:x="0" s:y="20" s:pid="B"/>
    <g s:x="30" s:y="12.5" s:pid="Y"/>
  </g>
  <g s:type="not" transform="translate(578,561)" s:width="30" s:height="20" id="cell_\18">
    <s:alias val="$_NOT_"/>
    <s:alias val="$not"/>
    <s:alias val="$logic_not"/>
    <path d="M0,0 L0,20 L20,10 Z" class="cell_\18"/>
    <circle cx="23" cy="10" r="3" class="cell_\18"/>
    <g s:x="0" s:y="10" s:pid="A"/>
    <g s:x="25" s:y="10" s:pid="Y"/>
  </g>
  <g s:type="and" transform="translate(853,460)" s:width="30" s:height="25" id="cell_\19">
    <s:alias val="$and"/>
    <s:alias val="$logic_and"/>
    <s:alias val="$_AND_"/>
    <path d="M0,0 L0,25 L15,25 A15 12.5 0 0 0 15,0 Z" class="cell_\19"/>
    <g s:x="0" s:y="5" s:pid="A"/>
    <g s:x="0" s:y="20" s:pid="B"/>
    <g s:x="30" s:y="12.5" s:pid="Y"/>
  </g>
  <g s:type="mux" transform="translate(921.3333333333334,122)" s:width="20" s:height="40" id="cell_\20">
    <s:alias val="$pmux"/>
    <s:alias val="$mux"/>
    <s:alias val="$_MUX_"/>
    <path d="M0,0 L20,10 L20,30 L0,40 Z" class="cell_\20"/>
    <g s:x="0" s:y="10" s:pid="A"/>
    <g s:x="0" s:y="30" s:pid="B"/>
    <g s:x="10" s:y="35" s:pid="S"/>
    <g s:x="20" s:y="20" s:pid="Y"/>
  </g>
  <g s:type="not" transform="translate(178,630)" s:width="30" s:height="20" id="cell_\25">
    <s:alias val="$_NOT_"/>
    <s:alias val="$not"/>
    <s:alias val="$logic_not"/>
    <path d="M0,0 L0,20 L20,10 Z" class="cell_\25"/>
    <circle cx="23" cy="10" r="3" class="cell_\25"/>
    <g s:x="0" s:y="10" s:pid="A"/>
    <g s:x="25" s:y="10" s:pid="Y"/>
  </g>
  <g s:type="and" transform="translate(658,536)" s:width="30" s:height="25" id="cell_\26">
    <s:alias val="$and"/>
    <s:alias val="$logic_and"/>
    <s:alias val="$_AND_"/>
    <path d="M0,0 L0,25 L15,25 A15 12.5 0 0 0 15,0 Z" class="cell_\26"/>
    <g s:x="0" s:y="5" s:pid="A"/>
    <g s:x="0" s:y="20" s:pid="B"/>
    <g s:x="30" s:y="12.5" s:pid="Y"/>
  </g>
  <g s:type="and" transform="translate(788,566)" s:width="30" s:height="25" id="cell_\29">
    <s:alias val="$and"/>
    <s:alias val="$logic_and"/>
    <s:alias val="$_AND_"/>
    <path d="M0,0 L0,25 L15,25 A15 12.5 0 0 0 15,0 Z" class="cell_\29"/>
    <g s:x="0" s:y="5" s:pid="A"/>
    <g s:x="0" s:y="20" s:pid="B"/>
    <g s:x="30" s:y="12.5" s:pid="Y"/>
  </g>
  <g s:type="mux" transform="translate(856.3333333333334,112)" s:width="20" s:height="40" id="cell_\30">
    <s:alias val="$pmux"/>
    <s:alias val="$mux"/>
    <s:alias val="$_MUX_"/>
    <path d="M0,0 L20,10 L20,30 L0,40 Z" class="cell_\30"/>
    <g s:x="0" s:y="10" s:pid="A"/>
    <g s:x="0" s:y="30" s:pid="B"/>
    <g s:x="10" s:y="35" s:pid="S"/>
    <g s:x="20" s:y="20" s:pid="Y"/>
  </g>
  <g s:type="eq" transform="translate(659.6666666666666,476)" s:width="25" s:height="25" id="cell_\38">
    <s:alias val="$eq"/>
    <circle r="12.5" cx="12.5" cy="12.5" class="cell_\38"/>
    <line x1="7.5" x2="17.5" y1="10" y2="10" class="cell_\38"/>
    <line x1="7.5" x2="17.5" y1="15" y2="15" class="cell_\38"/>
    <g s:x="3" s:y="5" s:pid="A"/>
    <g s:x="3" s:y="20" s:pid="B"/>
    <g s:x="25" s:y="12.5" s:pid="Y"/>
  </g>
  <g s:type="and" transform="translate(723,483.5)" s:width="30" s:height="25" id="cell_\39">
    <s:alias val="$and"/>
    <s:alias val="$logic_and"/>
    <s:alias val="$_AND_"/>
    <path d="M0,0 L0,25 L15,25 A15 12.5 0 0 0 15,0 Z" class="cell_\39"/>
    <g s:x="0" s:y="5" s:pid="A"/>
    <g s:x="0" s:y="20" s:pid="B"/>
    <g s:x="30" s:y="12.5" s:pid="Y"/>
  </g>
  <g s:type="mux" transform="translate(791.3333333333334,102)" s:width="20" s:height="40" id="cell_\40">
    <s:alias val="$pmux"/>
    <s:alias val="$mux"/>
    <s:alias val="$_MUX_"/>
    <path d="M0,0 L20,10 L20,30 L0,40 Z" class="cell_\40"/>
    <g s:x="0" s:y="10" s:pid="A"/>
    <g s:x="0" s:y="30" s:pid="B"/>
    <g s:x="10" s:y="35" s:pid="S"/>
    <g s:x="20" s:y="20" s:pid="Y"/>
  </g>
  <g s:type="eq" transform="translate(379.6666666666667,484)" s:width="25" s:height="25" id="cell_\45">
    <s:alias val="$eq"/>
    <circle r="12.5" cx="12.5" cy="12.5" class="cell_\45"/>
    <line x1="7.5" x2="17.5" y1="10" y2="10" class="cell_\45"/>
    <line x1="7.5" x2="17.5" y1="15" y2="15" class="cell_\45"/>
    <g s:x="3" s:y="5" s:pid="A"/>
    <g s:x="3" s:y="20" s:pid="B"/>
    <g s:x="25" s:y="12.5" s:pid="Y"/>
  </g>
  <g s:type="and" transform="translate(578,383)" s:width="30" s:height="25" id="cell_\46">
    <s:alias val="$and"/>
    <s:alias val="$logic_and"/>
    <s:alias val="$_AND_"/>
    <path d="M0,0 L0,25 L15,25 A15 12.5 0 0 0 15,0 Z" class="cell_\46"/>
    <g s:x="0" s:y="5" s:pid="A"/>
    <g s:x="0" s:y="20" s:pid="B"/>
    <g s:x="30" s:y="12.5" s:pid="Y"/>
  </g>
  <g s:type="and" transform="translate(658,238)" s:width="30" s:height="25" id="cell_\49">
    <s:alias val="$and"/>
    <s:alias val="$logic_and"/>
    <s:alias val="$_AND_"/>
    <path d="M0,0 L0,25 L15,25 A15 12.5 0 0 0 15,0 Z" class="cell_\49"/>
    <g s:x="0" s:y="5" s:pid="A"/>
    <g s:x="0" s:y="20" s:pid="B"/>
    <g s:x="30" s:y="12.5" s:pid="Y"/>
  </g>
  <g s:type="eq" transform="translate(314.6666666666667,685)" s:width="25" s:height="25" id="cell_\5">
    <s:alias val="$eq"/>
    <circle r="12.5" cx="12.5" cy="12.5" class="cell_\5"/>
    <line x1="7.5" x2="17.5" y1="10" y2="10" class="cell_\5"/>
    <line x1="7.5" x2="17.5" y1="15" y2="15" class="cell_\5"/>
    <g s:x="3" s:y="5" s:pid="A"/>
    <g s:x="3" s:y="20" s:pid="B"/>
    <g s:x="25" s:y="12.5" s:pid="Y"/>
  </g>
  <g s:type="mux" transform="translate(726.3333333333334,92)" s:width="20" s:height="40" id="cell_\50">
    <s:alias val="$pmux"/>
    <s:alias val="$mux"/>
    <s:alias val="$_MUX_"/>
    <path d="M0,0 L20,10 L20,30 L0,40 Z" class="cell_\50"/>
    <g s:x="0" s:y="10" s:pid="A"/>
    <g s:x="0" s:y="30" s:pid="B"/>
    <g s:x="10" s:y="35" s:pid="S"/>
    <g s:x="20" s:y="20" s:pid="Y"/>
  </g>
  <g s:type="not" transform="translate(483,409)" s:width="30" s:height="20" id="cell_\53">
    <s:alias val="$_NOT_"/>
    <s:alias val="$not"/>
    <s:alias val="$logic_not"/>
    <path d="M0,0 L0,20 L20,10 Z" class="cell_\53"/>
    <circle cx="23" cy="10" r="3" class="cell_\53"/>
    <g s:x="0" s:y="10" s:pid="A"/>
    <g s:x="25" s:y="10" s:pid="Y"/>
  </g>
  <g s:type="and" transform="translate(578,323)" s:width="30" s:height="25" id="cell_\56">
    <s:alias val="$and"/>
    <s:alias val="$logic_and"/>
    <s:alias val="$_AND_"/>
    <path d="M0,0 L0,25 L15,25 A15 12.5 0 0 0 15,0 Z" class="cell_\56"/>
    <g s:x="0" s:y="5" s:pid="A"/>
    <g s:x="0" s:y="20" s:pid="B"/>
    <g s:x="30" s:y="12.5" s:pid="Y"/>
  </g>
  <g s:type="mux" transform="translate(661.3333333333334,82)" s:width="20" s:height="40" id="cell_\57">
    <s:alias val="$pmux"/>
    <s:alias val="$mux"/>
    <s:alias val="$_MUX_"/>
    <path d="M0,0 L20,10 L20,30 L0,40 Z" class="cell_\57"/>
    <g s:x="0" s:y="10" s:pid="A"/>
    <g s:x="0" s:y="30" s:pid="B"/>
    <g s:x="10" s:y="35" s:pid="S"/>
    <g s:x="20" s:y="20" s:pid="Y"/>
  </g>
  <g s:type="and" transform="translate(853,920)" s:width="30" s:height="25" id="cell_\6">
    <s:alias val="$and"/>
    <s:alias val="$logic_and"/>
    <s:alias val="$_AND_"/>
    <path d="M0,0 L0,25 L15,25 A15 12.5 0 0 0 15,0 Z" class="cell_\6"/>
    <g s:x="0" s:y="5" s:pid="A"/>
    <g s:x="0" s:y="20" s:pid="B"/>
    <g s:x="30" s:y="12.5" s:pid="Y"/>
  </g>
  <g s:type="eq" transform="translate(379.6666666666667,604)" s:width="25" s:height="25" id="cell_\60">
    <s:alias val="$eq"/>
    <circle r="12.5" cx="12.5" cy="12.5" class="cell_\60"/>
    <line x1="7.5" x2="17.5" y1="10" y2="10" class="cell_\60"/>
    <line x1="7.5" x2="17.5" y1="15" y2="15" class="cell_\60"/>
    <g s:x="3" s:y="5" s:pid="A"/>
    <g s:x="3" s:y="20" s:pid="B"/>
    <g s:x="25" s:y="12.5" s:pid="Y"/>
  </g>
  <g s:type="and" transform="translate(478,349)" s:width="30" s:height="25" id="cell_\63">
    <s:alias val="$and"/>
    <s:alias val="$logic_and"/>
    <s:alias val="$_AND_"/>
    <path d="M0,0 L0,25 L15,25 A15 12.5 0 0 0 15,0 Z" class="cell_\63"/>
    <g s:x="0" s:y="5" s:pid="A"/>
    <g s:x="0" s:y="20" s:pid="B"/>
    <g s:x="30" s:y="12.5" s:pid="Y"/>
  </g>
  <g s:type="mux" transform="translate(581.3333333333334,72)" s:width="20" s:height="40" id="cell_\64">
    <s:alias val="$pmux"/>
    <s:alias val="$mux"/>
    <s:alias val="$_MUX_"/>
    <path d="M0,0 L20,10 L20,30 L0,40 Z" class="cell_\64"/>
    <g s:x="0" s:y="10" s:pid="A"/>
    <g s:x="0" s:y="30" s:pid="B"/>
    <g s:x="10" s:y="35" s:pid="S"/>
    <g s:x="20" s:y="20" s:pid="Y"/>
  </g>
  <g s:type="eq" transform="translate(179.66666666666666,229.5)" s:width="25" s:height="25" id="cell_\67">
    <s:alias val="$eq"/>
    <circle r="12.5" cx="12.5" cy="12.5" class="cell_\67"/>
    <line x1="7.5" x2="17.5" y1="10" y2="10" class="cell_\67"/>
    <line x1="7.5" x2="17.5" y1="15" y2="15" class="cell_\67"/>
    <g s:x="3" s:y="5" s:pid="A"/>
    <g s:x="3" s:y="20" s:pid="B"/>
    <g s:x="25" s:y="12.5" s:pid="Y"/>
  </g>
  <g s:type="and" transform="translate(378,544)" s:width="30" s:height="25" id="cell_\70">
    <s:alias val="$and"/>
    <s:alias val="$logic_and"/>
    <s:alias val="$_AND_"/>
    <path d="M0,0 L0,25 L15,25 A15 12.5 0 0 0 15,0 Z" class="cell_\70"/>
    <g s:x="0" s:y="5" s:pid="A"/>
    <g s:x="0" s:y="20" s:pid="B"/>
    <g s:x="30" s:y="12.5" s:pid="Y"/>
  </g>
  <g s:type="mux" transform="translate(481.3333333333333,62)" s:width="20" s:height="40" id="cell_\71">
    <s:alias val="$pmux"/>
    <s:alias val="$mux"/>
    <s:alias val="$_MUX_"/>
    <path d="M0,0 L20,10 L20,30 L0,40 Z" class="cell_\71"/>
    <g s:x="0" s:y="10" s:pid="A"/>
    <g s:x="0" s:y="30" s:pid="B"/>
    <g s:x="10" s:y="35" s:pid="S"/>
    <g s:x="20" s:y="20" s:pid="Y"/>
  </g>
  <g s:type="and" transform="translate(313,222)" s:width="30" s:height="25" id="cell_\77">
    <s:alias val="$and"/>
    <s:alias val="$logic_and"/>
    <s:alias val="$_AND_"/>
    <path d="M0,0 L0,25 L15,25 A15 12.5 0 0 0 15,0 Z" class="cell_\77"/>
    <g s:x="0" s:y="5" s:pid="A"/>
    <g s:x="0" s:y="20" s:pid="B"/>
    <g s:x="30" s:y="12.5" s:pid="Y"/>
  </g>
  <g s:type="mux" transform="translate(381.3333333333333,52)" s:width="20" s:height="40" id="cell_\78">
    <s:alias val="$pmux"/>
    <s:alias val="$mux"/>
    <s:alias val="$_MUX_"/>
    <path d="M0,0 L20,10 L20,30 L0,40 Z" class="cell_\78"/>
    <g s:x="0" s:y="10" s:pid="A"/>
    <g s:x="0" s:y="30" s:pid="B"/>
    <g s:x="10" s:y="35" s:pid="S"/>
    <g s:x="20" s:y="20" s:pid="Y"/>
  </g>
  <g s:type="and" transform="translate(248,197)" s:width="30" s:height="25" id="cell_\84">
    <s:alias val="$and"/>
    <s:alias val="$logic_and"/>
    <s:alias val="$_AND_"/>
    <path d="M0,0 L0,25 L15,25 A15 12.5 0 0 0 15,0 Z" class="cell_\84"/>
    <g s:x="0" s:y="5" s:pid="A"/>
    <g s:x="0" s:y="20" s:pid="B"/>
    <g s:x="30" s:y="12.5" s:pid="Y"/>
  </g>
  <g s:type="mux" transform="translate(316.3333333333333,42)" s:width="20" s:height="40" id="cell_\85">
    <s:alias val="$pmux"/>
    <s:alias val="$mux"/>
    <s:alias val="$_MUX_"/>
    <path d="M0,0 L20,10 L20,30 L0,40 Z" class="cell_\85"/>
    <g s:x="0" s:y="10" s:pid="A"/>
    <g s:x="0" s:y="30" s:pid="B"/>
    <g s:x="10" s:y="35" s:pid="S"/>
    <g s:x="20" s:y="20" s:pid="Y"/>
  </g>
  <g s:type="eq" transform="translate(94.66666666666667,142)" s:width="25" s:height="25" id="cell_\88">
    <s:alias val="$eq"/>
    <circle r="12.5" cx="12.5" cy="12.5" class="cell_\88"/>
    <line x1="7.5" x2="17.5" y1="10" y2="10" class="cell_\88"/>
    <line x1="7.5" x2="17.5" y1="15" y2="15" class="cell_\88"/>
    <g s:x="3" s:y="5" s:pid="A"/>
    <g s:x="3" s:y="20" s:pid="B"/>
    <g s:x="25" s:y="12.5" s:pid="Y"/>
  </g>
  <g s:type="mux" transform="translate(181.33333333333334,22)" s:width="20" s:height="40" id="cell_\89">
    <s:alias val="$pmux"/>
    <s:alias val="$mux"/>
    <s:alias val="$_MUX_"/>
    <path d="M0,0 L20,10 L20,30 L0,40 Z" class="cell_\89"/>
    <g s:x="0" s:y="10" s:pid="A"/>
    <g s:x="0" s:y="30" s:pid="B"/>
    <g s:x="10" s:y="35" s:pid="S"/>
    <g s:x="20" s:y="20" s:pid="Y"/>
  </g>
  <g s:type="and" transform="translate(918,904)" s:width="30" s:height="25" id="cell_\9">
    <s:alias val="$and"/>
    <s:alias val="$logic_and"/>
    <s:alias val="$_AND_"/>
    <path d="M0,0 L0,25 L15,25 A15 12.5 0 0 0 15,0 Z" class="cell_\9"/>
    <g s:x="0" s:y="5" s:pid="A"/>
    <g s:x="0" s:y="20" s:pid="B"/>
    <g s:x="30" s:y="12.5" s:pid="Y"/>
  </g>
  <g s:type="inputExt" transform="translate(12,599)" s:width="30" s:height="20" id="cell_opcode">
    <text x="15" y="-4" class="nodelabel cell_opcode" s:attribute="ref">opcode</text>
    <s:alias val="$_inputExt_"/>
    <path d="M0,0 L0,20 L15,20 L30,10 L15,0 Z" class="cell_opcode"/>
    <g s:x="28" s:y="10" s:pid="Y"/>
  </g>
  <g s:type="inputExt" transform="translate(83,630)" s:width="30" s:height="20" id="cell_function_3">
    <text x="15" y="-4" class="nodelabel cell_function_3" s:attribute="ref">function_3</text>
    <s:alias val="$_inputExt_"/>
    <path d="M0,0 L0,20 L15,20 L30,10 L15,0 Z" class="cell_function_3"/>
    <g s:x="28" s:y="10" s:pid="Y"/>
  </g>
  <g s:type="inputExt" transform="translate(468,471)" s:width="30" s:height="20" id="cell_function_7">
    <text x="15" y="-4" class="nodelabel cell_function_7" s:attribute="ref">function_7</text>
    <s:alias val="$_inputExt_"/>
    <path d="M0,0 L0,20 L15,20 L30,10 L15,0 Z" class="cell_function_7"/>
    <g s:x="28" s:y="10" s:pid="Y"/>
  </g>
  <g s:type="outputExt" transform="translate(1038,142)" s:width="30" s:height="20" id="cell_destination">
    <text x="15" y="-4" class="nodelabel cell_destination" s:attribute="ref">destination</text>
    <s:alias val="$_outputExt_"/>
    <path d="M30,0 L30,20 L15,20 L0,10 L15,0 Z" class="cell_destination"/>
    <g s:x="0" s:y="10" s:pid="A"/>
  </g>
  <g s:type="constant" transform="translate(378,429)" s:width="30" s:height="20" id="cell_0000">
    <text x="15" y="-4" class="nodelabel cell_0000" s:attribute="ref">0x0</text>
    <s:alias val="$_constant_"/>
    <rect width="30" height="20" class="cell_0000"/>
    <g s:x="30" s:y="10" s:pid="Y"/>
  </g>
  <g s:type="constant" transform="translate(378,849)" s:width="30" s:height="20" id="cell_1100">
    <text x="15" y="-4" class="nodelabel cell_1100" s:attribute="ref">0xc</text>
    <s:alias val="$_constant_"/>
    <rect width="30" height="20" class="cell_1100"/>
    <g s:x="30" s:y="10" s:pid="Y"/>
  </g>
  <g s:type="constant" transform="translate(178,711)" s:width="30" s:height="20" id="cell_110">
    <text x="15" y="-4" class="nodelabel cell_110" s:attribute="ref">110</text>
    <s:alias val="$_constant_"/>
    <rect width="30" height="20" class="cell_110"/>
    <g s:x="30" s:y="10" s:pid="Y"/>
  </g>
  <g s:type="constant" transform="translate(313,292)" s:width="30" s:height="20" id="cell_0001">
    <text x="15" y="-4" class="nodelabel cell_0001" s:attribute="ref">0x1</text>
    <s:alias val="$_constant_"/>
    <rect width="30" height="20" class="cell_0001"/>
    <g s:x="30" s:y="10" s:pid="Y"/>
  </g>
  <g s:type="constant" transform="translate(248,142)" s:width="30" s:height="20" id="cell_0010">
    <text x="15" y="-4" class="nodelabel cell_0010" s:attribute="ref">0x2</text>
    <s:alias val="$_constant_"/>
    <rect width="30" height="20" class="cell_0010"/>
    <g s:x="30" s:y="10" s:pid="Y"/>
  </g>
  <g s:type="constant" transform="translate(578,502)" s:width="30" s:height="20" id="cell_100000">
    <text x="15" y="-4" class="nodelabel cell_100000" s:attribute="ref">0x20</text>
    <s:alias val="$_constant_"/>
    <rect width="30" height="20" class="cell_100000"/>
    <g s:x="30" s:y="10" s:pid="Y"/>
  </g>
  <g s:type="constant" transform="translate(723,270.5)" s:width="30" s:height="20" id="cell_0110">
    <text x="15" y="-4" class="nodelabel cell_0110" s:attribute="ref">0x6</text>
    <s:alias val="$_constant_"/>
    <rect width="30" height="20" class="cell_0110"/>
    <g s:x="30" s:y="10" s:pid="Y"/>
  </g>
  <g s:type="constant" transform="translate(313,510)" s:width="30" s:height="20" id="cell_10">
    <text x="15" y="-4" class="nodelabel cell_10" s:attribute="ref">10</text>
    <s:alias val="$_constant_"/>
    <rect width="30" height="20" class="cell_10"/>
    <g s:x="30" s:y="10" s:pid="Y"/>
  </g>
  <g s:type="constant" transform="translate(248,771)" s:width="30" s:height="20" id="cell_111">
    <text x="15" y="-4" class="nodelabel cell_111" s:attribute="ref">111</text>
    <s:alias val="$_constant_"/>
    <rect width="30" height="20" class="cell_111"/>
    <g s:x="30" s:y="10" s:pid="Y"/>
  </g>
  <g s:type="constant" transform="translate(658,183)" s:width="30" s:height="20" id="cell_0111">
    <text x="15" y="-4" class="nodelabel cell_0111" s:attribute="ref">0x7</text>
    <s:alias val="$_constant_"/>
    <rect width="30" height="20" class="cell_0111"/>
    <g s:x="30" s:y="10" s:pid="Y"/>
  </g>
  <g s:type="constant" transform="translate(313,630)" s:width="30" s:height="20" id="cell_1000">
    <text x="15" y="-4" class="nodelabel cell_1000" s:attribute="ref">0x8</text>
    <s:alias val="$_constant_"/>
    <rect width="30" height="20" class="cell_1000"/>
    <g s:x="30" s:y="10" s:pid="Y"/>
  </g>
  <g s:type="constant" transform="translate(83,255.5)" s:width="30" s:height="20" id="cell_100">
    <text x="15" y="-4" class="nodelabel cell_100" s:attribute="ref">100</text>
    <s:alias val="$_constant_"/>
    <rect width="30" height="20" class="cell_100"/>
    <g s:x="30" s:y="10" s:pid="Y"/>
  </g>
  <g s:type="constant" transform="translate(178,174.5)" s:width="30" s:height="20" id="cell_000">
    <text x="15" y="-4" class="nodelabel cell_000" s:attribute="ref">000</text>
    <s:alias val="$_constant_"/>
    <rect width="30" height="20" class="cell_000"/>
    <g s:x="30" s:y="10" s:pid="Y"/>
  </g>
  <g s:type="constant" transform="translate(12,152)" s:width="30" s:height="20" id="cell_1101">
    <text x="15" y="-4" class="nodelabel cell_1101" s:attribute="ref">0xd</text>
    <s:alias val="$_constant_"/>
    <rect width="30" height="20" class="cell_1101"/>
    <g s:x="30" s:y="10" s:pid="Y"/>
  </g>
  <g s:type="constant" transform="translate(83,22)" s:width="30" s:height="20" id="cell_0">
    <text x="15" y="-4" class="nodelabel cell_0" s:attribute="ref">0</text>
    <s:alias val="$_constant_"/>
    <rect width="30" height="20" class="cell_0"/>
    <g s:x="30" s:y="10" s:pid="Y"/>
  </g>
  <g s:type="constant" transform="translate(83,87)" s:width="30" s:height="20" id="cell_1">
    <text x="15" y="-4" class="nodelabel cell_1" s:attribute="ref">1</text>
    <s:alias val="$_constant_"/>
    <rect width="30" height="20" class="cell_1"/>
    <g s:x="30" s:y="10" s:pid="Y"/>
  </g>
  <g s:type="join" transform="translate(259,31.5)" s:width="4" s:height="40" id="cell_$join$,81,144,145,146,">
    <rect width="5" height="40" class="splitjoinBody" s:generic="body"/>
    <s:alias val="$_join_"/>
    <g s:x="5" s:y="20" s:pid="out"/>
    <g transform="translate(0,10)" s:x="0" s:y="10" s:pid="in0">
      <text x="-3" y="-4" class="inputPortLabel">0</text>
    </g>
    <g transform="translate(0,30)" s:x="0" s:y="10" s:pid="in0">
      <text x="-3" y="-4" class="inputPortLabel">1:3</text>
    </g>
  </g>
  <line x1="941.3333333333334" x2="983" y1="142" y2="142" class="net_21,22,23,24"/>
  <line x1="408" x2="958" y1="439" y2="439" class="net_83,84,85,86"/>
  <line x1="958" x2="958" y1="439" y2="162" class="net_83,84,85,86"/>
  <line x1="958" x2="983" y1="162" y2="162" class="net_83,84,85,86"/>
  <line x1="408" x2="418" y1="439" y2="439" class="net_83,84,85,86"/>
  <line x1="418" x2="418" y1="439" y2="92" class="net_83,84,85,86"/>
  <circle cx="418" cy="439" r="2" style="fill:#000" class="net_83,84,85,86"/>
  <line x1="418" x2="481.3333333333333" y1="92" y2="92" class="net_83,84,85,86"/>
  <line x1="948" x2="993" y1="916.5" y2="916.5" class="net_25"/>
  <line x1="993" x2="993" y1="916.5" y2="167" class="net_25"/>
  <line x1="40" x2="58" y1="609" y2="609" class="net_2,3,4,5,6"/>
  <line x1="58" x2="58" y1="609" y2="801" class="net_2,3,4,5,6"/>
  <line x1="58" x2="218" y1="801" y2="801" class="net_2,3,4,5,6"/>
  <line x1="218" x2="218" y1="801" y2="828" class="net_2,3,4,5,6"/>
  <circle cx="58" cy="609" r="2" style="fill:#000" class="net_2,3,4,5,6"/>
  <circle cx="218" cy="801" r="2" style="fill:#000" class="net_2,3,4,5,6"/>
  <line x1="218" x2="482.6666666666667" y1="828" y2="828" class="net_2,3,4,5,6"/>
  <line x1="40" x2="58" y1="609" y2="609" class="net_2,3,4,5,6"/>
  <line x1="58" x2="58" y1="609" y2="801" class="net_2,3,4,5,6"/>
  <line x1="58" x2="458" y1="801" y2="801" class="net_2,3,4,5,6"/>
  <line x1="458" x2="458" y1="801" y2="419" class="net_2,3,4,5,6"/>
  <line x1="458" x2="483" y1="419" y2="419" class="net_2,3,4,5,6"/>
  <line x1="40" x2="382.6666666666667" y1="609" y2="609" class="net_2,3,4,5,6"/>
  <line x1="40" x2="58" y1="609" y2="609" class="net_2,3,4,5,6"/>
  <line x1="58" x2="58" y1="609" y2="234.5" class="net_2,3,4,5,6"/>
  <circle cx="58" cy="234.5" r="2" style="fill:#000" class="net_2,3,4,5,6"/>
  <line x1="58" x2="182.66666666666666" y1="234.5" y2="234.5" class="net_2,3,4,5,6"/>
  <line x1="40" x2="58" y1="609" y2="609" class="net_2,3,4,5,6"/>
  <line x1="58" x2="58" y1="609" y2="147" class="net_2,3,4,5,6"/>
  <line x1="58" x2="97.66666666666667" y1="147" y2="147" class="net_2,3,4,5,6"/>
  <line x1="408" x2="418" y1="859" y2="859" class="net_87,88,89,90"/>
  <line x1="418" x2="418" y1="859" y2="843" class="net_87,88,89,90"/>
  <line x1="418" x2="482.6666666666667" y1="843" y2="843" class="net_87,88,89,90"/>
  <line x1="111" x2="153" y1="640" y2="640" class="net_7,8,9"/>
  <line x1="153" x2="153" y1="640" y2="690" class="net_7,8,9"/>
  <line x1="153" x2="238" y1="690" y2="690" class="net_7,8,9"/>
  <line x1="238" x2="238" y1="690" y2="706" class="net_7,8,9"/>
  <circle cx="153" cy="640" r="2" style="fill:#000" class="net_7,8,9"/>
  <circle cx="238" cy="690" r="2" style="fill:#000" class="net_7,8,9"/>
  <line x1="238" x2="255" y1="706" y2="706" class="net_7,8,9"/>
  <line x1="111" x2="178" y1="640" y2="640" class="net_7,8,9"/>
  <line x1="111" x2="153" y1="640" y2="640" class="net_7,8,9"/>
  <line x1="153" x2="153" y1="640" y2="489" class="net_7,8,9"/>
  <line x1="153" x2="382.6666666666667" y1="489" y2="489" class="net_7,8,9"/>
  <line x1="111" x2="153" y1="640" y2="640" class="net_7,8,9"/>
  <line x1="153" x2="153" y1="640" y2="690" class="net_7,8,9"/>
  <line x1="153" x2="317.6666666666667" y1="690" y2="690" class="net_7,8,9"/>
  <line x1="208" x2="255" y1="721" y2="721" class="net_91,92,93"/>
  <line x1="277" x2="288" y1="713.5" y2="713.5" class="net_27"/>
  <line x1="288" x2="288" y1="713.5" y2="879" class="net_27"/>
  <circle cx="288" cy="713.5" r="2" style="fill:#000" class="net_27"/>
  <line x1="288" x2="788" y1="879" y2="879" class="net_27"/>
  <line x1="277" x2="288" y1="713.5" y2="713.5" class="net_27"/>
  <line x1="288" x2="288" y1="713.5" y2="227" class="net_27"/>
  <line x1="288" x2="313" y1="227" y2="227" class="net_27"/>
  <line x1="504.6666666666667" x2="558" y1="835.5" y2="835.5" class="net_26"/>
  <line x1="558" x2="558" y1="835.5" y2="894" class="net_26"/>
  <circle cx="558" cy="835.5" r="2" style="fill:#000" class="net_26"/>
  <circle cx="558" cy="894" r="2" style="fill:#000" class="net_26"/>
  <line x1="558" x2="788" y1="894" y2="894" class="net_26"/>
  <line x1="504.6666666666667" x2="628" y1="835.5" y2="835.5" class="net_26"/>
  <line x1="628" x2="628" y1="835.5" y2="556" class="net_26"/>
  <line x1="628" x2="658" y1="556" y2="556" class="net_26"/>
  <line x1="504.6666666666667" x2="558" y1="835.5" y2="835.5" class="net_26"/>
  <line x1="558" x2="558" y1="835.5" y2="403" class="net_26"/>
  <line x1="558" x2="578" y1="403" y2="403" class="net_26"/>
  <line x1="504.6666666666667" x2="558" y1="835.5" y2="835.5" class="net_26"/>
  <line x1="558" x2="558" y1="835.5" y2="940" class="net_26"/>
  <line x1="558" x2="853" y1="940" y2="940" class="net_26"/>
  <line x1="496" x2="568" y1="481" y2="481" class="net_10,11,12,13,14,15,16"/>
  <line x1="568" x2="568" y1="481" y2="571" class="net_10,11,12,13,14,15,16"/>
  <circle cx="568" cy="481" r="2" style="fill:#000" class="net_10,11,12,13,14,15,16"/>
  <line x1="568" x2="578" y1="571" y2="571" class="net_10,11,12,13,14,15,16"/>
  <line x1="496" x2="662.6666666666666" y1="481" y2="481" class="net_10,11,12,13,14,15,16"/>
  <line x1="603" x2="638" y1="571" y2="571" class="net_29"/>
  <line x1="638" x2="638" y1="571" y2="465" class="net_29"/>
  <circle cx="638" cy="571" r="2" style="fill:#000" class="net_29"/>
  <circle cx="638" cy="465" r="2" style="fill:#000" class="net_29"/>
  <line x1="638" x2="853" y1="465" y2="465" class="net_29"/>
  <line x1="603" x2="788" y1="571" y2="571" class="net_29"/>
  <line x1="603" x2="638" y1="571" y2="571" class="net_29"/>
  <line x1="638" x2="638" y1="571" y2="243" class="net_29"/>
  <line x1="638" x2="658" y1="243" y2="243" class="net_29"/>
  <line x1="603" x2="638" y1="571" y2="571" class="net_29"/>
  <line x1="638" x2="638" y1="571" y2="909" class="net_29"/>
  <line x1="638" x2="918" y1="909" y2="909" class="net_29"/>
  <line x1="818" x2="838" y1="886.5" y2="886.5" class="net_28"/>
  <line x1="838" x2="838" y1="886.5" y2="480" class="net_28"/>
  <line x1="838" x2="853" y1="480" y2="480" class="net_28"/>
  <line x1="876.3333333333334" x2="921.3333333333334" y1="132" y2="132" class="net_31,32,33,34"/>
  <line x1="343" x2="893" y1="302" y2="302" class="net_94,95,96,97"/>
  <line x1="893" x2="893" y1="302" y2="152" class="net_94,95,96,97"/>
  <line x1="893" x2="921.3333333333334" y1="152" y2="152" class="net_94,95,96,97"/>
  <line x1="343" x2="353" y1="302" y2="302" class="net_94,95,96,97"/>
  <line x1="353" x2="353" y1="302" y2="82" class="net_94,95,96,97"/>
  <circle cx="353" cy="302" r="2" style="fill:#000" class="net_94,95,96,97"/>
  <line x1="353" x2="381.3333333333333" y1="82" y2="82" class="net_94,95,96,97"/>
  <line x1="883" x2="931.3333333333334" y1="472.5" y2="472.5" class="net_30"/>
  <line x1="931.3333333333334" x2="931.3333333333334" y1="472.5" y2="157" class="net_30"/>
  <line x1="203" x2="228" y1="640" y2="640" class="net_35"/>
  <line x1="228" x2="228" y1="640" y2="812" class="net_35"/>
  <line x1="228" x2="618" y1="812" y2="812" class="net_35"/>
  <line x1="618" x2="618" y1="812" y2="541" class="net_35"/>
  <circle cx="228" cy="640" r="2" style="fill:#000" class="net_35"/>
  <line x1="618" x2="658" y1="541" y2="541" class="net_35"/>
  <line x1="203" x2="228" y1="640" y2="640" class="net_35"/>
  <line x1="228" x2="228" y1="640" y2="202" class="net_35"/>
  <line x1="228" x2="248" y1="202" y2="202" class="net_35"/>
  <line x1="688" x2="698" y1="548.5" y2="548.5" class="net_36"/>
  <line x1="698" x2="698" y1="548.5" y2="586" class="net_36"/>
  <circle cx="698" cy="548.5" r="2" style="fill:#000" class="net_36"/>
  <line x1="698" x2="788" y1="586" y2="586" class="net_36"/>
  <line x1="688" x2="698" y1="548.5" y2="548.5" class="net_36"/>
  <line x1="698" x2="698" y1="548.5" y2="503.5" class="net_36"/>
  <line x1="698" x2="723" y1="503.5" y2="503.5" class="net_36"/>
  <line x1="811.3333333333334" x2="856.3333333333334" y1="122" y2="122" class="net_38,39,40,41"/>
  <line x1="278" x2="828" y1="152" y2="152" class="net_98,99,100,101"/>
  <line x1="828" x2="828" y1="152" y2="142" class="net_98,99,100,101"/>
  <line x1="828" x2="856.3333333333334" y1="142" y2="142" class="net_98,99,100,101"/>
  <line x1="278" x2="618" y1="152" y2="152" class="net_98,99,100,101"/>
  <line x1="618" x2="618" y1="152" y2="112" class="net_98,99,100,101"/>
  <circle cx="618" cy="152" r="2" style="fill:#000" class="net_98,99,100,101"/>
  <line x1="618" x2="661.3333333333334" y1="112" y2="112" class="net_98,99,100,101"/>
  <line x1="278" x2="538" y1="152" y2="152" class="net_98,99,100,101"/>
  <line x1="538" x2="538" y1="152" y2="102" class="net_98,99,100,101"/>
  <circle cx="538" cy="152" r="2" style="fill:#000" class="net_98,99,100,101"/>
  <line x1="538" x2="581.3333333333334" y1="102" y2="102" class="net_98,99,100,101"/>
  <line x1="278" x2="288" y1="152" y2="152" class="net_98,99,100,101"/>
  <line x1="288" x2="288" y1="152" y2="72" class="net_98,99,100,101"/>
  <circle cx="288" cy="152" r="2" style="fill:#000" class="net_98,99,100,101"/>
  <line x1="288" x2="316.3333333333333" y1="72" y2="72" class="net_98,99,100,101"/>
  <line x1="818" x2="828" y1="578.5" y2="578.5" class="net_37"/>
  <line x1="828" x2="828" y1="578.5" y2="450" class="net_37"/>
  <line x1="828" x2="866.3333333333334" y1="450" y2="450" class="net_37"/>
  <line x1="866.3333333333334" x2="866.3333333333334" y1="450" y2="147" class="net_37"/>
  <line x1="608" x2="648" y1="512" y2="512" class="net_102,103,104,105,106,107"/>
  <line x1="648" x2="648" y1="512" y2="496" class="net_102,103,104,105,106,107"/>
  <line x1="648" x2="662.6666666666666" y1="496" y2="496" class="net_102,103,104,105,106,107"/>
  <line x1="684.6666666666666" x2="723" y1="488.5" y2="488.5" class="net_42"/>
  <line x1="746.3333333333334" x2="791.3333333333334" y1="112" y2="112" class="net_44,45,46,47"/>
  <line x1="753" x2="763" y1="280.5" y2="280.5" class="net_108,109,110,111"/>
  <line x1="763" x2="763" y1="280.5" y2="132" class="net_108,109,110,111"/>
  <line x1="763" x2="791.3333333333334" y1="132" y2="132" class="net_108,109,110,111"/>
  <line x1="753" x2="801.3333333333334" y1="496" y2="496" class="net_43"/>
  <line x1="801.3333333333334" x2="801.3333333333334" y1="496" y2="137" class="net_43"/>
  <line x1="343" x2="353" y1="520" y2="520" class="net_112,113"/>
  <line x1="353" x2="353" y1="520" y2="504" class="net_112,113"/>
  <line x1="353" x2="382.6666666666667" y1="504" y2="504" class="net_112,113"/>
  <line x1="404.6666666666667" x2="428" y1="496.5" y2="496.5" class="net_48"/>
  <line x1="428" x2="428" y1="496.5" y2="328" class="net_48"/>
  <line x1="428" x2="558" y1="328" y2="328" class="net_48"/>
  <line x1="558" x2="558" y1="328" y2="388" class="net_48"/>
  <circle cx="558" cy="328" r="2" style="fill:#000" class="net_48"/>
  <line x1="558" x2="578" y1="388" y2="388" class="net_48"/>
  <line x1="404.6666666666667" x2="428" y1="496.5" y2="496.5" class="net_48"/>
  <line x1="428" x2="428" y1="496.5" y2="328" class="net_48"/>
  <line x1="428" x2="578" y1="328" y2="328" class="net_48"/>
  <line x1="404.6666666666667" x2="428" y1="496.5" y2="496.5" class="net_48"/>
  <line x1="428" x2="428" y1="496.5" y2="354" class="net_48"/>
  <circle cx="428" cy="354" r="2" style="fill:#000" class="net_48"/>
  <line x1="428" x2="478" y1="354" y2="354" class="net_48"/>
  <line x1="608" x2="648" y1="395.5" y2="395.5" class="net_49"/>
  <line x1="648" x2="648" y1="395.5" y2="258" class="net_49"/>
  <line x1="648" x2="658" y1="258" y2="258" class="net_49"/>
  <line x1="278" x2="298" y1="781" y2="781" class="net_114,115,116"/>
  <line x1="298" x2="298" y1="781" y2="705" class="net_114,115,116"/>
  <line x1="298" x2="317.6666666666667" y1="705" y2="705" class="net_114,115,116"/>
  <line x1="681.3333333333334" x2="726.3333333333334" y1="102" y2="102" class="net_52,53,54,55"/>
  <line x1="688" x2="698" y1="193" y2="193" class="net_117,118,119,120"/>
  <line x1="698" x2="698" y1="193" y2="122" class="net_117,118,119,120"/>
  <line x1="698" x2="726.3333333333334" y1="122" y2="122" class="net_117,118,119,120"/>
  <line x1="688" x2="736.3333333333334" y1="250.5" y2="250.5" class="net_50"/>
  <line x1="736.3333333333334" x2="736.3333333333334" y1="250.5" y2="127" class="net_50"/>
  <line x1="508" x2="548" y1="419" y2="419" class="net_56"/>
  <line x1="548" x2="548" y1="419" y2="343" class="net_56"/>
  <line x1="548" x2="578" y1="343" y2="343" class="net_56"/>
  <line x1="601.3333333333334" x2="661.3333333333334" y1="92" y2="92" class="net_58,59,60,61"/>
  <line x1="608" x2="618" y1="335.5" y2="335.5" class="net_57"/>
  <line x1="618" x2="618" y1="335.5" y2="163" class="net_57"/>
  <line x1="618" x2="671.3333333333334" y1="163" y2="163" class="net_57"/>
  <line x1="671.3333333333334" x2="671.3333333333334" y1="163" y2="117" class="net_57"/>
  <line x1="339.6666666666667" x2="353" y1="697.5" y2="697.5" class="net_51"/>
  <line x1="353" x2="353" y1="697.5" y2="925" class="net_51"/>
  <circle cx="353" cy="697.5" r="2" style="fill:#000" class="net_51"/>
  <line x1="353" x2="853" y1="925" y2="925" class="net_51"/>
  <line x1="339.6666666666667" x2="353" y1="697.5" y2="697.5" class="net_51"/>
  <line x1="353" x2="353" y1="697.5" y2="549" class="net_51"/>
  <line x1="353" x2="378" y1="549" y2="549" class="net_51"/>
  <line x1="343" x2="363" y1="640" y2="640" class="net_125,126,127,128"/>
  <line x1="363" x2="363" y1="640" y2="624" class="net_125,126,127,128"/>
  <line x1="363" x2="382.6666666666667" y1="624" y2="624" class="net_125,126,127,128"/>
  <line x1="404.6666666666667" x2="448" y1="616.5" y2="616.5" class="net_63"/>
  <line x1="448" x2="448" y1="616.5" y2="369" class="net_63"/>
  <line x1="448" x2="478" y1="369" y2="369" class="net_63"/>
  <line x1="501.3333333333333" x2="581.3333333333334" y1="82" y2="82" class="net_65,66,67,68"/>
  <line x1="508" x2="538" y1="361.5" y2="361.5" class="net_64"/>
  <line x1="538" x2="538" y1="361.5" y2="313" class="net_64"/>
  <line x1="538" x2="591.3333333333334" y1="313" y2="313" class="net_64"/>
  <line x1="591.3333333333334" x2="591.3333333333334" y1="313" y2="107" class="net_64"/>
  <line x1="113" x2="153" y1="265.5" y2="265.5" class="net_133,134,135"/>
  <line x1="153" x2="153" y1="265.5" y2="249.5" class="net_133,134,135"/>
  <line x1="153" x2="182.66666666666666" y1="249.5" y2="249.5" class="net_133,134,135"/>
  <line x1="204.66666666666666" x2="238" y1="242" y2="242" class="net_69"/>
  <line x1="238" x2="238" y1="242" y2="564" class="net_69"/>
  <circle cx="238" cy="242" r="2" style="fill:#000" class="net_69"/>
  <line x1="238" x2="378" y1="564" y2="564" class="net_69"/>
  <line x1="204.66666666666666" x2="313" y1="242" y2="242" class="net_69"/>
  <line x1="204.66666666666666" x2="238" y1="242" y2="242" class="net_69"/>
  <line x1="238" x2="238" y1="242" y2="217" class="net_69"/>
  <line x1="238" x2="248" y1="217" y2="217" class="net_69"/>
  <line x1="401.3333333333333" x2="481.3333333333333" y1="72" y2="72" class="net_71,72,73,74"/>
  <line x1="408" x2="438" y1="556.5" y2="556.5" class="net_70"/>
  <line x1="438" x2="438" y1="556.5" y2="339" class="net_70"/>
  <line x1="438" x2="491.3333333333333" y1="339" y2="339" class="net_70"/>
  <line x1="491.3333333333333" x2="491.3333333333333" y1="339" y2="97" class="net_70"/>
  <line x1="336.3333333333333" x2="381.3333333333333" y1="62" y2="62" class="net_76,77,78,79"/>
  <line x1="343" x2="363" y1="234.5" y2="234.5" class="net_75"/>
  <line x1="363" x2="363" y1="234.5" y2="102" class="net_75"/>
  <line x1="363" x2="391.3333333333333" y1="102" y2="102" class="net_75"/>
  <line x1="391.3333333333333" x2="391.3333333333333" y1="102" y2="87" class="net_75"/>
  <line x1="265" x2="316.3333333333333" y1="52" y2="52" class="net_81,144,145,146"/>
  <line x1="278" x2="326.3333333333333" y1="209.5" y2="209.5" class="net_80"/>
  <line x1="326.3333333333333" x2="326.3333333333333" y1="209.5" y2="77" class="net_80"/>
  <line x1="42" x2="97.66666666666667" y1="162" y2="162" class="net_151,152,153,154"/>
  <line x1="113" x2="181.33333333333334" y1="32" y2="32" class="net_155"/>
  <line x1="113" x2="153" y1="97" y2="97" class="net_156"/>
  <line x1="153" x2="153" y1="97" y2="52" class="net_156"/>
  <line x1="153" x2="181.33333333333334" y1="52" y2="52" class="net_156"/>
  <line x1="119.66666666666667" x2="191.33333333333334" y1="154.5" y2="154.5" class="net_82"/>
  <line x1="191.33333333333334" x2="191.33333333333334" y1="154.5" y2="57" class="net_82"/>
  <line x1="883" x2="893" y1="932.5" y2="932.5" class="net_62"/>
  <line x1="893" x2="893" y1="932.5" y2="924" class="net_62"/>
  <line x1="893" x2="918" y1="924" y2="924" class="net_62"/>
  <line x1="1003" x2="1038" y1="152" y2="152" class="net_17,18,19,20"/>
  <line x1="201.33333333333334" x2="259" y1="42" y2="42" class="net_81"/>
  <line x1="208" x2="218" y1="184.5" y2="184.5" class="net_144,145,146"/>
  <line x1="218" x2="218" y1="184.5" y2="62" class="net_144,145,146"/>
  <line x1="218" x2="259" y1="62" y2="62" class="net_144,145,146"/>
</svg>
