<svg xmlns="http://www.w3.org/2000/svg" xmlns:xlink="http://www.w3.org/1999/xlink" xmlns:s="https://github.com/nturley/netlistsvg" width="1526" height="1058.5">
  <style>svg {
    stroke:#000;
    fill:none;
  }
  text {
    fill:#000;
    stroke:none;
    font-size:10px;
    font-weight: bold;
    font-family: "Courier New", monospace;
  }
  .nodelabel {
    text-anchor: middle;
  }
  .inputPortLabel {
    text-anchor: end;
  }
  .splitjoinBody {
    fill:#000;
  }</style>
  <g s:type="mux" transform="translate(313.66666666666663,679)" s:width="20" s:height="40" id="cell_\23">
    <s:alias val="$pmux"/>
    <s:alias val="$mux"/>
    <s:alias val="$_MUX_"/>
    <path d="M0,0 L20,10 L20,30 L0,40 Z" class="cell_\23"/>
    <g s:x="0" s:y="10" s:pid="A"/>
    <g s:x="0" s:y="30" s:pid="B"/>
    <g s:x="10" s:y="35" s:pid="S"/>
    <g s:x="20" s:y="20" s:pid="Y"/>
  </g>
  <g s:type="mux" transform="translate(379.33333333333337,689)" s:width="20" s:height="40" id="cell_\24">
    <s:alias val="$pmux"/>
    <s:alias val="$mux"/>
    <s:alias val="$_MUX_"/>
    <path d="M0,0 L20,10 L20,30 L0,40 Z" class="cell_\24"/>
    <g s:x="0" s:y="10" s:pid="A"/>
    <g s:x="0" s:y="30" s:pid="B"/>
    <g s:x="10" s:y="35" s:pid="S"/>
    <g s:x="20" s:y="20" s:pid="Y"/>
  </g>
  <g s:type="dff" transform="translate(441,699)" s:width="30" s:height="40" id="cell_\281">
    <s:alias val="$dff"/>
    <s:alias val="$_DFF_"/>
    <s:alias val="$_DFF_P_"/>
    <rect width="30" height="40" x="0" y="0" class="cell_\281"/>
    <path d="M0,35 L5,30 L0,25" class="cell_\281"/>
    <g s:x="30" s:y="10" s:pid="Q"/>
    <g s:x="0" s:y="30" s:pid="CLK"/>
    <g s:x="0" s:y="30" s:pid="C"/>
    <g s:x="0" s:y="10" s:pid="D"/>
  </g>
  <g s:type="generic" transform="translate(1004,291.5)" s:width="30" s:height="40" id="cell_module_control_unit">
    <text x="15" y="-4" class="nodelabel cell_module_control_unit" s:attribute="ref">module_control_unit_32_5</text>
    <rect width="30" height="260" s:generic="body" class="cell_module_control_unit"/>
    <g transform="translate(0,10)" s:x="0" s:y="10" s:pid="in0" id="port_module_control_unit~address_program">
      <text x="-3" y="-4" class="inputPortLabel cell_module_control_unit">address_program</text>
    </g>
    <g transform="translate(0,30)" s:x="0" s:y="10" s:pid="in0" id="port_module_control_unit~data_source_1">
      <text x="-3" y="-4" class="inputPortLabel cell_module_control_unit">data_source_1</text>
    </g>
    <g transform="translate(0,50)" s:x="0" s:y="10" s:pid="in0" id="port_module_control_unit~instruction">
      <text x="-3" y="-4" class="inputPortLabel cell_module_control_unit">instruction</text>
    </g>
    <g transform="translate(30,10)" s:x="30" s:y="10" s:pid="out0" id="port_module_control_unit~control_ex select_operation">
      <text x="5" y="-4" style="fill:#000; stroke:none" class="cell_module_control_unit">control_ex select_operation</text>
    </g>
    <g transform="translate(30,30)" s:x="30" s:y="10" s:pid="out0" id="port_module_control_unit~control_ex select_source_1">
      <text x="5" y="-4" style="fill:#000; stroke:none" class="cell_module_control_unit">control_ex select_source_1</text>
    </g>
    <g transform="translate(30,50)" s:x="30" s:y="10" s:pid="out0" id="port_module_control_unit~control_ex select_source_2">
      <text x="5" y="-4" style="fill:#000; stroke:none" class="cell_module_control_unit">control_ex select_source_2</text>
    </g>
    <g transform="translate(30,70)" s:x="30" s:y="10" s:pid="out0" id="port_module_control_unit~control_if enable_flush">
      <text x="5" y="-4" style="fill:#000; stroke:none" class="cell_module_control_unit">control_if enable_flush</text>
    </g>
    <g transform="translate(30,90)" s:x="30" s:y="10" s:pid="out0" id="port_module_control_unit~control_if enable_jump">
      <text x="5" y="-4" style="fill:#000; stroke:none" class="cell_module_control_unit">control_if enable_jump</text>
    </g>
    <g transform="translate(30,110)" s:x="30" s:y="10" s:pid="out0" id="port_module_control_unit~control_if enable_stall">
      <text x="5" y="-4" style="fill:#000; stroke:none" class="cell_module_control_unit">control_if enable_stall</text>
    </g>
    <g transform="translate(30,130)" s:x="30" s:y="10" s:pid="out0" id="port_module_control_unit~control_if select_source">
      <text x="5" y="-4" style="fill:#000; stroke:none" class="cell_module_control_unit">control_if select_source</text>
    </g>
    <g transform="translate(30,150)" s:x="30" s:y="10" s:pid="out0" id="port_module_control_unit~control_mem enable_read">
      <text x="5" y="-4" style="fill:#000; stroke:none" class="cell_module_control_unit">control_mem enable_read</text>
    </g>
    <g transform="translate(30,170)" s:x="30" s:y="10" s:pid="out0" id="port_module_control_unit~control_mem enable_write">
      <text x="5" y="-4" style="fill:#000; stroke:none" class="cell_module_control_unit">control_mem enable_write</text>
    </g>
    <g transform="translate(30,190)" s:x="30" s:y="10" s:pid="out0" id="port_module_control_unit~control_wb enable_destination">
      <text x="5" y="-4" style="fill:#000; stroke:none" class="cell_module_control_unit">control_wb enable_destination</text>
    </g>
    <g transform="translate(30,210)" s:x="30" s:y="10" s:pid="out0" id="port_module_control_unit~control_wb select_destination">
      <text x="5" y="-4" style="fill:#000; stroke:none" class="cell_module_control_unit">control_wb select_destination</text>
    </g>
    <g transform="translate(30,230)" s:x="30" s:y="10" s:pid="out0" id="port_module_control_unit~immediate_source">
      <text x="5" y="-4" style="fill:#000; stroke:none" class="cell_module_control_unit">immediate_source</text>
    </g>
    <g transform="translate(30,250)" s:x="30" s:y="10" s:pid="out0" id="port_module_control_unit~jump_address">
      <text x="5" y="-4" style="fill:#000; stroke:none" class="cell_module_control_unit">jump_address</text>
    </g>
  </g>
  <g s:type="generic" transform="translate(758,943.5)" s:width="30" s:height="40" id="cell_module_register_file">
    <text x="15" y="-4" class="nodelabel cell_module_register_file" s:attribute="ref">module_register_file_32_5</text>
    <rect width="30" height="100" s:generic="body" class="cell_module_register_file"/>
    <g transform="translate(0,10)" s:x="0" s:y="10" s:pid="in0" id="port_module_register_file~clock">
      <text x="-3" y="-4" class="inputPortLabel cell_module_register_file">clock</text>
    </g>
    <g transform="translate(0,30)" s:x="0" s:y="10" s:pid="in0" id="port_module_register_file~data_destination">
      <text x="-3" y="-4" class="inputPortLabel cell_module_register_file">data_destination</text>
    </g>
    <g transform="translate(0,50)" s:x="0" s:y="10" s:pid="in0" id="port_module_register_file~enable">
      <text x="-3" y="-4" class="inputPortLabel cell_module_register_file">enable</text>
    </g>
    <g transform="translate(0,70)" s:x="0" s:y="10" s:pid="in0" id="port_module_register_file~instruction">
      <text x="-3" y="-4" class="inputPortLabel cell_module_register_file">instruction</text>
    </g>
    <g transform="translate(0,90)" s:x="0" s:y="10" s:pid="in0" id="port_module_register_file~select_destination">
      <text x="-3" y="-4" class="inputPortLabel cell_module_register_file">select_destination</text>
    </g>
    <g transform="translate(30,10)" s:x="30" s:y="10" s:pid="out0" id="port_module_register_file~data_source_1">
      <text x="5" y="-4" style="fill:#000; stroke:none" class="cell_module_register_file">data_source_1</text>
    </g>
    <g transform="translate(30,30)" s:x="30" s:y="10" s:pid="out0" id="port_module_register_file~data_source_2">
      <text x="5" y="-4" style="fill:#000; stroke:none" class="cell_module_register_file">data_source_2</text>
    </g>
  </g>
  <g s:type="inputExt" transform="translate(376,944)" s:width="30" s:height="20" id="cell_clock">
    <text x="15" y="-4" class="nodelabel cell_clock" s:attribute="ref">clock</text>
    <s:alias val="$_inputExt_"/>
    <path d="M0,0 L0,20 L15,20 L30,10 L15,0 Z" class="cell_clock"/>
    <g s:x="28" s:y="10" s:pid="Y"/>
  </g>
  <g s:type="inputExt" transform="translate(132,764)" s:width="30" s:height="20" id="cell_clear">
    <text x="15" y="-4" class="nodelabel cell_clear" s:attribute="ref">clear</text>
    <s:alias val="$_inputExt_"/>
    <path d="M0,0 L0,20 L15,20 L30,10 L15,0 Z" class="cell_clear"/>
    <g s:x="28" s:y="10" s:pid="Y"/>
  </g>
  <g s:type="inputExt" transform="translate(305,913.5)" s:width="30" s:height="20" id="cell_enable">
    <text x="15" y="-4" class="nodelabel cell_enable" s:attribute="ref">enable</text>
    <s:alias val="$_inputExt_"/>
    <path d="M0,0 L0,20 L15,20 L30,10 L15,0 Z" class="cell_enable"/>
    <g s:x="28" s:y="10" s:pid="Y"/>
  </g>
  <g s:type="inputExt" transform="translate(12,22)" s:width="30" s:height="20" id="cell_enable_destination">
    <text x="15" y="-4" class="nodelabel cell_enable_destination" s:attribute="ref">enable_destination</text>
    <s:alias val="$_inputExt_"/>
    <path d="M0,0 L0,20 L15,20 L30,10 L15,0 Z" class="cell_enable_destination"/>
    <g s:x="28" s:y="10" s:pid="Y"/>
  </g>
  <g s:type="inputExt" transform="translate(132,829)" s:width="30" s:height="20" id="cell_source address_program">
    <text x="15" y="-4" class="nodelabel cell_source address_program" s:attribute="ref">source address_program</text>
    <s:alias val="$_inputExt_"/>
    <path d="M0,0 L0,20 L15,20 L30,10 L15,0 Z" class="cell_source address_program"/>
    <g s:x="28" s:y="10" s:pid="Y"/>
  </g>
  <g s:type="inputExt" transform="translate(132,894)" s:width="30" s:height="20" id="cell_source data_instruction">
    <text x="15" y="-4" class="nodelabel cell_source data_instruction" s:attribute="ref">source data_instruction</text>
    <s:alias val="$_inputExt_"/>
    <path d="M0,0 L0,20 L15,20 L30,10 L15,0 Z" class="cell_source data_instruction"/>
    <g s:x="28" s:y="10" s:pid="Y"/>
  </g>
  <g s:type="inputExt" transform="translate(506,1026)" s:width="30" s:height="20" id="cell_select_destination">
    <text x="15" y="-4" class="nodelabel cell_select_destination" s:attribute="ref">select_destination</text>
    <s:alias val="$_inputExt_"/>
    <path d="M0,0 L0,20 L15,20 L30,10 L15,0 Z" class="cell_select_destination"/>
    <g s:x="28" s:y="10" s:pid="Y"/>
  </g>
  <g s:type="inputExt" transform="translate(506,975)" s:width="30" s:height="20" id="cell_data_destination">
    <text x="15" y="-4" class="nodelabel cell_data_destination" s:attribute="ref">data_destination</text>
    <s:alias val="$_inputExt_"/>
    <path d="M0,0 L0,20 L15,20 L30,10 L15,0 Z" class="cell_data_destination"/>
    <g s:x="28" s:y="10" s:pid="Y"/>
  </g>
  <g s:type="outputExt" transform="translate(1340,684)" s:width="30" s:height="20" id="cell_address_jump">
    <text x="15" y="-4" class="nodelabel cell_address_jump" s:attribute="ref">address_jump</text>
    <s:alias val="$_outputExt_"/>
    <path d="M30,0 L30,20 L15,20 L0,10 L15,0 Z" class="cell_address_jump"/>
    <g s:x="0" s:y="10" s:pid="A"/>
  </g>
  <g s:type="outputExt" transform="translate(1340,347)" s:width="30" s:height="20" id="cell_control_if enable_stall">
    <text x="15" y="-4" class="nodelabel cell_control_if enable_stall" s:attribute="ref">control_if enable_stall</text>
    <s:alias val="$_outputExt_"/>
    <path d="M30,0 L30,20 L15,20 L0,10 L15,0 Z" class="cell_control_if enable_stall"/>
    <g s:x="0" s:y="10" s:pid="A"/>
  </g>
  <g s:type="outputExt" transform="translate(1340,217)" s:width="30" s:height="20" id="cell_control_if enable_flush">
    <text x="15" y="-4" class="nodelabel cell_control_if enable_flush" s:attribute="ref">control_if enable_flush</text>
    <s:alias val="$_outputExt_"/>
    <path d="M30,0 L30,20 L15,20 L0,10 L15,0 Z" class="cell_control_if enable_flush"/>
    <g s:x="0" s:y="10" s:pid="A"/>
  </g>
  <g s:type="outputExt" transform="translate(1340,282)" s:width="30" s:height="20" id="cell_control_if enable_jump">
    <text x="15" y="-4" class="nodelabel cell_control_if enable_jump" s:attribute="ref">control_if enable_jump</text>
    <s:alias val="$_outputExt_"/>
    <path d="M30,0 L30,20 L15,20 L0,10 L15,0 Z" class="cell_control_if enable_jump"/>
    <g s:x="0" s:y="10" s:pid="A"/>
  </g>
  <g s:type="outputExt" transform="translate(1340,412)" s:width="30" s:height="20" id="cell_control_if select_source">
    <text x="15" y="-4" class="nodelabel cell_control_if select_source" s:attribute="ref">control_if select_source</text>
    <s:alias val="$_outputExt_"/>
    <path d="M30,0 L30,20 L15,20 L0,10 L15,0 Z" class="cell_control_if select_source"/>
    <g s:x="0" s:y="10" s:pid="A"/>
  </g>
  <g s:type="outputExt" transform="translate(1340,152)" s:width="30" s:height="20" id="cell_signals_ex control_ex">
    <text x="15" y="-4" class="nodelabel cell_signals_ex control_ex" s:attribute="ref">signals_ex control_ex</text>
    <s:alias val="$_outputExt_"/>
    <path d="M30,0 L30,20 L15,20 L0,10 L15,0 Z" class="cell_signals_ex control_ex"/>
    <g s:x="0" s:y="10" s:pid="A"/>
  </g>
  <g s:type="outputExt" transform="translate(1340,477)" s:width="30" s:height="20" id="cell_signals_ex control_mem">
    <text x="15" y="-4" class="nodelabel cell_signals_ex control_mem" s:attribute="ref">signals_ex control_mem</text>
    <s:alias val="$_outputExt_"/>
    <path d="M30,0 L30,20 L15,20 L0,10 L15,0 Z" class="cell_signals_ex control_mem"/>
    <g s:x="0" s:y="10" s:pid="A"/>
  </g>
  <g s:type="outputExt" transform="translate(1340,554)" s:width="30" s:height="20" id="cell_signals_ex control_wb">
    <text x="15" y="-4" class="nodelabel cell_signals_ex control_wb" s:attribute="ref">signals_ex control_wb</text>
    <s:alias val="$_outputExt_"/>
    <path d="M30,0 L30,20 L15,20 L0,10 L15,0 Z" class="cell_signals_ex control_wb"/>
    <g s:x="0" s:y="10" s:pid="A"/>
  </g>
  <g s:type="outputExt" transform="translate(1340,22)" s:width="30" s:height="20" id="cell_signals_ex address_program">
    <text x="15" y="-4" class="nodelabel cell_signals_ex address_program" s:attribute="ref">signals_ex address_program</text>
    <s:alias val="$_outputExt_"/>
    <path d="M30,0 L30,20 L15,20 L0,10 L15,0 Z" class="cell_signals_ex address_program"/>
    <g s:x="0" s:y="10" s:pid="A"/>
  </g>
  <g s:type="outputExt" transform="translate(1340,944)" s:width="30" s:height="20" id="cell_signals_ex data_source_1">
    <text x="15" y="-4" class="nodelabel cell_signals_ex data_source_1" s:attribute="ref">signals_ex data_source_1</text>
    <s:alias val="$_outputExt_"/>
    <path d="M30,0 L30,20 L15,20 L0,10 L15,0 Z" class="cell_signals_ex data_source_1"/>
    <g s:x="0" s:y="10" s:pid="A"/>
  </g>
  <g s:type="outputExt" transform="translate(1340,1009)" s:width="30" s:height="20" id="cell_signals_ex data_source_2">
    <text x="15" y="-4" class="nodelabel cell_signals_ex data_source_2" s:attribute="ref">signals_ex data_source_2</text>
    <s:alias val="$_outputExt_"/>
    <path d="M30,0 L30,20 L15,20 L0,10 L15,0 Z" class="cell_signals_ex data_source_2"/>
    <g s:x="0" s:y="10" s:pid="A"/>
  </g>
  <g s:type="outputExt" transform="translate(1340,619)" s:width="30" s:height="20" id="cell_signals_ex data_immediate">
    <text x="15" y="-4" class="nodelabel cell_signals_ex data_immediate" s:attribute="ref">signals_ex data_immediate</text>
    <s:alias val="$_outputExt_"/>
    <path d="M30,0 L30,20 L15,20 L0,10 L15,0 Z" class="cell_signals_ex data_immediate"/>
    <g s:x="0" s:y="10" s:pid="A"/>
  </g>
  <g s:type="outputExt" transform="translate(1340,87)" s:width="30" s:height="20" id="cell_signals_ex funct_7">
    <text x="15" y="-4" class="nodelabel cell_signals_ex funct_7" s:attribute="ref">signals_ex funct_7</text>
    <s:alias val="$_outputExt_"/>
    <path d="M30,0 L30,20 L15,20 L0,10 L15,0 Z" class="cell_signals_ex funct_7"/>
    <g s:x="0" s:y="10" s:pid="A"/>
  </g>
  <g s:type="outputExt" transform="translate(1340,749)" s:width="30" s:height="20" id="cell_signals_ex funct_3">
    <text x="15" y="-4" class="nodelabel cell_signals_ex funct_3" s:attribute="ref">signals_ex funct_3</text>
    <s:alias val="$_outputExt_"/>
    <path d="M30,0 L30,20 L15,20 L0,10 L15,0 Z" class="cell_signals_ex funct_3"/>
    <g s:x="0" s:y="10" s:pid="A"/>
  </g>
  <g s:type="outputExt" transform="translate(1340,814)" s:width="30" s:height="20" id="cell_signals_ex opcode">
    <text x="15" y="-4" class="nodelabel cell_signals_ex opcode" s:attribute="ref">signals_ex opcode</text>
    <s:alias val="$_outputExt_"/>
    <path d="M30,0 L30,20 L15,20 L0,10 L15,0 Z" class="cell_signals_ex opcode"/>
    <g s:x="0" s:y="10" s:pid="A"/>
  </g>
  <g s:type="outputExt" transform="translate(1340,879)" s:width="30" s:height="20" id="cell_signals_ex select_destination">
    <text x="15" y="-4" class="nodelabel cell_signals_ex select_destination" s:attribute="ref">signals_ex select_destination</text>
    <s:alias val="$_outputExt_"/>
    <path d="M30,0 L30,20 L15,20 L0,10 L15,0 Z" class="cell_signals_ex select_destination"/>
    <g s:x="0" s:y="10" s:pid="A"/>
  </g>
  <g s:type="constant" transform="translate(132,699)" s:width="30" s:height="20" id="cell_0000000000000000000000000000000000000000000000000000000000000000">
    <text x="15" y="-4" class="nodelabel cell_0000000000000000000000000000000000000000000000000000000000000000" s:attribute="ref">0x0</text>
    <s:alias val="$_constant_"/>
    <rect width="30" height="20" class="cell_0000000000000000000000000000000000000000000000000000000000000000"/>
    <g s:x="30" s:y="10" s:pid="Y"/>
  </g>
  <g s:type="join" transform="translate(330,828.5)" s:width="4" s:height="40" id="cell_$join$,6,7,8,9,10,11,12,13,14,15,16,17,18,19,20,21,22,23,24,25,26,27,28,29,30,31,32,33,34,35,36,37,38,39,40,41,42,43,44,45,46,47,48,49,50,51,52,53,54,55,56,57,58,59,60,61,62,63,64,65,66,67,68,69,">
    <rect width="5" height="40" class="splitjoinBody" s:generic="body"/>
    <s:alias val="$_join_"/>
    <g s:x="5" s:y="20" s:pid="out"/>
    <g transform="translate(0,10)" s:x="0" s:y="10" s:pid="in0">
      <text x="-3" y="-4" class="inputPortLabel">0:31</text>
    </g>
    <g transform="translate(0,30)" s:x="0" s:y="10" s:pid="in0">
      <text x="-3" y="-4" class="inputPortLabel">32:63</text>
    </g>
  </g>
  <g s:type="join" transform="translate(1299,141.5)" s:width="4" s:height="40" id="cell_$join$,143,144,145,146,147,148,">
    <rect width="5" height="60" class="splitjoinBody" s:generic="body"/>
    <s:alias val="$_join_"/>
    <g s:x="5" s:y="20" s:pid="out"/>
    <g transform="translate(0,10)" s:x="0" s:y="10" s:pid="in0">
      <text x="-3" y="-4" class="inputPortLabel">0:1</text>
    </g>
    <g transform="translate(0,30)" s:x="0" s:y="10" s:pid="in0">
      <text x="-3" y="-4" class="inputPortLabel">2:3</text>
    </g>
    <g transform="translate(0,50)" s:x="0" s:y="10" s:pid="in0">
      <text x="-3" y="-4" class="inputPortLabel">4:5</text>
    </g>
  </g>
  <g s:type="join" transform="translate(1293.3333333333333,466.5)" s:width="4" s:height="40" id="cell_$join$,149,150,">
    <rect width="5" height="40" class="splitjoinBody" s:generic="body"/>
    <s:alias val="$_join_"/>
    <g s:x="5" s:y="20" s:pid="out"/>
    <g transform="translate(0,10)" s:x="0" s:y="10" s:pid="in0">
      <text x="-3" y="-4" class="inputPortLabel">0</text>
    </g>
    <g transform="translate(0,30)" s:x="0" s:y="10" s:pid="in0">
      <text x="-3" y="-4" class="inputPortLabel">1</text>
    </g>
  </g>
  <g s:type="join" transform="translate(1293.3333333333333,543.5)" s:width="4" s:height="40" id="cell_$join$,151,152,">
    <rect width="5" height="40" class="splitjoinBody" s:generic="body"/>
    <s:alias val="$_join_"/>
    <g s:x="5" s:y="20" s:pid="out"/>
    <g transform="translate(0,10)" s:x="0" s:y="10" s:pid="in0">
      <text x="-3" y="-4" class="inputPortLabel">0</text>
    </g>
    <g transform="translate(0,30)" s:x="0" s:y="10" s:pid="in0">
      <text x="-3" y="-4" class="inputPortLabel">1</text>
    </g>
  </g>
  <g s:type="split" transform="translate(541.6,688.5)" s:width="5" s:height="40" id="cell_$split$,153,154,155,156,157,158,159,160,161,162,163,164,165,166,167,168,169,170,171,172,173,174,175,176,177,178,179,180,181,182,183,184,288,289,290,291,292,293,294,295,296,297,298,299,300,301,302,303,304,305,306,307,308,309,310,311,312,281,282,283,284,285,286,287,">
    <rect width="5" height="120" class="splitjoinBody" s:generic="body"/>
    <s:alias val="$_split_"/>
    <g s:x="0" s:y="20" s:pid="in"/>
    <g transform="translate(4,10)" s:x="4" s:y="10" s:pid="out0">
      <text x="5" y="-4">0:31</text>
    </g>
    <g transform="translate(4,30)" s:x="4" s:y="10" s:pid="out0">
      <text x="5" y="-4">32:63</text>
    </g>
    <g transform="translate(4,50)" s:x="4" s:y="10" s:pid="out0">
      <text x="5" y="-4">57:63</text>
    </g>
    <g transform="translate(4,70)" s:x="4" s:y="10" s:pid="out0">
      <text x="5" y="-4">32:34</text>
    </g>
    <g transform="translate(4,90)" s:x="4" s:y="10" s:pid="out0">
      <text x="5" y="-4">34:38</text>
    </g>
    <g transform="translate(4,110)" s:x="4" s:y="10" s:pid="out0">
      <text x="5" y="-4">39:43</text>
    </g>
  </g>
  <line x1="471" x2="481" y1="709" y2="709" class="net_153,154,155,156,157,158,159,160,161,162,163,164,165,166,167,168,169,170,171,172,173,174,175,176,177,178,179,180,181,182,183,184,288,289,290,291,292,293,294,295,296,297,298,299,300,301,302,303,304,305,306,307,308,309,310,311,312,281,282,283,284,285,286,287"/>
  <line x1="481" x2="481" y1="709" y2="669" class="net_153,154,155,156,157,158,159,160,161,162,163,164,165,166,167,168,169,170,171,172,173,174,175,176,177,178,179,180,181,182,183,184,288,289,290,291,292,293,294,295,296,297,298,299,300,301,302,303,304,305,306,307,308,309,310,311,312,281,282,283,284,285,286,287"/>
  <line x1="481" x2="280" y1="669" y2="669" class="net_153,154,155,156,157,158,159,160,161,162,163,164,165,166,167,168,169,170,171,172,173,174,175,176,177,178,179,180,181,182,183,184,288,289,290,291,292,293,294,295,296,297,298,299,300,301,302,303,304,305,306,307,308,309,310,311,312,281,282,283,284,285,286,287"/>
  <line x1="280" x2="280" y1="669" y2="689" class="net_153,154,155,156,157,158,159,160,161,162,163,164,165,166,167,168,169,170,171,172,173,174,175,176,177,178,179,180,181,182,183,184,288,289,290,291,292,293,294,295,296,297,298,299,300,301,302,303,304,305,306,307,308,309,310,311,312,281,282,283,284,285,286,287"/>
  <circle cx="481" cy="709" r="2" style="fill:#000" class="net_153,154,155,156,157,158,159,160,161,162,163,164,165,166,167,168,169,170,171,172,173,174,175,176,177,178,179,180,181,182,183,184,288,289,290,291,292,293,294,295,296,297,298,299,300,301,302,303,304,305,306,307,308,309,310,311,312,281,282,283,284,285,286,287"/>
  <line x1="280" x2="313.66666666666663" y1="689" y2="689" class="net_153,154,155,156,157,158,159,160,161,162,163,164,165,166,167,168,169,170,171,172,173,174,175,176,177,178,179,180,181,182,183,184,288,289,290,291,292,293,294,295,296,297,298,299,300,301,302,303,304,305,306,307,308,309,310,311,312,281,282,283,284,285,286,287"/>
  <line x1="471" x2="541.6" y1="709" y2="709" class="net_153,154,155,156,157,158,159,160,161,162,163,164,165,166,167,168,169,170,171,172,173,174,175,176,177,178,179,180,181,182,183,184,288,289,290,291,292,293,294,295,296,297,298,299,300,301,302,303,304,305,306,307,308,309,310,311,312,281,282,283,284,285,286,287"/>
  <line x1="162" x2="313.66666666666663" y1="709" y2="709" class="net_441,442,443,444,445,446,447,448,449,450,451,452,453,454,455,456,457,458,459,460,461,462,463,464,465,466,467,468,469,470,471,472,473,474,475,476,477,478,479,480,481,482,483,484,485,486,487,488,489,490,491,492,493,494,495,496,497,498,499,500,501,502,503,504"/>
  <line x1="160" x2="323.66666666666663" y1="774" y2="774" class="net_3"/>
  <line x1="323.66666666666663" x2="323.66666666666663" y1="774" y2="714" class="net_3"/>
  <line x1="333.66666666666663" x2="379.33333333333337" y1="699" y2="699" class="net_313,314,315,316,317,318,319,320,321,322,323,324,325,326,327,328,329,330,331,332,333,334,335,336,337,338,339,340,341,342,343,344,345,346,347,348,349,350,351,352,353,354,355,356,357,358,359,360,361,362,363,364,365,366,367,368,369,370,371,372,373,374,375,376"/>
  <line x1="336" x2="351" y1="849" y2="849" class="net_6,7,8,9,10,11,12,13,14,15,16,17,18,19,20,21,22,23,24,25,26,27,28,29,30,31,32,33,34,35,36,37,38,39,40,41,42,43,44,45,46,47,48,49,50,51,52,53,54,55,56,57,58,59,60,61,62,63,64,65,66,67,68,69"/>
  <line x1="351" x2="351" y1="849" y2="719" class="net_6,7,8,9,10,11,12,13,14,15,16,17,18,19,20,21,22,23,24,25,26,27,28,29,30,31,32,33,34,35,36,37,38,39,40,41,42,43,44,45,46,47,48,49,50,51,52,53,54,55,56,57,58,59,60,61,62,63,64,65,66,67,68,69"/>
  <line x1="351" x2="379.33333333333337" y1="719" y2="719" class="net_6,7,8,9,10,11,12,13,14,15,16,17,18,19,20,21,22,23,24,25,26,27,28,29,30,31,32,33,34,35,36,37,38,39,40,41,42,43,44,45,46,47,48,49,50,51,52,53,54,55,56,57,58,59,60,61,62,63,64,65,66,67,68,69"/>
  <line x1="333" x2="389.33333333333337" y1="923.5" y2="923.5" class="net_4"/>
  <line x1="389.33333333333337" x2="389.33333333333337" y1="923.5" y2="724" class="net_4"/>
  <line x1="333" x2="351" y1="923.5" y2="923.5" class="net_4"/>
  <line x1="351" x2="351" y1="923.5" y2="1005" class="net_4"/>
  <line x1="351" x2="634" y1="1005" y2="1005" class="net_4"/>
  <line x1="634" x2="634" y1="1005" y2="994" class="net_4"/>
  <circle cx="351" cy="923.5" r="2" style="fill:#000" class="net_4"/>
  <line x1="634" x2="758" y1="994" y2="994" class="net_4"/>
  <line x1="404" x2="416" y1="954" y2="954" class="net_2"/>
  <line x1="416" x2="416" y1="954" y2="729" class="net_2"/>
  <circle cx="416" cy="954" r="2" style="fill:#000" class="net_2"/>
  <line x1="416" x2="441" y1="729" y2="729" class="net_2"/>
  <line x1="404" x2="758" y1="954" y2="954" class="net_2"/>
  <line x1="399.33333333333337" x2="441" y1="709" y2="709" class="net_377,378,379,380,381,382,383,384,385,386,387,388,389,390,391,392,393,394,395,396,397,398,399,400,401,402,403,404,405,406,407,408,409,410,411,412,413,414,415,416,417,418,419,420,421,422,423,424,425,426,427,428,429,430,431,432,433,434,435,436,437,438,439,440"/>
  <line x1="546.1" x2="546.1" y1="698.5" y2="32" class="net_153,154,155,156,157,158,159,160,161,162,163,164,165,166,167,168,169,170,171,172,173,174,175,176,177,178,179,180,181,182,183,184"/>
  <line x1="546.1" x2="898" y1="32" y2="32" class="net_153,154,155,156,157,158,159,160,161,162,163,164,165,166,167,168,169,170,171,172,173,174,175,176,177,178,179,180,181,182,183,184"/>
  <line x1="898" x2="898" y1="32" y2="302" class="net_153,154,155,156,157,158,159,160,161,162,163,164,165,166,167,168,169,170,171,172,173,174,175,176,177,178,179,180,181,182,183,184"/>
  <circle cx="898" cy="32" r="2" style="fill:#000" class="net_153,154,155,156,157,158,159,160,161,162,163,164,165,166,167,168,169,170,171,172,173,174,175,176,177,178,179,180,181,182,183,184"/>
  <line x1="898" x2="1004" y1="302" y2="302" class="net_153,154,155,156,157,158,159,160,161,162,163,164,165,166,167,168,169,170,171,172,173,174,175,176,177,178,179,180,181,182,183,184"/>
  <line x1="546.1" x2="546.1" y1="698.5" y2="32" class="net_153,154,155,156,157,158,159,160,161,162,163,164,165,166,167,168,169,170,171,172,173,174,175,176,177,178,179,180,181,182,183,184"/>
  <line x1="546.1" x2="1340" y1="32" y2="32" class="net_153,154,155,156,157,158,159,160,161,162,163,164,165,166,167,168,169,170,171,172,173,174,175,176,177,178,179,180,181,182,183,184"/>
  <line x1="789" x2="898" y1="954" y2="954" class="net_185,186,187,188,189,190,191,192,193,194,195,196,197,198,199,200,201,202,203,204,205,206,207,208,209,210,211,212,213,214,215,216"/>
  <line x1="898" x2="898" y1="954" y2="322" class="net_185,186,187,188,189,190,191,192,193,194,195,196,197,198,199,200,201,202,203,204,205,206,207,208,209,210,211,212,213,214,215,216"/>
  <circle cx="898" cy="954" r="2" style="fill:#000" class="net_185,186,187,188,189,190,191,192,193,194,195,196,197,198,199,200,201,202,203,204,205,206,207,208,209,210,211,212,213,214,215,216"/>
  <line x1="898" x2="1004" y1="322" y2="322" class="net_185,186,187,188,189,190,191,192,193,194,195,196,197,198,199,200,201,202,203,204,205,206,207,208,209,210,211,212,213,214,215,216"/>
  <line x1="789" x2="1340" y1="954" y2="954" class="net_185,186,187,188,189,190,191,192,193,194,195,196,197,198,199,200,201,202,203,204,205,206,207,208,209,210,211,212,213,214,215,216"/>
  <line x1="546.6" x2="624" y1="719" y2="719" class="net_288,289,290,291,292,293,294,295,296,297,298,299,300,301,302,303,304,305,306,307,308,309,310,311,312,281,282,283,284,285,286,287"/>
  <line x1="624" x2="624" y1="719" y2="43" class="net_288,289,290,291,292,293,294,295,296,297,298,299,300,301,302,303,304,305,306,307,308,309,310,311,312,281,282,283,284,285,286,287"/>
  <line x1="624" x2="888" y1="43" y2="43" class="net_288,289,290,291,292,293,294,295,296,297,298,299,300,301,302,303,304,305,306,307,308,309,310,311,312,281,282,283,284,285,286,287"/>
  <line x1="888" x2="888" y1="43" y2="342" class="net_288,289,290,291,292,293,294,295,296,297,298,299,300,301,302,303,304,305,306,307,308,309,310,311,312,281,282,283,284,285,286,287"/>
  <circle cx="624" cy="719" r="2" style="fill:#000" class="net_288,289,290,291,292,293,294,295,296,297,298,299,300,301,302,303,304,305,306,307,308,309,310,311,312,281,282,283,284,285,286,287"/>
  <line x1="888" x2="1004" y1="342" y2="342" class="net_288,289,290,291,292,293,294,295,296,297,298,299,300,301,302,303,304,305,306,307,308,309,310,311,312,281,282,283,284,285,286,287"/>
  <line x1="546.6" x2="624" y1="719" y2="719" class="net_288,289,290,291,292,293,294,295,296,297,298,299,300,301,302,303,304,305,306,307,308,309,310,311,312,281,282,283,284,285,286,287"/>
  <line x1="624" x2="624" y1="719" y2="1014" class="net_288,289,290,291,292,293,294,295,296,297,298,299,300,301,302,303,304,305,306,307,308,309,310,311,312,281,282,283,284,285,286,287"/>
  <line x1="624" x2="758" y1="1014" y2="1014" class="net_288,289,290,291,292,293,294,295,296,297,298,299,300,301,302,303,304,305,306,307,308,309,310,311,312,281,282,283,284,285,286,287"/>
  <line x1="534" x2="634" y1="985" y2="985" class="net_75,76,77,78,79,80,81,82,83,84,85,86,87,88,89,90,91,92,93,94,95,96,97,98,99,100,101,102,103,104,105,106"/>
  <line x1="634" x2="634" y1="985" y2="974" class="net_75,76,77,78,79,80,81,82,83,84,85,86,87,88,89,90,91,92,93,94,95,96,97,98,99,100,101,102,103,104,105,106"/>
  <line x1="634" x2="758" y1="974" y2="974" class="net_75,76,77,78,79,80,81,82,83,84,85,86,87,88,89,90,91,92,93,94,95,96,97,98,99,100,101,102,103,104,105,106"/>
  <line x1="534" x2="624" y1="1036" y2="1036" class="net_70,71,72,73,74"/>
  <line x1="624" x2="624" y1="1036" y2="1034" class="net_70,71,72,73,74"/>
  <line x1="624" x2="758" y1="1034" y2="1034" class="net_70,71,72,73,74"/>
  <line x1="1035" x2="1220" y1="542" y2="542" class="net_107,108,109,110,111,112,113,114,115,116,117,118,119,120,121,122,123,124,125,126,127,128,129,130,131,132,133,134,135,136,137,138"/>
  <line x1="1220" x2="1220" y1="542" y2="694" class="net_107,108,109,110,111,112,113,114,115,116,117,118,119,120,121,122,123,124,125,126,127,128,129,130,131,132,133,134,135,136,137,138"/>
  <line x1="1220" x2="1340" y1="694" y2="694" class="net_107,108,109,110,111,112,113,114,115,116,117,118,119,120,121,122,123,124,125,126,127,128,129,130,131,132,133,134,135,136,137,138"/>
  <line x1="1035" x2="1270" y1="402" y2="402" class="net_139"/>
  <line x1="1270" x2="1270" y1="402" y2="357" class="net_139"/>
  <line x1="1270" x2="1340" y1="357" y2="357" class="net_139"/>
  <line x1="1035" x2="1250" y1="362" y2="362" class="net_140"/>
  <line x1="1250" x2="1250" y1="362" y2="227" class="net_140"/>
  <line x1="1250" x2="1340" y1="227" y2="227" class="net_140"/>
  <line x1="1035" x2="1260" y1="382" y2="382" class="net_141"/>
  <line x1="1260" x2="1260" y1="382" y2="292" class="net_141"/>
  <line x1="1260" x2="1340" y1="292" y2="292" class="net_141"/>
  <line x1="1035" x2="1340" y1="422" y2="422" class="net_142"/>
  <line x1="1305" x2="1340" y1="162" y2="162" class="net_143,144,145,146,147,148"/>
  <line x1="1299.3333333333333" x2="1340" y1="487" y2="487" class="net_149,150"/>
  <line x1="1299.3333333333333" x2="1340" y1="564" y2="564" class="net_151,152"/>
  <line x1="789" x2="888" y1="974" y2="974" class="net_217,218,219,220,221,222,223,224,225,226,227,228,229,230,231,232,233,234,235,236,237,238,239,240,241,242,243,244,245,246,247,248"/>
  <line x1="888" x2="888" y1="974" y2="1019" class="net_217,218,219,220,221,222,223,224,225,226,227,228,229,230,231,232,233,234,235,236,237,238,239,240,241,242,243,244,245,246,247,248"/>
  <line x1="888" x2="1340" y1="1019" y2="1019" class="net_217,218,219,220,221,222,223,224,225,226,227,228,229,230,231,232,233,234,235,236,237,238,239,240,241,242,243,244,245,246,247,248"/>
  <line x1="1035" x2="1230" y1="522" y2="522" class="net_249,250,251,252,253,254,255,256,257,258,259,260,261,262,263,264,265,266,267,268,269,270,271,272,273,274,275,276,277,278,279,280"/>
  <line x1="1230" x2="1230" y1="522" y2="629" class="net_249,250,251,252,253,254,255,256,257,258,259,260,261,262,263,264,265,266,267,268,269,270,271,272,273,274,275,276,277,278,279,280"/>
  <line x1="1230" x2="1340" y1="629" y2="629" class="net_249,250,251,252,253,254,255,256,257,258,259,260,261,262,263,264,265,266,267,268,269,270,271,272,273,274,275,276,277,278,279,280"/>
  <line x1="546.6" x2="634" y1="739" y2="739" class="net_281,282,283,284,285,286,287"/>
  <line x1="634" x2="634" y1="739" y2="97" class="net_281,282,283,284,285,286,287"/>
  <line x1="634" x2="1340" y1="97" y2="97" class="net_281,282,283,284,285,286,287"/>
  <line x1="546.6" x2="1340" y1="759" y2="759" class="net_288,289,290"/>
  <line x1="546.6" x2="634" y1="779" y2="779" class="net_290,291,292,293,294"/>
  <line x1="634" x2="634" y1="779" y2="824" class="net_290,291,292,293,294"/>
  <line x1="634" x2="1340" y1="824" y2="824" class="net_290,291,292,293,294"/>
  <line x1="546.1" x2="546.1" y1="799.5" y2="889" class="net_295,296,297,298,299"/>
  <line x1="546.1" x2="1340" y1="889" y2="889" class="net_295,296,297,298,299"/>
  <line x1="160" x2="330" y1="839" y2="839" class="net_6,7,8,9,10,11,12,13,14,15,16,17,18,19,20,21,22,23,24,25,26,27,28,29,30,31,32,33,34,35,36,37"/>
  <line x1="160" x2="280" y1="904" y2="904" class="net_38,39,40,41,42,43,44,45,46,47,48,49,50,51,52,53,54,55,56,57,58,59,60,61,62,63,64,65,66,67,68,69"/>
  <line x1="280" x2="280" y1="904" y2="859" class="net_38,39,40,41,42,43,44,45,46,47,48,49,50,51,52,53,54,55,56,57,58,59,60,61,62,63,64,65,66,67,68,69"/>
  <line x1="280" x2="330" y1="859" y2="859" class="net_38,39,40,41,42,43,44,45,46,47,48,49,50,51,52,53,54,55,56,57,58,59,60,61,62,63,64,65,66,67,68,69"/>
  <line x1="1035" x2="1230" y1="322" y2="322" class="net_143,144"/>
  <line x1="1230" x2="1230" y1="322" y2="152" class="net_143,144"/>
  <line x1="1230" x2="1299" y1="152" y2="152" class="net_143,144"/>
  <line x1="1035" x2="1240" y1="342" y2="342" class="net_145,146"/>
  <line x1="1240" x2="1240" y1="342" y2="172" class="net_145,146"/>
  <line x1="1240" x2="1299" y1="172" y2="172" class="net_145,146"/>
  <line x1="1035" x2="1220" y1="302" y2="302" class="net_147,148"/>
  <line x1="1220" x2="1220" y1="302" y2="192" class="net_147,148"/>
  <line x1="1220" x2="1299" y1="192" y2="192" class="net_147,148"/>
  <line x1="1035" x2="1270" y1="442" y2="442" class="net_149"/>
  <line x1="1270" x2="1270" y1="442" y2="477" class="net_149"/>
  <line x1="1270" x2="1293.3333333333333" y1="477" y2="477" class="net_149"/>
  <line x1="1035" x2="1260" y1="462" y2="462" class="net_150"/>
  <line x1="1260" x2="1260" y1="462" y2="497" class="net_150"/>
  <line x1="1260" x2="1293.3333333333333" y1="497" y2="497" class="net_150"/>
  <line x1="1035" x2="1250" y1="482" y2="482" class="net_151"/>
  <line x1="1250" x2="1250" y1="482" y2="554" class="net_151"/>
  <line x1="1250" x2="1293.3333333333333" y1="554" y2="554" class="net_151"/>
  <line x1="1035" x2="1240" y1="502" y2="502" class="net_152"/>
  <line x1="1240" x2="1240" y1="502" y2="574" class="net_152"/>
  <line x1="1240" x2="1293.3333333333333" y1="574" y2="574" class="net_152"/>
</svg>
