<?xml version="1.0" encoding="utf-8"?>
<!-- Generator: Adobe Illustrator 26.4.0, SVG Export Plug-In . SVG Version: 6.00 Build 0)  -->
<svg version="1.1" id="Layer_1" xmlns="http://www.w3.org/2000/svg" xmlns:xlink="http://www.w3.org/1999/xlink" x="0px" y="0px"
	 viewBox="0 0 1000 780.4" style="enable-background:new 0 0 1000 780.4;" xml:space="preserve">
<style type="text/css">
	.st0{fill:#F4B01B;}
	.st1{fill:#FFFFFF;}
</style>
<g>
	<g>
		<path class="st0" d="M532,188.2c0,83.2-50.4,158.9-148.8,171.9L522,524l12.6-13l253.1-354.2V9.1H378.2l0,0
			C481.6,19.2,532,105,532,188.2z"/>
		<path class="st1" d="M602.7,556.3l185-258.5v279h-201L602.7,556.3z M247.1,289h95.8c70.6,0,105.9-50.4,105.9-100.9
			s-35.3-98.3-105.9-98.3H216.8l0,0h-5v487.1h244.6L247.1,329.4V289L247.1,289z"/>
	</g>
	<g>
		<g>
			<rect x="224.3" y="634.8" class="st1" width="29.1" height="136.5"/>
			<path class="st1" d="M426.5,741.4l-151.1-0.1v30h152.3c11.4,0,21.1-4.4,29.1-12.3c7.9-7.9,12.3-17.6,12.3-29s-4.4-21.1-12.3-29.1
				c-7.9-7.9-17.6-12.3-29.1-12.3l-110.8-0.8c-6.5,0-11.8-5.3-11.9-11.9l0,0l0,0c0-6.6,5.4-11.9,11.9-11.9l152.1-0.1v-29.1H316.7
				c-11.5,0-21.1,4.4-29,12.3c-7.9,7.9-12.3,17.6-12.3,29.1s4.4,21.1,12.3,29s17.6,11.4,29,11.4h110.6c6.6,0,11.9,5.3,11.9,11.9l0,0
				l0,0C439.3,735.7,433.5,741.4,426.5,741.4z"/>
			<path class="st1" d="M550.8,634.8h125.9v29.1H550.8c-10.5,0-19.3,3.5-27.3,11.4c-7.9,7.9-11.4,16.7-11.4,27.3
				c0,10.5,3.5,19.3,11.4,27.3c8,7.9,16.8,11.4,27.3,11.4h125.9v30H550.9c-18.5,0-34.4-7.1-47.6-20.3
				c-13.2-13.2-19.3-29.1-19.3-47.5c0-18.5,6.1-34.3,19.3-47.5C516.5,641.9,532.3,634.8,550.8,634.8z"/>
			<path class="st1" d="M160.1,689.6l-121.5-0.2v-24.6l122.7-0.2c6.6,0,12,5.3,12,11.9l0,0l0,0C173.3,683.7,167.3,689.6,160.1,689.6
				z M203.2,771.3l-38.7-53.7c10.5-0.9,19.3-4.4,26.4-12.3c7.9-7.9,12.3-17.6,12.3-29s-4.4-21.2-12.3-29.1s-17.6-12.3-29.1-12.3H9.5
				v136.5h29.1v-53.7h89.8l38.7,53.7h36.1L203.2,771.3L203.2,771.3z"/>
			<polygon class="st0" points="821.9,771.3 742.2,634.8 776.3,634.8 838.7,743.1 901,634.8 934.6,634.8 855.4,771.3 			"/>
			<rect x="694.3" y="690.3" class="st0" width="57.2" height="26.4"/>
		</g>
		<g>
			<path class="st1" d="M990.5,656.6c0,11.9-9.3,21.2-21.5,21.2c-12,0-21.6-9.3-21.6-21.2c0-11.6,9.6-20.9,21.6-20.9
				C981.2,635.6,990.5,645,990.5,656.6z M952.8,656.6c0,9.3,6.9,16.7,16.3,16.7c9.2,0,16-7.4,16-16.6c0-9.3-6.8-16.8-16.1-16.8
				C959.7,639.8,952.8,647.4,952.8,656.6z M965.7,667.6h-4.8v-20.9c1.9-0.4,4.6-0.6,8-0.6c4,0,5.8,0.6,7.3,1.5c1.2,0.9,2,2.5,2,4.6
				c0,2.3-1.8,4.1-4.3,4.8v0.3c2,0.8,3.2,2.3,3.8,5.1c0.6,3.2,1,4.5,1.5,5.2H974c-0.6-0.8-1-2.7-1.7-5.1c-0.4-2.3-1.7-3.3-4.3-3.3
				h-2.3V667.6z M965.8,655.7h2.3c2.7,0,4.8-0.9,4.8-3.1c0-1.9-1.4-3.2-4.5-3.2c-1.3,0-2.2,0.1-2.7,0.2v6.1H965.8z"/>
		</g>
	</g>
</g>
</svg>
